%TF.GenerationSoftware,KiCad,Pcbnew,7.0.5*%
%TF.CreationDate,2023-12-18T11:55:03-06:00*%
%TF.ProjectId,peakick,7065616b-6963-46b2-9e6b-696361645f70,rev?*%
%TF.SameCoordinates,Original*%
%TF.FileFunction,Legend,Top*%
%TF.FilePolarity,Positive*%
%FSLAX46Y46*%
G04 Gerber Fmt 4.6, Leading zero omitted, Abs format (unit mm)*
G04 Created by KiCad (PCBNEW 7.0.5) date 2023-12-18 11:55:03*
%MOMM*%
%LPD*%
G01*
G04 APERTURE LIST*
%ADD10C,0.150000*%
%ADD11C,0.120000*%
%ADD12C,0.127000*%
%ADD13C,0.200000*%
%ADD14C,0.010000*%
%ADD15C,0.152400*%
%ADD16C,0.100000*%
G04 APERTURE END LIST*
D10*
X131296779Y-84913152D02*
X131296779Y-85913152D01*
X131296779Y-84960771D02*
X131392017Y-84913152D01*
X131392017Y-84913152D02*
X131582493Y-84913152D01*
X131582493Y-84913152D02*
X131677731Y-84960771D01*
X131677731Y-84960771D02*
X131725350Y-85008390D01*
X131725350Y-85008390D02*
X131772969Y-85103628D01*
X131772969Y-85103628D02*
X131772969Y-85389342D01*
X131772969Y-85389342D02*
X131725350Y-85484580D01*
X131725350Y-85484580D02*
X131677731Y-85532200D01*
X131677731Y-85532200D02*
X131582493Y-85579819D01*
X131582493Y-85579819D02*
X131392017Y-85579819D01*
X131392017Y-85579819D02*
X131296779Y-85532200D01*
X132582493Y-85532200D02*
X132487255Y-85579819D01*
X132487255Y-85579819D02*
X132296779Y-85579819D01*
X132296779Y-85579819D02*
X132201541Y-85532200D01*
X132201541Y-85532200D02*
X132153922Y-85436961D01*
X132153922Y-85436961D02*
X132153922Y-85056009D01*
X132153922Y-85056009D02*
X132201541Y-84960771D01*
X132201541Y-84960771D02*
X132296779Y-84913152D01*
X132296779Y-84913152D02*
X132487255Y-84913152D01*
X132487255Y-84913152D02*
X132582493Y-84960771D01*
X132582493Y-84960771D02*
X132630112Y-85056009D01*
X132630112Y-85056009D02*
X132630112Y-85151247D01*
X132630112Y-85151247D02*
X132153922Y-85246485D01*
X133487255Y-85579819D02*
X133487255Y-85056009D01*
X133487255Y-85056009D02*
X133439636Y-84960771D01*
X133439636Y-84960771D02*
X133344398Y-84913152D01*
X133344398Y-84913152D02*
X133153922Y-84913152D01*
X133153922Y-84913152D02*
X133058684Y-84960771D01*
X133487255Y-85532200D02*
X133392017Y-85579819D01*
X133392017Y-85579819D02*
X133153922Y-85579819D01*
X133153922Y-85579819D02*
X133058684Y-85532200D01*
X133058684Y-85532200D02*
X133011065Y-85436961D01*
X133011065Y-85436961D02*
X133011065Y-85341723D01*
X133011065Y-85341723D02*
X133058684Y-85246485D01*
X133058684Y-85246485D02*
X133153922Y-85198866D01*
X133153922Y-85198866D02*
X133392017Y-85198866D01*
X133392017Y-85198866D02*
X133487255Y-85151247D01*
X133963446Y-85579819D02*
X133963446Y-84579819D01*
X134058684Y-85198866D02*
X134344398Y-85579819D01*
X134344398Y-84913152D02*
X133963446Y-85294104D01*
X134772970Y-85579819D02*
X134772970Y-84913152D01*
X134772970Y-84579819D02*
X134725351Y-84627438D01*
X134725351Y-84627438D02*
X134772970Y-84675057D01*
X134772970Y-84675057D02*
X134820589Y-84627438D01*
X134820589Y-84627438D02*
X134772970Y-84579819D01*
X134772970Y-84579819D02*
X134772970Y-84675057D01*
X135677731Y-85532200D02*
X135582493Y-85579819D01*
X135582493Y-85579819D02*
X135392017Y-85579819D01*
X135392017Y-85579819D02*
X135296779Y-85532200D01*
X135296779Y-85532200D02*
X135249160Y-85484580D01*
X135249160Y-85484580D02*
X135201541Y-85389342D01*
X135201541Y-85389342D02*
X135201541Y-85103628D01*
X135201541Y-85103628D02*
X135249160Y-85008390D01*
X135249160Y-85008390D02*
X135296779Y-84960771D01*
X135296779Y-84960771D02*
X135392017Y-84913152D01*
X135392017Y-84913152D02*
X135582493Y-84913152D01*
X135582493Y-84913152D02*
X135677731Y-84960771D01*
X136106303Y-85579819D02*
X136106303Y-84579819D01*
X136201541Y-85198866D02*
X136487255Y-85579819D01*
X136487255Y-84913152D02*
X136106303Y-85294104D01*
X137534875Y-84579819D02*
X137868208Y-85579819D01*
X137868208Y-85579819D02*
X138201541Y-84579819D01*
X139058684Y-85579819D02*
X138487256Y-85579819D01*
X138772970Y-85579819D02*
X138772970Y-84579819D01*
X138772970Y-84579819D02*
X138677732Y-84722676D01*
X138677732Y-84722676D02*
X138582494Y-84817914D01*
X138582494Y-84817914D02*
X138487256Y-84865533D01*
X131296779Y-88799819D02*
X131296779Y-87799819D01*
X131725350Y-88799819D02*
X131725350Y-88276009D01*
X131725350Y-88276009D02*
X131677731Y-88180771D01*
X131677731Y-88180771D02*
X131582493Y-88133152D01*
X131582493Y-88133152D02*
X131439636Y-88133152D01*
X131439636Y-88133152D02*
X131344398Y-88180771D01*
X131344398Y-88180771D02*
X131296779Y-88228390D01*
X132058684Y-88133152D02*
X132439636Y-88133152D01*
X132201541Y-87799819D02*
X132201541Y-88656961D01*
X132201541Y-88656961D02*
X132249160Y-88752200D01*
X132249160Y-88752200D02*
X132344398Y-88799819D01*
X132344398Y-88799819D02*
X132439636Y-88799819D01*
X132630113Y-88133152D02*
X133011065Y-88133152D01*
X132772970Y-87799819D02*
X132772970Y-88656961D01*
X132772970Y-88656961D02*
X132820589Y-88752200D01*
X132820589Y-88752200D02*
X132915827Y-88799819D01*
X132915827Y-88799819D02*
X133011065Y-88799819D01*
X133344399Y-88133152D02*
X133344399Y-89133152D01*
X133344399Y-88180771D02*
X133439637Y-88133152D01*
X133439637Y-88133152D02*
X133630113Y-88133152D01*
X133630113Y-88133152D02*
X133725351Y-88180771D01*
X133725351Y-88180771D02*
X133772970Y-88228390D01*
X133772970Y-88228390D02*
X133820589Y-88323628D01*
X133820589Y-88323628D02*
X133820589Y-88609342D01*
X133820589Y-88609342D02*
X133772970Y-88704580D01*
X133772970Y-88704580D02*
X133725351Y-88752200D01*
X133725351Y-88752200D02*
X133630113Y-88799819D01*
X133630113Y-88799819D02*
X133439637Y-88799819D01*
X133439637Y-88799819D02*
X133344399Y-88752200D01*
X134201542Y-88752200D02*
X134296780Y-88799819D01*
X134296780Y-88799819D02*
X134487256Y-88799819D01*
X134487256Y-88799819D02*
X134582494Y-88752200D01*
X134582494Y-88752200D02*
X134630113Y-88656961D01*
X134630113Y-88656961D02*
X134630113Y-88609342D01*
X134630113Y-88609342D02*
X134582494Y-88514104D01*
X134582494Y-88514104D02*
X134487256Y-88466485D01*
X134487256Y-88466485D02*
X134344399Y-88466485D01*
X134344399Y-88466485D02*
X134249161Y-88418866D01*
X134249161Y-88418866D02*
X134201542Y-88323628D01*
X134201542Y-88323628D02*
X134201542Y-88276009D01*
X134201542Y-88276009D02*
X134249161Y-88180771D01*
X134249161Y-88180771D02*
X134344399Y-88133152D01*
X134344399Y-88133152D02*
X134487256Y-88133152D01*
X134487256Y-88133152D02*
X134582494Y-88180771D01*
X135058685Y-88704580D02*
X135106304Y-88752200D01*
X135106304Y-88752200D02*
X135058685Y-88799819D01*
X135058685Y-88799819D02*
X135011066Y-88752200D01*
X135011066Y-88752200D02*
X135058685Y-88704580D01*
X135058685Y-88704580D02*
X135058685Y-88799819D01*
X135058685Y-88180771D02*
X135106304Y-88228390D01*
X135106304Y-88228390D02*
X135058685Y-88276009D01*
X135058685Y-88276009D02*
X135011066Y-88228390D01*
X135011066Y-88228390D02*
X135058685Y-88180771D01*
X135058685Y-88180771D02*
X135058685Y-88276009D01*
X136249160Y-87752200D02*
X135392018Y-89037914D01*
X137296779Y-87752200D02*
X136439637Y-89037914D01*
X138058684Y-88133152D02*
X138058684Y-88942676D01*
X138058684Y-88942676D02*
X138011065Y-89037914D01*
X138011065Y-89037914D02*
X137963446Y-89085533D01*
X137963446Y-89085533D02*
X137868208Y-89133152D01*
X137868208Y-89133152D02*
X137725351Y-89133152D01*
X137725351Y-89133152D02*
X137630113Y-89085533D01*
X138058684Y-88752200D02*
X137963446Y-88799819D01*
X137963446Y-88799819D02*
X137772970Y-88799819D01*
X137772970Y-88799819D02*
X137677732Y-88752200D01*
X137677732Y-88752200D02*
X137630113Y-88704580D01*
X137630113Y-88704580D02*
X137582494Y-88609342D01*
X137582494Y-88609342D02*
X137582494Y-88323628D01*
X137582494Y-88323628D02*
X137630113Y-88228390D01*
X137630113Y-88228390D02*
X137677732Y-88180771D01*
X137677732Y-88180771D02*
X137772970Y-88133152D01*
X137772970Y-88133152D02*
X137963446Y-88133152D01*
X137963446Y-88133152D02*
X138058684Y-88180771D01*
X138534875Y-88799819D02*
X138534875Y-88133152D01*
X138534875Y-87799819D02*
X138487256Y-87847438D01*
X138487256Y-87847438D02*
X138534875Y-87895057D01*
X138534875Y-87895057D02*
X138582494Y-87847438D01*
X138582494Y-87847438D02*
X138534875Y-87799819D01*
X138534875Y-87799819D02*
X138534875Y-87895057D01*
X138868208Y-88133152D02*
X139249160Y-88133152D01*
X139011065Y-87799819D02*
X139011065Y-88656961D01*
X139011065Y-88656961D02*
X139058684Y-88752200D01*
X139058684Y-88752200D02*
X139153922Y-88799819D01*
X139153922Y-88799819D02*
X139249160Y-88799819D01*
X139582494Y-88799819D02*
X139582494Y-87799819D01*
X140011065Y-88799819D02*
X140011065Y-88276009D01*
X140011065Y-88276009D02*
X139963446Y-88180771D01*
X139963446Y-88180771D02*
X139868208Y-88133152D01*
X139868208Y-88133152D02*
X139725351Y-88133152D01*
X139725351Y-88133152D02*
X139630113Y-88180771D01*
X139630113Y-88180771D02*
X139582494Y-88228390D01*
X140915827Y-88133152D02*
X140915827Y-88799819D01*
X140487256Y-88133152D02*
X140487256Y-88656961D01*
X140487256Y-88656961D02*
X140534875Y-88752200D01*
X140534875Y-88752200D02*
X140630113Y-88799819D01*
X140630113Y-88799819D02*
X140772970Y-88799819D01*
X140772970Y-88799819D02*
X140868208Y-88752200D01*
X140868208Y-88752200D02*
X140915827Y-88704580D01*
X141392018Y-88799819D02*
X141392018Y-87799819D01*
X141392018Y-88180771D02*
X141487256Y-88133152D01*
X141487256Y-88133152D02*
X141677732Y-88133152D01*
X141677732Y-88133152D02*
X141772970Y-88180771D01*
X141772970Y-88180771D02*
X141820589Y-88228390D01*
X141820589Y-88228390D02*
X141868208Y-88323628D01*
X141868208Y-88323628D02*
X141868208Y-88609342D01*
X141868208Y-88609342D02*
X141820589Y-88704580D01*
X141820589Y-88704580D02*
X141772970Y-88752200D01*
X141772970Y-88752200D02*
X141677732Y-88799819D01*
X141677732Y-88799819D02*
X141487256Y-88799819D01*
X141487256Y-88799819D02*
X141392018Y-88752200D01*
X142296780Y-88704580D02*
X142344399Y-88752200D01*
X142344399Y-88752200D02*
X142296780Y-88799819D01*
X142296780Y-88799819D02*
X142249161Y-88752200D01*
X142249161Y-88752200D02*
X142296780Y-88704580D01*
X142296780Y-88704580D02*
X142296780Y-88799819D01*
X143201541Y-88752200D02*
X143106303Y-88799819D01*
X143106303Y-88799819D02*
X142915827Y-88799819D01*
X142915827Y-88799819D02*
X142820589Y-88752200D01*
X142820589Y-88752200D02*
X142772970Y-88704580D01*
X142772970Y-88704580D02*
X142725351Y-88609342D01*
X142725351Y-88609342D02*
X142725351Y-88323628D01*
X142725351Y-88323628D02*
X142772970Y-88228390D01*
X142772970Y-88228390D02*
X142820589Y-88180771D01*
X142820589Y-88180771D02*
X142915827Y-88133152D01*
X142915827Y-88133152D02*
X143106303Y-88133152D01*
X143106303Y-88133152D02*
X143201541Y-88180771D01*
X143772970Y-88799819D02*
X143677732Y-88752200D01*
X143677732Y-88752200D02*
X143630113Y-88704580D01*
X143630113Y-88704580D02*
X143582494Y-88609342D01*
X143582494Y-88609342D02*
X143582494Y-88323628D01*
X143582494Y-88323628D02*
X143630113Y-88228390D01*
X143630113Y-88228390D02*
X143677732Y-88180771D01*
X143677732Y-88180771D02*
X143772970Y-88133152D01*
X143772970Y-88133152D02*
X143915827Y-88133152D01*
X143915827Y-88133152D02*
X144011065Y-88180771D01*
X144011065Y-88180771D02*
X144058684Y-88228390D01*
X144058684Y-88228390D02*
X144106303Y-88323628D01*
X144106303Y-88323628D02*
X144106303Y-88609342D01*
X144106303Y-88609342D02*
X144058684Y-88704580D01*
X144058684Y-88704580D02*
X144011065Y-88752200D01*
X144011065Y-88752200D02*
X143915827Y-88799819D01*
X143915827Y-88799819D02*
X143772970Y-88799819D01*
X144534875Y-88799819D02*
X144534875Y-88133152D01*
X144534875Y-88228390D02*
X144582494Y-88180771D01*
X144582494Y-88180771D02*
X144677732Y-88133152D01*
X144677732Y-88133152D02*
X144820589Y-88133152D01*
X144820589Y-88133152D02*
X144915827Y-88180771D01*
X144915827Y-88180771D02*
X144963446Y-88276009D01*
X144963446Y-88276009D02*
X144963446Y-88799819D01*
X144963446Y-88276009D02*
X145011065Y-88180771D01*
X145011065Y-88180771D02*
X145106303Y-88133152D01*
X145106303Y-88133152D02*
X145249160Y-88133152D01*
X145249160Y-88133152D02*
X145344399Y-88180771D01*
X145344399Y-88180771D02*
X145392018Y-88276009D01*
X145392018Y-88276009D02*
X145392018Y-88799819D01*
X146582493Y-87752200D02*
X145725351Y-89037914D01*
X146915827Y-88799819D02*
X146915827Y-88133152D01*
X146915827Y-88323628D02*
X146963446Y-88228390D01*
X146963446Y-88228390D02*
X147011065Y-88180771D01*
X147011065Y-88180771D02*
X147106303Y-88133152D01*
X147106303Y-88133152D02*
X147201541Y-88133152D01*
X147534875Y-88799819D02*
X147534875Y-88133152D01*
X147534875Y-88323628D02*
X147582494Y-88228390D01*
X147582494Y-88228390D02*
X147630113Y-88180771D01*
X147630113Y-88180771D02*
X147725351Y-88133152D01*
X147725351Y-88133152D02*
X147820589Y-88133152D01*
X148582494Y-88799819D02*
X148582494Y-88276009D01*
X148582494Y-88276009D02*
X148534875Y-88180771D01*
X148534875Y-88180771D02*
X148439637Y-88133152D01*
X148439637Y-88133152D02*
X148249161Y-88133152D01*
X148249161Y-88133152D02*
X148153923Y-88180771D01*
X148582494Y-88752200D02*
X148487256Y-88799819D01*
X148487256Y-88799819D02*
X148249161Y-88799819D01*
X148249161Y-88799819D02*
X148153923Y-88752200D01*
X148153923Y-88752200D02*
X148106304Y-88656961D01*
X148106304Y-88656961D02*
X148106304Y-88561723D01*
X148106304Y-88561723D02*
X148153923Y-88466485D01*
X148153923Y-88466485D02*
X148249161Y-88418866D01*
X148249161Y-88418866D02*
X148487256Y-88418866D01*
X148487256Y-88418866D02*
X148582494Y-88371247D01*
X149058685Y-88799819D02*
X149058685Y-88133152D01*
X149058685Y-87799819D02*
X149011066Y-87847438D01*
X149011066Y-87847438D02*
X149058685Y-87895057D01*
X149058685Y-87895057D02*
X149106304Y-87847438D01*
X149106304Y-87847438D02*
X149058685Y-87799819D01*
X149058685Y-87799819D02*
X149058685Y-87895057D01*
X149534875Y-88133152D02*
X149534875Y-88799819D01*
X149534875Y-88228390D02*
X149582494Y-88180771D01*
X149582494Y-88180771D02*
X149677732Y-88133152D01*
X149677732Y-88133152D02*
X149820589Y-88133152D01*
X149820589Y-88133152D02*
X149915827Y-88180771D01*
X149915827Y-88180771D02*
X149963446Y-88276009D01*
X149963446Y-88276009D02*
X149963446Y-88799819D01*
X150820589Y-88752200D02*
X150725351Y-88799819D01*
X150725351Y-88799819D02*
X150534875Y-88799819D01*
X150534875Y-88799819D02*
X150439637Y-88752200D01*
X150439637Y-88752200D02*
X150392018Y-88656961D01*
X150392018Y-88656961D02*
X150392018Y-88276009D01*
X150392018Y-88276009D02*
X150439637Y-88180771D01*
X150439637Y-88180771D02*
X150534875Y-88133152D01*
X150534875Y-88133152D02*
X150725351Y-88133152D01*
X150725351Y-88133152D02*
X150820589Y-88180771D01*
X150820589Y-88180771D02*
X150868208Y-88276009D01*
X150868208Y-88276009D02*
X150868208Y-88371247D01*
X150868208Y-88371247D02*
X150392018Y-88466485D01*
X151201542Y-88133152D02*
X151439637Y-88799819D01*
X151677732Y-88133152D02*
X151439637Y-88799819D01*
X151439637Y-88799819D02*
X151344399Y-89037914D01*
X151344399Y-89037914D02*
X151296780Y-89085533D01*
X151296780Y-89085533D02*
X151201542Y-89133152D01*
X152772970Y-87752200D02*
X151915828Y-89037914D01*
X152963447Y-88133152D02*
X153344399Y-88133152D01*
X153106304Y-87799819D02*
X153106304Y-88656961D01*
X153106304Y-88656961D02*
X153153923Y-88752200D01*
X153153923Y-88752200D02*
X153249161Y-88799819D01*
X153249161Y-88799819D02*
X153344399Y-88799819D01*
X154058685Y-88752200D02*
X153963447Y-88799819D01*
X153963447Y-88799819D02*
X153772971Y-88799819D01*
X153772971Y-88799819D02*
X153677733Y-88752200D01*
X153677733Y-88752200D02*
X153630114Y-88656961D01*
X153630114Y-88656961D02*
X153630114Y-88276009D01*
X153630114Y-88276009D02*
X153677733Y-88180771D01*
X153677733Y-88180771D02*
X153772971Y-88133152D01*
X153772971Y-88133152D02*
X153963447Y-88133152D01*
X153963447Y-88133152D02*
X154058685Y-88180771D01*
X154058685Y-88180771D02*
X154106304Y-88276009D01*
X154106304Y-88276009D02*
X154106304Y-88371247D01*
X154106304Y-88371247D02*
X153630114Y-88466485D01*
X154534876Y-88799819D02*
X154534876Y-88133152D01*
X154534876Y-88228390D02*
X154582495Y-88180771D01*
X154582495Y-88180771D02*
X154677733Y-88133152D01*
X154677733Y-88133152D02*
X154820590Y-88133152D01*
X154820590Y-88133152D02*
X154915828Y-88180771D01*
X154915828Y-88180771D02*
X154963447Y-88276009D01*
X154963447Y-88276009D02*
X154963447Y-88799819D01*
X154963447Y-88276009D02*
X155011066Y-88180771D01*
X155011066Y-88180771D02*
X155106304Y-88133152D01*
X155106304Y-88133152D02*
X155249161Y-88133152D01*
X155249161Y-88133152D02*
X155344400Y-88180771D01*
X155344400Y-88180771D02*
X155392019Y-88276009D01*
X155392019Y-88276009D02*
X155392019Y-88799819D01*
X155868209Y-88133152D02*
X155868209Y-89133152D01*
X155868209Y-88180771D02*
X155963447Y-88133152D01*
X155963447Y-88133152D02*
X156153923Y-88133152D01*
X156153923Y-88133152D02*
X156249161Y-88180771D01*
X156249161Y-88180771D02*
X156296780Y-88228390D01*
X156296780Y-88228390D02*
X156344399Y-88323628D01*
X156344399Y-88323628D02*
X156344399Y-88609342D01*
X156344399Y-88609342D02*
X156296780Y-88704580D01*
X156296780Y-88704580D02*
X156249161Y-88752200D01*
X156249161Y-88752200D02*
X156153923Y-88799819D01*
X156153923Y-88799819D02*
X155963447Y-88799819D01*
X155963447Y-88799819D02*
X155868209Y-88752200D01*
X156915828Y-88799819D02*
X156820590Y-88752200D01*
X156820590Y-88752200D02*
X156772971Y-88704580D01*
X156772971Y-88704580D02*
X156725352Y-88609342D01*
X156725352Y-88609342D02*
X156725352Y-88323628D01*
X156725352Y-88323628D02*
X156772971Y-88228390D01*
X156772971Y-88228390D02*
X156820590Y-88180771D01*
X156820590Y-88180771D02*
X156915828Y-88133152D01*
X156915828Y-88133152D02*
X157058685Y-88133152D01*
X157058685Y-88133152D02*
X157153923Y-88180771D01*
X157153923Y-88180771D02*
X157201542Y-88228390D01*
X157201542Y-88228390D02*
X157249161Y-88323628D01*
X157249161Y-88323628D02*
X157249161Y-88609342D01*
X157249161Y-88609342D02*
X157201542Y-88704580D01*
X157201542Y-88704580D02*
X157153923Y-88752200D01*
X157153923Y-88752200D02*
X157058685Y-88799819D01*
X157058685Y-88799819D02*
X156915828Y-88799819D01*
X131868207Y-90409819D02*
X131534874Y-89933628D01*
X131296779Y-90409819D02*
X131296779Y-89409819D01*
X131296779Y-89409819D02*
X131677731Y-89409819D01*
X131677731Y-89409819D02*
X131772969Y-89457438D01*
X131772969Y-89457438D02*
X131820588Y-89505057D01*
X131820588Y-89505057D02*
X131868207Y-89600295D01*
X131868207Y-89600295D02*
X131868207Y-89743152D01*
X131868207Y-89743152D02*
X131820588Y-89838390D01*
X131820588Y-89838390D02*
X131772969Y-89886009D01*
X131772969Y-89886009D02*
X131677731Y-89933628D01*
X131677731Y-89933628D02*
X131296779Y-89933628D01*
X132296779Y-90409819D02*
X132296779Y-89743152D01*
X132296779Y-89409819D02*
X132249160Y-89457438D01*
X132249160Y-89457438D02*
X132296779Y-89505057D01*
X132296779Y-89505057D02*
X132344398Y-89457438D01*
X132344398Y-89457438D02*
X132296779Y-89409819D01*
X132296779Y-89409819D02*
X132296779Y-89505057D01*
X132915826Y-90409819D02*
X132820588Y-90362200D01*
X132820588Y-90362200D02*
X132772969Y-90266961D01*
X132772969Y-90266961D02*
X132772969Y-89409819D01*
X133677731Y-90362200D02*
X133582493Y-90409819D01*
X133582493Y-90409819D02*
X133392017Y-90409819D01*
X133392017Y-90409819D02*
X133296779Y-90362200D01*
X133296779Y-90362200D02*
X133249160Y-90266961D01*
X133249160Y-90266961D02*
X133249160Y-89886009D01*
X133249160Y-89886009D02*
X133296779Y-89790771D01*
X133296779Y-89790771D02*
X133392017Y-89743152D01*
X133392017Y-89743152D02*
X133582493Y-89743152D01*
X133582493Y-89743152D02*
X133677731Y-89790771D01*
X133677731Y-89790771D02*
X133725350Y-89886009D01*
X133725350Y-89886009D02*
X133725350Y-89981247D01*
X133725350Y-89981247D02*
X133249160Y-90076485D01*
X134058684Y-89743152D02*
X134296779Y-90409819D01*
X134534874Y-89743152D02*
X134296779Y-90409819D01*
X134296779Y-90409819D02*
X134201541Y-90647914D01*
X134201541Y-90647914D02*
X134153922Y-90695533D01*
X134153922Y-90695533D02*
X134058684Y-90743152D01*
X136249160Y-90409819D02*
X135915827Y-89933628D01*
X135677732Y-90409819D02*
X135677732Y-89409819D01*
X135677732Y-89409819D02*
X136058684Y-89409819D01*
X136058684Y-89409819D02*
X136153922Y-89457438D01*
X136153922Y-89457438D02*
X136201541Y-89505057D01*
X136201541Y-89505057D02*
X136249160Y-89600295D01*
X136249160Y-89600295D02*
X136249160Y-89743152D01*
X136249160Y-89743152D02*
X136201541Y-89838390D01*
X136201541Y-89838390D02*
X136153922Y-89886009D01*
X136153922Y-89886009D02*
X136058684Y-89933628D01*
X136058684Y-89933628D02*
X135677732Y-89933628D01*
X137106303Y-90409819D02*
X137106303Y-89886009D01*
X137106303Y-89886009D02*
X137058684Y-89790771D01*
X137058684Y-89790771D02*
X136963446Y-89743152D01*
X136963446Y-89743152D02*
X136772970Y-89743152D01*
X136772970Y-89743152D02*
X136677732Y-89790771D01*
X137106303Y-90362200D02*
X137011065Y-90409819D01*
X137011065Y-90409819D02*
X136772970Y-90409819D01*
X136772970Y-90409819D02*
X136677732Y-90362200D01*
X136677732Y-90362200D02*
X136630113Y-90266961D01*
X136630113Y-90266961D02*
X136630113Y-90171723D01*
X136630113Y-90171723D02*
X136677732Y-90076485D01*
X136677732Y-90076485D02*
X136772970Y-90028866D01*
X136772970Y-90028866D02*
X137011065Y-90028866D01*
X137011065Y-90028866D02*
X137106303Y-89981247D01*
X137582494Y-90409819D02*
X137582494Y-89743152D01*
X137582494Y-89409819D02*
X137534875Y-89457438D01*
X137534875Y-89457438D02*
X137582494Y-89505057D01*
X137582494Y-89505057D02*
X137630113Y-89457438D01*
X137630113Y-89457438D02*
X137582494Y-89409819D01*
X137582494Y-89409819D02*
X137582494Y-89505057D01*
X138058684Y-89743152D02*
X138058684Y-90409819D01*
X138058684Y-89838390D02*
X138106303Y-89790771D01*
X138106303Y-89790771D02*
X138201541Y-89743152D01*
X138201541Y-89743152D02*
X138344398Y-89743152D01*
X138344398Y-89743152D02*
X138439636Y-89790771D01*
X138439636Y-89790771D02*
X138487255Y-89886009D01*
X138487255Y-89886009D02*
X138487255Y-90409819D01*
X139344398Y-90362200D02*
X139249160Y-90409819D01*
X139249160Y-90409819D02*
X139058684Y-90409819D01*
X139058684Y-90409819D02*
X138963446Y-90362200D01*
X138963446Y-90362200D02*
X138915827Y-90266961D01*
X138915827Y-90266961D02*
X138915827Y-89886009D01*
X138915827Y-89886009D02*
X138963446Y-89790771D01*
X138963446Y-89790771D02*
X139058684Y-89743152D01*
X139058684Y-89743152D02*
X139249160Y-89743152D01*
X139249160Y-89743152D02*
X139344398Y-89790771D01*
X139344398Y-89790771D02*
X139392017Y-89886009D01*
X139392017Y-89886009D02*
X139392017Y-89981247D01*
X139392017Y-89981247D02*
X138915827Y-90076485D01*
X139725351Y-89743152D02*
X139963446Y-90409819D01*
X140201541Y-89743152D02*
X139963446Y-90409819D01*
X139963446Y-90409819D02*
X139868208Y-90647914D01*
X139868208Y-90647914D02*
X139820589Y-90695533D01*
X139820589Y-90695533D02*
X139725351Y-90743152D01*
X141296780Y-89505057D02*
X141344399Y-89457438D01*
X141344399Y-89457438D02*
X141439637Y-89409819D01*
X141439637Y-89409819D02*
X141677732Y-89409819D01*
X141677732Y-89409819D02*
X141772970Y-89457438D01*
X141772970Y-89457438D02*
X141820589Y-89505057D01*
X141820589Y-89505057D02*
X141868208Y-89600295D01*
X141868208Y-89600295D02*
X141868208Y-89695533D01*
X141868208Y-89695533D02*
X141820589Y-89838390D01*
X141820589Y-89838390D02*
X141249161Y-90409819D01*
X141249161Y-90409819D02*
X141868208Y-90409819D01*
X142487256Y-89409819D02*
X142582494Y-89409819D01*
X142582494Y-89409819D02*
X142677732Y-89457438D01*
X142677732Y-89457438D02*
X142725351Y-89505057D01*
X142725351Y-89505057D02*
X142772970Y-89600295D01*
X142772970Y-89600295D02*
X142820589Y-89790771D01*
X142820589Y-89790771D02*
X142820589Y-90028866D01*
X142820589Y-90028866D02*
X142772970Y-90219342D01*
X142772970Y-90219342D02*
X142725351Y-90314580D01*
X142725351Y-90314580D02*
X142677732Y-90362200D01*
X142677732Y-90362200D02*
X142582494Y-90409819D01*
X142582494Y-90409819D02*
X142487256Y-90409819D01*
X142487256Y-90409819D02*
X142392018Y-90362200D01*
X142392018Y-90362200D02*
X142344399Y-90314580D01*
X142344399Y-90314580D02*
X142296780Y-90219342D01*
X142296780Y-90219342D02*
X142249161Y-90028866D01*
X142249161Y-90028866D02*
X142249161Y-89790771D01*
X142249161Y-89790771D02*
X142296780Y-89600295D01*
X142296780Y-89600295D02*
X142344399Y-89505057D01*
X142344399Y-89505057D02*
X142392018Y-89457438D01*
X142392018Y-89457438D02*
X142487256Y-89409819D01*
X143201542Y-89505057D02*
X143249161Y-89457438D01*
X143249161Y-89457438D02*
X143344399Y-89409819D01*
X143344399Y-89409819D02*
X143582494Y-89409819D01*
X143582494Y-89409819D02*
X143677732Y-89457438D01*
X143677732Y-89457438D02*
X143725351Y-89505057D01*
X143725351Y-89505057D02*
X143772970Y-89600295D01*
X143772970Y-89600295D02*
X143772970Y-89695533D01*
X143772970Y-89695533D02*
X143725351Y-89838390D01*
X143725351Y-89838390D02*
X143153923Y-90409819D01*
X143153923Y-90409819D02*
X143772970Y-90409819D01*
X144106304Y-89409819D02*
X144725351Y-89409819D01*
X144725351Y-89409819D02*
X144392018Y-89790771D01*
X144392018Y-89790771D02*
X144534875Y-89790771D01*
X144534875Y-89790771D02*
X144630113Y-89838390D01*
X144630113Y-89838390D02*
X144677732Y-89886009D01*
X144677732Y-89886009D02*
X144725351Y-89981247D01*
X144725351Y-89981247D02*
X144725351Y-90219342D01*
X144725351Y-90219342D02*
X144677732Y-90314580D01*
X144677732Y-90314580D02*
X144630113Y-90362200D01*
X144630113Y-90362200D02*
X144534875Y-90409819D01*
X144534875Y-90409819D02*
X144249161Y-90409819D01*
X144249161Y-90409819D02*
X144153923Y-90362200D01*
X144153923Y-90362200D02*
X144106304Y-90314580D01*
%TO.C,C7*%
X180893333Y-102649580D02*
X180845714Y-102697200D01*
X180845714Y-102697200D02*
X180702857Y-102744819D01*
X180702857Y-102744819D02*
X180607619Y-102744819D01*
X180607619Y-102744819D02*
X180464762Y-102697200D01*
X180464762Y-102697200D02*
X180369524Y-102601961D01*
X180369524Y-102601961D02*
X180321905Y-102506723D01*
X180321905Y-102506723D02*
X180274286Y-102316247D01*
X180274286Y-102316247D02*
X180274286Y-102173390D01*
X180274286Y-102173390D02*
X180321905Y-101982914D01*
X180321905Y-101982914D02*
X180369524Y-101887676D01*
X180369524Y-101887676D02*
X180464762Y-101792438D01*
X180464762Y-101792438D02*
X180607619Y-101744819D01*
X180607619Y-101744819D02*
X180702857Y-101744819D01*
X180702857Y-101744819D02*
X180845714Y-101792438D01*
X180845714Y-101792438D02*
X180893333Y-101840057D01*
X181226667Y-101744819D02*
X181893333Y-101744819D01*
X181893333Y-101744819D02*
X181464762Y-102744819D01*
%TO.C,R2*%
X176153333Y-86734819D02*
X175820000Y-86258628D01*
X175581905Y-86734819D02*
X175581905Y-85734819D01*
X175581905Y-85734819D02*
X175962857Y-85734819D01*
X175962857Y-85734819D02*
X176058095Y-85782438D01*
X176058095Y-85782438D02*
X176105714Y-85830057D01*
X176105714Y-85830057D02*
X176153333Y-85925295D01*
X176153333Y-85925295D02*
X176153333Y-86068152D01*
X176153333Y-86068152D02*
X176105714Y-86163390D01*
X176105714Y-86163390D02*
X176058095Y-86211009D01*
X176058095Y-86211009D02*
X175962857Y-86258628D01*
X175962857Y-86258628D02*
X175581905Y-86258628D01*
X176534286Y-85830057D02*
X176581905Y-85782438D01*
X176581905Y-85782438D02*
X176677143Y-85734819D01*
X176677143Y-85734819D02*
X176915238Y-85734819D01*
X176915238Y-85734819D02*
X177010476Y-85782438D01*
X177010476Y-85782438D02*
X177058095Y-85830057D01*
X177058095Y-85830057D02*
X177105714Y-85925295D01*
X177105714Y-85925295D02*
X177105714Y-86020533D01*
X177105714Y-86020533D02*
X177058095Y-86163390D01*
X177058095Y-86163390D02*
X176486667Y-86734819D01*
X176486667Y-86734819D02*
X177105714Y-86734819D01*
%TO.C,R1*%
X176173333Y-88444819D02*
X175840000Y-87968628D01*
X175601905Y-88444819D02*
X175601905Y-87444819D01*
X175601905Y-87444819D02*
X175982857Y-87444819D01*
X175982857Y-87444819D02*
X176078095Y-87492438D01*
X176078095Y-87492438D02*
X176125714Y-87540057D01*
X176125714Y-87540057D02*
X176173333Y-87635295D01*
X176173333Y-87635295D02*
X176173333Y-87778152D01*
X176173333Y-87778152D02*
X176125714Y-87873390D01*
X176125714Y-87873390D02*
X176078095Y-87921009D01*
X176078095Y-87921009D02*
X175982857Y-87968628D01*
X175982857Y-87968628D02*
X175601905Y-87968628D01*
X177125714Y-88444819D02*
X176554286Y-88444819D01*
X176840000Y-88444819D02*
X176840000Y-87444819D01*
X176840000Y-87444819D02*
X176744762Y-87587676D01*
X176744762Y-87587676D02*
X176649524Y-87682914D01*
X176649524Y-87682914D02*
X176554286Y-87730533D01*
%TO.C,C1*%
X166863333Y-76929580D02*
X166815714Y-76977200D01*
X166815714Y-76977200D02*
X166672857Y-77024819D01*
X166672857Y-77024819D02*
X166577619Y-77024819D01*
X166577619Y-77024819D02*
X166434762Y-76977200D01*
X166434762Y-76977200D02*
X166339524Y-76881961D01*
X166339524Y-76881961D02*
X166291905Y-76786723D01*
X166291905Y-76786723D02*
X166244286Y-76596247D01*
X166244286Y-76596247D02*
X166244286Y-76453390D01*
X166244286Y-76453390D02*
X166291905Y-76262914D01*
X166291905Y-76262914D02*
X166339524Y-76167676D01*
X166339524Y-76167676D02*
X166434762Y-76072438D01*
X166434762Y-76072438D02*
X166577619Y-76024819D01*
X166577619Y-76024819D02*
X166672857Y-76024819D01*
X166672857Y-76024819D02*
X166815714Y-76072438D01*
X166815714Y-76072438D02*
X166863333Y-76120057D01*
X167815714Y-77024819D02*
X167244286Y-77024819D01*
X167530000Y-77024819D02*
X167530000Y-76024819D01*
X167530000Y-76024819D02*
X167434762Y-76167676D01*
X167434762Y-76167676D02*
X167339524Y-76262914D01*
X167339524Y-76262914D02*
X167244286Y-76310533D01*
D11*
%TO.C,U3*%
X173450476Y-104653855D02*
X173450476Y-105301474D01*
X173450476Y-105301474D02*
X173488571Y-105377664D01*
X173488571Y-105377664D02*
X173526666Y-105415760D01*
X173526666Y-105415760D02*
X173602857Y-105453855D01*
X173602857Y-105453855D02*
X173755238Y-105453855D01*
X173755238Y-105453855D02*
X173831428Y-105415760D01*
X173831428Y-105415760D02*
X173869523Y-105377664D01*
X173869523Y-105377664D02*
X173907619Y-105301474D01*
X173907619Y-105301474D02*
X173907619Y-104653855D01*
X174212380Y-104653855D02*
X174707618Y-104653855D01*
X174707618Y-104653855D02*
X174440952Y-104958617D01*
X174440952Y-104958617D02*
X174555237Y-104958617D01*
X174555237Y-104958617D02*
X174631428Y-104996712D01*
X174631428Y-104996712D02*
X174669523Y-105034807D01*
X174669523Y-105034807D02*
X174707618Y-105110998D01*
X174707618Y-105110998D02*
X174707618Y-105301474D01*
X174707618Y-105301474D02*
X174669523Y-105377664D01*
X174669523Y-105377664D02*
X174631428Y-105415760D01*
X174631428Y-105415760D02*
X174555237Y-105453855D01*
X174555237Y-105453855D02*
X174326666Y-105453855D01*
X174326666Y-105453855D02*
X174250475Y-105415760D01*
X174250475Y-105415760D02*
X174212380Y-105377664D01*
D10*
%TO.C,C3*%
X173093333Y-109549580D02*
X173045714Y-109597200D01*
X173045714Y-109597200D02*
X172902857Y-109644819D01*
X172902857Y-109644819D02*
X172807619Y-109644819D01*
X172807619Y-109644819D02*
X172664762Y-109597200D01*
X172664762Y-109597200D02*
X172569524Y-109501961D01*
X172569524Y-109501961D02*
X172521905Y-109406723D01*
X172521905Y-109406723D02*
X172474286Y-109216247D01*
X172474286Y-109216247D02*
X172474286Y-109073390D01*
X172474286Y-109073390D02*
X172521905Y-108882914D01*
X172521905Y-108882914D02*
X172569524Y-108787676D01*
X172569524Y-108787676D02*
X172664762Y-108692438D01*
X172664762Y-108692438D02*
X172807619Y-108644819D01*
X172807619Y-108644819D02*
X172902857Y-108644819D01*
X172902857Y-108644819D02*
X173045714Y-108692438D01*
X173045714Y-108692438D02*
X173093333Y-108740057D01*
X173426667Y-108644819D02*
X174045714Y-108644819D01*
X174045714Y-108644819D02*
X173712381Y-109025771D01*
X173712381Y-109025771D02*
X173855238Y-109025771D01*
X173855238Y-109025771D02*
X173950476Y-109073390D01*
X173950476Y-109073390D02*
X173998095Y-109121009D01*
X173998095Y-109121009D02*
X174045714Y-109216247D01*
X174045714Y-109216247D02*
X174045714Y-109454342D01*
X174045714Y-109454342D02*
X173998095Y-109549580D01*
X173998095Y-109549580D02*
X173950476Y-109597200D01*
X173950476Y-109597200D02*
X173855238Y-109644819D01*
X173855238Y-109644819D02*
X173569524Y-109644819D01*
X173569524Y-109644819D02*
X173474286Y-109597200D01*
X173474286Y-109597200D02*
X173426667Y-109549580D01*
%TO.C,C6*%
X168589580Y-104071666D02*
X168637200Y-104119285D01*
X168637200Y-104119285D02*
X168684819Y-104262142D01*
X168684819Y-104262142D02*
X168684819Y-104357380D01*
X168684819Y-104357380D02*
X168637200Y-104500237D01*
X168637200Y-104500237D02*
X168541961Y-104595475D01*
X168541961Y-104595475D02*
X168446723Y-104643094D01*
X168446723Y-104643094D02*
X168256247Y-104690713D01*
X168256247Y-104690713D02*
X168113390Y-104690713D01*
X168113390Y-104690713D02*
X167922914Y-104643094D01*
X167922914Y-104643094D02*
X167827676Y-104595475D01*
X167827676Y-104595475D02*
X167732438Y-104500237D01*
X167732438Y-104500237D02*
X167684819Y-104357380D01*
X167684819Y-104357380D02*
X167684819Y-104262142D01*
X167684819Y-104262142D02*
X167732438Y-104119285D01*
X167732438Y-104119285D02*
X167780057Y-104071666D01*
X167684819Y-103214523D02*
X167684819Y-103404999D01*
X167684819Y-103404999D02*
X167732438Y-103500237D01*
X167732438Y-103500237D02*
X167780057Y-103547856D01*
X167780057Y-103547856D02*
X167922914Y-103643094D01*
X167922914Y-103643094D02*
X168113390Y-103690713D01*
X168113390Y-103690713D02*
X168494342Y-103690713D01*
X168494342Y-103690713D02*
X168589580Y-103643094D01*
X168589580Y-103643094D02*
X168637200Y-103595475D01*
X168637200Y-103595475D02*
X168684819Y-103500237D01*
X168684819Y-103500237D02*
X168684819Y-103309761D01*
X168684819Y-103309761D02*
X168637200Y-103214523D01*
X168637200Y-103214523D02*
X168589580Y-103166904D01*
X168589580Y-103166904D02*
X168494342Y-103119285D01*
X168494342Y-103119285D02*
X168256247Y-103119285D01*
X168256247Y-103119285D02*
X168161009Y-103166904D01*
X168161009Y-103166904D02*
X168113390Y-103214523D01*
X168113390Y-103214523D02*
X168065771Y-103309761D01*
X168065771Y-103309761D02*
X168065771Y-103500237D01*
X168065771Y-103500237D02*
X168113390Y-103595475D01*
X168113390Y-103595475D02*
X168161009Y-103643094D01*
X168161009Y-103643094D02*
X168256247Y-103690713D01*
%TO.C,C8*%
X180493333Y-109049580D02*
X180445714Y-109097200D01*
X180445714Y-109097200D02*
X180302857Y-109144819D01*
X180302857Y-109144819D02*
X180207619Y-109144819D01*
X180207619Y-109144819D02*
X180064762Y-109097200D01*
X180064762Y-109097200D02*
X179969524Y-109001961D01*
X179969524Y-109001961D02*
X179921905Y-108906723D01*
X179921905Y-108906723D02*
X179874286Y-108716247D01*
X179874286Y-108716247D02*
X179874286Y-108573390D01*
X179874286Y-108573390D02*
X179921905Y-108382914D01*
X179921905Y-108382914D02*
X179969524Y-108287676D01*
X179969524Y-108287676D02*
X180064762Y-108192438D01*
X180064762Y-108192438D02*
X180207619Y-108144819D01*
X180207619Y-108144819D02*
X180302857Y-108144819D01*
X180302857Y-108144819D02*
X180445714Y-108192438D01*
X180445714Y-108192438D02*
X180493333Y-108240057D01*
X181064762Y-108573390D02*
X180969524Y-108525771D01*
X180969524Y-108525771D02*
X180921905Y-108478152D01*
X180921905Y-108478152D02*
X180874286Y-108382914D01*
X180874286Y-108382914D02*
X180874286Y-108335295D01*
X180874286Y-108335295D02*
X180921905Y-108240057D01*
X180921905Y-108240057D02*
X180969524Y-108192438D01*
X180969524Y-108192438D02*
X181064762Y-108144819D01*
X181064762Y-108144819D02*
X181255238Y-108144819D01*
X181255238Y-108144819D02*
X181350476Y-108192438D01*
X181350476Y-108192438D02*
X181398095Y-108240057D01*
X181398095Y-108240057D02*
X181445714Y-108335295D01*
X181445714Y-108335295D02*
X181445714Y-108382914D01*
X181445714Y-108382914D02*
X181398095Y-108478152D01*
X181398095Y-108478152D02*
X181350476Y-108525771D01*
X181350476Y-108525771D02*
X181255238Y-108573390D01*
X181255238Y-108573390D02*
X181064762Y-108573390D01*
X181064762Y-108573390D02*
X180969524Y-108621009D01*
X180969524Y-108621009D02*
X180921905Y-108668628D01*
X180921905Y-108668628D02*
X180874286Y-108763866D01*
X180874286Y-108763866D02*
X180874286Y-108954342D01*
X180874286Y-108954342D02*
X180921905Y-109049580D01*
X180921905Y-109049580D02*
X180969524Y-109097200D01*
X180969524Y-109097200D02*
X181064762Y-109144819D01*
X181064762Y-109144819D02*
X181255238Y-109144819D01*
X181255238Y-109144819D02*
X181350476Y-109097200D01*
X181350476Y-109097200D02*
X181398095Y-109049580D01*
X181398095Y-109049580D02*
X181445714Y-108954342D01*
X181445714Y-108954342D02*
X181445714Y-108763866D01*
X181445714Y-108763866D02*
X181398095Y-108668628D01*
X181398095Y-108668628D02*
X181350476Y-108621009D01*
X181350476Y-108621009D02*
X181255238Y-108573390D01*
%TO.C,C5*%
X171619580Y-97656666D02*
X171667200Y-97704285D01*
X171667200Y-97704285D02*
X171714819Y-97847142D01*
X171714819Y-97847142D02*
X171714819Y-97942380D01*
X171714819Y-97942380D02*
X171667200Y-98085237D01*
X171667200Y-98085237D02*
X171571961Y-98180475D01*
X171571961Y-98180475D02*
X171476723Y-98228094D01*
X171476723Y-98228094D02*
X171286247Y-98275713D01*
X171286247Y-98275713D02*
X171143390Y-98275713D01*
X171143390Y-98275713D02*
X170952914Y-98228094D01*
X170952914Y-98228094D02*
X170857676Y-98180475D01*
X170857676Y-98180475D02*
X170762438Y-98085237D01*
X170762438Y-98085237D02*
X170714819Y-97942380D01*
X170714819Y-97942380D02*
X170714819Y-97847142D01*
X170714819Y-97847142D02*
X170762438Y-97704285D01*
X170762438Y-97704285D02*
X170810057Y-97656666D01*
X170714819Y-96751904D02*
X170714819Y-97228094D01*
X170714819Y-97228094D02*
X171191009Y-97275713D01*
X171191009Y-97275713D02*
X171143390Y-97228094D01*
X171143390Y-97228094D02*
X171095771Y-97132856D01*
X171095771Y-97132856D02*
X171095771Y-96894761D01*
X171095771Y-96894761D02*
X171143390Y-96799523D01*
X171143390Y-96799523D02*
X171191009Y-96751904D01*
X171191009Y-96751904D02*
X171286247Y-96704285D01*
X171286247Y-96704285D02*
X171524342Y-96704285D01*
X171524342Y-96704285D02*
X171619580Y-96751904D01*
X171619580Y-96751904D02*
X171667200Y-96799523D01*
X171667200Y-96799523D02*
X171714819Y-96894761D01*
X171714819Y-96894761D02*
X171714819Y-97132856D01*
X171714819Y-97132856D02*
X171667200Y-97228094D01*
X171667200Y-97228094D02*
X171619580Y-97275713D01*
%TO.C,L3*%
X183356666Y-83622295D02*
X182975714Y-83622295D01*
X182975714Y-83622295D02*
X182975714Y-82822295D01*
X183547142Y-82822295D02*
X184042380Y-82822295D01*
X184042380Y-82822295D02*
X183775714Y-83127057D01*
X183775714Y-83127057D02*
X183889999Y-83127057D01*
X183889999Y-83127057D02*
X183966190Y-83165152D01*
X183966190Y-83165152D02*
X184004285Y-83203247D01*
X184004285Y-83203247D02*
X184042380Y-83279438D01*
X184042380Y-83279438D02*
X184042380Y-83469914D01*
X184042380Y-83469914D02*
X184004285Y-83546104D01*
X184004285Y-83546104D02*
X183966190Y-83584200D01*
X183966190Y-83584200D02*
X183889999Y-83622295D01*
X183889999Y-83622295D02*
X183661428Y-83622295D01*
X183661428Y-83622295D02*
X183585237Y-83584200D01*
X183585237Y-83584200D02*
X183547142Y-83546104D01*
%TO.C,U1*%
X170360476Y-105872295D02*
X170360476Y-106519914D01*
X170360476Y-106519914D02*
X170398571Y-106596104D01*
X170398571Y-106596104D02*
X170436666Y-106634200D01*
X170436666Y-106634200D02*
X170512857Y-106672295D01*
X170512857Y-106672295D02*
X170665238Y-106672295D01*
X170665238Y-106672295D02*
X170741428Y-106634200D01*
X170741428Y-106634200D02*
X170779523Y-106596104D01*
X170779523Y-106596104D02*
X170817619Y-106519914D01*
X170817619Y-106519914D02*
X170817619Y-105872295D01*
X171617618Y-106672295D02*
X171160475Y-106672295D01*
X171389047Y-106672295D02*
X171389047Y-105872295D01*
X171389047Y-105872295D02*
X171312856Y-105986580D01*
X171312856Y-105986580D02*
X171236666Y-106062771D01*
X171236666Y-106062771D02*
X171160475Y-106100866D01*
%TO.C,L1*%
X183366666Y-89842295D02*
X182985714Y-89842295D01*
X182985714Y-89842295D02*
X182985714Y-89042295D01*
X184052380Y-89842295D02*
X183595237Y-89842295D01*
X183823809Y-89842295D02*
X183823809Y-89042295D01*
X183823809Y-89042295D02*
X183747618Y-89156580D01*
X183747618Y-89156580D02*
X183671428Y-89232771D01*
X183671428Y-89232771D02*
X183595237Y-89270866D01*
%TO.C,R3*%
X176213333Y-85004819D02*
X175880000Y-84528628D01*
X175641905Y-85004819D02*
X175641905Y-84004819D01*
X175641905Y-84004819D02*
X176022857Y-84004819D01*
X176022857Y-84004819D02*
X176118095Y-84052438D01*
X176118095Y-84052438D02*
X176165714Y-84100057D01*
X176165714Y-84100057D02*
X176213333Y-84195295D01*
X176213333Y-84195295D02*
X176213333Y-84338152D01*
X176213333Y-84338152D02*
X176165714Y-84433390D01*
X176165714Y-84433390D02*
X176118095Y-84481009D01*
X176118095Y-84481009D02*
X176022857Y-84528628D01*
X176022857Y-84528628D02*
X175641905Y-84528628D01*
X176546667Y-84004819D02*
X177165714Y-84004819D01*
X177165714Y-84004819D02*
X176832381Y-84385771D01*
X176832381Y-84385771D02*
X176975238Y-84385771D01*
X176975238Y-84385771D02*
X177070476Y-84433390D01*
X177070476Y-84433390D02*
X177118095Y-84481009D01*
X177118095Y-84481009D02*
X177165714Y-84576247D01*
X177165714Y-84576247D02*
X177165714Y-84814342D01*
X177165714Y-84814342D02*
X177118095Y-84909580D01*
X177118095Y-84909580D02*
X177070476Y-84957200D01*
X177070476Y-84957200D02*
X176975238Y-85004819D01*
X176975238Y-85004819D02*
X176689524Y-85004819D01*
X176689524Y-85004819D02*
X176594286Y-84957200D01*
X176594286Y-84957200D02*
X176546667Y-84909580D01*
%TO.C,C2*%
X165773333Y-109549580D02*
X165725714Y-109597200D01*
X165725714Y-109597200D02*
X165582857Y-109644819D01*
X165582857Y-109644819D02*
X165487619Y-109644819D01*
X165487619Y-109644819D02*
X165344762Y-109597200D01*
X165344762Y-109597200D02*
X165249524Y-109501961D01*
X165249524Y-109501961D02*
X165201905Y-109406723D01*
X165201905Y-109406723D02*
X165154286Y-109216247D01*
X165154286Y-109216247D02*
X165154286Y-109073390D01*
X165154286Y-109073390D02*
X165201905Y-108882914D01*
X165201905Y-108882914D02*
X165249524Y-108787676D01*
X165249524Y-108787676D02*
X165344762Y-108692438D01*
X165344762Y-108692438D02*
X165487619Y-108644819D01*
X165487619Y-108644819D02*
X165582857Y-108644819D01*
X165582857Y-108644819D02*
X165725714Y-108692438D01*
X165725714Y-108692438D02*
X165773333Y-108740057D01*
X166154286Y-108740057D02*
X166201905Y-108692438D01*
X166201905Y-108692438D02*
X166297143Y-108644819D01*
X166297143Y-108644819D02*
X166535238Y-108644819D01*
X166535238Y-108644819D02*
X166630476Y-108692438D01*
X166630476Y-108692438D02*
X166678095Y-108740057D01*
X166678095Y-108740057D02*
X166725714Y-108835295D01*
X166725714Y-108835295D02*
X166725714Y-108930533D01*
X166725714Y-108930533D02*
X166678095Y-109073390D01*
X166678095Y-109073390D02*
X166106667Y-109644819D01*
X166106667Y-109644819D02*
X166725714Y-109644819D01*
%TO.C,U2*%
X161968095Y-66004819D02*
X161968095Y-66814342D01*
X161968095Y-66814342D02*
X162015714Y-66909580D01*
X162015714Y-66909580D02*
X162063333Y-66957200D01*
X162063333Y-66957200D02*
X162158571Y-67004819D01*
X162158571Y-67004819D02*
X162349047Y-67004819D01*
X162349047Y-67004819D02*
X162444285Y-66957200D01*
X162444285Y-66957200D02*
X162491904Y-66909580D01*
X162491904Y-66909580D02*
X162539523Y-66814342D01*
X162539523Y-66814342D02*
X162539523Y-66004819D01*
X162968095Y-66100057D02*
X163015714Y-66052438D01*
X163015714Y-66052438D02*
X163110952Y-66004819D01*
X163110952Y-66004819D02*
X163349047Y-66004819D01*
X163349047Y-66004819D02*
X163444285Y-66052438D01*
X163444285Y-66052438D02*
X163491904Y-66100057D01*
X163491904Y-66100057D02*
X163539523Y-66195295D01*
X163539523Y-66195295D02*
X163539523Y-66290533D01*
X163539523Y-66290533D02*
X163491904Y-66433390D01*
X163491904Y-66433390D02*
X162920476Y-67004819D01*
X162920476Y-67004819D02*
X163539523Y-67004819D01*
%TO.C,C4*%
X173519580Y-97656666D02*
X173567200Y-97704285D01*
X173567200Y-97704285D02*
X173614819Y-97847142D01*
X173614819Y-97847142D02*
X173614819Y-97942380D01*
X173614819Y-97942380D02*
X173567200Y-98085237D01*
X173567200Y-98085237D02*
X173471961Y-98180475D01*
X173471961Y-98180475D02*
X173376723Y-98228094D01*
X173376723Y-98228094D02*
X173186247Y-98275713D01*
X173186247Y-98275713D02*
X173043390Y-98275713D01*
X173043390Y-98275713D02*
X172852914Y-98228094D01*
X172852914Y-98228094D02*
X172757676Y-98180475D01*
X172757676Y-98180475D02*
X172662438Y-98085237D01*
X172662438Y-98085237D02*
X172614819Y-97942380D01*
X172614819Y-97942380D02*
X172614819Y-97847142D01*
X172614819Y-97847142D02*
X172662438Y-97704285D01*
X172662438Y-97704285D02*
X172710057Y-97656666D01*
X172948152Y-96799523D02*
X173614819Y-96799523D01*
X172567200Y-97037618D02*
X173281485Y-97275713D01*
X173281485Y-97275713D02*
X173281485Y-96656666D01*
%TO.C,U4*%
X174698095Y-107644819D02*
X174698095Y-108454342D01*
X174698095Y-108454342D02*
X174745714Y-108549580D01*
X174745714Y-108549580D02*
X174793333Y-108597200D01*
X174793333Y-108597200D02*
X174888571Y-108644819D01*
X174888571Y-108644819D02*
X175079047Y-108644819D01*
X175079047Y-108644819D02*
X175174285Y-108597200D01*
X175174285Y-108597200D02*
X175221904Y-108549580D01*
X175221904Y-108549580D02*
X175269523Y-108454342D01*
X175269523Y-108454342D02*
X175269523Y-107644819D01*
X176174285Y-107978152D02*
X176174285Y-108644819D01*
X175936190Y-107597200D02*
X175698095Y-108311485D01*
X175698095Y-108311485D02*
X176317142Y-108311485D01*
D11*
%TO.C,C7*%
X178469419Y-101805001D02*
X178750579Y-101805001D01*
X178469419Y-102825001D02*
X178750579Y-102825001D01*
%TO.C,R2*%
X178682742Y-85757500D02*
X179157258Y-85757500D01*
X178682742Y-86802500D02*
X179157258Y-86802500D01*
%TO.C,R1*%
X178632742Y-87417500D02*
X179107258Y-87417500D01*
X178632742Y-88462500D02*
X179107258Y-88462500D01*
%TO.C,C1*%
X166768748Y-77515000D02*
X167291252Y-77515000D01*
X166768748Y-78985000D02*
X167291252Y-78985000D01*
D12*
%TO.C,U3*%
X173760000Y-104355000D02*
X173250000Y-104355000D01*
X173760000Y-101855000D02*
X173250000Y-101855000D01*
X171270000Y-104355000D02*
X170760000Y-104355000D01*
X170760000Y-101855000D02*
X171270000Y-101855000D01*
D13*
X174360000Y-103905000D02*
G75*
G03*
X174360000Y-103905000I-100000J0D01*
G01*
%TO.C,LOGO2*%
D14*
X142675690Y-78890018D02*
X142710585Y-78905269D01*
X142793877Y-78971235D01*
X142865103Y-79066618D01*
X142909153Y-79168406D01*
X142916322Y-79218587D01*
X142892285Y-79288647D01*
X142839561Y-79325717D01*
X142783031Y-79348164D01*
X142757146Y-79352300D01*
X142744542Y-79322283D01*
X142719654Y-79256961D01*
X142708735Y-79227445D01*
X142647508Y-79125348D01*
X142558861Y-79074423D01*
X142445193Y-79075989D01*
X142436774Y-79077994D01*
X142376088Y-79106767D01*
X142331474Y-79162859D01*
X142301002Y-79253163D01*
X142282744Y-79384571D01*
X142274771Y-79563974D01*
X142274023Y-79659433D01*
X142273652Y-79809913D01*
X142271223Y-79912495D01*
X142264760Y-79977672D01*
X142252288Y-80015938D01*
X142231833Y-80037785D01*
X142201419Y-80053707D01*
X142199661Y-80054509D01*
X142141091Y-80079272D01*
X142112075Y-80088391D01*
X142107616Y-80060822D01*
X142103799Y-79984620D01*
X142100899Y-79869541D01*
X142099191Y-79725341D01*
X142098851Y-79619814D01*
X142100588Y-79415613D01*
X142107382Y-79260697D01*
X142121607Y-79146024D01*
X142145638Y-79062551D01*
X142181848Y-79001236D01*
X142232612Y-78953034D01*
X142282739Y-78919393D01*
X142403275Y-78874619D01*
X142543557Y-78864521D01*
X142675690Y-78890018D01*
G36*
X142675690Y-78890018D02*
G01*
X142710585Y-78905269D01*
X142793877Y-78971235D01*
X142865103Y-79066618D01*
X142909153Y-79168406D01*
X142916322Y-79218587D01*
X142892285Y-79288647D01*
X142839561Y-79325717D01*
X142783031Y-79348164D01*
X142757146Y-79352300D01*
X142744542Y-79322283D01*
X142719654Y-79256961D01*
X142708735Y-79227445D01*
X142647508Y-79125348D01*
X142558861Y-79074423D01*
X142445193Y-79075989D01*
X142436774Y-79077994D01*
X142376088Y-79106767D01*
X142331474Y-79162859D01*
X142301002Y-79253163D01*
X142282744Y-79384571D01*
X142274771Y-79563974D01*
X142274023Y-79659433D01*
X142273652Y-79809913D01*
X142271223Y-79912495D01*
X142264760Y-79977672D01*
X142252288Y-80015938D01*
X142231833Y-80037785D01*
X142201419Y-80053707D01*
X142199661Y-80054509D01*
X142141091Y-80079272D01*
X142112075Y-80088391D01*
X142107616Y-80060822D01*
X142103799Y-79984620D01*
X142100899Y-79869541D01*
X142099191Y-79725341D01*
X142098851Y-79619814D01*
X142100588Y-79415613D01*
X142107382Y-79260697D01*
X142121607Y-79146024D01*
X142145638Y-79062551D01*
X142181848Y-79001236D01*
X142232612Y-78953034D01*
X142282739Y-78919393D01*
X142403275Y-78874619D01*
X142543557Y-78864521D01*
X142675690Y-78890018D01*
G37*
X134757429Y-78827719D02*
X134851123Y-78881914D01*
X134916264Y-78935707D01*
X134963907Y-78992066D01*
X134996728Y-79060987D01*
X135017406Y-79152468D01*
X135028620Y-79276506D01*
X135033049Y-79443098D01*
X135033563Y-79562851D01*
X135033563Y-80003659D01*
X134909483Y-80059283D01*
X134785402Y-80114907D01*
X134770805Y-79632095D01*
X134764773Y-79451779D01*
X134758445Y-79320901D01*
X134750606Y-79230511D01*
X134740037Y-79171664D01*
X134725523Y-79135413D01*
X134705848Y-79112810D01*
X134699535Y-79107917D01*
X134603888Y-79069706D01*
X134507207Y-79084827D01*
X134449655Y-79124943D01*
X134426245Y-79153370D01*
X134410039Y-79190672D01*
X134399741Y-79247223D01*
X134394049Y-79333394D01*
X134391664Y-79459558D01*
X134391264Y-79591042D01*
X134391186Y-79755999D01*
X134388361Y-79872761D01*
X134378907Y-79951510D01*
X134358940Y-80002431D01*
X134324576Y-80035706D01*
X134271932Y-80061520D01*
X134201617Y-80088344D01*
X134124820Y-80117542D01*
X134133962Y-79599346D01*
X134137643Y-79412539D01*
X134141950Y-79274490D01*
X134148123Y-79175568D01*
X134157402Y-79106145D01*
X134171027Y-79056590D01*
X134190239Y-79017273D01*
X134213402Y-78982584D01*
X134325152Y-78871770D01*
X134461513Y-78807689D01*
X134609825Y-78792339D01*
X134757429Y-78827719D01*
G36*
X134757429Y-78827719D02*
G01*
X134851123Y-78881914D01*
X134916264Y-78935707D01*
X134963907Y-78992066D01*
X134996728Y-79060987D01*
X135017406Y-79152468D01*
X135028620Y-79276506D01*
X135033049Y-79443098D01*
X135033563Y-79562851D01*
X135033563Y-80003659D01*
X134909483Y-80059283D01*
X134785402Y-80114907D01*
X134770805Y-79632095D01*
X134764773Y-79451779D01*
X134758445Y-79320901D01*
X134750606Y-79230511D01*
X134740037Y-79171664D01*
X134725523Y-79135413D01*
X134705848Y-79112810D01*
X134699535Y-79107917D01*
X134603888Y-79069706D01*
X134507207Y-79084827D01*
X134449655Y-79124943D01*
X134426245Y-79153370D01*
X134410039Y-79190672D01*
X134399741Y-79247223D01*
X134394049Y-79333394D01*
X134391664Y-79459558D01*
X134391264Y-79591042D01*
X134391186Y-79755999D01*
X134388361Y-79872761D01*
X134378907Y-79951510D01*
X134358940Y-80002431D01*
X134324576Y-80035706D01*
X134271932Y-80061520D01*
X134201617Y-80088344D01*
X134124820Y-80117542D01*
X134133962Y-79599346D01*
X134137643Y-79412539D01*
X134141950Y-79274490D01*
X134148123Y-79175568D01*
X134157402Y-79106145D01*
X134171027Y-79056590D01*
X134190239Y-79017273D01*
X134213402Y-78982584D01*
X134325152Y-78871770D01*
X134461513Y-78807689D01*
X134609825Y-78792339D01*
X134757429Y-78827719D01*
G37*
X138405943Y-78871920D02*
X138538565Y-78920859D01*
X138646010Y-79007419D01*
X138688032Y-79068352D01*
X138733843Y-79180161D01*
X138732891Y-79261006D01*
X138684808Y-79315378D01*
X138667017Y-79324624D01*
X138590204Y-79353450D01*
X138550976Y-79346065D01*
X138537689Y-79297658D01*
X138537012Y-79270920D01*
X138512686Y-79172548D01*
X138449281Y-79103734D01*
X138361154Y-79070498D01*
X138262663Y-79078861D01*
X138182602Y-79122296D01*
X138155561Y-79147072D01*
X138136394Y-79177129D01*
X138123446Y-79222565D01*
X138115064Y-79293476D01*
X138109593Y-79399960D01*
X138105378Y-79552112D01*
X138104287Y-79600287D01*
X138100307Y-79765095D01*
X138095781Y-79881088D01*
X138088995Y-79957833D01*
X138078231Y-80004893D01*
X138061773Y-80031835D01*
X138037906Y-80048223D01*
X138022626Y-80055463D01*
X137957733Y-80080220D01*
X137919534Y-80088391D01*
X137906912Y-80061103D01*
X137899208Y-79978603D01*
X137896380Y-79839941D01*
X137898386Y-79644162D01*
X137899011Y-79613965D01*
X137903421Y-79435349D01*
X137908635Y-79304923D01*
X137916055Y-79212492D01*
X137927082Y-79147858D01*
X137943117Y-79100825D01*
X137965561Y-79061196D01*
X137977302Y-79044215D01*
X138044619Y-78969080D01*
X138119910Y-78910638D01*
X138129128Y-78905536D01*
X138264133Y-78865260D01*
X138405943Y-78871920D01*
G36*
X138405943Y-78871920D02*
G01*
X138538565Y-78920859D01*
X138646010Y-79007419D01*
X138688032Y-79068352D01*
X138733843Y-79180161D01*
X138732891Y-79261006D01*
X138684808Y-79315378D01*
X138667017Y-79324624D01*
X138590204Y-79353450D01*
X138550976Y-79346065D01*
X138537689Y-79297658D01*
X138537012Y-79270920D01*
X138512686Y-79172548D01*
X138449281Y-79103734D01*
X138361154Y-79070498D01*
X138262663Y-79078861D01*
X138182602Y-79122296D01*
X138155561Y-79147072D01*
X138136394Y-79177129D01*
X138123446Y-79222565D01*
X138115064Y-79293476D01*
X138109593Y-79399960D01*
X138105378Y-79552112D01*
X138104287Y-79600287D01*
X138100307Y-79765095D01*
X138095781Y-79881088D01*
X138088995Y-79957833D01*
X138078231Y-80004893D01*
X138061773Y-80031835D01*
X138037906Y-80048223D01*
X138022626Y-80055463D01*
X137957733Y-80080220D01*
X137919534Y-80088391D01*
X137906912Y-80061103D01*
X137899208Y-79978603D01*
X137896380Y-79839941D01*
X137898386Y-79644162D01*
X137899011Y-79613965D01*
X137903421Y-79435349D01*
X137908635Y-79304923D01*
X137916055Y-79212492D01*
X137927082Y-79147858D01*
X137943117Y-79100825D01*
X137965561Y-79061196D01*
X137977302Y-79044215D01*
X138044619Y-78969080D01*
X138119910Y-78910638D01*
X138129128Y-78905536D01*
X138264133Y-78865260D01*
X138405943Y-78871920D01*
G37*
X140920124Y-78889840D02*
X140924579Y-78966653D01*
X140928071Y-79083391D01*
X140930315Y-79230821D01*
X140931035Y-79385455D01*
X140931035Y-79908727D01*
X140838645Y-80001117D01*
X140774978Y-80058047D01*
X140719089Y-80081107D01*
X140642702Y-80079647D01*
X140612380Y-80075934D01*
X140517610Y-80065126D01*
X140439222Y-80058933D01*
X140420115Y-80058361D01*
X140355699Y-80062102D01*
X140263571Y-80071494D01*
X140227850Y-80075934D01*
X140140114Y-80082801D01*
X140081153Y-80067885D01*
X140022690Y-80021835D01*
X140001585Y-80001117D01*
X139909195Y-79908727D01*
X139909195Y-78929947D01*
X139983558Y-78896066D01*
X140047590Y-78870970D01*
X140085052Y-78862184D01*
X140094657Y-78889950D01*
X140103635Y-78967530D01*
X140111386Y-79086348D01*
X140117314Y-79237828D01*
X140120173Y-79365805D01*
X140128161Y-79869425D01*
X140197848Y-79879278D01*
X140261229Y-79872389D01*
X140292286Y-79850083D01*
X140300967Y-79808379D01*
X140308378Y-79719544D01*
X140313931Y-79594834D01*
X140317036Y-79445507D01*
X140317484Y-79368661D01*
X140317931Y-78926287D01*
X140409874Y-78894235D01*
X140474949Y-78872443D01*
X140510347Y-78862281D01*
X140511368Y-78862184D01*
X140514920Y-78889809D01*
X140518823Y-78966411D01*
X140522751Y-79082579D01*
X140526376Y-79228904D01*
X140528908Y-79365805D01*
X140536897Y-79869425D01*
X140712069Y-79869425D01*
X140720107Y-79409965D01*
X140728146Y-78950505D01*
X140813543Y-78906344D01*
X140876593Y-78876019D01*
X140913910Y-78862258D01*
X140914987Y-78862184D01*
X140920124Y-78889840D01*
G36*
X140920124Y-78889840D02*
G01*
X140924579Y-78966653D01*
X140928071Y-79083391D01*
X140930315Y-79230821D01*
X140931035Y-79385455D01*
X140931035Y-79908727D01*
X140838645Y-80001117D01*
X140774978Y-80058047D01*
X140719089Y-80081107D01*
X140642702Y-80079647D01*
X140612380Y-80075934D01*
X140517610Y-80065126D01*
X140439222Y-80058933D01*
X140420115Y-80058361D01*
X140355699Y-80062102D01*
X140263571Y-80071494D01*
X140227850Y-80075934D01*
X140140114Y-80082801D01*
X140081153Y-80067885D01*
X140022690Y-80021835D01*
X140001585Y-80001117D01*
X139909195Y-79908727D01*
X139909195Y-78929947D01*
X139983558Y-78896066D01*
X140047590Y-78870970D01*
X140085052Y-78862184D01*
X140094657Y-78889950D01*
X140103635Y-78967530D01*
X140111386Y-79086348D01*
X140117314Y-79237828D01*
X140120173Y-79365805D01*
X140128161Y-79869425D01*
X140197848Y-79879278D01*
X140261229Y-79872389D01*
X140292286Y-79850083D01*
X140300967Y-79808379D01*
X140308378Y-79719544D01*
X140313931Y-79594834D01*
X140317036Y-79445507D01*
X140317484Y-79368661D01*
X140317931Y-78926287D01*
X140409874Y-78894235D01*
X140474949Y-78872443D01*
X140510347Y-78862281D01*
X140511368Y-78862184D01*
X140514920Y-78889809D01*
X140518823Y-78966411D01*
X140522751Y-79082579D01*
X140526376Y-79228904D01*
X140528908Y-79365805D01*
X140536897Y-79869425D01*
X140712069Y-79869425D01*
X140720107Y-79409965D01*
X140728146Y-78950505D01*
X140813543Y-78906344D01*
X140876593Y-78876019D01*
X140913910Y-78862258D01*
X140914987Y-78862184D01*
X140920124Y-78889840D01*
G37*
X136084598Y-78673857D02*
X136093154Y-78793188D01*
X136102981Y-78863506D01*
X136116599Y-78894179D01*
X136136527Y-78894571D01*
X136142989Y-78890910D01*
X136228940Y-78864398D01*
X136340745Y-78865946D01*
X136454414Y-78893199D01*
X136525510Y-78928455D01*
X136598405Y-78984778D01*
X136651693Y-79048519D01*
X136688275Y-79129510D01*
X136711050Y-79237586D01*
X136722919Y-79382580D01*
X136726782Y-79574326D01*
X136726851Y-79611109D01*
X136726897Y-80024288D01*
X136634954Y-80056339D01*
X136569652Y-80078144D01*
X136533824Y-80088297D01*
X136532770Y-80088391D01*
X136529242Y-80060860D01*
X136526239Y-79984923D01*
X136523990Y-79870565D01*
X136522724Y-79727769D01*
X136522529Y-79640951D01*
X136522123Y-79469773D01*
X136520032Y-79347088D01*
X136514947Y-79263000D01*
X136505560Y-79207614D01*
X136490561Y-79171032D01*
X136468642Y-79143359D01*
X136454957Y-79130032D01*
X136360949Y-79076328D01*
X136258364Y-79072307D01*
X136165290Y-79117725D01*
X136148078Y-79134123D01*
X136122832Y-79164957D01*
X136105320Y-79201531D01*
X136094142Y-79254415D01*
X136087896Y-79334177D01*
X136085182Y-79451385D01*
X136084598Y-79612991D01*
X136084598Y-80024288D01*
X135992655Y-80056339D01*
X135927353Y-80078144D01*
X135891525Y-80088297D01*
X135890471Y-80088391D01*
X135887775Y-80060448D01*
X135885345Y-79981630D01*
X135883278Y-79859453D01*
X135881671Y-79701432D01*
X135880623Y-79515083D01*
X135880231Y-79307920D01*
X135880230Y-79298706D01*
X135880230Y-78509020D01*
X135975115Y-78468997D01*
X136070000Y-78428973D01*
X136084598Y-78673857D01*
G36*
X136084598Y-78673857D02*
G01*
X136093154Y-78793188D01*
X136102981Y-78863506D01*
X136116599Y-78894179D01*
X136136527Y-78894571D01*
X136142989Y-78890910D01*
X136228940Y-78864398D01*
X136340745Y-78865946D01*
X136454414Y-78893199D01*
X136525510Y-78928455D01*
X136598405Y-78984778D01*
X136651693Y-79048519D01*
X136688275Y-79129510D01*
X136711050Y-79237586D01*
X136722919Y-79382580D01*
X136726782Y-79574326D01*
X136726851Y-79611109D01*
X136726897Y-80024288D01*
X136634954Y-80056339D01*
X136569652Y-80078144D01*
X136533824Y-80088297D01*
X136532770Y-80088391D01*
X136529242Y-80060860D01*
X136526239Y-79984923D01*
X136523990Y-79870565D01*
X136522724Y-79727769D01*
X136522529Y-79640951D01*
X136522123Y-79469773D01*
X136520032Y-79347088D01*
X136514947Y-79263000D01*
X136505560Y-79207614D01*
X136490561Y-79171032D01*
X136468642Y-79143359D01*
X136454957Y-79130032D01*
X136360949Y-79076328D01*
X136258364Y-79072307D01*
X136165290Y-79117725D01*
X136148078Y-79134123D01*
X136122832Y-79164957D01*
X136105320Y-79201531D01*
X136094142Y-79254415D01*
X136087896Y-79334177D01*
X136085182Y-79451385D01*
X136084598Y-79612991D01*
X136084598Y-80024288D01*
X135992655Y-80056339D01*
X135927353Y-80078144D01*
X135891525Y-80088297D01*
X135890471Y-80088391D01*
X135887775Y-80060448D01*
X135885345Y-79981630D01*
X135883278Y-79859453D01*
X135881671Y-79701432D01*
X135880623Y-79515083D01*
X135880231Y-79307920D01*
X135880230Y-79298706D01*
X135880230Y-78509020D01*
X135975115Y-78468997D01*
X136070000Y-78428973D01*
X136084598Y-78673857D01*
G37*
X131388221Y-78816015D02*
X131525061Y-78887968D01*
X131626051Y-79003766D01*
X131661925Y-79078213D01*
X131689839Y-79189992D01*
X131704129Y-79331227D01*
X131705484Y-79485371D01*
X131694595Y-79635879D01*
X131672153Y-79766205D01*
X131638850Y-79859803D01*
X131628615Y-79875922D01*
X131507382Y-79996249D01*
X131363387Y-80068317D01*
X131207139Y-80089408D01*
X131049148Y-80056802D01*
X131005180Y-80037253D01*
X130919556Y-79977012D01*
X130844408Y-79897135D01*
X130837306Y-79887004D01*
X130808439Y-79838181D01*
X130789357Y-79785990D01*
X130778084Y-79717285D01*
X130772645Y-79618918D01*
X130771062Y-79477744D01*
X130771035Y-79446092D01*
X130771107Y-79436019D01*
X131062989Y-79436019D01*
X131064687Y-79569256D01*
X131071372Y-79657674D01*
X131085425Y-79714785D01*
X131109229Y-79754102D01*
X131121379Y-79767241D01*
X131191236Y-79817172D01*
X131259059Y-79814895D01*
X131327635Y-79771584D01*
X131368535Y-79725346D01*
X131392758Y-79657857D01*
X131406361Y-79551433D01*
X131407294Y-79539020D01*
X131409616Y-79346147D01*
X131385350Y-79202900D01*
X131334824Y-79110160D01*
X131258368Y-79068807D01*
X131231076Y-79066552D01*
X131159411Y-79077893D01*
X131110390Y-79117184D01*
X131080418Y-79192326D01*
X131065899Y-79311222D01*
X131062989Y-79436019D01*
X130771107Y-79436019D01*
X130772122Y-79295659D01*
X130776688Y-79190549D01*
X130786688Y-79117714D01*
X130804079Y-79064108D01*
X130830816Y-79016681D01*
X130836724Y-79007864D01*
X130936032Y-78889007D01*
X131044242Y-78820008D01*
X131175981Y-78792619D01*
X131220717Y-78791281D01*
X131388221Y-78816015D01*
G36*
X131388221Y-78816015D02*
G01*
X131525061Y-78887968D01*
X131626051Y-79003766D01*
X131661925Y-79078213D01*
X131689839Y-79189992D01*
X131704129Y-79331227D01*
X131705484Y-79485371D01*
X131694595Y-79635879D01*
X131672153Y-79766205D01*
X131638850Y-79859803D01*
X131628615Y-79875922D01*
X131507382Y-79996249D01*
X131363387Y-80068317D01*
X131207139Y-80089408D01*
X131049148Y-80056802D01*
X131005180Y-80037253D01*
X130919556Y-79977012D01*
X130844408Y-79897135D01*
X130837306Y-79887004D01*
X130808439Y-79838181D01*
X130789357Y-79785990D01*
X130778084Y-79717285D01*
X130772645Y-79618918D01*
X130771062Y-79477744D01*
X130771035Y-79446092D01*
X130771107Y-79436019D01*
X131062989Y-79436019D01*
X131064687Y-79569256D01*
X131071372Y-79657674D01*
X131085425Y-79714785D01*
X131109229Y-79754102D01*
X131121379Y-79767241D01*
X131191236Y-79817172D01*
X131259059Y-79814895D01*
X131327635Y-79771584D01*
X131368535Y-79725346D01*
X131392758Y-79657857D01*
X131406361Y-79551433D01*
X131407294Y-79539020D01*
X131409616Y-79346147D01*
X131385350Y-79202900D01*
X131334824Y-79110160D01*
X131258368Y-79068807D01*
X131231076Y-79066552D01*
X131159411Y-79077893D01*
X131110390Y-79117184D01*
X131080418Y-79192326D01*
X131065899Y-79311222D01*
X131062989Y-79436019D01*
X130771107Y-79436019D01*
X130772122Y-79295659D01*
X130776688Y-79190549D01*
X130786688Y-79117714D01*
X130804079Y-79064108D01*
X130830816Y-79016681D01*
X130836724Y-79007864D01*
X130936032Y-78889007D01*
X131044242Y-78820008D01*
X131175981Y-78792619D01*
X131220717Y-78791281D01*
X131388221Y-78816015D01*
G37*
X143683439Y-78906540D02*
X143798950Y-78982034D01*
X143854664Y-79049617D01*
X143898804Y-79172255D01*
X143902309Y-79269298D01*
X143894368Y-79399056D01*
X143595115Y-79530039D01*
X143449611Y-79596958D01*
X143354537Y-79650790D01*
X143305101Y-79697416D01*
X143296511Y-79742720D01*
X143323972Y-79792582D01*
X143354253Y-79825632D01*
X143442363Y-79878633D01*
X143538196Y-79882347D01*
X143626212Y-79841041D01*
X143690869Y-79758983D01*
X143702433Y-79730008D01*
X143757825Y-79639509D01*
X143821553Y-79600940D01*
X143908966Y-79567946D01*
X143908966Y-79693034D01*
X143901238Y-79778156D01*
X143870966Y-79849938D01*
X143807518Y-79932356D01*
X143798088Y-79943066D01*
X143727513Y-80016391D01*
X143666847Y-80055742D01*
X143590950Y-80073845D01*
X143528030Y-80079774D01*
X143415487Y-80081251D01*
X143335370Y-80062535D01*
X143285390Y-80034747D01*
X143206838Y-79973641D01*
X143152463Y-79907554D01*
X143118052Y-79824441D01*
X143099388Y-79712254D01*
X143092256Y-79558946D01*
X143091687Y-79481136D01*
X143093622Y-79387853D01*
X143269899Y-79387853D01*
X143271944Y-79437896D01*
X143277039Y-79446092D01*
X143310666Y-79434958D01*
X143383030Y-79405493D01*
X143479747Y-79363601D01*
X143499973Y-79354597D01*
X143622203Y-79292442D01*
X143689547Y-79237815D01*
X143704348Y-79186649D01*
X143668947Y-79134876D01*
X143639711Y-79112000D01*
X143534216Y-79066250D01*
X143435476Y-79073808D01*
X143352812Y-79129651D01*
X143295548Y-79228753D01*
X143277188Y-79307414D01*
X143269899Y-79387853D01*
X143093622Y-79387853D01*
X143095459Y-79299351D01*
X143109359Y-79164853D01*
X143136894Y-79066916D01*
X143181572Y-78994811D01*
X143246901Y-78937813D01*
X143275383Y-78919393D01*
X143404763Y-78871422D01*
X143546412Y-78868403D01*
X143683439Y-78906540D01*
G36*
X143683439Y-78906540D02*
G01*
X143798950Y-78982034D01*
X143854664Y-79049617D01*
X143898804Y-79172255D01*
X143902309Y-79269298D01*
X143894368Y-79399056D01*
X143595115Y-79530039D01*
X143449611Y-79596958D01*
X143354537Y-79650790D01*
X143305101Y-79697416D01*
X143296511Y-79742720D01*
X143323972Y-79792582D01*
X143354253Y-79825632D01*
X143442363Y-79878633D01*
X143538196Y-79882347D01*
X143626212Y-79841041D01*
X143690869Y-79758983D01*
X143702433Y-79730008D01*
X143757825Y-79639509D01*
X143821553Y-79600940D01*
X143908966Y-79567946D01*
X143908966Y-79693034D01*
X143901238Y-79778156D01*
X143870966Y-79849938D01*
X143807518Y-79932356D01*
X143798088Y-79943066D01*
X143727513Y-80016391D01*
X143666847Y-80055742D01*
X143590950Y-80073845D01*
X143528030Y-80079774D01*
X143415487Y-80081251D01*
X143335370Y-80062535D01*
X143285390Y-80034747D01*
X143206838Y-79973641D01*
X143152463Y-79907554D01*
X143118052Y-79824441D01*
X143099388Y-79712254D01*
X143092256Y-79558946D01*
X143091687Y-79481136D01*
X143093622Y-79387853D01*
X143269899Y-79387853D01*
X143271944Y-79437896D01*
X143277039Y-79446092D01*
X143310666Y-79434958D01*
X143383030Y-79405493D01*
X143479747Y-79363601D01*
X143499973Y-79354597D01*
X143622203Y-79292442D01*
X143689547Y-79237815D01*
X143704348Y-79186649D01*
X143668947Y-79134876D01*
X143639711Y-79112000D01*
X143534216Y-79066250D01*
X143435476Y-79073808D01*
X143352812Y-79129651D01*
X143295548Y-79228753D01*
X143277188Y-79307414D01*
X143269899Y-79387853D01*
X143093622Y-79387853D01*
X143095459Y-79299351D01*
X143109359Y-79164853D01*
X143136894Y-79066916D01*
X143181572Y-78994811D01*
X143246901Y-78937813D01*
X143275383Y-78919393D01*
X143404763Y-78871422D01*
X143546412Y-78868403D01*
X143683439Y-78906540D01*
G37*
X139733914Y-79104455D02*
X139733543Y-79322661D01*
X139732108Y-79490519D01*
X139729002Y-79616070D01*
X139723622Y-79707355D01*
X139715362Y-79772415D01*
X139703616Y-79819291D01*
X139687781Y-79856024D01*
X139675790Y-79876991D01*
X139576490Y-79990694D01*
X139450588Y-80061965D01*
X139311291Y-80087538D01*
X139171805Y-80064150D01*
X139088743Y-80022119D01*
X139001545Y-79949411D01*
X138942117Y-79860612D01*
X138906261Y-79744320D01*
X138889781Y-79589135D01*
X138887447Y-79475287D01*
X138887761Y-79467106D01*
X139091724Y-79467106D01*
X139092970Y-79597657D01*
X139098678Y-79684080D01*
X139111804Y-79740618D01*
X139135306Y-79781514D01*
X139163386Y-79812362D01*
X139257688Y-79871905D01*
X139358940Y-79876992D01*
X139454636Y-79827279D01*
X139462084Y-79820543D01*
X139493874Y-79785502D01*
X139513808Y-79743811D01*
X139524600Y-79681762D01*
X139528965Y-79585644D01*
X139529655Y-79479379D01*
X139528159Y-79345880D01*
X139521964Y-79256822D01*
X139508514Y-79198293D01*
X139485251Y-79156382D01*
X139466175Y-79134123D01*
X139377563Y-79077985D01*
X139275508Y-79071235D01*
X139178095Y-79114114D01*
X139159296Y-79130032D01*
X139127293Y-79165382D01*
X139107318Y-79207502D01*
X139096593Y-79270251D01*
X139092339Y-79367487D01*
X139091724Y-79467106D01*
X138887761Y-79467106D01*
X138894504Y-79291947D01*
X138918472Y-79154195D01*
X138963548Y-79050632D01*
X139033928Y-78969856D01*
X139088743Y-78928455D01*
X139188376Y-78883728D01*
X139303855Y-78862967D01*
X139411199Y-78868525D01*
X139471264Y-78890943D01*
X139494835Y-78897323D01*
X139510477Y-78873535D01*
X139521395Y-78809788D01*
X139529655Y-78712687D01*
X139538699Y-78604541D01*
X139551261Y-78539475D01*
X139574119Y-78502268D01*
X139614051Y-78477699D01*
X139639138Y-78466819D01*
X139734023Y-78427072D01*
X139733914Y-79104455D01*
G36*
X139733914Y-79104455D02*
G01*
X139733543Y-79322661D01*
X139732108Y-79490519D01*
X139729002Y-79616070D01*
X139723622Y-79707355D01*
X139715362Y-79772415D01*
X139703616Y-79819291D01*
X139687781Y-79856024D01*
X139675790Y-79876991D01*
X139576490Y-79990694D01*
X139450588Y-80061965D01*
X139311291Y-80087538D01*
X139171805Y-80064150D01*
X139088743Y-80022119D01*
X139001545Y-79949411D01*
X138942117Y-79860612D01*
X138906261Y-79744320D01*
X138889781Y-79589135D01*
X138887447Y-79475287D01*
X138887761Y-79467106D01*
X139091724Y-79467106D01*
X139092970Y-79597657D01*
X139098678Y-79684080D01*
X139111804Y-79740618D01*
X139135306Y-79781514D01*
X139163386Y-79812362D01*
X139257688Y-79871905D01*
X139358940Y-79876992D01*
X139454636Y-79827279D01*
X139462084Y-79820543D01*
X139493874Y-79785502D01*
X139513808Y-79743811D01*
X139524600Y-79681762D01*
X139528965Y-79585644D01*
X139529655Y-79479379D01*
X139528159Y-79345880D01*
X139521964Y-79256822D01*
X139508514Y-79198293D01*
X139485251Y-79156382D01*
X139466175Y-79134123D01*
X139377563Y-79077985D01*
X139275508Y-79071235D01*
X139178095Y-79114114D01*
X139159296Y-79130032D01*
X139127293Y-79165382D01*
X139107318Y-79207502D01*
X139096593Y-79270251D01*
X139092339Y-79367487D01*
X139091724Y-79467106D01*
X138887761Y-79467106D01*
X138894504Y-79291947D01*
X138918472Y-79154195D01*
X138963548Y-79050632D01*
X139033928Y-78969856D01*
X139088743Y-78928455D01*
X139188376Y-78883728D01*
X139303855Y-78862967D01*
X139411199Y-78868525D01*
X139471264Y-78890943D01*
X139494835Y-78897323D01*
X139510477Y-78873535D01*
X139521395Y-78809788D01*
X139529655Y-78712687D01*
X139538699Y-78604541D01*
X139551261Y-78539475D01*
X139574119Y-78502268D01*
X139614051Y-78477699D01*
X139639138Y-78466819D01*
X139734023Y-78427072D01*
X139733914Y-79104455D01*
G37*
X133655552Y-78834676D02*
X133770658Y-78912111D01*
X133859611Y-79023949D01*
X133912749Y-79166265D01*
X133923497Y-79271015D01*
X133922276Y-79314726D01*
X133912056Y-79348194D01*
X133883961Y-79378179D01*
X133829116Y-79411440D01*
X133738645Y-79454738D01*
X133603672Y-79514833D01*
X133602989Y-79515134D01*
X133478751Y-79572037D01*
X133376873Y-79622565D01*
X133307767Y-79661280D01*
X133281846Y-79682740D01*
X133281839Y-79682913D01*
X133304685Y-79729644D01*
X133358109Y-79781154D01*
X133419442Y-79818261D01*
X133450515Y-79825632D01*
X133535289Y-79800138D01*
X133608293Y-79736291D01*
X133643913Y-79666094D01*
X133678180Y-79614343D01*
X133745303Y-79555409D01*
X133824208Y-79504496D01*
X133893821Y-79476809D01*
X133908377Y-79475287D01*
X133924763Y-79500321D01*
X133925750Y-79564311D01*
X133913708Y-79650593D01*
X133891007Y-79742501D01*
X133860014Y-79823369D01*
X133858448Y-79826509D01*
X133765181Y-79956734D01*
X133644304Y-80045311D01*
X133507027Y-80088786D01*
X133364560Y-80083706D01*
X133228112Y-80026616D01*
X133222045Y-80022602D01*
X133114710Y-79925326D01*
X133044132Y-79798409D01*
X133005074Y-79631526D01*
X132999832Y-79584639D01*
X132990548Y-79363329D01*
X133001678Y-79260124D01*
X133281839Y-79260124D01*
X133285479Y-79324503D01*
X133305389Y-79343291D01*
X133355026Y-79329235D01*
X133433267Y-79296009D01*
X133520726Y-79254359D01*
X133522899Y-79253256D01*
X133597030Y-79214265D01*
X133626781Y-79188244D01*
X133619445Y-79160965D01*
X133588553Y-79125121D01*
X133509960Y-79073251D01*
X133425323Y-79069439D01*
X133349403Y-79107189D01*
X133296965Y-79180001D01*
X133281839Y-79260124D01*
X133001678Y-79260124D01*
X133009644Y-79186261D01*
X133058634Y-79045829D01*
X133126836Y-78947447D01*
X133249935Y-78848030D01*
X133385528Y-78798711D01*
X133523955Y-78795568D01*
X133655552Y-78834676D01*
G36*
X133655552Y-78834676D02*
G01*
X133770658Y-78912111D01*
X133859611Y-79023949D01*
X133912749Y-79166265D01*
X133923497Y-79271015D01*
X133922276Y-79314726D01*
X133912056Y-79348194D01*
X133883961Y-79378179D01*
X133829116Y-79411440D01*
X133738645Y-79454738D01*
X133603672Y-79514833D01*
X133602989Y-79515134D01*
X133478751Y-79572037D01*
X133376873Y-79622565D01*
X133307767Y-79661280D01*
X133281846Y-79682740D01*
X133281839Y-79682913D01*
X133304685Y-79729644D01*
X133358109Y-79781154D01*
X133419442Y-79818261D01*
X133450515Y-79825632D01*
X133535289Y-79800138D01*
X133608293Y-79736291D01*
X133643913Y-79666094D01*
X133678180Y-79614343D01*
X133745303Y-79555409D01*
X133824208Y-79504496D01*
X133893821Y-79476809D01*
X133908377Y-79475287D01*
X133924763Y-79500321D01*
X133925750Y-79564311D01*
X133913708Y-79650593D01*
X133891007Y-79742501D01*
X133860014Y-79823369D01*
X133858448Y-79826509D01*
X133765181Y-79956734D01*
X133644304Y-80045311D01*
X133507027Y-80088786D01*
X133364560Y-80083706D01*
X133228112Y-80026616D01*
X133222045Y-80022602D01*
X133114710Y-79925326D01*
X133044132Y-79798409D01*
X133005074Y-79631526D01*
X132999832Y-79584639D01*
X132990548Y-79363329D01*
X133001678Y-79260124D01*
X133281839Y-79260124D01*
X133285479Y-79324503D01*
X133305389Y-79343291D01*
X133355026Y-79329235D01*
X133433267Y-79296009D01*
X133520726Y-79254359D01*
X133522899Y-79253256D01*
X133597030Y-79214265D01*
X133626781Y-79188244D01*
X133619445Y-79160965D01*
X133588553Y-79125121D01*
X133509960Y-79073251D01*
X133425323Y-79069439D01*
X133349403Y-79107189D01*
X133296965Y-79180001D01*
X133281839Y-79260124D01*
X133001678Y-79260124D01*
X133009644Y-79186261D01*
X133058634Y-79045829D01*
X133126836Y-78947447D01*
X133249935Y-78848030D01*
X133385528Y-78798711D01*
X133523955Y-78795568D01*
X133655552Y-78834676D01*
G37*
X137419944Y-78874360D02*
X137534343Y-78916842D01*
X137535652Y-78917658D01*
X137606403Y-78969730D01*
X137658636Y-79030584D01*
X137695371Y-79109887D01*
X137719634Y-79217309D01*
X137734445Y-79362517D01*
X137742829Y-79555179D01*
X137743564Y-79582628D01*
X137754120Y-79996521D01*
X137665291Y-80042456D01*
X137601018Y-80073498D01*
X137562210Y-80088206D01*
X137560415Y-80088391D01*
X137553700Y-80061250D01*
X137548365Y-79988041D01*
X137545083Y-79881081D01*
X137544368Y-79794469D01*
X137544351Y-79654162D01*
X137537937Y-79566051D01*
X137515580Y-79524025D01*
X137467732Y-79521975D01*
X137384849Y-79553790D01*
X137259713Y-79612272D01*
X137167697Y-79660845D01*
X137120371Y-79702986D01*
X137106458Y-79748916D01*
X137106437Y-79751189D01*
X137129395Y-79830311D01*
X137197370Y-79873055D01*
X137301398Y-79879246D01*
X137376330Y-79878172D01*
X137415839Y-79899753D01*
X137440478Y-79951591D01*
X137454659Y-80017632D01*
X137434223Y-80055104D01*
X137426528Y-80060467D01*
X137354083Y-80082006D01*
X137252633Y-80085055D01*
X137148157Y-80070778D01*
X137074125Y-80044688D01*
X136971772Y-79957785D01*
X136913591Y-79836816D01*
X136902069Y-79742308D01*
X136910862Y-79657062D01*
X136942680Y-79587476D01*
X137005684Y-79525672D01*
X137108031Y-79463772D01*
X137257882Y-79393897D01*
X137267012Y-79389948D01*
X137401997Y-79327588D01*
X137485294Y-79276446D01*
X137520997Y-79230488D01*
X137513203Y-79183683D01*
X137466007Y-79129998D01*
X137451894Y-79117644D01*
X137357359Y-79069741D01*
X137259406Y-79071758D01*
X137174097Y-79118724D01*
X137117496Y-79205669D01*
X137112237Y-79222734D01*
X137061023Y-79305504D01*
X136996037Y-79345372D01*
X136902069Y-79384882D01*
X136902069Y-79282658D01*
X136930653Y-79134072D01*
X137015495Y-78997784D01*
X137059645Y-78952191D01*
X137160005Y-78893674D01*
X137287635Y-78867184D01*
X137419944Y-78874360D01*
G36*
X137419944Y-78874360D02*
G01*
X137534343Y-78916842D01*
X137535652Y-78917658D01*
X137606403Y-78969730D01*
X137658636Y-79030584D01*
X137695371Y-79109887D01*
X137719634Y-79217309D01*
X137734445Y-79362517D01*
X137742829Y-79555179D01*
X137743564Y-79582628D01*
X137754120Y-79996521D01*
X137665291Y-80042456D01*
X137601018Y-80073498D01*
X137562210Y-80088206D01*
X137560415Y-80088391D01*
X137553700Y-80061250D01*
X137548365Y-79988041D01*
X137545083Y-79881081D01*
X137544368Y-79794469D01*
X137544351Y-79654162D01*
X137537937Y-79566051D01*
X137515580Y-79524025D01*
X137467732Y-79521975D01*
X137384849Y-79553790D01*
X137259713Y-79612272D01*
X137167697Y-79660845D01*
X137120371Y-79702986D01*
X137106458Y-79748916D01*
X137106437Y-79751189D01*
X137129395Y-79830311D01*
X137197370Y-79873055D01*
X137301398Y-79879246D01*
X137376330Y-79878172D01*
X137415839Y-79899753D01*
X137440478Y-79951591D01*
X137454659Y-80017632D01*
X137434223Y-80055104D01*
X137426528Y-80060467D01*
X137354083Y-80082006D01*
X137252633Y-80085055D01*
X137148157Y-80070778D01*
X137074125Y-80044688D01*
X136971772Y-79957785D01*
X136913591Y-79836816D01*
X136902069Y-79742308D01*
X136910862Y-79657062D01*
X136942680Y-79587476D01*
X137005684Y-79525672D01*
X137108031Y-79463772D01*
X137257882Y-79393897D01*
X137267012Y-79389948D01*
X137401997Y-79327588D01*
X137485294Y-79276446D01*
X137520997Y-79230488D01*
X137513203Y-79183683D01*
X137466007Y-79129998D01*
X137451894Y-79117644D01*
X137357359Y-79069741D01*
X137259406Y-79071758D01*
X137174097Y-79118724D01*
X137117496Y-79205669D01*
X137112237Y-79222734D01*
X137061023Y-79305504D01*
X136996037Y-79345372D01*
X136902069Y-79384882D01*
X136902069Y-79282658D01*
X136930653Y-79134072D01*
X137015495Y-78997784D01*
X137059645Y-78952191D01*
X137160005Y-78893674D01*
X137287635Y-78867184D01*
X137419944Y-78874360D01*
G37*
X132511900Y-78811903D02*
X132623450Y-78867522D01*
X132721908Y-78969931D01*
X132749023Y-79007864D01*
X132778562Y-79057500D01*
X132797728Y-79111412D01*
X132808693Y-79183364D01*
X132813629Y-79287122D01*
X132814713Y-79424101D01*
X132809818Y-79611815D01*
X132792804Y-79752758D01*
X132760177Y-79857908D01*
X132708442Y-79938243D01*
X132634104Y-80004741D01*
X132628642Y-80008678D01*
X132555380Y-80048953D01*
X132467160Y-80068880D01*
X132354962Y-80073793D01*
X132172567Y-80073793D01*
X132172491Y-80250857D01*
X132170793Y-80349470D01*
X132160450Y-80407314D01*
X132133422Y-80442006D01*
X132081668Y-80471164D01*
X132069239Y-80477121D01*
X132011077Y-80505039D01*
X131966044Y-80522672D01*
X131932559Y-80524194D01*
X131909038Y-80503781D01*
X131893900Y-80455607D01*
X131885563Y-80373846D01*
X131882444Y-80252672D01*
X131882960Y-80086260D01*
X131885529Y-79868785D01*
X131886332Y-79803736D01*
X131889222Y-79579502D01*
X131891812Y-79432821D01*
X132172414Y-79432821D01*
X132173991Y-79557326D01*
X132181000Y-79638787D01*
X132196858Y-79692515D01*
X132224981Y-79733823D01*
X132244075Y-79753971D01*
X132322135Y-79812921D01*
X132391247Y-79817720D01*
X132462560Y-79769038D01*
X132464368Y-79767241D01*
X132493383Y-79729618D01*
X132511033Y-79678484D01*
X132519936Y-79599738D01*
X132522709Y-79479276D01*
X132522759Y-79452588D01*
X132516058Y-79286583D01*
X132494248Y-79171505D01*
X132454765Y-79101254D01*
X132395044Y-79069729D01*
X132360528Y-79066552D01*
X132278611Y-79081460D01*
X132222421Y-79130548D01*
X132188598Y-79220362D01*
X132173780Y-79357445D01*
X132172414Y-79432821D01*
X131891812Y-79432821D01*
X131892287Y-79405952D01*
X131896247Y-79275382D01*
X131901826Y-79180087D01*
X131909746Y-79112364D01*
X131920731Y-79064507D01*
X131935501Y-79028813D01*
X131954782Y-78997578D01*
X131963049Y-78985824D01*
X132072712Y-78874797D01*
X132211365Y-78811847D01*
X132371754Y-78794297D01*
X132511900Y-78811903D01*
G36*
X132511900Y-78811903D02*
G01*
X132623450Y-78867522D01*
X132721908Y-78969931D01*
X132749023Y-79007864D01*
X132778562Y-79057500D01*
X132797728Y-79111412D01*
X132808693Y-79183364D01*
X132813629Y-79287122D01*
X132814713Y-79424101D01*
X132809818Y-79611815D01*
X132792804Y-79752758D01*
X132760177Y-79857908D01*
X132708442Y-79938243D01*
X132634104Y-80004741D01*
X132628642Y-80008678D01*
X132555380Y-80048953D01*
X132467160Y-80068880D01*
X132354962Y-80073793D01*
X132172567Y-80073793D01*
X132172491Y-80250857D01*
X132170793Y-80349470D01*
X132160450Y-80407314D01*
X132133422Y-80442006D01*
X132081668Y-80471164D01*
X132069239Y-80477121D01*
X132011077Y-80505039D01*
X131966044Y-80522672D01*
X131932559Y-80524194D01*
X131909038Y-80503781D01*
X131893900Y-80455607D01*
X131885563Y-80373846D01*
X131882444Y-80252672D01*
X131882960Y-80086260D01*
X131885529Y-79868785D01*
X131886332Y-79803736D01*
X131889222Y-79579502D01*
X131891812Y-79432821D01*
X132172414Y-79432821D01*
X132173991Y-79557326D01*
X132181000Y-79638787D01*
X132196858Y-79692515D01*
X132224981Y-79733823D01*
X132244075Y-79753971D01*
X132322135Y-79812921D01*
X132391247Y-79817720D01*
X132462560Y-79769038D01*
X132464368Y-79767241D01*
X132493383Y-79729618D01*
X132511033Y-79678484D01*
X132519936Y-79599738D01*
X132522709Y-79479276D01*
X132522759Y-79452588D01*
X132516058Y-79286583D01*
X132494248Y-79171505D01*
X132454765Y-79101254D01*
X132395044Y-79069729D01*
X132360528Y-79066552D01*
X132278611Y-79081460D01*
X132222421Y-79130548D01*
X132188598Y-79220362D01*
X132173780Y-79357445D01*
X132172414Y-79432821D01*
X131891812Y-79432821D01*
X131892287Y-79405952D01*
X131896247Y-79275382D01*
X131901826Y-79180087D01*
X131909746Y-79112364D01*
X131920731Y-79064507D01*
X131935501Y-79028813D01*
X131954782Y-78997578D01*
X131963049Y-78985824D01*
X132072712Y-78874797D01*
X132211365Y-78811847D01*
X132371754Y-78794297D01*
X132511900Y-78811903D01*
G37*
X141654406Y-78885156D02*
X141738469Y-78923393D01*
X141804450Y-78969726D01*
X141852794Y-79021532D01*
X141886172Y-79088363D01*
X141907253Y-79179769D01*
X141918707Y-79305301D01*
X141923203Y-79474508D01*
X141923678Y-79585933D01*
X141923678Y-80020627D01*
X141849316Y-80054509D01*
X141790746Y-80079272D01*
X141761730Y-80088391D01*
X141756179Y-80061257D01*
X141751775Y-79988094D01*
X141749078Y-79881263D01*
X141748506Y-79796437D01*
X141746046Y-79673887D01*
X141739412Y-79576668D01*
X141729726Y-79517134D01*
X141722032Y-79504483D01*
X141670311Y-79517402D01*
X141589117Y-79550539D01*
X141495102Y-79595461D01*
X141404917Y-79643735D01*
X141335215Y-79686928D01*
X141302648Y-79716608D01*
X141302519Y-79716929D01*
X141305320Y-79771857D01*
X141330439Y-79824292D01*
X141374541Y-79866881D01*
X141438909Y-79881126D01*
X141493921Y-79879466D01*
X141571835Y-79878245D01*
X141612732Y-79896498D01*
X141637295Y-79944726D01*
X141640392Y-79953820D01*
X141651040Y-80022598D01*
X141622565Y-80064360D01*
X141548344Y-80084263D01*
X141468168Y-80087944D01*
X141323890Y-80060658D01*
X141249203Y-80021690D01*
X141156963Y-79930148D01*
X141108043Y-79817782D01*
X141103654Y-79699051D01*
X141145001Y-79588411D01*
X141207197Y-79519080D01*
X141269294Y-79480265D01*
X141366895Y-79431125D01*
X141480632Y-79381292D01*
X141499590Y-79373677D01*
X141624521Y-79318545D01*
X141696539Y-79269954D01*
X141719700Y-79221647D01*
X141698064Y-79167370D01*
X141660920Y-79124943D01*
X141573127Y-79072702D01*
X141476530Y-79068784D01*
X141387944Y-79109041D01*
X141324186Y-79189326D01*
X141315817Y-79210040D01*
X141267096Y-79286225D01*
X141195965Y-79342785D01*
X141106207Y-79389201D01*
X141106207Y-79257584D01*
X141111490Y-79177168D01*
X141134142Y-79113786D01*
X141184367Y-79046163D01*
X141232582Y-78994076D01*
X141307554Y-78920322D01*
X141365806Y-78880702D01*
X141428372Y-78864810D01*
X141499193Y-78862184D01*
X141654406Y-78885156D01*
G36*
X141654406Y-78885156D02*
G01*
X141738469Y-78923393D01*
X141804450Y-78969726D01*
X141852794Y-79021532D01*
X141886172Y-79088363D01*
X141907253Y-79179769D01*
X141918707Y-79305301D01*
X141923203Y-79474508D01*
X141923678Y-79585933D01*
X141923678Y-80020627D01*
X141849316Y-80054509D01*
X141790746Y-80079272D01*
X141761730Y-80088391D01*
X141756179Y-80061257D01*
X141751775Y-79988094D01*
X141749078Y-79881263D01*
X141748506Y-79796437D01*
X141746046Y-79673887D01*
X141739412Y-79576668D01*
X141729726Y-79517134D01*
X141722032Y-79504483D01*
X141670311Y-79517402D01*
X141589117Y-79550539D01*
X141495102Y-79595461D01*
X141404917Y-79643735D01*
X141335215Y-79686928D01*
X141302648Y-79716608D01*
X141302519Y-79716929D01*
X141305320Y-79771857D01*
X141330439Y-79824292D01*
X141374541Y-79866881D01*
X141438909Y-79881126D01*
X141493921Y-79879466D01*
X141571835Y-79878245D01*
X141612732Y-79896498D01*
X141637295Y-79944726D01*
X141640392Y-79953820D01*
X141651040Y-80022598D01*
X141622565Y-80064360D01*
X141548344Y-80084263D01*
X141468168Y-80087944D01*
X141323890Y-80060658D01*
X141249203Y-80021690D01*
X141156963Y-79930148D01*
X141108043Y-79817782D01*
X141103654Y-79699051D01*
X141145001Y-79588411D01*
X141207197Y-79519080D01*
X141269294Y-79480265D01*
X141366895Y-79431125D01*
X141480632Y-79381292D01*
X141499590Y-79373677D01*
X141624521Y-79318545D01*
X141696539Y-79269954D01*
X141719700Y-79221647D01*
X141698064Y-79167370D01*
X141660920Y-79124943D01*
X141573127Y-79072702D01*
X141476530Y-79068784D01*
X141387944Y-79109041D01*
X141324186Y-79189326D01*
X141315817Y-79210040D01*
X141267096Y-79286225D01*
X141195965Y-79342785D01*
X141106207Y-79389201D01*
X141106207Y-79257584D01*
X141111490Y-79177168D01*
X141134142Y-79113786D01*
X141184367Y-79046163D01*
X141232582Y-78994076D01*
X141307554Y-78920322D01*
X141365806Y-78880702D01*
X141428372Y-78864810D01*
X141499193Y-78862184D01*
X141654406Y-78885156D01*
G37*
X137549014Y-69402998D02*
X137707006Y-69403863D01*
X137821347Y-69406205D01*
X137899407Y-69410762D01*
X137948554Y-69418270D01*
X137976159Y-69429466D01*
X137989592Y-69445088D01*
X137996221Y-69465873D01*
X137996865Y-69468563D01*
X138006935Y-69517113D01*
X138025575Y-69612905D01*
X138050845Y-69745743D01*
X138080807Y-69905431D01*
X138113522Y-70081774D01*
X138114664Y-70087967D01*
X138147433Y-70260782D01*
X138178093Y-70413469D01*
X138204664Y-70536871D01*
X138225167Y-70621831D01*
X138237626Y-70659190D01*
X138238220Y-70659852D01*
X138274919Y-70678095D01*
X138350586Y-70708497D01*
X138448878Y-70744493D01*
X138449425Y-70744685D01*
X138573233Y-70791222D01*
X138719196Y-70850504D01*
X138856781Y-70910109D01*
X138863293Y-70913056D01*
X139087390Y-71014765D01*
X139583619Y-70675897D01*
X139735846Y-70572592D01*
X139873741Y-70480237D01*
X139989315Y-70404084D01*
X140074579Y-70349385D01*
X140121544Y-70321393D01*
X140126004Y-70319317D01*
X140160134Y-70328560D01*
X140223881Y-70373156D01*
X140319731Y-70455209D01*
X140450169Y-70576821D01*
X140583328Y-70706205D01*
X140711694Y-70833702D01*
X140826581Y-70950046D01*
X140921073Y-71048052D01*
X140988253Y-71120536D01*
X141021206Y-71160313D01*
X141022432Y-71162361D01*
X141026074Y-71189656D01*
X141012350Y-71234234D01*
X140977869Y-71302112D01*
X140919239Y-71399311D01*
X140833070Y-71531851D01*
X140718200Y-71702476D01*
X140616254Y-71852655D01*
X140525123Y-71987350D01*
X140450073Y-72098740D01*
X140396369Y-72179005D01*
X140369280Y-72220325D01*
X140367574Y-72223130D01*
X140370882Y-72262721D01*
X140395953Y-72339669D01*
X140437798Y-72439432D01*
X140452712Y-72471291D01*
X140517786Y-72613226D01*
X140587212Y-72774273D01*
X140643609Y-72913621D01*
X140684247Y-73017044D01*
X140716526Y-73095642D01*
X140735178Y-73136720D01*
X140737497Y-73139885D01*
X140771803Y-73145128D01*
X140852669Y-73159494D01*
X140969343Y-73180937D01*
X141111075Y-73207413D01*
X141267110Y-73236877D01*
X141426698Y-73267283D01*
X141579085Y-73296588D01*
X141713521Y-73322745D01*
X141819252Y-73343710D01*
X141885526Y-73357439D01*
X141901782Y-73361320D01*
X141918573Y-73370900D01*
X141931249Y-73392536D01*
X141940378Y-73433531D01*
X141946531Y-73501189D01*
X141950280Y-73602812D01*
X141952192Y-73745703D01*
X141952840Y-73937165D01*
X141952874Y-74015645D01*
X141952874Y-74653906D01*
X141799598Y-74684160D01*
X141714322Y-74700564D01*
X141587070Y-74724509D01*
X141433315Y-74753107D01*
X141268534Y-74783467D01*
X141222989Y-74791806D01*
X141070932Y-74821370D01*
X140938468Y-74850442D01*
X140836714Y-74876329D01*
X140776788Y-74896337D01*
X140766805Y-74902301D01*
X140742293Y-74944534D01*
X140707148Y-75026370D01*
X140668173Y-75131683D01*
X140660442Y-75154368D01*
X140609360Y-75295018D01*
X140545954Y-75453714D01*
X140483904Y-75596225D01*
X140483598Y-75596886D01*
X140380267Y-75820440D01*
X141059961Y-76820232D01*
X140623621Y-77257300D01*
X140491649Y-77387381D01*
X140371279Y-77502048D01*
X140269273Y-77595181D01*
X140192391Y-77660658D01*
X140147393Y-77692357D01*
X140140938Y-77694368D01*
X140103040Y-77678529D01*
X140025708Y-77634496D01*
X139917389Y-77567490D01*
X139786532Y-77482734D01*
X139645052Y-77387816D01*
X139501461Y-77290998D01*
X139373435Y-77206751D01*
X139269105Y-77140258D01*
X139196600Y-77096702D01*
X139164158Y-77081264D01*
X139124576Y-77094328D01*
X139049519Y-77128750D01*
X138954468Y-77177380D01*
X138944392Y-77182785D01*
X138816391Y-77246980D01*
X138728618Y-77278463D01*
X138674028Y-77278798D01*
X138645575Y-77249548D01*
X138645410Y-77249138D01*
X138631188Y-77214498D01*
X138597269Y-77132269D01*
X138546284Y-77008814D01*
X138480862Y-76850498D01*
X138403634Y-76663686D01*
X138317229Y-76454742D01*
X138233551Y-76252446D01*
X138141588Y-76029200D01*
X138057150Y-75822392D01*
X137982769Y-75638362D01*
X137920974Y-75483451D01*
X137874297Y-75363996D01*
X137845268Y-75286339D01*
X137836322Y-75257356D01*
X137858756Y-75224110D01*
X137917439Y-75171123D01*
X137995689Y-75112704D01*
X138218534Y-74927952D01*
X138392718Y-74716182D01*
X138516154Y-74481856D01*
X138586754Y-74229434D01*
X138602431Y-73963377D01*
X138591036Y-73840575D01*
X138528950Y-73585793D01*
X138422023Y-73360801D01*
X138276889Y-73167817D01*
X138100178Y-73009061D01*
X137898522Y-72886750D01*
X137678554Y-72803105D01*
X137446906Y-72760344D01*
X137210209Y-72760687D01*
X136975095Y-72806352D01*
X136748196Y-72899559D01*
X136536144Y-73042527D01*
X136447636Y-73123383D01*
X136277889Y-73331007D01*
X136159699Y-73557895D01*
X136092278Y-73797433D01*
X136074840Y-74043007D01*
X136106598Y-74288003D01*
X136186765Y-74525808D01*
X136314555Y-74749807D01*
X136489180Y-74953387D01*
X136684312Y-75112704D01*
X136765591Y-75173602D01*
X136823009Y-75226015D01*
X136843678Y-75257406D01*
X136832856Y-75291639D01*
X136802077Y-75373419D01*
X136753874Y-75496407D01*
X136690778Y-75654263D01*
X136615322Y-75840649D01*
X136530038Y-76049226D01*
X136446219Y-76252496D01*
X136353745Y-76475933D01*
X136268089Y-76682984D01*
X136191882Y-76867286D01*
X136127753Y-77022475D01*
X136078332Y-77142188D01*
X136046248Y-77220061D01*
X136034359Y-77249138D01*
X136006274Y-77278677D01*
X135951949Y-77278591D01*
X135864395Y-77247326D01*
X135736619Y-77183329D01*
X135735608Y-77182785D01*
X135639402Y-77133121D01*
X135561631Y-77096945D01*
X135517777Y-77081408D01*
X135515842Y-77081264D01*
X135482829Y-77097024D01*
X135409946Y-77140850D01*
X135305322Y-77207557D01*
X135177090Y-77291964D01*
X135034948Y-77387816D01*
X134890233Y-77484867D01*
X134759804Y-77569270D01*
X134652110Y-77635801D01*
X134575598Y-77679238D01*
X134539062Y-77694368D01*
X134505418Y-77674482D01*
X134437776Y-77618903D01*
X134342893Y-77533754D01*
X134227530Y-77425153D01*
X134098445Y-77299221D01*
X134056229Y-77257149D01*
X133619739Y-76819931D01*
X133951977Y-76332340D01*
X134052946Y-76182605D01*
X134141562Y-76048220D01*
X134212854Y-75936969D01*
X134261850Y-75856639D01*
X134283578Y-75815014D01*
X134284215Y-75812053D01*
X134272760Y-75772818D01*
X134241949Y-75693895D01*
X134197116Y-75588509D01*
X134165647Y-75517954D01*
X134106808Y-75382876D01*
X134051396Y-75246409D01*
X134008436Y-75131103D01*
X133996766Y-75095977D01*
X133963611Y-75002174D01*
X133931201Y-74929694D01*
X133913399Y-74902301D01*
X133874114Y-74885536D01*
X133788374Y-74861770D01*
X133667303Y-74833697D01*
X133522027Y-74804009D01*
X133457012Y-74791806D01*
X133291913Y-74761468D01*
X133133552Y-74732093D01*
X132997404Y-74706569D01*
X132898943Y-74687785D01*
X132880402Y-74684160D01*
X132727127Y-74653906D01*
X132727127Y-74015645D01*
X132727471Y-73805770D01*
X132728884Y-73646980D01*
X132731936Y-73531973D01*
X132737197Y-73453446D01*
X132745237Y-73404096D01*
X132756627Y-73376619D01*
X132771937Y-73363713D01*
X132778218Y-73361320D01*
X132816104Y-73352833D01*
X132899805Y-73335900D01*
X133018567Y-73312566D01*
X133161639Y-73284875D01*
X133318268Y-73254873D01*
X133477703Y-73224604D01*
X133629191Y-73196115D01*
X133761981Y-73171449D01*
X133865319Y-73152651D01*
X133928455Y-73141767D01*
X133942503Y-73139885D01*
X133955230Y-73114704D01*
X133983400Y-73047622D01*
X134021748Y-72951333D01*
X134036391Y-72913621D01*
X134095452Y-72767921D01*
X134165000Y-72606951D01*
X134227288Y-72471291D01*
X134273121Y-72367561D01*
X134303613Y-72282326D01*
X134313792Y-72230126D01*
X134312169Y-72223130D01*
X134290657Y-72190102D01*
X134241535Y-72116643D01*
X134170077Y-72010577D01*
X134081555Y-71879726D01*
X133981241Y-71731912D01*
X133961406Y-71702734D01*
X133845012Y-71529863D01*
X133759452Y-71398226D01*
X133701316Y-71301761D01*
X133667192Y-71234408D01*
X133653669Y-71190106D01*
X133657336Y-71162794D01*
X133657430Y-71162620D01*
X133686293Y-71126746D01*
X133750133Y-71057391D01*
X133842031Y-70961745D01*
X133955067Y-70846999D01*
X134082321Y-70720341D01*
X134096672Y-70706205D01*
X134257043Y-70550903D01*
X134380805Y-70436870D01*
X134470445Y-70362002D01*
X134528448Y-70324196D01*
X134553996Y-70319317D01*
X134591282Y-70340603D01*
X134668657Y-70389773D01*
X134778133Y-70461575D01*
X134911720Y-70550755D01*
X135061430Y-70652063D01*
X135096382Y-70675897D01*
X135592610Y-71014765D01*
X135816707Y-70913056D01*
X135952989Y-70853783D01*
X136099276Y-70794170D01*
X136225035Y-70746640D01*
X136230575Y-70744685D01*
X136328943Y-70708677D01*
X136404771Y-70678229D01*
X136441718Y-70659905D01*
X136441780Y-70659852D01*
X136453504Y-70626729D01*
X136473432Y-70545267D01*
X136499587Y-70424625D01*
X136529990Y-70273959D01*
X136562663Y-70102428D01*
X136565336Y-70087967D01*
X136598110Y-69911235D01*
X136628198Y-69750810D01*
X136653661Y-69616888D01*
X136672559Y-69519663D01*
X136682953Y-69469332D01*
X136683135Y-69468563D01*
X136689461Y-69447153D01*
X136701761Y-69430988D01*
X136727406Y-69419331D01*
X136773765Y-69411445D01*
X136848208Y-69406593D01*
X136958105Y-69404039D01*
X137110825Y-69403045D01*
X137313738Y-69402874D01*
X137340000Y-69402874D01*
X137549014Y-69402998D01*
G36*
X137549014Y-69402998D02*
G01*
X137707006Y-69403863D01*
X137821347Y-69406205D01*
X137899407Y-69410762D01*
X137948554Y-69418270D01*
X137976159Y-69429466D01*
X137989592Y-69445088D01*
X137996221Y-69465873D01*
X137996865Y-69468563D01*
X138006935Y-69517113D01*
X138025575Y-69612905D01*
X138050845Y-69745743D01*
X138080807Y-69905431D01*
X138113522Y-70081774D01*
X138114664Y-70087967D01*
X138147433Y-70260782D01*
X138178093Y-70413469D01*
X138204664Y-70536871D01*
X138225167Y-70621831D01*
X138237626Y-70659190D01*
X138238220Y-70659852D01*
X138274919Y-70678095D01*
X138350586Y-70708497D01*
X138448878Y-70744493D01*
X138449425Y-70744685D01*
X138573233Y-70791222D01*
X138719196Y-70850504D01*
X138856781Y-70910109D01*
X138863293Y-70913056D01*
X139087390Y-71014765D01*
X139583619Y-70675897D01*
X139735846Y-70572592D01*
X139873741Y-70480237D01*
X139989315Y-70404084D01*
X140074579Y-70349385D01*
X140121544Y-70321393D01*
X140126004Y-70319317D01*
X140160134Y-70328560D01*
X140223881Y-70373156D01*
X140319731Y-70455209D01*
X140450169Y-70576821D01*
X140583328Y-70706205D01*
X140711694Y-70833702D01*
X140826581Y-70950046D01*
X140921073Y-71048052D01*
X140988253Y-71120536D01*
X141021206Y-71160313D01*
X141022432Y-71162361D01*
X141026074Y-71189656D01*
X141012350Y-71234234D01*
X140977869Y-71302112D01*
X140919239Y-71399311D01*
X140833070Y-71531851D01*
X140718200Y-71702476D01*
X140616254Y-71852655D01*
X140525123Y-71987350D01*
X140450073Y-72098740D01*
X140396369Y-72179005D01*
X140369280Y-72220325D01*
X140367574Y-72223130D01*
X140370882Y-72262721D01*
X140395953Y-72339669D01*
X140437798Y-72439432D01*
X140452712Y-72471291D01*
X140517786Y-72613226D01*
X140587212Y-72774273D01*
X140643609Y-72913621D01*
X140684247Y-73017044D01*
X140716526Y-73095642D01*
X140735178Y-73136720D01*
X140737497Y-73139885D01*
X140771803Y-73145128D01*
X140852669Y-73159494D01*
X140969343Y-73180937D01*
X141111075Y-73207413D01*
X141267110Y-73236877D01*
X141426698Y-73267283D01*
X141579085Y-73296588D01*
X141713521Y-73322745D01*
X141819252Y-73343710D01*
X141885526Y-73357439D01*
X141901782Y-73361320D01*
X141918573Y-73370900D01*
X141931249Y-73392536D01*
X141940378Y-73433531D01*
X141946531Y-73501189D01*
X141950280Y-73602812D01*
X141952192Y-73745703D01*
X141952840Y-73937165D01*
X141952874Y-74015645D01*
X141952874Y-74653906D01*
X141799598Y-74684160D01*
X141714322Y-74700564D01*
X141587070Y-74724509D01*
X141433315Y-74753107D01*
X141268534Y-74783467D01*
X141222989Y-74791806D01*
X141070932Y-74821370D01*
X140938468Y-74850442D01*
X140836714Y-74876329D01*
X140776788Y-74896337D01*
X140766805Y-74902301D01*
X140742293Y-74944534D01*
X140707148Y-75026370D01*
X140668173Y-75131683D01*
X140660442Y-75154368D01*
X140609360Y-75295018D01*
X140545954Y-75453714D01*
X140483904Y-75596225D01*
X140483598Y-75596886D01*
X140380267Y-75820440D01*
X141059961Y-76820232D01*
X140623621Y-77257300D01*
X140491649Y-77387381D01*
X140371279Y-77502048D01*
X140269273Y-77595181D01*
X140192391Y-77660658D01*
X140147393Y-77692357D01*
X140140938Y-77694368D01*
X140103040Y-77678529D01*
X140025708Y-77634496D01*
X139917389Y-77567490D01*
X139786532Y-77482734D01*
X139645052Y-77387816D01*
X139501461Y-77290998D01*
X139373435Y-77206751D01*
X139269105Y-77140258D01*
X139196600Y-77096702D01*
X139164158Y-77081264D01*
X139124576Y-77094328D01*
X139049519Y-77128750D01*
X138954468Y-77177380D01*
X138944392Y-77182785D01*
X138816391Y-77246980D01*
X138728618Y-77278463D01*
X138674028Y-77278798D01*
X138645575Y-77249548D01*
X138645410Y-77249138D01*
X138631188Y-77214498D01*
X138597269Y-77132269D01*
X138546284Y-77008814D01*
X138480862Y-76850498D01*
X138403634Y-76663686D01*
X138317229Y-76454742D01*
X138233551Y-76252446D01*
X138141588Y-76029200D01*
X138057150Y-75822392D01*
X137982769Y-75638362D01*
X137920974Y-75483451D01*
X137874297Y-75363996D01*
X137845268Y-75286339D01*
X137836322Y-75257356D01*
X137858756Y-75224110D01*
X137917439Y-75171123D01*
X137995689Y-75112704D01*
X138218534Y-74927952D01*
X138392718Y-74716182D01*
X138516154Y-74481856D01*
X138586754Y-74229434D01*
X138602431Y-73963377D01*
X138591036Y-73840575D01*
X138528950Y-73585793D01*
X138422023Y-73360801D01*
X138276889Y-73167817D01*
X138100178Y-73009061D01*
X137898522Y-72886750D01*
X137678554Y-72803105D01*
X137446906Y-72760344D01*
X137210209Y-72760687D01*
X136975095Y-72806352D01*
X136748196Y-72899559D01*
X136536144Y-73042527D01*
X136447636Y-73123383D01*
X136277889Y-73331007D01*
X136159699Y-73557895D01*
X136092278Y-73797433D01*
X136074840Y-74043007D01*
X136106598Y-74288003D01*
X136186765Y-74525808D01*
X136314555Y-74749807D01*
X136489180Y-74953387D01*
X136684312Y-75112704D01*
X136765591Y-75173602D01*
X136823009Y-75226015D01*
X136843678Y-75257406D01*
X136832856Y-75291639D01*
X136802077Y-75373419D01*
X136753874Y-75496407D01*
X136690778Y-75654263D01*
X136615322Y-75840649D01*
X136530038Y-76049226D01*
X136446219Y-76252496D01*
X136353745Y-76475933D01*
X136268089Y-76682984D01*
X136191882Y-76867286D01*
X136127753Y-77022475D01*
X136078332Y-77142188D01*
X136046248Y-77220061D01*
X136034359Y-77249138D01*
X136006274Y-77278677D01*
X135951949Y-77278591D01*
X135864395Y-77247326D01*
X135736619Y-77183329D01*
X135735608Y-77182785D01*
X135639402Y-77133121D01*
X135561631Y-77096945D01*
X135517777Y-77081408D01*
X135515842Y-77081264D01*
X135482829Y-77097024D01*
X135409946Y-77140850D01*
X135305322Y-77207557D01*
X135177090Y-77291964D01*
X135034948Y-77387816D01*
X134890233Y-77484867D01*
X134759804Y-77569270D01*
X134652110Y-77635801D01*
X134575598Y-77679238D01*
X134539062Y-77694368D01*
X134505418Y-77674482D01*
X134437776Y-77618903D01*
X134342893Y-77533754D01*
X134227530Y-77425153D01*
X134098445Y-77299221D01*
X134056229Y-77257149D01*
X133619739Y-76819931D01*
X133951977Y-76332340D01*
X134052946Y-76182605D01*
X134141562Y-76048220D01*
X134212854Y-75936969D01*
X134261850Y-75856639D01*
X134283578Y-75815014D01*
X134284215Y-75812053D01*
X134272760Y-75772818D01*
X134241949Y-75693895D01*
X134197116Y-75588509D01*
X134165647Y-75517954D01*
X134106808Y-75382876D01*
X134051396Y-75246409D01*
X134008436Y-75131103D01*
X133996766Y-75095977D01*
X133963611Y-75002174D01*
X133931201Y-74929694D01*
X133913399Y-74902301D01*
X133874114Y-74885536D01*
X133788374Y-74861770D01*
X133667303Y-74833697D01*
X133522027Y-74804009D01*
X133457012Y-74791806D01*
X133291913Y-74761468D01*
X133133552Y-74732093D01*
X132997404Y-74706569D01*
X132898943Y-74687785D01*
X132880402Y-74684160D01*
X132727127Y-74653906D01*
X132727127Y-74015645D01*
X132727471Y-73805770D01*
X132728884Y-73646980D01*
X132731936Y-73531973D01*
X132737197Y-73453446D01*
X132745237Y-73404096D01*
X132756627Y-73376619D01*
X132771937Y-73363713D01*
X132778218Y-73361320D01*
X132816104Y-73352833D01*
X132899805Y-73335900D01*
X133018567Y-73312566D01*
X133161639Y-73284875D01*
X133318268Y-73254873D01*
X133477703Y-73224604D01*
X133629191Y-73196115D01*
X133761981Y-73171449D01*
X133865319Y-73152651D01*
X133928455Y-73141767D01*
X133942503Y-73139885D01*
X133955230Y-73114704D01*
X133983400Y-73047622D01*
X134021748Y-72951333D01*
X134036391Y-72913621D01*
X134095452Y-72767921D01*
X134165000Y-72606951D01*
X134227288Y-72471291D01*
X134273121Y-72367561D01*
X134303613Y-72282326D01*
X134313792Y-72230126D01*
X134312169Y-72223130D01*
X134290657Y-72190102D01*
X134241535Y-72116643D01*
X134170077Y-72010577D01*
X134081555Y-71879726D01*
X133981241Y-71731912D01*
X133961406Y-71702734D01*
X133845012Y-71529863D01*
X133759452Y-71398226D01*
X133701316Y-71301761D01*
X133667192Y-71234408D01*
X133653669Y-71190106D01*
X133657336Y-71162794D01*
X133657430Y-71162620D01*
X133686293Y-71126746D01*
X133750133Y-71057391D01*
X133842031Y-70961745D01*
X133955067Y-70846999D01*
X134082321Y-70720341D01*
X134096672Y-70706205D01*
X134257043Y-70550903D01*
X134380805Y-70436870D01*
X134470445Y-70362002D01*
X134528448Y-70324196D01*
X134553996Y-70319317D01*
X134591282Y-70340603D01*
X134668657Y-70389773D01*
X134778133Y-70461575D01*
X134911720Y-70550755D01*
X135061430Y-70652063D01*
X135096382Y-70675897D01*
X135592610Y-71014765D01*
X135816707Y-70913056D01*
X135952989Y-70853783D01*
X136099276Y-70794170D01*
X136225035Y-70746640D01*
X136230575Y-70744685D01*
X136328943Y-70708677D01*
X136404771Y-70678229D01*
X136441718Y-70659905D01*
X136441780Y-70659852D01*
X136453504Y-70626729D01*
X136473432Y-70545267D01*
X136499587Y-70424625D01*
X136529990Y-70273959D01*
X136562663Y-70102428D01*
X136565336Y-70087967D01*
X136598110Y-69911235D01*
X136628198Y-69750810D01*
X136653661Y-69616888D01*
X136672559Y-69519663D01*
X136682953Y-69469332D01*
X136683135Y-69468563D01*
X136689461Y-69447153D01*
X136701761Y-69430988D01*
X136727406Y-69419331D01*
X136773765Y-69411445D01*
X136848208Y-69406593D01*
X136958105Y-69404039D01*
X137110825Y-69403045D01*
X137313738Y-69402874D01*
X137340000Y-69402874D01*
X137549014Y-69402998D01*
G37*
D11*
%TO.C,C3*%
X172619420Y-107280000D02*
X172900580Y-107280000D01*
X172619420Y-108300000D02*
X172900580Y-108300000D01*
%TO.C,C6*%
X169150000Y-104045580D02*
X169150000Y-103764420D01*
X170170000Y-104045580D02*
X170170000Y-103764420D01*
%TO.C,C8*%
X178069419Y-108205001D02*
X178350579Y-108205001D01*
X178069419Y-109225001D02*
X178350579Y-109225001D01*
%TO.C,C5*%
X170750000Y-100045580D02*
X170750000Y-99764420D01*
X171770000Y-100045580D02*
X171770000Y-99764420D01*
%TO.C,L3*%
X183835000Y-85305000D02*
X183835000Y-83835000D01*
X183835000Y-83835000D02*
X181550000Y-83835000D01*
X181550000Y-85305000D02*
X183835000Y-85305000D01*
D15*
%TO.C,U1*%
X168604300Y-107234300D02*
X168604300Y-107563909D01*
X168604300Y-109216091D02*
X168604300Y-109545700D01*
X168604300Y-109545700D02*
X169183972Y-109545700D01*
X169183972Y-107234300D02*
X168604300Y-107234300D01*
X170336028Y-109545700D02*
X170915700Y-109545700D01*
X170915700Y-107234300D02*
X170336028Y-107234300D01*
X170915700Y-107563909D02*
X170915700Y-107234300D01*
X170915700Y-109545700D02*
X170915700Y-109216091D01*
G36*
X170960000Y-107094000D02*
G01*
X170579000Y-107094000D01*
X170579000Y-106840000D01*
X170960000Y-106840000D01*
X170960000Y-107094000D01*
G37*
D11*
%TO.C,L1*%
X183815000Y-88715000D02*
X183815000Y-87245000D01*
X183815000Y-87245000D02*
X181530000Y-87245000D01*
X181530000Y-88715000D02*
X183815000Y-88715000D01*
%TO.C,R3*%
X178742742Y-84027500D02*
X179217258Y-84027500D01*
X178742742Y-85072500D02*
X179217258Y-85072500D01*
%TO.C,C2*%
X166619420Y-107280000D02*
X166900580Y-107280000D01*
X166619420Y-108300000D02*
X166900580Y-108300000D01*
%TO.C,L2*%
X183835000Y-87005000D02*
X183835000Y-85535000D01*
X183835000Y-85535000D02*
X181550000Y-85535000D01*
X181550000Y-87005000D02*
X183835000Y-87005000D01*
D12*
%TO.C,U2*%
X164080000Y-68600000D02*
X164080000Y-71480000D01*
X161200000Y-68600000D02*
X164080000Y-68600000D01*
X148580000Y-68600000D02*
X151460000Y-68600000D01*
X148580000Y-71480000D02*
X148580000Y-68600000D01*
X164080000Y-81220000D02*
X164080000Y-84100000D01*
X164080000Y-84100000D02*
X161200000Y-84100000D01*
X148580000Y-84100000D02*
X148580000Y-81220000D01*
X148580000Y-84100000D02*
X151460000Y-84100000D01*
D13*
X160230000Y-67850000D02*
G75*
G03*
X160230000Y-67850000I-100000J0D01*
G01*
D11*
%TO.C,C4*%
X172650000Y-100045580D02*
X172650000Y-99764420D01*
X173670000Y-100045580D02*
X173670000Y-99764420D01*
D15*
%TO.C,U4*%
X175930399Y-107394601D02*
X179689599Y-107394601D01*
X179689599Y-107394601D02*
X179689599Y-103635401D01*
X175930399Y-103635401D02*
X175930399Y-107394601D01*
X179689599Y-103635401D02*
X175930399Y-103635401D01*
D16*
X176709999Y-107765001D02*
G75*
G03*
X176709999Y-107765001I-100000J0D01*
G01*
G36*
X178250499Y-103757402D02*
G01*
X177869498Y-103757402D01*
X177869498Y-103503402D01*
X178250499Y-103503402D01*
X178250499Y-103757402D01*
G37*
%TD*%
M02*
