%TF.GenerationSoftware,KiCad,Pcbnew,7.0.5*%
%TF.CreationDate,2023-12-18T11:55:03-06:00*%
%TF.ProjectId,peakick,7065616b-6963-46b2-9e6b-696361645f70,rev?*%
%TF.SameCoordinates,Original*%
%TF.FileFunction,Soldermask,Top*%
%TF.FilePolarity,Negative*%
%FSLAX46Y46*%
G04 Gerber Fmt 4.6, Leading zero omitted, Abs format (unit mm)*
G04 Created by KiCad (PCBNEW 7.0.5) date 2023-12-18 11:55:03*
%MOMM*%
%LPD*%
G01*
G04 APERTURE LIST*
G04 Aperture macros list*
%AMRoundRect*
0 Rectangle with rounded corners*
0 $1 Rounding radius*
0 $2 $3 $4 $5 $6 $7 $8 $9 X,Y pos of 4 corners*
0 Add a 4 corners polygon primitive as box body*
4,1,4,$2,$3,$4,$5,$6,$7,$8,$9,$2,$3,0*
0 Add four circle primitives for the rounded corners*
1,1,$1+$1,$2,$3*
1,1,$1+$1,$4,$5*
1,1,$1+$1,$6,$7*
1,1,$1+$1,$8,$9*
0 Add four rect primitives between the rounded corners*
20,1,$1+$1,$2,$3,$4,$5,0*
20,1,$1+$1,$4,$5,$6,$7,0*
20,1,$1+$1,$6,$7,$8,$9,0*
20,1,$1+$1,$8,$9,$2,$3,0*%
G04 Aperture macros list end*
%ADD10C,0.100000*%
%ADD11C,0.010000*%
%ADD12RoundRect,0.419100X0.000000X0.000000X0.000000X0.000000X0.000000X0.000000X0.000000X0.000000X0*%
%ADD13RoundRect,0.225000X-0.225000X-0.250000X0.225000X-0.250000X0.225000X0.250000X-0.225000X0.250000X0*%
%ADD14RoundRect,0.200000X-0.200000X-0.275000X0.200000X-0.275000X0.200000X0.275000X-0.200000X0.275000X0*%
%ADD15C,3.048000*%
%ADD16RoundRect,0.250000X-0.250000X-0.475000X0.250000X-0.475000X0.250000X0.475000X-0.250000X0.475000X0*%
%ADD17RoundRect,0.101600X0.635000X0.635000X-0.635000X0.635000X-0.635000X-0.635000X0.635000X-0.635000X0*%
%ADD18RoundRect,0.225000X0.250000X-0.225000X0.250000X0.225000X-0.250000X0.225000X-0.250000X-0.225000X0*%
%ADD19RoundRect,0.218750X0.218750X0.256250X-0.218750X0.256250X-0.218750X-0.256250X0.218750X-0.256250X0*%
%ADD20R,0.254000X0.279400*%
%ADD21R,0.279400X0.254000*%
%ADD22R,0.304800X0.457200*%
%ADD23R,0.457200X0.304800*%
%ADD24C,1.200000*%
%ADD25C,1.070000*%
%ADD26C,1.400000*%
G04 APERTURE END LIST*
%TO.C,U3*%
D10*
X173635000Y-104230000D02*
X170885000Y-104230000D01*
X170885000Y-101980000D01*
X173635000Y-101980000D01*
X173635000Y-104230000D01*
G36*
X173635000Y-104230000D02*
G01*
X170885000Y-104230000D01*
X170885000Y-101980000D01*
X173635000Y-101980000D01*
X173635000Y-104230000D01*
G37*
%TO.C,U2*%
D11*
X160880000Y-70650000D02*
X159380000Y-70650000D01*
X159380000Y-68850000D01*
X160880000Y-68850000D01*
X160880000Y-70650000D01*
G36*
X160880000Y-70650000D02*
G01*
X159380000Y-70650000D01*
X159380000Y-68850000D01*
X160880000Y-68850000D01*
X160880000Y-70650000D01*
G37*
X158980000Y-70650000D02*
X157480000Y-70650000D01*
X157480000Y-68850000D01*
X158980000Y-68850000D01*
X158980000Y-70650000D01*
G36*
X158980000Y-70650000D02*
G01*
X157480000Y-70650000D01*
X157480000Y-68850000D01*
X158980000Y-68850000D01*
X158980000Y-70650000D01*
G37*
X157080000Y-70650000D02*
X155580000Y-70650000D01*
X155580000Y-68850000D01*
X157080000Y-68850000D01*
X157080000Y-70650000D01*
G36*
X157080000Y-70650000D02*
G01*
X155580000Y-70650000D01*
X155580000Y-68850000D01*
X157080000Y-68850000D01*
X157080000Y-70650000D01*
G37*
X155180000Y-70650000D02*
X153680000Y-70650000D01*
X153680000Y-68850000D01*
X155180000Y-68850000D01*
X155180000Y-70650000D01*
G36*
X155180000Y-70650000D02*
G01*
X153680000Y-70650000D01*
X153680000Y-68850000D01*
X155180000Y-68850000D01*
X155180000Y-70650000D01*
G37*
X153280000Y-70650000D02*
X151780000Y-70650000D01*
X151780000Y-68850000D01*
X153280000Y-68850000D01*
X153280000Y-70650000D01*
G36*
X153280000Y-70650000D02*
G01*
X151780000Y-70650000D01*
X151780000Y-68850000D01*
X153280000Y-68850000D01*
X153280000Y-70650000D01*
G37*
X163830000Y-73300000D02*
X162030000Y-73300000D01*
X162030000Y-71800000D01*
X163830000Y-71800000D01*
X163830000Y-73300000D01*
G36*
X163830000Y-73300000D02*
G01*
X162030000Y-73300000D01*
X162030000Y-71800000D01*
X163830000Y-71800000D01*
X163830000Y-73300000D01*
G37*
X150630000Y-73300000D02*
X148830000Y-73300000D01*
X148830000Y-71800000D01*
X150630000Y-71800000D01*
X150630000Y-73300000D01*
G36*
X150630000Y-73300000D02*
G01*
X148830000Y-73300000D01*
X148830000Y-71800000D01*
X150630000Y-71800000D01*
X150630000Y-73300000D01*
G37*
X163830000Y-75200000D02*
X162030000Y-75200000D01*
X162030000Y-73700000D01*
X163830000Y-73700000D01*
X163830000Y-75200000D01*
G36*
X163830000Y-75200000D02*
G01*
X162030000Y-75200000D01*
X162030000Y-73700000D01*
X163830000Y-73700000D01*
X163830000Y-75200000D01*
G37*
X150630000Y-75200000D02*
X148830000Y-75200000D01*
X148830000Y-73700000D01*
X150630000Y-73700000D01*
X150630000Y-75200000D01*
G36*
X150630000Y-75200000D02*
G01*
X148830000Y-75200000D01*
X148830000Y-73700000D01*
X150630000Y-73700000D01*
X150630000Y-75200000D01*
G37*
X163830000Y-77100000D02*
X162030000Y-77100000D01*
X162030000Y-75600000D01*
X163830000Y-75600000D01*
X163830000Y-77100000D01*
G36*
X163830000Y-77100000D02*
G01*
X162030000Y-77100000D01*
X162030000Y-75600000D01*
X163830000Y-75600000D01*
X163830000Y-77100000D01*
G37*
X150630000Y-77100000D02*
X148830000Y-77100000D01*
X148830000Y-75600000D01*
X150630000Y-75600000D01*
X150630000Y-77100000D01*
G36*
X150630000Y-77100000D02*
G01*
X148830000Y-77100000D01*
X148830000Y-75600000D01*
X150630000Y-75600000D01*
X150630000Y-77100000D01*
G37*
X163830000Y-79000000D02*
X162030000Y-79000000D01*
X162030000Y-77500000D01*
X163830000Y-77500000D01*
X163830000Y-79000000D01*
G36*
X163830000Y-79000000D02*
G01*
X162030000Y-79000000D01*
X162030000Y-77500000D01*
X163830000Y-77500000D01*
X163830000Y-79000000D01*
G37*
X150630000Y-79000000D02*
X148830000Y-79000000D01*
X148830000Y-77500000D01*
X150630000Y-77500000D01*
X150630000Y-79000000D01*
G36*
X150630000Y-79000000D02*
G01*
X148830000Y-79000000D01*
X148830000Y-77500000D01*
X150630000Y-77500000D01*
X150630000Y-79000000D01*
G37*
X163830000Y-80900000D02*
X162030000Y-80900000D01*
X162030000Y-79400000D01*
X163830000Y-79400000D01*
X163830000Y-80900000D01*
G36*
X163830000Y-80900000D02*
G01*
X162030000Y-80900000D01*
X162030000Y-79400000D01*
X163830000Y-79400000D01*
X163830000Y-80900000D01*
G37*
X150630000Y-80900000D02*
X148830000Y-80900000D01*
X148830000Y-79400000D01*
X150630000Y-79400000D01*
X150630000Y-80900000D01*
G36*
X150630000Y-80900000D02*
G01*
X148830000Y-80900000D01*
X148830000Y-79400000D01*
X150630000Y-79400000D01*
X150630000Y-80900000D01*
G37*
X160880000Y-83850000D02*
X159380000Y-83850000D01*
X159380000Y-82050000D01*
X160880000Y-82050000D01*
X160880000Y-83850000D01*
G36*
X160880000Y-83850000D02*
G01*
X159380000Y-83850000D01*
X159380000Y-82050000D01*
X160880000Y-82050000D01*
X160880000Y-83850000D01*
G37*
X158980000Y-83850000D02*
X157480000Y-83850000D01*
X157480000Y-82050000D01*
X158980000Y-82050000D01*
X158980000Y-83850000D01*
G36*
X158980000Y-83850000D02*
G01*
X157480000Y-83850000D01*
X157480000Y-82050000D01*
X158980000Y-82050000D01*
X158980000Y-83850000D01*
G37*
X157080000Y-83850000D02*
X155580000Y-83850000D01*
X155580000Y-82050000D01*
X157080000Y-82050000D01*
X157080000Y-83850000D01*
G36*
X157080000Y-83850000D02*
G01*
X155580000Y-83850000D01*
X155580000Y-82050000D01*
X157080000Y-82050000D01*
X157080000Y-83850000D01*
G37*
X155180000Y-83850000D02*
X153680000Y-83850000D01*
X153680000Y-82050000D01*
X155180000Y-82050000D01*
X155180000Y-83850000D01*
G36*
X155180000Y-83850000D02*
G01*
X153680000Y-83850000D01*
X153680000Y-82050000D01*
X155180000Y-82050000D01*
X155180000Y-83850000D01*
G37*
X153280000Y-83850000D02*
X151780000Y-83850000D01*
X151780000Y-82050000D01*
X153280000Y-82050000D01*
X153280000Y-83850000D01*
G36*
X153280000Y-83850000D02*
G01*
X151780000Y-83850000D01*
X151780000Y-82050000D01*
X153280000Y-82050000D01*
X153280000Y-83850000D01*
G37*
%TD*%
D12*
%TO.C,FD1*%
X137530000Y-114750000D03*
%TD*%
D13*
%TO.C,C7*%
X177834999Y-102315001D03*
X179384999Y-102315001D03*
%TD*%
D14*
%TO.C,R2*%
X178095000Y-86280000D03*
X179745000Y-86280000D03*
%TD*%
D15*
%TO.C,H3*%
X128561100Y-113443600D03*
%TD*%
D12*
%TO.C,FD4*%
X181930000Y-109550000D03*
%TD*%
D14*
%TO.C,R1*%
X178045000Y-87940000D03*
X179695000Y-87940000D03*
%TD*%
D15*
%TO.C,H4*%
X128561100Y-95663600D03*
%TD*%
D16*
%TO.C,C1*%
X166080000Y-78250000D03*
X167980000Y-78250000D03*
%TD*%
D12*
%TO.C,FD3*%
X163960000Y-109390000D03*
%TD*%
D17*
%TO.C,J1*%
X178070000Y-114730000D03*
X175530000Y-114730000D03*
X172990000Y-114730000D03*
X170450000Y-114730000D03*
X167910000Y-114730000D03*
X165370000Y-114730000D03*
X162830000Y-114730000D03*
X160290000Y-114730000D03*
X157750000Y-114730000D03*
X155210000Y-114730000D03*
X152670000Y-114730000D03*
X150130000Y-114730000D03*
X147590000Y-114730000D03*
X145050000Y-114730000D03*
X142510000Y-114730000D03*
X139970000Y-114730000D03*
%TD*%
D12*
%TO.C,FD2*%
X145930000Y-67750000D03*
%TD*%
D13*
%TO.C,C3*%
X171985000Y-107790000D03*
X173535000Y-107790000D03*
%TD*%
D18*
%TO.C,C6*%
X169660000Y-104680000D03*
X169660000Y-103130000D03*
%TD*%
D13*
%TO.C,C8*%
X177434999Y-108715001D03*
X178984999Y-108715001D03*
%TD*%
D18*
%TO.C,C5*%
X171260000Y-100680000D03*
X171260000Y-99130000D03*
%TD*%
D19*
%TO.C,L3*%
X183137500Y-84570000D03*
X181562500Y-84570000D03*
%TD*%
D20*
%TO.C,U1*%
X170010063Y-107640700D03*
X169509937Y-107640700D03*
D21*
X169010700Y-107889874D03*
X169010700Y-108390000D03*
X169010700Y-108890126D03*
D20*
X169509937Y-109139300D03*
X170010063Y-109139300D03*
D21*
X170509300Y-108890126D03*
X170509300Y-108390000D03*
X170509300Y-107889874D03*
%TD*%
D19*
%TO.C,L1*%
X183117500Y-87980000D03*
X181542500Y-87980000D03*
%TD*%
D14*
%TO.C,R3*%
X178155000Y-84550000D03*
X179805000Y-84550000D03*
%TD*%
D15*
%TO.C,H2*%
X181901100Y-113443600D03*
%TD*%
%TO.C,H1*%
X181901100Y-95663600D03*
%TD*%
D13*
%TO.C,C2*%
X165985000Y-107790000D03*
X167535000Y-107790000D03*
%TD*%
D19*
%TO.C,L2*%
X183137500Y-86270000D03*
X181562500Y-86270000D03*
%TD*%
D17*
%TO.C,J3*%
X178060000Y-94360000D03*
X175520000Y-94360000D03*
X172980000Y-94360000D03*
X170440000Y-94360000D03*
X167900000Y-94360000D03*
X165360000Y-94360000D03*
X162820000Y-94360000D03*
X160280000Y-94360000D03*
X157740000Y-94360000D03*
X155200000Y-94360000D03*
X152660000Y-94360000D03*
X150120000Y-94360000D03*
%TD*%
D18*
%TO.C,C4*%
X173160000Y-100680000D03*
X173160000Y-99130000D03*
%TD*%
D22*
%TO.C,U4*%
X177059998Y-106790000D03*
X177559999Y-106790000D03*
X178059999Y-106790000D03*
X178560000Y-106790000D03*
D23*
X179084998Y-106265002D03*
X179084998Y-105765001D03*
X179084998Y-105265001D03*
X179084998Y-104765000D03*
D22*
X178560000Y-104240002D03*
X178059999Y-104240002D03*
X177559999Y-104240002D03*
X177059998Y-104240002D03*
D23*
X176535000Y-104765000D03*
X176535000Y-105265001D03*
X176535000Y-105765001D03*
X176535000Y-106265002D03*
%TD*%
D24*
%TO.C,SW1*%
X182100000Y-82850000D03*
X182100000Y-89650000D03*
%TD*%
D25*
%TO.C,B1*%
X144975000Y-104450000D03*
D26*
X137475000Y-104450000D03*
%TD*%
M02*
