M48
INCH,TZ
T1C0.0118
T2C0.0400
%
G90
G05
T1
X57886Y-31594
X58240Y-30807
X58280Y-28563
X58949Y-32146
X59421Y-27461
X59461Y-32657
X59618Y-28563
X59618Y-31555
X60051Y-26752
X60051Y-28169
X60051Y-31988
X60051Y-33327
X60799Y-26791
X60799Y-28169
X60799Y-33327
X60996Y-36240
X61535Y-26929
X62295Y-26870
X63043Y-26791
X63043Y-31988
X63043Y-33327
X63476Y-31516
X63634Y-32657
X63673Y-27461
X64146Y-27972
X64146Y-32146
X64602Y-36783
X64854Y-28563
X65265Y-41302
X65366Y-31437
X65537Y-36413
X65890Y-42043
X65969Y-43106
X66114Y-30138
X66114Y-31476
X66236Y-40000
X66291Y-35531
X66291Y-36071
X66331Y-40748
X66913Y-39839
X66937Y-43287
X67543Y-41491
X68016Y-41689
X68173Y-42083
X68260Y-40024
X68331Y-42988
X68720Y-41591
X68748Y-36634
X68890Y-39634
X68921Y-41190
X69531Y-42555
X69701Y-35299
T2
X55106Y-45169
X56106Y-45169
X57106Y-45169
X58106Y-45169
X59102Y-37150
X59106Y-45169
X60102Y-37150
X60106Y-45169
X61102Y-37150
X61106Y-45169
X62102Y-37150
X62106Y-45169
X63102Y-37150
X63106Y-45169
X64102Y-37150
X64106Y-45169
X65102Y-37150
X65106Y-45169
X66102Y-37150
X66106Y-45169
X67102Y-37150
X67106Y-45169
X68102Y-37150
X68106Y-45169
X69102Y-37150
X69106Y-45169
X70102Y-37150
X70106Y-45169
T0
M30
