%TF.GenerationSoftware,KiCad,Pcbnew,7.0.5*%
%TF.CreationDate,2023-12-18T11:55:03-06:00*%
%TF.ProjectId,peakick,7065616b-6963-46b2-9e6b-696361645f70,rev?*%
%TF.SameCoordinates,Original*%
%TF.FileFunction,Soldermask,Bot*%
%TF.FilePolarity,Negative*%
%FSLAX46Y46*%
G04 Gerber Fmt 4.6, Leading zero omitted, Abs format (unit mm)*
G04 Created by KiCad (PCBNEW 7.0.5) date 2023-12-18 11:55:03*
%MOMM*%
%LPD*%
G01*
G04 APERTURE LIST*
G04 Aperture macros list*
%AMRoundRect*
0 Rectangle with rounded corners*
0 $1 Rounding radius*
0 $2 $3 $4 $5 $6 $7 $8 $9 X,Y pos of 4 corners*
0 Add a 4 corners polygon primitive as box body*
4,1,4,$2,$3,$4,$5,$6,$7,$8,$9,$2,$3,0*
0 Add four circle primitives for the rounded corners*
1,1,$1+$1,$2,$3*
1,1,$1+$1,$4,$5*
1,1,$1+$1,$6,$7*
1,1,$1+$1,$8,$9*
0 Add four rect primitives between the rounded corners*
20,1,$1+$1,$2,$3,$4,$5,0*
20,1,$1+$1,$4,$5,$6,$7,0*
20,1,$1+$1,$6,$7,$8,$9,0*
20,1,$1+$1,$8,$9,$2,$3,0*%
G04 Aperture macros list end*
%ADD10C,3.048000*%
%ADD11RoundRect,0.101600X0.635000X0.635000X-0.635000X0.635000X-0.635000X-0.635000X0.635000X-0.635000X0*%
%ADD12RoundRect,0.200000X0.200000X0.275000X-0.200000X0.275000X-0.200000X-0.275000X0.200000X-0.275000X0*%
%ADD13C,1.200000*%
%ADD14RoundRect,0.300000X-0.950000X0.300000X-0.950000X-0.300000X0.950000X-0.300000X0.950000X0.300000X0*%
%ADD15C,1.070000*%
%ADD16C,1.400000*%
%ADD17RoundRect,0.050800X2.000000X1.300000X-2.000000X1.300000X-2.000000X-1.300000X2.000000X-1.300000X0*%
%ADD18RoundRect,0.050800X-0.500000X-2.300000X0.500000X-2.300000X0.500000X2.300000X-0.500000X2.300000X0*%
%ADD19RoundRect,0.050800X-0.800000X1.700000X-0.800000X-1.700000X0.800000X-1.700000X0.800000X1.700000X0*%
%ADD20RoundRect,0.101600X0.300000X0.675000X-0.300000X0.675000X-0.300000X-0.675000X0.300000X-0.675000X0*%
%ADD21RoundRect,0.101600X0.600000X1.000000X-0.600000X1.000000X-0.600000X-1.000000X0.600000X-1.000000X0*%
G04 APERTURE END LIST*
D10*
%TO.C,H3*%
X128561100Y-113443600D03*
%TD*%
%TO.C,H4*%
X128561100Y-95663600D03*
%TD*%
D11*
%TO.C,J1*%
X178070000Y-114730000D03*
X175530000Y-114730000D03*
X172990000Y-114730000D03*
X170450000Y-114730000D03*
X167910000Y-114730000D03*
X165370000Y-114730000D03*
X162830000Y-114730000D03*
X160290000Y-114730000D03*
X157750000Y-114730000D03*
X155210000Y-114730000D03*
X152670000Y-114730000D03*
X150130000Y-114730000D03*
X147590000Y-114730000D03*
X145050000Y-114730000D03*
X142510000Y-114730000D03*
X139970000Y-114730000D03*
%TD*%
D10*
%TO.C,H2*%
X181901100Y-113443600D03*
%TD*%
%TO.C,H1*%
X181901100Y-95663600D03*
%TD*%
D11*
%TO.C,J3*%
X178060000Y-94360000D03*
X175520000Y-94360000D03*
X172980000Y-94360000D03*
X170440000Y-94360000D03*
X167900000Y-94360000D03*
X165360000Y-94360000D03*
X162820000Y-94360000D03*
X160280000Y-94360000D03*
X157740000Y-94360000D03*
X155200000Y-94360000D03*
X152660000Y-94360000D03*
X150120000Y-94360000D03*
%TD*%
D12*
%TO.C,R4*%
X178545000Y-96680000D03*
X176895000Y-96680000D03*
%TD*%
D13*
%TO.C,SW1*%
X182100000Y-82850000D03*
X182100000Y-89650000D03*
D14*
X179300000Y-83750000D03*
X179300000Y-86250000D03*
X179300000Y-88750000D03*
%TD*%
D15*
%TO.C,B1*%
X144975000Y-104450000D03*
D16*
X137475000Y-104450000D03*
D17*
X133065000Y-104450000D03*
X149245000Y-104420000D03*
%TD*%
D12*
%TO.C,R5*%
X175355000Y-96660000D03*
X173705000Y-96660000D03*
%TD*%
D18*
%TO.C,X1*%
X180220000Y-79100000D03*
X178220000Y-79100000D03*
D19*
X182620000Y-73900000D03*
X175820000Y-73900000D03*
%TD*%
D20*
%TO.C,J2*%
X179060000Y-98746700D03*
X178060000Y-98746700D03*
X177060000Y-98746700D03*
X176060000Y-98746700D03*
D21*
X174760000Y-102421700D03*
X180360000Y-102421700D03*
%TD*%
M02*
