%TF.GenerationSoftware,KiCad,Pcbnew,7.0.5*%
%TF.CreationDate,2023-12-18T11:55:02-06:00*%
%TF.ProjectId,peakick,7065616b-6963-46b2-9e6b-696361645f70,rev?*%
%TF.SameCoordinates,Original*%
%TF.FileFunction,Paste,Top*%
%TF.FilePolarity,Positive*%
%FSLAX46Y46*%
G04 Gerber Fmt 4.6, Leading zero omitted, Abs format (unit mm)*
G04 Created by KiCad (PCBNEW 7.0.5) date 2023-12-18 11:55:02*
%MOMM*%
%LPD*%
G01*
G04 APERTURE LIST*
G04 Aperture macros list*
%AMRoundRect*
0 Rectangle with rounded corners*
0 $1 Rounding radius*
0 $2 $3 $4 $5 $6 $7 $8 $9 X,Y pos of 4 corners*
0 Add a 4 corners polygon primitive as box body*
4,1,4,$2,$3,$4,$5,$6,$7,$8,$9,$2,$3,0*
0 Add four circle primitives for the rounded corners*
1,1,$1+$1,$2,$3*
1,1,$1+$1,$4,$5*
1,1,$1+$1,$6,$7*
1,1,$1+$1,$8,$9*
0 Add four rect primitives between the rounded corners*
20,1,$1+$1,$2,$3,$4,$5,0*
20,1,$1+$1,$4,$5,$6,$7,0*
20,1,$1+$1,$6,$7,$8,$9,0*
20,1,$1+$1,$8,$9,$2,$3,0*%
G04 Aperture macros list end*
%ADD10C,0.010000*%
%ADD11RoundRect,0.135000X-0.225000X-0.245000X0.225000X-0.245000X0.225000X0.245000X-0.225000X0.245000X0*%
%ADD12RoundRect,0.120000X-0.200000X-0.260000X0.200000X-0.260000X0.200000X0.260000X-0.200000X0.260000X0*%
%ADD13RoundRect,0.150000X-0.250000X-0.430000X0.250000X-0.430000X0.250000X0.430000X-0.250000X0.430000X0*%
%ADD14RoundRect,0.025830X0.237670X0.117670X-0.237670X0.117670X-0.237670X-0.117670X0.237670X-0.117670X0*%
%ADD15RoundRect,0.025830X-0.117670X0.237670X-0.117670X-0.237670X0.117670X-0.237670X0.117670X0.237670X0*%
%ADD16RoundRect,0.135000X0.245000X-0.225000X0.245000X0.225000X-0.245000X0.225000X-0.245000X-0.225000X0*%
%ADD17RoundRect,0.131250X0.218750X0.248750X-0.218750X0.248750X-0.218750X-0.248750X0.218750X-0.248750X0*%
%ADD18R,0.203200X0.223520*%
%ADD19R,0.223520X0.203200*%
%ADD20R,0.243840X0.365760*%
%ADD21R,0.365760X0.243840*%
G04 APERTURE END LIST*
%TO.C,U2*%
D10*
X160845000Y-69610000D02*
X160265000Y-69610000D01*
X160265000Y-68890000D01*
X160845000Y-68890000D01*
X160845000Y-69610000D01*
G36*
X160845000Y-69610000D02*
G01*
X160265000Y-69610000D01*
X160265000Y-68890000D01*
X160845000Y-68890000D01*
X160845000Y-69610000D01*
G37*
X159995000Y-69610000D02*
X159415000Y-69610000D01*
X159415000Y-68890000D01*
X159995000Y-68890000D01*
X159995000Y-69610000D01*
G36*
X159995000Y-69610000D02*
G01*
X159415000Y-69610000D01*
X159415000Y-68890000D01*
X159995000Y-68890000D01*
X159995000Y-69610000D01*
G37*
X158945000Y-69610000D02*
X158365000Y-69610000D01*
X158365000Y-68890000D01*
X158945000Y-68890000D01*
X158945000Y-69610000D01*
G36*
X158945000Y-69610000D02*
G01*
X158365000Y-69610000D01*
X158365000Y-68890000D01*
X158945000Y-68890000D01*
X158945000Y-69610000D01*
G37*
X158095000Y-69610000D02*
X157515000Y-69610000D01*
X157515000Y-68890000D01*
X158095000Y-68890000D01*
X158095000Y-69610000D01*
G36*
X158095000Y-69610000D02*
G01*
X157515000Y-69610000D01*
X157515000Y-68890000D01*
X158095000Y-68890000D01*
X158095000Y-69610000D01*
G37*
X157045000Y-69610000D02*
X156465000Y-69610000D01*
X156465000Y-68890000D01*
X157045000Y-68890000D01*
X157045000Y-69610000D01*
G36*
X157045000Y-69610000D02*
G01*
X156465000Y-69610000D01*
X156465000Y-68890000D01*
X157045000Y-68890000D01*
X157045000Y-69610000D01*
G37*
X156195000Y-69610000D02*
X155615000Y-69610000D01*
X155615000Y-68890000D01*
X156195000Y-68890000D01*
X156195000Y-69610000D01*
G36*
X156195000Y-69610000D02*
G01*
X155615000Y-69610000D01*
X155615000Y-68890000D01*
X156195000Y-68890000D01*
X156195000Y-69610000D01*
G37*
X155145000Y-69610000D02*
X154565000Y-69610000D01*
X154565000Y-68890000D01*
X155145000Y-68890000D01*
X155145000Y-69610000D01*
G36*
X155145000Y-69610000D02*
G01*
X154565000Y-69610000D01*
X154565000Y-68890000D01*
X155145000Y-68890000D01*
X155145000Y-69610000D01*
G37*
X154295000Y-69610000D02*
X153715000Y-69610000D01*
X153715000Y-68890000D01*
X154295000Y-68890000D01*
X154295000Y-69610000D01*
G36*
X154295000Y-69610000D02*
G01*
X153715000Y-69610000D01*
X153715000Y-68890000D01*
X154295000Y-68890000D01*
X154295000Y-69610000D01*
G37*
X153245000Y-69610000D02*
X152665000Y-69610000D01*
X152665000Y-68890000D01*
X153245000Y-68890000D01*
X153245000Y-69610000D01*
G36*
X153245000Y-69610000D02*
G01*
X152665000Y-69610000D01*
X152665000Y-68890000D01*
X153245000Y-68890000D01*
X153245000Y-69610000D01*
G37*
X152395000Y-69610000D02*
X151815000Y-69610000D01*
X151815000Y-68890000D01*
X152395000Y-68890000D01*
X152395000Y-69610000D01*
G36*
X152395000Y-69610000D02*
G01*
X151815000Y-69610000D01*
X151815000Y-68890000D01*
X152395000Y-68890000D01*
X152395000Y-69610000D01*
G37*
X160845000Y-70610000D02*
X160265000Y-70610000D01*
X160265000Y-69890000D01*
X160845000Y-69890000D01*
X160845000Y-70610000D01*
G36*
X160845000Y-70610000D02*
G01*
X160265000Y-70610000D01*
X160265000Y-69890000D01*
X160845000Y-69890000D01*
X160845000Y-70610000D01*
G37*
X159995000Y-70610000D02*
X159415000Y-70610000D01*
X159415000Y-69890000D01*
X159995000Y-69890000D01*
X159995000Y-70610000D01*
G36*
X159995000Y-70610000D02*
G01*
X159415000Y-70610000D01*
X159415000Y-69890000D01*
X159995000Y-69890000D01*
X159995000Y-70610000D01*
G37*
X158945000Y-70610000D02*
X158365000Y-70610000D01*
X158365000Y-69890000D01*
X158945000Y-69890000D01*
X158945000Y-70610000D01*
G36*
X158945000Y-70610000D02*
G01*
X158365000Y-70610000D01*
X158365000Y-69890000D01*
X158945000Y-69890000D01*
X158945000Y-70610000D01*
G37*
X158095000Y-70610000D02*
X157515000Y-70610000D01*
X157515000Y-69890000D01*
X158095000Y-69890000D01*
X158095000Y-70610000D01*
G36*
X158095000Y-70610000D02*
G01*
X157515000Y-70610000D01*
X157515000Y-69890000D01*
X158095000Y-69890000D01*
X158095000Y-70610000D01*
G37*
X157045000Y-70610000D02*
X156465000Y-70610000D01*
X156465000Y-69890000D01*
X157045000Y-69890000D01*
X157045000Y-70610000D01*
G36*
X157045000Y-70610000D02*
G01*
X156465000Y-70610000D01*
X156465000Y-69890000D01*
X157045000Y-69890000D01*
X157045000Y-70610000D01*
G37*
X156195000Y-70610000D02*
X155615000Y-70610000D01*
X155615000Y-69890000D01*
X156195000Y-69890000D01*
X156195000Y-70610000D01*
G36*
X156195000Y-70610000D02*
G01*
X155615000Y-70610000D01*
X155615000Y-69890000D01*
X156195000Y-69890000D01*
X156195000Y-70610000D01*
G37*
X155145000Y-70610000D02*
X154565000Y-70610000D01*
X154565000Y-69890000D01*
X155145000Y-69890000D01*
X155145000Y-70610000D01*
G36*
X155145000Y-70610000D02*
G01*
X154565000Y-70610000D01*
X154565000Y-69890000D01*
X155145000Y-69890000D01*
X155145000Y-70610000D01*
G37*
X154295000Y-70610000D02*
X153715000Y-70610000D01*
X153715000Y-69890000D01*
X154295000Y-69890000D01*
X154295000Y-70610000D01*
G36*
X154295000Y-70610000D02*
G01*
X153715000Y-70610000D01*
X153715000Y-69890000D01*
X154295000Y-69890000D01*
X154295000Y-70610000D01*
G37*
X153245000Y-70610000D02*
X152665000Y-70610000D01*
X152665000Y-69890000D01*
X153245000Y-69890000D01*
X153245000Y-70610000D01*
G36*
X153245000Y-70610000D02*
G01*
X152665000Y-70610000D01*
X152665000Y-69890000D01*
X153245000Y-69890000D01*
X153245000Y-70610000D01*
G37*
X152395000Y-70610000D02*
X151815000Y-70610000D01*
X151815000Y-69890000D01*
X152395000Y-69890000D01*
X152395000Y-70610000D01*
G36*
X152395000Y-70610000D02*
G01*
X151815000Y-70610000D01*
X151815000Y-69890000D01*
X152395000Y-69890000D01*
X152395000Y-70610000D01*
G37*
X163790000Y-72415000D02*
X163070000Y-72415000D01*
X163070000Y-71835000D01*
X163790000Y-71835000D01*
X163790000Y-72415000D01*
G36*
X163790000Y-72415000D02*
G01*
X163070000Y-72415000D01*
X163070000Y-71835000D01*
X163790000Y-71835000D01*
X163790000Y-72415000D01*
G37*
X162790000Y-72415000D02*
X162070000Y-72415000D01*
X162070000Y-71835000D01*
X162790000Y-71835000D01*
X162790000Y-72415000D01*
G36*
X162790000Y-72415000D02*
G01*
X162070000Y-72415000D01*
X162070000Y-71835000D01*
X162790000Y-71835000D01*
X162790000Y-72415000D01*
G37*
X150590000Y-72415000D02*
X149870000Y-72415000D01*
X149870000Y-71835000D01*
X150590000Y-71835000D01*
X150590000Y-72415000D01*
G36*
X150590000Y-72415000D02*
G01*
X149870000Y-72415000D01*
X149870000Y-71835000D01*
X150590000Y-71835000D01*
X150590000Y-72415000D01*
G37*
X149590000Y-72415000D02*
X148870000Y-72415000D01*
X148870000Y-71835000D01*
X149590000Y-71835000D01*
X149590000Y-72415000D01*
G36*
X149590000Y-72415000D02*
G01*
X148870000Y-72415000D01*
X148870000Y-71835000D01*
X149590000Y-71835000D01*
X149590000Y-72415000D01*
G37*
X163790000Y-73265000D02*
X163070000Y-73265000D01*
X163070000Y-72685000D01*
X163790000Y-72685000D01*
X163790000Y-73265000D01*
G36*
X163790000Y-73265000D02*
G01*
X163070000Y-73265000D01*
X163070000Y-72685000D01*
X163790000Y-72685000D01*
X163790000Y-73265000D01*
G37*
X162790000Y-73265000D02*
X162070000Y-73265000D01*
X162070000Y-72685000D01*
X162790000Y-72685000D01*
X162790000Y-73265000D01*
G36*
X162790000Y-73265000D02*
G01*
X162070000Y-73265000D01*
X162070000Y-72685000D01*
X162790000Y-72685000D01*
X162790000Y-73265000D01*
G37*
X150590000Y-73265000D02*
X149870000Y-73265000D01*
X149870000Y-72685000D01*
X150590000Y-72685000D01*
X150590000Y-73265000D01*
G36*
X150590000Y-73265000D02*
G01*
X149870000Y-73265000D01*
X149870000Y-72685000D01*
X150590000Y-72685000D01*
X150590000Y-73265000D01*
G37*
X149590000Y-73265000D02*
X148870000Y-73265000D01*
X148870000Y-72685000D01*
X149590000Y-72685000D01*
X149590000Y-73265000D01*
G36*
X149590000Y-73265000D02*
G01*
X148870000Y-73265000D01*
X148870000Y-72685000D01*
X149590000Y-72685000D01*
X149590000Y-73265000D01*
G37*
X163790000Y-74315000D02*
X163070000Y-74315000D01*
X163070000Y-73735000D01*
X163790000Y-73735000D01*
X163790000Y-74315000D01*
G36*
X163790000Y-74315000D02*
G01*
X163070000Y-74315000D01*
X163070000Y-73735000D01*
X163790000Y-73735000D01*
X163790000Y-74315000D01*
G37*
X162790000Y-74315000D02*
X162070000Y-74315000D01*
X162070000Y-73735000D01*
X162790000Y-73735000D01*
X162790000Y-74315000D01*
G36*
X162790000Y-74315000D02*
G01*
X162070000Y-74315000D01*
X162070000Y-73735000D01*
X162790000Y-73735000D01*
X162790000Y-74315000D01*
G37*
X150590000Y-74315000D02*
X149870000Y-74315000D01*
X149870000Y-73735000D01*
X150590000Y-73735000D01*
X150590000Y-74315000D01*
G36*
X150590000Y-74315000D02*
G01*
X149870000Y-74315000D01*
X149870000Y-73735000D01*
X150590000Y-73735000D01*
X150590000Y-74315000D01*
G37*
X149590000Y-74315000D02*
X148870000Y-74315000D01*
X148870000Y-73735000D01*
X149590000Y-73735000D01*
X149590000Y-74315000D01*
G36*
X149590000Y-74315000D02*
G01*
X148870000Y-74315000D01*
X148870000Y-73735000D01*
X149590000Y-73735000D01*
X149590000Y-74315000D01*
G37*
X163790000Y-75165000D02*
X163070000Y-75165000D01*
X163070000Y-74585000D01*
X163790000Y-74585000D01*
X163790000Y-75165000D01*
G36*
X163790000Y-75165000D02*
G01*
X163070000Y-75165000D01*
X163070000Y-74585000D01*
X163790000Y-74585000D01*
X163790000Y-75165000D01*
G37*
X162790000Y-75165000D02*
X162070000Y-75165000D01*
X162070000Y-74585000D01*
X162790000Y-74585000D01*
X162790000Y-75165000D01*
G36*
X162790000Y-75165000D02*
G01*
X162070000Y-75165000D01*
X162070000Y-74585000D01*
X162790000Y-74585000D01*
X162790000Y-75165000D01*
G37*
X150590000Y-75165000D02*
X149870000Y-75165000D01*
X149870000Y-74585000D01*
X150590000Y-74585000D01*
X150590000Y-75165000D01*
G36*
X150590000Y-75165000D02*
G01*
X149870000Y-75165000D01*
X149870000Y-74585000D01*
X150590000Y-74585000D01*
X150590000Y-75165000D01*
G37*
X149590000Y-75165000D02*
X148870000Y-75165000D01*
X148870000Y-74585000D01*
X149590000Y-74585000D01*
X149590000Y-75165000D01*
G36*
X149590000Y-75165000D02*
G01*
X148870000Y-75165000D01*
X148870000Y-74585000D01*
X149590000Y-74585000D01*
X149590000Y-75165000D01*
G37*
X163790000Y-76215000D02*
X163070000Y-76215000D01*
X163070000Y-75635000D01*
X163790000Y-75635000D01*
X163790000Y-76215000D01*
G36*
X163790000Y-76215000D02*
G01*
X163070000Y-76215000D01*
X163070000Y-75635000D01*
X163790000Y-75635000D01*
X163790000Y-76215000D01*
G37*
X162790000Y-76215000D02*
X162070000Y-76215000D01*
X162070000Y-75635000D01*
X162790000Y-75635000D01*
X162790000Y-76215000D01*
G36*
X162790000Y-76215000D02*
G01*
X162070000Y-76215000D01*
X162070000Y-75635000D01*
X162790000Y-75635000D01*
X162790000Y-76215000D01*
G37*
X150590000Y-76215000D02*
X149870000Y-76215000D01*
X149870000Y-75635000D01*
X150590000Y-75635000D01*
X150590000Y-76215000D01*
G36*
X150590000Y-76215000D02*
G01*
X149870000Y-76215000D01*
X149870000Y-75635000D01*
X150590000Y-75635000D01*
X150590000Y-76215000D01*
G37*
X149590000Y-76215000D02*
X148870000Y-76215000D01*
X148870000Y-75635000D01*
X149590000Y-75635000D01*
X149590000Y-76215000D01*
G36*
X149590000Y-76215000D02*
G01*
X148870000Y-76215000D01*
X148870000Y-75635000D01*
X149590000Y-75635000D01*
X149590000Y-76215000D01*
G37*
X163790000Y-77065000D02*
X163070000Y-77065000D01*
X163070000Y-76485000D01*
X163790000Y-76485000D01*
X163790000Y-77065000D01*
G36*
X163790000Y-77065000D02*
G01*
X163070000Y-77065000D01*
X163070000Y-76485000D01*
X163790000Y-76485000D01*
X163790000Y-77065000D01*
G37*
X162790000Y-77065000D02*
X162070000Y-77065000D01*
X162070000Y-76485000D01*
X162790000Y-76485000D01*
X162790000Y-77065000D01*
G36*
X162790000Y-77065000D02*
G01*
X162070000Y-77065000D01*
X162070000Y-76485000D01*
X162790000Y-76485000D01*
X162790000Y-77065000D01*
G37*
X150590000Y-77065000D02*
X149870000Y-77065000D01*
X149870000Y-76485000D01*
X150590000Y-76485000D01*
X150590000Y-77065000D01*
G36*
X150590000Y-77065000D02*
G01*
X149870000Y-77065000D01*
X149870000Y-76485000D01*
X150590000Y-76485000D01*
X150590000Y-77065000D01*
G37*
X149590000Y-77065000D02*
X148870000Y-77065000D01*
X148870000Y-76485000D01*
X149590000Y-76485000D01*
X149590000Y-77065000D01*
G36*
X149590000Y-77065000D02*
G01*
X148870000Y-77065000D01*
X148870000Y-76485000D01*
X149590000Y-76485000D01*
X149590000Y-77065000D01*
G37*
X163790000Y-78115000D02*
X163070000Y-78115000D01*
X163070000Y-77535000D01*
X163790000Y-77535000D01*
X163790000Y-78115000D01*
G36*
X163790000Y-78115000D02*
G01*
X163070000Y-78115000D01*
X163070000Y-77535000D01*
X163790000Y-77535000D01*
X163790000Y-78115000D01*
G37*
X162790000Y-78115000D02*
X162070000Y-78115000D01*
X162070000Y-77535000D01*
X162790000Y-77535000D01*
X162790000Y-78115000D01*
G36*
X162790000Y-78115000D02*
G01*
X162070000Y-78115000D01*
X162070000Y-77535000D01*
X162790000Y-77535000D01*
X162790000Y-78115000D01*
G37*
X150590000Y-78115000D02*
X149870000Y-78115000D01*
X149870000Y-77535000D01*
X150590000Y-77535000D01*
X150590000Y-78115000D01*
G36*
X150590000Y-78115000D02*
G01*
X149870000Y-78115000D01*
X149870000Y-77535000D01*
X150590000Y-77535000D01*
X150590000Y-78115000D01*
G37*
X149590000Y-78115000D02*
X148870000Y-78115000D01*
X148870000Y-77535000D01*
X149590000Y-77535000D01*
X149590000Y-78115000D01*
G36*
X149590000Y-78115000D02*
G01*
X148870000Y-78115000D01*
X148870000Y-77535000D01*
X149590000Y-77535000D01*
X149590000Y-78115000D01*
G37*
X163790000Y-78965000D02*
X163070000Y-78965000D01*
X163070000Y-78385000D01*
X163790000Y-78385000D01*
X163790000Y-78965000D01*
G36*
X163790000Y-78965000D02*
G01*
X163070000Y-78965000D01*
X163070000Y-78385000D01*
X163790000Y-78385000D01*
X163790000Y-78965000D01*
G37*
X162790000Y-78965000D02*
X162070000Y-78965000D01*
X162070000Y-78385000D01*
X162790000Y-78385000D01*
X162790000Y-78965000D01*
G36*
X162790000Y-78965000D02*
G01*
X162070000Y-78965000D01*
X162070000Y-78385000D01*
X162790000Y-78385000D01*
X162790000Y-78965000D01*
G37*
X150590000Y-78965000D02*
X149870000Y-78965000D01*
X149870000Y-78385000D01*
X150590000Y-78385000D01*
X150590000Y-78965000D01*
G36*
X150590000Y-78965000D02*
G01*
X149870000Y-78965000D01*
X149870000Y-78385000D01*
X150590000Y-78385000D01*
X150590000Y-78965000D01*
G37*
X149590000Y-78965000D02*
X148870000Y-78965000D01*
X148870000Y-78385000D01*
X149590000Y-78385000D01*
X149590000Y-78965000D01*
G36*
X149590000Y-78965000D02*
G01*
X148870000Y-78965000D01*
X148870000Y-78385000D01*
X149590000Y-78385000D01*
X149590000Y-78965000D01*
G37*
X163790000Y-80015000D02*
X163070000Y-80015000D01*
X163070000Y-79435000D01*
X163790000Y-79435000D01*
X163790000Y-80015000D01*
G36*
X163790000Y-80015000D02*
G01*
X163070000Y-80015000D01*
X163070000Y-79435000D01*
X163790000Y-79435000D01*
X163790000Y-80015000D01*
G37*
X162790000Y-80015000D02*
X162070000Y-80015000D01*
X162070000Y-79435000D01*
X162790000Y-79435000D01*
X162790000Y-80015000D01*
G36*
X162790000Y-80015000D02*
G01*
X162070000Y-80015000D01*
X162070000Y-79435000D01*
X162790000Y-79435000D01*
X162790000Y-80015000D01*
G37*
X150590000Y-80015000D02*
X149870000Y-80015000D01*
X149870000Y-79435000D01*
X150590000Y-79435000D01*
X150590000Y-80015000D01*
G36*
X150590000Y-80015000D02*
G01*
X149870000Y-80015000D01*
X149870000Y-79435000D01*
X150590000Y-79435000D01*
X150590000Y-80015000D01*
G37*
X149590000Y-80015000D02*
X148870000Y-80015000D01*
X148870000Y-79435000D01*
X149590000Y-79435000D01*
X149590000Y-80015000D01*
G36*
X149590000Y-80015000D02*
G01*
X148870000Y-80015000D01*
X148870000Y-79435000D01*
X149590000Y-79435000D01*
X149590000Y-80015000D01*
G37*
X163790000Y-80865000D02*
X163070000Y-80865000D01*
X163070000Y-80285000D01*
X163790000Y-80285000D01*
X163790000Y-80865000D01*
G36*
X163790000Y-80865000D02*
G01*
X163070000Y-80865000D01*
X163070000Y-80285000D01*
X163790000Y-80285000D01*
X163790000Y-80865000D01*
G37*
X162790000Y-80865000D02*
X162070000Y-80865000D01*
X162070000Y-80285000D01*
X162790000Y-80285000D01*
X162790000Y-80865000D01*
G36*
X162790000Y-80865000D02*
G01*
X162070000Y-80865000D01*
X162070000Y-80285000D01*
X162790000Y-80285000D01*
X162790000Y-80865000D01*
G37*
X150590000Y-80865000D02*
X149870000Y-80865000D01*
X149870000Y-80285000D01*
X150590000Y-80285000D01*
X150590000Y-80865000D01*
G36*
X150590000Y-80865000D02*
G01*
X149870000Y-80865000D01*
X149870000Y-80285000D01*
X150590000Y-80285000D01*
X150590000Y-80865000D01*
G37*
X149590000Y-80865000D02*
X148870000Y-80865000D01*
X148870000Y-80285000D01*
X149590000Y-80285000D01*
X149590000Y-80865000D01*
G36*
X149590000Y-80865000D02*
G01*
X148870000Y-80865000D01*
X148870000Y-80285000D01*
X149590000Y-80285000D01*
X149590000Y-80865000D01*
G37*
X160845000Y-82810000D02*
X160265000Y-82810000D01*
X160265000Y-82090000D01*
X160845000Y-82090000D01*
X160845000Y-82810000D01*
G36*
X160845000Y-82810000D02*
G01*
X160265000Y-82810000D01*
X160265000Y-82090000D01*
X160845000Y-82090000D01*
X160845000Y-82810000D01*
G37*
X159995000Y-82810000D02*
X159415000Y-82810000D01*
X159415000Y-82090000D01*
X159995000Y-82090000D01*
X159995000Y-82810000D01*
G36*
X159995000Y-82810000D02*
G01*
X159415000Y-82810000D01*
X159415000Y-82090000D01*
X159995000Y-82090000D01*
X159995000Y-82810000D01*
G37*
X158945000Y-82810000D02*
X158365000Y-82810000D01*
X158365000Y-82090000D01*
X158945000Y-82090000D01*
X158945000Y-82810000D01*
G36*
X158945000Y-82810000D02*
G01*
X158365000Y-82810000D01*
X158365000Y-82090000D01*
X158945000Y-82090000D01*
X158945000Y-82810000D01*
G37*
X158095000Y-82810000D02*
X157515000Y-82810000D01*
X157515000Y-82090000D01*
X158095000Y-82090000D01*
X158095000Y-82810000D01*
G36*
X158095000Y-82810000D02*
G01*
X157515000Y-82810000D01*
X157515000Y-82090000D01*
X158095000Y-82090000D01*
X158095000Y-82810000D01*
G37*
X157045000Y-82810000D02*
X156465000Y-82810000D01*
X156465000Y-82090000D01*
X157045000Y-82090000D01*
X157045000Y-82810000D01*
G36*
X157045000Y-82810000D02*
G01*
X156465000Y-82810000D01*
X156465000Y-82090000D01*
X157045000Y-82090000D01*
X157045000Y-82810000D01*
G37*
X156195000Y-82810000D02*
X155615000Y-82810000D01*
X155615000Y-82090000D01*
X156195000Y-82090000D01*
X156195000Y-82810000D01*
G36*
X156195000Y-82810000D02*
G01*
X155615000Y-82810000D01*
X155615000Y-82090000D01*
X156195000Y-82090000D01*
X156195000Y-82810000D01*
G37*
X155145000Y-82810000D02*
X154565000Y-82810000D01*
X154565000Y-82090000D01*
X155145000Y-82090000D01*
X155145000Y-82810000D01*
G36*
X155145000Y-82810000D02*
G01*
X154565000Y-82810000D01*
X154565000Y-82090000D01*
X155145000Y-82090000D01*
X155145000Y-82810000D01*
G37*
X154295000Y-82810000D02*
X153715000Y-82810000D01*
X153715000Y-82090000D01*
X154295000Y-82090000D01*
X154295000Y-82810000D01*
G36*
X154295000Y-82810000D02*
G01*
X153715000Y-82810000D01*
X153715000Y-82090000D01*
X154295000Y-82090000D01*
X154295000Y-82810000D01*
G37*
X153245000Y-82810000D02*
X152665000Y-82810000D01*
X152665000Y-82090000D01*
X153245000Y-82090000D01*
X153245000Y-82810000D01*
G36*
X153245000Y-82810000D02*
G01*
X152665000Y-82810000D01*
X152665000Y-82090000D01*
X153245000Y-82090000D01*
X153245000Y-82810000D01*
G37*
X152395000Y-82810000D02*
X151815000Y-82810000D01*
X151815000Y-82090000D01*
X152395000Y-82090000D01*
X152395000Y-82810000D01*
G36*
X152395000Y-82810000D02*
G01*
X151815000Y-82810000D01*
X151815000Y-82090000D01*
X152395000Y-82090000D01*
X152395000Y-82810000D01*
G37*
X160845000Y-83810000D02*
X160265000Y-83810000D01*
X160265000Y-83090000D01*
X160845000Y-83090000D01*
X160845000Y-83810000D01*
G36*
X160845000Y-83810000D02*
G01*
X160265000Y-83810000D01*
X160265000Y-83090000D01*
X160845000Y-83090000D01*
X160845000Y-83810000D01*
G37*
X159995000Y-83810000D02*
X159415000Y-83810000D01*
X159415000Y-83090000D01*
X159995000Y-83090000D01*
X159995000Y-83810000D01*
G36*
X159995000Y-83810000D02*
G01*
X159415000Y-83810000D01*
X159415000Y-83090000D01*
X159995000Y-83090000D01*
X159995000Y-83810000D01*
G37*
X158945000Y-83810000D02*
X158365000Y-83810000D01*
X158365000Y-83090000D01*
X158945000Y-83090000D01*
X158945000Y-83810000D01*
G36*
X158945000Y-83810000D02*
G01*
X158365000Y-83810000D01*
X158365000Y-83090000D01*
X158945000Y-83090000D01*
X158945000Y-83810000D01*
G37*
X158095000Y-83810000D02*
X157515000Y-83810000D01*
X157515000Y-83090000D01*
X158095000Y-83090000D01*
X158095000Y-83810000D01*
G36*
X158095000Y-83810000D02*
G01*
X157515000Y-83810000D01*
X157515000Y-83090000D01*
X158095000Y-83090000D01*
X158095000Y-83810000D01*
G37*
X157045000Y-83810000D02*
X156465000Y-83810000D01*
X156465000Y-83090000D01*
X157045000Y-83090000D01*
X157045000Y-83810000D01*
G36*
X157045000Y-83810000D02*
G01*
X156465000Y-83810000D01*
X156465000Y-83090000D01*
X157045000Y-83090000D01*
X157045000Y-83810000D01*
G37*
X156195000Y-83810000D02*
X155615000Y-83810000D01*
X155615000Y-83090000D01*
X156195000Y-83090000D01*
X156195000Y-83810000D01*
G36*
X156195000Y-83810000D02*
G01*
X155615000Y-83810000D01*
X155615000Y-83090000D01*
X156195000Y-83090000D01*
X156195000Y-83810000D01*
G37*
X155145000Y-83810000D02*
X154565000Y-83810000D01*
X154565000Y-83090000D01*
X155145000Y-83090000D01*
X155145000Y-83810000D01*
G36*
X155145000Y-83810000D02*
G01*
X154565000Y-83810000D01*
X154565000Y-83090000D01*
X155145000Y-83090000D01*
X155145000Y-83810000D01*
G37*
X154295000Y-83810000D02*
X153715000Y-83810000D01*
X153715000Y-83090000D01*
X154295000Y-83090000D01*
X154295000Y-83810000D01*
G36*
X154295000Y-83810000D02*
G01*
X153715000Y-83810000D01*
X153715000Y-83090000D01*
X154295000Y-83090000D01*
X154295000Y-83810000D01*
G37*
X153245000Y-83810000D02*
X152665000Y-83810000D01*
X152665000Y-83090000D01*
X153245000Y-83090000D01*
X153245000Y-83810000D01*
G36*
X153245000Y-83810000D02*
G01*
X152665000Y-83810000D01*
X152665000Y-83090000D01*
X153245000Y-83090000D01*
X153245000Y-83810000D01*
G37*
X152395000Y-83810000D02*
X151815000Y-83810000D01*
X151815000Y-83090000D01*
X152395000Y-83090000D01*
X152395000Y-83810000D01*
G36*
X152395000Y-83810000D02*
G01*
X151815000Y-83810000D01*
X151815000Y-83090000D01*
X152395000Y-83090000D01*
X152395000Y-83810000D01*
G37*
%TD*%
D11*
%TO.C,C7*%
X177834999Y-102315001D03*
X179384999Y-102315001D03*
%TD*%
D12*
%TO.C,R2*%
X178095000Y-86280000D03*
X179745000Y-86280000D03*
%TD*%
%TO.C,R1*%
X178045000Y-87940000D03*
X179695000Y-87940000D03*
%TD*%
D13*
%TO.C,C1*%
X166080000Y-78250000D03*
X167980000Y-78250000D03*
%TD*%
D14*
%TO.C,U3*%
X173425000Y-103855000D03*
X173425000Y-103355000D03*
X173425000Y-102855000D03*
X173425000Y-102355000D03*
D15*
X172760000Y-104025000D03*
X172760000Y-102195000D03*
X172260000Y-104025000D03*
X172260000Y-102195000D03*
X171760000Y-104025000D03*
X171760000Y-102195000D03*
D14*
X171100000Y-103855000D03*
X171100000Y-103355000D03*
X171100000Y-102855000D03*
X171100000Y-102355000D03*
%TD*%
D11*
%TO.C,C3*%
X171985000Y-107790000D03*
X173535000Y-107790000D03*
%TD*%
D16*
%TO.C,C6*%
X169660000Y-104680000D03*
X169660000Y-103130000D03*
%TD*%
D11*
%TO.C,C8*%
X177434999Y-108715001D03*
X178984999Y-108715001D03*
%TD*%
D16*
%TO.C,C5*%
X171260000Y-100680000D03*
X171260000Y-99130000D03*
%TD*%
D17*
%TO.C,L3*%
X183137500Y-84570000D03*
X181562500Y-84570000D03*
%TD*%
D18*
%TO.C,U1*%
X170010063Y-107640700D03*
X169509937Y-107640700D03*
D19*
X169010700Y-107889874D03*
X169010700Y-108390000D03*
X169010700Y-108890126D03*
D18*
X169509937Y-109139300D03*
X170010063Y-109139300D03*
D19*
X170509300Y-108890126D03*
X170509300Y-108390000D03*
X170509300Y-107889874D03*
%TD*%
D17*
%TO.C,L1*%
X183117500Y-87980000D03*
X181542500Y-87980000D03*
%TD*%
D12*
%TO.C,R3*%
X178155000Y-84550000D03*
X179805000Y-84550000D03*
%TD*%
D11*
%TO.C,C2*%
X165985000Y-107790000D03*
X167535000Y-107790000D03*
%TD*%
D17*
%TO.C,L2*%
X183137500Y-86270000D03*
X181562500Y-86270000D03*
%TD*%
D16*
%TO.C,C4*%
X173160000Y-100680000D03*
X173160000Y-99130000D03*
%TD*%
D20*
%TO.C,U4*%
X177059998Y-106790000D03*
X177559999Y-106790000D03*
X178059999Y-106790000D03*
X178560000Y-106790000D03*
D21*
X179084998Y-106265002D03*
X179084998Y-105765001D03*
X179084998Y-105265001D03*
X179084998Y-104765000D03*
D20*
X178560000Y-104240002D03*
X178059999Y-104240002D03*
X177559999Y-104240002D03*
X177059998Y-104240002D03*
D21*
X176535000Y-104765000D03*
X176535000Y-105265001D03*
X176535000Y-105765001D03*
X176535000Y-106265002D03*
%TD*%
M02*
