%TF.GenerationSoftware,KiCad,Pcbnew,7.0.5*%
%TF.CreationDate,2023-12-18T11:55:02-06:00*%
%TF.ProjectId,peakick,7065616b-6963-46b2-9e6b-696361645f70,rev?*%
%TF.SameCoordinates,Original*%
%TF.FileFunction,Copper,L2,Bot*%
%TF.FilePolarity,Positive*%
%FSLAX46Y46*%
G04 Gerber Fmt 4.6, Leading zero omitted, Abs format (unit mm)*
G04 Created by KiCad (PCBNEW 7.0.5) date 2023-12-18 11:55:02*
%MOMM*%
%LPD*%
G01*
G04 APERTURE LIST*
G04 Aperture macros list*
%AMRoundRect*
0 Rectangle with rounded corners*
0 $1 Rounding radius*
0 $2 $3 $4 $5 $6 $7 $8 $9 X,Y pos of 4 corners*
0 Add a 4 corners polygon primitive as box body*
4,1,4,$2,$3,$4,$5,$6,$7,$8,$9,$2,$3,0*
0 Add four circle primitives for the rounded corners*
1,1,$1+$1,$2,$3*
1,1,$1+$1,$4,$5*
1,1,$1+$1,$6,$7*
1,1,$1+$1,$8,$9*
0 Add four rect primitives between the rounded corners*
20,1,$1+$1,$2,$3,$4,$5,0*
20,1,$1+$1,$4,$5,$6,$7,0*
20,1,$1+$1,$6,$7,$8,$9,0*
20,1,$1+$1,$8,$9,$2,$3,0*%
G04 Aperture macros list end*
%TA.AperFunction,ComponentPad*%
%ADD10R,1.270000X1.270000*%
%TD*%
%TA.AperFunction,SMDPad,CuDef*%
%ADD11RoundRect,0.200000X0.200000X0.275000X-0.200000X0.275000X-0.200000X-0.275000X0.200000X-0.275000X0*%
%TD*%
%TA.AperFunction,WasherPad*%
%ADD12C,1.200000*%
%TD*%
%TA.AperFunction,SMDPad,CuDef*%
%ADD13RoundRect,0.300000X-0.950000X0.300000X-0.950000X-0.300000X0.950000X-0.300000X0.950000X0.300000X0*%
%TD*%
%TA.AperFunction,SMDPad,CuDef*%
%ADD14R,4.000000X2.600000*%
%TD*%
%TA.AperFunction,SMDPad,CuDef*%
%ADD15R,1.000000X4.600000*%
%TD*%
%TA.AperFunction,SMDPad,CuDef*%
%ADD16R,1.600000X3.400000*%
%TD*%
%TA.AperFunction,SMDPad,CuDef*%
%ADD17R,0.600000X1.350000*%
%TD*%
%TA.AperFunction,SMDPad,CuDef*%
%ADD18R,1.200000X2.000000*%
%TD*%
%TA.AperFunction,ViaPad*%
%ADD19C,0.600000*%
%TD*%
%TA.AperFunction,Conductor*%
%ADD20C,0.250000*%
%TD*%
%TA.AperFunction,Conductor*%
%ADD21C,0.200000*%
%TD*%
G04 APERTURE END LIST*
D10*
%TO.P,J1,1,1*%
%TO.N,/BOOT0*%
X178070000Y-114730000D03*
%TO.P,J1,2,2*%
%TO.N,/D1{slash}TX*%
X175530000Y-114730000D03*
%TO.P,J1,3,3*%
%TO.N,/D0{slash}RX*%
X172990000Y-114730000D03*
%TO.P,J1,4,4*%
%TO.N,/CIPO*%
X170450000Y-114730000D03*
%TO.P,J1,5,5*%
%TO.N,/COPI*%
X167910000Y-114730000D03*
%TO.P,J1,6,6*%
%TO.N,/SCK*%
X165370000Y-114730000D03*
%TO.P,J1,7,7*%
%TO.N,/A5*%
X162830000Y-114730000D03*
%TO.P,J1,8,8*%
%TO.N,/A4*%
X160290000Y-114730000D03*
%TO.P,J1,9,9*%
%TO.N,/A3*%
X157750000Y-114730000D03*
%TO.P,J1,10,10*%
%TO.N,/A2*%
X155210000Y-114730000D03*
%TO.P,J1,11,11*%
%TO.N,/A1*%
X152670000Y-114730000D03*
%TO.P,J1,12,12*%
%TO.N,/A0*%
X150130000Y-114730000D03*
%TO.P,J1,13,13*%
%TO.N,GND*%
X147590000Y-114730000D03*
%TO.P,J1,14,14*%
%TO.N,unconnected-(J1-Pad14)*%
X145050000Y-114730000D03*
%TO.P,J1,15,15*%
%TO.N,3.3V*%
X142510000Y-114730000D03*
%TO.P,J1,16,16*%
%TO.N,/~{RESET}*%
X139970000Y-114730000D03*
%TD*%
%TO.P,J3,1,1*%
%TO.N,/SDA*%
X178060000Y-94360000D03*
%TO.P,J3,2,2*%
%TO.N,/SCL*%
X175520000Y-94360000D03*
%TO.P,J3,3,3*%
%TO.N,/D5*%
X172980000Y-94360000D03*
%TO.P,J3,4,4*%
%TO.N,/D6*%
X170440000Y-94360000D03*
%TO.P,J3,5,5*%
%TO.N,/D9*%
X167900000Y-94360000D03*
%TO.P,J3,6,6*%
%TO.N,/D10*%
X165360000Y-94360000D03*
%TO.P,J3,7,7*%
%TO.N,/D11*%
X162820000Y-94360000D03*
%TO.P,J3,8,8*%
%TO.N,/D12*%
X160280000Y-94360000D03*
%TO.P,J3,9,9*%
%TO.N,/D13*%
X157740000Y-94360000D03*
%TO.P,J3,10,10*%
%TO.N,/V_USB*%
X155200000Y-94360000D03*
%TO.P,J3,11,11*%
%TO.N,/EN*%
X152660000Y-94360000D03*
%TO.P,J3,12,12*%
%TO.N,V_BATT*%
X150120000Y-94360000D03*
%TD*%
D11*
%TO.P,R4,1*%
%TO.N,3.3V*%
X178545000Y-96680000D03*
%TO.P,R4,2*%
%TO.N,/SDA*%
X176895000Y-96680000D03*
%TD*%
D12*
%TO.P,SW1,*%
%TO.N,*%
X182100000Y-82850000D03*
X182100000Y-89650000D03*
D13*
%TO.P,SW1,1,A*%
%TO.N,unconnected-(SW1-A-Pad1)*%
X179300000Y-83750000D03*
%TO.P,SW1,2,B*%
%TO.N,Net-(SW1-B)*%
X179300000Y-86250000D03*
%TO.P,SW1,3,C*%
%TO.N,GND*%
X179300000Y-88750000D03*
%TD*%
D14*
%TO.P,B1,+,+*%
%TO.N,/VBACKUP*%
X133065000Y-104450000D03*
%TO.P,B1,-,-*%
%TO.N,GND*%
X149245000Y-104420000D03*
%TD*%
D11*
%TO.P,R5,1*%
%TO.N,3.3V*%
X175355000Y-96660000D03*
%TO.P,R5,2*%
%TO.N,/SCL*%
X173705000Y-96660000D03*
%TD*%
D15*
%TO.P,X1,1,1*%
%TO.N,Net-(SW1-B)*%
X180220000Y-79100000D03*
%TO.P,X1,2,2*%
%TO.N,V_BATT*%
X178220000Y-79100000D03*
D16*
%TO.P,X1,NC1*%
%TO.N,N/C*%
X182620000Y-73900000D03*
%TO.P,X1,NC2*%
X175820000Y-73900000D03*
%TD*%
D17*
%TO.P,J2,1,1*%
%TO.N,GND*%
X179060000Y-98746700D03*
%TO.P,J2,2,2*%
%TO.N,3.3V*%
X178060000Y-98746700D03*
%TO.P,J2,3,3*%
%TO.N,/SDA*%
X177060000Y-98746700D03*
%TO.P,J2,4,4*%
%TO.N,/SCL*%
X176060000Y-98746700D03*
D18*
%TO.P,J2,NC1*%
%TO.N,N/C*%
X174760000Y-102421700D03*
%TO.P,J2,NC2*%
X180360000Y-102421700D03*
%TD*%
D19*
%TO.N,GND*%
X160130000Y-68050000D03*
X173560000Y-109190000D03*
X164730000Y-72550000D03*
X161630000Y-82950000D03*
X167930000Y-76550000D03*
X152530000Y-81250000D03*
X162930000Y-81650000D03*
X152530000Y-71550000D03*
X168240000Y-101600000D03*
X160130000Y-81250000D03*
X154430000Y-68050000D03*
X149730000Y-81650000D03*
X151030000Y-82950000D03*
X152530000Y-67950000D03*
X160130000Y-84650000D03*
X152530000Y-84650000D03*
X151430000Y-80150000D03*
X151430000Y-72550000D03*
X174547589Y-105642399D03*
X162930000Y-71050000D03*
X167360000Y-106790000D03*
X177040000Y-89660000D03*
X161730000Y-69750000D03*
X147030000Y-80250000D03*
X167930000Y-79950000D03*
X148030000Y-72550000D03*
X167560000Y-109488900D03*
X150930000Y-69750000D03*
X161230000Y-80050000D03*
X154430000Y-71550000D03*
%TO.N,3.3V*%
X174980000Y-100670000D03*
X173160000Y-106891100D03*
X168380000Y-91621100D03*
X171560000Y-105387800D03*
X168480000Y-103500000D03*
X158230000Y-68250000D03*
X169960000Y-101190000D03*
X176610000Y-108090000D03*
X166030000Y-79850000D03*
X168380000Y-90250000D03*
%TO.N,V_BATT*%
X154931100Y-92048900D03*
%TO.N,/SDA*%
X174620000Y-93051100D03*
X172760000Y-105888900D03*
X164090000Y-93430000D03*
X165771915Y-104908085D03*
X147930000Y-78250000D03*
%TO.N,/SCL*%
X154430000Y-84650000D03*
X166463900Y-92488900D03*
%TO.N,/D6*%
X173380000Y-101660000D03*
%TO.N,/D9*%
X175058900Y-104622427D03*
%TO.N,/D10*%
X170020000Y-109950000D03*
%TO.N,/VBACKUP*%
X156300000Y-68400000D03*
%TD*%
D20*
%TO.N,GND*%
X177950000Y-88750000D02*
X177040000Y-89660000D01*
X179300000Y-88750000D02*
X179300000Y-88730000D01*
X179300000Y-88750000D02*
X177950000Y-88750000D01*
%TO.N,3.3V*%
X168380000Y-91621100D02*
X168380000Y-90250000D01*
D21*
X171560000Y-105387800D02*
X171560000Y-105398270D01*
D20*
X166249100Y-80069100D02*
X166030000Y-79850000D01*
X165830000Y-79650000D02*
X166030000Y-79850000D01*
X158230000Y-68250000D02*
X158230000Y-66950000D01*
D21*
X171560000Y-105398270D02*
X173052830Y-106891100D01*
X168480000Y-102670000D02*
X168480000Y-103500000D01*
D20*
X178060000Y-98746700D02*
X178060000Y-99121700D01*
X158230000Y-66950000D02*
X158730000Y-66450000D01*
D21*
X173052830Y-106891100D02*
X173160000Y-106891100D01*
X174980000Y-99720000D02*
X175355000Y-99345000D01*
X174980000Y-100670000D02*
X174980000Y-99720000D01*
D20*
X158730000Y-66450000D02*
X165830000Y-66450000D01*
D21*
X169960000Y-101190000D02*
X168480000Y-102670000D01*
D20*
X168380000Y-90250000D02*
X166249100Y-88119100D01*
X178060000Y-99121700D02*
X177533400Y-99648300D01*
X165830000Y-66450000D02*
X165830000Y-79650000D01*
X177533400Y-99648300D02*
X175658300Y-99648300D01*
D21*
X177940000Y-98866700D02*
X178060000Y-98746700D01*
X177940000Y-106760000D02*
X177940000Y-98866700D01*
D20*
X166249100Y-88119100D02*
X166249100Y-80069100D01*
X175658300Y-99648300D02*
X175355000Y-99345000D01*
X175355000Y-99345000D02*
X175355000Y-96660000D01*
X178060000Y-97165000D02*
X178060000Y-98746700D01*
X178545000Y-96680000D02*
X178060000Y-97165000D01*
D21*
X176610000Y-108090000D02*
X177940000Y-106760000D01*
D20*
%TO.N,V_BATT*%
X166867425Y-92147700D02*
X166682025Y-91962300D01*
X157157700Y-91962300D02*
X157110000Y-92010000D01*
X154970000Y-92010000D02*
X154931100Y-92048900D01*
X176513400Y-90985282D02*
X175350982Y-92147700D01*
X175350982Y-92147700D02*
X166867425Y-92147700D01*
X166682025Y-91962300D02*
X157157700Y-91962300D01*
X157110000Y-92010000D02*
X154970000Y-92010000D01*
X178220000Y-82500000D02*
X176513400Y-84206600D01*
X176513400Y-84206600D02*
X176513400Y-90985282D01*
X178220000Y-79100000D02*
X178220000Y-82500000D01*
D21*
%TO.N,/SDA*%
X172061600Y-105190500D02*
X172760000Y-105888900D01*
X165830000Y-104850000D02*
X171731570Y-104850000D01*
X164380000Y-93140000D02*
X164380000Y-93051100D01*
X178060000Y-95515000D02*
X176895000Y-96680000D01*
X176895000Y-96680000D02*
X177060000Y-96845000D01*
X165771915Y-104908085D02*
X165830000Y-104850000D01*
X148852200Y-93051100D02*
X147930000Y-92128900D01*
X171731570Y-104850000D02*
X172061600Y-105180030D01*
X174620000Y-93051100D02*
X164380000Y-93051100D01*
X147930000Y-92128900D02*
X147930000Y-78250000D01*
X164380000Y-93051100D02*
X148852200Y-93051100D01*
X178060000Y-94360000D02*
X178060000Y-95515000D01*
X177060000Y-96845000D02*
X177060000Y-98746700D01*
X164090000Y-93430000D02*
X164380000Y-93140000D01*
X172061600Y-105180030D02*
X172061600Y-105190500D01*
%TO.N,/SCL*%
X175140000Y-92550000D02*
X175520000Y-92930000D01*
X175520000Y-92930000D02*
X175520000Y-94360000D01*
X154430000Y-92550000D02*
X175140000Y-92550000D01*
X173705000Y-96175000D02*
X173705000Y-96660000D01*
X175520000Y-94360000D02*
X176060000Y-94900000D01*
X175520000Y-94360000D02*
X173705000Y-96175000D01*
X176060000Y-94900000D02*
X176060000Y-98746700D01*
X154430000Y-84650000D02*
X154430000Y-92550000D01*
%TO.N,/D6*%
X173370000Y-101650000D02*
X173380000Y-101660000D01*
X172880000Y-96800000D02*
X172880000Y-97430000D01*
X173370000Y-97920000D02*
X173370000Y-101650000D01*
X172880000Y-97430000D02*
X173370000Y-97920000D01*
X170440000Y-94360000D02*
X172880000Y-96800000D01*
%TO.N,/D9*%
X174872427Y-104622427D02*
X172490000Y-102240000D01*
X172490000Y-102240000D02*
X172490000Y-96920000D01*
X172490000Y-96920000D02*
X171326800Y-96920000D01*
X171326800Y-96920000D02*
X168766800Y-94360000D01*
X175058900Y-104622427D02*
X174872427Y-104622427D01*
X168766800Y-94360000D02*
X167900000Y-94360000D01*
%TO.N,/D10*%
X165564145Y-105409685D02*
X165180000Y-105025540D01*
X165180000Y-105025540D02*
X165180000Y-94540000D01*
X170020000Y-109950000D02*
X170020000Y-108740630D01*
X165180000Y-94540000D02*
X165360000Y-94360000D01*
X170020000Y-108740630D02*
X166689055Y-105409685D01*
X166689055Y-105409685D02*
X165564145Y-105409685D01*
%TO.N,/VBACKUP*%
X130700000Y-94100000D02*
X130700000Y-99400000D01*
X129900000Y-63000000D02*
X126900000Y-66000000D01*
X129900000Y-62800000D02*
X129900000Y-63000000D01*
X130700000Y-99400000D02*
X129200000Y-100900000D01*
X126900000Y-66000000D02*
X126900000Y-90300000D01*
X126900000Y-90300000D02*
X130700000Y-94100000D01*
X129200000Y-103800000D02*
X129850000Y-104450000D01*
X156300000Y-62800000D02*
X129900000Y-62800000D01*
X156300000Y-68400000D02*
X156300000Y-62800000D01*
X129850000Y-104450000D02*
X133065000Y-104450000D01*
X129200000Y-100900000D02*
X129200000Y-103800000D01*
%TO.N,Net-(SW1-B)*%
X180220000Y-82103634D02*
X180751600Y-82635234D01*
X180751600Y-82635234D02*
X180751600Y-84798400D01*
X180751600Y-84798400D02*
X179300000Y-86250000D01*
X180220000Y-79100000D02*
X180220000Y-82103634D01*
%TD*%
%TA.AperFunction,Conductor*%
%TO.N,GND*%
G36*
X181861436Y-62062181D02*
G01*
X182136755Y-62077955D01*
X182142371Y-62078600D01*
X182337723Y-62112490D01*
X182412700Y-62125497D01*
X182418214Y-62126782D01*
X182681425Y-62204267D01*
X182686745Y-62206171D01*
X182939360Y-62313226D01*
X182944446Y-62315734D01*
X183183165Y-62450952D01*
X183187932Y-62454025D01*
X183409631Y-62615638D01*
X183414015Y-62619236D01*
X183615798Y-62805132D01*
X183619737Y-62809202D01*
X183798963Y-63016953D01*
X183802400Y-63021433D01*
X183896763Y-63160172D01*
X183956700Y-63248295D01*
X183959616Y-63253159D01*
X184086977Y-63496169D01*
X184089318Y-63501334D01*
X184188069Y-63757295D01*
X184189804Y-63762695D01*
X184233909Y-63932819D01*
X184237076Y-63957296D01*
X184273219Y-73697647D01*
X184297900Y-80349077D01*
X184297900Y-113403619D01*
X184297590Y-113406052D01*
X184297890Y-113442931D01*
X184297824Y-113445921D01*
X184282804Y-113732965D01*
X184282132Y-113738910D01*
X184232884Y-114020556D01*
X184231500Y-114026376D01*
X184148661Y-114300042D01*
X184146586Y-114305653D01*
X184083400Y-114449160D01*
X184037642Y-114553085D01*
X184031366Y-114567338D01*
X184028631Y-114572654D01*
X184022839Y-114582414D01*
X183882706Y-114818546D01*
X183879348Y-114823497D01*
X183704852Y-115050005D01*
X183700921Y-115054516D01*
X183500397Y-115258338D01*
X183495952Y-115262341D01*
X183272319Y-115440509D01*
X183267424Y-115443947D01*
X183025121Y-115593140D01*
X183023953Y-115593859D01*
X183018678Y-115596682D01*
X182758909Y-115716154D01*
X182753332Y-115718321D01*
X182481046Y-115805616D01*
X182475249Y-115807095D01*
X182330585Y-115834830D01*
X182194436Y-115860931D01*
X182188510Y-115861700D01*
X182090628Y-115868424D01*
X181901973Y-115881384D01*
X181898599Y-115881500D01*
X179141331Y-115881500D01*
X179083140Y-115862593D01*
X179047176Y-115813093D01*
X179047176Y-115751907D01*
X179062078Y-115723171D01*
X179065709Y-115718321D01*
X179148796Y-115607331D01*
X179148887Y-115607089D01*
X179199089Y-115472488D01*
X179199090Y-115472485D01*
X179199091Y-115472483D01*
X179205500Y-115412873D01*
X179205499Y-114047128D01*
X179199091Y-113987517D01*
X179160054Y-113882852D01*
X179148797Y-113852670D01*
X179062549Y-113737458D01*
X179062548Y-113737457D01*
X179062546Y-113737454D01*
X179059594Y-113735244D01*
X178947329Y-113651202D01*
X178812488Y-113600910D01*
X178812483Y-113600909D01*
X178812481Y-113600908D01*
X178812477Y-113600908D01*
X178781249Y-113597550D01*
X178752873Y-113594500D01*
X178752870Y-113594500D01*
X177387133Y-113594500D01*
X177387129Y-113594500D01*
X177387128Y-113594501D01*
X177382486Y-113595000D01*
X177327519Y-113600908D01*
X177327514Y-113600909D01*
X177192670Y-113651202D01*
X177077458Y-113737450D01*
X177077450Y-113737458D01*
X176991202Y-113852670D01*
X176940910Y-113987511D01*
X176940908Y-113987522D01*
X176934500Y-114047129D01*
X176934500Y-115412866D01*
X176934501Y-115412870D01*
X176940908Y-115472480D01*
X176940909Y-115472485D01*
X176991202Y-115607329D01*
X177060685Y-115700146D01*
X177073608Y-115717409D01*
X177077922Y-115723171D01*
X177097659Y-115781086D01*
X177079585Y-115839540D01*
X177030604Y-115876208D01*
X176998669Y-115881500D01*
X176601331Y-115881500D01*
X176543140Y-115862593D01*
X176507176Y-115813093D01*
X176507176Y-115751907D01*
X176522078Y-115723171D01*
X176525709Y-115718321D01*
X176608796Y-115607331D01*
X176608887Y-115607089D01*
X176659089Y-115472488D01*
X176659090Y-115472485D01*
X176659091Y-115472483D01*
X176665500Y-115412873D01*
X176665499Y-114047128D01*
X176659091Y-113987517D01*
X176620054Y-113882852D01*
X176608797Y-113852670D01*
X176522549Y-113737458D01*
X176522548Y-113737457D01*
X176522546Y-113737454D01*
X176519594Y-113735244D01*
X176407329Y-113651202D01*
X176272488Y-113600910D01*
X176272483Y-113600909D01*
X176272481Y-113600908D01*
X176272477Y-113600908D01*
X176241249Y-113597550D01*
X176212873Y-113594500D01*
X176212870Y-113594500D01*
X174847133Y-113594500D01*
X174847129Y-113594500D01*
X174847128Y-113594501D01*
X174842486Y-113595000D01*
X174787519Y-113600908D01*
X174787514Y-113600909D01*
X174652670Y-113651202D01*
X174537458Y-113737450D01*
X174537450Y-113737458D01*
X174451202Y-113852670D01*
X174400910Y-113987511D01*
X174400908Y-113987522D01*
X174394500Y-114047129D01*
X174394500Y-115412866D01*
X174394501Y-115412870D01*
X174400908Y-115472480D01*
X174400909Y-115472485D01*
X174451202Y-115607329D01*
X174520685Y-115700146D01*
X174533608Y-115717409D01*
X174537922Y-115723171D01*
X174557659Y-115781086D01*
X174539585Y-115839540D01*
X174490604Y-115876208D01*
X174458669Y-115881500D01*
X174061331Y-115881500D01*
X174003140Y-115862593D01*
X173967176Y-115813093D01*
X173967176Y-115751907D01*
X173982078Y-115723171D01*
X173985709Y-115718321D01*
X174068796Y-115607331D01*
X174068887Y-115607089D01*
X174119089Y-115472488D01*
X174119090Y-115472485D01*
X174119091Y-115472483D01*
X174125500Y-115412873D01*
X174125499Y-114047128D01*
X174119091Y-113987517D01*
X174080054Y-113882852D01*
X174068797Y-113852670D01*
X173982549Y-113737458D01*
X173982548Y-113737457D01*
X173982546Y-113737454D01*
X173979594Y-113735244D01*
X173867329Y-113651202D01*
X173732488Y-113600910D01*
X173732483Y-113600909D01*
X173732481Y-113600908D01*
X173732477Y-113600908D01*
X173701249Y-113597550D01*
X173672873Y-113594500D01*
X173672870Y-113594500D01*
X172307133Y-113594500D01*
X172307129Y-113594500D01*
X172307128Y-113594501D01*
X172302486Y-113595000D01*
X172247519Y-113600908D01*
X172247514Y-113600909D01*
X172112670Y-113651202D01*
X171997458Y-113737450D01*
X171997450Y-113737458D01*
X171911202Y-113852670D01*
X171860910Y-113987511D01*
X171860908Y-113987522D01*
X171854500Y-114047129D01*
X171854500Y-115412866D01*
X171854501Y-115412870D01*
X171860908Y-115472480D01*
X171860909Y-115472485D01*
X171911202Y-115607329D01*
X171980685Y-115700146D01*
X171993608Y-115717409D01*
X171997922Y-115723171D01*
X172017659Y-115781086D01*
X171999585Y-115839540D01*
X171950604Y-115876208D01*
X171918669Y-115881500D01*
X171521331Y-115881500D01*
X171463140Y-115862593D01*
X171427176Y-115813093D01*
X171427176Y-115751907D01*
X171442078Y-115723171D01*
X171445709Y-115718321D01*
X171528796Y-115607331D01*
X171528887Y-115607089D01*
X171579089Y-115472488D01*
X171579090Y-115472485D01*
X171579091Y-115472483D01*
X171585500Y-115412873D01*
X171585499Y-114047128D01*
X171579091Y-113987517D01*
X171540054Y-113882852D01*
X171528797Y-113852670D01*
X171442549Y-113737458D01*
X171442548Y-113737457D01*
X171442546Y-113737454D01*
X171439594Y-113735244D01*
X171327329Y-113651202D01*
X171192488Y-113600910D01*
X171192483Y-113600909D01*
X171192481Y-113600908D01*
X171192477Y-113600908D01*
X171161249Y-113597550D01*
X171132873Y-113594500D01*
X171132870Y-113594500D01*
X169767133Y-113594500D01*
X169767129Y-113594500D01*
X169767128Y-113594501D01*
X169762486Y-113595000D01*
X169707519Y-113600908D01*
X169707514Y-113600909D01*
X169572670Y-113651202D01*
X169457458Y-113737450D01*
X169457450Y-113737458D01*
X169371202Y-113852670D01*
X169320910Y-113987511D01*
X169320908Y-113987522D01*
X169314500Y-114047129D01*
X169314500Y-115412866D01*
X169314501Y-115412870D01*
X169320908Y-115472480D01*
X169320909Y-115472485D01*
X169371202Y-115607329D01*
X169440685Y-115700146D01*
X169453608Y-115717409D01*
X169457922Y-115723171D01*
X169477659Y-115781086D01*
X169459585Y-115839540D01*
X169410604Y-115876208D01*
X169378669Y-115881500D01*
X168981331Y-115881500D01*
X168923140Y-115862593D01*
X168887176Y-115813093D01*
X168887176Y-115751907D01*
X168902078Y-115723171D01*
X168905709Y-115718321D01*
X168988796Y-115607331D01*
X168988887Y-115607089D01*
X169039089Y-115472488D01*
X169039090Y-115472485D01*
X169039091Y-115472483D01*
X169045500Y-115412873D01*
X169045499Y-114047128D01*
X169039091Y-113987517D01*
X169000054Y-113882852D01*
X168988797Y-113852670D01*
X168902549Y-113737458D01*
X168902548Y-113737457D01*
X168902546Y-113737454D01*
X168899594Y-113735244D01*
X168787329Y-113651202D01*
X168652488Y-113600910D01*
X168652483Y-113600909D01*
X168652481Y-113600908D01*
X168652477Y-113600908D01*
X168621249Y-113597550D01*
X168592873Y-113594500D01*
X168592870Y-113594500D01*
X167227133Y-113594500D01*
X167227129Y-113594500D01*
X167227128Y-113594501D01*
X167222486Y-113595000D01*
X167167519Y-113600908D01*
X167167514Y-113600909D01*
X167032670Y-113651202D01*
X166917458Y-113737450D01*
X166917450Y-113737458D01*
X166831202Y-113852670D01*
X166780910Y-113987511D01*
X166780908Y-113987522D01*
X166774500Y-114047129D01*
X166774500Y-115412866D01*
X166774501Y-115412870D01*
X166780908Y-115472480D01*
X166780909Y-115472485D01*
X166831202Y-115607329D01*
X166900685Y-115700146D01*
X166913608Y-115717409D01*
X166917922Y-115723171D01*
X166937659Y-115781086D01*
X166919585Y-115839540D01*
X166870604Y-115876208D01*
X166838669Y-115881500D01*
X166441331Y-115881500D01*
X166383140Y-115862593D01*
X166347176Y-115813093D01*
X166347176Y-115751907D01*
X166362078Y-115723171D01*
X166365709Y-115718321D01*
X166448796Y-115607331D01*
X166448887Y-115607089D01*
X166499089Y-115472488D01*
X166499090Y-115472485D01*
X166499091Y-115472483D01*
X166505500Y-115412873D01*
X166505499Y-114047128D01*
X166499091Y-113987517D01*
X166460054Y-113882852D01*
X166448797Y-113852670D01*
X166362549Y-113737458D01*
X166362548Y-113737457D01*
X166362546Y-113737454D01*
X166359594Y-113735244D01*
X166247329Y-113651202D01*
X166112488Y-113600910D01*
X166112483Y-113600909D01*
X166112481Y-113600908D01*
X166112477Y-113600908D01*
X166081249Y-113597550D01*
X166052873Y-113594500D01*
X166052870Y-113594500D01*
X164687133Y-113594500D01*
X164687129Y-113594500D01*
X164687128Y-113594501D01*
X164682486Y-113595000D01*
X164627519Y-113600908D01*
X164627514Y-113600909D01*
X164492670Y-113651202D01*
X164377458Y-113737450D01*
X164377450Y-113737458D01*
X164291202Y-113852670D01*
X164240910Y-113987511D01*
X164240908Y-113987522D01*
X164234500Y-114047129D01*
X164234500Y-115412866D01*
X164234501Y-115412870D01*
X164240908Y-115472480D01*
X164240909Y-115472485D01*
X164291202Y-115607329D01*
X164360685Y-115700146D01*
X164373608Y-115717409D01*
X164377922Y-115723171D01*
X164397659Y-115781086D01*
X164379585Y-115839540D01*
X164330604Y-115876208D01*
X164298669Y-115881500D01*
X163901331Y-115881500D01*
X163843140Y-115862593D01*
X163807176Y-115813093D01*
X163807176Y-115751907D01*
X163822078Y-115723171D01*
X163825709Y-115718321D01*
X163908796Y-115607331D01*
X163908887Y-115607089D01*
X163959089Y-115472488D01*
X163959090Y-115472485D01*
X163959091Y-115472483D01*
X163965500Y-115412873D01*
X163965499Y-114047128D01*
X163959091Y-113987517D01*
X163920054Y-113882852D01*
X163908797Y-113852670D01*
X163822549Y-113737458D01*
X163822548Y-113737457D01*
X163822546Y-113737454D01*
X163819594Y-113735244D01*
X163707329Y-113651202D01*
X163572488Y-113600910D01*
X163572483Y-113600909D01*
X163572481Y-113600908D01*
X163572477Y-113600908D01*
X163541249Y-113597550D01*
X163512873Y-113594500D01*
X163512870Y-113594500D01*
X162147133Y-113594500D01*
X162147129Y-113594500D01*
X162147128Y-113594501D01*
X162142486Y-113595000D01*
X162087519Y-113600908D01*
X162087514Y-113600909D01*
X161952670Y-113651202D01*
X161837458Y-113737450D01*
X161837450Y-113737458D01*
X161751202Y-113852670D01*
X161700910Y-113987511D01*
X161700908Y-113987522D01*
X161694500Y-114047129D01*
X161694500Y-115412866D01*
X161694501Y-115412870D01*
X161700908Y-115472480D01*
X161700909Y-115472485D01*
X161751202Y-115607329D01*
X161820685Y-115700146D01*
X161833608Y-115717409D01*
X161837922Y-115723171D01*
X161857659Y-115781086D01*
X161839585Y-115839540D01*
X161790604Y-115876208D01*
X161758669Y-115881500D01*
X161361331Y-115881500D01*
X161303140Y-115862593D01*
X161267176Y-115813093D01*
X161267176Y-115751907D01*
X161282078Y-115723171D01*
X161285709Y-115718321D01*
X161368796Y-115607331D01*
X161368887Y-115607089D01*
X161419089Y-115472488D01*
X161419090Y-115472485D01*
X161419091Y-115472483D01*
X161425500Y-115412873D01*
X161425499Y-114047128D01*
X161419091Y-113987517D01*
X161380054Y-113882852D01*
X161368797Y-113852670D01*
X161282549Y-113737458D01*
X161282548Y-113737457D01*
X161282546Y-113737454D01*
X161279594Y-113735244D01*
X161167329Y-113651202D01*
X161032488Y-113600910D01*
X161032483Y-113600909D01*
X161032481Y-113600908D01*
X161032477Y-113600908D01*
X161001249Y-113597550D01*
X160972873Y-113594500D01*
X160972870Y-113594500D01*
X159607133Y-113594500D01*
X159607129Y-113594500D01*
X159607128Y-113594501D01*
X159602486Y-113595000D01*
X159547519Y-113600908D01*
X159547514Y-113600909D01*
X159412670Y-113651202D01*
X159297458Y-113737450D01*
X159297450Y-113737458D01*
X159211202Y-113852670D01*
X159160910Y-113987511D01*
X159160908Y-113987522D01*
X159154500Y-114047129D01*
X159154500Y-115412866D01*
X159154501Y-115412870D01*
X159160908Y-115472480D01*
X159160909Y-115472485D01*
X159211202Y-115607329D01*
X159280685Y-115700146D01*
X159293608Y-115717409D01*
X159297922Y-115723171D01*
X159317659Y-115781086D01*
X159299585Y-115839540D01*
X159250604Y-115876208D01*
X159218669Y-115881500D01*
X158821331Y-115881500D01*
X158763140Y-115862593D01*
X158727176Y-115813093D01*
X158727176Y-115751907D01*
X158742078Y-115723171D01*
X158745709Y-115718321D01*
X158828796Y-115607331D01*
X158828887Y-115607089D01*
X158879089Y-115472488D01*
X158879090Y-115472485D01*
X158879091Y-115472483D01*
X158885500Y-115412873D01*
X158885499Y-114047128D01*
X158879091Y-113987517D01*
X158840054Y-113882852D01*
X158828797Y-113852670D01*
X158742549Y-113737458D01*
X158742548Y-113737457D01*
X158742546Y-113737454D01*
X158739594Y-113735244D01*
X158627329Y-113651202D01*
X158492488Y-113600910D01*
X158492483Y-113600909D01*
X158492481Y-113600908D01*
X158492477Y-113600908D01*
X158461249Y-113597550D01*
X158432873Y-113594500D01*
X158432870Y-113594500D01*
X157067133Y-113594500D01*
X157067129Y-113594500D01*
X157067128Y-113594501D01*
X157062486Y-113595000D01*
X157007519Y-113600908D01*
X157007514Y-113600909D01*
X156872670Y-113651202D01*
X156757458Y-113737450D01*
X156757450Y-113737458D01*
X156671202Y-113852670D01*
X156620910Y-113987511D01*
X156620908Y-113987522D01*
X156614500Y-114047129D01*
X156614500Y-115412866D01*
X156614501Y-115412870D01*
X156620908Y-115472480D01*
X156620909Y-115472485D01*
X156671202Y-115607329D01*
X156740685Y-115700146D01*
X156753608Y-115717409D01*
X156757922Y-115723171D01*
X156777659Y-115781086D01*
X156759585Y-115839540D01*
X156710604Y-115876208D01*
X156678669Y-115881500D01*
X156281331Y-115881500D01*
X156223140Y-115862593D01*
X156187176Y-115813093D01*
X156187176Y-115751907D01*
X156202078Y-115723171D01*
X156205709Y-115718321D01*
X156288796Y-115607331D01*
X156288887Y-115607089D01*
X156339089Y-115472488D01*
X156339090Y-115472485D01*
X156339091Y-115472483D01*
X156345500Y-115412873D01*
X156345499Y-114047128D01*
X156339091Y-113987517D01*
X156300054Y-113882852D01*
X156288797Y-113852670D01*
X156202549Y-113737458D01*
X156202548Y-113737457D01*
X156202546Y-113737454D01*
X156199594Y-113735244D01*
X156087329Y-113651202D01*
X155952488Y-113600910D01*
X155952483Y-113600909D01*
X155952481Y-113600908D01*
X155952477Y-113600908D01*
X155921249Y-113597550D01*
X155892873Y-113594500D01*
X155892870Y-113594500D01*
X154527133Y-113594500D01*
X154527129Y-113594500D01*
X154527128Y-113594501D01*
X154522486Y-113595000D01*
X154467519Y-113600908D01*
X154467514Y-113600909D01*
X154332670Y-113651202D01*
X154217458Y-113737450D01*
X154217450Y-113737458D01*
X154131202Y-113852670D01*
X154080910Y-113987511D01*
X154080908Y-113987522D01*
X154074500Y-114047129D01*
X154074500Y-115412866D01*
X154074501Y-115412870D01*
X154080908Y-115472480D01*
X154080909Y-115472485D01*
X154131202Y-115607329D01*
X154200685Y-115700146D01*
X154213608Y-115717409D01*
X154217922Y-115723171D01*
X154237659Y-115781086D01*
X154219585Y-115839540D01*
X154170604Y-115876208D01*
X154138669Y-115881500D01*
X153741331Y-115881500D01*
X153683140Y-115862593D01*
X153647176Y-115813093D01*
X153647176Y-115751907D01*
X153662078Y-115723171D01*
X153665709Y-115718321D01*
X153748796Y-115607331D01*
X153748887Y-115607089D01*
X153799089Y-115472488D01*
X153799090Y-115472485D01*
X153799091Y-115472483D01*
X153805500Y-115412873D01*
X153805499Y-114047128D01*
X153799091Y-113987517D01*
X153760054Y-113882852D01*
X153748797Y-113852670D01*
X153662549Y-113737458D01*
X153662548Y-113737457D01*
X153662546Y-113737454D01*
X153659594Y-113735244D01*
X153547329Y-113651202D01*
X153412488Y-113600910D01*
X153412483Y-113600909D01*
X153412481Y-113600908D01*
X153412477Y-113600908D01*
X153381249Y-113597550D01*
X153352873Y-113594500D01*
X153352870Y-113594500D01*
X151987133Y-113594500D01*
X151987129Y-113594500D01*
X151987128Y-113594501D01*
X151982486Y-113595000D01*
X151927519Y-113600908D01*
X151927514Y-113600909D01*
X151792670Y-113651202D01*
X151677458Y-113737450D01*
X151677450Y-113737458D01*
X151591202Y-113852670D01*
X151540910Y-113987511D01*
X151540908Y-113987522D01*
X151534500Y-114047129D01*
X151534500Y-115412866D01*
X151534501Y-115412870D01*
X151540908Y-115472480D01*
X151540909Y-115472485D01*
X151591202Y-115607329D01*
X151660685Y-115700146D01*
X151673608Y-115717409D01*
X151677922Y-115723171D01*
X151697659Y-115781086D01*
X151679585Y-115839540D01*
X151630604Y-115876208D01*
X151598669Y-115881500D01*
X151201331Y-115881500D01*
X151143140Y-115862593D01*
X151107176Y-115813093D01*
X151107176Y-115751907D01*
X151122078Y-115723171D01*
X151125709Y-115718321D01*
X151208796Y-115607331D01*
X151208887Y-115607089D01*
X151259089Y-115472488D01*
X151259090Y-115472485D01*
X151259091Y-115472483D01*
X151265500Y-115412873D01*
X151265499Y-114047128D01*
X151259091Y-113987517D01*
X151220054Y-113882852D01*
X151208797Y-113852670D01*
X151122549Y-113737458D01*
X151122548Y-113737457D01*
X151122546Y-113737454D01*
X151119594Y-113735244D01*
X151007329Y-113651202D01*
X150872488Y-113600910D01*
X150872483Y-113600909D01*
X150872481Y-113600908D01*
X150872477Y-113600908D01*
X150841249Y-113597550D01*
X150812873Y-113594500D01*
X150812870Y-113594500D01*
X149447133Y-113594500D01*
X149447129Y-113594500D01*
X149447128Y-113594501D01*
X149442486Y-113595000D01*
X149387519Y-113600908D01*
X149387514Y-113600909D01*
X149252670Y-113651202D01*
X149137458Y-113737450D01*
X149137450Y-113737458D01*
X149051202Y-113852670D01*
X149000910Y-113987511D01*
X149000908Y-113987522D01*
X148994500Y-114047129D01*
X148994500Y-115412866D01*
X148994501Y-115412870D01*
X149000908Y-115472480D01*
X149000909Y-115472485D01*
X149051202Y-115607329D01*
X149120685Y-115700146D01*
X149133608Y-115717409D01*
X149137922Y-115723171D01*
X149157659Y-115781086D01*
X149139585Y-115839540D01*
X149090604Y-115876208D01*
X149058669Y-115881500D01*
X148600580Y-115881500D01*
X148542389Y-115862593D01*
X148506425Y-115813093D01*
X148502917Y-115784340D01*
X147874359Y-115155782D01*
X147977869Y-115066090D01*
X148012940Y-115011517D01*
X148642733Y-115641310D01*
X148668352Y-115607089D01*
X148718596Y-115472378D01*
X148718598Y-115472370D01*
X148725000Y-115412824D01*
X148725000Y-114047175D01*
X148718598Y-113987629D01*
X148718596Y-113987618D01*
X148668354Y-113852913D01*
X148642733Y-113818688D01*
X148012939Y-114448481D01*
X147977869Y-114393910D01*
X147874358Y-114304216D01*
X148501310Y-113677265D01*
X148467086Y-113651645D01*
X148467087Y-113651645D01*
X148332381Y-113601403D01*
X148332370Y-113601401D01*
X148272824Y-113595000D01*
X146907176Y-113595000D01*
X146847629Y-113601401D01*
X146847618Y-113601403D01*
X146712912Y-113651645D01*
X146678688Y-113677265D01*
X147305640Y-114304217D01*
X147202131Y-114393910D01*
X147167059Y-114448482D01*
X146537265Y-113818688D01*
X146511645Y-113852912D01*
X146461403Y-113987618D01*
X146461401Y-113987629D01*
X146455000Y-114047175D01*
X146455000Y-115412824D01*
X146454999Y-115412824D01*
X146461401Y-115472370D01*
X146461403Y-115472381D01*
X146511645Y-115607086D01*
X146537265Y-115641310D01*
X147167058Y-115011516D01*
X147202131Y-115066090D01*
X147305639Y-115155781D01*
X146675592Y-115785829D01*
X146663457Y-115834830D01*
X146616648Y-115874233D01*
X146579418Y-115881500D01*
X146121331Y-115881500D01*
X146063140Y-115862593D01*
X146027176Y-115813093D01*
X146027176Y-115751907D01*
X146042078Y-115723171D01*
X146045709Y-115718321D01*
X146128796Y-115607331D01*
X146128887Y-115607089D01*
X146179089Y-115472488D01*
X146179090Y-115472485D01*
X146179091Y-115472483D01*
X146185500Y-115412873D01*
X146185499Y-114047128D01*
X146179091Y-113987517D01*
X146140054Y-113882852D01*
X146128797Y-113852670D01*
X146042549Y-113737458D01*
X146042548Y-113737457D01*
X146042546Y-113737454D01*
X146039594Y-113735244D01*
X145927329Y-113651202D01*
X145792488Y-113600910D01*
X145792483Y-113600909D01*
X145792481Y-113600908D01*
X145792477Y-113600908D01*
X145761249Y-113597550D01*
X145732873Y-113594500D01*
X145732870Y-113594500D01*
X144367133Y-113594500D01*
X144367129Y-113594500D01*
X144367128Y-113594501D01*
X144362486Y-113595000D01*
X144307519Y-113600908D01*
X144307514Y-113600909D01*
X144172670Y-113651202D01*
X144057458Y-113737450D01*
X144057450Y-113737458D01*
X143971202Y-113852670D01*
X143920910Y-113987511D01*
X143920908Y-113987522D01*
X143914500Y-114047129D01*
X143914500Y-115412866D01*
X143914501Y-115412870D01*
X143920908Y-115472480D01*
X143920909Y-115472485D01*
X143971202Y-115607329D01*
X144040685Y-115700146D01*
X144053608Y-115717409D01*
X144057922Y-115723171D01*
X144077659Y-115781086D01*
X144059585Y-115839540D01*
X144010604Y-115876208D01*
X143978669Y-115881500D01*
X143581331Y-115881500D01*
X143523140Y-115862593D01*
X143487176Y-115813093D01*
X143487176Y-115751907D01*
X143502078Y-115723171D01*
X143505709Y-115718321D01*
X143588796Y-115607331D01*
X143588887Y-115607089D01*
X143639089Y-115472488D01*
X143639090Y-115472485D01*
X143639091Y-115472483D01*
X143645500Y-115412873D01*
X143645499Y-114047128D01*
X143639091Y-113987517D01*
X143600054Y-113882852D01*
X143588797Y-113852670D01*
X143502549Y-113737458D01*
X143502548Y-113737457D01*
X143502546Y-113737454D01*
X143499594Y-113735244D01*
X143387329Y-113651202D01*
X143252488Y-113600910D01*
X143252483Y-113600909D01*
X143252481Y-113600908D01*
X143252477Y-113600908D01*
X143221249Y-113597550D01*
X143192873Y-113594500D01*
X143192870Y-113594500D01*
X141827133Y-113594500D01*
X141827129Y-113594500D01*
X141827128Y-113594501D01*
X141822486Y-113595000D01*
X141767519Y-113600908D01*
X141767514Y-113600909D01*
X141632670Y-113651202D01*
X141517458Y-113737450D01*
X141517450Y-113737458D01*
X141431202Y-113852670D01*
X141380910Y-113987511D01*
X141380908Y-113987522D01*
X141374500Y-114047129D01*
X141374500Y-115412866D01*
X141374501Y-115412870D01*
X141380908Y-115472480D01*
X141380909Y-115472485D01*
X141431202Y-115607329D01*
X141500685Y-115700146D01*
X141513608Y-115717409D01*
X141517922Y-115723171D01*
X141537659Y-115781086D01*
X141519585Y-115839540D01*
X141470604Y-115876208D01*
X141438669Y-115881500D01*
X141041331Y-115881500D01*
X140983140Y-115862593D01*
X140947176Y-115813093D01*
X140947176Y-115751907D01*
X140962078Y-115723171D01*
X140965709Y-115718321D01*
X141048796Y-115607331D01*
X141048887Y-115607089D01*
X141099089Y-115472488D01*
X141099090Y-115472485D01*
X141099091Y-115472483D01*
X141105500Y-115412873D01*
X141105499Y-114047128D01*
X141099091Y-113987517D01*
X141060054Y-113882852D01*
X141048797Y-113852670D01*
X140962549Y-113737458D01*
X140962548Y-113737457D01*
X140962546Y-113737454D01*
X140959594Y-113735244D01*
X140847329Y-113651202D01*
X140712488Y-113600910D01*
X140712483Y-113600909D01*
X140712481Y-113600908D01*
X140712477Y-113600908D01*
X140681249Y-113597550D01*
X140652873Y-113594500D01*
X140652870Y-113594500D01*
X139287133Y-113594500D01*
X139287129Y-113594500D01*
X139287128Y-113594501D01*
X139282486Y-113595000D01*
X139227519Y-113600908D01*
X139227514Y-113600909D01*
X139092670Y-113651202D01*
X138977458Y-113737450D01*
X138977450Y-113737458D01*
X138891202Y-113852670D01*
X138840910Y-113987511D01*
X138840908Y-113987522D01*
X138834500Y-114047129D01*
X138834500Y-115412866D01*
X138834501Y-115412870D01*
X138840908Y-115472480D01*
X138840909Y-115472485D01*
X138891202Y-115607329D01*
X138960685Y-115700146D01*
X138973608Y-115717409D01*
X138977922Y-115723171D01*
X138997659Y-115781086D01*
X138979585Y-115839540D01*
X138930604Y-115876208D01*
X138898669Y-115881500D01*
X128601280Y-115881500D01*
X128600029Y-115881338D01*
X128562191Y-115881494D01*
X128559201Y-115881416D01*
X128366252Y-115870543D01*
X128268466Y-115865032D01*
X128262530Y-115864336D01*
X127977387Y-115813295D01*
X127971573Y-115811887D01*
X127694660Y-115726849D01*
X127689057Y-115724750D01*
X127425258Y-115607331D01*
X127424410Y-115606953D01*
X127419104Y-115604196D01*
X127170594Y-115455365D01*
X127165656Y-115451987D01*
X126936886Y-115274278D01*
X126932391Y-115270329D01*
X126922454Y-115260474D01*
X126726718Y-115066349D01*
X126722732Y-115061888D01*
X126715218Y-115052379D01*
X126543142Y-114834604D01*
X126539724Y-114829696D01*
X126388835Y-114582414D01*
X126386033Y-114577128D01*
X126275094Y-114333338D01*
X126266049Y-114313461D01*
X126263914Y-114307902D01*
X126176582Y-114031682D01*
X126175128Y-114025884D01*
X126174129Y-114020556D01*
X126121729Y-113741169D01*
X126120985Y-113735244D01*
X126117236Y-113677265D01*
X126112689Y-113606948D01*
X126112591Y-113604224D01*
X126112386Y-113576583D01*
X126786600Y-113576583D01*
X126826238Y-113839565D01*
X126826240Y-113839575D01*
X126904633Y-114093716D01*
X127006696Y-114305653D01*
X127020029Y-114333338D01*
X127169850Y-114553085D01*
X127169853Y-114553088D01*
X127169855Y-114553091D01*
X127350747Y-114748046D01*
X127350759Y-114748057D01*
X127558676Y-114913865D01*
X127558685Y-114913872D01*
X127558689Y-114913874D01*
X127558690Y-114913875D01*
X127789001Y-115046845D01*
X127789005Y-115046847D01*
X127789014Y-115046852D01*
X128036590Y-115144019D01*
X128295883Y-115203201D01*
X128362155Y-115208167D01*
X128494691Y-115218100D01*
X128494699Y-115218100D01*
X128627509Y-115218100D01*
X128749849Y-115208931D01*
X128826317Y-115203201D01*
X129085610Y-115144019D01*
X129333186Y-115046852D01*
X129563515Y-114913872D01*
X129771451Y-114748048D01*
X129952350Y-114553085D01*
X130102171Y-114333338D01*
X130217567Y-114093716D01*
X130295961Y-113839571D01*
X130335600Y-113576583D01*
X180126600Y-113576583D01*
X180166238Y-113839565D01*
X180166240Y-113839575D01*
X180244633Y-114093716D01*
X180346696Y-114305653D01*
X180360029Y-114333338D01*
X180509850Y-114553085D01*
X180509853Y-114553088D01*
X180509855Y-114553091D01*
X180690747Y-114748046D01*
X180690759Y-114748057D01*
X180898676Y-114913865D01*
X180898685Y-114913872D01*
X180898689Y-114913874D01*
X180898690Y-114913875D01*
X181129001Y-115046845D01*
X181129005Y-115046847D01*
X181129014Y-115046852D01*
X181376590Y-115144019D01*
X181635883Y-115203201D01*
X181702154Y-115208167D01*
X181834691Y-115218100D01*
X181834699Y-115218100D01*
X181967509Y-115218100D01*
X182089849Y-115208931D01*
X182166317Y-115203201D01*
X182425610Y-115144019D01*
X182673186Y-115046852D01*
X182903515Y-114913872D01*
X183111451Y-114748048D01*
X183292350Y-114553085D01*
X183442171Y-114333338D01*
X183557567Y-114093716D01*
X183635961Y-113839571D01*
X183675600Y-113576580D01*
X183675600Y-113310620D01*
X183635961Y-113047629D01*
X183557567Y-112793484D01*
X183442171Y-112553862D01*
X183292350Y-112334115D01*
X183159115Y-112190522D01*
X183111452Y-112139153D01*
X183111440Y-112139142D01*
X182903523Y-111973334D01*
X182903509Y-111973324D01*
X182673198Y-111840354D01*
X182673189Y-111840349D01*
X182673186Y-111840348D01*
X182673182Y-111840346D01*
X182673179Y-111840345D01*
X182425612Y-111743181D01*
X182166321Y-111684000D01*
X182166312Y-111683998D01*
X181967509Y-111669100D01*
X181967501Y-111669100D01*
X181834699Y-111669100D01*
X181834691Y-111669100D01*
X181635887Y-111683998D01*
X181635878Y-111684000D01*
X181376587Y-111743181D01*
X181129020Y-111840345D01*
X181129001Y-111840354D01*
X180898690Y-111973324D01*
X180898676Y-111973334D01*
X180690759Y-112139142D01*
X180690747Y-112139153D01*
X180509855Y-112334108D01*
X180509850Y-112334114D01*
X180509850Y-112334115D01*
X180360029Y-112553862D01*
X180360027Y-112553865D01*
X180360025Y-112553869D01*
X180244633Y-112793483D01*
X180166240Y-113047624D01*
X180166238Y-113047634D01*
X180126600Y-113310616D01*
X180126600Y-113576583D01*
X130335600Y-113576583D01*
X130335600Y-113576580D01*
X130335600Y-113310620D01*
X130295961Y-113047629D01*
X130217567Y-112793484D01*
X130102171Y-112553862D01*
X129952350Y-112334115D01*
X129819115Y-112190522D01*
X129771452Y-112139153D01*
X129771440Y-112139142D01*
X129563523Y-111973334D01*
X129563509Y-111973324D01*
X129333198Y-111840354D01*
X129333189Y-111840349D01*
X129333186Y-111840348D01*
X129333182Y-111840346D01*
X129333179Y-111840345D01*
X129085612Y-111743181D01*
X128826321Y-111684000D01*
X128826312Y-111683998D01*
X128627509Y-111669100D01*
X128627501Y-111669100D01*
X128494699Y-111669100D01*
X128494691Y-111669100D01*
X128295887Y-111683998D01*
X128295878Y-111684000D01*
X128036587Y-111743181D01*
X127789020Y-111840345D01*
X127789001Y-111840354D01*
X127558690Y-111973324D01*
X127558676Y-111973334D01*
X127350759Y-112139142D01*
X127350747Y-112139153D01*
X127169855Y-112334108D01*
X127169850Y-112334114D01*
X127169850Y-112334115D01*
X127020029Y-112553862D01*
X127020027Y-112553865D01*
X127020025Y-112553869D01*
X126904633Y-112793483D01*
X126826240Y-113047624D01*
X126826238Y-113047634D01*
X126786600Y-113310616D01*
X126786600Y-113576583D01*
X126112386Y-113576583D01*
X126102100Y-112190656D01*
X126102100Y-90350405D01*
X126121007Y-90292215D01*
X126170507Y-90256251D01*
X126231693Y-90256251D01*
X126281193Y-90292215D01*
X126299253Y-90337484D01*
X126308361Y-90406665D01*
X126314955Y-90456759D01*
X126314957Y-90456766D01*
X126375462Y-90602838D01*
X126375462Y-90602839D01*
X126471713Y-90728276D01*
X126471718Y-90728282D01*
X126471722Y-90728285D01*
X126471723Y-90728286D01*
X126500634Y-90750470D01*
X126505508Y-90754744D01*
X130070503Y-94319738D01*
X130098280Y-94374255D01*
X130099499Y-94389742D01*
X130099499Y-94460456D01*
X130080592Y-94518647D01*
X130031092Y-94554611D01*
X129969906Y-94554611D01*
X129927927Y-94527793D01*
X129771452Y-94359153D01*
X129771440Y-94359142D01*
X129563523Y-94193334D01*
X129563509Y-94193324D01*
X129333198Y-94060354D01*
X129333189Y-94060349D01*
X129333186Y-94060348D01*
X129333182Y-94060346D01*
X129333179Y-94060345D01*
X129085612Y-93963181D01*
X128826321Y-93904000D01*
X128826312Y-93903998D01*
X128627509Y-93889100D01*
X128627501Y-93889100D01*
X128494699Y-93889100D01*
X128494691Y-93889100D01*
X128295887Y-93903998D01*
X128295878Y-93904000D01*
X128036587Y-93963181D01*
X127789020Y-94060345D01*
X127789001Y-94060354D01*
X127558690Y-94193324D01*
X127558676Y-94193334D01*
X127350759Y-94359142D01*
X127350747Y-94359153D01*
X127169855Y-94554108D01*
X127169850Y-94554114D01*
X127169850Y-94554115D01*
X127020029Y-94773862D01*
X127020027Y-94773865D01*
X127020025Y-94773869D01*
X126904633Y-95013483D01*
X126826240Y-95267624D01*
X126826238Y-95267634D01*
X126786600Y-95530616D01*
X126786600Y-95796583D01*
X126826238Y-96059565D01*
X126826240Y-96059575D01*
X126893556Y-96277805D01*
X126904633Y-96313716D01*
X127020029Y-96553338D01*
X127169850Y-96773085D01*
X127169853Y-96773088D01*
X127169855Y-96773091D01*
X127350747Y-96968046D01*
X127350759Y-96968057D01*
X127558676Y-97133865D01*
X127558685Y-97133872D01*
X127558689Y-97133874D01*
X127558690Y-97133875D01*
X127789001Y-97266845D01*
X127789005Y-97266847D01*
X127789014Y-97266852D01*
X127922814Y-97319365D01*
X127996500Y-97348285D01*
X128036590Y-97364019D01*
X128295883Y-97423201D01*
X128362155Y-97428167D01*
X128494691Y-97438100D01*
X128494699Y-97438100D01*
X128627509Y-97438100D01*
X128749849Y-97428931D01*
X128826317Y-97423201D01*
X129085610Y-97364019D01*
X129333186Y-97266852D01*
X129563515Y-97133872D01*
X129771451Y-96968048D01*
X129927926Y-96799407D01*
X129981367Y-96769610D01*
X130042114Y-96776915D01*
X130086966Y-96818532D01*
X130099499Y-96866744D01*
X130099499Y-99110256D01*
X130080592Y-99168447D01*
X130070503Y-99180260D01*
X128805510Y-100445253D01*
X128800638Y-100449525D01*
X128771719Y-100471717D01*
X128771712Y-100471724D01*
X128747550Y-100503214D01*
X128675464Y-100597157D01*
X128675462Y-100597161D01*
X128614957Y-100743233D01*
X128614955Y-100743241D01*
X128594318Y-100899999D01*
X128594318Y-100900000D01*
X128599076Y-100936140D01*
X128599500Y-100942608D01*
X128599500Y-103757390D01*
X128599076Y-103763858D01*
X128594318Y-103799999D01*
X128594318Y-103800000D01*
X128599500Y-103839361D01*
X128614955Y-103956758D01*
X128614957Y-103956766D01*
X128675462Y-104102838D01*
X128675462Y-104102839D01*
X128769805Y-104225789D01*
X128771718Y-104228282D01*
X128771722Y-104228285D01*
X128771723Y-104228286D01*
X128800634Y-104250470D01*
X128805508Y-104254744D01*
X129395255Y-104844491D01*
X129399529Y-104849365D01*
X129421718Y-104878282D01*
X129519445Y-104953270D01*
X129547159Y-104974536D01*
X129547160Y-104974536D01*
X129547161Y-104974537D01*
X129565077Y-104981958D01*
X129693238Y-105035044D01*
X129810639Y-105050500D01*
X129849999Y-105055682D01*
X129850000Y-105055682D01*
X129850001Y-105055682D01*
X129886141Y-105050924D01*
X129892609Y-105050500D01*
X130465501Y-105050500D01*
X130523692Y-105069407D01*
X130559656Y-105118907D01*
X130564501Y-105149500D01*
X130564501Y-105797870D01*
X130570908Y-105857480D01*
X130570909Y-105857485D01*
X130621202Y-105992329D01*
X130684725Y-106077184D01*
X130707454Y-106107546D01*
X130707457Y-106107548D01*
X130707458Y-106107549D01*
X130822670Y-106193797D01*
X130957511Y-106244089D01*
X130957512Y-106244089D01*
X130957517Y-106244091D01*
X131017127Y-106250500D01*
X135112872Y-106250499D01*
X135172483Y-106244091D01*
X135254239Y-106213598D01*
X135307329Y-106193797D01*
X135307329Y-106193796D01*
X135307331Y-106193796D01*
X135422546Y-106107546D01*
X135508796Y-105992331D01*
X135559091Y-105857483D01*
X135565500Y-105797873D01*
X135565500Y-105767824D01*
X146744999Y-105767824D01*
X146751401Y-105827370D01*
X146751403Y-105827381D01*
X146801646Y-105962088D01*
X146801647Y-105962090D01*
X146887807Y-106077184D01*
X146887815Y-106077192D01*
X147002909Y-106163352D01*
X147002911Y-106163353D01*
X147137618Y-106213596D01*
X147137629Y-106213598D01*
X147197176Y-106220000D01*
X149144999Y-106220000D01*
X149145000Y-106219999D01*
X149345000Y-106219999D01*
X149345001Y-106220000D01*
X151292824Y-106220000D01*
X151352370Y-106213598D01*
X151352381Y-106213596D01*
X151487088Y-106163353D01*
X151487090Y-106163352D01*
X151602184Y-106077192D01*
X151602192Y-106077184D01*
X151688352Y-105962090D01*
X151688353Y-105962088D01*
X151738596Y-105827381D01*
X151738598Y-105827370D01*
X151745000Y-105767824D01*
X151745000Y-104520001D01*
X151744999Y-104520000D01*
X149345001Y-104520000D01*
X149345000Y-104520001D01*
X149345000Y-106219999D01*
X149145000Y-106219999D01*
X149145000Y-104520001D01*
X149144999Y-104520000D01*
X146745001Y-104520000D01*
X146745000Y-104520001D01*
X146745000Y-105767824D01*
X146744999Y-105767824D01*
X135565500Y-105767824D01*
X135565500Y-104500939D01*
X136470630Y-104500939D01*
X136501443Y-104702067D01*
X136501444Y-104702071D01*
X136572114Y-104892887D01*
X136583422Y-104911029D01*
X136679745Y-105065567D01*
X136679747Y-105065569D01*
X136679748Y-105065571D01*
X136701905Y-105088880D01*
X136790713Y-105182306D01*
X136819941Y-105213053D01*
X136819943Y-105213054D01*
X136819946Y-105213057D01*
X136985635Y-105328379D01*
X136986951Y-105329295D01*
X137173940Y-105409539D01*
X137173942Y-105409540D01*
X137373259Y-105450500D01*
X137373262Y-105450500D01*
X137525744Y-105450500D01*
X137551381Y-105447892D01*
X137677438Y-105435074D01*
X137871588Y-105374159D01*
X138049502Y-105275409D01*
X138203895Y-105142866D01*
X138328448Y-104981958D01*
X138418060Y-104799271D01*
X138469063Y-104602285D01*
X138474203Y-104500939D01*
X143970630Y-104500939D01*
X144001443Y-104702067D01*
X144001444Y-104702071D01*
X144072114Y-104892887D01*
X144083422Y-104911029D01*
X144179745Y-105065567D01*
X144179747Y-105065569D01*
X144179748Y-105065571D01*
X144201905Y-105088880D01*
X144290713Y-105182306D01*
X144319941Y-105213053D01*
X144319943Y-105213054D01*
X144319946Y-105213057D01*
X144485635Y-105328379D01*
X144486951Y-105329295D01*
X144673940Y-105409539D01*
X144673942Y-105409540D01*
X144873259Y-105450500D01*
X144873262Y-105450500D01*
X145025744Y-105450500D01*
X145051381Y-105447892D01*
X145177438Y-105435074D01*
X145371588Y-105374159D01*
X145549502Y-105275409D01*
X145703895Y-105142866D01*
X145828448Y-104981958D01*
X145918060Y-104799271D01*
X145969063Y-104602285D01*
X145979369Y-104399064D01*
X145967257Y-104319999D01*
X146745000Y-104319999D01*
X146745001Y-104320000D01*
X149144999Y-104320000D01*
X149145000Y-104319999D01*
X149145000Y-104319998D01*
X149345000Y-104319998D01*
X149345001Y-104320000D01*
X151744999Y-104320000D01*
X151745000Y-104319999D01*
X151745000Y-103072175D01*
X151738598Y-103012629D01*
X151738596Y-103012618D01*
X151688353Y-102877911D01*
X151688352Y-102877909D01*
X151602192Y-102762815D01*
X151602184Y-102762807D01*
X151487090Y-102676647D01*
X151487088Y-102676646D01*
X151352381Y-102626403D01*
X151352370Y-102626401D01*
X151292824Y-102620000D01*
X149345001Y-102620000D01*
X149345000Y-102620001D01*
X149345000Y-104319998D01*
X149145000Y-104319998D01*
X149145000Y-102620000D01*
X147197176Y-102620000D01*
X147137629Y-102626401D01*
X147137618Y-102626403D01*
X147002911Y-102676646D01*
X147002909Y-102676647D01*
X146887815Y-102762807D01*
X146887807Y-102762815D01*
X146801647Y-102877909D01*
X146801646Y-102877911D01*
X146751403Y-103012618D01*
X146751401Y-103012629D01*
X146745000Y-103072175D01*
X146745000Y-104319999D01*
X145967257Y-104319999D01*
X145948556Y-104197929D01*
X145877886Y-104007113D01*
X145779660Y-103849523D01*
X145770254Y-103834432D01*
X145770249Y-103834426D01*
X145766605Y-103830593D01*
X145700108Y-103760638D01*
X145630063Y-103686951D01*
X145630053Y-103686942D01*
X145463054Y-103570708D01*
X145463051Y-103570706D01*
X145463049Y-103570705D01*
X145276058Y-103490460D01*
X145276060Y-103490460D01*
X145196331Y-103474076D01*
X145076741Y-103449500D01*
X144924258Y-103449500D01*
X144924256Y-103449500D01*
X144772561Y-103464926D01*
X144578410Y-103525841D01*
X144578409Y-103525842D01*
X144400501Y-103624588D01*
X144400498Y-103624590D01*
X144246109Y-103757129D01*
X144121549Y-103918045D01*
X144041865Y-104080496D01*
X144031940Y-104100729D01*
X143993421Y-104249500D01*
X143980936Y-104297719D01*
X143970631Y-104500936D01*
X143970630Y-104500939D01*
X138474203Y-104500939D01*
X138479369Y-104399064D01*
X138448556Y-104197929D01*
X138377886Y-104007113D01*
X138279660Y-103849523D01*
X138270254Y-103834432D01*
X138270249Y-103834426D01*
X138266605Y-103830593D01*
X138200108Y-103760638D01*
X138130063Y-103686951D01*
X138130053Y-103686942D01*
X137963054Y-103570708D01*
X137963051Y-103570706D01*
X137963049Y-103570705D01*
X137776058Y-103490460D01*
X137776060Y-103490460D01*
X137696331Y-103474076D01*
X137576741Y-103449500D01*
X137424258Y-103449500D01*
X137424256Y-103449500D01*
X137272561Y-103464926D01*
X137078410Y-103525841D01*
X137078409Y-103525842D01*
X136900501Y-103624588D01*
X136900498Y-103624590D01*
X136746109Y-103757129D01*
X136621549Y-103918045D01*
X136541865Y-104080496D01*
X136531940Y-104100729D01*
X136493421Y-104249500D01*
X136480936Y-104297719D01*
X136470631Y-104500936D01*
X136470630Y-104500939D01*
X135565500Y-104500939D01*
X135565499Y-103102128D01*
X135559091Y-103042517D01*
X135547944Y-103012629D01*
X135508797Y-102907670D01*
X135422549Y-102792458D01*
X135422548Y-102792457D01*
X135422546Y-102792454D01*
X135422541Y-102792450D01*
X135307329Y-102706202D01*
X135172488Y-102655910D01*
X135172483Y-102655909D01*
X135172481Y-102655908D01*
X135172477Y-102655908D01*
X135141249Y-102652550D01*
X135112873Y-102649500D01*
X135112870Y-102649500D01*
X131017133Y-102649500D01*
X131017129Y-102649500D01*
X131017128Y-102649501D01*
X131009949Y-102650272D01*
X130957519Y-102655908D01*
X130957514Y-102655909D01*
X130822670Y-102706202D01*
X130707458Y-102792450D01*
X130707450Y-102792458D01*
X130621202Y-102907670D01*
X130570910Y-103042511D01*
X130570908Y-103042522D01*
X130564500Y-103102129D01*
X130564500Y-103750500D01*
X130545593Y-103808691D01*
X130496093Y-103844655D01*
X130465500Y-103849500D01*
X130139743Y-103849500D01*
X130081552Y-103830593D01*
X130069740Y-103820504D01*
X129829496Y-103580261D01*
X129801718Y-103525744D01*
X129800500Y-103510269D01*
X129800500Y-101189742D01*
X129819407Y-101131551D01*
X129829490Y-101119744D01*
X131094490Y-99854743D01*
X131099357Y-99850475D01*
X131128282Y-99828282D01*
X131224536Y-99702841D01*
X131285044Y-99556762D01*
X131300500Y-99439361D01*
X131305682Y-99400000D01*
X131300921Y-99363842D01*
X131300499Y-99357405D01*
X131300499Y-94142616D01*
X131300923Y-94136148D01*
X131301392Y-94132579D01*
X131305683Y-94100000D01*
X131285044Y-93943238D01*
X131224536Y-93797159D01*
X131224535Y-93797157D01*
X131152450Y-93703214D01*
X131128286Y-93671723D01*
X131128285Y-93671722D01*
X131128282Y-93671718D01*
X131128277Y-93671714D01*
X131128276Y-93671713D01*
X131099365Y-93649529D01*
X131094491Y-93645255D01*
X127529496Y-90080260D01*
X127501719Y-90025743D01*
X127500500Y-90010256D01*
X127500500Y-78250000D01*
X147124435Y-78250000D01*
X147144632Y-78429257D01*
X147144633Y-78429261D01*
X147204211Y-78599522D01*
X147204211Y-78599523D01*
X147300181Y-78752258D01*
X147300184Y-78752262D01*
X147300505Y-78752583D01*
X147300619Y-78752807D01*
X147303648Y-78756605D01*
X147302870Y-78757225D01*
X147328281Y-78807098D01*
X147329500Y-78822585D01*
X147329500Y-92086290D01*
X147329076Y-92092758D01*
X147324318Y-92128899D01*
X147324318Y-92128900D01*
X147337385Y-92228155D01*
X147344955Y-92285658D01*
X147344957Y-92285666D01*
X147405462Y-92431738D01*
X147405462Y-92431739D01*
X147501713Y-92557176D01*
X147501718Y-92557182D01*
X147501722Y-92557185D01*
X147501723Y-92557186D01*
X147530634Y-92579370D01*
X147535508Y-92583644D01*
X148397455Y-93445591D01*
X148401729Y-93450465D01*
X148423918Y-93479382D01*
X148520331Y-93553362D01*
X148537437Y-93566488D01*
X148549357Y-93575635D01*
X148549361Y-93575637D01*
X148695433Y-93636142D01*
X148695438Y-93636144D01*
X148852200Y-93656782D01*
X148872577Y-93654099D01*
X148932738Y-93665249D01*
X148974856Y-93709631D01*
X148984500Y-93752252D01*
X148984500Y-95042866D01*
X148984501Y-95042870D01*
X148990908Y-95102480D01*
X148990909Y-95102485D01*
X149041202Y-95237329D01*
X149127450Y-95352541D01*
X149127454Y-95352546D01*
X149127457Y-95352548D01*
X149127458Y-95352549D01*
X149242670Y-95438797D01*
X149377511Y-95489089D01*
X149377512Y-95489089D01*
X149377517Y-95489091D01*
X149437127Y-95495500D01*
X150802872Y-95495499D01*
X150862483Y-95489091D01*
X150964908Y-95450889D01*
X150997329Y-95438797D01*
X150997329Y-95438796D01*
X150997331Y-95438796D01*
X151112546Y-95352546D01*
X151198796Y-95237331D01*
X151249091Y-95102483D01*
X151255500Y-95042873D01*
X151255499Y-93750599D01*
X151274406Y-93692409D01*
X151323906Y-93656445D01*
X151354499Y-93651600D01*
X151425500Y-93651600D01*
X151483691Y-93670507D01*
X151519655Y-93720007D01*
X151524500Y-93750600D01*
X151524500Y-95042866D01*
X151524501Y-95042870D01*
X151530908Y-95102480D01*
X151530909Y-95102485D01*
X151581202Y-95237329D01*
X151667450Y-95352541D01*
X151667454Y-95352546D01*
X151667457Y-95352548D01*
X151667458Y-95352549D01*
X151782670Y-95438797D01*
X151917511Y-95489089D01*
X151917512Y-95489089D01*
X151917517Y-95489091D01*
X151977127Y-95495500D01*
X153342872Y-95495499D01*
X153402483Y-95489091D01*
X153504908Y-95450889D01*
X153537329Y-95438797D01*
X153537329Y-95438796D01*
X153537331Y-95438796D01*
X153652546Y-95352546D01*
X153738796Y-95237331D01*
X153789091Y-95102483D01*
X153795500Y-95042873D01*
X153795499Y-93750599D01*
X153814406Y-93692409D01*
X153863906Y-93656445D01*
X153894499Y-93651600D01*
X153965500Y-93651600D01*
X154023691Y-93670507D01*
X154059655Y-93720007D01*
X154064500Y-93750600D01*
X154064500Y-95042866D01*
X154064501Y-95042870D01*
X154070908Y-95102480D01*
X154070909Y-95102485D01*
X154121202Y-95237329D01*
X154207450Y-95352541D01*
X154207454Y-95352546D01*
X154207457Y-95352548D01*
X154207458Y-95352549D01*
X154322670Y-95438797D01*
X154457511Y-95489089D01*
X154457512Y-95489089D01*
X154457517Y-95489091D01*
X154517127Y-95495500D01*
X155882872Y-95495499D01*
X155942483Y-95489091D01*
X156044908Y-95450889D01*
X156077329Y-95438797D01*
X156077329Y-95438796D01*
X156077331Y-95438796D01*
X156192546Y-95352546D01*
X156278796Y-95237331D01*
X156329091Y-95102483D01*
X156335500Y-95042873D01*
X156335499Y-93750599D01*
X156354406Y-93692409D01*
X156403906Y-93656445D01*
X156434499Y-93651600D01*
X156505500Y-93651600D01*
X156563691Y-93670507D01*
X156599655Y-93720007D01*
X156604500Y-93750600D01*
X156604500Y-95042866D01*
X156604501Y-95042870D01*
X156610908Y-95102480D01*
X156610909Y-95102485D01*
X156661202Y-95237329D01*
X156747450Y-95352541D01*
X156747454Y-95352546D01*
X156747457Y-95352548D01*
X156747458Y-95352549D01*
X156862670Y-95438797D01*
X156997511Y-95489089D01*
X156997512Y-95489089D01*
X156997517Y-95489091D01*
X157057127Y-95495500D01*
X158422872Y-95495499D01*
X158482483Y-95489091D01*
X158584908Y-95450889D01*
X158617329Y-95438797D01*
X158617329Y-95438796D01*
X158617331Y-95438796D01*
X158732546Y-95352546D01*
X158818796Y-95237331D01*
X158869091Y-95102483D01*
X158875500Y-95042873D01*
X158875499Y-93750599D01*
X158894406Y-93692409D01*
X158943906Y-93656445D01*
X158974499Y-93651600D01*
X159045500Y-93651600D01*
X159103691Y-93670507D01*
X159139655Y-93720007D01*
X159144500Y-93750600D01*
X159144500Y-95042866D01*
X159144501Y-95042870D01*
X159150908Y-95102480D01*
X159150909Y-95102485D01*
X159201202Y-95237329D01*
X159287450Y-95352541D01*
X159287454Y-95352546D01*
X159287457Y-95352548D01*
X159287458Y-95352549D01*
X159402670Y-95438797D01*
X159537511Y-95489089D01*
X159537512Y-95489089D01*
X159537517Y-95489091D01*
X159597127Y-95495500D01*
X160962872Y-95495499D01*
X161022483Y-95489091D01*
X161124908Y-95450889D01*
X161157329Y-95438797D01*
X161157329Y-95438796D01*
X161157331Y-95438796D01*
X161272546Y-95352546D01*
X161358796Y-95237331D01*
X161409091Y-95102483D01*
X161415500Y-95042873D01*
X161415499Y-93750599D01*
X161434406Y-93692409D01*
X161483906Y-93656445D01*
X161514499Y-93651600D01*
X161585500Y-93651600D01*
X161643691Y-93670507D01*
X161679655Y-93720007D01*
X161684500Y-93750600D01*
X161684500Y-95042866D01*
X161684501Y-95042870D01*
X161690908Y-95102480D01*
X161690909Y-95102485D01*
X161741202Y-95237329D01*
X161827450Y-95352541D01*
X161827454Y-95352546D01*
X161827457Y-95352548D01*
X161827458Y-95352549D01*
X161942670Y-95438797D01*
X162077511Y-95489089D01*
X162077512Y-95489089D01*
X162077517Y-95489091D01*
X162137127Y-95495500D01*
X163502872Y-95495499D01*
X163562483Y-95489091D01*
X163664908Y-95450889D01*
X163697329Y-95438797D01*
X163697329Y-95438796D01*
X163697331Y-95438796D01*
X163812546Y-95352546D01*
X163898796Y-95237331D01*
X163949091Y-95102483D01*
X163955500Y-95042873D01*
X163955499Y-94331190D01*
X163974406Y-94273000D01*
X164023906Y-94237036D01*
X164065585Y-94232814D01*
X164089997Y-94235565D01*
X164090000Y-94235565D01*
X164090002Y-94235565D01*
X164106214Y-94233738D01*
X164114414Y-94232814D01*
X164174356Y-94245086D01*
X164215637Y-94290247D01*
X164224500Y-94331191D01*
X164224500Y-95042866D01*
X164224501Y-95042870D01*
X164230908Y-95102480D01*
X164230909Y-95102485D01*
X164281202Y-95237329D01*
X164367450Y-95352541D01*
X164367454Y-95352546D01*
X164482669Y-95438796D01*
X164515095Y-95450890D01*
X164563010Y-95488938D01*
X164579500Y-95543648D01*
X164579499Y-104982929D01*
X164579075Y-104989396D01*
X164574318Y-105025535D01*
X164574318Y-105025540D01*
X164579500Y-105064901D01*
X164594955Y-105182298D01*
X164594957Y-105182306D01*
X164655462Y-105328378D01*
X164655462Y-105328379D01*
X164717739Y-105409540D01*
X164751718Y-105453822D01*
X164751722Y-105453825D01*
X164751723Y-105453826D01*
X164780634Y-105476010D01*
X164785508Y-105480284D01*
X165109400Y-105804176D01*
X165113674Y-105809050D01*
X165127731Y-105827370D01*
X165135863Y-105837967D01*
X165203755Y-105890062D01*
X165261304Y-105934221D01*
X165261305Y-105934221D01*
X165261306Y-105934222D01*
X165401589Y-105992329D01*
X165407383Y-105994729D01*
X165524784Y-106010185D01*
X165564144Y-106015367D01*
X165564145Y-106015367D01*
X165564146Y-106015367D01*
X165600286Y-106010609D01*
X165606754Y-106010185D01*
X166399312Y-106010185D01*
X166457503Y-106029092D01*
X166469316Y-106039181D01*
X169390505Y-108960370D01*
X169418281Y-109014885D01*
X169419500Y-109030372D01*
X169419500Y-109377414D01*
X169400593Y-109435605D01*
X169390512Y-109447409D01*
X169390186Y-109447734D01*
X169390184Y-109447736D01*
X169294212Y-109600473D01*
X169294211Y-109600477D01*
X169234633Y-109770738D01*
X169234632Y-109770742D01*
X169214435Y-109950000D01*
X169234632Y-110129257D01*
X169234633Y-110129261D01*
X169294211Y-110299522D01*
X169294211Y-110299523D01*
X169390181Y-110452258D01*
X169390184Y-110452262D01*
X169517738Y-110579816D01*
X169670478Y-110675789D01*
X169738657Y-110699646D01*
X169840738Y-110735366D01*
X169840742Y-110735367D01*
X169840745Y-110735368D01*
X170020000Y-110755565D01*
X170199255Y-110735368D01*
X170369522Y-110675789D01*
X170522262Y-110579816D01*
X170649816Y-110452262D01*
X170745789Y-110299522D01*
X170805368Y-110129255D01*
X170825565Y-109950000D01*
X170805368Y-109770745D01*
X170745789Y-109600478D01*
X170649816Y-109447738D01*
X170649812Y-109447734D01*
X170649810Y-109447731D01*
X170649488Y-109447409D01*
X170649372Y-109447182D01*
X170646352Y-109443395D01*
X170647128Y-109442776D01*
X170621717Y-109392890D01*
X170620500Y-109377414D01*
X170620500Y-108783238D01*
X170620924Y-108776770D01*
X170625682Y-108740630D01*
X170625682Y-108740629D01*
X170606149Y-108592262D01*
X170605044Y-108583868D01*
X170544536Y-108437789D01*
X170544535Y-108437787D01*
X170472450Y-108343844D01*
X170448286Y-108312353D01*
X170448285Y-108312352D01*
X170448282Y-108312348D01*
X170448277Y-108312344D01*
X170448276Y-108312343D01*
X170419365Y-108290159D01*
X170414491Y-108285885D01*
X167748109Y-105619504D01*
X167720332Y-105564987D01*
X167729903Y-105504555D01*
X167773168Y-105461290D01*
X167818113Y-105450500D01*
X170673028Y-105450500D01*
X170731219Y-105469407D01*
X170767183Y-105518907D01*
X170771404Y-105538411D01*
X170771514Y-105539377D01*
X170774632Y-105567056D01*
X170774633Y-105567061D01*
X170834211Y-105737322D01*
X170834211Y-105737323D01*
X170930181Y-105890058D01*
X170930184Y-105890062D01*
X171057738Y-106017616D01*
X171057740Y-106017617D01*
X171057741Y-106017618D01*
X171200860Y-106107546D01*
X171210478Y-106113589D01*
X171278657Y-106137446D01*
X171380738Y-106173166D01*
X171380742Y-106173167D01*
X171380745Y-106173168D01*
X171464561Y-106182611D01*
X171520268Y-106207915D01*
X171523480Y-106210985D01*
X172354232Y-107041737D01*
X172377672Y-107079043D01*
X172434211Y-107240622D01*
X172434211Y-107240623D01*
X172511867Y-107364211D01*
X172530184Y-107393362D01*
X172657738Y-107520916D01*
X172810478Y-107616889D01*
X172878657Y-107640746D01*
X172980738Y-107676466D01*
X172980742Y-107676467D01*
X172980745Y-107676468D01*
X173160000Y-107696665D01*
X173339255Y-107676468D01*
X173509522Y-107616889D01*
X173662262Y-107520916D01*
X173789816Y-107393362D01*
X173885789Y-107240622D01*
X173945368Y-107070355D01*
X173965565Y-106891100D01*
X173945368Y-106711845D01*
X173885789Y-106541578D01*
X173866741Y-106511264D01*
X173789818Y-106388841D01*
X173789817Y-106388840D01*
X173789816Y-106388838D01*
X173662262Y-106261284D01*
X173662259Y-106261282D01*
X173662258Y-106261281D01*
X173577887Y-106208267D01*
X173538674Y-106161298D01*
X173534559Y-106100251D01*
X173537109Y-106091756D01*
X173545368Y-106068155D01*
X173565565Y-105888900D01*
X173545368Y-105709645D01*
X173485789Y-105539378D01*
X173420250Y-105435074D01*
X173389818Y-105386641D01*
X173389817Y-105386640D01*
X173389816Y-105386638D01*
X173262262Y-105259084D01*
X173262259Y-105259082D01*
X173262258Y-105259081D01*
X173109523Y-105163111D01*
X172939261Y-105103533D01*
X172939250Y-105103531D01*
X172843637Y-105092757D01*
X172787930Y-105067453D01*
X172784719Y-105064384D01*
X172550872Y-104830536D01*
X172546598Y-104825662D01*
X172489886Y-104751753D01*
X172489885Y-104751752D01*
X172489882Y-104751748D01*
X172489877Y-104751744D01*
X172489876Y-104751743D01*
X172460965Y-104729559D01*
X172456091Y-104725285D01*
X172186314Y-104455508D01*
X172182040Y-104450634D01*
X172159856Y-104421723D01*
X172159855Y-104421722D01*
X172159852Y-104421718D01*
X172159847Y-104421714D01*
X172159846Y-104421713D01*
X172034408Y-104325462D01*
X171888336Y-104264957D01*
X171888328Y-104264955D01*
X171770931Y-104249500D01*
X171731570Y-104244318D01*
X171731569Y-104244318D01*
X171695429Y-104249076D01*
X171688961Y-104249500D01*
X169101585Y-104249500D01*
X169043394Y-104230593D01*
X169007430Y-104181093D01*
X169007430Y-104119907D01*
X169031579Y-104080498D01*
X169109816Y-104002262D01*
X169205789Y-103849522D01*
X169262675Y-103686951D01*
X169265366Y-103679261D01*
X169265367Y-103679257D01*
X169265368Y-103679255D01*
X169285565Y-103500000D01*
X169265368Y-103320745D01*
X169205789Y-103150478D01*
X169205787Y-103150476D01*
X169205787Y-103150473D01*
X169137954Y-103042519D01*
X169110021Y-102998065D01*
X169095071Y-102938736D01*
X169117850Y-102881949D01*
X169123832Y-102875402D01*
X169984721Y-102014512D01*
X170039236Y-101986737D01*
X170043612Y-101986143D01*
X170139255Y-101975368D01*
X170309522Y-101915789D01*
X170462262Y-101819816D01*
X170589816Y-101692262D01*
X170685789Y-101539522D01*
X170743766Y-101373833D01*
X170745366Y-101369261D01*
X170745367Y-101369257D01*
X170745368Y-101369255D01*
X170765565Y-101190000D01*
X170745368Y-101010745D01*
X170733876Y-100977904D01*
X170710839Y-100912068D01*
X170685789Y-100840478D01*
X170589816Y-100687738D01*
X170462262Y-100560184D01*
X170462259Y-100560182D01*
X170462258Y-100560181D01*
X170309523Y-100464211D01*
X170139261Y-100404633D01*
X170139257Y-100404632D01*
X169960000Y-100384435D01*
X169780742Y-100404632D01*
X169780738Y-100404633D01*
X169610477Y-100464211D01*
X169610476Y-100464211D01*
X169457741Y-100560181D01*
X169330181Y-100687741D01*
X169234211Y-100840476D01*
X169234211Y-100840477D01*
X169174633Y-101010738D01*
X169174630Y-101010750D01*
X169163858Y-101106359D01*
X169138554Y-101162067D01*
X169135485Y-101165278D01*
X168085510Y-102215253D01*
X168080638Y-102219525D01*
X168051719Y-102241717D01*
X168051713Y-102241723D01*
X167998940Y-102310500D01*
X167955462Y-102367160D01*
X167955462Y-102367161D01*
X167894957Y-102513233D01*
X167894955Y-102513241D01*
X167874318Y-102669999D01*
X167874318Y-102670000D01*
X167879076Y-102706140D01*
X167879500Y-102712608D01*
X167879500Y-102927414D01*
X167860593Y-102985605D01*
X167850512Y-102997409D01*
X167850189Y-102997731D01*
X167850181Y-102997741D01*
X167754211Y-103150476D01*
X167754211Y-103150477D01*
X167694633Y-103320738D01*
X167694632Y-103320742D01*
X167674435Y-103500000D01*
X167694632Y-103679257D01*
X167694633Y-103679261D01*
X167754211Y-103849522D01*
X167754211Y-103849523D01*
X167850181Y-104002258D01*
X167850184Y-104002262D01*
X167928420Y-104080498D01*
X167956196Y-104135013D01*
X167946625Y-104195445D01*
X167903360Y-104238710D01*
X167858415Y-104249500D01*
X166256913Y-104249500D01*
X166204241Y-104234325D01*
X166121441Y-104182297D01*
X166121437Y-104182296D01*
X165951176Y-104122718D01*
X165951164Y-104122716D01*
X165868414Y-104113391D01*
X165812707Y-104088087D01*
X165782512Y-104034871D01*
X165780500Y-104015014D01*
X165780500Y-95594499D01*
X165799407Y-95536308D01*
X165848907Y-95500344D01*
X165879500Y-95495499D01*
X166042867Y-95495499D01*
X166042872Y-95495499D01*
X166102483Y-95489091D01*
X166204908Y-95450889D01*
X166237329Y-95438797D01*
X166237329Y-95438796D01*
X166237331Y-95438796D01*
X166352546Y-95352546D01*
X166438796Y-95237331D01*
X166489091Y-95102483D01*
X166495500Y-95042873D01*
X166495499Y-93750599D01*
X166514406Y-93692409D01*
X166563906Y-93656445D01*
X166594499Y-93651600D01*
X166665500Y-93651600D01*
X166723691Y-93670507D01*
X166759655Y-93720007D01*
X166764500Y-93750600D01*
X166764500Y-95042866D01*
X166764501Y-95042870D01*
X166770908Y-95102480D01*
X166770909Y-95102485D01*
X166821202Y-95237329D01*
X166907450Y-95352541D01*
X166907454Y-95352546D01*
X166907457Y-95352548D01*
X166907458Y-95352549D01*
X167022670Y-95438797D01*
X167157511Y-95489089D01*
X167157512Y-95489089D01*
X167157517Y-95489091D01*
X167217127Y-95495500D01*
X168582872Y-95495499D01*
X168642483Y-95489091D01*
X168744908Y-95450889D01*
X168777329Y-95438797D01*
X168777329Y-95438796D01*
X168777331Y-95438796D01*
X168833916Y-95396436D01*
X168891832Y-95376699D01*
X168950287Y-95394773D01*
X168963250Y-95405685D01*
X170872055Y-97314491D01*
X170876329Y-97319365D01*
X170898518Y-97348282D01*
X170996152Y-97423199D01*
X170996154Y-97423200D01*
X170996155Y-97423202D01*
X171023957Y-97444535D01*
X171023961Y-97444537D01*
X171134858Y-97490472D01*
X171170038Y-97505044D01*
X171287439Y-97520500D01*
X171326799Y-97525682D01*
X171326800Y-97525682D01*
X171326801Y-97525682D01*
X171362941Y-97520924D01*
X171369409Y-97520500D01*
X171790500Y-97520500D01*
X171848691Y-97539407D01*
X171884655Y-97588907D01*
X171889500Y-97619500D01*
X171889500Y-102197390D01*
X171889076Y-102203858D01*
X171884318Y-102239999D01*
X171884318Y-102240000D01*
X171889500Y-102279361D01*
X171904955Y-102396758D01*
X171904957Y-102396766D01*
X171965462Y-102542838D01*
X171965462Y-102542839D01*
X172061713Y-102668276D01*
X172061718Y-102668282D01*
X172061722Y-102668285D01*
X172061723Y-102668286D01*
X172090634Y-102690470D01*
X172095508Y-102694744D01*
X174295817Y-104895052D01*
X174319257Y-104932358D01*
X174333110Y-104971949D01*
X174429081Y-105124685D01*
X174429084Y-105124689D01*
X174556638Y-105252243D01*
X174556640Y-105252244D01*
X174556641Y-105252245D01*
X174679263Y-105329294D01*
X174709378Y-105348216D01*
X174777557Y-105372073D01*
X174879638Y-105407793D01*
X174879642Y-105407794D01*
X174879645Y-105407795D01*
X175058900Y-105427992D01*
X175238155Y-105407795D01*
X175408422Y-105348216D01*
X175561162Y-105252243D01*
X175688716Y-105124689D01*
X175784689Y-104971949D01*
X175844268Y-104801682D01*
X175864465Y-104622427D01*
X175844268Y-104443172D01*
X175784689Y-104272905D01*
X175779694Y-104264956D01*
X175688718Y-104120168D01*
X175688717Y-104120167D01*
X175688716Y-104120165D01*
X175586877Y-104018326D01*
X175559102Y-103963812D01*
X175568673Y-103903380D01*
X175597554Y-103869072D01*
X175630171Y-103844655D01*
X175717546Y-103779246D01*
X175803796Y-103664031D01*
X175854091Y-103529183D01*
X175860500Y-103469573D01*
X175860499Y-101373828D01*
X175854091Y-101314217D01*
X175854089Y-101314211D01*
X175803797Y-101179370D01*
X175730506Y-101081466D01*
X175710769Y-101023551D01*
X175716315Y-100989439D01*
X175720352Y-100977904D01*
X175765368Y-100849255D01*
X175785565Y-100670000D01*
X175765368Y-100490745D01*
X175758712Y-100471724D01*
X175735539Y-100405498D01*
X175734166Y-100344328D01*
X175769009Y-100294033D01*
X175826761Y-100273825D01*
X175828983Y-100273800D01*
X177240500Y-100273800D01*
X177298691Y-100292707D01*
X177334655Y-100342207D01*
X177339500Y-100372800D01*
X177339500Y-106470256D01*
X177320593Y-106528447D01*
X177310504Y-106540260D01*
X176585278Y-107265485D01*
X176530761Y-107293262D01*
X176526359Y-107293858D01*
X176430750Y-107304630D01*
X176430738Y-107304633D01*
X176260477Y-107364211D01*
X176260476Y-107364211D01*
X176107741Y-107460181D01*
X175980181Y-107587741D01*
X175884211Y-107740476D01*
X175884211Y-107740477D01*
X175824633Y-107910738D01*
X175824632Y-107910742D01*
X175804435Y-108090000D01*
X175824632Y-108269257D01*
X175824633Y-108269261D01*
X175884211Y-108439522D01*
X175884211Y-108439523D01*
X175980181Y-108592258D01*
X175980184Y-108592262D01*
X176107738Y-108719816D01*
X176107740Y-108719817D01*
X176107741Y-108719818D01*
X176198379Y-108776770D01*
X176260478Y-108815789D01*
X176328657Y-108839646D01*
X176430738Y-108875366D01*
X176430742Y-108875367D01*
X176430745Y-108875368D01*
X176610000Y-108895565D01*
X176789255Y-108875368D01*
X176959522Y-108815789D01*
X177112262Y-108719816D01*
X177239816Y-108592262D01*
X177335789Y-108439522D01*
X177395368Y-108269255D01*
X177406140Y-108173637D01*
X177431444Y-108117931D01*
X177434492Y-108114741D01*
X178334490Y-107214743D01*
X178339357Y-107210475D01*
X178368282Y-107188282D01*
X178464536Y-107062841D01*
X178525044Y-106916762D01*
X178540500Y-106799361D01*
X178545682Y-106760000D01*
X178540924Y-106723858D01*
X178540500Y-106717390D01*
X178540500Y-103469566D01*
X179259500Y-103469566D01*
X179259501Y-103469570D01*
X179265908Y-103529180D01*
X179265909Y-103529185D01*
X179316202Y-103664029D01*
X179402450Y-103779241D01*
X179402454Y-103779246D01*
X179402457Y-103779248D01*
X179402458Y-103779249D01*
X179517670Y-103865497D01*
X179652511Y-103915789D01*
X179652512Y-103915789D01*
X179652517Y-103915791D01*
X179712127Y-103922200D01*
X181007872Y-103922199D01*
X181067483Y-103915791D01*
X181134907Y-103890643D01*
X181202329Y-103865497D01*
X181202329Y-103865496D01*
X181202331Y-103865496D01*
X181317546Y-103779246D01*
X181403796Y-103664031D01*
X181454091Y-103529183D01*
X181460500Y-103469573D01*
X181460499Y-101373828D01*
X181454091Y-101314217D01*
X181454089Y-101314211D01*
X181403797Y-101179370D01*
X181317549Y-101064158D01*
X181317548Y-101064157D01*
X181317546Y-101064154D01*
X181290477Y-101043890D01*
X181202329Y-100977902D01*
X181067488Y-100927610D01*
X181067483Y-100927609D01*
X181067481Y-100927608D01*
X181067477Y-100927608D01*
X181036249Y-100924250D01*
X181007873Y-100921200D01*
X181007870Y-100921200D01*
X179712133Y-100921200D01*
X179712129Y-100921200D01*
X179712128Y-100921201D01*
X179704949Y-100921972D01*
X179652519Y-100927608D01*
X179652514Y-100927609D01*
X179517670Y-100977902D01*
X179402458Y-101064150D01*
X179402450Y-101064158D01*
X179316202Y-101179370D01*
X179265910Y-101314211D01*
X179265908Y-101314217D01*
X179265909Y-101314217D01*
X179259992Y-101369257D01*
X179259500Y-101373829D01*
X179259500Y-103469566D01*
X178540500Y-103469566D01*
X178540500Y-100013457D01*
X178559407Y-99955266D01*
X178608907Y-99919302D01*
X178650083Y-99915024D01*
X178712177Y-99921700D01*
X179407824Y-99921700D01*
X179467370Y-99915298D01*
X179467381Y-99915296D01*
X179602088Y-99865053D01*
X179602090Y-99865052D01*
X179717184Y-99778892D01*
X179717192Y-99778884D01*
X179803351Y-99663791D01*
X179803355Y-99663784D01*
X179812131Y-99640253D01*
X178988582Y-98816704D01*
X178960805Y-98762187D01*
X178963258Y-98746700D01*
X179201421Y-98746700D01*
X179859999Y-99405277D01*
X179859999Y-98088122D01*
X179201421Y-98746700D01*
X178963258Y-98746700D01*
X178970376Y-98701755D01*
X178988583Y-98676696D01*
X179060001Y-98605279D01*
X179812131Y-97853146D01*
X179803353Y-97829612D01*
X179803352Y-97829610D01*
X179717192Y-97714515D01*
X179717184Y-97714507D01*
X179602090Y-97628347D01*
X179602088Y-97628346D01*
X179467381Y-97578103D01*
X179467370Y-97578101D01*
X179407824Y-97571700D01*
X179357964Y-97571700D01*
X179299773Y-97552793D01*
X179263809Y-97503293D01*
X179263809Y-97442107D01*
X179287958Y-97402698D01*
X179300472Y-97390185D01*
X179388478Y-97244606D01*
X179439086Y-97082196D01*
X179445500Y-97011616D01*
X179445500Y-96348384D01*
X179439086Y-96277804D01*
X179388478Y-96115394D01*
X179300472Y-95969815D01*
X179180185Y-95849528D01*
X179092604Y-95796583D01*
X180126600Y-95796583D01*
X180166238Y-96059565D01*
X180166240Y-96059575D01*
X180233556Y-96277805D01*
X180244633Y-96313716D01*
X180360029Y-96553338D01*
X180509850Y-96773085D01*
X180509853Y-96773088D01*
X180509855Y-96773091D01*
X180690747Y-96968046D01*
X180690759Y-96968057D01*
X180898676Y-97133865D01*
X180898685Y-97133872D01*
X180898689Y-97133874D01*
X180898690Y-97133875D01*
X181129001Y-97266845D01*
X181129005Y-97266847D01*
X181129014Y-97266852D01*
X181262814Y-97319365D01*
X181336500Y-97348285D01*
X181376590Y-97364019D01*
X181635883Y-97423201D01*
X181702154Y-97428167D01*
X181834691Y-97438100D01*
X181834699Y-97438100D01*
X181967509Y-97438100D01*
X182089849Y-97428931D01*
X182166317Y-97423201D01*
X182425610Y-97364019D01*
X182673186Y-97266852D01*
X182903515Y-97133872D01*
X183111451Y-96968048D01*
X183292350Y-96773085D01*
X183442171Y-96553338D01*
X183557567Y-96313716D01*
X183635961Y-96059571D01*
X183675600Y-95796580D01*
X183675600Y-95530620D01*
X183635961Y-95267629D01*
X183557567Y-95013484D01*
X183442171Y-94773862D01*
X183292350Y-94554115D01*
X183205447Y-94460456D01*
X183111452Y-94359153D01*
X183111440Y-94359142D01*
X182903523Y-94193334D01*
X182903509Y-94193324D01*
X182673198Y-94060354D01*
X182673189Y-94060349D01*
X182673186Y-94060348D01*
X182673182Y-94060346D01*
X182673179Y-94060345D01*
X182425612Y-93963181D01*
X182166321Y-93904000D01*
X182166312Y-93903998D01*
X181967509Y-93889100D01*
X181967501Y-93889100D01*
X181834699Y-93889100D01*
X181834691Y-93889100D01*
X181635887Y-93903998D01*
X181635878Y-93904000D01*
X181376587Y-93963181D01*
X181129020Y-94060345D01*
X181129001Y-94060354D01*
X180898690Y-94193324D01*
X180898676Y-94193334D01*
X180690759Y-94359142D01*
X180690747Y-94359153D01*
X180509855Y-94554108D01*
X180509850Y-94554114D01*
X180509850Y-94554115D01*
X180360029Y-94773862D01*
X180360027Y-94773865D01*
X180360025Y-94773869D01*
X180244633Y-95013483D01*
X180166240Y-95267624D01*
X180166238Y-95267634D01*
X180126600Y-95530616D01*
X180126600Y-95796583D01*
X179092604Y-95796583D01*
X179092589Y-95796574D01*
X179034607Y-95761522D01*
X179034605Y-95761521D01*
X178872194Y-95710913D01*
X178801620Y-95704500D01*
X178801616Y-95704500D01*
X178753622Y-95704500D01*
X178695431Y-95685593D01*
X178659467Y-95636093D01*
X178655468Y-95592589D01*
X178656382Y-95585638D01*
X178657014Y-95580834D01*
X178683348Y-95525608D01*
X178737116Y-95496407D01*
X178744574Y-95495316D01*
X178802483Y-95489091D01*
X178904908Y-95450889D01*
X178937329Y-95438797D01*
X178937329Y-95438796D01*
X178937331Y-95438796D01*
X179052546Y-95352546D01*
X179138796Y-95237331D01*
X179189091Y-95102483D01*
X179195500Y-95042873D01*
X179195499Y-93677128D01*
X179189091Y-93617517D01*
X179173471Y-93575637D01*
X179138797Y-93482670D01*
X179052549Y-93367458D01*
X179052548Y-93367457D01*
X179052546Y-93367454D01*
X179052541Y-93367450D01*
X178937329Y-93281202D01*
X178802488Y-93230910D01*
X178802483Y-93230909D01*
X178802481Y-93230908D01*
X178802477Y-93230908D01*
X178771249Y-93227550D01*
X178742873Y-93224500D01*
X178742870Y-93224500D01*
X177377133Y-93224500D01*
X177377129Y-93224500D01*
X177377128Y-93224501D01*
X177371091Y-93225150D01*
X177317519Y-93230908D01*
X177317514Y-93230909D01*
X177182670Y-93281202D01*
X177067458Y-93367450D01*
X177067450Y-93367458D01*
X176981202Y-93482670D01*
X176930910Y-93617511D01*
X176930908Y-93617522D01*
X176924500Y-93677129D01*
X176924500Y-95042866D01*
X176924501Y-95042870D01*
X176930908Y-95102480D01*
X176930909Y-95102485D01*
X176981202Y-95237329D01*
X177067450Y-95352541D01*
X177067454Y-95352546D01*
X177067457Y-95352548D01*
X177067458Y-95352549D01*
X177150853Y-95414979D01*
X177186106Y-95464988D01*
X177185232Y-95526167D01*
X177161528Y-95564235D01*
X177050262Y-95675503D01*
X176995746Y-95703281D01*
X176980258Y-95704500D01*
X176759500Y-95704500D01*
X176701309Y-95685593D01*
X176665345Y-95636093D01*
X176660500Y-95605500D01*
X176660500Y-94942608D01*
X176660924Y-94936140D01*
X176665682Y-94900000D01*
X176655923Y-94825877D01*
X176655499Y-94819409D01*
X176655499Y-93677132D01*
X176655499Y-93677128D01*
X176649091Y-93617517D01*
X176633471Y-93575637D01*
X176598797Y-93482670D01*
X176512549Y-93367458D01*
X176512548Y-93367457D01*
X176512546Y-93367454D01*
X176512541Y-93367450D01*
X176397329Y-93281202D01*
X176262488Y-93230910D01*
X176262478Y-93230908D01*
X176223695Y-93226738D01*
X176208916Y-93225149D01*
X176153081Y-93200130D01*
X176122615Y-93147070D01*
X176120500Y-93126717D01*
X176120500Y-92972608D01*
X176120924Y-92966140D01*
X176125682Y-92930000D01*
X176125682Y-92929999D01*
X176105044Y-92773241D01*
X176105044Y-92773238D01*
X176044536Y-92627159D01*
X176044535Y-92627157D01*
X176034779Y-92614443D01*
X176020778Y-92596197D01*
X175972163Y-92532840D01*
X175951739Y-92475164D01*
X175969117Y-92416498D01*
X175980695Y-92402575D01*
X176899145Y-91484126D01*
X176910486Y-91475042D01*
X176910480Y-91475035D01*
X176915264Y-91471075D01*
X176915277Y-91471068D01*
X176962139Y-91421164D01*
X176963146Y-91420125D01*
X176983520Y-91399753D01*
X176988138Y-91393798D01*
X176991140Y-91390282D01*
X177023462Y-91355864D01*
X177034063Y-91336580D01*
X177042592Y-91323596D01*
X177042969Y-91323111D01*
X177056073Y-91306218D01*
X177074544Y-91263532D01*
X177074812Y-91262913D01*
X177076865Y-91258721D01*
X177099596Y-91217376D01*
X177099597Y-91217374D01*
X177105071Y-91196052D01*
X177110099Y-91181369D01*
X177118837Y-91161178D01*
X177126218Y-91114568D01*
X177127156Y-91110036D01*
X177138900Y-91064301D01*
X177138900Y-91042297D01*
X177140119Y-91026811D01*
X177140201Y-91026289D01*
X177143560Y-91005086D01*
X177141004Y-90978047D01*
X177139120Y-90958110D01*
X177138900Y-90953449D01*
X177138900Y-89850000D01*
X178341423Y-89850000D01*
X180258577Y-89850000D01*
X179300000Y-88891422D01*
X178341423Y-89850000D01*
X177138900Y-89850000D01*
X177138900Y-89094918D01*
X177550000Y-89094918D01*
X177565123Y-89229145D01*
X177565124Y-89229149D01*
X177624663Y-89399302D01*
X177720574Y-89551944D01*
X177848055Y-89679425D01*
X177848054Y-89679425D01*
X178000695Y-89775334D01*
X178098884Y-89809691D01*
X179158577Y-88749999D01*
X179441421Y-88749999D01*
X180501113Y-89809691D01*
X180599304Y-89775334D01*
X180751945Y-89679425D01*
X180827563Y-89603807D01*
X180882079Y-89576029D01*
X180942512Y-89585600D01*
X180985776Y-89628864D01*
X180996144Y-89664674D01*
X181013603Y-89853083D01*
X181069418Y-90049250D01*
X181160327Y-90231821D01*
X181283236Y-90394579D01*
X181433959Y-90531981D01*
X181607363Y-90639348D01*
X181797544Y-90713024D01*
X181998024Y-90750500D01*
X182201976Y-90750500D01*
X182402456Y-90713024D01*
X182592637Y-90639348D01*
X182766041Y-90531981D01*
X182916764Y-90394579D01*
X183039673Y-90231821D01*
X183130582Y-90049250D01*
X183186397Y-89853083D01*
X183205215Y-89650000D01*
X183186397Y-89446917D01*
X183130582Y-89250750D01*
X183039673Y-89068179D01*
X182916764Y-88905421D01*
X182766041Y-88768019D01*
X182592637Y-88660652D01*
X182402456Y-88586976D01*
X182402455Y-88586975D01*
X182402453Y-88586975D01*
X182201976Y-88549500D01*
X181998024Y-88549500D01*
X181797546Y-88586975D01*
X181741785Y-88608577D01*
X181607363Y-88660652D01*
X181433959Y-88768019D01*
X181283236Y-88905421D01*
X181228002Y-88978562D01*
X181177847Y-89013604D01*
X181116672Y-89012473D01*
X181067846Y-88975601D01*
X181050000Y-88918900D01*
X181050000Y-88405084D01*
X181049999Y-88405081D01*
X181034876Y-88270854D01*
X181034875Y-88270850D01*
X180975336Y-88100697D01*
X180879425Y-87948055D01*
X180751944Y-87820574D01*
X180599304Y-87724664D01*
X180501114Y-87690306D01*
X179441421Y-88749999D01*
X179158577Y-88749999D01*
X178098884Y-87690306D01*
X178000696Y-87724663D01*
X177848055Y-87820574D01*
X177720574Y-87948055D01*
X177624663Y-88100697D01*
X177565124Y-88270850D01*
X177565123Y-88270854D01*
X177550000Y-88405081D01*
X177550000Y-89094918D01*
X177138900Y-89094918D01*
X177138900Y-87650000D01*
X178341423Y-87650000D01*
X179299999Y-88608577D01*
X180258577Y-87650000D01*
X178341423Y-87650000D01*
X177138900Y-87650000D01*
X177138900Y-84506698D01*
X177157807Y-84448507D01*
X177167896Y-84436695D01*
X177404153Y-84200437D01*
X177458670Y-84172659D01*
X177519102Y-84182230D01*
X177562367Y-84225495D01*
X177567601Y-84237742D01*
X177624211Y-84399522D01*
X177624211Y-84399523D01*
X177668963Y-84470745D01*
X177720184Y-84552262D01*
X177847738Y-84679816D01*
X177847740Y-84679817D01*
X177847741Y-84679818D01*
X177978943Y-84762258D01*
X178000478Y-84775789D01*
X178065094Y-84798399D01*
X178170738Y-84835366D01*
X178170742Y-84835367D01*
X178170745Y-84835368D01*
X178170746Y-84835368D01*
X178170750Y-84835369D01*
X178305029Y-84850499D01*
X178305045Y-84850499D01*
X178305046Y-84850500D01*
X179611257Y-84850500D01*
X179669448Y-84869407D01*
X179705412Y-84918907D01*
X179705412Y-84980093D01*
X179681261Y-85019504D01*
X179580261Y-85120504D01*
X179525744Y-85148281D01*
X179510257Y-85149500D01*
X178305029Y-85149500D01*
X178170750Y-85164630D01*
X178170738Y-85164633D01*
X178000477Y-85224211D01*
X178000476Y-85224211D01*
X177847741Y-85320181D01*
X177720181Y-85447741D01*
X177624211Y-85600476D01*
X177624211Y-85600477D01*
X177564633Y-85770738D01*
X177564630Y-85770750D01*
X177549500Y-85905029D01*
X177549500Y-86594970D01*
X177564630Y-86729249D01*
X177564633Y-86729261D01*
X177624211Y-86899522D01*
X177624211Y-86899523D01*
X177720181Y-87052258D01*
X177720184Y-87052262D01*
X177847738Y-87179816D01*
X178000478Y-87275789D01*
X178068657Y-87299646D01*
X178170738Y-87335366D01*
X178170742Y-87335367D01*
X178170745Y-87335368D01*
X178170746Y-87335368D01*
X178170750Y-87335369D01*
X178305029Y-87350499D01*
X178305045Y-87350499D01*
X178305046Y-87350500D01*
X178305047Y-87350500D01*
X180294953Y-87350500D01*
X180294954Y-87350500D01*
X180294955Y-87350499D01*
X180294970Y-87350499D01*
X180429249Y-87335369D01*
X180429251Y-87335368D01*
X180429255Y-87335368D01*
X180599522Y-87275789D01*
X180752262Y-87179816D01*
X180879816Y-87052262D01*
X180975789Y-86899522D01*
X181035368Y-86729255D01*
X181035369Y-86729249D01*
X181050499Y-86594970D01*
X181050500Y-86594953D01*
X181050500Y-85905046D01*
X181050499Y-85905029D01*
X181035369Y-85770750D01*
X181035366Y-85770738D01*
X181011014Y-85701145D01*
X180975789Y-85600478D01*
X180949479Y-85558606D01*
X180934529Y-85499277D01*
X180957308Y-85442490D01*
X180963290Y-85435943D01*
X181146090Y-85253144D01*
X181150957Y-85248875D01*
X181179882Y-85226682D01*
X181181779Y-85224211D01*
X181227494Y-85164633D01*
X181276136Y-85101241D01*
X181336644Y-84955162D01*
X181352100Y-84837761D01*
X181357282Y-84798400D01*
X181352524Y-84762258D01*
X181352100Y-84755790D01*
X181352100Y-83859034D01*
X181371007Y-83800843D01*
X181420507Y-83764879D01*
X181481693Y-83764879D01*
X181503212Y-83774861D01*
X181607363Y-83839348D01*
X181797544Y-83913024D01*
X181998024Y-83950500D01*
X182201976Y-83950500D01*
X182402456Y-83913024D01*
X182592637Y-83839348D01*
X182766041Y-83731981D01*
X182916764Y-83594579D01*
X183039673Y-83431821D01*
X183130582Y-83249250D01*
X183186397Y-83053083D01*
X183205215Y-82850000D01*
X183186397Y-82646917D01*
X183130582Y-82450750D01*
X183039673Y-82268179D01*
X182916764Y-82105421D01*
X182766041Y-81968019D01*
X182592637Y-81860652D01*
X182402456Y-81786976D01*
X182402455Y-81786975D01*
X182402453Y-81786975D01*
X182201976Y-81749500D01*
X181998024Y-81749500D01*
X181797546Y-81786975D01*
X181727632Y-81814059D01*
X181607363Y-81860652D01*
X181453196Y-81956108D01*
X181433959Y-81968019D01*
X181283237Y-82105420D01*
X181283229Y-82105429D01*
X181260489Y-82135541D01*
X181210332Y-82170583D01*
X181149157Y-82169450D01*
X181111483Y-82145882D01*
X180955658Y-81990057D01*
X180927881Y-81935540D01*
X180937452Y-81875108D01*
X180966333Y-81840800D01*
X181077546Y-81757546D01*
X181163796Y-81642331D01*
X181214091Y-81507483D01*
X181220500Y-81447873D01*
X181220499Y-76752128D01*
X181214091Y-76692517D01*
X181165135Y-76561258D01*
X181163797Y-76557670D01*
X181077549Y-76442458D01*
X181077548Y-76442457D01*
X181077546Y-76442454D01*
X181077541Y-76442450D01*
X180962329Y-76356202D01*
X180827488Y-76305910D01*
X180827483Y-76305909D01*
X180827481Y-76305908D01*
X180827477Y-76305908D01*
X180796249Y-76302550D01*
X180767873Y-76299500D01*
X180767870Y-76299500D01*
X179672133Y-76299500D01*
X179672129Y-76299500D01*
X179672128Y-76299501D01*
X179664949Y-76300272D01*
X179612519Y-76305908D01*
X179612514Y-76305909D01*
X179477670Y-76356202D01*
X179362458Y-76442450D01*
X179362450Y-76442458D01*
X179299253Y-76526879D01*
X179249244Y-76562132D01*
X179188065Y-76561258D01*
X179140747Y-76526879D01*
X179077549Y-76442458D01*
X179077548Y-76442457D01*
X179077546Y-76442454D01*
X179077541Y-76442450D01*
X178962329Y-76356202D01*
X178827488Y-76305910D01*
X178827483Y-76305909D01*
X178827481Y-76305908D01*
X178827477Y-76305908D01*
X178796249Y-76302550D01*
X178767873Y-76299500D01*
X178767870Y-76299500D01*
X177672133Y-76299500D01*
X177672129Y-76299500D01*
X177672128Y-76299501D01*
X177664949Y-76300272D01*
X177612519Y-76305908D01*
X177612514Y-76305909D01*
X177477670Y-76356202D01*
X177362458Y-76442450D01*
X177362450Y-76442458D01*
X177276202Y-76557670D01*
X177225910Y-76692511D01*
X177225908Y-76692522D01*
X177219500Y-76752129D01*
X177219500Y-81447866D01*
X177219500Y-81447869D01*
X177219501Y-81447872D01*
X177221044Y-81462229D01*
X177225908Y-81507480D01*
X177225909Y-81507485D01*
X177276202Y-81642329D01*
X177362450Y-81757541D01*
X177362454Y-81757546D01*
X177362457Y-81757548D01*
X177362458Y-81757549D01*
X177477667Y-81843795D01*
X177477668Y-81843795D01*
X177477669Y-81843796D01*
X177530098Y-81863350D01*
X177578011Y-81901400D01*
X177594500Y-81956108D01*
X177594500Y-82199900D01*
X177575593Y-82258091D01*
X177565504Y-82269904D01*
X176127653Y-83707754D01*
X176116315Y-83716839D01*
X176116321Y-83716846D01*
X176111527Y-83720811D01*
X176111523Y-83720814D01*
X176111519Y-83720817D01*
X176111518Y-83720819D01*
X176064704Y-83770669D01*
X176063624Y-83771783D01*
X176043285Y-83792123D01*
X176043275Y-83792134D01*
X176038662Y-83798079D01*
X176035640Y-83801617D01*
X176003339Y-83836016D01*
X176003335Y-83836021D01*
X175992734Y-83855303D01*
X175984213Y-83868276D01*
X175970725Y-83885666D01*
X175951984Y-83928973D01*
X175949932Y-83933160D01*
X175927204Y-83974505D01*
X175927200Y-83974516D01*
X175921732Y-83995812D01*
X175916703Y-84010503D01*
X175907961Y-84030705D01*
X175907960Y-84030708D01*
X175900578Y-84077314D01*
X175899632Y-84081881D01*
X175887901Y-84127573D01*
X175887900Y-84127584D01*
X175887900Y-84149581D01*
X175886681Y-84165069D01*
X175883239Y-84186793D01*
X175887680Y-84233770D01*
X175887900Y-84238431D01*
X175887900Y-90685182D01*
X175868993Y-90743373D01*
X175858904Y-90755186D01*
X175120887Y-91493204D01*
X175066370Y-91520981D01*
X175050883Y-91522200D01*
X169262658Y-91522200D01*
X169204467Y-91503293D01*
X169168503Y-91453793D01*
X169166139Y-91445222D01*
X169165368Y-91441843D01*
X169134480Y-91353572D01*
X169105789Y-91271578D01*
X169105788Y-91271576D01*
X169020674Y-91136117D01*
X169005500Y-91083446D01*
X169005500Y-90787651D01*
X169020674Y-90734980D01*
X169103705Y-90602839D01*
X169105787Y-90599526D01*
X169105787Y-90599524D01*
X169105789Y-90599522D01*
X169165368Y-90429255D01*
X169185565Y-90250000D01*
X169165368Y-90070745D01*
X169158551Y-90051264D01*
X169141014Y-90001145D01*
X169105789Y-89900478D01*
X169009816Y-89747738D01*
X168882262Y-89620184D01*
X168882259Y-89620182D01*
X168882258Y-89620181D01*
X168729523Y-89524211D01*
X168559255Y-89464631D01*
X168503483Y-89458347D01*
X168447775Y-89433043D01*
X168444564Y-89429974D01*
X166903596Y-87889005D01*
X166875819Y-87834488D01*
X166874600Y-87819001D01*
X166874600Y-80149077D01*
X166876195Y-80134629D01*
X166876186Y-80134629D01*
X166876772Y-80128430D01*
X166876558Y-80121644D01*
X166874623Y-80060049D01*
X166874600Y-80058531D01*
X166874600Y-80029754D01*
X166874600Y-80029750D01*
X166873656Y-80022280D01*
X166873291Y-80017647D01*
X166871809Y-79970473D01*
X166865670Y-79949345D01*
X166862520Y-79934134D01*
X166859764Y-79912308D01*
X166855415Y-79901323D01*
X166842392Y-79868430D01*
X166840881Y-79864018D01*
X166837140Y-79851143D01*
X166833830Y-79834609D01*
X166815368Y-79670745D01*
X166811269Y-79659032D01*
X166785178Y-79584466D01*
X166755789Y-79500478D01*
X166659816Y-79347738D01*
X166532262Y-79220184D01*
X166532259Y-79220182D01*
X166532256Y-79220179D01*
X166501828Y-79201060D01*
X166462616Y-79154091D01*
X166455500Y-79117235D01*
X166455500Y-75647866D01*
X174519500Y-75647866D01*
X174519501Y-75647870D01*
X174525908Y-75707480D01*
X174525909Y-75707485D01*
X174576202Y-75842329D01*
X174662450Y-75957541D01*
X174662454Y-75957546D01*
X174662457Y-75957548D01*
X174662458Y-75957549D01*
X174777670Y-76043797D01*
X174912511Y-76094089D01*
X174912512Y-76094089D01*
X174912517Y-76094091D01*
X174972127Y-76100500D01*
X176667872Y-76100499D01*
X176727483Y-76094091D01*
X176794907Y-76068943D01*
X176862329Y-76043797D01*
X176862329Y-76043796D01*
X176862331Y-76043796D01*
X176977546Y-75957546D01*
X177063796Y-75842331D01*
X177114091Y-75707483D01*
X177120500Y-75647873D01*
X177120500Y-75647866D01*
X181319500Y-75647866D01*
X181319501Y-75647870D01*
X181325908Y-75707480D01*
X181325909Y-75707485D01*
X181376202Y-75842329D01*
X181462450Y-75957541D01*
X181462454Y-75957546D01*
X181462457Y-75957548D01*
X181462458Y-75957549D01*
X181577670Y-76043797D01*
X181712511Y-76094089D01*
X181712512Y-76094089D01*
X181712517Y-76094091D01*
X181772127Y-76100500D01*
X183467872Y-76100499D01*
X183527483Y-76094091D01*
X183594907Y-76068943D01*
X183662329Y-76043797D01*
X183662329Y-76043796D01*
X183662331Y-76043796D01*
X183777546Y-75957546D01*
X183863796Y-75842331D01*
X183914091Y-75707483D01*
X183920500Y-75647873D01*
X183920499Y-72152128D01*
X183914091Y-72092517D01*
X183914089Y-72092511D01*
X183863797Y-71957670D01*
X183777549Y-71842458D01*
X183777548Y-71842457D01*
X183777546Y-71842454D01*
X183777541Y-71842450D01*
X183662329Y-71756202D01*
X183527488Y-71705910D01*
X183527483Y-71705909D01*
X183527481Y-71705908D01*
X183527477Y-71705908D01*
X183496249Y-71702550D01*
X183467873Y-71699500D01*
X183467870Y-71699500D01*
X181772133Y-71699500D01*
X181772129Y-71699500D01*
X181772128Y-71699501D01*
X181764949Y-71700272D01*
X181712519Y-71705908D01*
X181712514Y-71705909D01*
X181577670Y-71756202D01*
X181462458Y-71842450D01*
X181462450Y-71842458D01*
X181376202Y-71957670D01*
X181325910Y-72092511D01*
X181325908Y-72092522D01*
X181319500Y-72152129D01*
X181319500Y-75647866D01*
X177120500Y-75647866D01*
X177120499Y-72152128D01*
X177114091Y-72092517D01*
X177114089Y-72092511D01*
X177063797Y-71957670D01*
X176977549Y-71842458D01*
X176977548Y-71842457D01*
X176977546Y-71842454D01*
X176977541Y-71842450D01*
X176862329Y-71756202D01*
X176727488Y-71705910D01*
X176727483Y-71705909D01*
X176727481Y-71705908D01*
X176727477Y-71705908D01*
X176696249Y-71702550D01*
X176667873Y-71699500D01*
X176667870Y-71699500D01*
X174972133Y-71699500D01*
X174972129Y-71699500D01*
X174972128Y-71699501D01*
X174964949Y-71700272D01*
X174912519Y-71705908D01*
X174912514Y-71705909D01*
X174777670Y-71756202D01*
X174662458Y-71842450D01*
X174662450Y-71842458D01*
X174576202Y-71957670D01*
X174525910Y-72092511D01*
X174525908Y-72092522D01*
X174519500Y-72152129D01*
X174519500Y-75647866D01*
X166455500Y-75647866D01*
X166455500Y-66518481D01*
X166457254Y-66499930D01*
X166459227Y-66489588D01*
X166456809Y-66451151D01*
X166455598Y-66431894D01*
X166455500Y-66428785D01*
X166455500Y-66410651D01*
X166453227Y-66392661D01*
X166452934Y-66389563D01*
X166449304Y-66331864D01*
X166449304Y-66331862D01*
X166446048Y-66321841D01*
X166441984Y-66303661D01*
X166440664Y-66293208D01*
X166423056Y-66248735D01*
X166419382Y-66239454D01*
X166418328Y-66236528D01*
X166400469Y-66181563D01*
X166400467Y-66181559D01*
X166394823Y-66172665D01*
X166386367Y-66156069D01*
X166382486Y-66146269D01*
X166382486Y-66146268D01*
X166348496Y-66099484D01*
X166346748Y-66096911D01*
X166338385Y-66083733D01*
X166315786Y-66048123D01*
X166308108Y-66040913D01*
X166295784Y-66026933D01*
X166289594Y-66018413D01*
X166255734Y-65990401D01*
X166245052Y-65981564D01*
X166242719Y-65979507D01*
X166200583Y-65939938D01*
X166194938Y-65936835D01*
X166191347Y-65934861D01*
X166175935Y-65924387D01*
X166167823Y-65917676D01*
X166115518Y-65893062D01*
X166112759Y-65891657D01*
X166092326Y-65880424D01*
X166062097Y-65863805D01*
X166062094Y-65863804D01*
X166062092Y-65863803D01*
X166051883Y-65861181D01*
X166034362Y-65854873D01*
X166024826Y-65850386D01*
X165968047Y-65839554D01*
X165965014Y-65838876D01*
X165909023Y-65824500D01*
X165909019Y-65824500D01*
X165898486Y-65824500D01*
X165879936Y-65822747D01*
X165869588Y-65820773D01*
X165869587Y-65820773D01*
X165811895Y-65824402D01*
X165808786Y-65824500D01*
X158809983Y-65824500D01*
X158795529Y-65822904D01*
X158795529Y-65822913D01*
X158789331Y-65822326D01*
X158744967Y-65823721D01*
X158720932Y-65824476D01*
X158719413Y-65824500D01*
X158690646Y-65824500D01*
X158683179Y-65825442D01*
X158678534Y-65825808D01*
X158631371Y-65827291D01*
X158610244Y-65833429D01*
X158595034Y-65836578D01*
X158573211Y-65839334D01*
X158529340Y-65856703D01*
X158524929Y-65858213D01*
X158479610Y-65871381D01*
X158460673Y-65882580D01*
X158446733Y-65889409D01*
X158426268Y-65897513D01*
X158388085Y-65925252D01*
X158384188Y-65927812D01*
X158343581Y-65951827D01*
X158328021Y-65967387D01*
X158316215Y-65977470D01*
X158298417Y-65990401D01*
X158268338Y-66026758D01*
X158265199Y-66030208D01*
X157844257Y-66451151D01*
X157832919Y-66460234D01*
X157832925Y-66460241D01*
X157828125Y-66464212D01*
X157781304Y-66514069D01*
X157780224Y-66515183D01*
X157759885Y-66535523D01*
X157759875Y-66535534D01*
X157755262Y-66541479D01*
X157752240Y-66545017D01*
X157719939Y-66579416D01*
X157719935Y-66579421D01*
X157709334Y-66598703D01*
X157700813Y-66611676D01*
X157687325Y-66629066D01*
X157668584Y-66672373D01*
X157666532Y-66676560D01*
X157643804Y-66717905D01*
X157643800Y-66717916D01*
X157638332Y-66739212D01*
X157633303Y-66753903D01*
X157624561Y-66774105D01*
X157624560Y-66774108D01*
X157617178Y-66820714D01*
X157616232Y-66825281D01*
X157604501Y-66870973D01*
X157604500Y-66870984D01*
X157604500Y-66892981D01*
X157603281Y-66908469D01*
X157599839Y-66930193D01*
X157604280Y-66977170D01*
X157604500Y-66981831D01*
X157604500Y-67712348D01*
X157589325Y-67765020D01*
X157504212Y-67900473D01*
X157504211Y-67900477D01*
X157444633Y-68070738D01*
X157444632Y-68070742D01*
X157424435Y-68250000D01*
X157444632Y-68429257D01*
X157444633Y-68429261D01*
X157504211Y-68599522D01*
X157504211Y-68599523D01*
X157600181Y-68752258D01*
X157600184Y-68752262D01*
X157727738Y-68879816D01*
X157727740Y-68879817D01*
X157727741Y-68879818D01*
X157763460Y-68902262D01*
X157880478Y-68975789D01*
X157948657Y-68999646D01*
X158050738Y-69035366D01*
X158050742Y-69035367D01*
X158050745Y-69035368D01*
X158230000Y-69055565D01*
X158409255Y-69035368D01*
X158579522Y-68975789D01*
X158732262Y-68879816D01*
X158859816Y-68752262D01*
X158955789Y-68599522D01*
X159015368Y-68429255D01*
X159035565Y-68250000D01*
X159015368Y-68070745D01*
X159008276Y-68050478D01*
X158991014Y-68001145D01*
X158955789Y-67900478D01*
X158954069Y-67897741D01*
X158870674Y-67765017D01*
X158855500Y-67712346D01*
X158855500Y-67250096D01*
X158874407Y-67191905D01*
X158884497Y-67180092D01*
X158960094Y-67104496D01*
X159014611Y-67076719D01*
X159030097Y-67075500D01*
X165105500Y-67075500D01*
X165163691Y-67094407D01*
X165199655Y-67143907D01*
X165204500Y-67174500D01*
X165204499Y-79570019D01*
X165202904Y-79584466D01*
X165202912Y-79584467D01*
X165202326Y-79590664D01*
X165203641Y-79632483D01*
X165204476Y-79659067D01*
X165204500Y-79660587D01*
X165204500Y-79689353D01*
X165205442Y-79696820D01*
X165205808Y-79701466D01*
X165207291Y-79748630D01*
X165207291Y-79748633D01*
X165213428Y-79769755D01*
X165216578Y-79784966D01*
X165219334Y-79806787D01*
X165220885Y-79812825D01*
X165219304Y-79813230D01*
X165223463Y-79844441D01*
X165224435Y-79844441D01*
X165224435Y-79849996D01*
X165224435Y-79850000D01*
X165233915Y-79934134D01*
X165244632Y-80029257D01*
X165244633Y-80029261D01*
X165304211Y-80199522D01*
X165304211Y-80199523D01*
X165400181Y-80352258D01*
X165400184Y-80352262D01*
X165527738Y-80479816D01*
X165527740Y-80479817D01*
X165527741Y-80479818D01*
X165527744Y-80479820D01*
X165577270Y-80510939D01*
X165616483Y-80557907D01*
X165623600Y-80594765D01*
X165623600Y-88039114D01*
X165622004Y-88053564D01*
X165622013Y-88053565D01*
X165621426Y-88059767D01*
X165622713Y-88100697D01*
X165623576Y-88128168D01*
X165623600Y-88129686D01*
X165623600Y-88158453D01*
X165624542Y-88165920D01*
X165624908Y-88170566D01*
X165626391Y-88217730D01*
X165626391Y-88217733D01*
X165632528Y-88238855D01*
X165635678Y-88254066D01*
X165638434Y-88275887D01*
X165655804Y-88319760D01*
X165657315Y-88324173D01*
X165670481Y-88369488D01*
X165670482Y-88369490D01*
X165681680Y-88388425D01*
X165688512Y-88402372D01*
X165696612Y-88422827D01*
X165696614Y-88422832D01*
X165724351Y-88461009D01*
X165726912Y-88464908D01*
X165750928Y-88505518D01*
X165750928Y-88505519D01*
X165766489Y-88521080D01*
X165776573Y-88532886D01*
X165789506Y-88550687D01*
X165789507Y-88550688D01*
X165789508Y-88550689D01*
X165789510Y-88550691D01*
X165825858Y-88580760D01*
X165829310Y-88583901D01*
X167559974Y-90314564D01*
X167587751Y-90369081D01*
X167588347Y-90373483D01*
X167594631Y-90429254D01*
X167594631Y-90429256D01*
X167654211Y-90599522D01*
X167654212Y-90599526D01*
X167708035Y-90685182D01*
X167739325Y-90734980D01*
X167754500Y-90787651D01*
X167754500Y-91083446D01*
X167739326Y-91136117D01*
X167654211Y-91271576D01*
X167654211Y-91271577D01*
X167594631Y-91441843D01*
X167593861Y-91445222D01*
X167592868Y-91446884D01*
X167592795Y-91447093D01*
X167592752Y-91447078D01*
X167562483Y-91497749D01*
X167506224Y-91521801D01*
X167497342Y-91522200D01*
X167167524Y-91522200D01*
X167109333Y-91503293D01*
X167097520Y-91493204D01*
X167096496Y-91492180D01*
X167090549Y-91487566D01*
X167087003Y-91484538D01*
X167052608Y-91452238D01*
X167033702Y-91441845D01*
X167033324Y-91441637D01*
X167020343Y-91433110D01*
X167011887Y-91426551D01*
X167002959Y-91419625D01*
X166959656Y-91400886D01*
X166955467Y-91398834D01*
X166927903Y-91383682D01*
X166914117Y-91376103D01*
X166914115Y-91376102D01*
X166914111Y-91376100D01*
X166892805Y-91370630D01*
X166878108Y-91365598D01*
X166857921Y-91356862D01*
X166857915Y-91356860D01*
X166811311Y-91349479D01*
X166806743Y-91348533D01*
X166761046Y-91336800D01*
X166761044Y-91336800D01*
X166739043Y-91336800D01*
X166723555Y-91335581D01*
X166701829Y-91332139D01*
X166654853Y-91336580D01*
X166650192Y-91336800D01*
X157237683Y-91336800D01*
X157223229Y-91335204D01*
X157223229Y-91335213D01*
X157217031Y-91334626D01*
X157172667Y-91336021D01*
X157148632Y-91336776D01*
X157147113Y-91336800D01*
X157118346Y-91336800D01*
X157110879Y-91337742D01*
X157106234Y-91338108D01*
X157059071Y-91339591D01*
X157037944Y-91345729D01*
X157022734Y-91348878D01*
X157000911Y-91351634D01*
X156957040Y-91369003D01*
X156952629Y-91370513D01*
X156918026Y-91380568D01*
X156890402Y-91384500D01*
X155406844Y-91384500D01*
X155354173Y-91369326D01*
X155280623Y-91323111D01*
X155110356Y-91263531D01*
X155107466Y-91262872D01*
X155106046Y-91262023D01*
X155105107Y-91261695D01*
X155105174Y-91261502D01*
X155054943Y-91231487D01*
X155030898Y-91175224D01*
X155030500Y-91166355D01*
X155030500Y-85222584D01*
X155049407Y-85164393D01*
X155059499Y-85152578D01*
X155059816Y-85152262D01*
X155155789Y-84999522D01*
X155215368Y-84829255D01*
X155235565Y-84650000D01*
X155215368Y-84470745D01*
X155213599Y-84465690D01*
X155190446Y-84399522D01*
X155155789Y-84300478D01*
X155116369Y-84237742D01*
X155059818Y-84147741D01*
X155059817Y-84147740D01*
X155059816Y-84147738D01*
X154932262Y-84020184D01*
X154932259Y-84020182D01*
X154932258Y-84020181D01*
X154779523Y-83924211D01*
X154609261Y-83864633D01*
X154609257Y-83864632D01*
X154430000Y-83844435D01*
X154250742Y-83864632D01*
X154250738Y-83864633D01*
X154080477Y-83924211D01*
X154080476Y-83924211D01*
X153927741Y-84020181D01*
X153800181Y-84147741D01*
X153704211Y-84300476D01*
X153704211Y-84300477D01*
X153644633Y-84470738D01*
X153644632Y-84470742D01*
X153624435Y-84650000D01*
X153644632Y-84829257D01*
X153644633Y-84829261D01*
X153704211Y-84999522D01*
X153704211Y-84999523D01*
X153800181Y-85152258D01*
X153800184Y-85152262D01*
X153800496Y-85152574D01*
X153800607Y-85152792D01*
X153803648Y-85156605D01*
X153802867Y-85157227D01*
X153828279Y-85207085D01*
X153829500Y-85222584D01*
X153829500Y-92351600D01*
X153810593Y-92409791D01*
X153761093Y-92445755D01*
X153730500Y-92450600D01*
X149141943Y-92450600D01*
X149083752Y-92431693D01*
X149071939Y-92421604D01*
X148559496Y-91909160D01*
X148531719Y-91854643D01*
X148530500Y-91839156D01*
X148530500Y-78822584D01*
X148549407Y-78764393D01*
X148559499Y-78752578D01*
X148559816Y-78752262D01*
X148655789Y-78599522D01*
X148715368Y-78429255D01*
X148735565Y-78250000D01*
X148715368Y-78070745D01*
X148655789Y-77900478D01*
X148559816Y-77747738D01*
X148432262Y-77620184D01*
X148432259Y-77620182D01*
X148432258Y-77620181D01*
X148279523Y-77524211D01*
X148109261Y-77464633D01*
X148109257Y-77464632D01*
X147930000Y-77444435D01*
X147750742Y-77464632D01*
X147750738Y-77464633D01*
X147580477Y-77524211D01*
X147580476Y-77524211D01*
X147427741Y-77620181D01*
X147300181Y-77747741D01*
X147204211Y-77900476D01*
X147204211Y-77900477D01*
X147144633Y-78070738D01*
X147144632Y-78070742D01*
X147124435Y-78250000D01*
X127500500Y-78250000D01*
X127500500Y-66289742D01*
X127519407Y-66231551D01*
X127529490Y-66219744D01*
X130294490Y-63454743D01*
X130299357Y-63450475D01*
X130328282Y-63428282D01*
X130328281Y-63428282D01*
X130333432Y-63424331D01*
X130334492Y-63425712D01*
X130381584Y-63401719D01*
X130397071Y-63400500D01*
X155600500Y-63400500D01*
X155658691Y-63419407D01*
X155694655Y-63468907D01*
X155699500Y-63499500D01*
X155699500Y-67827414D01*
X155680593Y-67885605D01*
X155670512Y-67897409D01*
X155670189Y-67897731D01*
X155670181Y-67897741D01*
X155574211Y-68050476D01*
X155574211Y-68050477D01*
X155514633Y-68220738D01*
X155514632Y-68220742D01*
X155494435Y-68400000D01*
X155514632Y-68579257D01*
X155514633Y-68579261D01*
X155574211Y-68749522D01*
X155574211Y-68749523D01*
X155656080Y-68879816D01*
X155670184Y-68902262D01*
X155797738Y-69029816D01*
X155797740Y-69029817D01*
X155797741Y-69029818D01*
X155838715Y-69055564D01*
X155950478Y-69125789D01*
X156018657Y-69149646D01*
X156120738Y-69185366D01*
X156120742Y-69185367D01*
X156120745Y-69185368D01*
X156300000Y-69205565D01*
X156479255Y-69185368D01*
X156649522Y-69125789D01*
X156802262Y-69029816D01*
X156929816Y-68902262D01*
X157025789Y-68749522D01*
X157085368Y-68579255D01*
X157105565Y-68400000D01*
X157085368Y-68220745D01*
X157025789Y-68050478D01*
X156931536Y-67900476D01*
X156929818Y-67897741D01*
X156929810Y-67897731D01*
X156929488Y-67897409D01*
X156929372Y-67897182D01*
X156926352Y-67893395D01*
X156927128Y-67892776D01*
X156901717Y-67842890D01*
X156900500Y-67827414D01*
X156900500Y-62842608D01*
X156900924Y-62836140D01*
X156905682Y-62800000D01*
X156905682Y-62799999D01*
X156899079Y-62749843D01*
X156885044Y-62643238D01*
X156875102Y-62619236D01*
X156824537Y-62497161D01*
X156824537Y-62497160D01*
X156728286Y-62371723D01*
X156728285Y-62371722D01*
X156728282Y-62371718D01*
X156728277Y-62371714D01*
X156728276Y-62371713D01*
X156653496Y-62314333D01*
X156602841Y-62275464D01*
X156602840Y-62275463D01*
X156602838Y-62275462D01*
X156593236Y-62271485D01*
X156546710Y-62231749D01*
X156532426Y-62172254D01*
X156555840Y-62115726D01*
X156608009Y-62083757D01*
X156631045Y-62081021D01*
X181858573Y-62062101D01*
X181861436Y-62062181D01*
G37*
%TD.AperFunction*%
%TD*%
M02*
