%TF.GenerationSoftware,KiCad,Pcbnew,7.0.5*%
%TF.CreationDate,2024-02-09T08:38:42-06:00*%
%TF.ProjectId,peakick,7065616b-6963-46b2-9e6b-696361645f70,rev?*%
%TF.SameCoordinates,Original*%
%TF.FileFunction,Soldermask,Top*%
%TF.FilePolarity,Negative*%
%FSLAX46Y46*%
G04 Gerber Fmt 4.6, Leading zero omitted, Abs format (unit mm)*
G04 Created by KiCad (PCBNEW 7.0.5) date 2024-02-09 08:38:42*
%MOMM*%
%LPD*%
G01*
G04 APERTURE LIST*
G04 Aperture macros list*
%AMRoundRect*
0 Rectangle with rounded corners*
0 $1 Rounding radius*
0 $2 $3 $4 $5 $6 $7 $8 $9 X,Y pos of 4 corners*
0 Add a 4 corners polygon primitive as box body*
4,1,4,$2,$3,$4,$5,$6,$7,$8,$9,$2,$3,0*
0 Add four circle primitives for the rounded corners*
1,1,$1+$1,$2,$3*
1,1,$1+$1,$4,$5*
1,1,$1+$1,$6,$7*
1,1,$1+$1,$8,$9*
0 Add four rect primitives between the rounded corners*
20,1,$1+$1,$2,$3,$4,$5,0*
20,1,$1+$1,$4,$5,$6,$7,0*
20,1,$1+$1,$6,$7,$8,$9,0*
20,1,$1+$1,$8,$9,$2,$3,0*%
G04 Aperture macros list end*
%ADD10C,0.010000*%
%ADD11C,0.100000*%
%ADD12RoundRect,0.102000X-0.875000X-0.200000X0.875000X-0.200000X0.875000X0.200000X-0.875000X0.200000X0*%
%ADD13O,2.604000X1.404000*%
%ADD14RoundRect,0.102000X1.250000X-0.712500X1.250000X0.712500X-1.250000X0.712500X-1.250000X-0.712500X0*%
%ADD15RoundRect,0.102000X-1.250000X0.712500X-1.250000X-0.712500X1.250000X-0.712500X1.250000X0.712500X0*%
%ADD16RoundRect,0.225000X0.225000X0.250000X-0.225000X0.250000X-0.225000X-0.250000X0.225000X-0.250000X0*%
%ADD17RoundRect,0.101600X-0.500000X0.550000X-0.500000X-0.550000X0.500000X-0.550000X0.500000X0.550000X0*%
%ADD18RoundRect,0.101600X-0.550000X-0.500000X0.550000X-0.500000X0.550000X0.500000X-0.550000X0.500000X0*%
%ADD19RoundRect,0.200000X-0.200000X-0.275000X0.200000X-0.275000X0.200000X0.275000X-0.200000X0.275000X0*%
%ADD20RoundRect,0.101600X-0.275000X-0.600000X0.275000X-0.600000X0.275000X0.600000X-0.275000X0.600000X0*%
%ADD21RoundRect,0.101600X0.450000X-0.425000X0.450000X0.425000X-0.450000X0.425000X-0.450000X-0.425000X0*%
%ADD22RoundRect,0.101600X0.675000X-0.300000X0.675000X0.300000X-0.675000X0.300000X-0.675000X-0.300000X0*%
%ADD23RoundRect,0.101600X1.000000X-0.600000X1.000000X0.600000X-1.000000X0.600000X-1.000000X-0.600000X0*%
%ADD24RoundRect,0.101600X0.415000X-0.315000X0.415000X0.315000X-0.415000X0.315000X-0.415000X-0.315000X0*%
%ADD25RoundRect,0.101600X0.550000X0.500000X-0.550000X0.500000X-0.550000X-0.500000X0.550000X-0.500000X0*%
%ADD26RoundRect,0.250000X-0.250000X-0.475000X0.250000X-0.475000X0.250000X0.475000X-0.250000X0.475000X0*%
%ADD27RoundRect,0.101600X0.500000X-0.550000X0.500000X0.550000X-0.500000X0.550000X-0.500000X-0.550000X0*%
%ADD28C,3.048000*%
%ADD29RoundRect,0.101600X-0.425000X-0.450000X0.425000X-0.450000X0.425000X0.450000X-0.425000X0.450000X0*%
%ADD30RoundRect,0.101600X0.900000X-0.500000X0.900000X0.500000X-0.900000X0.500000X-0.900000X-0.500000X0*%
%ADD31RoundRect,0.225000X-0.250000X0.225000X-0.250000X-0.225000X0.250000X-0.225000X0.250000X0.225000X0*%
%ADD32RoundRect,0.101600X-0.400000X-0.600000X0.400000X-0.600000X0.400000X0.600000X-0.400000X0.600000X0*%
%ADD33RoundRect,0.251600X0.350000X0.350000X-0.350000X0.350000X-0.350000X-0.350000X0.350000X-0.350000X0*%
%ADD34RoundRect,0.101600X0.500000X-0.110000X0.500000X0.110000X-0.500000X0.110000X-0.500000X-0.110000X0*%
%ADD35RoundRect,0.101600X0.110000X0.500000X-0.110000X0.500000X-0.110000X-0.500000X0.110000X-0.500000X0*%
%ADD36RoundRect,0.101600X-0.500000X0.110000X-0.500000X-0.110000X0.500000X-0.110000X0.500000X0.110000X0*%
%ADD37RoundRect,0.101600X-0.110000X-0.500000X0.110000X-0.500000X0.110000X0.500000X-0.110000X0.500000X0*%
%ADD38RoundRect,0.225000X0.250000X-0.225000X0.250000X0.225000X-0.250000X0.225000X-0.250000X-0.225000X0*%
%ADD39RoundRect,0.218750X0.218750X0.256250X-0.218750X0.256250X-0.218750X-0.256250X0.218750X-0.256250X0*%
%ADD40R,0.254000X0.279400*%
%ADD41R,0.279400X0.254000*%
%ADD42RoundRect,0.101600X0.275000X0.600000X-0.275000X0.600000X-0.275000X-0.600000X0.275000X-0.600000X0*%
%ADD43R,0.900000X1.000000*%
%ADD44RoundRect,0.101600X0.425000X0.450000X-0.425000X0.450000X-0.425000X-0.450000X0.425000X-0.450000X0*%
%ADD45RoundRect,0.101600X-0.400000X-0.450000X0.400000X-0.450000X0.400000X0.450000X-0.400000X0.450000X0*%
%ADD46R,0.304800X0.457200*%
%ADD47R,0.457200X0.304800*%
%ADD48C,1.200000*%
%ADD49C,1.070000*%
%ADD50C,1.400000*%
G04 APERTURE END LIST*
%TO.C,J4*%
D10*
X131732500Y-102853250D02*
X130072500Y-102853250D01*
X130072500Y-100653250D01*
X131732500Y-100653250D01*
X131732500Y-102853250D01*
G36*
X131732500Y-102853250D02*
G01*
X130072500Y-102853250D01*
X130072500Y-100653250D01*
X131732500Y-100653250D01*
X131732500Y-102853250D01*
G37*
X131732500Y-108653250D02*
X130072500Y-108653250D01*
X130072500Y-106453250D01*
X131732500Y-106453250D01*
X131732500Y-108653250D01*
G36*
X131732500Y-108653250D02*
G01*
X130072500Y-108653250D01*
X130072500Y-106453250D01*
X131732500Y-106453250D01*
X131732500Y-108653250D01*
G37*
X130022500Y-102678250D02*
X127072500Y-102678250D01*
X127046500Y-102677250D01*
X127020500Y-102675250D01*
X126994500Y-102672250D01*
X126968500Y-102667250D01*
X126943500Y-102661250D01*
X126917500Y-102654250D01*
X126893500Y-102645250D01*
X126869500Y-102635250D01*
X126845500Y-102624250D01*
X126822500Y-102611250D01*
X126800500Y-102597250D01*
X126778500Y-102583250D01*
X126757500Y-102567250D01*
X126737500Y-102550250D01*
X126718500Y-102532250D01*
X126700500Y-102513250D01*
X126683500Y-102493250D01*
X126667500Y-102472250D01*
X126653500Y-102450250D01*
X126639500Y-102428250D01*
X126626500Y-102405250D01*
X126615500Y-102381250D01*
X126605500Y-102357250D01*
X126596500Y-102333250D01*
X126589500Y-102307250D01*
X126583500Y-102282250D01*
X126578500Y-102256250D01*
X126575500Y-102230250D01*
X126573500Y-102204250D01*
X126572500Y-102178250D01*
X126572500Y-101678250D01*
X126573500Y-101652250D01*
X126575500Y-101626250D01*
X126578500Y-101600250D01*
X126583500Y-101574250D01*
X126589500Y-101549250D01*
X126596500Y-101523250D01*
X126605500Y-101499250D01*
X126615500Y-101475250D01*
X126626500Y-101451250D01*
X126639500Y-101428250D01*
X126653500Y-101406250D01*
X126667500Y-101384250D01*
X126683500Y-101363250D01*
X126700500Y-101343250D01*
X126718500Y-101324250D01*
X126737500Y-101306250D01*
X126757500Y-101289250D01*
X126778500Y-101273250D01*
X126800500Y-101259250D01*
X126822500Y-101245250D01*
X126845500Y-101232250D01*
X126869500Y-101221250D01*
X126893500Y-101211250D01*
X126917500Y-101202250D01*
X126943500Y-101195250D01*
X126968500Y-101189250D01*
X126994500Y-101184250D01*
X127020500Y-101181250D01*
X127046500Y-101179250D01*
X127072500Y-101178250D01*
X129122500Y-101178250D01*
X129122500Y-100653250D01*
X130022500Y-100653250D01*
X130022500Y-102678250D01*
G36*
X130022500Y-102678250D02*
G01*
X127072500Y-102678250D01*
X127046500Y-102677250D01*
X127020500Y-102675250D01*
X126994500Y-102672250D01*
X126968500Y-102667250D01*
X126943500Y-102661250D01*
X126917500Y-102654250D01*
X126893500Y-102645250D01*
X126869500Y-102635250D01*
X126845500Y-102624250D01*
X126822500Y-102611250D01*
X126800500Y-102597250D01*
X126778500Y-102583250D01*
X126757500Y-102567250D01*
X126737500Y-102550250D01*
X126718500Y-102532250D01*
X126700500Y-102513250D01*
X126683500Y-102493250D01*
X126667500Y-102472250D01*
X126653500Y-102450250D01*
X126639500Y-102428250D01*
X126626500Y-102405250D01*
X126615500Y-102381250D01*
X126605500Y-102357250D01*
X126596500Y-102333250D01*
X126589500Y-102307250D01*
X126583500Y-102282250D01*
X126578500Y-102256250D01*
X126575500Y-102230250D01*
X126573500Y-102204250D01*
X126572500Y-102178250D01*
X126572500Y-101678250D01*
X126573500Y-101652250D01*
X126575500Y-101626250D01*
X126578500Y-101600250D01*
X126583500Y-101574250D01*
X126589500Y-101549250D01*
X126596500Y-101523250D01*
X126605500Y-101499250D01*
X126615500Y-101475250D01*
X126626500Y-101451250D01*
X126639500Y-101428250D01*
X126653500Y-101406250D01*
X126667500Y-101384250D01*
X126683500Y-101363250D01*
X126700500Y-101343250D01*
X126718500Y-101324250D01*
X126737500Y-101306250D01*
X126757500Y-101289250D01*
X126778500Y-101273250D01*
X126800500Y-101259250D01*
X126822500Y-101245250D01*
X126845500Y-101232250D01*
X126869500Y-101221250D01*
X126893500Y-101211250D01*
X126917500Y-101202250D01*
X126943500Y-101195250D01*
X126968500Y-101189250D01*
X126994500Y-101184250D01*
X127020500Y-101181250D01*
X127046500Y-101179250D01*
X127072500Y-101178250D01*
X129122500Y-101178250D01*
X129122500Y-100653250D01*
X130022500Y-100653250D01*
X130022500Y-102678250D01*
G37*
X130022500Y-108653250D02*
X129122500Y-108653250D01*
X129122500Y-108128250D01*
X127072500Y-108128250D01*
X127046500Y-108127250D01*
X127020500Y-108125250D01*
X126994500Y-108122250D01*
X126968500Y-108117250D01*
X126943500Y-108111250D01*
X126917500Y-108104250D01*
X126893500Y-108095250D01*
X126869500Y-108085250D01*
X126845500Y-108074250D01*
X126822500Y-108061250D01*
X126800500Y-108047250D01*
X126778500Y-108033250D01*
X126757500Y-108017250D01*
X126737500Y-108000250D01*
X126718500Y-107982250D01*
X126700500Y-107963250D01*
X126683500Y-107943250D01*
X126667500Y-107922250D01*
X126653500Y-107900250D01*
X126639500Y-107878250D01*
X126626500Y-107855250D01*
X126615500Y-107831250D01*
X126605500Y-107807250D01*
X126596500Y-107783250D01*
X126589500Y-107757250D01*
X126583500Y-107732250D01*
X126578500Y-107706250D01*
X126575500Y-107680250D01*
X126573500Y-107654250D01*
X126572500Y-107628250D01*
X126572500Y-107128250D01*
X126573500Y-107102250D01*
X126575500Y-107076250D01*
X126578500Y-107050250D01*
X126583500Y-107024250D01*
X126589500Y-106999250D01*
X126596500Y-106973250D01*
X126605500Y-106949250D01*
X126615500Y-106925250D01*
X126626500Y-106901250D01*
X126639500Y-106878250D01*
X126653500Y-106856250D01*
X126667500Y-106834250D01*
X126683500Y-106813250D01*
X126700500Y-106793250D01*
X126718500Y-106774250D01*
X126737500Y-106756250D01*
X126757500Y-106739250D01*
X126778500Y-106723250D01*
X126800500Y-106709250D01*
X126822500Y-106695250D01*
X126845500Y-106682250D01*
X126869500Y-106671250D01*
X126893500Y-106661250D01*
X126917500Y-106652250D01*
X126943500Y-106645250D01*
X126968500Y-106639250D01*
X126994500Y-106634250D01*
X127020500Y-106631250D01*
X127046500Y-106629250D01*
X127072500Y-106628250D01*
X130022500Y-106628250D01*
X130022500Y-108653250D01*
G36*
X130022500Y-108653250D02*
G01*
X129122500Y-108653250D01*
X129122500Y-108128250D01*
X127072500Y-108128250D01*
X127046500Y-108127250D01*
X127020500Y-108125250D01*
X126994500Y-108122250D01*
X126968500Y-108117250D01*
X126943500Y-108111250D01*
X126917500Y-108104250D01*
X126893500Y-108095250D01*
X126869500Y-108085250D01*
X126845500Y-108074250D01*
X126822500Y-108061250D01*
X126800500Y-108047250D01*
X126778500Y-108033250D01*
X126757500Y-108017250D01*
X126737500Y-108000250D01*
X126718500Y-107982250D01*
X126700500Y-107963250D01*
X126683500Y-107943250D01*
X126667500Y-107922250D01*
X126653500Y-107900250D01*
X126639500Y-107878250D01*
X126626500Y-107855250D01*
X126615500Y-107831250D01*
X126605500Y-107807250D01*
X126596500Y-107783250D01*
X126589500Y-107757250D01*
X126583500Y-107732250D01*
X126578500Y-107706250D01*
X126575500Y-107680250D01*
X126573500Y-107654250D01*
X126572500Y-107628250D01*
X126572500Y-107128250D01*
X126573500Y-107102250D01*
X126575500Y-107076250D01*
X126578500Y-107050250D01*
X126583500Y-107024250D01*
X126589500Y-106999250D01*
X126596500Y-106973250D01*
X126605500Y-106949250D01*
X126615500Y-106925250D01*
X126626500Y-106901250D01*
X126639500Y-106878250D01*
X126653500Y-106856250D01*
X126667500Y-106834250D01*
X126683500Y-106813250D01*
X126700500Y-106793250D01*
X126718500Y-106774250D01*
X126737500Y-106756250D01*
X126757500Y-106739250D01*
X126778500Y-106723250D01*
X126800500Y-106709250D01*
X126822500Y-106695250D01*
X126845500Y-106682250D01*
X126869500Y-106671250D01*
X126893500Y-106661250D01*
X126917500Y-106652250D01*
X126943500Y-106645250D01*
X126968500Y-106639250D01*
X126994500Y-106634250D01*
X127020500Y-106631250D01*
X127046500Y-106629250D01*
X127072500Y-106628250D01*
X130022500Y-106628250D01*
X130022500Y-108653250D01*
G37*
%TO.C,U3*%
D11*
X157287500Y-96425000D02*
X154537500Y-96425000D01*
X154537500Y-94175000D01*
X157287500Y-94175000D01*
X157287500Y-96425000D01*
G36*
X157287500Y-96425000D02*
G01*
X154537500Y-96425000D01*
X154537500Y-94175000D01*
X157287500Y-94175000D01*
X157287500Y-96425000D01*
G37*
%TO.C,U2*%
D10*
X160880000Y-70650000D02*
X159380000Y-70650000D01*
X159380000Y-68850000D01*
X160880000Y-68850000D01*
X160880000Y-70650000D01*
G36*
X160880000Y-70650000D02*
G01*
X159380000Y-70650000D01*
X159380000Y-68850000D01*
X160880000Y-68850000D01*
X160880000Y-70650000D01*
G37*
X158980000Y-70650000D02*
X157480000Y-70650000D01*
X157480000Y-68850000D01*
X158980000Y-68850000D01*
X158980000Y-70650000D01*
G36*
X158980000Y-70650000D02*
G01*
X157480000Y-70650000D01*
X157480000Y-68850000D01*
X158980000Y-68850000D01*
X158980000Y-70650000D01*
G37*
X157080000Y-70650000D02*
X155580000Y-70650000D01*
X155580000Y-68850000D01*
X157080000Y-68850000D01*
X157080000Y-70650000D01*
G36*
X157080000Y-70650000D02*
G01*
X155580000Y-70650000D01*
X155580000Y-68850000D01*
X157080000Y-68850000D01*
X157080000Y-70650000D01*
G37*
X155180000Y-70650000D02*
X153680000Y-70650000D01*
X153680000Y-68850000D01*
X155180000Y-68850000D01*
X155180000Y-70650000D01*
G36*
X155180000Y-70650000D02*
G01*
X153680000Y-70650000D01*
X153680000Y-68850000D01*
X155180000Y-68850000D01*
X155180000Y-70650000D01*
G37*
X153280000Y-70650000D02*
X151780000Y-70650000D01*
X151780000Y-68850000D01*
X153280000Y-68850000D01*
X153280000Y-70650000D01*
G36*
X153280000Y-70650000D02*
G01*
X151780000Y-70650000D01*
X151780000Y-68850000D01*
X153280000Y-68850000D01*
X153280000Y-70650000D01*
G37*
X163830000Y-73300000D02*
X162030000Y-73300000D01*
X162030000Y-71800000D01*
X163830000Y-71800000D01*
X163830000Y-73300000D01*
G36*
X163830000Y-73300000D02*
G01*
X162030000Y-73300000D01*
X162030000Y-71800000D01*
X163830000Y-71800000D01*
X163830000Y-73300000D01*
G37*
X150630000Y-73300000D02*
X148830000Y-73300000D01*
X148830000Y-71800000D01*
X150630000Y-71800000D01*
X150630000Y-73300000D01*
G36*
X150630000Y-73300000D02*
G01*
X148830000Y-73300000D01*
X148830000Y-71800000D01*
X150630000Y-71800000D01*
X150630000Y-73300000D01*
G37*
X163830000Y-75200000D02*
X162030000Y-75200000D01*
X162030000Y-73700000D01*
X163830000Y-73700000D01*
X163830000Y-75200000D01*
G36*
X163830000Y-75200000D02*
G01*
X162030000Y-75200000D01*
X162030000Y-73700000D01*
X163830000Y-73700000D01*
X163830000Y-75200000D01*
G37*
X150630000Y-75200000D02*
X148830000Y-75200000D01*
X148830000Y-73700000D01*
X150630000Y-73700000D01*
X150630000Y-75200000D01*
G36*
X150630000Y-75200000D02*
G01*
X148830000Y-75200000D01*
X148830000Y-73700000D01*
X150630000Y-73700000D01*
X150630000Y-75200000D01*
G37*
X163830000Y-77100000D02*
X162030000Y-77100000D01*
X162030000Y-75600000D01*
X163830000Y-75600000D01*
X163830000Y-77100000D01*
G36*
X163830000Y-77100000D02*
G01*
X162030000Y-77100000D01*
X162030000Y-75600000D01*
X163830000Y-75600000D01*
X163830000Y-77100000D01*
G37*
X150630000Y-77100000D02*
X148830000Y-77100000D01*
X148830000Y-75600000D01*
X150630000Y-75600000D01*
X150630000Y-77100000D01*
G36*
X150630000Y-77100000D02*
G01*
X148830000Y-77100000D01*
X148830000Y-75600000D01*
X150630000Y-75600000D01*
X150630000Y-77100000D01*
G37*
X163830000Y-79000000D02*
X162030000Y-79000000D01*
X162030000Y-77500000D01*
X163830000Y-77500000D01*
X163830000Y-79000000D01*
G36*
X163830000Y-79000000D02*
G01*
X162030000Y-79000000D01*
X162030000Y-77500000D01*
X163830000Y-77500000D01*
X163830000Y-79000000D01*
G37*
X150630000Y-79000000D02*
X148830000Y-79000000D01*
X148830000Y-77500000D01*
X150630000Y-77500000D01*
X150630000Y-79000000D01*
G36*
X150630000Y-79000000D02*
G01*
X148830000Y-79000000D01*
X148830000Y-77500000D01*
X150630000Y-77500000D01*
X150630000Y-79000000D01*
G37*
X163830000Y-80900000D02*
X162030000Y-80900000D01*
X162030000Y-79400000D01*
X163830000Y-79400000D01*
X163830000Y-80900000D01*
G36*
X163830000Y-80900000D02*
G01*
X162030000Y-80900000D01*
X162030000Y-79400000D01*
X163830000Y-79400000D01*
X163830000Y-80900000D01*
G37*
X150630000Y-80900000D02*
X148830000Y-80900000D01*
X148830000Y-79400000D01*
X150630000Y-79400000D01*
X150630000Y-80900000D01*
G36*
X150630000Y-80900000D02*
G01*
X148830000Y-80900000D01*
X148830000Y-79400000D01*
X150630000Y-79400000D01*
X150630000Y-80900000D01*
G37*
X160880000Y-83850000D02*
X159380000Y-83850000D01*
X159380000Y-82050000D01*
X160880000Y-82050000D01*
X160880000Y-83850000D01*
G36*
X160880000Y-83850000D02*
G01*
X159380000Y-83850000D01*
X159380000Y-82050000D01*
X160880000Y-82050000D01*
X160880000Y-83850000D01*
G37*
X158980000Y-83850000D02*
X157480000Y-83850000D01*
X157480000Y-82050000D01*
X158980000Y-82050000D01*
X158980000Y-83850000D01*
G36*
X158980000Y-83850000D02*
G01*
X157480000Y-83850000D01*
X157480000Y-82050000D01*
X158980000Y-82050000D01*
X158980000Y-83850000D01*
G37*
X157080000Y-83850000D02*
X155580000Y-83850000D01*
X155580000Y-82050000D01*
X157080000Y-82050000D01*
X157080000Y-83850000D01*
G36*
X157080000Y-83850000D02*
G01*
X155580000Y-83850000D01*
X155580000Y-82050000D01*
X157080000Y-82050000D01*
X157080000Y-83850000D01*
G37*
X155180000Y-83850000D02*
X153680000Y-83850000D01*
X153680000Y-82050000D01*
X155180000Y-82050000D01*
X155180000Y-83850000D01*
G36*
X155180000Y-83850000D02*
G01*
X153680000Y-83850000D01*
X153680000Y-82050000D01*
X155180000Y-82050000D01*
X155180000Y-83850000D01*
G37*
X153280000Y-83850000D02*
X151780000Y-83850000D01*
X151780000Y-82050000D01*
X153280000Y-82050000D01*
X153280000Y-83850000D01*
G36*
X153280000Y-83850000D02*
G01*
X151780000Y-83850000D01*
X151780000Y-82050000D01*
X153280000Y-82050000D01*
X153280000Y-83850000D01*
G37*
%TD*%
D12*
%TO.C,J4*%
X130697500Y-103353250D03*
X130697500Y-104003250D03*
X130697500Y-104653250D03*
X130697500Y-105303250D03*
X130697500Y-105953250D03*
D13*
X127872500Y-101928250D03*
X127872500Y-107378250D03*
D14*
X127622500Y-103690750D03*
D15*
X127622500Y-105615750D03*
%TD*%
D16*
%TO.C,C7*%
X172850000Y-109750000D03*
X171300000Y-109750000D03*
%TD*%
D17*
%TO.C,C22*%
X145675000Y-94625000D03*
X145675000Y-96325000D03*
%TD*%
D18*
%TO.C,C11*%
X145075000Y-107750000D03*
X146775000Y-107750000D03*
%TD*%
D19*
%TO.C,R2*%
X178095000Y-86280000D03*
X179745000Y-86280000D03*
%TD*%
D20*
%TO.C,U5*%
X145000000Y-105725100D03*
X145950000Y-105725100D03*
X146900000Y-105725100D03*
X146900000Y-103124900D03*
X145000000Y-103124900D03*
%TD*%
D19*
%TO.C,R1*%
X178045000Y-87940000D03*
X179695000Y-87940000D03*
%TD*%
D21*
%TO.C,C13*%
X150150000Y-100555000D03*
X150150000Y-99395000D03*
%TD*%
D22*
%TO.C,J3*%
X179250000Y-107875000D03*
X179250000Y-106875000D03*
X179250000Y-105875000D03*
X179250000Y-104875000D03*
D23*
X182925000Y-103575000D03*
X182925000Y-109175000D03*
%TD*%
D24*
%TO.C,D1*%
X134300000Y-103425000D03*
X134300000Y-105725000D03*
%TD*%
D25*
%TO.C,L1*%
X167550000Y-99300000D03*
X165850000Y-99300000D03*
%TD*%
D26*
%TO.C,C1*%
X166080000Y-78250000D03*
X167980000Y-78250000D03*
%TD*%
D17*
%TO.C,R7*%
X148375000Y-104350000D03*
X148375000Y-106050000D03*
%TD*%
D27*
%TO.C,R9*%
X142700000Y-100350000D03*
X142700000Y-98650000D03*
%TD*%
D28*
%TO.C,H1*%
X128575000Y-95650000D03*
%TD*%
D29*
%TO.C,C9*%
X165845000Y-110025000D03*
X167005000Y-110025000D03*
%TD*%
D27*
%TO.C,C16*%
X144450000Y-100325000D03*
X144450000Y-98625000D03*
%TD*%
D17*
%TO.C,R13*%
X176875000Y-107525000D03*
X176875000Y-109225000D03*
%TD*%
D30*
%TO.C,Y1*%
X166225000Y-108700000D03*
X166225000Y-106200000D03*
%TD*%
D31*
%TO.C,C3*%
X151700000Y-95325000D03*
X151700000Y-96875000D03*
%TD*%
%TO.C,C6*%
X153312500Y-95325000D03*
X153312500Y-96875000D03*
%TD*%
D16*
%TO.C,C8*%
X173500000Y-103500000D03*
X171950000Y-103500000D03*
%TD*%
D27*
%TO.C,R11*%
X142975000Y-105825000D03*
X142975000Y-104125000D03*
%TD*%
%TO.C,R8*%
X148100000Y-112625000D03*
X148100000Y-110925000D03*
%TD*%
D32*
%TO.C,C18*%
X165700000Y-102525000D03*
X167500000Y-102525000D03*
%TD*%
D33*
%TO.C,LED4*%
X141100000Y-98498000D03*
X141100000Y-100252000D03*
%TD*%
D34*
%TO.C,U6*%
X163250000Y-107825000D03*
X163250000Y-107325000D03*
X163250000Y-106825000D03*
X163250000Y-106325000D03*
X163250000Y-105825000D03*
X163250000Y-105325000D03*
X163250000Y-104825000D03*
X163250000Y-104325000D03*
X163250000Y-103825000D03*
X163250000Y-103325000D03*
X163250000Y-102825000D03*
X163250000Y-102325000D03*
X163250000Y-101825000D03*
X163250000Y-101325000D03*
X163250000Y-100825000D03*
X163250000Y-100325000D03*
D35*
X161250000Y-98325000D03*
X160750000Y-98325000D03*
X160250000Y-98325000D03*
X159750000Y-98325000D03*
X159250000Y-98325000D03*
X158750000Y-98325000D03*
X158250000Y-98325000D03*
X157750000Y-98325000D03*
X157250000Y-98325000D03*
X156750000Y-98325000D03*
X156250000Y-98325000D03*
X155750000Y-98325000D03*
X155250000Y-98325000D03*
X154750000Y-98325000D03*
X154250000Y-98325000D03*
X153750000Y-98325000D03*
D36*
X151750000Y-100325000D03*
X151750000Y-100825000D03*
X151750000Y-101325000D03*
X151750000Y-101825000D03*
X151750000Y-102325000D03*
X151750000Y-102825000D03*
X151750000Y-103325000D03*
X151750000Y-103825000D03*
X151750000Y-104325000D03*
X151750000Y-104825000D03*
X151750000Y-105325000D03*
X151750000Y-105825000D03*
X151750000Y-106325000D03*
X151750000Y-106825000D03*
X151750000Y-107325000D03*
X151750000Y-107825000D03*
D37*
X153750000Y-109825000D03*
X154250000Y-109825000D03*
X154750000Y-109825000D03*
X155250000Y-109825000D03*
X155750000Y-109825000D03*
X156250000Y-109825000D03*
X156750000Y-109825000D03*
X157250000Y-109825000D03*
X157750000Y-109825000D03*
X158250000Y-109825000D03*
X158750000Y-109825000D03*
X159250000Y-109825000D03*
X159750000Y-109825000D03*
X160250000Y-109825000D03*
X160750000Y-109825000D03*
X161250000Y-109825000D03*
%TD*%
D29*
%TO.C,C10*%
X165870000Y-104825000D03*
X167030000Y-104825000D03*
%TD*%
D38*
%TO.C,C5*%
X154675000Y-93000000D03*
X154675000Y-91450000D03*
%TD*%
D18*
%TO.C,C21*%
X140175000Y-107650000D03*
X141875000Y-107650000D03*
%TD*%
D39*
%TO.C,LED3*%
X183137500Y-84570000D03*
X181562500Y-84570000D03*
%TD*%
D18*
%TO.C,R6*%
X136800000Y-107650000D03*
X138500000Y-107650000D03*
%TD*%
D40*
%TO.C,U1*%
X149700063Y-95200700D03*
X149199937Y-95200700D03*
D41*
X148700700Y-95449874D03*
X148700700Y-95950000D03*
X148700700Y-96450126D03*
D40*
X149199937Y-96699300D03*
X149700063Y-96699300D03*
D41*
X150199300Y-96450126D03*
X150199300Y-95950000D03*
X150199300Y-95449874D03*
%TD*%
D39*
%TO.C,LED1*%
X183117500Y-87980000D03*
X181542500Y-87980000D03*
%TD*%
D19*
%TO.C,R3*%
X178155000Y-84550000D03*
X179805000Y-84550000D03*
%TD*%
D42*
%TO.C,U7*%
X141074500Y-103174900D03*
X140124500Y-103174900D03*
X139174500Y-103174900D03*
X139174500Y-105775100D03*
X141074500Y-105775100D03*
%TD*%
D28*
%TO.C,H3*%
X181875000Y-113400000D03*
%TD*%
D43*
%TO.C,S1*%
X141400000Y-111850000D03*
X145500000Y-111850000D03*
X141400000Y-113450000D03*
X145500000Y-113450000D03*
%TD*%
D44*
%TO.C,C15*%
X157255000Y-112200000D03*
X156095000Y-112200000D03*
%TD*%
D29*
%TO.C,C20*%
X158645000Y-112200000D03*
X159805000Y-112200000D03*
%TD*%
D44*
%TO.C,C12*%
X159580000Y-96475000D03*
X158420000Y-96475000D03*
%TD*%
D27*
%TO.C,R12*%
X176650000Y-102175000D03*
X176650000Y-100475000D03*
%TD*%
D31*
%TO.C,C2*%
X147200000Y-93275000D03*
X147200000Y-94825000D03*
%TD*%
D21*
%TO.C,C14*%
X149900000Y-108755000D03*
X149900000Y-107595000D03*
%TD*%
D45*
%TO.C,Q1*%
X135975000Y-105475000D03*
X137875000Y-105475000D03*
X136925000Y-103375000D03*
%TD*%
D29*
%TO.C,C17*%
X165720000Y-100850000D03*
X166880000Y-100850000D03*
%TD*%
D39*
%TO.C,LED2*%
X183137500Y-86270000D03*
X181562500Y-86270000D03*
%TD*%
D28*
%TO.C,H2*%
X128525000Y-113450000D03*
%TD*%
D25*
%TO.C,C19*%
X154575000Y-112250000D03*
X152875000Y-112250000D03*
%TD*%
D38*
%TO.C,C4*%
X157175000Y-92975000D03*
X157175000Y-91425000D03*
%TD*%
D46*
%TO.C,U4*%
X173875001Y-105425001D03*
X173375000Y-105425001D03*
X172875000Y-105425001D03*
X172374999Y-105425001D03*
D47*
X171850001Y-105949999D03*
X171850001Y-106450000D03*
X171850001Y-106950000D03*
X171850001Y-107450001D03*
D46*
X172374999Y-107974999D03*
X172875000Y-107974999D03*
X173375000Y-107974999D03*
X173875001Y-107974999D03*
D47*
X174399999Y-107450001D03*
X174399999Y-106950000D03*
X174399999Y-106450000D03*
X174399999Y-105949999D03*
%TD*%
D48*
%TO.C,SW1*%
X182100000Y-82850000D03*
X182100000Y-89650000D03*
%TD*%
D49*
%TO.C,B1*%
X142174874Y-90200126D03*
D50*
X136871573Y-95503427D03*
%TD*%
M02*
