%TF.GenerationSoftware,KiCad,Pcbnew,7.0.5*%
%TF.CreationDate,2024-02-09T08:38:41-06:00*%
%TF.ProjectId,peakick,7065616b-6963-46b2-9e6b-696361645f70,rev?*%
%TF.SameCoordinates,Original*%
%TF.FileFunction,Copper,L2,Bot*%
%TF.FilePolarity,Positive*%
%FSLAX46Y46*%
G04 Gerber Fmt 4.6, Leading zero omitted, Abs format (unit mm)*
G04 Created by KiCad (PCBNEW 7.0.5) date 2024-02-09 08:38:41*
%MOMM*%
%LPD*%
G01*
G04 APERTURE LIST*
G04 Aperture macros list*
%AMRoundRect*
0 Rectangle with rounded corners*
0 $1 Rounding radius*
0 $2 $3 $4 $5 $6 $7 $8 $9 X,Y pos of 4 corners*
0 Add a 4 corners polygon primitive as box body*
4,1,4,$2,$3,$4,$5,$6,$7,$8,$9,$2,$3,0*
0 Add four circle primitives for the rounded corners*
1,1,$1+$1,$2,$3*
1,1,$1+$1,$4,$5*
1,1,$1+$1,$6,$7*
1,1,$1+$1,$8,$9*
0 Add four rect primitives between the rounded corners*
20,1,$1+$1,$2,$3,$4,$5,0*
20,1,$1+$1,$4,$5,$6,$7,0*
20,1,$1+$1,$6,$7,$8,$9,0*
20,1,$1+$1,$8,$9,$2,$3,0*%
%AMRotRect*
0 Rectangle, with rotation*
0 The origin of the aperture is its center*
0 $1 length*
0 $2 width*
0 $3 Rotation angle, in degrees counterclockwise*
0 Add horizontal line*
21,1,$1,$2,0,0,$3*%
G04 Aperture macros list end*
%TA.AperFunction,ComponentPad*%
%ADD10O,1.460000X0.730000*%
%TD*%
%TA.AperFunction,ComponentPad*%
%ADD11O,2.400000X1.200000*%
%TD*%
%TA.AperFunction,SMDPad,CuDef*%
%ADD12O,2.100000X1.050000*%
%TD*%
%TA.AperFunction,SMDPad,CuDef*%
%ADD13R,0.650000X2.760000*%
%TD*%
%TA.AperFunction,SMDPad,CuDef*%
%ADD14R,0.650000X2.750000*%
%TD*%
%TA.AperFunction,WasherPad*%
%ADD15C,1.200000*%
%TD*%
%TA.AperFunction,SMDPad,CuDef*%
%ADD16RoundRect,0.300000X-0.950000X0.300000X-0.950000X-0.300000X0.950000X-0.300000X0.950000X0.300000X0*%
%TD*%
%TA.AperFunction,SMDPad,CuDef*%
%ADD17R,1.500000X0.700000*%
%TD*%
%TA.AperFunction,SMDPad,CuDef*%
%ADD18R,1.400000X1.800000*%
%TD*%
%TA.AperFunction,SMDPad,CuDef*%
%ADD19R,1.900000X1.400000*%
%TD*%
%TA.AperFunction,SMDPad,CuDef*%
%ADD20RotRect,4.000000X2.600000X225.000000*%
%TD*%
%TA.AperFunction,SMDPad,CuDef*%
%ADD21R,1.000000X4.600000*%
%TD*%
%TA.AperFunction,SMDPad,CuDef*%
%ADD22R,1.600000X3.400000*%
%TD*%
%TA.AperFunction,ViaPad*%
%ADD23C,0.600000*%
%TD*%
%TA.AperFunction,Conductor*%
%ADD24C,0.250000*%
%TD*%
%TA.AperFunction,Conductor*%
%ADD25C,0.200000*%
%TD*%
G04 APERTURE END LIST*
D10*
%TO.P,J4,6,SHIELD*%
%TO.N,unconnected-(J4-SHIELD-Pad6)*%
X130902500Y-102228250D03*
%TO.P,J4,7,SHIELD__1*%
%TO.N,unconnected-(J4-SHIELD__1-Pad7)*%
X130902500Y-107078250D03*
D11*
%TO.P,J4,8,SHIELD__2*%
%TO.N,unconnected-(J4-SHIELD__2-Pad8)*%
X127872500Y-101928250D03*
%TO.P,J4,9,SHIELD__3*%
%TO.N,unconnected-(J4-SHIELD__3-Pad9)*%
X127872500Y-107378250D03*
D12*
%TO.P,J4,10,SHIELD__4*%
%TO.N,unconnected-(J4-SHIELD__4-Pad10)*%
X130902500Y-102228250D03*
%TO.P,J4,11,SHIELD__5*%
%TO.N,unconnected-(J4-SHIELD__5-Pad11)*%
X130902500Y-107078250D03*
%TD*%
D13*
%TO.P,J2,1*%
%TO.N,3.3V*%
X159875000Y-106550000D03*
%TO.P,J2,2*%
%TO.N,/SWDIO*%
X159875000Y-102490000D03*
%TO.P,J2,3*%
%TO.N,GND*%
X158605000Y-106550000D03*
D14*
%TO.P,J2,4*%
%TO.N,/SWDCLK*%
X158605000Y-102490000D03*
D13*
%TO.P,J2,5*%
%TO.N,GND*%
X157335000Y-106550000D03*
%TO.P,J2,6*%
%TO.N,unconnected-(J2-Pad6)*%
X157335000Y-102490000D03*
%TO.P,J2,7*%
%TO.N,unconnected-(J2-Pad7)*%
X156065000Y-106550000D03*
%TO.P,J2,8*%
%TO.N,unconnected-(J2-Pad8)*%
X156065000Y-102490000D03*
%TO.P,J2,9*%
%TO.N,GND*%
X154795000Y-106550000D03*
%TO.P,J2,10*%
%TO.N,/~{RESET}*%
X154795000Y-102490000D03*
%TD*%
D15*
%TO.P,SW1,*%
%TO.N,*%
X182100000Y-82850000D03*
X182100000Y-89650000D03*
D16*
%TO.P,SW1,1,A*%
%TO.N,unconnected-(SW1-A-Pad1)*%
X179300000Y-83750000D03*
%TO.P,SW1,2,B*%
%TO.N,Net-(SW1-B)*%
X179300000Y-86250000D03*
%TO.P,SW1,3,C*%
%TO.N,GND*%
X179300000Y-88750000D03*
%TD*%
D17*
%TO.P,X2,1,DAT2*%
%TO.N,unconnected-(X2-DAT2-Pad1)*%
X179175000Y-105100000D03*
%TO.P,X2,2,CS*%
%TO.N,/FLASH_CS*%
X178775000Y-104000000D03*
%TO.P,X2,3,DATA_IN*%
%TO.N,/FLASH_MOSI*%
X179175000Y-102900000D03*
%TO.P,X2,4,SD_VDD*%
%TO.N,3.3V*%
X179575000Y-101800000D03*
%TO.P,X2,5,SCLK*%
%TO.N,/FLASH_SCK*%
X179175000Y-100700000D03*
%TO.P,X2,6,GND@3*%
%TO.N,GND*%
X179575000Y-99600000D03*
%TO.P,X2,7,DATA_OUT*%
%TO.N,/FLASH_MISO*%
X179175000Y-98500000D03*
%TO.P,X2,8,DAT1*%
%TO.N,unconnected-(X2-DAT1-Pad8)*%
X179175000Y-97400000D03*
D18*
%TO.P,X2,CD1,CARD_DETECT*%
%TO.N,/D7*%
X168975000Y-98100000D03*
%TO.P,X2,CD2,CARD_DETECT1*%
%TO.N,unconnected-(X2-CARD_DETECT1-PadCD2)*%
X168975000Y-104100000D03*
D19*
%TO.P,X2,MT1,GND@2*%
%TO.N,GND*%
X182075000Y-96500000D03*
%TO.P,X2,MT2,GND@1*%
X182975000Y-109700000D03*
%TD*%
D20*
%TO.P,B1,+,+*%
%TO.N,/VBACKUP*%
X133753232Y-98621768D03*
%TO.P,B1,-,-*%
%TO.N,GND*%
X145173006Y-87159567D03*
%TD*%
D21*
%TO.P,J1,1,1*%
%TO.N,Net-(SW1-B)*%
X180220000Y-79100000D03*
%TO.P,J1,2,2*%
%TO.N,V_BATT*%
X178220000Y-79100000D03*
D22*
%TO.P,J1,NC1*%
%TO.N,N/C*%
X182620000Y-73900000D03*
%TO.P,J1,NC2*%
X175820000Y-73900000D03*
%TD*%
D23*
%TO.N,GND*%
X160130000Y-68050000D03*
X157375000Y-104500000D03*
X164730000Y-72550000D03*
X161630000Y-82950000D03*
X151587500Y-97862500D03*
X167930000Y-76550000D03*
X161825000Y-104825000D03*
X139675000Y-104600000D03*
X152530000Y-81250000D03*
X162930000Y-81650000D03*
X152530000Y-71550000D03*
X160130000Y-81250000D03*
X154430000Y-68050000D03*
X149730000Y-81650000D03*
X157325000Y-108200000D03*
X151030000Y-82950000D03*
X152530000Y-67950000D03*
X160130000Y-84650000D03*
X152530000Y-84650000D03*
X151430000Y-80150000D03*
X151430000Y-72550000D03*
X153975000Y-113350000D03*
X155950000Y-93175000D03*
X162930000Y-71050000D03*
X148925000Y-107700000D03*
X177040000Y-89660000D03*
X161730000Y-69750000D03*
X145900000Y-97750000D03*
X147030000Y-80250000D03*
X167930000Y-79950000D03*
X148030000Y-72550000D03*
X147800000Y-108600000D03*
X150930000Y-69750000D03*
X161230000Y-80050000D03*
X154430000Y-71550000D03*
X150250000Y-98300000D03*
X158033168Y-95058168D03*
%TO.N,3.3V*%
X157250000Y-110898900D03*
X166150000Y-94475000D03*
X166050000Y-91750000D03*
X177750000Y-100500000D03*
X158230000Y-68250000D03*
X158350000Y-92451100D03*
X180825000Y-106875000D03*
X148525000Y-97600000D03*
X166030000Y-79850000D03*
X160775000Y-105350000D03*
X164375000Y-98350000D03*
X149005000Y-109650000D03*
X151675000Y-94350000D03*
%TO.N,V_BATT*%
X148431100Y-92589258D03*
%TO.N,/SDA*%
X147944524Y-95975974D03*
X176950000Y-105950000D03*
X150225000Y-104800000D03*
X147930000Y-78250000D03*
%TO.N,/SCL*%
X176725000Y-104250000D03*
X147428900Y-91737500D03*
X149525000Y-104850000D03*
%TO.N,/D6*%
X153173900Y-102975000D03*
X160450000Y-96100000D03*
%TO.N,/D10*%
X153225000Y-98450000D03*
X153325000Y-94473900D03*
%TO.N,/D12*%
X164175000Y-95548900D03*
X154115942Y-99925668D03*
%TO.N,/D13*%
X153098900Y-100450000D03*
X164900000Y-95047800D03*
%TO.N,/~{RESET}*%
X154750000Y-104250000D03*
%TO.N,/VBACKUP*%
X156300000Y-68400000D03*
%TO.N,VIN*%
X134350000Y-107325000D03*
X145350000Y-108925000D03*
%TO.N,/D9*%
X164250000Y-100325000D03*
X175525000Y-106475000D03*
%TO.N,/D+*%
X132562500Y-104887500D03*
X149425000Y-106750000D03*
%TO.N,/D-*%
X132575000Y-104100000D03*
X149400000Y-105950000D03*
%TO.N,/FLASH_CS*%
X176875000Y-96551100D03*
%TO.N,/SWDIO*%
X159900000Y-104675000D03*
%TO.N,/SWDCLK*%
X159200000Y-104400000D03*
%TO.N,/FLASH_MOSI*%
X176491662Y-97658338D03*
%TO.N,/FLASH_SCK*%
X177223953Y-97621507D03*
%TO.N,/FLASH_MISO*%
X177675000Y-96100000D03*
%TO.N,/D7*%
X153675000Y-104450000D03*
%TD*%
D24*
%TO.N,GND*%
X158605000Y-106550000D02*
X157335000Y-106550000D01*
X177950000Y-88750000D02*
X177040000Y-89660000D01*
X151150000Y-98300000D02*
X151587500Y-97862500D01*
X161825000Y-106758200D02*
X160426600Y-108156600D01*
X179300000Y-88750000D02*
X179300000Y-88730000D01*
X151600000Y-97875000D02*
X151587500Y-97862500D01*
X157325000Y-108200000D02*
X157335000Y-108190000D01*
X160426600Y-108156600D02*
X158881600Y-108156600D01*
X157335000Y-108190000D02*
X157335000Y-106550000D01*
X179300000Y-88750000D02*
X177950000Y-88750000D01*
X147030000Y-85302573D02*
X145173006Y-87159567D01*
X154795000Y-107605000D02*
X154795000Y-106550000D01*
X158605000Y-107880000D02*
X158605000Y-106550000D01*
X156150000Y-93175000D02*
X158033168Y-95058168D01*
X151675000Y-97775000D02*
X151587500Y-97862500D01*
X155390000Y-108200000D02*
X154795000Y-107605000D01*
X158881600Y-108156600D02*
X158605000Y-107880000D01*
X150250000Y-98300000D02*
X151150000Y-98300000D01*
X147030000Y-80250000D02*
X147030000Y-85302573D01*
X161825000Y-104825000D02*
X161825000Y-106758200D01*
X157325000Y-108200000D02*
X155390000Y-108200000D01*
X155950000Y-93175000D02*
X156150000Y-93175000D01*
%TO.N,3.3V*%
X166050000Y-79870000D02*
X166030000Y-79850000D01*
X150975000Y-94350000D02*
X151675000Y-94350000D01*
X180775000Y-106825000D02*
X180825000Y-106875000D01*
X149025000Y-97100000D02*
X150725000Y-97100000D01*
X166050000Y-87920000D02*
X166050000Y-79870000D01*
X165830000Y-79650000D02*
X166030000Y-79850000D01*
X150725000Y-97100000D02*
X150725000Y-94600000D01*
X158230000Y-68250000D02*
X158230000Y-66950000D01*
X158350000Y-92451100D02*
X158175500Y-92276600D01*
X166150000Y-94475000D02*
X166150000Y-95200000D01*
X158230000Y-66950000D02*
X158730000Y-66450000D01*
X158175500Y-92276600D02*
X153748400Y-92276600D01*
X150725000Y-94600000D02*
X150975000Y-94350000D01*
X148525000Y-97600000D02*
X149025000Y-97100000D01*
X166150000Y-95200000D02*
X164375000Y-96975000D01*
X156001100Y-109650000D02*
X149005000Y-109650000D01*
X158730000Y-66450000D02*
X165830000Y-66450000D01*
X166075000Y-87945000D02*
X166050000Y-87920000D01*
X160775000Y-105350000D02*
X160775000Y-105650000D01*
X157250000Y-110898900D02*
X156001100Y-109650000D01*
X177750000Y-100500000D02*
X177750000Y-100828200D01*
X165830000Y-66450000D02*
X165830000Y-79650000D01*
X166075000Y-91725000D02*
X166075000Y-87945000D01*
X180250000Y-101800000D02*
X180775000Y-102325000D01*
X153748400Y-92276600D02*
X151675000Y-94350000D01*
X180775000Y-102325000D02*
X180775000Y-106825000D01*
X164375000Y-96975000D02*
X164375000Y-98350000D01*
X160775000Y-105650000D02*
X159875000Y-106550000D01*
X177750000Y-100828200D02*
X178721800Y-101800000D01*
X178721800Y-101800000D02*
X179575000Y-101800000D01*
X179575000Y-101800000D02*
X180250000Y-101800000D01*
X166050000Y-91750000D02*
X166075000Y-91725000D01*
%TO.N,V_BATT*%
X178220000Y-82500000D02*
X178220000Y-79100000D01*
X168144500Y-92575500D02*
X178220000Y-82500000D01*
X149095358Y-91925000D02*
X165206375Y-91925000D01*
X165856875Y-92575500D02*
X168144500Y-92575500D01*
X165206375Y-91925000D02*
X165856875Y-92575500D01*
X148431100Y-92589258D02*
X149095358Y-91925000D01*
D25*
%TO.N,/SDA*%
X176950000Y-107625000D02*
X176950000Y-105950000D01*
X147930000Y-78250000D02*
X147930000Y-102505000D01*
X175873400Y-108701600D02*
X176950000Y-107625000D01*
X154126600Y-108701600D02*
X175873400Y-108701600D01*
X147930000Y-102505000D02*
X150225000Y-104800000D01*
X150225000Y-104800000D02*
X154126600Y-108701600D01*
%TO.N,/SCL*%
X147275000Y-91891400D02*
X147275000Y-102600000D01*
X147275000Y-102600000D02*
X149525000Y-104850000D01*
X153678200Y-109003200D02*
X149525000Y-104850000D01*
X176725000Y-104250000D02*
X177451600Y-104976600D01*
X175998326Y-109003200D02*
X153678200Y-109003200D01*
X147428900Y-91737500D02*
X147275000Y-91891400D01*
X177451600Y-104976600D02*
X177451600Y-107549926D01*
X177451600Y-107549926D02*
X175998326Y-109003200D01*
%TO.N,/D6*%
X153173900Y-102975000D02*
X153173900Y-101576374D01*
X153173900Y-101576374D02*
X158650274Y-96100000D01*
X158650274Y-96100000D02*
X160450000Y-96100000D01*
%TO.N,/D10*%
X153325000Y-98350000D02*
X153225000Y-98450000D01*
X153325000Y-94473900D02*
X153325000Y-98350000D01*
%TO.N,/D12*%
X154300859Y-99925668D02*
X158677627Y-95548900D01*
X158677627Y-95548900D02*
X164175000Y-95548900D01*
X154115942Y-99925668D02*
X154300859Y-99925668D01*
%TO.N,/D13*%
X153098900Y-100450000D02*
X153500000Y-100048900D01*
X153500000Y-99825000D02*
X153507240Y-99825000D01*
X154007240Y-99325000D02*
X154475000Y-99325000D01*
X153507240Y-99825000D02*
X154007240Y-99325000D01*
X153500000Y-100048900D02*
X153500000Y-99825000D01*
X158752200Y-95047800D02*
X164900000Y-95047800D01*
X154475000Y-99325000D02*
X158752200Y-95047800D01*
%TO.N,/~{RESET}*%
X154795000Y-104205000D02*
X154750000Y-104250000D01*
X154795000Y-102490000D02*
X154795000Y-104205000D01*
%TO.N,/VBACKUP*%
X131700000Y-94800000D02*
X131700000Y-94825000D01*
X156300000Y-68400000D02*
X156300000Y-62800000D01*
X133753232Y-96878232D02*
X133753232Y-98621768D01*
X126925000Y-65775000D02*
X126925000Y-90025000D01*
X129900000Y-62800000D02*
X126925000Y-65775000D01*
X131700000Y-94825000D02*
X133753232Y-96878232D01*
X126925000Y-90025000D02*
X131700000Y-94800000D01*
X156300000Y-62800000D02*
X129900000Y-62800000D01*
%TO.N,Net-(SW1-B)*%
X180220000Y-82103634D02*
X180751600Y-82635234D01*
X180751600Y-82635234D02*
X180751600Y-84798400D01*
X180751600Y-84798400D02*
X179300000Y-86250000D01*
X180220000Y-79100000D02*
X180220000Y-82103634D01*
%TO.N,VIN*%
X143750000Y-107325000D02*
X145350000Y-108925000D01*
X134350000Y-107325000D02*
X143750000Y-107325000D01*
%TO.N,/D9*%
X175523400Y-104273400D02*
X175523400Y-106473400D01*
X164275000Y-100300000D02*
X171550000Y-100300000D01*
X164250000Y-100325000D02*
X164275000Y-100300000D01*
X171550000Y-100300000D02*
X175523400Y-104273400D01*
X175523400Y-106473400D02*
X175525000Y-106475000D01*
%TO.N,/D+*%
X149425000Y-106750000D02*
X134425000Y-106750000D01*
X134425000Y-106750000D02*
X132562500Y-104887500D01*
%TO.N,/D-*%
X149400000Y-105950000D02*
X134425000Y-105950000D01*
X134425000Y-105950000D02*
X132575000Y-104100000D01*
%TO.N,/FLASH_CS*%
X178525000Y-104000000D02*
X178775000Y-104000000D01*
X175450000Y-100925000D02*
X178525000Y-104000000D01*
X176875000Y-96565630D02*
X175450000Y-97990630D01*
X175450000Y-97990630D02*
X175450000Y-100925000D01*
X176875000Y-96551100D02*
X176875000Y-96565630D01*
%TO.N,/SWDIO*%
X159900000Y-104675000D02*
X159875000Y-104650000D01*
X159875000Y-104650000D02*
X159875000Y-102490000D01*
%TO.N,/SWDCLK*%
X159200000Y-104400000D02*
X159200000Y-104135000D01*
X158605000Y-103540000D02*
X158605000Y-102490000D01*
X159200000Y-104135000D02*
X158605000Y-103540000D01*
%TO.N,/FLASH_MOSI*%
X176491662Y-97658338D02*
X176491662Y-100216662D01*
X176491662Y-100216662D02*
X179175000Y-102900000D01*
%TO.N,/FLASH_SCK*%
X177223953Y-98748953D02*
X179175000Y-100700000D01*
X177223953Y-97621507D02*
X177223953Y-98748953D01*
%TO.N,/FLASH_MISO*%
X178771800Y-98500000D02*
X179175000Y-98500000D01*
X177675000Y-96100000D02*
X177675000Y-97403200D01*
X177675000Y-97403200D02*
X178771800Y-98500000D01*
%TO.N,/D7*%
X165525000Y-98100000D02*
X168975000Y-98100000D01*
X154751800Y-100425000D02*
X163200000Y-100425000D01*
X153675000Y-104450000D02*
X153675000Y-101501800D01*
X163200000Y-100425000D02*
X165525000Y-98100000D01*
X153675000Y-101501800D02*
X154751800Y-100425000D01*
%TO.N,unconnected-(X2-CARD_DETECT1-PadCD2)*%
X168779146Y-104794684D02*
X168395001Y-104410539D01*
%TD*%
%TA.AperFunction,Conductor*%
%TO.N,GND*%
G36*
X163685882Y-100895305D02*
G01*
X163699808Y-100906886D01*
X163747738Y-100954816D01*
X163747740Y-100954817D01*
X163747741Y-100954818D01*
X163867941Y-101030345D01*
X163900478Y-101050789D01*
X163932883Y-101062128D01*
X164070738Y-101110366D01*
X164070742Y-101110367D01*
X164070745Y-101110368D01*
X164250000Y-101130565D01*
X164429255Y-101110368D01*
X164599522Y-101050789D01*
X164752262Y-100954816D01*
X164761443Y-100945635D01*
X164777584Y-100929495D01*
X164832101Y-100901719D01*
X164847586Y-100900500D01*
X171260257Y-100900500D01*
X171318448Y-100919407D01*
X171330261Y-100929496D01*
X174893904Y-104493138D01*
X174921681Y-104547655D01*
X174922900Y-104563142D01*
X174922900Y-105904014D01*
X174903993Y-105962205D01*
X174897815Y-105969439D01*
X174895181Y-105972741D01*
X174799211Y-106125476D01*
X174799211Y-106125477D01*
X174739633Y-106295738D01*
X174739632Y-106295742D01*
X174719435Y-106475000D01*
X174739632Y-106654257D01*
X174739633Y-106654261D01*
X174799211Y-106824522D01*
X174799211Y-106824523D01*
X174895181Y-106977258D01*
X174895184Y-106977262D01*
X175022738Y-107104816D01*
X175022740Y-107104817D01*
X175022741Y-107104818D01*
X175043110Y-107117617D01*
X175175478Y-107200789D01*
X175243303Y-107224522D01*
X175345738Y-107260366D01*
X175345742Y-107260367D01*
X175345745Y-107260368D01*
X175525000Y-107280565D01*
X175704255Y-107260368D01*
X175874522Y-107200789D01*
X176027262Y-107104816D01*
X176154816Y-106977262D01*
X176159784Y-106969354D01*
X176166674Y-106958391D01*
X176213642Y-106919178D01*
X176274689Y-106915062D01*
X176326496Y-106947614D01*
X176349276Y-107004400D01*
X176349500Y-107011061D01*
X176349500Y-107335257D01*
X176330593Y-107393448D01*
X176320504Y-107405261D01*
X175653661Y-108072104D01*
X175599144Y-108099881D01*
X175583657Y-108101100D01*
X160797466Y-108101100D01*
X160739275Y-108082193D01*
X160703311Y-108032693D01*
X160699033Y-107991519D01*
X160699214Y-107989826D01*
X160700500Y-107977873D01*
X160700499Y-106650096D01*
X160719406Y-106591906D01*
X160729488Y-106580100D01*
X161160747Y-106148842D01*
X161172086Y-106139760D01*
X161172080Y-106139753D01*
X161176864Y-106135793D01*
X161176877Y-106135786D01*
X161223739Y-106085882D01*
X161224746Y-106084843D01*
X161245120Y-106064471D01*
X161249738Y-106058516D01*
X161252740Y-106055000D01*
X161285062Y-106020582D01*
X161295661Y-106001299D01*
X161304192Y-105988314D01*
X161317673Y-105970936D01*
X161334227Y-105932679D01*
X161355078Y-105901998D01*
X161404816Y-105852262D01*
X161500789Y-105699522D01*
X161560368Y-105529255D01*
X161580565Y-105350000D01*
X161560368Y-105170745D01*
X161557532Y-105162641D01*
X161528551Y-105079818D01*
X161517371Y-105047866D01*
X167774500Y-105047866D01*
X167774501Y-105047870D01*
X167780908Y-105107480D01*
X167780909Y-105107485D01*
X167831202Y-105242329D01*
X167911805Y-105350000D01*
X167917454Y-105357546D01*
X167917457Y-105357548D01*
X167917458Y-105357549D01*
X168032670Y-105443797D01*
X168167511Y-105494089D01*
X168167512Y-105494089D01*
X168167517Y-105494091D01*
X168227127Y-105500500D01*
X169722872Y-105500499D01*
X169782483Y-105494091D01*
X169906749Y-105447743D01*
X169917329Y-105443797D01*
X169917329Y-105443796D01*
X169917331Y-105443796D01*
X170032546Y-105357546D01*
X170118796Y-105242331D01*
X170118917Y-105242008D01*
X170169089Y-105107488D01*
X170169090Y-105107485D01*
X170169091Y-105107483D01*
X170175500Y-105047873D01*
X170175499Y-103152128D01*
X170169091Y-103092517D01*
X170155003Y-103054744D01*
X170118797Y-102957670D01*
X170032549Y-102842458D01*
X170032548Y-102842457D01*
X170032546Y-102842454D01*
X169970142Y-102795738D01*
X169917329Y-102756202D01*
X169782488Y-102705910D01*
X169782483Y-102705909D01*
X169782481Y-102705908D01*
X169782477Y-102705908D01*
X169751249Y-102702550D01*
X169722873Y-102699500D01*
X169722870Y-102699500D01*
X168227133Y-102699500D01*
X168227129Y-102699500D01*
X168227128Y-102699501D01*
X168219949Y-102700272D01*
X168167519Y-102705908D01*
X168167514Y-102705909D01*
X168032670Y-102756202D01*
X167917458Y-102842450D01*
X167917450Y-102842458D01*
X167831202Y-102957670D01*
X167780910Y-103092511D01*
X167780908Y-103092522D01*
X167774500Y-103152129D01*
X167774500Y-105047866D01*
X161517371Y-105047866D01*
X161500789Y-105000478D01*
X161498502Y-104996839D01*
X161404818Y-104847741D01*
X161404817Y-104847740D01*
X161404816Y-104847738D01*
X161277262Y-104720184D01*
X161277259Y-104720182D01*
X161277258Y-104720181D01*
X161124523Y-104624211D01*
X160954261Y-104564633D01*
X160954257Y-104564632D01*
X160894503Y-104557899D01*
X160775000Y-104544435D01*
X160774998Y-104544435D01*
X160774996Y-104544435D01*
X160772650Y-104544435D01*
X160771404Y-104544030D01*
X160769476Y-104543813D01*
X160769520Y-104543418D01*
X160714459Y-104525528D01*
X160679206Y-104478133D01*
X160641543Y-104370500D01*
X160625789Y-104325478D01*
X160625787Y-104325475D01*
X160625787Y-104325474D01*
X160597367Y-104280245D01*
X160582416Y-104220915D01*
X160601940Y-104168243D01*
X160643795Y-104112333D01*
X160643796Y-104112330D01*
X160648219Y-104100473D01*
X160694091Y-103977483D01*
X160700500Y-103917873D01*
X160700499Y-101124499D01*
X160719406Y-101066309D01*
X160768906Y-101030345D01*
X160799499Y-101025500D01*
X163157391Y-101025500D01*
X163163859Y-101025924D01*
X163199999Y-101030682D01*
X163200000Y-101030682D01*
X163200001Y-101030682D01*
X163239361Y-101025500D01*
X163356762Y-101010044D01*
X163502841Y-100949536D01*
X163554308Y-100910044D01*
X163569542Y-100898354D01*
X163627215Y-100877929D01*
X163685882Y-100895305D01*
G37*
%TD.AperFunction*%
%TA.AperFunction,Conductor*%
G36*
X152550840Y-94704298D02*
G01*
X152568287Y-94735047D01*
X152599211Y-94823422D01*
X152599211Y-94823423D01*
X152639699Y-94887859D01*
X152695184Y-94976162D01*
X152695505Y-94976483D01*
X152695619Y-94976707D01*
X152698648Y-94980505D01*
X152697870Y-94981125D01*
X152723281Y-95030998D01*
X152724500Y-95046485D01*
X152724500Y-97777414D01*
X152705593Y-97835605D01*
X152695504Y-97847417D01*
X152595185Y-97947736D01*
X152595181Y-97947741D01*
X152499211Y-98100476D01*
X152499211Y-98100477D01*
X152439633Y-98270738D01*
X152439632Y-98270742D01*
X152419435Y-98450000D01*
X152439632Y-98629257D01*
X152439633Y-98629261D01*
X152499211Y-98799522D01*
X152499211Y-98799523D01*
X152561009Y-98897873D01*
X152595184Y-98952262D01*
X152722738Y-99079816D01*
X152722740Y-99079817D01*
X152722741Y-99079818D01*
X152822686Y-99142618D01*
X152875478Y-99175789D01*
X152925827Y-99193406D01*
X153035795Y-99231887D01*
X153084475Y-99268952D01*
X153102072Y-99327553D01*
X153081864Y-99385304D01*
X153073106Y-99395329D01*
X153071719Y-99396715D01*
X152975463Y-99522160D01*
X152932860Y-99625012D01*
X152893123Y-99671538D01*
X152874094Y-99680570D01*
X152749377Y-99724210D01*
X152596641Y-99820181D01*
X152469081Y-99947741D01*
X152373111Y-100100476D01*
X152373111Y-100100477D01*
X152313533Y-100270738D01*
X152313532Y-100270742D01*
X152293335Y-100450000D01*
X152313532Y-100629257D01*
X152313533Y-100629261D01*
X152373111Y-100799522D01*
X152373111Y-100799523D01*
X152469081Y-100952258D01*
X152469084Y-100952262D01*
X152596638Y-101079816D01*
X152596640Y-101079817D01*
X152596641Y-101079818D01*
X152596644Y-101079820D01*
X152640447Y-101107343D01*
X152679660Y-101154311D01*
X152683777Y-101215357D01*
X152666320Y-101251435D01*
X152649362Y-101273535D01*
X152588857Y-101419607D01*
X152588855Y-101419615D01*
X152568218Y-101576373D01*
X152568218Y-101576374D01*
X152572976Y-101612514D01*
X152573400Y-101618982D01*
X152573400Y-102402414D01*
X152554493Y-102460605D01*
X152544412Y-102472409D01*
X152544089Y-102472731D01*
X152544081Y-102472741D01*
X152448111Y-102625476D01*
X152448111Y-102625477D01*
X152388533Y-102795738D01*
X152388532Y-102795742D01*
X152368335Y-102975000D01*
X152388532Y-103154257D01*
X152388533Y-103154261D01*
X152448111Y-103324522D01*
X152448111Y-103324523D01*
X152544081Y-103477258D01*
X152544084Y-103477262D01*
X152671638Y-103604816D01*
X152824378Y-103700789D01*
X152994645Y-103760368D01*
X152994647Y-103760368D01*
X152997523Y-103761025D01*
X152998940Y-103761871D01*
X152999893Y-103762205D01*
X152999824Y-103762400D01*
X153050050Y-103792403D01*
X153074101Y-103848663D01*
X153074500Y-103857544D01*
X153074500Y-103877414D01*
X153055593Y-103935605D01*
X153045512Y-103947409D01*
X153045186Y-103947734D01*
X153045184Y-103947736D01*
X152949212Y-104100473D01*
X152949211Y-104100477D01*
X152889633Y-104270738D01*
X152889632Y-104270742D01*
X152869435Y-104450000D01*
X152889632Y-104629257D01*
X152889633Y-104629261D01*
X152949211Y-104799522D01*
X152949211Y-104799523D01*
X153045181Y-104952258D01*
X153045184Y-104952262D01*
X153172738Y-105079816D01*
X153172740Y-105079817D01*
X153172741Y-105079818D01*
X153317450Y-105170745D01*
X153325478Y-105175789D01*
X153362110Y-105188607D01*
X153495738Y-105235366D01*
X153495742Y-105235367D01*
X153495745Y-105235368D01*
X153675000Y-105255565D01*
X153854255Y-105235368D01*
X153854257Y-105235367D01*
X153859780Y-105234745D01*
X153860101Y-105237601D01*
X153909789Y-105242008D01*
X153955918Y-105282203D01*
X153969999Y-105333092D01*
X153969999Y-106449998D01*
X153970001Y-106450000D01*
X154796000Y-106450000D01*
X154854191Y-106468907D01*
X154890155Y-106518407D01*
X154895000Y-106549000D01*
X154895000Y-106551000D01*
X154876093Y-106609191D01*
X154826593Y-106645155D01*
X154796000Y-106650000D01*
X153970000Y-106650000D01*
X153970000Y-107456757D01*
X153951093Y-107514948D01*
X153901593Y-107550912D01*
X153840407Y-107550912D01*
X153800996Y-107526761D01*
X151049514Y-104775279D01*
X151021737Y-104720762D01*
X151021140Y-104716359D01*
X151020226Y-104708245D01*
X151010368Y-104620745D01*
X150950789Y-104450478D01*
X150950188Y-104449522D01*
X150854818Y-104297741D01*
X150854817Y-104297740D01*
X150854816Y-104297738D01*
X150727262Y-104170184D01*
X150727259Y-104170182D01*
X150727258Y-104170181D01*
X150574523Y-104074211D01*
X150404261Y-104014633D01*
X150404250Y-104014631D01*
X150308637Y-104003857D01*
X150252930Y-103978553D01*
X150249719Y-103975484D01*
X148559496Y-102285261D01*
X148531719Y-102230744D01*
X148530500Y-102215257D01*
X148530500Y-98493417D01*
X148549407Y-98435226D01*
X148598907Y-98399262D01*
X148618411Y-98395040D01*
X148704255Y-98385368D01*
X148874522Y-98325789D01*
X149027262Y-98229816D01*
X149154816Y-98102262D01*
X149250789Y-97949522D01*
X149298789Y-97812346D01*
X149305978Y-97791802D01*
X149343043Y-97743122D01*
X149399422Y-97725500D01*
X150656514Y-97725500D01*
X150675063Y-97727252D01*
X150685412Y-97729227D01*
X150721214Y-97726974D01*
X150743105Y-97725598D01*
X150746214Y-97725500D01*
X150764350Y-97725500D01*
X150782382Y-97723221D01*
X150785416Y-97722935D01*
X150843138Y-97719304D01*
X150853155Y-97716048D01*
X150871336Y-97711984D01*
X150881792Y-97710664D01*
X150935562Y-97689374D01*
X150938441Y-97688337D01*
X150993441Y-97670467D01*
X151002331Y-97664824D01*
X151018932Y-97656365D01*
X151028732Y-97652486D01*
X151075527Y-97618486D01*
X151078053Y-97616769D01*
X151126877Y-97585786D01*
X151134087Y-97578106D01*
X151148060Y-97565787D01*
X151156587Y-97559594D01*
X151193443Y-97515041D01*
X151195470Y-97512742D01*
X151235062Y-97470582D01*
X151240135Y-97461351D01*
X151250610Y-97445937D01*
X151257324Y-97437823D01*
X151281939Y-97385511D01*
X151283345Y-97382753D01*
X151311197Y-97332092D01*
X151313816Y-97321887D01*
X151320126Y-97304361D01*
X151324614Y-97294826D01*
X151335447Y-97238033D01*
X151336124Y-97235007D01*
X151336360Y-97234090D01*
X151350500Y-97179019D01*
X151350500Y-97168480D01*
X151352254Y-97149930D01*
X151354227Y-97139588D01*
X151351266Y-97092517D01*
X151350598Y-97081894D01*
X151350500Y-97078785D01*
X151350500Y-95224072D01*
X151369407Y-95165881D01*
X151418907Y-95129917D01*
X151480093Y-95129917D01*
X151482199Y-95130628D01*
X151495745Y-95135368D01*
X151675000Y-95155565D01*
X151854255Y-95135368D01*
X152024522Y-95075789D01*
X152177262Y-94979816D01*
X152304816Y-94852262D01*
X152391017Y-94715073D01*
X152437986Y-94675862D01*
X152499033Y-94671746D01*
X152550840Y-94704298D01*
G37*
%TD.AperFunction*%
%TA.AperFunction,Conductor*%
G36*
X158030377Y-104303387D02*
G01*
X158032625Y-104305020D01*
X158037669Y-104308796D01*
X158037671Y-104308796D01*
X158037673Y-104308798D01*
X158172511Y-104359089D01*
X158172512Y-104359089D01*
X158172517Y-104359091D01*
X158232127Y-104365500D01*
X158302075Y-104365499D01*
X158360265Y-104384406D01*
X158396229Y-104433905D01*
X158400452Y-104453413D01*
X158409981Y-104537976D01*
X158411943Y-104555393D01*
X158412453Y-104559914D01*
X158400181Y-104619856D01*
X158355019Y-104661137D01*
X158314076Y-104670000D01*
X158232176Y-104670000D01*
X158172629Y-104676401D01*
X158172618Y-104676403D01*
X158037912Y-104726645D01*
X158029328Y-104733072D01*
X157971413Y-104752808D01*
X157912958Y-104734733D01*
X157910672Y-104733072D01*
X157902087Y-104726645D01*
X157767381Y-104676403D01*
X157767370Y-104676401D01*
X157707824Y-104670000D01*
X157435001Y-104670000D01*
X157435000Y-104670001D01*
X157435000Y-106449999D01*
X157435001Y-106450000D01*
X158606000Y-106450000D01*
X158664191Y-106468907D01*
X158700155Y-106518407D01*
X158705000Y-106549000D01*
X158705000Y-106551000D01*
X158686093Y-106609191D01*
X158636593Y-106645155D01*
X158606000Y-106650000D01*
X157334000Y-106650000D01*
X157275809Y-106631093D01*
X157239845Y-106581593D01*
X157235000Y-106551000D01*
X157235000Y-104670001D01*
X157234999Y-104670000D01*
X156962176Y-104670000D01*
X156902629Y-104676401D01*
X156902618Y-104676403D01*
X156767913Y-104726645D01*
X156759742Y-104732762D01*
X156701826Y-104752496D01*
X156643372Y-104734419D01*
X156641130Y-104732791D01*
X156632331Y-104726204D01*
X156632329Y-104726203D01*
X156632326Y-104726201D01*
X156497488Y-104675910D01*
X156497483Y-104675909D01*
X156497481Y-104675908D01*
X156497477Y-104675908D01*
X156466249Y-104672550D01*
X156437873Y-104669500D01*
X156437870Y-104669500D01*
X155692133Y-104669500D01*
X155692129Y-104669500D01*
X155692128Y-104669501D01*
X155687486Y-104670000D01*
X155632519Y-104675908D01*
X155632511Y-104675910D01*
X155619267Y-104680850D01*
X155558138Y-104683468D01*
X155507144Y-104649655D01*
X155485765Y-104592327D01*
X155491230Y-104555393D01*
X155534926Y-104430516D01*
X155571991Y-104381837D01*
X155630591Y-104364240D01*
X155638928Y-104364780D01*
X155692127Y-104370500D01*
X156437872Y-104370499D01*
X156497483Y-104364091D01*
X156632331Y-104313796D01*
X156640670Y-104307553D01*
X156698579Y-104287815D01*
X156757035Y-104305886D01*
X156759324Y-104307549D01*
X156767669Y-104313796D01*
X156767670Y-104313796D01*
X156767671Y-104313797D01*
X156902511Y-104364089D01*
X156902512Y-104364089D01*
X156902517Y-104364091D01*
X156962127Y-104370500D01*
X157707872Y-104370499D01*
X157767483Y-104364091D01*
X157902331Y-104313796D01*
X157914009Y-104305053D01*
X157971921Y-104285315D01*
X158030377Y-104303387D01*
G37*
%TD.AperFunction*%
%TA.AperFunction,Conductor*%
G36*
X181861436Y-62062181D02*
G01*
X182136755Y-62077955D01*
X182142371Y-62078600D01*
X182337723Y-62112490D01*
X182412700Y-62125497D01*
X182418214Y-62126782D01*
X182681425Y-62204267D01*
X182686745Y-62206171D01*
X182939360Y-62313226D01*
X182944446Y-62315734D01*
X183183165Y-62450952D01*
X183187932Y-62454025D01*
X183409631Y-62615638D01*
X183414015Y-62619236D01*
X183615798Y-62805132D01*
X183619737Y-62809202D01*
X183798963Y-63016953D01*
X183802400Y-63021433D01*
X183896763Y-63160172D01*
X183956700Y-63248295D01*
X183959616Y-63253159D01*
X184086977Y-63496169D01*
X184089318Y-63501334D01*
X184188069Y-63757295D01*
X184189804Y-63762695D01*
X184233909Y-63932819D01*
X184237076Y-63957296D01*
X184255919Y-69035366D01*
X184297900Y-80349134D01*
X184297900Y-108462849D01*
X184278993Y-108521040D01*
X184229493Y-108557004D01*
X184168307Y-108557004D01*
X184164304Y-108555607D01*
X184032381Y-108506403D01*
X184032370Y-108506401D01*
X183972824Y-108500000D01*
X183075001Y-108500000D01*
X183075000Y-108500001D01*
X183075000Y-110899999D01*
X183075001Y-110900000D01*
X183972824Y-110900000D01*
X184032370Y-110893598D01*
X184032378Y-110893596D01*
X184164303Y-110844392D01*
X184225433Y-110841772D01*
X184276427Y-110875583D01*
X184297809Y-110932911D01*
X184297900Y-110937150D01*
X184297900Y-113403619D01*
X184297590Y-113406052D01*
X184297890Y-113442931D01*
X184297824Y-113445921D01*
X184282804Y-113732965D01*
X184282132Y-113738910D01*
X184232884Y-114020556D01*
X184231500Y-114026376D01*
X184148661Y-114300042D01*
X184146586Y-114305653D01*
X184083400Y-114449160D01*
X184034824Y-114559485D01*
X184031366Y-114567338D01*
X184028631Y-114572654D01*
X184022839Y-114582414D01*
X183882706Y-114818546D01*
X183879348Y-114823497D01*
X183704852Y-115050005D01*
X183700921Y-115054516D01*
X183500397Y-115258338D01*
X183495952Y-115262341D01*
X183272319Y-115440509D01*
X183267424Y-115443947D01*
X183025121Y-115593140D01*
X183023953Y-115593859D01*
X183018678Y-115596682D01*
X182758909Y-115716154D01*
X182753332Y-115718321D01*
X182481046Y-115805616D01*
X182475249Y-115807095D01*
X182313193Y-115838164D01*
X182194436Y-115860931D01*
X182188510Y-115861700D01*
X182090628Y-115868424D01*
X181901973Y-115881384D01*
X181898599Y-115881500D01*
X128601280Y-115881500D01*
X128600029Y-115881338D01*
X128562191Y-115881494D01*
X128559201Y-115881416D01*
X128366252Y-115870543D01*
X128268466Y-115865032D01*
X128262530Y-115864336D01*
X127977387Y-115813295D01*
X127971573Y-115811887D01*
X127694660Y-115726849D01*
X127689057Y-115724750D01*
X127424413Y-115606955D01*
X127419104Y-115604196D01*
X127170594Y-115455365D01*
X127165656Y-115451987D01*
X126936886Y-115274278D01*
X126932391Y-115270329D01*
X126922454Y-115260474D01*
X126811485Y-115150418D01*
X126726718Y-115066349D01*
X126722732Y-115061888D01*
X126715908Y-115053252D01*
X126543142Y-114834604D01*
X126539724Y-114829696D01*
X126388835Y-114582414D01*
X126386033Y-114577128D01*
X126378004Y-114559485D01*
X126266049Y-114313461D01*
X126263914Y-114307902D01*
X126176582Y-114031682D01*
X126175128Y-114025884D01*
X126149440Y-113888918D01*
X126121729Y-113741169D01*
X126120985Y-113735244D01*
X126120838Y-113732965D01*
X126112689Y-113606948D01*
X126112591Y-113604224D01*
X126112433Y-113582983D01*
X126750500Y-113582983D01*
X126790138Y-113845965D01*
X126790140Y-113845975D01*
X126868533Y-114100116D01*
X126971276Y-114313465D01*
X126983929Y-114339738D01*
X127133750Y-114559485D01*
X127133753Y-114559488D01*
X127133755Y-114559491D01*
X127314647Y-114754446D01*
X127314659Y-114754457D01*
X127522576Y-114920265D01*
X127522585Y-114920272D01*
X127522589Y-114920274D01*
X127522590Y-114920275D01*
X127752901Y-115053245D01*
X127752905Y-115053247D01*
X127752914Y-115053252D01*
X128000490Y-115150419D01*
X128259783Y-115209601D01*
X128326055Y-115214567D01*
X128458591Y-115224500D01*
X128458599Y-115224500D01*
X128591409Y-115224500D01*
X128713749Y-115215331D01*
X128790217Y-115209601D01*
X129049510Y-115150419D01*
X129297086Y-115053252D01*
X129527415Y-114920272D01*
X129735351Y-114754448D01*
X129916250Y-114559485D01*
X130066071Y-114339738D01*
X130181467Y-114100116D01*
X130259861Y-113845971D01*
X130299500Y-113582980D01*
X130299500Y-113532983D01*
X180100500Y-113532983D01*
X180140138Y-113795965D01*
X180140140Y-113795975D01*
X180209415Y-114020556D01*
X180218533Y-114050116D01*
X180333929Y-114289738D01*
X180483750Y-114509485D01*
X180483753Y-114509488D01*
X180483755Y-114509491D01*
X180664647Y-114704446D01*
X180664659Y-114704457D01*
X180810954Y-114821123D01*
X180872585Y-114870272D01*
X180872589Y-114870274D01*
X180872590Y-114870275D01*
X181102901Y-115003245D01*
X181102905Y-115003247D01*
X181102914Y-115003252D01*
X181350490Y-115100419D01*
X181609783Y-115159601D01*
X181676054Y-115164567D01*
X181808591Y-115174500D01*
X181808599Y-115174500D01*
X181941409Y-115174500D01*
X182063749Y-115165331D01*
X182140217Y-115159601D01*
X182399510Y-115100419D01*
X182647086Y-115003252D01*
X182877415Y-114870272D01*
X183085351Y-114704448D01*
X183266250Y-114509485D01*
X183416071Y-114289738D01*
X183531467Y-114050116D01*
X183609861Y-113795971D01*
X183649500Y-113532980D01*
X183649500Y-113267020D01*
X183609861Y-113004029D01*
X183531467Y-112749884D01*
X183416071Y-112510262D01*
X183266250Y-112290515D01*
X183085351Y-112095552D01*
X183085350Y-112095551D01*
X183085340Y-112095542D01*
X182877423Y-111929734D01*
X182877409Y-111929724D01*
X182647098Y-111796754D01*
X182647089Y-111796749D01*
X182647086Y-111796748D01*
X182647082Y-111796746D01*
X182647079Y-111796745D01*
X182399512Y-111699581D01*
X182140221Y-111640400D01*
X182140212Y-111640398D01*
X181941409Y-111625500D01*
X181941401Y-111625500D01*
X181808599Y-111625500D01*
X181808591Y-111625500D01*
X181609787Y-111640398D01*
X181609778Y-111640400D01*
X181350487Y-111699581D01*
X181102920Y-111796745D01*
X181102901Y-111796754D01*
X180872590Y-111929724D01*
X180872576Y-111929734D01*
X180664659Y-112095542D01*
X180664647Y-112095553D01*
X180483755Y-112290508D01*
X180483750Y-112290514D01*
X180483750Y-112290515D01*
X180333929Y-112510262D01*
X180333927Y-112510265D01*
X180333925Y-112510269D01*
X180218533Y-112749883D01*
X180140140Y-113004024D01*
X180140138Y-113004034D01*
X180100500Y-113267016D01*
X180100500Y-113532983D01*
X130299500Y-113532983D01*
X130299500Y-113317020D01*
X130259861Y-113054029D01*
X130181467Y-112799884D01*
X130066071Y-112560262D01*
X129916250Y-112340515D01*
X129869850Y-112290508D01*
X129735352Y-112145553D01*
X129735340Y-112145542D01*
X129527423Y-111979734D01*
X129527409Y-111979724D01*
X129297098Y-111846754D01*
X129297089Y-111846749D01*
X129297086Y-111846748D01*
X129297082Y-111846746D01*
X129297079Y-111846745D01*
X129049512Y-111749581D01*
X128790221Y-111690400D01*
X128790212Y-111690398D01*
X128591409Y-111675500D01*
X128591401Y-111675500D01*
X128458599Y-111675500D01*
X128458591Y-111675500D01*
X128259787Y-111690398D01*
X128259778Y-111690400D01*
X128000487Y-111749581D01*
X127752920Y-111846745D01*
X127752901Y-111846754D01*
X127522590Y-111979724D01*
X127522576Y-111979734D01*
X127314659Y-112145542D01*
X127314647Y-112145553D01*
X127133755Y-112340508D01*
X127133750Y-112340514D01*
X127133750Y-112340515D01*
X126983929Y-112560262D01*
X126983927Y-112560265D01*
X126983925Y-112560269D01*
X126868533Y-112799883D01*
X126790140Y-113054024D01*
X126790138Y-113054034D01*
X126750500Y-113317016D01*
X126750500Y-113582983D01*
X126112433Y-113582983D01*
X126102100Y-112190522D01*
X126102100Y-107919684D01*
X126121007Y-107861493D01*
X126170507Y-107825529D01*
X126231693Y-107825529D01*
X126281193Y-107861493D01*
X126291149Y-107878550D01*
X126315104Y-107931003D01*
X126315105Y-107931005D01*
X126315106Y-107931006D01*
X126437011Y-108102199D01*
X126437013Y-108102201D01*
X126437014Y-108102202D01*
X126589122Y-108247236D01*
X126765928Y-108360863D01*
X126961043Y-108438975D01*
X127167415Y-108478750D01*
X127167418Y-108478750D01*
X128524925Y-108478750D01*
X128681718Y-108463778D01*
X128883375Y-108404566D01*
X129070182Y-108308261D01*
X129235386Y-108178342D01*
X129373019Y-108019506D01*
X129478104Y-107837494D01*
X129478339Y-107836813D01*
X129478529Y-107836562D01*
X129480066Y-107833198D01*
X129480813Y-107833539D01*
X129515232Y-107788003D01*
X129573770Y-107770200D01*
X129631593Y-107790204D01*
X129645406Y-107803475D01*
X129645419Y-107803463D01*
X129646049Y-107804093D01*
X129648423Y-107806374D01*
X129648851Y-107806895D01*
X129648854Y-107806898D01*
X129805008Y-107935050D01*
X129963015Y-108019506D01*
X129983159Y-108030273D01*
X130117826Y-108071123D01*
X130176466Y-108088912D01*
X130176471Y-108088913D01*
X130327112Y-108103750D01*
X130327120Y-108103750D01*
X131477888Y-108103750D01*
X131628528Y-108088913D01*
X131628533Y-108088912D01*
X131628532Y-108088912D01*
X131821841Y-108030273D01*
X131919248Y-107978208D01*
X131999991Y-107935050D01*
X131999992Y-107935048D01*
X131999994Y-107935048D01*
X132156147Y-107806897D01*
X132284298Y-107650744D01*
X132379523Y-107472591D01*
X132438162Y-107279283D01*
X132438163Y-107279278D01*
X132457962Y-107078253D01*
X132457962Y-107078246D01*
X132438163Y-106877221D01*
X132438162Y-106877216D01*
X132383111Y-106695738D01*
X132379523Y-106683909D01*
X132361450Y-106650097D01*
X132284300Y-106505758D01*
X132156151Y-106349608D01*
X132156147Y-106349603D01*
X132117060Y-106317525D01*
X131999991Y-106221449D01*
X131821846Y-106126229D01*
X131821841Y-106126227D01*
X131628533Y-106067587D01*
X131628528Y-106067586D01*
X131477888Y-106052750D01*
X131477880Y-106052750D01*
X130327120Y-106052750D01*
X130327112Y-106052750D01*
X130176471Y-106067586D01*
X130176466Y-106067587D01*
X129983158Y-106126227D01*
X129983153Y-106126229D01*
X129805008Y-106221449D01*
X129648858Y-106349598D01*
X129648848Y-106349608D01*
X129520700Y-106505756D01*
X129457680Y-106623660D01*
X129413574Y-106666066D01*
X129352966Y-106674449D01*
X129302054Y-106648642D01*
X129155878Y-106509264D01*
X128979072Y-106395637D01*
X128979069Y-106395636D01*
X128979068Y-106395635D01*
X128869909Y-106351935D01*
X128783957Y-106317525D01*
X128577585Y-106277750D01*
X127220075Y-106277750D01*
X127063281Y-106292722D01*
X126861620Y-106351935D01*
X126674820Y-106448237D01*
X126674817Y-106448239D01*
X126509613Y-106578157D01*
X126371980Y-106736994D01*
X126286836Y-106884468D01*
X126241367Y-106925409D01*
X126180516Y-106931805D01*
X126127528Y-106901212D01*
X126102642Y-106845316D01*
X126102100Y-106834968D01*
X126102100Y-104887500D01*
X131756935Y-104887500D01*
X131777132Y-105066757D01*
X131777133Y-105066761D01*
X131836711Y-105237022D01*
X131836711Y-105237023D01*
X131912438Y-105357541D01*
X131932684Y-105389762D01*
X132060238Y-105517316D01*
X132212978Y-105613289D01*
X132281157Y-105637146D01*
X132383238Y-105672866D01*
X132383242Y-105672867D01*
X132383245Y-105672868D01*
X132478860Y-105683640D01*
X132534567Y-105708944D01*
X132537779Y-105712014D01*
X133636697Y-106810932D01*
X133664474Y-106865449D01*
X133654903Y-106925881D01*
X133650520Y-106933605D01*
X133624211Y-106975477D01*
X133564633Y-107145738D01*
X133564632Y-107145742D01*
X133544435Y-107325000D01*
X133564632Y-107504257D01*
X133564633Y-107504261D01*
X133624211Y-107674522D01*
X133624211Y-107674523D01*
X133707388Y-107806898D01*
X133720184Y-107827262D01*
X133847738Y-107954816D01*
X133847740Y-107954817D01*
X133847741Y-107954818D01*
X133979301Y-108037483D01*
X134000478Y-108050789D01*
X134061393Y-108072104D01*
X134170738Y-108110366D01*
X134170742Y-108110367D01*
X134170745Y-108110368D01*
X134350000Y-108130565D01*
X134529255Y-108110368D01*
X134699522Y-108050789D01*
X134852262Y-107954816D01*
X134852583Y-107954494D01*
X134852807Y-107954380D01*
X134856605Y-107951352D01*
X134857225Y-107952129D01*
X134907098Y-107926719D01*
X134922585Y-107925500D01*
X143460257Y-107925500D01*
X143518448Y-107944407D01*
X143530261Y-107954496D01*
X144525484Y-108949719D01*
X144553261Y-109004236D01*
X144553857Y-109008637D01*
X144564631Y-109104250D01*
X144564633Y-109104261D01*
X144624211Y-109274522D01*
X144624211Y-109274523D01*
X144720181Y-109427258D01*
X144720184Y-109427262D01*
X144847738Y-109554816D01*
X144847740Y-109554817D01*
X144847741Y-109554818D01*
X144942708Y-109614490D01*
X145000478Y-109650789D01*
X145020386Y-109657755D01*
X145170738Y-109710366D01*
X145170742Y-109710367D01*
X145170745Y-109710368D01*
X145350000Y-109730565D01*
X145529255Y-109710368D01*
X145699522Y-109650789D01*
X145852262Y-109554816D01*
X145979816Y-109427262D01*
X146075789Y-109274522D01*
X146135368Y-109104255D01*
X146155565Y-108925000D01*
X146135368Y-108745745D01*
X146075789Y-108575478D01*
X146041583Y-108521040D01*
X145979818Y-108422741D01*
X145979817Y-108422740D01*
X145979816Y-108422738D01*
X145852262Y-108295184D01*
X145852259Y-108295182D01*
X145852258Y-108295181D01*
X145699523Y-108199211D01*
X145529261Y-108139633D01*
X145529250Y-108139631D01*
X145433637Y-108128857D01*
X145377930Y-108103553D01*
X145374719Y-108100484D01*
X144793739Y-107519504D01*
X144765962Y-107464987D01*
X144775533Y-107404555D01*
X144818798Y-107361290D01*
X144863743Y-107350500D01*
X148852415Y-107350500D01*
X148910606Y-107369407D01*
X148922412Y-107379490D01*
X148922738Y-107379816D01*
X148922740Y-107379817D01*
X148922741Y-107379818D01*
X149058286Y-107464987D01*
X149075478Y-107475789D01*
X149143657Y-107499646D01*
X149245738Y-107535366D01*
X149245742Y-107535367D01*
X149245745Y-107535368D01*
X149425000Y-107555565D01*
X149604255Y-107535368D01*
X149774522Y-107475789D01*
X149927262Y-107379816D01*
X150054816Y-107252262D01*
X150150789Y-107099522D01*
X150210368Y-106929255D01*
X150230565Y-106750000D01*
X150218409Y-106642113D01*
X150230681Y-106582172D01*
X150275843Y-106540892D01*
X150336644Y-106534041D01*
X150386790Y-106561025D01*
X152681261Y-108855496D01*
X152709038Y-108910013D01*
X152699467Y-108970445D01*
X152656202Y-109013710D01*
X152611257Y-109024500D01*
X149542653Y-109024500D01*
X149489982Y-109009326D01*
X149354523Y-108924211D01*
X149184261Y-108864633D01*
X149184257Y-108864632D01*
X149005000Y-108844435D01*
X148825742Y-108864632D01*
X148825738Y-108864633D01*
X148655477Y-108924211D01*
X148655476Y-108924211D01*
X148502741Y-109020181D01*
X148375181Y-109147741D01*
X148279211Y-109300476D01*
X148279211Y-109300477D01*
X148219633Y-109470738D01*
X148219632Y-109470742D01*
X148199435Y-109650000D01*
X148219632Y-109829257D01*
X148219633Y-109829261D01*
X148279211Y-109999522D01*
X148279211Y-109999523D01*
X148350848Y-110113532D01*
X148375184Y-110152262D01*
X148502738Y-110279816D01*
X148655478Y-110375789D01*
X148715061Y-110396638D01*
X148825738Y-110435366D01*
X148825742Y-110435367D01*
X148825745Y-110435368D01*
X149005000Y-110455565D01*
X149184255Y-110435368D01*
X149354522Y-110375789D01*
X149489981Y-110290674D01*
X149542653Y-110275500D01*
X155701002Y-110275500D01*
X155759193Y-110294407D01*
X155771006Y-110304496D01*
X156429974Y-110963465D01*
X156457751Y-111017982D01*
X156458347Y-111022384D01*
X156464631Y-111078153D01*
X156464631Y-111078156D01*
X156524211Y-111248422D01*
X156524211Y-111248423D01*
X156620181Y-111401158D01*
X156620184Y-111401162D01*
X156747738Y-111528716D01*
X156900478Y-111624689D01*
X156968657Y-111648546D01*
X157070738Y-111684266D01*
X157070742Y-111684267D01*
X157070745Y-111684268D01*
X157250000Y-111704465D01*
X157429255Y-111684268D01*
X157599522Y-111624689D01*
X157752262Y-111528716D01*
X157879816Y-111401162D01*
X157975789Y-111248422D01*
X158035368Y-111078155D01*
X158055565Y-110898900D01*
X158035368Y-110719645D01*
X157975789Y-110549378D01*
X157911978Y-110447824D01*
X181524999Y-110447824D01*
X181531401Y-110507370D01*
X181531403Y-110507381D01*
X181581646Y-110642088D01*
X181581647Y-110642090D01*
X181667807Y-110757184D01*
X181667815Y-110757192D01*
X181782909Y-110843352D01*
X181782911Y-110843353D01*
X181917618Y-110893596D01*
X181917629Y-110893598D01*
X181977176Y-110900000D01*
X182874999Y-110900000D01*
X182875000Y-110899999D01*
X182875000Y-109800001D01*
X182874999Y-109800000D01*
X181525001Y-109800000D01*
X181525000Y-109800001D01*
X181525000Y-110447824D01*
X181524999Y-110447824D01*
X157911978Y-110447824D01*
X157904150Y-110435366D01*
X157879818Y-110396641D01*
X157879817Y-110396640D01*
X157879816Y-110396638D01*
X157752262Y-110269084D01*
X157752259Y-110269082D01*
X157752258Y-110269081D01*
X157599523Y-110173111D01*
X157429255Y-110113531D01*
X157373484Y-110107247D01*
X157317776Y-110081943D01*
X157314565Y-110078874D01*
X157008395Y-109772704D01*
X156980618Y-109718187D01*
X156990189Y-109657755D01*
X157033454Y-109614490D01*
X157078399Y-109603700D01*
X175955717Y-109603700D01*
X175962185Y-109604124D01*
X175998325Y-109608882D01*
X175998326Y-109608882D01*
X175998327Y-109608882D01*
X176037687Y-109603700D01*
X176065799Y-109599999D01*
X181525000Y-109599999D01*
X181525001Y-109600000D01*
X182874999Y-109600000D01*
X182875000Y-109599998D01*
X182875000Y-108500001D01*
X182874999Y-108500000D01*
X181977176Y-108500000D01*
X181917629Y-108506401D01*
X181917618Y-108506403D01*
X181782911Y-108556646D01*
X181782909Y-108556647D01*
X181667815Y-108642807D01*
X181667807Y-108642815D01*
X181581647Y-108757909D01*
X181581646Y-108757911D01*
X181531403Y-108892618D01*
X181531401Y-108892629D01*
X181525000Y-108952175D01*
X181525000Y-109599999D01*
X176065799Y-109599999D01*
X176155088Y-109588244D01*
X176301167Y-109527736D01*
X176375439Y-109470745D01*
X176426608Y-109431482D01*
X176448801Y-109402557D01*
X176453070Y-109397690D01*
X177846090Y-108004670D01*
X177850957Y-108000401D01*
X177879882Y-107978208D01*
X177880140Y-107977873D01*
X177969440Y-107861493D01*
X177976136Y-107852767D01*
X178036644Y-107706688D01*
X178052100Y-107589287D01*
X178052099Y-107589287D01*
X178057282Y-107549926D01*
X178052523Y-107513782D01*
X178052099Y-107507313D01*
X178052099Y-106650000D01*
X178052099Y-105987680D01*
X178071006Y-105929492D01*
X178120506Y-105893528D01*
X178181692Y-105893528D01*
X178185695Y-105894925D01*
X178317511Y-105944089D01*
X178317512Y-105944089D01*
X178317517Y-105944091D01*
X178377127Y-105950500D01*
X179972872Y-105950499D01*
X180032483Y-105944091D01*
X180032483Y-105944090D01*
X180038641Y-105943429D01*
X180038933Y-105946148D01*
X180088644Y-105950202D01*
X180135057Y-105990071D01*
X180149500Y-106041559D01*
X180149500Y-106416921D01*
X180134326Y-106469591D01*
X180099211Y-106525476D01*
X180039633Y-106695738D01*
X180039632Y-106695742D01*
X180019435Y-106875000D01*
X180039632Y-107054257D01*
X180039633Y-107054261D01*
X180099211Y-107224522D01*
X180099211Y-107224523D01*
X180195181Y-107377258D01*
X180195184Y-107377262D01*
X180322738Y-107504816D01*
X180322740Y-107504817D01*
X180322741Y-107504818D01*
X180457172Y-107589287D01*
X180475478Y-107600789D01*
X180543657Y-107624646D01*
X180645738Y-107660366D01*
X180645742Y-107660367D01*
X180645745Y-107660368D01*
X180825000Y-107680565D01*
X181004255Y-107660368D01*
X181174522Y-107600789D01*
X181327262Y-107504816D01*
X181454816Y-107377262D01*
X181550789Y-107224522D01*
X181610368Y-107054255D01*
X181630565Y-106875000D01*
X181610368Y-106695745D01*
X181606226Y-106683909D01*
X181570424Y-106581593D01*
X181550789Y-106525478D01*
X181503362Y-106449999D01*
X181454818Y-106372741D01*
X181454814Y-106372735D01*
X181429495Y-106347416D01*
X181401719Y-106292899D01*
X181400500Y-106277414D01*
X181400500Y-102404978D01*
X181402095Y-102390530D01*
X181402086Y-102390530D01*
X181402672Y-102384331D01*
X181402395Y-102375529D01*
X181400523Y-102315949D01*
X181400500Y-102314431D01*
X181400500Y-102285654D01*
X181400500Y-102285653D01*
X181400500Y-102285650D01*
X181399556Y-102278180D01*
X181399191Y-102273547D01*
X181397709Y-102226373D01*
X181391570Y-102205245D01*
X181388420Y-102190034D01*
X181385664Y-102168208D01*
X181368291Y-102124329D01*
X181366780Y-102119914D01*
X181353619Y-102074613D01*
X181353618Y-102074612D01*
X181353618Y-102074610D01*
X181342414Y-102055667D01*
X181335584Y-102041723D01*
X181327486Y-102021268D01*
X181299740Y-101983079D01*
X181297191Y-101979198D01*
X181273169Y-101938578D01*
X181257607Y-101923015D01*
X181247519Y-101911203D01*
X181234594Y-101893413D01*
X181234593Y-101893412D01*
X181198244Y-101863342D01*
X181194793Y-101860201D01*
X180854495Y-101519902D01*
X180826718Y-101465386D01*
X180825499Y-101449899D01*
X180825499Y-101402133D01*
X180825499Y-101402128D01*
X180819091Y-101342517D01*
X180819090Y-101342514D01*
X180768797Y-101207670D01*
X180682549Y-101092458D01*
X180682548Y-101092457D01*
X180682546Y-101092454D01*
X180668263Y-101081762D01*
X180567330Y-101006203D01*
X180489902Y-100977324D01*
X180441988Y-100939273D01*
X180425499Y-100884566D01*
X180425499Y-100514900D01*
X180444406Y-100456709D01*
X180489903Y-100422142D01*
X180567088Y-100393353D01*
X180567090Y-100393352D01*
X180682184Y-100307192D01*
X180682192Y-100307184D01*
X180768352Y-100192090D01*
X180768353Y-100192088D01*
X180818596Y-100057381D01*
X180818598Y-100057370D01*
X180825000Y-99997824D01*
X180825000Y-99700001D01*
X180824999Y-99700000D01*
X179574000Y-99700000D01*
X179515809Y-99681093D01*
X179479845Y-99631593D01*
X179475000Y-99601000D01*
X179475000Y-99599000D01*
X179493907Y-99540809D01*
X179543407Y-99504845D01*
X179574000Y-99500000D01*
X180824999Y-99500000D01*
X180825000Y-99499999D01*
X180825000Y-99202175D01*
X180818598Y-99142629D01*
X180818596Y-99142618D01*
X180768353Y-99007911D01*
X180768352Y-99007909D01*
X180682192Y-98892815D01*
X180682184Y-98892807D01*
X180567090Y-98806647D01*
X180489902Y-98777857D01*
X180441987Y-98739806D01*
X180425499Y-98685101D01*
X180425499Y-98102128D01*
X180419091Y-98042517D01*
X180397486Y-97984593D01*
X180394866Y-97923468D01*
X180397477Y-97915430D01*
X180419091Y-97857483D01*
X180425500Y-97797873D01*
X180425499Y-97247824D01*
X180624999Y-97247824D01*
X180631401Y-97307370D01*
X180631403Y-97307381D01*
X180681646Y-97442088D01*
X180681647Y-97442090D01*
X180767807Y-97557184D01*
X180767815Y-97557192D01*
X180882909Y-97643352D01*
X180882911Y-97643353D01*
X181017618Y-97693596D01*
X181017629Y-97693598D01*
X181077176Y-97700000D01*
X181974999Y-97700000D01*
X181975000Y-97699998D01*
X182175000Y-97699998D01*
X182175001Y-97700000D01*
X183072824Y-97700000D01*
X183132370Y-97693598D01*
X183132381Y-97693596D01*
X183267088Y-97643353D01*
X183267090Y-97643352D01*
X183382184Y-97557192D01*
X183382192Y-97557184D01*
X183468352Y-97442090D01*
X183468353Y-97442088D01*
X183518596Y-97307381D01*
X183518598Y-97307370D01*
X183525000Y-97247824D01*
X183525000Y-96600001D01*
X183524999Y-96600000D01*
X182175001Y-96600000D01*
X182175000Y-96600001D01*
X182175000Y-97699998D01*
X181975000Y-97699998D01*
X181975000Y-96600000D01*
X180625001Y-96600000D01*
X180625000Y-96600001D01*
X180625000Y-97247824D01*
X180624999Y-97247824D01*
X180425499Y-97247824D01*
X180425499Y-97002128D01*
X180419091Y-96942517D01*
X180405309Y-96905565D01*
X180368797Y-96807670D01*
X180282549Y-96692458D01*
X180282548Y-96692457D01*
X180282546Y-96692454D01*
X180263989Y-96678562D01*
X180167329Y-96606202D01*
X180032488Y-96555910D01*
X180032483Y-96555909D01*
X180032481Y-96555908D01*
X180032477Y-96555908D01*
X180001249Y-96552550D01*
X179972873Y-96549500D01*
X179972870Y-96549500D01*
X178505332Y-96549500D01*
X178447141Y-96530593D01*
X178411177Y-96481093D01*
X178411177Y-96419907D01*
X178411888Y-96417802D01*
X178413744Y-96412500D01*
X178418119Y-96399998D01*
X180625000Y-96399998D01*
X180625001Y-96400000D01*
X181974999Y-96400000D01*
X181975000Y-96399999D01*
X182175000Y-96399999D01*
X182175001Y-96400000D01*
X183524999Y-96400000D01*
X183525000Y-96399999D01*
X183525000Y-95752175D01*
X183518598Y-95692629D01*
X183518596Y-95692618D01*
X183468353Y-95557911D01*
X183468352Y-95557909D01*
X183382192Y-95442815D01*
X183382184Y-95442807D01*
X183267090Y-95356647D01*
X183267088Y-95356646D01*
X183132381Y-95306403D01*
X183132370Y-95306401D01*
X183072824Y-95300000D01*
X182175001Y-95300000D01*
X182175000Y-95300001D01*
X182175000Y-96399999D01*
X181975000Y-96399999D01*
X181975000Y-95300001D01*
X181974999Y-95300000D01*
X181077176Y-95300000D01*
X181017629Y-95306401D01*
X181017618Y-95306403D01*
X180882911Y-95356646D01*
X180882909Y-95356647D01*
X180767815Y-95442807D01*
X180767807Y-95442815D01*
X180681647Y-95557909D01*
X180681646Y-95557911D01*
X180631403Y-95692618D01*
X180631401Y-95692629D01*
X180625000Y-95752175D01*
X180625000Y-96399998D01*
X178418119Y-96399998D01*
X178460368Y-96279255D01*
X178480565Y-96100000D01*
X178460368Y-95920745D01*
X178453304Y-95900558D01*
X178419220Y-95803151D01*
X178400789Y-95750478D01*
X178394338Y-95740212D01*
X178304818Y-95597741D01*
X178304817Y-95597740D01*
X178304816Y-95597738D01*
X178177262Y-95470184D01*
X178177259Y-95470182D01*
X178177258Y-95470181D01*
X178024523Y-95374211D01*
X177854261Y-95314633D01*
X177854257Y-95314632D01*
X177675000Y-95294435D01*
X177495742Y-95314632D01*
X177495738Y-95314633D01*
X177325477Y-95374211D01*
X177325476Y-95374211D01*
X177172741Y-95470181D01*
X177045181Y-95597741D01*
X177045176Y-95597747D01*
X176980299Y-95700999D01*
X176933331Y-95740212D01*
X176885392Y-95746705D01*
X176875000Y-95745535D01*
X176695742Y-95765732D01*
X176695738Y-95765733D01*
X176525477Y-95825311D01*
X176525476Y-95825311D01*
X176372741Y-95921281D01*
X176245181Y-96048841D01*
X176149211Y-96201576D01*
X176149211Y-96201577D01*
X176089633Y-96371838D01*
X176089631Y-96371849D01*
X176077012Y-96483836D01*
X176051708Y-96539543D01*
X176048639Y-96542754D01*
X175055510Y-97535883D01*
X175050638Y-97540155D01*
X175021719Y-97562347D01*
X175021713Y-97562353D01*
X174943233Y-97664632D01*
X174925462Y-97687790D01*
X174925462Y-97687791D01*
X174864957Y-97833863D01*
X174864955Y-97833871D01*
X174844318Y-97990629D01*
X174844318Y-97990630D01*
X174849076Y-98026770D01*
X174849500Y-98033238D01*
X174849500Y-100882390D01*
X174849076Y-100888858D01*
X174844318Y-100924999D01*
X174844318Y-100925000D01*
X174859364Y-101039283D01*
X174864955Y-101081758D01*
X174864957Y-101081766D01*
X174925462Y-101227838D01*
X174925462Y-101227839D01*
X175013812Y-101342979D01*
X175021718Y-101353282D01*
X175021722Y-101353285D01*
X175021723Y-101353286D01*
X175050634Y-101375470D01*
X175055508Y-101379744D01*
X176970323Y-103294558D01*
X176998100Y-103349075D01*
X176988529Y-103409507D01*
X176945264Y-103452772D01*
X176889236Y-103462939D01*
X176725000Y-103444435D01*
X176545742Y-103464632D01*
X176545738Y-103464633D01*
X176375477Y-103524211D01*
X176375476Y-103524211D01*
X176222741Y-103620181D01*
X176095182Y-103747740D01*
X176065451Y-103795056D01*
X176018482Y-103834267D01*
X175957435Y-103838382D01*
X175911622Y-103812387D01*
X172004744Y-99905508D01*
X172000470Y-99900634D01*
X171978286Y-99871723D01*
X171978285Y-99871722D01*
X171978282Y-99871718D01*
X171978277Y-99871714D01*
X171978276Y-99871713D01*
X171852838Y-99775462D01*
X171706766Y-99714957D01*
X171706758Y-99714955D01*
X171589361Y-99699500D01*
X171550000Y-99694318D01*
X171549999Y-99694318D01*
X171513859Y-99699076D01*
X171507391Y-99699500D01*
X165013743Y-99699500D01*
X164955552Y-99680593D01*
X164919588Y-99631093D01*
X164919588Y-99569907D01*
X164943739Y-99530496D01*
X165744739Y-98729496D01*
X165799256Y-98701719D01*
X165814743Y-98700500D01*
X167675501Y-98700500D01*
X167733692Y-98719407D01*
X167769656Y-98768907D01*
X167774501Y-98799500D01*
X167774501Y-99047870D01*
X167780908Y-99107480D01*
X167780909Y-99107485D01*
X167831202Y-99242329D01*
X167917450Y-99357541D01*
X167917454Y-99357546D01*
X167917457Y-99357548D01*
X167917458Y-99357549D01*
X168032670Y-99443797D01*
X168167511Y-99494089D01*
X168167512Y-99494089D01*
X168167517Y-99494091D01*
X168227127Y-99500500D01*
X169722872Y-99500499D01*
X169782483Y-99494091D01*
X169856737Y-99466396D01*
X169917329Y-99443797D01*
X169917329Y-99443796D01*
X169917331Y-99443796D01*
X170032546Y-99357546D01*
X170118796Y-99242331D01*
X170122692Y-99231887D01*
X170155982Y-99142629D01*
X170169091Y-99107483D01*
X170175500Y-99047873D01*
X170175499Y-97152128D01*
X170169091Y-97092517D01*
X170163969Y-97078785D01*
X170118797Y-96957670D01*
X170032549Y-96842458D01*
X170032548Y-96842457D01*
X170032546Y-96842454D01*
X170032541Y-96842450D01*
X169917329Y-96756202D01*
X169782488Y-96705910D01*
X169782483Y-96705909D01*
X169782481Y-96705908D01*
X169782477Y-96705908D01*
X169751249Y-96702550D01*
X169722873Y-96699500D01*
X169722870Y-96699500D01*
X168227133Y-96699500D01*
X168227129Y-96699500D01*
X168227128Y-96699501D01*
X168219949Y-96700272D01*
X168167519Y-96705908D01*
X168167514Y-96705909D01*
X168032670Y-96756202D01*
X167917458Y-96842450D01*
X167917450Y-96842458D01*
X167831202Y-96957670D01*
X167780910Y-97092511D01*
X167780908Y-97092522D01*
X167774500Y-97152129D01*
X167774500Y-97400500D01*
X167755593Y-97458691D01*
X167706093Y-97494655D01*
X167675500Y-97499500D01*
X165567616Y-97499500D01*
X165561148Y-97499076D01*
X165525000Y-97494317D01*
X165524999Y-97494317D01*
X165357214Y-97516405D01*
X165346910Y-97523790D01*
X165222160Y-97575463D01*
X165159766Y-97623339D01*
X165102090Y-97643762D01*
X165043425Y-97626384D01*
X165006178Y-97577842D01*
X165000500Y-97544796D01*
X165000500Y-97275098D01*
X165019407Y-97216907D01*
X165029496Y-97205094D01*
X165771624Y-96462966D01*
X166535746Y-95698843D01*
X166547086Y-95689760D01*
X166547080Y-95689753D01*
X166551864Y-95685793D01*
X166551877Y-95685786D01*
X166598739Y-95635882D01*
X166599746Y-95634843D01*
X166620120Y-95614471D01*
X166624738Y-95608516D01*
X166627740Y-95605000D01*
X166660062Y-95570582D01*
X166670661Y-95551299D01*
X166679192Y-95538314D01*
X166692673Y-95520936D01*
X166711414Y-95477625D01*
X166713458Y-95473452D01*
X166736197Y-95432092D01*
X166741667Y-95410782D01*
X166746696Y-95396094D01*
X166755438Y-95375896D01*
X166762819Y-95329288D01*
X166763764Y-95324725D01*
X166766356Y-95314633D01*
X166775500Y-95279019D01*
X166775500Y-95257016D01*
X166776719Y-95241528D01*
X166780160Y-95219804D01*
X166775720Y-95172828D01*
X166775500Y-95168167D01*
X166775500Y-95012653D01*
X166790674Y-94959982D01*
X166835992Y-94887859D01*
X166875789Y-94824522D01*
X166935368Y-94654255D01*
X166955565Y-94475000D01*
X166935368Y-94295745D01*
X166934983Y-94294645D01*
X166900122Y-94195017D01*
X166875789Y-94125478D01*
X166868714Y-94114219D01*
X166779818Y-93972741D01*
X166779817Y-93972740D01*
X166779816Y-93972738D01*
X166652262Y-93845184D01*
X166652259Y-93845182D01*
X166652258Y-93845181D01*
X166499523Y-93749211D01*
X166329261Y-93689633D01*
X166329257Y-93689632D01*
X166150000Y-93669435D01*
X165970742Y-93689632D01*
X165970738Y-93689633D01*
X165800477Y-93749211D01*
X165800476Y-93749211D01*
X165647741Y-93845181D01*
X165520181Y-93972741D01*
X165424212Y-94125475D01*
X165376583Y-94261587D01*
X165339517Y-94310267D01*
X165280917Y-94327863D01*
X165250441Y-94322332D01*
X165079261Y-94262433D01*
X165079257Y-94262432D01*
X164900000Y-94242235D01*
X164720742Y-94262432D01*
X164720738Y-94262433D01*
X164550477Y-94322011D01*
X164550476Y-94322011D01*
X164397741Y-94417981D01*
X164397738Y-94417983D01*
X164397738Y-94417984D01*
X164397416Y-94418305D01*
X164397192Y-94418419D01*
X164393395Y-94421448D01*
X164392774Y-94420670D01*
X164342902Y-94446081D01*
X164327415Y-94447300D01*
X158794809Y-94447300D01*
X158788341Y-94446876D01*
X158752201Y-94442118D01*
X158752200Y-94442118D01*
X158712839Y-94447300D01*
X158595441Y-94462755D01*
X158595433Y-94462757D01*
X158449361Y-94523262D01*
X158449360Y-94523262D01*
X158323923Y-94619513D01*
X158323917Y-94619519D01*
X158301725Y-94648438D01*
X158297453Y-94653310D01*
X154255261Y-98695504D01*
X154200744Y-98723281D01*
X154185257Y-98724500D01*
X154110417Y-98724500D01*
X154052226Y-98705593D01*
X154016262Y-98656093D01*
X154012040Y-98614415D01*
X154030565Y-98450004D01*
X154030565Y-98450003D01*
X154028900Y-98435226D01*
X154010368Y-98270745D01*
X154009845Y-98269251D01*
X153951412Y-98102258D01*
X153950789Y-98100478D01*
X153940674Y-98084380D01*
X153925499Y-98031712D01*
X153925499Y-95046484D01*
X153944406Y-94988294D01*
X153954498Y-94976479D01*
X153954816Y-94976162D01*
X154050789Y-94823422D01*
X154110368Y-94653155D01*
X154130565Y-94473900D01*
X154110368Y-94294645D01*
X154096679Y-94255525D01*
X154086014Y-94225045D01*
X154050789Y-94124378D01*
X154041909Y-94110246D01*
X153954818Y-93971641D01*
X153954817Y-93971640D01*
X153954816Y-93971638D01*
X153827262Y-93844084D01*
X153827259Y-93844082D01*
X153827258Y-93844081D01*
X153674523Y-93748111D01*
X153504261Y-93688533D01*
X153504249Y-93688530D01*
X153454017Y-93682871D01*
X153398309Y-93657568D01*
X153368114Y-93604352D01*
X153374965Y-93543551D01*
X153395099Y-93514490D01*
X153437788Y-93471802D01*
X153978494Y-92931096D01*
X154033011Y-92903319D01*
X154048498Y-92902100D01*
X157633258Y-92902100D01*
X157691449Y-92921007D01*
X157717083Y-92948428D01*
X157720179Y-92953356D01*
X157720181Y-92953358D01*
X157720184Y-92953362D01*
X157847738Y-93080916D01*
X157847740Y-93080917D01*
X157847741Y-93080918D01*
X157987588Y-93168790D01*
X158000478Y-93176889D01*
X158034189Y-93188685D01*
X158170738Y-93236466D01*
X158170742Y-93236467D01*
X158170745Y-93236468D01*
X158350000Y-93256665D01*
X158529255Y-93236468D01*
X158699522Y-93176889D01*
X158852262Y-93080916D01*
X158979816Y-92953362D01*
X159075789Y-92800622D01*
X159135368Y-92630355D01*
X159135368Y-92630350D01*
X159136025Y-92627477D01*
X159136871Y-92626059D01*
X159137205Y-92625107D01*
X159137400Y-92625175D01*
X159167403Y-92574950D01*
X159223663Y-92550899D01*
X159232544Y-92550500D01*
X164906278Y-92550500D01*
X164964469Y-92569407D01*
X164976280Y-92579495D01*
X165197406Y-92800622D01*
X165358024Y-92961240D01*
X165367112Y-92972584D01*
X165367119Y-92972579D01*
X165371087Y-92977375D01*
X165420944Y-93024196D01*
X165422060Y-93025277D01*
X165442402Y-93045618D01*
X165442404Y-93045620D01*
X165445502Y-93048023D01*
X165448347Y-93050230D01*
X165451892Y-93053258D01*
X165486293Y-93085562D01*
X165505572Y-93096160D01*
X165518556Y-93104689D01*
X165535939Y-93118173D01*
X165579250Y-93136916D01*
X165583440Y-93138969D01*
X165602178Y-93149270D01*
X165624783Y-93161697D01*
X165639968Y-93165595D01*
X165646081Y-93167165D01*
X165660782Y-93172198D01*
X165680976Y-93180937D01*
X165680977Y-93180937D01*
X165680979Y-93180938D01*
X165727589Y-93188320D01*
X165732139Y-93189261D01*
X165754296Y-93194950D01*
X165777850Y-93200999D01*
X165777854Y-93200999D01*
X165777856Y-93201000D01*
X165799857Y-93201000D01*
X165815344Y-93202218D01*
X165837071Y-93205660D01*
X165869580Y-93202587D01*
X165884047Y-93201220D01*
X165888708Y-93201000D01*
X168064517Y-93201000D01*
X168078970Y-93202595D01*
X168078971Y-93202587D01*
X168085166Y-93203172D01*
X168085167Y-93203173D01*
X168085167Y-93203172D01*
X168085168Y-93203173D01*
X168088710Y-93203061D01*
X168153567Y-93201023D01*
X168155087Y-93201000D01*
X168183843Y-93201000D01*
X168183850Y-93201000D01*
X168189660Y-93200265D01*
X168191313Y-93200057D01*
X168195959Y-93199690D01*
X168243127Y-93198209D01*
X168264251Y-93192070D01*
X168279461Y-93188921D01*
X168301292Y-93186164D01*
X168301296Y-93186162D01*
X168301298Y-93186162D01*
X168344379Y-93169104D01*
X168345175Y-93168788D01*
X168349567Y-93167284D01*
X168394890Y-93154118D01*
X168413825Y-93142919D01*
X168427765Y-93136089D01*
X168448232Y-93127986D01*
X168486428Y-93100234D01*
X168490285Y-93097700D01*
X168530920Y-93073670D01*
X168546478Y-93058110D01*
X168558284Y-93048027D01*
X168576087Y-93035094D01*
X168606165Y-92998734D01*
X168609301Y-92995288D01*
X171754589Y-89850000D01*
X178341423Y-89850000D01*
X180258577Y-89850000D01*
X179300000Y-88891422D01*
X178341423Y-89850000D01*
X171754589Y-89850000D01*
X172509671Y-89094918D01*
X177550000Y-89094918D01*
X177565123Y-89229145D01*
X177565124Y-89229149D01*
X177624663Y-89399302D01*
X177720574Y-89551944D01*
X177848055Y-89679425D01*
X177848054Y-89679425D01*
X178000695Y-89775334D01*
X178098884Y-89809691D01*
X179158577Y-88749999D01*
X179441421Y-88749999D01*
X180501113Y-89809691D01*
X180599304Y-89775334D01*
X180751945Y-89679425D01*
X180827563Y-89603807D01*
X180882079Y-89576029D01*
X180942512Y-89585600D01*
X180985776Y-89628864D01*
X180996144Y-89664674D01*
X181013603Y-89853083D01*
X181069418Y-90049250D01*
X181160327Y-90231821D01*
X181283236Y-90394579D01*
X181433959Y-90531981D01*
X181607363Y-90639348D01*
X181797544Y-90713024D01*
X181998024Y-90750500D01*
X182201976Y-90750500D01*
X182402456Y-90713024D01*
X182592637Y-90639348D01*
X182766041Y-90531981D01*
X182916764Y-90394579D01*
X183039673Y-90231821D01*
X183130582Y-90049250D01*
X183186397Y-89853083D01*
X183205215Y-89650000D01*
X183186397Y-89446917D01*
X183130582Y-89250750D01*
X183039673Y-89068179D01*
X182916764Y-88905421D01*
X182766041Y-88768019D01*
X182592637Y-88660652D01*
X182402456Y-88586976D01*
X182402455Y-88586975D01*
X182402453Y-88586975D01*
X182201976Y-88549500D01*
X181998024Y-88549500D01*
X181797546Y-88586975D01*
X181741785Y-88608577D01*
X181607363Y-88660652D01*
X181433959Y-88768019D01*
X181283236Y-88905421D01*
X181228002Y-88978562D01*
X181177847Y-89013604D01*
X181116672Y-89012473D01*
X181067846Y-88975601D01*
X181050000Y-88918900D01*
X181050000Y-88405084D01*
X181049999Y-88405081D01*
X181034876Y-88270854D01*
X181034875Y-88270850D01*
X180975336Y-88100697D01*
X180879425Y-87948055D01*
X180751944Y-87820574D01*
X180599304Y-87724664D01*
X180501114Y-87690306D01*
X179441421Y-88749999D01*
X179158577Y-88749999D01*
X178098884Y-87690306D01*
X178000696Y-87724663D01*
X177848055Y-87820574D01*
X177720574Y-87948055D01*
X177624663Y-88100697D01*
X177565124Y-88270850D01*
X177565123Y-88270854D01*
X177550000Y-88405081D01*
X177550000Y-89094918D01*
X172509671Y-89094918D01*
X172996012Y-88608577D01*
X173954589Y-87650000D01*
X178341423Y-87650000D01*
X179299999Y-88608577D01*
X180258577Y-87650000D01*
X178341423Y-87650000D01*
X173954589Y-87650000D01*
X177404155Y-84200433D01*
X177458670Y-84172658D01*
X177519102Y-84182229D01*
X177562367Y-84225494D01*
X177567601Y-84237741D01*
X177624211Y-84399522D01*
X177624211Y-84399523D01*
X177648851Y-84438737D01*
X177720184Y-84552262D01*
X177847738Y-84679816D01*
X177847740Y-84679817D01*
X177847741Y-84679818D01*
X177978943Y-84762258D01*
X178000478Y-84775789D01*
X178065094Y-84798399D01*
X178170738Y-84835366D01*
X178170742Y-84835367D01*
X178170745Y-84835368D01*
X178170746Y-84835368D01*
X178170750Y-84835369D01*
X178305029Y-84850499D01*
X178305045Y-84850499D01*
X178305046Y-84850500D01*
X179611257Y-84850500D01*
X179669448Y-84869407D01*
X179705412Y-84918907D01*
X179705412Y-84980093D01*
X179681261Y-85019504D01*
X179580261Y-85120504D01*
X179525744Y-85148281D01*
X179510257Y-85149500D01*
X178305029Y-85149500D01*
X178170750Y-85164630D01*
X178170738Y-85164633D01*
X178000477Y-85224211D01*
X178000476Y-85224211D01*
X177847741Y-85320181D01*
X177720181Y-85447741D01*
X177624211Y-85600476D01*
X177624211Y-85600477D01*
X177564633Y-85770738D01*
X177564630Y-85770750D01*
X177549500Y-85905029D01*
X177549500Y-86594970D01*
X177564630Y-86729249D01*
X177564633Y-86729261D01*
X177624211Y-86899522D01*
X177624211Y-86899523D01*
X177720181Y-87052258D01*
X177720184Y-87052262D01*
X177847738Y-87179816D01*
X178000478Y-87275789D01*
X178068657Y-87299646D01*
X178170738Y-87335366D01*
X178170742Y-87335367D01*
X178170745Y-87335368D01*
X178170746Y-87335368D01*
X178170750Y-87335369D01*
X178305029Y-87350499D01*
X178305045Y-87350499D01*
X178305046Y-87350500D01*
X178305047Y-87350500D01*
X180294953Y-87350500D01*
X180294954Y-87350500D01*
X180294955Y-87350499D01*
X180294970Y-87350499D01*
X180429249Y-87335369D01*
X180429251Y-87335368D01*
X180429255Y-87335368D01*
X180599522Y-87275789D01*
X180752262Y-87179816D01*
X180879816Y-87052262D01*
X180975789Y-86899522D01*
X181035368Y-86729255D01*
X181035369Y-86729249D01*
X181050499Y-86594970D01*
X181050500Y-86594953D01*
X181050500Y-85905046D01*
X181050499Y-85905029D01*
X181035369Y-85770750D01*
X181035366Y-85770738D01*
X181011014Y-85701145D01*
X180975789Y-85600478D01*
X180949479Y-85558606D01*
X180934529Y-85499277D01*
X180957308Y-85442490D01*
X180963290Y-85435943D01*
X181146090Y-85253144D01*
X181150957Y-85248875D01*
X181179882Y-85226682D01*
X181181779Y-85224211D01*
X181227494Y-85164633D01*
X181276136Y-85101241D01*
X181336644Y-84955162D01*
X181352100Y-84837761D01*
X181357282Y-84798400D01*
X181352524Y-84762258D01*
X181352100Y-84755790D01*
X181352100Y-83859034D01*
X181371007Y-83800843D01*
X181420507Y-83764879D01*
X181481693Y-83764879D01*
X181503212Y-83774861D01*
X181607363Y-83839348D01*
X181797544Y-83913024D01*
X181998024Y-83950500D01*
X182201976Y-83950500D01*
X182402456Y-83913024D01*
X182592637Y-83839348D01*
X182766041Y-83731981D01*
X182916764Y-83594579D01*
X183039673Y-83431821D01*
X183130582Y-83249250D01*
X183186397Y-83053083D01*
X183205215Y-82850000D01*
X183186397Y-82646917D01*
X183130582Y-82450750D01*
X183039673Y-82268179D01*
X182916764Y-82105421D01*
X182766041Y-81968019D01*
X182592637Y-81860652D01*
X182402456Y-81786976D01*
X182402455Y-81786975D01*
X182402453Y-81786975D01*
X182201976Y-81749500D01*
X181998024Y-81749500D01*
X181797546Y-81786975D01*
X181727632Y-81814059D01*
X181607363Y-81860652D01*
X181453196Y-81956108D01*
X181433959Y-81968019D01*
X181283237Y-82105420D01*
X181283229Y-82105429D01*
X181260489Y-82135541D01*
X181210332Y-82170583D01*
X181149157Y-82169450D01*
X181111483Y-82145882D01*
X180955658Y-81990057D01*
X180927881Y-81935540D01*
X180937452Y-81875108D01*
X180966333Y-81840800D01*
X181077546Y-81757546D01*
X181163796Y-81642331D01*
X181214091Y-81507483D01*
X181220500Y-81447873D01*
X181220499Y-76752128D01*
X181214091Y-76692517D01*
X181165135Y-76561258D01*
X181163797Y-76557670D01*
X181077549Y-76442458D01*
X181077548Y-76442457D01*
X181077546Y-76442454D01*
X181077541Y-76442450D01*
X180962329Y-76356202D01*
X180827488Y-76305910D01*
X180827483Y-76305909D01*
X180827481Y-76305908D01*
X180827477Y-76305908D01*
X180796249Y-76302550D01*
X180767873Y-76299500D01*
X180767870Y-76299500D01*
X179672133Y-76299500D01*
X179672129Y-76299500D01*
X179672128Y-76299501D01*
X179664949Y-76300272D01*
X179612519Y-76305908D01*
X179612514Y-76305909D01*
X179477670Y-76356202D01*
X179362458Y-76442450D01*
X179362450Y-76442458D01*
X179299253Y-76526879D01*
X179249244Y-76562132D01*
X179188065Y-76561258D01*
X179140747Y-76526879D01*
X179077549Y-76442458D01*
X179077548Y-76442457D01*
X179077546Y-76442454D01*
X179077541Y-76442450D01*
X178962329Y-76356202D01*
X178827488Y-76305910D01*
X178827483Y-76305909D01*
X178827481Y-76305908D01*
X178827477Y-76305908D01*
X178796249Y-76302550D01*
X178767873Y-76299500D01*
X178767870Y-76299500D01*
X177672133Y-76299500D01*
X177672129Y-76299500D01*
X177672128Y-76299501D01*
X177664949Y-76300272D01*
X177612519Y-76305908D01*
X177612514Y-76305909D01*
X177477670Y-76356202D01*
X177362458Y-76442450D01*
X177362450Y-76442458D01*
X177276202Y-76557670D01*
X177225910Y-76692511D01*
X177225908Y-76692522D01*
X177219500Y-76752129D01*
X177219500Y-81447866D01*
X177219500Y-81447869D01*
X177219501Y-81447872D01*
X177221044Y-81462229D01*
X177225908Y-81507480D01*
X177225909Y-81507485D01*
X177276202Y-81642329D01*
X177362450Y-81757541D01*
X177362454Y-81757546D01*
X177362457Y-81757548D01*
X177362458Y-81757549D01*
X177477667Y-81843795D01*
X177477668Y-81843795D01*
X177477669Y-81843796D01*
X177530098Y-81863350D01*
X177578011Y-81901400D01*
X177594500Y-81956108D01*
X177594500Y-82199900D01*
X177575593Y-82258091D01*
X177565504Y-82269904D01*
X167914405Y-91921004D01*
X167859888Y-91948781D01*
X167844401Y-91950000D01*
X166943812Y-91950000D01*
X166885621Y-91931093D01*
X166849657Y-91881593D01*
X166845434Y-91839916D01*
X166845492Y-91839393D01*
X166855565Y-91750000D01*
X166835368Y-91570745D01*
X166775789Y-91400478D01*
X166767933Y-91387976D01*
X166715674Y-91304805D01*
X166700500Y-91252134D01*
X166700500Y-88024977D01*
X166702095Y-88010529D01*
X166702086Y-88010529D01*
X166702672Y-88004330D01*
X166701493Y-87966820D01*
X166700523Y-87935949D01*
X166700500Y-87934431D01*
X166700500Y-87905654D01*
X166700500Y-87905653D01*
X166700500Y-87905650D01*
X166699556Y-87898180D01*
X166699191Y-87893547D01*
X166697709Y-87846373D01*
X166697709Y-87846371D01*
X166691571Y-87825245D01*
X166688421Y-87810037D01*
X166685664Y-87788208D01*
X166682450Y-87780092D01*
X166675500Y-87743651D01*
X166675500Y-80355822D01*
X166690675Y-80303150D01*
X166755787Y-80199526D01*
X166755788Y-80199523D01*
X166755789Y-80199522D01*
X166815368Y-80029255D01*
X166835565Y-79850000D01*
X166815368Y-79670745D01*
X166811269Y-79659032D01*
X166785178Y-79584466D01*
X166755789Y-79500478D01*
X166659816Y-79347738D01*
X166532262Y-79220184D01*
X166532259Y-79220182D01*
X166532256Y-79220179D01*
X166501828Y-79201060D01*
X166462616Y-79154091D01*
X166455500Y-79117235D01*
X166455500Y-75647866D01*
X174519500Y-75647866D01*
X174519501Y-75647870D01*
X174525908Y-75707480D01*
X174525909Y-75707485D01*
X174576202Y-75842329D01*
X174662450Y-75957541D01*
X174662454Y-75957546D01*
X174662457Y-75957548D01*
X174662458Y-75957549D01*
X174777670Y-76043797D01*
X174912511Y-76094089D01*
X174912512Y-76094089D01*
X174912517Y-76094091D01*
X174972127Y-76100500D01*
X176667872Y-76100499D01*
X176727483Y-76094091D01*
X176794907Y-76068943D01*
X176862329Y-76043797D01*
X176862329Y-76043796D01*
X176862331Y-76043796D01*
X176977546Y-75957546D01*
X177063796Y-75842331D01*
X177114091Y-75707483D01*
X177120500Y-75647873D01*
X177120500Y-75647866D01*
X181319500Y-75647866D01*
X181319501Y-75647870D01*
X181325908Y-75707480D01*
X181325909Y-75707485D01*
X181376202Y-75842329D01*
X181462450Y-75957541D01*
X181462454Y-75957546D01*
X181462457Y-75957548D01*
X181462458Y-75957549D01*
X181577670Y-76043797D01*
X181712511Y-76094089D01*
X181712512Y-76094089D01*
X181712517Y-76094091D01*
X181772127Y-76100500D01*
X183467872Y-76100499D01*
X183527483Y-76094091D01*
X183594907Y-76068943D01*
X183662329Y-76043797D01*
X183662329Y-76043796D01*
X183662331Y-76043796D01*
X183777546Y-75957546D01*
X183863796Y-75842331D01*
X183914091Y-75707483D01*
X183920500Y-75647873D01*
X183920499Y-72152128D01*
X183914091Y-72092517D01*
X183914089Y-72092511D01*
X183863797Y-71957670D01*
X183777549Y-71842458D01*
X183777548Y-71842457D01*
X183777546Y-71842454D01*
X183777541Y-71842450D01*
X183662329Y-71756202D01*
X183527488Y-71705910D01*
X183527483Y-71705909D01*
X183527481Y-71705908D01*
X183527477Y-71705908D01*
X183496249Y-71702550D01*
X183467873Y-71699500D01*
X183467870Y-71699500D01*
X181772133Y-71699500D01*
X181772129Y-71699500D01*
X181772128Y-71699501D01*
X181764949Y-71700272D01*
X181712519Y-71705908D01*
X181712514Y-71705909D01*
X181577670Y-71756202D01*
X181462458Y-71842450D01*
X181462450Y-71842458D01*
X181376202Y-71957670D01*
X181325910Y-72092511D01*
X181325908Y-72092522D01*
X181319500Y-72152129D01*
X181319500Y-75647866D01*
X177120500Y-75647866D01*
X177120499Y-72152128D01*
X177114091Y-72092517D01*
X177114089Y-72092511D01*
X177063797Y-71957670D01*
X176977549Y-71842458D01*
X176977548Y-71842457D01*
X176977546Y-71842454D01*
X176977541Y-71842450D01*
X176862329Y-71756202D01*
X176727488Y-71705910D01*
X176727483Y-71705909D01*
X176727481Y-71705908D01*
X176727477Y-71705908D01*
X176696249Y-71702550D01*
X176667873Y-71699500D01*
X176667870Y-71699500D01*
X174972133Y-71699500D01*
X174972129Y-71699500D01*
X174972128Y-71699501D01*
X174964949Y-71700272D01*
X174912519Y-71705908D01*
X174912514Y-71705909D01*
X174777670Y-71756202D01*
X174662458Y-71842450D01*
X174662450Y-71842458D01*
X174576202Y-71957670D01*
X174525910Y-72092511D01*
X174525908Y-72092522D01*
X174519500Y-72152129D01*
X174519500Y-75647866D01*
X166455500Y-75647866D01*
X166455500Y-66518481D01*
X166457254Y-66499930D01*
X166459227Y-66489588D01*
X166456809Y-66451151D01*
X166455598Y-66431894D01*
X166455500Y-66428785D01*
X166455500Y-66410651D01*
X166453227Y-66392661D01*
X166452934Y-66389563D01*
X166449304Y-66331864D01*
X166449304Y-66331862D01*
X166446048Y-66321841D01*
X166441984Y-66303661D01*
X166440664Y-66293208D01*
X166437230Y-66284536D01*
X166419382Y-66239454D01*
X166418328Y-66236528D01*
X166400469Y-66181563D01*
X166400467Y-66181559D01*
X166394823Y-66172665D01*
X166386367Y-66156069D01*
X166382486Y-66146269D01*
X166382486Y-66146268D01*
X166348496Y-66099484D01*
X166346748Y-66096911D01*
X166338385Y-66083733D01*
X166315786Y-66048123D01*
X166308108Y-66040913D01*
X166295784Y-66026933D01*
X166289594Y-66018413D01*
X166289593Y-66018412D01*
X166245052Y-65981564D01*
X166242719Y-65979507D01*
X166200583Y-65939938D01*
X166194938Y-65936835D01*
X166191347Y-65934861D01*
X166175935Y-65924387D01*
X166167823Y-65917676D01*
X166115518Y-65893062D01*
X166112759Y-65891657D01*
X166092326Y-65880424D01*
X166062097Y-65863805D01*
X166062094Y-65863804D01*
X166062092Y-65863803D01*
X166051883Y-65861181D01*
X166034362Y-65854873D01*
X166024826Y-65850386D01*
X165968047Y-65839554D01*
X165965014Y-65838876D01*
X165909023Y-65824500D01*
X165909019Y-65824500D01*
X165898486Y-65824500D01*
X165879936Y-65822747D01*
X165869588Y-65820773D01*
X165869587Y-65820773D01*
X165811895Y-65824402D01*
X165808786Y-65824500D01*
X158809983Y-65824500D01*
X158795529Y-65822904D01*
X158795529Y-65822913D01*
X158789331Y-65822326D01*
X158744967Y-65823721D01*
X158720932Y-65824476D01*
X158719413Y-65824500D01*
X158690646Y-65824500D01*
X158683179Y-65825442D01*
X158678534Y-65825808D01*
X158631371Y-65827291D01*
X158610244Y-65833429D01*
X158595034Y-65836578D01*
X158573211Y-65839334D01*
X158529340Y-65856703D01*
X158524929Y-65858213D01*
X158479610Y-65871381D01*
X158460673Y-65882580D01*
X158446733Y-65889409D01*
X158426268Y-65897513D01*
X158388085Y-65925252D01*
X158384188Y-65927812D01*
X158343581Y-65951827D01*
X158328021Y-65967387D01*
X158316215Y-65977470D01*
X158298417Y-65990401D01*
X158268338Y-66026758D01*
X158265199Y-66030208D01*
X157844257Y-66451151D01*
X157832919Y-66460234D01*
X157832925Y-66460241D01*
X157828125Y-66464212D01*
X157781304Y-66514069D01*
X157780224Y-66515183D01*
X157759885Y-66535523D01*
X157759875Y-66535534D01*
X157755262Y-66541479D01*
X157752240Y-66545017D01*
X157719939Y-66579416D01*
X157719935Y-66579421D01*
X157709334Y-66598703D01*
X157700813Y-66611676D01*
X157687325Y-66629066D01*
X157668584Y-66672373D01*
X157666532Y-66676560D01*
X157643804Y-66717905D01*
X157643800Y-66717916D01*
X157638332Y-66739212D01*
X157633303Y-66753903D01*
X157624561Y-66774105D01*
X157624560Y-66774108D01*
X157617178Y-66820714D01*
X157616232Y-66825281D01*
X157604501Y-66870973D01*
X157604500Y-66870984D01*
X157604500Y-66892981D01*
X157603281Y-66908469D01*
X157599839Y-66930193D01*
X157604280Y-66977170D01*
X157604500Y-66981831D01*
X157604500Y-67712348D01*
X157589325Y-67765020D01*
X157504212Y-67900473D01*
X157504211Y-67900477D01*
X157444633Y-68070738D01*
X157444632Y-68070742D01*
X157424435Y-68250000D01*
X157444632Y-68429257D01*
X157444633Y-68429261D01*
X157504211Y-68599522D01*
X157504211Y-68599523D01*
X157600181Y-68752258D01*
X157600184Y-68752262D01*
X157727738Y-68879816D01*
X157727740Y-68879817D01*
X157727741Y-68879818D01*
X157763460Y-68902262D01*
X157880478Y-68975789D01*
X157948657Y-68999646D01*
X158050738Y-69035366D01*
X158050742Y-69035367D01*
X158050745Y-69035368D01*
X158230000Y-69055565D01*
X158409255Y-69035368D01*
X158579522Y-68975789D01*
X158732262Y-68879816D01*
X158859816Y-68752262D01*
X158955789Y-68599522D01*
X159015368Y-68429255D01*
X159035565Y-68250000D01*
X159015368Y-68070745D01*
X159008276Y-68050478D01*
X158991014Y-68001145D01*
X158955789Y-67900478D01*
X158954069Y-67897741D01*
X158870674Y-67765017D01*
X158855500Y-67712346D01*
X158855500Y-67250096D01*
X158874407Y-67191905D01*
X158884497Y-67180092D01*
X158960094Y-67104496D01*
X159014611Y-67076719D01*
X159030097Y-67075500D01*
X165105500Y-67075500D01*
X165163691Y-67094407D01*
X165199655Y-67143907D01*
X165204500Y-67174500D01*
X165204499Y-79570019D01*
X165202904Y-79584466D01*
X165202912Y-79584467D01*
X165202326Y-79590664D01*
X165203641Y-79632483D01*
X165204476Y-79659067D01*
X165204500Y-79660587D01*
X165204500Y-79689353D01*
X165205442Y-79696820D01*
X165205808Y-79701466D01*
X165207291Y-79748630D01*
X165207291Y-79748633D01*
X165213428Y-79769755D01*
X165216578Y-79784966D01*
X165219334Y-79806787D01*
X165220885Y-79812825D01*
X165219304Y-79813230D01*
X165223463Y-79844441D01*
X165224435Y-79844441D01*
X165224435Y-79849996D01*
X165244632Y-80029257D01*
X165244633Y-80029261D01*
X165304211Y-80199522D01*
X165304211Y-80199523D01*
X165400179Y-80352255D01*
X165400181Y-80352258D01*
X165400184Y-80352262D01*
X165400186Y-80352264D01*
X165402896Y-80355661D01*
X165424400Y-80412943D01*
X165424500Y-80417394D01*
X165424500Y-87840014D01*
X165422904Y-87854464D01*
X165422913Y-87854465D01*
X165422326Y-87860667D01*
X165423360Y-87893533D01*
X165424476Y-87929068D01*
X165424500Y-87930586D01*
X165424500Y-87959353D01*
X165425442Y-87966820D01*
X165425808Y-87971466D01*
X165427291Y-88018630D01*
X165427291Y-88018633D01*
X165433428Y-88039755D01*
X165436578Y-88054966D01*
X165439334Y-88076787D01*
X165439336Y-88076793D01*
X165442548Y-88084905D01*
X165449500Y-88121349D01*
X165449500Y-91177414D01*
X165430593Y-91235605D01*
X165420512Y-91247409D01*
X165420185Y-91247735D01*
X165420182Y-91247739D01*
X165411901Y-91260919D01*
X165364932Y-91300131D01*
X165303885Y-91304246D01*
X165303458Y-91304137D01*
X165285401Y-91299501D01*
X165285395Y-91299500D01*
X165285394Y-91299500D01*
X165285392Y-91299500D01*
X165263393Y-91299500D01*
X165247905Y-91298281D01*
X165226179Y-91294839D01*
X165179203Y-91299280D01*
X165174542Y-91299500D01*
X149175342Y-91299500D01*
X149160888Y-91297904D01*
X149160888Y-91297913D01*
X149154689Y-91297326D01*
X149110181Y-91298725D01*
X149086276Y-91299476D01*
X149084758Y-91299500D01*
X149056005Y-91299500D01*
X149048546Y-91300441D01*
X149043901Y-91300807D01*
X148996730Y-91302290D01*
X148996729Y-91302290D01*
X148975593Y-91308430D01*
X148960392Y-91311578D01*
X148938565Y-91314336D01*
X148938561Y-91314337D01*
X148904917Y-91327657D01*
X148894695Y-91331704D01*
X148890289Y-91333213D01*
X148844968Y-91346381D01*
X148826031Y-91357580D01*
X148812091Y-91364409D01*
X148791626Y-91372513D01*
X148753443Y-91400252D01*
X148749546Y-91402812D01*
X148708939Y-91426827D01*
X148699501Y-91436266D01*
X148644983Y-91464042D01*
X148584552Y-91454468D01*
X148541289Y-91411202D01*
X148530500Y-91366260D01*
X148530500Y-78822584D01*
X148549407Y-78764393D01*
X148559499Y-78752578D01*
X148559816Y-78752262D01*
X148655789Y-78599522D01*
X148715368Y-78429255D01*
X148735565Y-78250000D01*
X148715368Y-78070745D01*
X148655789Y-77900478D01*
X148559816Y-77747738D01*
X148432262Y-77620184D01*
X148432259Y-77620182D01*
X148432258Y-77620181D01*
X148279523Y-77524211D01*
X148109261Y-77464633D01*
X148109257Y-77464632D01*
X147930000Y-77444435D01*
X147750742Y-77464632D01*
X147750738Y-77464633D01*
X147580477Y-77524211D01*
X147580476Y-77524211D01*
X147427741Y-77620181D01*
X147300181Y-77747741D01*
X147204211Y-77900476D01*
X147204211Y-77900477D01*
X147144633Y-78070738D01*
X147144632Y-78070742D01*
X147124435Y-78250000D01*
X147144632Y-78429257D01*
X147144633Y-78429261D01*
X147204211Y-78599522D01*
X147204211Y-78599523D01*
X147300181Y-78752258D01*
X147300184Y-78752262D01*
X147300505Y-78752583D01*
X147300619Y-78752807D01*
X147303648Y-78756605D01*
X147302870Y-78757225D01*
X147328281Y-78807098D01*
X147329500Y-78822585D01*
X147329500Y-85541519D01*
X147310593Y-85599710D01*
X147261093Y-85635674D01*
X147199907Y-85635674D01*
X147160496Y-85611523D01*
X145987709Y-84438737D01*
X145941079Y-84401161D01*
X145810292Y-84341432D01*
X145667984Y-84320973D01*
X145667978Y-84320973D01*
X145525669Y-84341432D01*
X145394882Y-84401161D01*
X145348252Y-84438737D01*
X143970925Y-85816064D01*
X145244423Y-87089562D01*
X145272200Y-87144079D01*
X145262629Y-87204511D01*
X145244423Y-87229570D01*
X145243009Y-87230984D01*
X145188492Y-87258761D01*
X145128060Y-87249190D01*
X145103001Y-87230984D01*
X143829503Y-85957486D01*
X142452176Y-87334813D01*
X142414600Y-87381443D01*
X142354871Y-87512230D01*
X142334412Y-87654538D01*
X142334412Y-87654545D01*
X142354871Y-87796853D01*
X142414600Y-87927640D01*
X142452176Y-87974270D01*
X144358302Y-89880396D01*
X144404932Y-89917972D01*
X144535719Y-89977701D01*
X144678028Y-89998161D01*
X144678034Y-89998161D01*
X144820342Y-89977701D01*
X144951129Y-89917972D01*
X144997759Y-89880396D01*
X147160496Y-87717660D01*
X147215013Y-87689883D01*
X147275445Y-87699454D01*
X147318710Y-87742719D01*
X147329500Y-87787664D01*
X147329500Y-90854955D01*
X147310593Y-90913146D01*
X147261093Y-90949110D01*
X147252534Y-90951472D01*
X147249643Y-90952131D01*
X147079377Y-91011711D01*
X147079376Y-91011711D01*
X146926641Y-91107681D01*
X146799081Y-91235241D01*
X146703111Y-91387976D01*
X146703111Y-91387977D01*
X146643533Y-91558238D01*
X146643532Y-91558242D01*
X146623335Y-91737499D01*
X146643532Y-91916757D01*
X146643533Y-91916761D01*
X146668944Y-91989378D01*
X146674500Y-92022076D01*
X146674500Y-102557390D01*
X146674076Y-102563858D01*
X146669318Y-102599999D01*
X146669318Y-102600000D01*
X146683101Y-102704694D01*
X146689956Y-102756762D01*
X146750462Y-102902838D01*
X146750462Y-102902839D01*
X146846713Y-103028276D01*
X146846718Y-103028282D01*
X146846722Y-103028285D01*
X146846723Y-103028286D01*
X146875634Y-103050470D01*
X146880508Y-103054744D01*
X148700484Y-104874719D01*
X148728261Y-104929236D01*
X148728857Y-104933637D01*
X148739631Y-105029250D01*
X148739633Y-105029261D01*
X148799211Y-105199522D01*
X148801626Y-105204538D01*
X148800029Y-105205306D01*
X148813097Y-105257155D01*
X148790321Y-105313943D01*
X148738515Y-105346498D01*
X148714321Y-105349500D01*
X134714743Y-105349500D01*
X134656552Y-105330593D01*
X134644739Y-105320504D01*
X133399514Y-104075279D01*
X133371737Y-104020762D01*
X133371140Y-104016359D01*
X133370946Y-104014633D01*
X133360368Y-103920745D01*
X133353276Y-103900478D01*
X133330108Y-103834267D01*
X133300789Y-103750478D01*
X133299067Y-103747738D01*
X133204818Y-103597741D01*
X133204817Y-103597740D01*
X133204816Y-103597738D01*
X133077262Y-103470184D01*
X133077259Y-103470182D01*
X133077258Y-103470181D01*
X132924523Y-103374211D01*
X132754261Y-103314633D01*
X132754257Y-103314632D01*
X132575000Y-103294435D01*
X132395742Y-103314632D01*
X132395738Y-103314633D01*
X132225477Y-103374211D01*
X132225476Y-103374211D01*
X132072741Y-103470181D01*
X131945181Y-103597741D01*
X131849211Y-103750476D01*
X131849211Y-103750477D01*
X131789633Y-103920738D01*
X131789632Y-103920742D01*
X131769435Y-104100000D01*
X131789632Y-104279257D01*
X131789633Y-104279261D01*
X131848873Y-104448558D01*
X131850246Y-104509728D01*
X131839262Y-104533916D01*
X131836711Y-104537976D01*
X131777133Y-104708238D01*
X131777132Y-104708242D01*
X131756935Y-104887500D01*
X126102100Y-104887500D01*
X126102100Y-102469684D01*
X126121007Y-102411493D01*
X126170507Y-102375529D01*
X126231693Y-102375529D01*
X126281193Y-102411493D01*
X126291149Y-102428550D01*
X126315104Y-102481003D01*
X126315105Y-102481005D01*
X126315106Y-102481006D01*
X126437011Y-102652199D01*
X126437013Y-102652201D01*
X126437014Y-102652202D01*
X126589122Y-102797236D01*
X126765928Y-102910863D01*
X126961043Y-102988975D01*
X127167415Y-103028750D01*
X127167418Y-103028750D01*
X128524925Y-103028750D01*
X128681718Y-103013778D01*
X128883375Y-102954566D01*
X129070182Y-102858261D01*
X129235386Y-102728342D01*
X129293644Y-102661108D01*
X129346040Y-102629513D01*
X129407001Y-102634749D01*
X129453242Y-102674817D01*
X129455773Y-102679272D01*
X129520699Y-102800741D01*
X129611072Y-102910861D01*
X129648853Y-102956897D01*
X129648858Y-102956901D01*
X129805008Y-103085050D01*
X129983153Y-103180270D01*
X129983159Y-103180273D01*
X130117826Y-103221123D01*
X130176466Y-103238912D01*
X130176471Y-103238913D01*
X130327112Y-103253750D01*
X130327120Y-103253750D01*
X131477888Y-103253750D01*
X131628528Y-103238913D01*
X131628533Y-103238912D01*
X131628532Y-103238912D01*
X131821841Y-103180273D01*
X131902425Y-103137199D01*
X131999991Y-103085050D01*
X131999992Y-103085048D01*
X131999994Y-103085048D01*
X132156147Y-102956897D01*
X132284298Y-102800744D01*
X132286175Y-102797234D01*
X132349226Y-102679272D01*
X132379523Y-102622591D01*
X132438162Y-102429283D01*
X132438163Y-102429278D01*
X132457962Y-102228253D01*
X132457962Y-102228246D01*
X132438163Y-102027221D01*
X132438162Y-102027216D01*
X132404883Y-101917511D01*
X132379523Y-101833909D01*
X132379520Y-101833903D01*
X132284300Y-101655758D01*
X132156151Y-101499608D01*
X132156147Y-101499603D01*
X132156141Y-101499598D01*
X131999991Y-101371449D01*
X131821846Y-101276229D01*
X131821841Y-101276227D01*
X131628533Y-101217587D01*
X131628528Y-101217586D01*
X131477888Y-101202750D01*
X131477880Y-101202750D01*
X130327120Y-101202750D01*
X130327112Y-101202750D01*
X130176471Y-101217586D01*
X130176466Y-101217587D01*
X129983158Y-101276227D01*
X129983153Y-101276229D01*
X129805008Y-101371449D01*
X129648858Y-101499598D01*
X129648846Y-101499610D01*
X129645251Y-101503991D01*
X129593717Y-101536974D01*
X129532638Y-101533368D01*
X129485344Y-101494548D01*
X129478675Y-101482307D01*
X129450044Y-101419615D01*
X129429896Y-101375497D01*
X129429895Y-101375495D01*
X129307988Y-101204300D01*
X129266965Y-101165185D01*
X129155878Y-101059264D01*
X128979072Y-100945637D01*
X128979069Y-100945636D01*
X128979068Y-100945635D01*
X128913552Y-100919407D01*
X128783957Y-100867525D01*
X128577585Y-100827750D01*
X127220075Y-100827750D01*
X127063281Y-100842722D01*
X126861620Y-100901935D01*
X126674820Y-100998237D01*
X126674817Y-100998239D01*
X126509613Y-101128157D01*
X126371980Y-101286994D01*
X126286836Y-101434468D01*
X126241367Y-101475409D01*
X126180516Y-101481805D01*
X126127528Y-101451212D01*
X126102642Y-101395316D01*
X126102100Y-101384968D01*
X126102100Y-95782983D01*
X126800500Y-95782983D01*
X126840138Y-96045965D01*
X126840140Y-96045975D01*
X126918533Y-96300116D01*
X127009254Y-96488501D01*
X127033929Y-96539738D01*
X127183750Y-96759485D01*
X127183753Y-96759488D01*
X127183755Y-96759491D01*
X127364647Y-96954446D01*
X127364659Y-96954457D01*
X127572576Y-97120265D01*
X127572585Y-97120272D01*
X127572589Y-97120274D01*
X127572590Y-97120275D01*
X127802901Y-97253245D01*
X127802905Y-97253247D01*
X127802914Y-97253252D01*
X128050490Y-97350419D01*
X128309783Y-97409601D01*
X128376054Y-97414567D01*
X128508591Y-97424500D01*
X128508599Y-97424500D01*
X128641409Y-97424500D01*
X128763749Y-97415331D01*
X128840217Y-97409601D01*
X129099510Y-97350419D01*
X129347086Y-97253252D01*
X129577415Y-97120272D01*
X129785351Y-96954448D01*
X129966250Y-96759485D01*
X130116071Y-96539738D01*
X130231467Y-96300116D01*
X130309861Y-96045971D01*
X130349500Y-95782980D01*
X130349500Y-95517020D01*
X130309861Y-95254029D01*
X130231467Y-94999884D01*
X130116071Y-94760262D01*
X129966250Y-94540515D01*
X129955802Y-94529255D01*
X129785352Y-94345553D01*
X129785340Y-94345542D01*
X129577423Y-94179734D01*
X129577409Y-94179724D01*
X129347098Y-94046754D01*
X129347089Y-94046749D01*
X129347086Y-94046748D01*
X129347082Y-94046746D01*
X129347079Y-94046745D01*
X129099512Y-93949581D01*
X128881737Y-93899875D01*
X128840217Y-93890399D01*
X128840216Y-93890398D01*
X128840212Y-93890398D01*
X128641409Y-93875500D01*
X128641401Y-93875500D01*
X128508599Y-93875500D01*
X128508591Y-93875500D01*
X128309787Y-93890398D01*
X128309778Y-93890400D01*
X128050487Y-93949581D01*
X127802920Y-94046745D01*
X127802901Y-94046754D01*
X127572590Y-94179724D01*
X127572576Y-94179734D01*
X127364659Y-94345542D01*
X127364647Y-94345553D01*
X127183755Y-94540508D01*
X127183750Y-94540514D01*
X127183750Y-94540515D01*
X127033929Y-94760262D01*
X127033927Y-94760265D01*
X127033925Y-94760269D01*
X126918533Y-94999883D01*
X126840140Y-95254024D01*
X126840138Y-95254034D01*
X126800500Y-95517016D01*
X126800500Y-95782983D01*
X126102100Y-95782983D01*
X126102100Y-64580294D01*
X126102210Y-64579452D01*
X126102104Y-64541216D01*
X126102186Y-64538226D01*
X126118843Y-64249638D01*
X126119548Y-64243697D01*
X126170602Y-63960700D01*
X126172015Y-63954900D01*
X126178829Y-63932819D01*
X126256810Y-63680115D01*
X126258908Y-63674537D01*
X126376212Y-63411966D01*
X126378970Y-63406676D01*
X126527073Y-63160150D01*
X126530430Y-63155258D01*
X126707162Y-62928393D01*
X126711116Y-62923905D01*
X126913909Y-62719992D01*
X126918346Y-62716039D01*
X127144241Y-62538056D01*
X127149149Y-62534650D01*
X127394842Y-62385198D01*
X127400104Y-62382418D01*
X127636018Y-62275462D01*
X127662015Y-62263676D01*
X127667603Y-62261539D01*
X127746908Y-62236586D01*
X127941914Y-62175231D01*
X127947698Y-62173788D01*
X128230412Y-62121177D01*
X128236350Y-62120439D01*
X128524817Y-62102195D01*
X128527867Y-62102097D01*
X129532358Y-62101344D01*
X129590562Y-62120208D01*
X129626563Y-62169681D01*
X129626609Y-62230866D01*
X129592699Y-62278886D01*
X129471719Y-62371717D01*
X129471717Y-62371719D01*
X129449525Y-62400638D01*
X129445253Y-62405510D01*
X126530510Y-65320253D01*
X126525638Y-65324525D01*
X126496719Y-65346717D01*
X126496712Y-65346724D01*
X126472550Y-65378214D01*
X126400464Y-65472157D01*
X126400462Y-65472161D01*
X126339957Y-65618233D01*
X126339955Y-65618241D01*
X126319318Y-65774999D01*
X126319318Y-65775000D01*
X126324076Y-65811140D01*
X126324500Y-65817608D01*
X126324500Y-89982390D01*
X126324076Y-89988858D01*
X126319318Y-90024999D01*
X126319318Y-90025000D01*
X126335668Y-90149190D01*
X126339955Y-90181759D01*
X126339957Y-90181766D01*
X126400462Y-90327838D01*
X126400462Y-90327839D01*
X126495882Y-90452193D01*
X126496718Y-90453282D01*
X126496722Y-90453285D01*
X126496723Y-90453286D01*
X126525634Y-90475470D01*
X126530508Y-90479744D01*
X131161957Y-95111192D01*
X131171053Y-95123047D01*
X131171514Y-95122694D01*
X131270240Y-95251356D01*
X131271718Y-95253282D01*
X131271722Y-95253285D01*
X131271723Y-95253286D01*
X131300634Y-95275470D01*
X131305508Y-95279744D01*
X132857232Y-96831467D01*
X132885009Y-96885984D01*
X132875438Y-96946416D01*
X132857232Y-96971474D01*
X131032021Y-98796688D01*
X130994404Y-98843367D01*
X130994400Y-98843374D01*
X130934614Y-98974285D01*
X130914133Y-99116740D01*
X130914133Y-99116745D01*
X130934614Y-99259199D01*
X130934614Y-99259201D01*
X130994399Y-99390111D01*
X130994403Y-99390116D01*
X131032021Y-99436798D01*
X132938202Y-101342977D01*
X132984884Y-101380597D01*
X132984885Y-101380597D01*
X132984886Y-101380598D01*
X132984891Y-101380601D01*
X133115799Y-101440385D01*
X133258254Y-101460867D01*
X133258257Y-101460867D01*
X133258259Y-101460867D01*
X133353229Y-101447212D01*
X133400715Y-101440385D01*
X133495625Y-101397040D01*
X133531626Y-101380599D01*
X133531626Y-101380598D01*
X133531630Y-101380597D01*
X133578313Y-101342979D01*
X136474441Y-98446849D01*
X136512061Y-98400166D01*
X136571849Y-98269251D01*
X136592331Y-98126793D01*
X136588803Y-98102258D01*
X136571849Y-97984336D01*
X136571849Y-97984334D01*
X136512064Y-97853424D01*
X136512060Y-97853419D01*
X136507482Y-97847738D01*
X136474443Y-97806738D01*
X134568262Y-95900559D01*
X134521580Y-95862939D01*
X134521578Y-95862938D01*
X134521577Y-95862937D01*
X134521572Y-95862934D01*
X134390664Y-95803150D01*
X134248210Y-95782669D01*
X134248205Y-95782669D01*
X134105749Y-95803150D01*
X133974837Y-95862936D01*
X133974833Y-95862939D01*
X133928154Y-95900553D01*
X133846474Y-95982232D01*
X133791957Y-96010009D01*
X133731525Y-96000437D01*
X133706467Y-95982232D01*
X133278601Y-95554366D01*
X135867203Y-95554366D01*
X135898016Y-95755494D01*
X135898017Y-95755498D01*
X135968687Y-95946314D01*
X135987174Y-95975974D01*
X136076318Y-96118994D01*
X136076320Y-96118996D01*
X136076321Y-96118998D01*
X136216514Y-96266480D01*
X136216516Y-96266481D01*
X136216519Y-96266484D01*
X136367902Y-96371849D01*
X136383524Y-96382722D01*
X136570513Y-96462966D01*
X136570515Y-96462967D01*
X136769832Y-96503927D01*
X136769835Y-96503927D01*
X136922317Y-96503927D01*
X136947954Y-96501319D01*
X137074011Y-96488501D01*
X137268161Y-96427586D01*
X137446075Y-96328836D01*
X137600468Y-96196293D01*
X137725021Y-96035385D01*
X137814633Y-95852698D01*
X137865636Y-95655712D01*
X137875942Y-95452491D01*
X137845129Y-95251356D01*
X137774459Y-95060540D01*
X137666825Y-94887856D01*
X137526632Y-94740374D01*
X137526630Y-94740372D01*
X137526626Y-94740369D01*
X137359627Y-94624135D01*
X137359624Y-94624133D01*
X137359622Y-94624132D01*
X137172631Y-94543887D01*
X137172633Y-94543887D01*
X137092904Y-94527503D01*
X136973314Y-94502927D01*
X136820831Y-94502927D01*
X136820829Y-94502927D01*
X136669134Y-94518353D01*
X136474983Y-94579268D01*
X136474982Y-94579269D01*
X136297074Y-94678015D01*
X136297071Y-94678017D01*
X136142682Y-94810556D01*
X136018122Y-94971472D01*
X135941421Y-95127841D01*
X135928513Y-95154156D01*
X135890752Y-95300000D01*
X135877509Y-95351146D01*
X135867204Y-95554363D01*
X135867203Y-95554366D01*
X133278601Y-95554366D01*
X132238042Y-94513807D01*
X132228948Y-94501953D01*
X132228487Y-94502308D01*
X132183138Y-94443208D01*
X132128286Y-94371723D01*
X132128285Y-94371722D01*
X132128282Y-94371718D01*
X132128277Y-94371714D01*
X132128276Y-94371713D01*
X132099365Y-94349529D01*
X132094491Y-94345255D01*
X128000300Y-90251065D01*
X141170504Y-90251065D01*
X141201317Y-90452193D01*
X141201318Y-90452197D01*
X141271988Y-90643013D01*
X141271989Y-90643014D01*
X141379619Y-90815693D01*
X141379624Y-90815699D01*
X141508686Y-90951472D01*
X141519815Y-90963179D01*
X141519817Y-90963180D01*
X141519820Y-90963183D01*
X141609407Y-91025537D01*
X141686825Y-91079421D01*
X141873814Y-91159665D01*
X141873816Y-91159666D01*
X142073133Y-91200626D01*
X142073136Y-91200626D01*
X142225618Y-91200626D01*
X142251255Y-91198018D01*
X142377312Y-91185200D01*
X142571462Y-91124285D01*
X142749376Y-91025535D01*
X142903769Y-90892992D01*
X143028322Y-90732084D01*
X143117934Y-90549397D01*
X143168937Y-90352411D01*
X143179243Y-90149190D01*
X143148430Y-89948055D01*
X143077760Y-89757239D01*
X142970126Y-89584555D01*
X142896646Y-89507255D01*
X142829937Y-89437077D01*
X142829927Y-89437068D01*
X142662928Y-89320834D01*
X142662925Y-89320832D01*
X142662923Y-89320831D01*
X142475932Y-89240586D01*
X142475934Y-89240586D01*
X142396205Y-89224202D01*
X142276615Y-89199626D01*
X142124132Y-89199626D01*
X142124130Y-89199626D01*
X141972435Y-89215052D01*
X141778284Y-89275967D01*
X141778283Y-89275968D01*
X141600375Y-89374714D01*
X141600372Y-89374716D01*
X141445983Y-89507255D01*
X141321423Y-89668171D01*
X141252006Y-89809691D01*
X141231814Y-89850855D01*
X141196083Y-89988858D01*
X141180810Y-90047845D01*
X141170505Y-90251062D01*
X141170504Y-90251065D01*
X128000300Y-90251065D01*
X127554496Y-89805261D01*
X127526719Y-89750744D01*
X127525500Y-89735257D01*
X127525500Y-66064742D01*
X127544407Y-66006551D01*
X127554490Y-65994744D01*
X130119739Y-63429496D01*
X130174256Y-63401719D01*
X130189743Y-63400500D01*
X155600500Y-63400500D01*
X155658691Y-63419407D01*
X155694655Y-63468907D01*
X155699500Y-63499500D01*
X155699500Y-67827414D01*
X155680593Y-67885605D01*
X155670512Y-67897409D01*
X155670189Y-67897731D01*
X155670181Y-67897741D01*
X155574211Y-68050476D01*
X155574211Y-68050477D01*
X155514633Y-68220738D01*
X155514632Y-68220742D01*
X155494435Y-68400000D01*
X155514632Y-68579257D01*
X155514633Y-68579261D01*
X155574211Y-68749522D01*
X155574211Y-68749523D01*
X155656080Y-68879816D01*
X155670184Y-68902262D01*
X155797738Y-69029816D01*
X155797740Y-69029817D01*
X155797741Y-69029818D01*
X155838715Y-69055564D01*
X155950478Y-69125789D01*
X156018657Y-69149646D01*
X156120738Y-69185366D01*
X156120742Y-69185367D01*
X156120745Y-69185368D01*
X156300000Y-69205565D01*
X156479255Y-69185368D01*
X156649522Y-69125789D01*
X156802262Y-69029816D01*
X156929816Y-68902262D01*
X157025789Y-68749522D01*
X157085368Y-68579255D01*
X157105565Y-68400000D01*
X157085368Y-68220745D01*
X157025789Y-68050478D01*
X156931536Y-67900476D01*
X156929818Y-67897741D01*
X156929810Y-67897731D01*
X156929488Y-67897409D01*
X156929372Y-67897182D01*
X156926352Y-67893395D01*
X156927128Y-67892776D01*
X156901717Y-67842890D01*
X156900500Y-67827414D01*
X156900500Y-62842608D01*
X156900924Y-62836140D01*
X156905682Y-62800000D01*
X156905682Y-62799999D01*
X156900522Y-62760809D01*
X156885044Y-62643238D01*
X156875102Y-62619236D01*
X156824537Y-62497161D01*
X156824537Y-62497160D01*
X156728286Y-62371723D01*
X156728285Y-62371722D01*
X156728282Y-62371718D01*
X156728277Y-62371714D01*
X156728276Y-62371713D01*
X156653496Y-62314333D01*
X156602841Y-62275464D01*
X156602840Y-62275463D01*
X156602838Y-62275462D01*
X156593236Y-62271485D01*
X156546710Y-62231749D01*
X156532426Y-62172254D01*
X156555840Y-62115726D01*
X156608009Y-62083757D01*
X156631045Y-62081021D01*
X181858573Y-62062101D01*
X181861436Y-62062181D01*
G37*
%TD.AperFunction*%
%TD*%
M02*
