%TF.GenerationSoftware,KiCad,Pcbnew,7.0.5*%
%TF.CreationDate,2024-02-09T08:38:41-06:00*%
%TF.ProjectId,peakick,7065616b-6963-46b2-9e6b-696361645f70,rev?*%
%TF.SameCoordinates,Original*%
%TF.FileFunction,Paste,Top*%
%TF.FilePolarity,Positive*%
%FSLAX46Y46*%
G04 Gerber Fmt 4.6, Leading zero omitted, Abs format (unit mm)*
G04 Created by KiCad (PCBNEW 7.0.5) date 2024-02-09 08:38:41*
%MOMM*%
%LPD*%
G01*
G04 APERTURE LIST*
G04 Aperture macros list*
%AMRoundRect*
0 Rectangle with rounded corners*
0 $1 Rounding radius*
0 $2 $3 $4 $5 $6 $7 $8 $9 X,Y pos of 4 corners*
0 Add a 4 corners polygon primitive as box body*
4,1,4,$2,$3,$4,$5,$6,$7,$8,$9,$2,$3,0*
0 Add four circle primitives for the rounded corners*
1,1,$1+$1,$2,$3*
1,1,$1+$1,$4,$5*
1,1,$1+$1,$6,$7*
1,1,$1+$1,$8,$9*
0 Add four rect primitives between the rounded corners*
20,1,$1+$1,$2,$3,$4,$5,0*
20,1,$1+$1,$4,$5,$6,$7,0*
20,1,$1+$1,$6,$7,$8,$9,0*
20,1,$1+$1,$8,$9,$2,$3,0*%
G04 Aperture macros list end*
%ADD10C,0.010000*%
%ADD11R,1.400000X0.320000*%
%ADD12R,2.000000X1.140000*%
%ADD13RoundRect,0.135000X0.225000X0.245000X-0.225000X0.245000X-0.225000X-0.245000X0.225000X-0.245000X0*%
%ADD14R,0.800000X0.880000*%
%ADD15R,0.880000X0.800000*%
%ADD16RoundRect,0.120000X-0.200000X-0.260000X0.200000X-0.260000X0.200000X0.260000X-0.200000X0.260000X0*%
%ADD17R,0.440000X0.960000*%
%ADD18R,0.720000X0.680000*%
%ADD19R,1.080000X0.480000*%
%ADD20R,1.600000X0.960000*%
%ADD21R,0.664000X0.504000*%
%ADD22RoundRect,0.150000X-0.250000X-0.430000X0.250000X-0.430000X0.250000X0.430000X-0.250000X0.430000X0*%
%ADD23RoundRect,0.025830X0.237670X0.117670X-0.237670X0.117670X-0.237670X-0.117670X0.237670X-0.117670X0*%
%ADD24RoundRect,0.025830X-0.117670X0.237670X-0.117670X-0.237670X0.117670X-0.237670X0.117670X0.237670X0*%
%ADD25R,0.680000X0.720000*%
%ADD26R,1.440000X0.800000*%
%ADD27RoundRect,0.135000X-0.245000X0.225000X-0.245000X-0.225000X0.245000X-0.225000X0.245000X0.225000X0*%
%ADD28R,0.640000X0.960000*%
%ADD29RoundRect,0.050000X0.350000X0.350000X-0.350000X0.350000X-0.350000X-0.350000X0.350000X-0.350000X0*%
%ADD30R,0.800000X0.176000*%
%ADD31R,0.176000X0.800000*%
%ADD32RoundRect,0.135000X0.245000X-0.225000X0.245000X0.225000X-0.245000X0.225000X-0.245000X-0.225000X0*%
%ADD33RoundRect,0.131250X0.218750X0.248750X-0.218750X0.248750X-0.218750X-0.248750X0.218750X-0.248750X0*%
%ADD34R,0.203200X0.223520*%
%ADD35R,0.223520X0.203200*%
%ADD36R,0.720000X0.800000*%
%ADD37R,0.640000X0.720000*%
%ADD38R,0.243840X0.365760*%
%ADD39R,0.365760X0.243840*%
G04 APERTURE END LIST*
%TO.C,U2*%
D10*
X160845000Y-69610000D02*
X160265000Y-69610000D01*
X160265000Y-68890000D01*
X160845000Y-68890000D01*
X160845000Y-69610000D01*
G36*
X160845000Y-69610000D02*
G01*
X160265000Y-69610000D01*
X160265000Y-68890000D01*
X160845000Y-68890000D01*
X160845000Y-69610000D01*
G37*
X159995000Y-69610000D02*
X159415000Y-69610000D01*
X159415000Y-68890000D01*
X159995000Y-68890000D01*
X159995000Y-69610000D01*
G36*
X159995000Y-69610000D02*
G01*
X159415000Y-69610000D01*
X159415000Y-68890000D01*
X159995000Y-68890000D01*
X159995000Y-69610000D01*
G37*
X158945000Y-69610000D02*
X158365000Y-69610000D01*
X158365000Y-68890000D01*
X158945000Y-68890000D01*
X158945000Y-69610000D01*
G36*
X158945000Y-69610000D02*
G01*
X158365000Y-69610000D01*
X158365000Y-68890000D01*
X158945000Y-68890000D01*
X158945000Y-69610000D01*
G37*
X158095000Y-69610000D02*
X157515000Y-69610000D01*
X157515000Y-68890000D01*
X158095000Y-68890000D01*
X158095000Y-69610000D01*
G36*
X158095000Y-69610000D02*
G01*
X157515000Y-69610000D01*
X157515000Y-68890000D01*
X158095000Y-68890000D01*
X158095000Y-69610000D01*
G37*
X157045000Y-69610000D02*
X156465000Y-69610000D01*
X156465000Y-68890000D01*
X157045000Y-68890000D01*
X157045000Y-69610000D01*
G36*
X157045000Y-69610000D02*
G01*
X156465000Y-69610000D01*
X156465000Y-68890000D01*
X157045000Y-68890000D01*
X157045000Y-69610000D01*
G37*
X156195000Y-69610000D02*
X155615000Y-69610000D01*
X155615000Y-68890000D01*
X156195000Y-68890000D01*
X156195000Y-69610000D01*
G36*
X156195000Y-69610000D02*
G01*
X155615000Y-69610000D01*
X155615000Y-68890000D01*
X156195000Y-68890000D01*
X156195000Y-69610000D01*
G37*
X155145000Y-69610000D02*
X154565000Y-69610000D01*
X154565000Y-68890000D01*
X155145000Y-68890000D01*
X155145000Y-69610000D01*
G36*
X155145000Y-69610000D02*
G01*
X154565000Y-69610000D01*
X154565000Y-68890000D01*
X155145000Y-68890000D01*
X155145000Y-69610000D01*
G37*
X154295000Y-69610000D02*
X153715000Y-69610000D01*
X153715000Y-68890000D01*
X154295000Y-68890000D01*
X154295000Y-69610000D01*
G36*
X154295000Y-69610000D02*
G01*
X153715000Y-69610000D01*
X153715000Y-68890000D01*
X154295000Y-68890000D01*
X154295000Y-69610000D01*
G37*
X153245000Y-69610000D02*
X152665000Y-69610000D01*
X152665000Y-68890000D01*
X153245000Y-68890000D01*
X153245000Y-69610000D01*
G36*
X153245000Y-69610000D02*
G01*
X152665000Y-69610000D01*
X152665000Y-68890000D01*
X153245000Y-68890000D01*
X153245000Y-69610000D01*
G37*
X152395000Y-69610000D02*
X151815000Y-69610000D01*
X151815000Y-68890000D01*
X152395000Y-68890000D01*
X152395000Y-69610000D01*
G36*
X152395000Y-69610000D02*
G01*
X151815000Y-69610000D01*
X151815000Y-68890000D01*
X152395000Y-68890000D01*
X152395000Y-69610000D01*
G37*
X160845000Y-70610000D02*
X160265000Y-70610000D01*
X160265000Y-69890000D01*
X160845000Y-69890000D01*
X160845000Y-70610000D01*
G36*
X160845000Y-70610000D02*
G01*
X160265000Y-70610000D01*
X160265000Y-69890000D01*
X160845000Y-69890000D01*
X160845000Y-70610000D01*
G37*
X159995000Y-70610000D02*
X159415000Y-70610000D01*
X159415000Y-69890000D01*
X159995000Y-69890000D01*
X159995000Y-70610000D01*
G36*
X159995000Y-70610000D02*
G01*
X159415000Y-70610000D01*
X159415000Y-69890000D01*
X159995000Y-69890000D01*
X159995000Y-70610000D01*
G37*
X158945000Y-70610000D02*
X158365000Y-70610000D01*
X158365000Y-69890000D01*
X158945000Y-69890000D01*
X158945000Y-70610000D01*
G36*
X158945000Y-70610000D02*
G01*
X158365000Y-70610000D01*
X158365000Y-69890000D01*
X158945000Y-69890000D01*
X158945000Y-70610000D01*
G37*
X158095000Y-70610000D02*
X157515000Y-70610000D01*
X157515000Y-69890000D01*
X158095000Y-69890000D01*
X158095000Y-70610000D01*
G36*
X158095000Y-70610000D02*
G01*
X157515000Y-70610000D01*
X157515000Y-69890000D01*
X158095000Y-69890000D01*
X158095000Y-70610000D01*
G37*
X157045000Y-70610000D02*
X156465000Y-70610000D01*
X156465000Y-69890000D01*
X157045000Y-69890000D01*
X157045000Y-70610000D01*
G36*
X157045000Y-70610000D02*
G01*
X156465000Y-70610000D01*
X156465000Y-69890000D01*
X157045000Y-69890000D01*
X157045000Y-70610000D01*
G37*
X156195000Y-70610000D02*
X155615000Y-70610000D01*
X155615000Y-69890000D01*
X156195000Y-69890000D01*
X156195000Y-70610000D01*
G36*
X156195000Y-70610000D02*
G01*
X155615000Y-70610000D01*
X155615000Y-69890000D01*
X156195000Y-69890000D01*
X156195000Y-70610000D01*
G37*
X155145000Y-70610000D02*
X154565000Y-70610000D01*
X154565000Y-69890000D01*
X155145000Y-69890000D01*
X155145000Y-70610000D01*
G36*
X155145000Y-70610000D02*
G01*
X154565000Y-70610000D01*
X154565000Y-69890000D01*
X155145000Y-69890000D01*
X155145000Y-70610000D01*
G37*
X154295000Y-70610000D02*
X153715000Y-70610000D01*
X153715000Y-69890000D01*
X154295000Y-69890000D01*
X154295000Y-70610000D01*
G36*
X154295000Y-70610000D02*
G01*
X153715000Y-70610000D01*
X153715000Y-69890000D01*
X154295000Y-69890000D01*
X154295000Y-70610000D01*
G37*
X153245000Y-70610000D02*
X152665000Y-70610000D01*
X152665000Y-69890000D01*
X153245000Y-69890000D01*
X153245000Y-70610000D01*
G36*
X153245000Y-70610000D02*
G01*
X152665000Y-70610000D01*
X152665000Y-69890000D01*
X153245000Y-69890000D01*
X153245000Y-70610000D01*
G37*
X152395000Y-70610000D02*
X151815000Y-70610000D01*
X151815000Y-69890000D01*
X152395000Y-69890000D01*
X152395000Y-70610000D01*
G36*
X152395000Y-70610000D02*
G01*
X151815000Y-70610000D01*
X151815000Y-69890000D01*
X152395000Y-69890000D01*
X152395000Y-70610000D01*
G37*
X163790000Y-72415000D02*
X163070000Y-72415000D01*
X163070000Y-71835000D01*
X163790000Y-71835000D01*
X163790000Y-72415000D01*
G36*
X163790000Y-72415000D02*
G01*
X163070000Y-72415000D01*
X163070000Y-71835000D01*
X163790000Y-71835000D01*
X163790000Y-72415000D01*
G37*
X162790000Y-72415000D02*
X162070000Y-72415000D01*
X162070000Y-71835000D01*
X162790000Y-71835000D01*
X162790000Y-72415000D01*
G36*
X162790000Y-72415000D02*
G01*
X162070000Y-72415000D01*
X162070000Y-71835000D01*
X162790000Y-71835000D01*
X162790000Y-72415000D01*
G37*
X150590000Y-72415000D02*
X149870000Y-72415000D01*
X149870000Y-71835000D01*
X150590000Y-71835000D01*
X150590000Y-72415000D01*
G36*
X150590000Y-72415000D02*
G01*
X149870000Y-72415000D01*
X149870000Y-71835000D01*
X150590000Y-71835000D01*
X150590000Y-72415000D01*
G37*
X149590000Y-72415000D02*
X148870000Y-72415000D01*
X148870000Y-71835000D01*
X149590000Y-71835000D01*
X149590000Y-72415000D01*
G36*
X149590000Y-72415000D02*
G01*
X148870000Y-72415000D01*
X148870000Y-71835000D01*
X149590000Y-71835000D01*
X149590000Y-72415000D01*
G37*
X163790000Y-73265000D02*
X163070000Y-73265000D01*
X163070000Y-72685000D01*
X163790000Y-72685000D01*
X163790000Y-73265000D01*
G36*
X163790000Y-73265000D02*
G01*
X163070000Y-73265000D01*
X163070000Y-72685000D01*
X163790000Y-72685000D01*
X163790000Y-73265000D01*
G37*
X162790000Y-73265000D02*
X162070000Y-73265000D01*
X162070000Y-72685000D01*
X162790000Y-72685000D01*
X162790000Y-73265000D01*
G36*
X162790000Y-73265000D02*
G01*
X162070000Y-73265000D01*
X162070000Y-72685000D01*
X162790000Y-72685000D01*
X162790000Y-73265000D01*
G37*
X150590000Y-73265000D02*
X149870000Y-73265000D01*
X149870000Y-72685000D01*
X150590000Y-72685000D01*
X150590000Y-73265000D01*
G36*
X150590000Y-73265000D02*
G01*
X149870000Y-73265000D01*
X149870000Y-72685000D01*
X150590000Y-72685000D01*
X150590000Y-73265000D01*
G37*
X149590000Y-73265000D02*
X148870000Y-73265000D01*
X148870000Y-72685000D01*
X149590000Y-72685000D01*
X149590000Y-73265000D01*
G36*
X149590000Y-73265000D02*
G01*
X148870000Y-73265000D01*
X148870000Y-72685000D01*
X149590000Y-72685000D01*
X149590000Y-73265000D01*
G37*
X163790000Y-74315000D02*
X163070000Y-74315000D01*
X163070000Y-73735000D01*
X163790000Y-73735000D01*
X163790000Y-74315000D01*
G36*
X163790000Y-74315000D02*
G01*
X163070000Y-74315000D01*
X163070000Y-73735000D01*
X163790000Y-73735000D01*
X163790000Y-74315000D01*
G37*
X162790000Y-74315000D02*
X162070000Y-74315000D01*
X162070000Y-73735000D01*
X162790000Y-73735000D01*
X162790000Y-74315000D01*
G36*
X162790000Y-74315000D02*
G01*
X162070000Y-74315000D01*
X162070000Y-73735000D01*
X162790000Y-73735000D01*
X162790000Y-74315000D01*
G37*
X150590000Y-74315000D02*
X149870000Y-74315000D01*
X149870000Y-73735000D01*
X150590000Y-73735000D01*
X150590000Y-74315000D01*
G36*
X150590000Y-74315000D02*
G01*
X149870000Y-74315000D01*
X149870000Y-73735000D01*
X150590000Y-73735000D01*
X150590000Y-74315000D01*
G37*
X149590000Y-74315000D02*
X148870000Y-74315000D01*
X148870000Y-73735000D01*
X149590000Y-73735000D01*
X149590000Y-74315000D01*
G36*
X149590000Y-74315000D02*
G01*
X148870000Y-74315000D01*
X148870000Y-73735000D01*
X149590000Y-73735000D01*
X149590000Y-74315000D01*
G37*
X163790000Y-75165000D02*
X163070000Y-75165000D01*
X163070000Y-74585000D01*
X163790000Y-74585000D01*
X163790000Y-75165000D01*
G36*
X163790000Y-75165000D02*
G01*
X163070000Y-75165000D01*
X163070000Y-74585000D01*
X163790000Y-74585000D01*
X163790000Y-75165000D01*
G37*
X162790000Y-75165000D02*
X162070000Y-75165000D01*
X162070000Y-74585000D01*
X162790000Y-74585000D01*
X162790000Y-75165000D01*
G36*
X162790000Y-75165000D02*
G01*
X162070000Y-75165000D01*
X162070000Y-74585000D01*
X162790000Y-74585000D01*
X162790000Y-75165000D01*
G37*
X150590000Y-75165000D02*
X149870000Y-75165000D01*
X149870000Y-74585000D01*
X150590000Y-74585000D01*
X150590000Y-75165000D01*
G36*
X150590000Y-75165000D02*
G01*
X149870000Y-75165000D01*
X149870000Y-74585000D01*
X150590000Y-74585000D01*
X150590000Y-75165000D01*
G37*
X149590000Y-75165000D02*
X148870000Y-75165000D01*
X148870000Y-74585000D01*
X149590000Y-74585000D01*
X149590000Y-75165000D01*
G36*
X149590000Y-75165000D02*
G01*
X148870000Y-75165000D01*
X148870000Y-74585000D01*
X149590000Y-74585000D01*
X149590000Y-75165000D01*
G37*
X163790000Y-76215000D02*
X163070000Y-76215000D01*
X163070000Y-75635000D01*
X163790000Y-75635000D01*
X163790000Y-76215000D01*
G36*
X163790000Y-76215000D02*
G01*
X163070000Y-76215000D01*
X163070000Y-75635000D01*
X163790000Y-75635000D01*
X163790000Y-76215000D01*
G37*
X162790000Y-76215000D02*
X162070000Y-76215000D01*
X162070000Y-75635000D01*
X162790000Y-75635000D01*
X162790000Y-76215000D01*
G36*
X162790000Y-76215000D02*
G01*
X162070000Y-76215000D01*
X162070000Y-75635000D01*
X162790000Y-75635000D01*
X162790000Y-76215000D01*
G37*
X150590000Y-76215000D02*
X149870000Y-76215000D01*
X149870000Y-75635000D01*
X150590000Y-75635000D01*
X150590000Y-76215000D01*
G36*
X150590000Y-76215000D02*
G01*
X149870000Y-76215000D01*
X149870000Y-75635000D01*
X150590000Y-75635000D01*
X150590000Y-76215000D01*
G37*
X149590000Y-76215000D02*
X148870000Y-76215000D01*
X148870000Y-75635000D01*
X149590000Y-75635000D01*
X149590000Y-76215000D01*
G36*
X149590000Y-76215000D02*
G01*
X148870000Y-76215000D01*
X148870000Y-75635000D01*
X149590000Y-75635000D01*
X149590000Y-76215000D01*
G37*
X163790000Y-77065000D02*
X163070000Y-77065000D01*
X163070000Y-76485000D01*
X163790000Y-76485000D01*
X163790000Y-77065000D01*
G36*
X163790000Y-77065000D02*
G01*
X163070000Y-77065000D01*
X163070000Y-76485000D01*
X163790000Y-76485000D01*
X163790000Y-77065000D01*
G37*
X162790000Y-77065000D02*
X162070000Y-77065000D01*
X162070000Y-76485000D01*
X162790000Y-76485000D01*
X162790000Y-77065000D01*
G36*
X162790000Y-77065000D02*
G01*
X162070000Y-77065000D01*
X162070000Y-76485000D01*
X162790000Y-76485000D01*
X162790000Y-77065000D01*
G37*
X150590000Y-77065000D02*
X149870000Y-77065000D01*
X149870000Y-76485000D01*
X150590000Y-76485000D01*
X150590000Y-77065000D01*
G36*
X150590000Y-77065000D02*
G01*
X149870000Y-77065000D01*
X149870000Y-76485000D01*
X150590000Y-76485000D01*
X150590000Y-77065000D01*
G37*
X149590000Y-77065000D02*
X148870000Y-77065000D01*
X148870000Y-76485000D01*
X149590000Y-76485000D01*
X149590000Y-77065000D01*
G36*
X149590000Y-77065000D02*
G01*
X148870000Y-77065000D01*
X148870000Y-76485000D01*
X149590000Y-76485000D01*
X149590000Y-77065000D01*
G37*
X163790000Y-78115000D02*
X163070000Y-78115000D01*
X163070000Y-77535000D01*
X163790000Y-77535000D01*
X163790000Y-78115000D01*
G36*
X163790000Y-78115000D02*
G01*
X163070000Y-78115000D01*
X163070000Y-77535000D01*
X163790000Y-77535000D01*
X163790000Y-78115000D01*
G37*
X162790000Y-78115000D02*
X162070000Y-78115000D01*
X162070000Y-77535000D01*
X162790000Y-77535000D01*
X162790000Y-78115000D01*
G36*
X162790000Y-78115000D02*
G01*
X162070000Y-78115000D01*
X162070000Y-77535000D01*
X162790000Y-77535000D01*
X162790000Y-78115000D01*
G37*
X150590000Y-78115000D02*
X149870000Y-78115000D01*
X149870000Y-77535000D01*
X150590000Y-77535000D01*
X150590000Y-78115000D01*
G36*
X150590000Y-78115000D02*
G01*
X149870000Y-78115000D01*
X149870000Y-77535000D01*
X150590000Y-77535000D01*
X150590000Y-78115000D01*
G37*
X149590000Y-78115000D02*
X148870000Y-78115000D01*
X148870000Y-77535000D01*
X149590000Y-77535000D01*
X149590000Y-78115000D01*
G36*
X149590000Y-78115000D02*
G01*
X148870000Y-78115000D01*
X148870000Y-77535000D01*
X149590000Y-77535000D01*
X149590000Y-78115000D01*
G37*
X163790000Y-78965000D02*
X163070000Y-78965000D01*
X163070000Y-78385000D01*
X163790000Y-78385000D01*
X163790000Y-78965000D01*
G36*
X163790000Y-78965000D02*
G01*
X163070000Y-78965000D01*
X163070000Y-78385000D01*
X163790000Y-78385000D01*
X163790000Y-78965000D01*
G37*
X162790000Y-78965000D02*
X162070000Y-78965000D01*
X162070000Y-78385000D01*
X162790000Y-78385000D01*
X162790000Y-78965000D01*
G36*
X162790000Y-78965000D02*
G01*
X162070000Y-78965000D01*
X162070000Y-78385000D01*
X162790000Y-78385000D01*
X162790000Y-78965000D01*
G37*
X150590000Y-78965000D02*
X149870000Y-78965000D01*
X149870000Y-78385000D01*
X150590000Y-78385000D01*
X150590000Y-78965000D01*
G36*
X150590000Y-78965000D02*
G01*
X149870000Y-78965000D01*
X149870000Y-78385000D01*
X150590000Y-78385000D01*
X150590000Y-78965000D01*
G37*
X149590000Y-78965000D02*
X148870000Y-78965000D01*
X148870000Y-78385000D01*
X149590000Y-78385000D01*
X149590000Y-78965000D01*
G36*
X149590000Y-78965000D02*
G01*
X148870000Y-78965000D01*
X148870000Y-78385000D01*
X149590000Y-78385000D01*
X149590000Y-78965000D01*
G37*
X163790000Y-80015000D02*
X163070000Y-80015000D01*
X163070000Y-79435000D01*
X163790000Y-79435000D01*
X163790000Y-80015000D01*
G36*
X163790000Y-80015000D02*
G01*
X163070000Y-80015000D01*
X163070000Y-79435000D01*
X163790000Y-79435000D01*
X163790000Y-80015000D01*
G37*
X162790000Y-80015000D02*
X162070000Y-80015000D01*
X162070000Y-79435000D01*
X162790000Y-79435000D01*
X162790000Y-80015000D01*
G36*
X162790000Y-80015000D02*
G01*
X162070000Y-80015000D01*
X162070000Y-79435000D01*
X162790000Y-79435000D01*
X162790000Y-80015000D01*
G37*
X150590000Y-80015000D02*
X149870000Y-80015000D01*
X149870000Y-79435000D01*
X150590000Y-79435000D01*
X150590000Y-80015000D01*
G36*
X150590000Y-80015000D02*
G01*
X149870000Y-80015000D01*
X149870000Y-79435000D01*
X150590000Y-79435000D01*
X150590000Y-80015000D01*
G37*
X149590000Y-80015000D02*
X148870000Y-80015000D01*
X148870000Y-79435000D01*
X149590000Y-79435000D01*
X149590000Y-80015000D01*
G36*
X149590000Y-80015000D02*
G01*
X148870000Y-80015000D01*
X148870000Y-79435000D01*
X149590000Y-79435000D01*
X149590000Y-80015000D01*
G37*
X163790000Y-80865000D02*
X163070000Y-80865000D01*
X163070000Y-80285000D01*
X163790000Y-80285000D01*
X163790000Y-80865000D01*
G36*
X163790000Y-80865000D02*
G01*
X163070000Y-80865000D01*
X163070000Y-80285000D01*
X163790000Y-80285000D01*
X163790000Y-80865000D01*
G37*
X162790000Y-80865000D02*
X162070000Y-80865000D01*
X162070000Y-80285000D01*
X162790000Y-80285000D01*
X162790000Y-80865000D01*
G36*
X162790000Y-80865000D02*
G01*
X162070000Y-80865000D01*
X162070000Y-80285000D01*
X162790000Y-80285000D01*
X162790000Y-80865000D01*
G37*
X150590000Y-80865000D02*
X149870000Y-80865000D01*
X149870000Y-80285000D01*
X150590000Y-80285000D01*
X150590000Y-80865000D01*
G36*
X150590000Y-80865000D02*
G01*
X149870000Y-80865000D01*
X149870000Y-80285000D01*
X150590000Y-80285000D01*
X150590000Y-80865000D01*
G37*
X149590000Y-80865000D02*
X148870000Y-80865000D01*
X148870000Y-80285000D01*
X149590000Y-80285000D01*
X149590000Y-80865000D01*
G36*
X149590000Y-80865000D02*
G01*
X148870000Y-80865000D01*
X148870000Y-80285000D01*
X149590000Y-80285000D01*
X149590000Y-80865000D01*
G37*
X160845000Y-82810000D02*
X160265000Y-82810000D01*
X160265000Y-82090000D01*
X160845000Y-82090000D01*
X160845000Y-82810000D01*
G36*
X160845000Y-82810000D02*
G01*
X160265000Y-82810000D01*
X160265000Y-82090000D01*
X160845000Y-82090000D01*
X160845000Y-82810000D01*
G37*
X159995000Y-82810000D02*
X159415000Y-82810000D01*
X159415000Y-82090000D01*
X159995000Y-82090000D01*
X159995000Y-82810000D01*
G36*
X159995000Y-82810000D02*
G01*
X159415000Y-82810000D01*
X159415000Y-82090000D01*
X159995000Y-82090000D01*
X159995000Y-82810000D01*
G37*
X158945000Y-82810000D02*
X158365000Y-82810000D01*
X158365000Y-82090000D01*
X158945000Y-82090000D01*
X158945000Y-82810000D01*
G36*
X158945000Y-82810000D02*
G01*
X158365000Y-82810000D01*
X158365000Y-82090000D01*
X158945000Y-82090000D01*
X158945000Y-82810000D01*
G37*
X158095000Y-82810000D02*
X157515000Y-82810000D01*
X157515000Y-82090000D01*
X158095000Y-82090000D01*
X158095000Y-82810000D01*
G36*
X158095000Y-82810000D02*
G01*
X157515000Y-82810000D01*
X157515000Y-82090000D01*
X158095000Y-82090000D01*
X158095000Y-82810000D01*
G37*
X157045000Y-82810000D02*
X156465000Y-82810000D01*
X156465000Y-82090000D01*
X157045000Y-82090000D01*
X157045000Y-82810000D01*
G36*
X157045000Y-82810000D02*
G01*
X156465000Y-82810000D01*
X156465000Y-82090000D01*
X157045000Y-82090000D01*
X157045000Y-82810000D01*
G37*
X156195000Y-82810000D02*
X155615000Y-82810000D01*
X155615000Y-82090000D01*
X156195000Y-82090000D01*
X156195000Y-82810000D01*
G36*
X156195000Y-82810000D02*
G01*
X155615000Y-82810000D01*
X155615000Y-82090000D01*
X156195000Y-82090000D01*
X156195000Y-82810000D01*
G37*
X155145000Y-82810000D02*
X154565000Y-82810000D01*
X154565000Y-82090000D01*
X155145000Y-82090000D01*
X155145000Y-82810000D01*
G36*
X155145000Y-82810000D02*
G01*
X154565000Y-82810000D01*
X154565000Y-82090000D01*
X155145000Y-82090000D01*
X155145000Y-82810000D01*
G37*
X154295000Y-82810000D02*
X153715000Y-82810000D01*
X153715000Y-82090000D01*
X154295000Y-82090000D01*
X154295000Y-82810000D01*
G36*
X154295000Y-82810000D02*
G01*
X153715000Y-82810000D01*
X153715000Y-82090000D01*
X154295000Y-82090000D01*
X154295000Y-82810000D01*
G37*
X153245000Y-82810000D02*
X152665000Y-82810000D01*
X152665000Y-82090000D01*
X153245000Y-82090000D01*
X153245000Y-82810000D01*
G36*
X153245000Y-82810000D02*
G01*
X152665000Y-82810000D01*
X152665000Y-82090000D01*
X153245000Y-82090000D01*
X153245000Y-82810000D01*
G37*
X152395000Y-82810000D02*
X151815000Y-82810000D01*
X151815000Y-82090000D01*
X152395000Y-82090000D01*
X152395000Y-82810000D01*
G36*
X152395000Y-82810000D02*
G01*
X151815000Y-82810000D01*
X151815000Y-82090000D01*
X152395000Y-82090000D01*
X152395000Y-82810000D01*
G37*
X160845000Y-83810000D02*
X160265000Y-83810000D01*
X160265000Y-83090000D01*
X160845000Y-83090000D01*
X160845000Y-83810000D01*
G36*
X160845000Y-83810000D02*
G01*
X160265000Y-83810000D01*
X160265000Y-83090000D01*
X160845000Y-83090000D01*
X160845000Y-83810000D01*
G37*
X159995000Y-83810000D02*
X159415000Y-83810000D01*
X159415000Y-83090000D01*
X159995000Y-83090000D01*
X159995000Y-83810000D01*
G36*
X159995000Y-83810000D02*
G01*
X159415000Y-83810000D01*
X159415000Y-83090000D01*
X159995000Y-83090000D01*
X159995000Y-83810000D01*
G37*
X158945000Y-83810000D02*
X158365000Y-83810000D01*
X158365000Y-83090000D01*
X158945000Y-83090000D01*
X158945000Y-83810000D01*
G36*
X158945000Y-83810000D02*
G01*
X158365000Y-83810000D01*
X158365000Y-83090000D01*
X158945000Y-83090000D01*
X158945000Y-83810000D01*
G37*
X158095000Y-83810000D02*
X157515000Y-83810000D01*
X157515000Y-83090000D01*
X158095000Y-83090000D01*
X158095000Y-83810000D01*
G36*
X158095000Y-83810000D02*
G01*
X157515000Y-83810000D01*
X157515000Y-83090000D01*
X158095000Y-83090000D01*
X158095000Y-83810000D01*
G37*
X157045000Y-83810000D02*
X156465000Y-83810000D01*
X156465000Y-83090000D01*
X157045000Y-83090000D01*
X157045000Y-83810000D01*
G36*
X157045000Y-83810000D02*
G01*
X156465000Y-83810000D01*
X156465000Y-83090000D01*
X157045000Y-83090000D01*
X157045000Y-83810000D01*
G37*
X156195000Y-83810000D02*
X155615000Y-83810000D01*
X155615000Y-83090000D01*
X156195000Y-83090000D01*
X156195000Y-83810000D01*
G36*
X156195000Y-83810000D02*
G01*
X155615000Y-83810000D01*
X155615000Y-83090000D01*
X156195000Y-83090000D01*
X156195000Y-83810000D01*
G37*
X155145000Y-83810000D02*
X154565000Y-83810000D01*
X154565000Y-83090000D01*
X155145000Y-83090000D01*
X155145000Y-83810000D01*
G36*
X155145000Y-83810000D02*
G01*
X154565000Y-83810000D01*
X154565000Y-83090000D01*
X155145000Y-83090000D01*
X155145000Y-83810000D01*
G37*
X154295000Y-83810000D02*
X153715000Y-83810000D01*
X153715000Y-83090000D01*
X154295000Y-83090000D01*
X154295000Y-83810000D01*
G36*
X154295000Y-83810000D02*
G01*
X153715000Y-83810000D01*
X153715000Y-83090000D01*
X154295000Y-83090000D01*
X154295000Y-83810000D01*
G37*
X153245000Y-83810000D02*
X152665000Y-83810000D01*
X152665000Y-83090000D01*
X153245000Y-83090000D01*
X153245000Y-83810000D01*
G36*
X153245000Y-83810000D02*
G01*
X152665000Y-83810000D01*
X152665000Y-83090000D01*
X153245000Y-83090000D01*
X153245000Y-83810000D01*
G37*
X152395000Y-83810000D02*
X151815000Y-83810000D01*
X151815000Y-83090000D01*
X152395000Y-83090000D01*
X152395000Y-83810000D01*
G36*
X152395000Y-83810000D02*
G01*
X151815000Y-83810000D01*
X151815000Y-83090000D01*
X152395000Y-83090000D01*
X152395000Y-83810000D01*
G37*
%TD*%
D11*
%TO.C,J4*%
X130697500Y-103353250D03*
X130697500Y-104003250D03*
X130697500Y-104653250D03*
X130697500Y-105303250D03*
X130697500Y-105953250D03*
D12*
X127622500Y-103690750D03*
X127622500Y-105615750D03*
%TD*%
D13*
%TO.C,C7*%
X172850000Y-109750000D03*
X171300000Y-109750000D03*
%TD*%
D14*
%TO.C,C22*%
X145675000Y-94625000D03*
X145675000Y-96325000D03*
%TD*%
D15*
%TO.C,C11*%
X145075000Y-107750000D03*
X146775000Y-107750000D03*
%TD*%
D16*
%TO.C,R2*%
X178095000Y-86280000D03*
X179745000Y-86280000D03*
%TD*%
D17*
%TO.C,U5*%
X145000000Y-105725100D03*
X145950000Y-105725100D03*
X146900000Y-105725100D03*
X146900000Y-103124900D03*
X145000000Y-103124900D03*
%TD*%
D16*
%TO.C,R1*%
X178045000Y-87940000D03*
X179695000Y-87940000D03*
%TD*%
D18*
%TO.C,C13*%
X150150000Y-100555000D03*
X150150000Y-99395000D03*
%TD*%
D19*
%TO.C,J3*%
X179250000Y-107875000D03*
X179250000Y-106875000D03*
X179250000Y-105875000D03*
X179250000Y-104875000D03*
D20*
X182925000Y-103575000D03*
X182925000Y-109175000D03*
%TD*%
D21*
%TO.C,D1*%
X134300000Y-103425000D03*
X134300000Y-105725000D03*
%TD*%
D15*
%TO.C,L1*%
X167550000Y-99300000D03*
X165850000Y-99300000D03*
%TD*%
D22*
%TO.C,C1*%
X166080000Y-78250000D03*
X167980000Y-78250000D03*
%TD*%
D23*
%TO.C,U3*%
X157077500Y-96050000D03*
X157077500Y-95550000D03*
X157077500Y-95050000D03*
X157077500Y-94550000D03*
D24*
X156412500Y-96220000D03*
X156412500Y-94390000D03*
X155912500Y-96220000D03*
X155912500Y-94390000D03*
X155412500Y-96220000D03*
X155412500Y-94390000D03*
D23*
X154752500Y-96050000D03*
X154752500Y-95550000D03*
X154752500Y-95050000D03*
X154752500Y-94550000D03*
%TD*%
D14*
%TO.C,R7*%
X148375000Y-104350000D03*
X148375000Y-106050000D03*
%TD*%
%TO.C,R9*%
X142700000Y-100350000D03*
X142700000Y-98650000D03*
%TD*%
D25*
%TO.C,C9*%
X165845000Y-110025000D03*
X167005000Y-110025000D03*
%TD*%
D14*
%TO.C,C16*%
X144450000Y-100325000D03*
X144450000Y-98625000D03*
%TD*%
%TO.C,R13*%
X176875000Y-107525000D03*
X176875000Y-109225000D03*
%TD*%
D26*
%TO.C,Y1*%
X166225000Y-108700000D03*
X166225000Y-106200000D03*
%TD*%
D27*
%TO.C,C3*%
X151700000Y-95325000D03*
X151700000Y-96875000D03*
%TD*%
%TO.C,C6*%
X153312500Y-95325000D03*
X153312500Y-96875000D03*
%TD*%
D13*
%TO.C,C8*%
X173500000Y-103500000D03*
X171950000Y-103500000D03*
%TD*%
D14*
%TO.C,R11*%
X142975000Y-105825000D03*
X142975000Y-104125000D03*
%TD*%
%TO.C,R8*%
X148100000Y-112625000D03*
X148100000Y-110925000D03*
%TD*%
D28*
%TO.C,C18*%
X165700000Y-102525000D03*
X167500000Y-102525000D03*
%TD*%
D29*
%TO.C,LED4*%
X141100000Y-98498000D03*
X141100000Y-100252000D03*
%TD*%
D30*
%TO.C,U6*%
X163250000Y-107825000D03*
X163250000Y-107325000D03*
X163250000Y-106825000D03*
X163250000Y-106325000D03*
X163250000Y-105825000D03*
X163250000Y-105325000D03*
X163250000Y-104825000D03*
X163250000Y-104325000D03*
X163250000Y-103825000D03*
X163250000Y-103325000D03*
X163250000Y-102825000D03*
X163250000Y-102325000D03*
X163250000Y-101825000D03*
X163250000Y-101325000D03*
X163250000Y-100825000D03*
X163250000Y-100325000D03*
D31*
X161250000Y-98325000D03*
X160750000Y-98325000D03*
X160250000Y-98325000D03*
X159750000Y-98325000D03*
X159250000Y-98325000D03*
X158750000Y-98325000D03*
X158250000Y-98325000D03*
X157750000Y-98325000D03*
X157250000Y-98325000D03*
X156750000Y-98325000D03*
X156250000Y-98325000D03*
X155750000Y-98325000D03*
X155250000Y-98325000D03*
X154750000Y-98325000D03*
X154250000Y-98325000D03*
X153750000Y-98325000D03*
D30*
X151750000Y-100325000D03*
X151750000Y-100825000D03*
X151750000Y-101325000D03*
X151750000Y-101825000D03*
X151750000Y-102325000D03*
X151750000Y-102825000D03*
X151750000Y-103325000D03*
X151750000Y-103825000D03*
X151750000Y-104325000D03*
X151750000Y-104825000D03*
X151750000Y-105325000D03*
X151750000Y-105825000D03*
X151750000Y-106325000D03*
X151750000Y-106825000D03*
X151750000Y-107325000D03*
X151750000Y-107825000D03*
D31*
X153750000Y-109825000D03*
X154250000Y-109825000D03*
X154750000Y-109825000D03*
X155250000Y-109825000D03*
X155750000Y-109825000D03*
X156250000Y-109825000D03*
X156750000Y-109825000D03*
X157250000Y-109825000D03*
X157750000Y-109825000D03*
X158250000Y-109825000D03*
X158750000Y-109825000D03*
X159250000Y-109825000D03*
X159750000Y-109825000D03*
X160250000Y-109825000D03*
X160750000Y-109825000D03*
X161250000Y-109825000D03*
%TD*%
D25*
%TO.C,C10*%
X165870000Y-104825000D03*
X167030000Y-104825000D03*
%TD*%
D32*
%TO.C,C5*%
X154675000Y-93000000D03*
X154675000Y-91450000D03*
%TD*%
D15*
%TO.C,C21*%
X140175000Y-107650000D03*
X141875000Y-107650000D03*
%TD*%
D33*
%TO.C,LED3*%
X183137500Y-84570000D03*
X181562500Y-84570000D03*
%TD*%
D15*
%TO.C,R6*%
X136800000Y-107650000D03*
X138500000Y-107650000D03*
%TD*%
D34*
%TO.C,U1*%
X149700063Y-95200700D03*
X149199937Y-95200700D03*
D35*
X148700700Y-95449874D03*
X148700700Y-95950000D03*
X148700700Y-96450126D03*
D34*
X149199937Y-96699300D03*
X149700063Y-96699300D03*
D35*
X150199300Y-96450126D03*
X150199300Y-95950000D03*
X150199300Y-95449874D03*
%TD*%
D33*
%TO.C,LED1*%
X183117500Y-87980000D03*
X181542500Y-87980000D03*
%TD*%
D16*
%TO.C,R3*%
X178155000Y-84550000D03*
X179805000Y-84550000D03*
%TD*%
D17*
%TO.C,U7*%
X141074500Y-103174900D03*
X140124500Y-103174900D03*
X139174500Y-103174900D03*
X139174500Y-105775100D03*
X141074500Y-105775100D03*
%TD*%
D36*
%TO.C,S1*%
X141400000Y-111850000D03*
X145500000Y-111850000D03*
X141400000Y-113450000D03*
X145500000Y-113450000D03*
%TD*%
D25*
%TO.C,C15*%
X157255000Y-112200000D03*
X156095000Y-112200000D03*
%TD*%
%TO.C,C20*%
X158645000Y-112200000D03*
X159805000Y-112200000D03*
%TD*%
%TO.C,C12*%
X159580000Y-96475000D03*
X158420000Y-96475000D03*
%TD*%
D14*
%TO.C,R12*%
X176650000Y-102175000D03*
X176650000Y-100475000D03*
%TD*%
D27*
%TO.C,C2*%
X147200000Y-93275000D03*
X147200000Y-94825000D03*
%TD*%
D18*
%TO.C,C14*%
X149900000Y-108755000D03*
X149900000Y-107595000D03*
%TD*%
D37*
%TO.C,Q1*%
X135975000Y-105475000D03*
X137875000Y-105475000D03*
X136925000Y-103375000D03*
%TD*%
D25*
%TO.C,C17*%
X165720000Y-100850000D03*
X166880000Y-100850000D03*
%TD*%
D33*
%TO.C,LED2*%
X183137500Y-86270000D03*
X181562500Y-86270000D03*
%TD*%
D15*
%TO.C,C19*%
X154575000Y-112250000D03*
X152875000Y-112250000D03*
%TD*%
D32*
%TO.C,C4*%
X157175000Y-92975000D03*
X157175000Y-91425000D03*
%TD*%
D38*
%TO.C,U4*%
X173875001Y-105425001D03*
X173375000Y-105425001D03*
X172875000Y-105425001D03*
X172374999Y-105425001D03*
D39*
X171850001Y-105949999D03*
X171850001Y-106450000D03*
X171850001Y-106950000D03*
X171850001Y-107450001D03*
D38*
X172374999Y-107974999D03*
X172875000Y-107974999D03*
X173375000Y-107974999D03*
X173875001Y-107974999D03*
D39*
X174399999Y-107450001D03*
X174399999Y-106950000D03*
X174399999Y-106450000D03*
X174399999Y-105949999D03*
%TD*%
M02*
