%TF.GenerationSoftware,KiCad,Pcbnew,7.0.5*%
%TF.CreationDate,2024-02-09T08:38:42-06:00*%
%TF.ProjectId,peakick,7065616b-6963-46b2-9e6b-696361645f70,rev?*%
%TF.SameCoordinates,Original*%
%TF.FileFunction,Soldermask,Bot*%
%TF.FilePolarity,Negative*%
%FSLAX46Y46*%
G04 Gerber Fmt 4.6, Leading zero omitted, Abs format (unit mm)*
G04 Created by KiCad (PCBNEW 7.0.5) date 2024-02-09 08:38:42*
%MOMM*%
%LPD*%
G01*
G04 APERTURE LIST*
G04 Aperture macros list*
%AMRoundRect*
0 Rectangle with rounded corners*
0 $1 Rounding radius*
0 $2 $3 $4 $5 $6 $7 $8 $9 X,Y pos of 4 corners*
0 Add a 4 corners polygon primitive as box body*
4,1,4,$2,$3,$4,$5,$6,$7,$8,$9,$2,$3,0*
0 Add four circle primitives for the rounded corners*
1,1,$1+$1,$2,$3*
1,1,$1+$1,$4,$5*
1,1,$1+$1,$6,$7*
1,1,$1+$1,$8,$9*
0 Add four rect primitives between the rounded corners*
20,1,$1+$1,$2,$3,$4,$5,0*
20,1,$1+$1,$4,$5,$6,$7,0*
20,1,$1+$1,$6,$7,$8,$9,0*
20,1,$1+$1,$8,$9,$2,$3,0*%
G04 Aperture macros list end*
%ADD10O,2.604000X1.404000*%
%ADD11O,2.304000X1.254000*%
%ADD12C,3.048000*%
%ADD13R,0.650000X2.760000*%
%ADD14R,0.650000X2.750000*%
%ADD15C,1.200000*%
%ADD16RoundRect,0.300000X-0.950000X0.300000X-0.950000X-0.300000X0.950000X-0.300000X0.950000X0.300000X0*%
%ADD17RoundRect,0.050800X0.750000X-0.350000X0.750000X0.350000X-0.750000X0.350000X-0.750000X-0.350000X0*%
%ADD18RoundRect,0.050800X-0.700000X-0.900000X0.700000X-0.900000X0.700000X0.900000X-0.700000X0.900000X0*%
%ADD19RoundRect,0.050800X0.950000X-0.700000X0.950000X0.700000X-0.950000X0.700000X-0.950000X-0.700000X0*%
%ADD20C,1.070000*%
%ADD21C,1.400000*%
%ADD22RoundRect,0.050800X0.494975X2.333452X-2.333452X-0.494975X-0.494975X-2.333452X2.333452X0.494975X0*%
%ADD23RoundRect,0.050800X-0.500000X-2.300000X0.500000X-2.300000X0.500000X2.300000X-0.500000X2.300000X0*%
%ADD24RoundRect,0.050800X-0.800000X1.700000X-0.800000X-1.700000X0.800000X-1.700000X0.800000X1.700000X0*%
G04 APERTURE END LIST*
D10*
%TO.C,J4*%
X127872500Y-101928250D03*
X127872500Y-107378250D03*
D11*
X130902500Y-102228250D03*
X130902500Y-107078250D03*
%TD*%
D12*
%TO.C,H1*%
X128575000Y-95650000D03*
%TD*%
%TO.C,H3*%
X181875000Y-113400000D03*
%TD*%
%TO.C,H2*%
X128525000Y-113450000D03*
%TD*%
D13*
%TO.C,J2*%
X159875000Y-106550000D03*
X159875000Y-102490000D03*
X158605000Y-106550000D03*
D14*
X158605000Y-102490000D03*
D13*
X157335000Y-106550000D03*
X157335000Y-102490000D03*
X156065000Y-106550000D03*
X156065000Y-102490000D03*
X154795000Y-106550000D03*
X154795000Y-102490000D03*
%TD*%
D15*
%TO.C,SW1*%
X182100000Y-82850000D03*
X182100000Y-89650000D03*
D16*
X179300000Y-83750000D03*
X179300000Y-86250000D03*
X179300000Y-88750000D03*
%TD*%
D17*
%TO.C,X2*%
X179175000Y-105100000D03*
X178775000Y-104000000D03*
X179175000Y-102900000D03*
X179575000Y-101800000D03*
X179175000Y-100700000D03*
X179575000Y-99600000D03*
X179175000Y-98500000D03*
X179175000Y-97400000D03*
D18*
X168975000Y-98100000D03*
X168975000Y-104100000D03*
D19*
X182075000Y-96500000D03*
X182975000Y-109700000D03*
%TD*%
D20*
%TO.C,B1*%
X142174874Y-90200126D03*
D21*
X136871573Y-95503427D03*
D22*
X133753232Y-98621768D03*
X145173006Y-87159567D03*
%TD*%
D23*
%TO.C,J1*%
X180220000Y-79100000D03*
X178220000Y-79100000D03*
D24*
X182620000Y-73900000D03*
X175820000Y-73900000D03*
%TD*%
M02*
