%TF.GenerationSoftware,KiCad,Pcbnew,7.0.5*%
%TF.CreationDate,2024-02-09T08:38:41-06:00*%
%TF.ProjectId,peakick,7065616b-6963-46b2-9e6b-696361645f70,rev?*%
%TF.SameCoordinates,Original*%
%TF.FileFunction,Copper,L1,Top*%
%TF.FilePolarity,Positive*%
%FSLAX46Y46*%
G04 Gerber Fmt 4.6, Leading zero omitted, Abs format (unit mm)*
G04 Created by KiCad (PCBNEW 7.0.5) date 2024-02-09 08:38:41*
%MOMM*%
%LPD*%
G01*
G04 APERTURE LIST*
G04 Aperture macros list*
%AMRoundRect*
0 Rectangle with rounded corners*
0 $1 Rounding radius*
0 $2 $3 $4 $5 $6 $7 $8 $9 X,Y pos of 4 corners*
0 Add a 4 corners polygon primitive as box body*
4,1,4,$2,$3,$4,$5,$6,$7,$8,$9,$2,$3,0*
0 Add four circle primitives for the rounded corners*
1,1,$1+$1,$2,$3*
1,1,$1+$1,$4,$5*
1,1,$1+$1,$6,$7*
1,1,$1+$1,$8,$9*
0 Add four rect primitives between the rounded corners*
20,1,$1+$1,$2,$3,$4,$5,0*
20,1,$1+$1,$4,$5,$6,$7,0*
20,1,$1+$1,$6,$7,$8,$9,0*
20,1,$1+$1,$8,$9,$2,$3,0*%
G04 Aperture macros list end*
%TA.AperFunction,EtchedComponent*%
%ADD10C,0.010000*%
%TD*%
%TA.AperFunction,SMDPad,CuDef*%
%ADD11R,1.750000X0.400000*%
%TD*%
%TA.AperFunction,ComponentPad*%
%ADD12O,1.460000X0.730000*%
%TD*%
%TA.AperFunction,ComponentPad*%
%ADD13O,2.400000X1.200000*%
%TD*%
%TA.AperFunction,SMDPad,CuDef*%
%ADD14R,2.500000X1.425000*%
%TD*%
%TA.AperFunction,SMDPad,CuDef*%
%ADD15RoundRect,0.225000X0.225000X0.250000X-0.225000X0.250000X-0.225000X-0.250000X0.225000X-0.250000X0*%
%TD*%
%TA.AperFunction,SMDPad,CuDef*%
%ADD16R,1.000000X1.100000*%
%TD*%
%TA.AperFunction,SMDPad,CuDef*%
%ADD17R,1.100000X1.000000*%
%TD*%
%TA.AperFunction,SMDPad,CuDef*%
%ADD18RoundRect,0.200000X-0.200000X-0.275000X0.200000X-0.275000X0.200000X0.275000X-0.200000X0.275000X0*%
%TD*%
%TA.AperFunction,SMDPad,CuDef*%
%ADD19R,0.550000X1.200000*%
%TD*%
%TA.AperFunction,SMDPad,CuDef*%
%ADD20R,0.900000X0.850000*%
%TD*%
%TA.AperFunction,SMDPad,CuDef*%
%ADD21R,1.350000X0.600000*%
%TD*%
%TA.AperFunction,SMDPad,CuDef*%
%ADD22R,2.000000X1.200000*%
%TD*%
%TA.AperFunction,SMDPad,CuDef*%
%ADD23R,0.830000X0.630000*%
%TD*%
%TA.AperFunction,SMDPad,CuDef*%
%ADD24RoundRect,0.250000X-0.250000X-0.475000X0.250000X-0.475000X0.250000X0.475000X-0.250000X0.475000X0*%
%TD*%
%TA.AperFunction,SMDPad,CuDef*%
%ADD25RoundRect,0.031500X0.263500X0.143500X-0.263500X0.143500X-0.263500X-0.143500X0.263500X-0.143500X0*%
%TD*%
%TA.AperFunction,SMDPad,CuDef*%
%ADD26RoundRect,0.031500X-0.143500X0.263500X-0.143500X-0.263500X0.143500X-0.263500X0.143500X0.263500X0*%
%TD*%
%TA.AperFunction,SMDPad,CuDef*%
%ADD27RoundRect,0.031500X-0.263500X-0.143500X0.263500X-0.143500X0.263500X0.143500X-0.263500X0.143500X0*%
%TD*%
%TA.AperFunction,SMDPad,CuDef*%
%ADD28RoundRect,0.031500X0.143500X-0.263500X0.143500X0.263500X-0.143500X0.263500X-0.143500X-0.263500X0*%
%TD*%
%TA.AperFunction,SMDPad,CuDef*%
%ADD29R,0.850000X0.900000*%
%TD*%
%TA.AperFunction,SMDPad,CuDef*%
%ADD30R,1.800000X1.000000*%
%TD*%
%TA.AperFunction,SMDPad,CuDef*%
%ADD31RoundRect,0.225000X-0.250000X0.225000X-0.250000X-0.225000X0.250000X-0.225000X0.250000X0.225000X0*%
%TD*%
%TA.AperFunction,SMDPad,CuDef*%
%ADD32R,0.800000X1.200000*%
%TD*%
%TA.AperFunction,SMDPad,CuDef*%
%ADD33RoundRect,0.150000X0.350000X0.350000X-0.350000X0.350000X-0.350000X-0.350000X0.350000X-0.350000X0*%
%TD*%
%TA.AperFunction,SMDPad,CuDef*%
%ADD34R,1.000000X0.220000*%
%TD*%
%TA.AperFunction,SMDPad,CuDef*%
%ADD35R,0.220000X1.000000*%
%TD*%
%TA.AperFunction,SMDPad,CuDef*%
%ADD36RoundRect,0.225000X0.250000X-0.225000X0.250000X0.225000X-0.250000X0.225000X-0.250000X-0.225000X0*%
%TD*%
%TA.AperFunction,SMDPad,CuDef*%
%ADD37RoundRect,0.218750X0.218750X0.256250X-0.218750X0.256250X-0.218750X-0.256250X0.218750X-0.256250X0*%
%TD*%
%TA.AperFunction,SMDPad,CuDef*%
%ADD38R,0.254000X0.279400*%
%TD*%
%TA.AperFunction,SMDPad,CuDef*%
%ADD39R,0.279400X0.254000*%
%TD*%
%TA.AperFunction,SMDPad,CuDef*%
%ADD40R,0.900000X1.000000*%
%TD*%
%TA.AperFunction,SMDPad,CuDef*%
%ADD41R,0.800000X0.900000*%
%TD*%
%TA.AperFunction,SMDPad,CuDef*%
%ADD42R,1.500000X1.800000*%
%TD*%
%TA.AperFunction,SMDPad,CuDef*%
%ADD43R,1.800000X1.500000*%
%TD*%
%TA.AperFunction,SMDPad,CuDef*%
%ADD44R,0.304800X0.457200*%
%TD*%
%TA.AperFunction,SMDPad,CuDef*%
%ADD45R,0.457200X0.304800*%
%TD*%
%TA.AperFunction,WasherPad*%
%ADD46C,1.200000*%
%TD*%
%TA.AperFunction,ViaPad*%
%ADD47C,0.600000*%
%TD*%
%TA.AperFunction,Conductor*%
%ADD48C,0.250000*%
%TD*%
%TA.AperFunction,Conductor*%
%ADD49C,0.200000*%
%TD*%
G04 APERTURE END LIST*
%TO.C,J4*%
D10*
X131632500Y-102753250D02*
X130172500Y-102753250D01*
X130172500Y-100753250D01*
X131632500Y-100753250D01*
X131632500Y-102753250D01*
%TA.AperFunction,EtchedComponent*%
G36*
X131632500Y-102753250D02*
G01*
X130172500Y-102753250D01*
X130172500Y-100753250D01*
X131632500Y-100753250D01*
X131632500Y-102753250D01*
G37*
%TD.AperFunction*%
X131632500Y-108553250D02*
X130172500Y-108553250D01*
X130172500Y-106553250D01*
X131632500Y-106553250D01*
X131632500Y-108553250D01*
%TA.AperFunction,EtchedComponent*%
G36*
X131632500Y-108553250D02*
G01*
X130172500Y-108553250D01*
X130172500Y-106553250D01*
X131632500Y-106553250D01*
X131632500Y-108553250D01*
G37*
%TD.AperFunction*%
X129922500Y-102578250D02*
X127072500Y-102578250D01*
X127051500Y-102577250D01*
X127030500Y-102576250D01*
X127009500Y-102573250D01*
X126989500Y-102569250D01*
X126968500Y-102564250D01*
X126948500Y-102558250D01*
X126929500Y-102551250D01*
X126909500Y-102543250D01*
X126890500Y-102534250D01*
X126872500Y-102524250D01*
X126854500Y-102513250D01*
X126837500Y-102502250D01*
X126820500Y-102489250D01*
X126804500Y-102475250D01*
X126789500Y-102461250D01*
X126775500Y-102446250D01*
X126761500Y-102430250D01*
X126748500Y-102413250D01*
X126737500Y-102396250D01*
X126726500Y-102378250D01*
X126716500Y-102360250D01*
X126707500Y-102341250D01*
X126699500Y-102321250D01*
X126692500Y-102302250D01*
X126686500Y-102282250D01*
X126681500Y-102261250D01*
X126677500Y-102241250D01*
X126674500Y-102220250D01*
X126673500Y-102199250D01*
X126672500Y-102178250D01*
X126672500Y-101678250D01*
X126673500Y-101657250D01*
X126674500Y-101636250D01*
X126677500Y-101615250D01*
X126681500Y-101595250D01*
X126686500Y-101574250D01*
X126692500Y-101554250D01*
X126699500Y-101535250D01*
X126707500Y-101515250D01*
X126716500Y-101496250D01*
X126726500Y-101478250D01*
X126737500Y-101460250D01*
X126748500Y-101443250D01*
X126761500Y-101426250D01*
X126775500Y-101410250D01*
X126789500Y-101395250D01*
X126804500Y-101381250D01*
X126820500Y-101367250D01*
X126837500Y-101354250D01*
X126854500Y-101343250D01*
X126872500Y-101332250D01*
X126890500Y-101322250D01*
X126909500Y-101313250D01*
X126929500Y-101305250D01*
X126948500Y-101298250D01*
X126968500Y-101292250D01*
X126989500Y-101287250D01*
X127009500Y-101283250D01*
X127030500Y-101280250D01*
X127051500Y-101279250D01*
X127072500Y-101278250D01*
X129222500Y-101278250D01*
X129222500Y-100753250D01*
X129922500Y-100753250D01*
X129922500Y-102578250D01*
%TA.AperFunction,EtchedComponent*%
G36*
X129922500Y-102578250D02*
G01*
X127072500Y-102578250D01*
X127051500Y-102577250D01*
X127030500Y-102576250D01*
X127009500Y-102573250D01*
X126989500Y-102569250D01*
X126968500Y-102564250D01*
X126948500Y-102558250D01*
X126929500Y-102551250D01*
X126909500Y-102543250D01*
X126890500Y-102534250D01*
X126872500Y-102524250D01*
X126854500Y-102513250D01*
X126837500Y-102502250D01*
X126820500Y-102489250D01*
X126804500Y-102475250D01*
X126789500Y-102461250D01*
X126775500Y-102446250D01*
X126761500Y-102430250D01*
X126748500Y-102413250D01*
X126737500Y-102396250D01*
X126726500Y-102378250D01*
X126716500Y-102360250D01*
X126707500Y-102341250D01*
X126699500Y-102321250D01*
X126692500Y-102302250D01*
X126686500Y-102282250D01*
X126681500Y-102261250D01*
X126677500Y-102241250D01*
X126674500Y-102220250D01*
X126673500Y-102199250D01*
X126672500Y-102178250D01*
X126672500Y-101678250D01*
X126673500Y-101657250D01*
X126674500Y-101636250D01*
X126677500Y-101615250D01*
X126681500Y-101595250D01*
X126686500Y-101574250D01*
X126692500Y-101554250D01*
X126699500Y-101535250D01*
X126707500Y-101515250D01*
X126716500Y-101496250D01*
X126726500Y-101478250D01*
X126737500Y-101460250D01*
X126748500Y-101443250D01*
X126761500Y-101426250D01*
X126775500Y-101410250D01*
X126789500Y-101395250D01*
X126804500Y-101381250D01*
X126820500Y-101367250D01*
X126837500Y-101354250D01*
X126854500Y-101343250D01*
X126872500Y-101332250D01*
X126890500Y-101322250D01*
X126909500Y-101313250D01*
X126929500Y-101305250D01*
X126948500Y-101298250D01*
X126968500Y-101292250D01*
X126989500Y-101287250D01*
X127009500Y-101283250D01*
X127030500Y-101280250D01*
X127051500Y-101279250D01*
X127072500Y-101278250D01*
X129222500Y-101278250D01*
X129222500Y-100753250D01*
X129922500Y-100753250D01*
X129922500Y-102578250D01*
G37*
%TD.AperFunction*%
X129922500Y-108553250D02*
X129222500Y-108553250D01*
X129222500Y-108028250D01*
X127072500Y-108028250D01*
X127051500Y-108027250D01*
X127030500Y-108026250D01*
X127009500Y-108023250D01*
X126989500Y-108019250D01*
X126968500Y-108014250D01*
X126948500Y-108008250D01*
X126929500Y-108001250D01*
X126909500Y-107993250D01*
X126890500Y-107984250D01*
X126872500Y-107974250D01*
X126854500Y-107963250D01*
X126837500Y-107952250D01*
X126820500Y-107939250D01*
X126804500Y-107925250D01*
X126789500Y-107911250D01*
X126775500Y-107896250D01*
X126761500Y-107880250D01*
X126748500Y-107863250D01*
X126737500Y-107846250D01*
X126726500Y-107828250D01*
X126716500Y-107810250D01*
X126707500Y-107791250D01*
X126699500Y-107771250D01*
X126692500Y-107752250D01*
X126686500Y-107732250D01*
X126681500Y-107711250D01*
X126677500Y-107691250D01*
X126674500Y-107670250D01*
X126673500Y-107649250D01*
X126672500Y-107628250D01*
X126672500Y-107128250D01*
X126673500Y-107107250D01*
X126674500Y-107086250D01*
X126677500Y-107065250D01*
X126681500Y-107045250D01*
X126686500Y-107024250D01*
X126692500Y-107004250D01*
X126699500Y-106985250D01*
X126707500Y-106965250D01*
X126716500Y-106946250D01*
X126726500Y-106928250D01*
X126737500Y-106910250D01*
X126748500Y-106893250D01*
X126761500Y-106876250D01*
X126775500Y-106860250D01*
X126789500Y-106845250D01*
X126804500Y-106831250D01*
X126820500Y-106817250D01*
X126837500Y-106804250D01*
X126854500Y-106793250D01*
X126872500Y-106782250D01*
X126890500Y-106772250D01*
X126909500Y-106763250D01*
X126929500Y-106755250D01*
X126948500Y-106748250D01*
X126968500Y-106742250D01*
X126989500Y-106737250D01*
X127009500Y-106733250D01*
X127030500Y-106730250D01*
X127051500Y-106729250D01*
X127072500Y-106728250D01*
X129922500Y-106728250D01*
X129922500Y-108553250D01*
%TA.AperFunction,EtchedComponent*%
G36*
X129922500Y-108553250D02*
G01*
X129222500Y-108553250D01*
X129222500Y-108028250D01*
X127072500Y-108028250D01*
X127051500Y-108027250D01*
X127030500Y-108026250D01*
X127009500Y-108023250D01*
X126989500Y-108019250D01*
X126968500Y-108014250D01*
X126948500Y-108008250D01*
X126929500Y-108001250D01*
X126909500Y-107993250D01*
X126890500Y-107984250D01*
X126872500Y-107974250D01*
X126854500Y-107963250D01*
X126837500Y-107952250D01*
X126820500Y-107939250D01*
X126804500Y-107925250D01*
X126789500Y-107911250D01*
X126775500Y-107896250D01*
X126761500Y-107880250D01*
X126748500Y-107863250D01*
X126737500Y-107846250D01*
X126726500Y-107828250D01*
X126716500Y-107810250D01*
X126707500Y-107791250D01*
X126699500Y-107771250D01*
X126692500Y-107752250D01*
X126686500Y-107732250D01*
X126681500Y-107711250D01*
X126677500Y-107691250D01*
X126674500Y-107670250D01*
X126673500Y-107649250D01*
X126672500Y-107628250D01*
X126672500Y-107128250D01*
X126673500Y-107107250D01*
X126674500Y-107086250D01*
X126677500Y-107065250D01*
X126681500Y-107045250D01*
X126686500Y-107024250D01*
X126692500Y-107004250D01*
X126699500Y-106985250D01*
X126707500Y-106965250D01*
X126716500Y-106946250D01*
X126726500Y-106928250D01*
X126737500Y-106910250D01*
X126748500Y-106893250D01*
X126761500Y-106876250D01*
X126775500Y-106860250D01*
X126789500Y-106845250D01*
X126804500Y-106831250D01*
X126820500Y-106817250D01*
X126837500Y-106804250D01*
X126854500Y-106793250D01*
X126872500Y-106782250D01*
X126890500Y-106772250D01*
X126909500Y-106763250D01*
X126929500Y-106755250D01*
X126948500Y-106748250D01*
X126968500Y-106742250D01*
X126989500Y-106737250D01*
X127009500Y-106733250D01*
X127030500Y-106730250D01*
X127051500Y-106729250D01*
X127072500Y-106728250D01*
X129922500Y-106728250D01*
X129922500Y-108553250D01*
G37*
%TD.AperFunction*%
%TD*%
D11*
%TO.P,J4,1,VCC*%
%TO.N,V_USB*%
X130697500Y-103353250D03*
%TO.P,J4,2,D-*%
%TO.N,/D-*%
X130697500Y-104003250D03*
%TO.P,J4,3,D+*%
%TO.N,/D+*%
X130697500Y-104653250D03*
%TO.P,J4,4,ID*%
%TO.N,unconnected-(J4-ID-Pad4)*%
X130697500Y-105303250D03*
%TO.P,J4,5,GND*%
%TO.N,GND*%
X130697500Y-105953250D03*
D12*
%TO.P,J4,6,SHIELD*%
%TO.N,unconnected-(J4-SHIELD-Pad6)*%
X130902500Y-102228250D03*
%TO.P,J4,7,SHIELD__1*%
%TO.N,unconnected-(J4-SHIELD__1-Pad7)*%
X130902500Y-107078250D03*
D13*
%TO.P,J4,8,SHIELD__2*%
%TO.N,unconnected-(J4-SHIELD__2-Pad8)*%
X127872500Y-101928250D03*
%TO.P,J4,9,SHIELD__3*%
%TO.N,unconnected-(J4-SHIELD__3-Pad9)*%
X127872500Y-107378250D03*
D14*
%TO.P,J4,S1,SHIELD__6*%
%TO.N,unconnected-(J4-SHIELD__6-PadS1)*%
X127622500Y-103690750D03*
%TO.P,J4,S2,SHIELD__7*%
%TO.N,unconnected-(J4-SHIELD__7-PadS2)*%
X127622500Y-105615750D03*
%TD*%
D15*
%TO.P,C7,1*%
%TO.N,Net-(U4-CAP)*%
X172850000Y-109750000D03*
%TO.P,C7,2*%
%TO.N,GND*%
X171300000Y-109750000D03*
%TD*%
D16*
%TO.P,C22,1,1*%
%TO.N,V_BATT*%
X145675000Y-94625000D03*
%TO.P,C22,2,2*%
%TO.N,GND*%
X145675000Y-96325000D03*
%TD*%
D17*
%TO.P,C11,1,1*%
%TO.N,VIN*%
X145075000Y-107750000D03*
%TO.P,C11,2,2*%
%TO.N,GND*%
X146775000Y-107750000D03*
%TD*%
D18*
%TO.P,R2,1,1*%
%TO.N,/D13*%
X178095000Y-86280000D03*
%TO.P,R2,2,2*%
%TO.N,Net-(LED2-A)*%
X179745000Y-86280000D03*
%TD*%
D19*
%TO.P,U5,1,IN*%
%TO.N,VIN*%
X145000000Y-105725100D03*
%TO.P,U5,2,GND*%
%TO.N,GND*%
X145950000Y-105725100D03*
%TO.P,U5,3,EN*%
%TO.N,/EN*%
X146900000Y-105725100D03*
%TO.P,U5,4,BP*%
%TO.N,unconnected-(U5-BP-Pad4)*%
X146900000Y-103124900D03*
%TO.P,U5,5,OUT*%
%TO.N,3.3V*%
X145000000Y-103124900D03*
%TD*%
D18*
%TO.P,R1,1,1*%
%TO.N,/D12*%
X178045000Y-87940000D03*
%TO.P,R1,2,2*%
%TO.N,Net-(LED1-A)*%
X179695000Y-87940000D03*
%TD*%
D20*
%TO.P,C13,1,1*%
%TO.N,3.3V*%
X150150000Y-100555000D03*
%TO.P,C13,2,2*%
%TO.N,GND*%
X150150000Y-99395000D03*
%TD*%
D21*
%TO.P,J3,1,1*%
%TO.N,GND*%
X179250000Y-107875000D03*
%TO.P,J3,2,2*%
%TO.N,3.3V*%
X179250000Y-106875000D03*
%TO.P,J3,3,3*%
%TO.N,/SDA*%
X179250000Y-105875000D03*
%TO.P,J3,4,4*%
%TO.N,/SCL*%
X179250000Y-104875000D03*
D22*
%TO.P,J3,NC1*%
%TO.N,N/C*%
X182925000Y-103575000D03*
%TO.P,J3,NC2*%
X182925000Y-109175000D03*
%TD*%
D23*
%TO.P,D1,A,A*%
%TO.N,V_USB*%
X134300000Y-103425000D03*
%TO.P,D1,C,C*%
%TO.N,VIN*%
X134300000Y-105725000D03*
%TD*%
D17*
%TO.P,L1,1,1*%
%TO.N,3.3V*%
X167550000Y-99300000D03*
%TO.P,L1,2,2*%
%TO.N,VDDA*%
X165850000Y-99300000D03*
%TD*%
D24*
%TO.P,C1,1*%
%TO.N,3.3V*%
X166080000Y-78250000D03*
%TO.P,C1,2*%
%TO.N,GND*%
X167980000Y-78250000D03*
%TD*%
D25*
%TO.P,U3,1,AP_SDO/AP_AD0*%
%TO.N,/MISO*%
X157077500Y-96050000D03*
%TO.P,U3,2,RESV_2*%
%TO.N,unconnected-(U3-RESV_2-Pad2)*%
X157077500Y-95550000D03*
%TO.P,U3,3,RESV_3*%
%TO.N,unconnected-(U3-RESV_3-Pad3)*%
X157077500Y-95050000D03*
%TO.P,U3,4,INT1/INT*%
%TO.N,/D6*%
X157077500Y-94550000D03*
D26*
%TO.P,U3,5,VDDIO*%
%TO.N,3.3V*%
X156412500Y-94385000D03*
%TO.P,U3,6,GND*%
%TO.N,GND*%
X155912500Y-94385000D03*
%TO.P,U3,7,RESV_7*%
X155412500Y-94385000D03*
D27*
%TO.P,U3,8,VDD*%
%TO.N,3.3V*%
X154747500Y-94550000D03*
%TO.P,U3,9,INT2/FSYNC/CLKIN*%
%TO.N,/D10*%
X154747500Y-95050000D03*
%TO.P,U3,10,RESV_10*%
%TO.N,unconnected-(U3-RESV_10-Pad10)*%
X154747500Y-95550000D03*
%TO.P,U3,11,RESV_11*%
%TO.N,GND*%
X154747500Y-96050000D03*
D28*
%TO.P,U3,12,AP_CS*%
%TO.N,/D5*%
X155412500Y-96215000D03*
%TO.P,U3,13,AP_SCL/AP_SCLK*%
%TO.N,/SCK*%
X155912500Y-96215000D03*
%TO.P,U3,14,AP_SDA/AP_SDIO/AP_SDI*%
%TO.N,/MOSI*%
X156412500Y-96215000D03*
%TD*%
D16*
%TO.P,R7,1,1*%
%TO.N,/EN*%
X148375000Y-104350000D03*
%TO.P,R7,2,2*%
%TO.N,VIN*%
X148375000Y-106050000D03*
%TD*%
%TO.P,R9,1,1*%
%TO.N,V_USB*%
X142700000Y-100350000D03*
%TO.P,R9,2,2*%
%TO.N,Net-(LED4-PadA)*%
X142700000Y-98650000D03*
%TD*%
D29*
%TO.P,C9,1,1*%
%TO.N,/XIN32*%
X165845000Y-110025000D03*
%TO.P,C9,2,2*%
%TO.N,GND*%
X167005000Y-110025000D03*
%TD*%
D16*
%TO.P,C16,1,1*%
%TO.N,3.3V*%
X144450000Y-100325000D03*
%TO.P,C16,2,2*%
%TO.N,GND*%
X144450000Y-98625000D03*
%TD*%
%TO.P,R13,1,1*%
%TO.N,/SDA*%
X176875000Y-107525000D03*
%TO.P,R13,2,2*%
%TO.N,3.3V*%
X176875000Y-109225000D03*
%TD*%
D30*
%TO.P,Y1,P$1,1*%
%TO.N,/XIN32*%
X166225000Y-108700000D03*
%TO.P,Y1,P$2,2*%
%TO.N,/XOUT32*%
X166225000Y-106200000D03*
%TD*%
D31*
%TO.P,C3,1*%
%TO.N,3.3V*%
X151700000Y-95325000D03*
%TO.P,C3,2*%
%TO.N,GND*%
X151700000Y-96875000D03*
%TD*%
%TO.P,C6,1*%
%TO.N,3.3V*%
X153312500Y-95325000D03*
%TO.P,C6,2*%
%TO.N,GND*%
X153312500Y-96875000D03*
%TD*%
D15*
%TO.P,C8,1*%
%TO.N,3.3V*%
X173500000Y-103500000D03*
%TO.P,C8,2*%
%TO.N,GND*%
X171950000Y-103500000D03*
%TD*%
D16*
%TO.P,R11,1,1*%
%TO.N,GND*%
X142975000Y-105825000D03*
%TO.P,R11,2,2*%
%TO.N,Net-(U7-PROG)*%
X142975000Y-104125000D03*
%TD*%
%TO.P,R8,1,1*%
%TO.N,/~{RESET}*%
X148100000Y-112625000D03*
%TO.P,R8,2,2*%
%TO.N,3.3V*%
X148100000Y-110925000D03*
%TD*%
D32*
%TO.P,C18,1,1*%
%TO.N,VDDA*%
X165700000Y-102525000D03*
%TO.P,C18,2,2*%
%TO.N,GND*%
X167500000Y-102525000D03*
%TD*%
D33*
%TO.P,LED4,A,A*%
%TO.N,Net-(LED4-PadA)*%
X141100000Y-98498000D03*
%TO.P,LED4,C,C*%
%TO.N,Net-(U7-STAT)*%
X141100000Y-100252000D03*
%TD*%
D34*
%TO.P,U6,1,PA00*%
%TO.N,/XIN32*%
X163250000Y-107825000D03*
%TO.P,U6,2,PA01*%
%TO.N,/XOUT32*%
X163250000Y-107325000D03*
%TO.P,U6,3,PA02*%
%TO.N,/A0*%
X163250000Y-106825000D03*
%TO.P,U6,4,PA03*%
%TO.N,VDDA*%
X163250000Y-106325000D03*
%TO.P,U6,5,PB04*%
%TO.N,unconnected-(U6-PB04-Pad5)*%
X163250000Y-105825000D03*
%TO.P,U6,6,PB05*%
%TO.N,unconnected-(U6-PB05-Pad6)*%
X163250000Y-105325000D03*
%TO.P,U6,7,GND0*%
%TO.N,GND*%
X163250000Y-104825000D03*
%TO.P,U6,8,VDDANA*%
%TO.N,VDDA*%
X163250000Y-104325000D03*
%TO.P,U6,9,PB06*%
%TO.N,unconnected-(U6-PB06-Pad9)*%
X163250000Y-103825000D03*
%TO.P,U6,10,PB07*%
%TO.N,unconnected-(U6-PB07-Pad10)*%
X163250000Y-103325000D03*
%TO.P,U6,11,PB08*%
%TO.N,/A1*%
X163250000Y-102825000D03*
%TO.P,U6,12,PB09*%
%TO.N,/A2*%
X163250000Y-102325000D03*
%TO.P,U6,13,PA04*%
%TO.N,/A3*%
X163250000Y-101825000D03*
%TO.P,U6,14,PA05*%
%TO.N,/A4*%
X163250000Y-101325000D03*
%TO.P,U6,15,PA06*%
%TO.N,/D4*%
X163250000Y-100825000D03*
%TO.P,U6,16,PA07*%
%TO.N,/D9*%
X163250000Y-100325000D03*
D35*
%TO.P,U6,17,PA08*%
%TO.N,/FLASH_MOSI*%
X161250000Y-98325000D03*
%TO.P,U6,18,PA09*%
%TO.N,/FLASH_SCK*%
X160750000Y-98325000D03*
%TO.P,U6,19,PA10*%
%TO.N,/FLASH_CS*%
X160250000Y-98325000D03*
%TO.P,U6,20,PA11*%
%TO.N,/FLASH_MISO*%
X159750000Y-98325000D03*
%TO.P,U6,21,VDDIO0*%
%TO.N,3.3V*%
X159250000Y-98325000D03*
%TO.P,U6,22,GND1*%
%TO.N,GND*%
X158750000Y-98325000D03*
%TO.P,U6,23,PB10*%
%TO.N,unconnected-(U6-PB10-Pad23)*%
X158250000Y-98325000D03*
%TO.P,U6,24,PB11*%
%TO.N,/MISO*%
X157750000Y-98325000D03*
%TO.P,U6,25,PB12*%
%TO.N,/MOSI*%
X157250000Y-98325000D03*
%TO.P,U6,26,PB13*%
%TO.N,/SCK*%
X156750000Y-98325000D03*
%TO.P,U6,27,PB14*%
%TO.N,unconnected-(U6-PB14-Pad27)*%
X156250000Y-98325000D03*
%TO.P,U6,28,PB15*%
%TO.N,unconnected-(U6-PB15-Pad28)*%
X155750000Y-98325000D03*
%TO.P,U6,29,PA12*%
%TO.N,/D1*%
X155250000Y-98325000D03*
%TO.P,U6,30,PA13*%
%TO.N,/D0*%
X154750000Y-98325000D03*
%TO.P,U6,31,PA14*%
%TO.N,unconnected-(U6-PA14-Pad31)*%
X154250000Y-98325000D03*
%TO.P,U6,32,PA15*%
%TO.N,/D5*%
X153750000Y-98325000D03*
D34*
%TO.P,U6,33,GND2*%
%TO.N,GND*%
X151750000Y-100325000D03*
%TO.P,U6,34,VDDIO1*%
%TO.N,3.3V*%
X151750000Y-100825000D03*
%TO.P,U6,35,PA16*%
%TO.N,/D11*%
X151750000Y-101325000D03*
%TO.P,U6,36,PA17*%
%TO.N,/D13*%
X151750000Y-101825000D03*
%TO.P,U6,37,PA18*%
%TO.N,/D10*%
X151750000Y-102325000D03*
%TO.P,U6,38,PA19*%
%TO.N,/D12*%
X151750000Y-102825000D03*
%TO.P,U6,39,PB16*%
%TO.N,unconnected-(U6-PB16-Pad39)*%
X151750000Y-103325000D03*
%TO.P,U6,40,PB17*%
%TO.N,unconnected-(U6-PB17-Pad40)*%
X151750000Y-103825000D03*
%TO.P,U6,41,PA20*%
%TO.N,/D6*%
X151750000Y-104325000D03*
%TO.P,U6,42,PA21*%
%TO.N,/D7*%
X151750000Y-104825000D03*
%TO.P,U6,43,PA22*%
%TO.N,/SDA*%
X151750000Y-105325000D03*
%TO.P,U6,44,PA23*%
%TO.N,/SCL*%
X151750000Y-105825000D03*
%TO.P,U6,45,PA24*%
%TO.N,/D-*%
X151750000Y-106325000D03*
%TO.P,U6,46,PA25*%
%TO.N,/D+*%
X151750000Y-106825000D03*
%TO.P,U6,47,GND3*%
%TO.N,GND*%
X151750000Y-107325000D03*
%TO.P,U6,48,VDDIO2*%
%TO.N,3.3V*%
X151750000Y-107825000D03*
D35*
%TO.P,U6,49,PB22*%
%TO.N,/TXD*%
X153750000Y-109825000D03*
%TO.P,U6,50,PB23*%
%TO.N,/RXD*%
X154250000Y-109825000D03*
%TO.P,U6,51,PA27*%
%TO.N,/TXLED*%
X154750000Y-109825000D03*
%TO.P,U6,52,~{RESET}*%
%TO.N,/~{RESET}*%
X155250000Y-109825000D03*
%TO.P,U6,53,VDDCORE*%
%TO.N,VCC*%
X155750000Y-109825000D03*
%TO.P,U6,54,GND4*%
%TO.N,GND*%
X156250000Y-109825000D03*
%TO.P,U6,55,VSW*%
%TO.N,unconnected-(U6-VSW-Pad55)*%
X156750000Y-109825000D03*
%TO.P,U6,56,VDDIO3*%
%TO.N,3.3V*%
X157250000Y-109825000D03*
%TO.P,U6,57,PA30*%
%TO.N,/SWDCLK*%
X157750000Y-109825000D03*
%TO.P,U6,58,PA31*%
%TO.N,/SWDIO*%
X158250000Y-109825000D03*
%TO.P,U6,59,PB30*%
%TO.N,unconnected-(U6-PB30-Pad59)*%
X158750000Y-109825000D03*
%TO.P,U6,60,PB31*%
%TO.N,unconnected-(U6-PB31-Pad60)*%
X159250000Y-109825000D03*
%TO.P,U6,61,PB00*%
%TO.N,unconnected-(U6-PB00-Pad61)*%
X159750000Y-109825000D03*
%TO.P,U6,62,PB01*%
%TO.N,unconnected-(U6-PB01-Pad62)*%
X160250000Y-109825000D03*
%TO.P,U6,63,PB02*%
%TO.N,/A5*%
X160750000Y-109825000D03*
%TO.P,U6,64,PB03*%
%TO.N,/RXLED*%
X161250000Y-109825000D03*
%TD*%
D29*
%TO.P,C10,1,1*%
%TO.N,/XOUT32*%
X165870000Y-104825000D03*
%TO.P,C10,2,2*%
%TO.N,GND*%
X167030000Y-104825000D03*
%TD*%
D36*
%TO.P,C5,1*%
%TO.N,3.3V*%
X154675000Y-93000000D03*
%TO.P,C5,2*%
%TO.N,GND*%
X154675000Y-91450000D03*
%TD*%
D17*
%TO.P,C21,1,1*%
%TO.N,V_USB*%
X140175000Y-107650000D03*
%TO.P,C21,2,2*%
%TO.N,GND*%
X141875000Y-107650000D03*
%TD*%
D37*
%TO.P,LED3,1,K*%
%TO.N,GND*%
X183137500Y-84570000D03*
%TO.P,LED3,2,A*%
%TO.N,Net-(LED3-A)*%
X181562500Y-84570000D03*
%TD*%
D17*
%TO.P,R6,1,1*%
%TO.N,GND*%
X136800000Y-107650000D03*
%TO.P,R6,2,2*%
%TO.N,V_USB*%
X138500000Y-107650000D03*
%TD*%
D38*
%TO.P,U1,1,VDDIO*%
%TO.N,3.3V*%
X149700063Y-95200700D03*
%TO.P,U1,2,SCK*%
%TO.N,/SCL*%
X149199937Y-95200700D03*
D39*
%TO.P,U1,3,VSS*%
%TO.N,GND*%
X148700700Y-95449874D03*
%TO.P,U1,4,SDI*%
%TO.N,/SDA*%
X148700700Y-95950000D03*
%TO.P,U1,5,SDO*%
%TO.N,GND*%
X148700700Y-96450126D03*
D38*
%TO.P,U1,6,CSB*%
%TO.N,3.3V*%
X149199937Y-96699300D03*
%TO.P,U1,7,INT*%
%TO.N,/D11*%
X149700063Y-96699300D03*
D39*
%TO.P,U1,8,VSS*%
%TO.N,GND*%
X150199300Y-96450126D03*
%TO.P,U1,9,VSS*%
X150199300Y-95950000D03*
%TO.P,U1,10,VDD*%
%TO.N,3.3V*%
X150199300Y-95449874D03*
%TD*%
D37*
%TO.P,LED1,1,K*%
%TO.N,GND*%
X183117500Y-87980000D03*
%TO.P,LED1,2,A*%
%TO.N,Net-(LED1-A)*%
X181542500Y-87980000D03*
%TD*%
D18*
%TO.P,R3,1,1*%
%TO.N,3.3V*%
X178155000Y-84550000D03*
%TO.P,R3,2,2*%
%TO.N,Net-(LED3-A)*%
X179805000Y-84550000D03*
%TD*%
D19*
%TO.P,U7,1,STAT*%
%TO.N,Net-(U7-STAT)*%
X141074500Y-103174900D03*
%TO.P,U7,2,VSS*%
%TO.N,GND*%
X140124500Y-103174900D03*
%TO.P,U7,3,VBAT*%
%TO.N,V_BATT*%
X139174500Y-103174900D03*
%TO.P,U7,4,VIN*%
%TO.N,V_USB*%
X139174500Y-105775100D03*
%TO.P,U7,5,PROG*%
%TO.N,Net-(U7-PROG)*%
X141074500Y-105775100D03*
%TD*%
D40*
%TO.P,S1,1,1*%
%TO.N,GND*%
X141400000Y-111850000D03*
X145500000Y-111850000D03*
%TO.P,S1,2,2*%
%TO.N,/~{RESET}*%
X141400000Y-113450000D03*
X145500000Y-113450000D03*
%TD*%
D29*
%TO.P,C15,1,1*%
%TO.N,3.3V*%
X157255000Y-112200000D03*
%TO.P,C15,2,2*%
%TO.N,GND*%
X156095000Y-112200000D03*
%TD*%
%TO.P,C20,1,1*%
%TO.N,VCC*%
X158645000Y-112200000D03*
%TO.P,C20,2,2*%
%TO.N,GND*%
X159805000Y-112200000D03*
%TD*%
%TO.P,C12,1,1*%
%TO.N,3.3V*%
X159580000Y-96475000D03*
%TO.P,C12,2,2*%
%TO.N,GND*%
X158420000Y-96475000D03*
%TD*%
D16*
%TO.P,R12,1,1*%
%TO.N,/SCL*%
X176650000Y-102175000D03*
%TO.P,R12,2,2*%
%TO.N,3.3V*%
X176650000Y-100475000D03*
%TD*%
D31*
%TO.P,C2,1*%
%TO.N,3.3V*%
X147200000Y-93275000D03*
%TO.P,C2,2*%
%TO.N,GND*%
X147200000Y-94825000D03*
%TD*%
D20*
%TO.P,C14,1,1*%
%TO.N,3.3V*%
X149900000Y-108755000D03*
%TO.P,C14,2,2*%
%TO.N,GND*%
X149900000Y-107595000D03*
%TD*%
D41*
%TO.P,Q1,1,G*%
%TO.N,V_USB*%
X135975000Y-105475000D03*
%TO.P,Q1,2,S*%
%TO.N,VIN*%
X137875000Y-105475000D03*
%TO.P,Q1,3,D*%
%TO.N,V_BATT*%
X136925000Y-103375000D03*
%TD*%
D29*
%TO.P,C17,1,1*%
%TO.N,VDDA*%
X165720000Y-100850000D03*
%TO.P,C17,2,2*%
%TO.N,GND*%
X166880000Y-100850000D03*
%TD*%
D37*
%TO.P,LED2,1,K*%
%TO.N,GND*%
X183137500Y-86270000D03*
%TO.P,LED2,2,A*%
%TO.N,Net-(LED2-A)*%
X181562500Y-86270000D03*
%TD*%
D17*
%TO.P,C19,1,1*%
%TO.N,VCC*%
X154575000Y-112250000D03*
%TO.P,C19,2,2*%
%TO.N,GND*%
X152875000Y-112250000D03*
%TD*%
D42*
%TO.P,U2,1,GND*%
%TO.N,GND*%
X160130000Y-69750000D03*
%TO.P,U2,2,VCC_IO*%
%TO.N,3.3V*%
X158230000Y-69750000D03*
%TO.P,U2,3,V_BCKP*%
%TO.N,/VBACKUP*%
X156330000Y-69750000D03*
%TO.P,U2,4,GND*%
%TO.N,GND*%
X154430000Y-69750000D03*
%TO.P,U2,5,GND*%
X152530000Y-69750000D03*
D43*
%TO.P,U2,6,GND*%
X149730000Y-72550000D03*
%TO.P,U2,7,TIMEPULSE*%
%TO.N,unconnected-(U2-TIMEPULSE-Pad7)*%
X149730000Y-74450000D03*
%TO.P,U2,8,~{SAFEBOOT}*%
%TO.N,unconnected-(U2-~{SAFEBOOT}-Pad8)*%
X149730000Y-76350000D03*
%TO.P,U2,9,SDA*%
%TO.N,/SDA*%
X149730000Y-78250000D03*
%TO.P,U2,10,GND*%
%TO.N,GND*%
X149730000Y-80150000D03*
D42*
%TO.P,U2,11,GND*%
X152530000Y-82950000D03*
%TO.P,U2,12,SCL*%
%TO.N,/SCL*%
X154430000Y-82950000D03*
%TO.P,U2,13,TXD*%
%TO.N,unconnected-(U2-TXD-Pad13)*%
X156330000Y-82950000D03*
%TO.P,U2,14,RXD*%
%TO.N,unconnected-(U2-RXD-Pad14)*%
X158230000Y-82950000D03*
%TO.P,U2,15,GND*%
%TO.N,GND*%
X160130000Y-82950000D03*
D43*
%TO.P,U2,16,GND*%
X162930000Y-80150000D03*
%TO.P,U2,17,VCC*%
%TO.N,3.3V*%
X162930000Y-78250000D03*
%TO.P,U2,18,~{RESET}*%
%TO.N,unconnected-(U2-~{RESET}-Pad18)*%
X162930000Y-76350000D03*
%TO.P,U2,19,EXTINT0*%
%TO.N,unconnected-(U2-EXTINT0-Pad19)*%
X162930000Y-74450000D03*
%TO.P,U2,20,GND*%
%TO.N,GND*%
X162930000Y-72550000D03*
%TD*%
D36*
%TO.P,C4,1*%
%TO.N,3.3V*%
X157175000Y-92975000D03*
%TO.P,C4,2*%
%TO.N,GND*%
X157175000Y-91425000D03*
%TD*%
D44*
%TO.P,U4,1,SCL/SPI_SCK*%
%TO.N,/SCL*%
X173875001Y-105425001D03*
%TO.P,U4,2,VDD*%
%TO.N,3.3V*%
X173375000Y-105425001D03*
%TO.P,U4,3,NC*%
%TO.N,unconnected-(U4-NC-Pad3)*%
X172875000Y-105425001D03*
%TO.P,U4,4,SPI_CS*%
%TO.N,3.3V*%
X172374999Y-105425001D03*
D45*
%TO.P,U4,5,SPI_SDO*%
%TO.N,unconnected-(U4-SPI_SDO-Pad5)*%
X171850001Y-105949999D03*
%TO.P,U4,6,NC*%
%TO.N,unconnected-(U4-NC-Pad6)*%
X171850001Y-106450000D03*
%TO.P,U4,7,NC*%
%TO.N,unconnected-(U4-NC-Pad7)*%
X171850001Y-106950000D03*
%TO.P,U4,8,NC*%
%TO.N,unconnected-(U4-NC-Pad8)*%
X171850001Y-107450001D03*
D44*
%TO.P,U4,9,GND*%
%TO.N,GND*%
X172374999Y-107974999D03*
%TO.P,U4,10,CAP*%
%TO.N,Net-(U4-CAP)*%
X172875000Y-107974999D03*
%TO.P,U4,11,GND*%
%TO.N,GND*%
X173375000Y-107974999D03*
%TO.P,U4,12,NC*%
%TO.N,unconnected-(U4-NC-Pad12)*%
X173875001Y-107974999D03*
D45*
%TO.P,U4,13,VDDIO*%
%TO.N,3.3V*%
X174399999Y-107450001D03*
%TO.P,U4,14,NC*%
%TO.N,unconnected-(U4-NC-Pad14)*%
X174399999Y-106950000D03*
%TO.P,U4,15,INT*%
%TO.N,/D9*%
X174399999Y-106450000D03*
%TO.P,U4,16,SDA/SPI_SDI*%
%TO.N,/SDA*%
X174399999Y-105949999D03*
%TD*%
D46*
%TO.P,SW1,*%
%TO.N,*%
X182100000Y-82850000D03*
X182100000Y-89650000D03*
%TD*%
D47*
%TO.N,GND*%
X160130000Y-68050000D03*
X157375000Y-104500000D03*
X164730000Y-72550000D03*
X161630000Y-82950000D03*
X151587500Y-97862500D03*
X167930000Y-76550000D03*
X161825000Y-104825000D03*
X139675000Y-104600000D03*
X152530000Y-81250000D03*
X162930000Y-81650000D03*
X152530000Y-71550000D03*
X160130000Y-81250000D03*
X154430000Y-68050000D03*
X149730000Y-81650000D03*
X157325000Y-108200000D03*
X151030000Y-82950000D03*
X152530000Y-67950000D03*
X160130000Y-84650000D03*
X152530000Y-84650000D03*
X151430000Y-80150000D03*
X151430000Y-72550000D03*
X153975000Y-113350000D03*
X155950000Y-93175000D03*
X162930000Y-71050000D03*
X148925000Y-107700000D03*
X177040000Y-89660000D03*
X161730000Y-69750000D03*
X145900000Y-97750000D03*
X147030000Y-80250000D03*
X167930000Y-79950000D03*
X148030000Y-72550000D03*
X147800000Y-108600000D03*
X150930000Y-69750000D03*
X161230000Y-80050000D03*
X154430000Y-71550000D03*
X150250000Y-98300000D03*
X158033168Y-95058168D03*
%TO.N,3.3V*%
X157250000Y-110898900D03*
X166150000Y-94475000D03*
X166050000Y-91750000D03*
X177750000Y-100500000D03*
X158230000Y-68250000D03*
X158350000Y-92451100D03*
X180825000Y-106875000D03*
X148525000Y-97600000D03*
X166030000Y-79850000D03*
X160775000Y-105350000D03*
X164375000Y-98350000D03*
X149005000Y-109650000D03*
X151675000Y-94350000D03*
%TO.N,V_BATT*%
X148431100Y-92589258D03*
%TO.N,/SDA*%
X147944524Y-95975974D03*
X176950000Y-105950000D03*
X150225000Y-104800000D03*
X147930000Y-78250000D03*
%TO.N,/SCL*%
X176725000Y-104250000D03*
X147428900Y-91737500D03*
X149525000Y-104850000D03*
%TO.N,/D6*%
X153173900Y-102975000D03*
X160450000Y-96100000D03*
%TO.N,/D10*%
X153225000Y-98450000D03*
X153325000Y-94473900D03*
%TO.N,/D12*%
X164175000Y-95548900D03*
X154115942Y-99925668D03*
%TO.N,/D13*%
X153098900Y-100450000D03*
X164900000Y-95047800D03*
%TO.N,/~{RESET}*%
X154750000Y-104250000D03*
%TO.N,/VBACKUP*%
X156300000Y-68400000D03*
%TO.N,VIN*%
X134350000Y-107325000D03*
X145350000Y-108925000D03*
%TO.N,/D9*%
X164250000Y-100325000D03*
X175525000Y-106475000D03*
%TO.N,/D+*%
X132562500Y-104887500D03*
X149425000Y-106750000D03*
%TO.N,/D-*%
X132575000Y-104100000D03*
X149400000Y-105950000D03*
%TO.N,/FLASH_CS*%
X176875000Y-96551100D03*
%TO.N,/SWDIO*%
X159900000Y-104675000D03*
%TO.N,/SWDCLK*%
X159200000Y-104400000D03*
%TO.N,/FLASH_MOSI*%
X176491662Y-97658338D03*
%TO.N,/FLASH_SCK*%
X177223953Y-97621507D03*
%TO.N,/FLASH_MISO*%
X177675000Y-96100000D03*
%TO.N,/D7*%
X153675000Y-104450000D03*
%TD*%
D48*
%TO.N,GND*%
X131853250Y-105953250D02*
X130697500Y-105953250D01*
X133751600Y-107851600D02*
X131853250Y-105953250D01*
D49*
%TO.N,/D+*%
X132000000Y-104675000D02*
X131978250Y-104653250D01*
X131978250Y-104653250D02*
X130697500Y-104653250D01*
X132350000Y-104675000D02*
X132000000Y-104675000D01*
X132562500Y-104887500D02*
X132350000Y-104675000D01*
%TO.N,/D-*%
X130794250Y-104100000D02*
X130697500Y-104003250D01*
X132575000Y-104100000D02*
X130794250Y-104100000D01*
%TO.N,V_USB*%
X132468880Y-103353250D02*
X130697500Y-103353250D01*
X132540630Y-103425000D02*
X132468880Y-103353250D01*
X134300000Y-103425000D02*
X132540630Y-103425000D01*
D48*
%TO.N,GND*%
X139675000Y-104600000D02*
X140124500Y-104150500D01*
X151750000Y-100325000D02*
X151200000Y-100325000D01*
X147800000Y-108600000D02*
X147625000Y-108600000D01*
X183157500Y-84590000D02*
X183157500Y-86250000D01*
X171424998Y-108925000D02*
X171375000Y-108925000D01*
X142975000Y-106550000D02*
X141875000Y-107650000D01*
X155912500Y-93212500D02*
X155950000Y-93175000D01*
X150775000Y-95950000D02*
X151700000Y-96875000D01*
X155950000Y-93175000D02*
X155950000Y-92725000D01*
X154675000Y-91450000D02*
X155412500Y-92187500D01*
X149900000Y-107595000D02*
X149030000Y-107595000D01*
X145900000Y-97750000D02*
X145325000Y-97750000D01*
X157325000Y-108200000D02*
X156250000Y-109275000D01*
X153951600Y-113326600D02*
X152875000Y-112250000D01*
X173375000Y-108453599D02*
X173375000Y-107974999D01*
X147200000Y-94825000D02*
X147200000Y-96502574D01*
X183137500Y-84570000D02*
X183157500Y-84590000D01*
X171375000Y-109675000D02*
X171300000Y-109750000D01*
X151700000Y-97750000D02*
X151587500Y-97862500D01*
X142975000Y-105825000D02*
X142975000Y-106550000D01*
X156250000Y-112045000D02*
X156095000Y-112200000D01*
X171300000Y-109750000D02*
X172001600Y-110451600D01*
X183117500Y-86290000D02*
X183137500Y-86270000D01*
X148700700Y-95449874D02*
X147824874Y-95449874D01*
X136598400Y-107851600D02*
X133751600Y-107851600D01*
X153312500Y-96875000D02*
X151700000Y-96875000D01*
X169300000Y-100850000D02*
X171950000Y-103500000D01*
X158420000Y-96475000D02*
X158750000Y-96805000D01*
X150850000Y-96450000D02*
X150849874Y-96450126D01*
X166880000Y-100850000D02*
X169300000Y-100850000D01*
X147625000Y-108600000D02*
X146775000Y-107750000D01*
X148700700Y-96450126D02*
X148648252Y-96502574D01*
X156250000Y-109825000D02*
X156250000Y-112045000D01*
X155412500Y-92187500D02*
X155412500Y-94385000D01*
X154137500Y-96050000D02*
X153312500Y-96875000D01*
X163250000Y-104825000D02*
X161825000Y-104825000D01*
X155950000Y-92725000D02*
X155412500Y-92187500D01*
X150170000Y-107325000D02*
X149900000Y-107595000D01*
X145852574Y-96502574D02*
X145675000Y-96325000D01*
X156250000Y-109275000D02*
X156250000Y-109825000D01*
X147824874Y-95449874D02*
X147200000Y-94825000D01*
X172374999Y-107974999D02*
X171424998Y-108925000D01*
X153975000Y-113350000D02*
X153951600Y-113326600D01*
X173262059Y-110451600D02*
X173650000Y-110063659D01*
X145325000Y-97750000D02*
X144450000Y-98625000D01*
X151750000Y-107325000D02*
X150170000Y-107325000D01*
X151700000Y-96875000D02*
X151700000Y-97750000D01*
X158420000Y-96475000D02*
X158420000Y-95445000D01*
X159805000Y-112200000D02*
X159805000Y-112900000D01*
X150150000Y-99395000D02*
X150150000Y-98400000D01*
X159378400Y-113326600D02*
X153975000Y-113350000D01*
X147200000Y-96502574D02*
X145852574Y-96502574D01*
X173650000Y-108728599D02*
X173375000Y-108453599D01*
X146775000Y-107750000D02*
X145950000Y-106925000D01*
X140124500Y-104150500D02*
X140124500Y-103174900D01*
X154747500Y-96050000D02*
X154137500Y-96050000D01*
X183157500Y-86250000D02*
X183137500Y-86270000D01*
X159805000Y-112900000D02*
X159378400Y-113326600D01*
X151200000Y-100325000D02*
X150270000Y-99395000D01*
X151700000Y-96875000D02*
X151275000Y-96450000D01*
X150199300Y-95950000D02*
X150775000Y-95950000D01*
X158420000Y-95445000D02*
X158033168Y-95058168D01*
X151275000Y-96450000D02*
X150850000Y-96450000D01*
X173650000Y-110063659D02*
X173650000Y-108728599D01*
X150150000Y-98400000D02*
X150250000Y-98300000D01*
X150270000Y-99395000D02*
X150150000Y-99395000D01*
X148648252Y-96502574D02*
X147200000Y-96502574D01*
X171375000Y-108925000D02*
X171375000Y-109675000D01*
X136800000Y-107650000D02*
X136598400Y-107851600D01*
X158750000Y-96805000D02*
X158750000Y-98325000D01*
X155912500Y-94385000D02*
X155912500Y-93212500D01*
X183117500Y-87980000D02*
X183117500Y-86290000D01*
X150849874Y-96450126D02*
X150199300Y-96450126D01*
X172001600Y-110451600D02*
X173262059Y-110451600D01*
X149030000Y-107595000D02*
X148925000Y-107700000D01*
X145950000Y-106925000D02*
X145950000Y-105725100D01*
D49*
%TO.N,3.3V*%
X165980000Y-79800000D02*
X166030000Y-79850000D01*
D48*
X149005000Y-109650000D02*
X148075000Y-109650000D01*
X178155000Y-84550000D02*
X176000000Y-86705000D01*
X151075000Y-94700000D02*
X151700000Y-95325000D01*
X173375000Y-103625000D02*
X173500000Y-103500000D01*
X148525000Y-97600000D02*
X149199937Y-96925063D01*
X160800000Y-99975000D02*
X160800000Y-104950000D01*
X153312500Y-95325000D02*
X151700000Y-95325000D01*
X159250000Y-96805000D02*
X159250000Y-98325000D01*
X151675000Y-94350000D02*
X151675000Y-95300000D01*
X143550000Y-97825000D02*
X144125000Y-97250000D01*
X151700000Y-95325000D02*
X150324174Y-95325000D01*
X160800000Y-104950000D02*
X160800000Y-105325000D01*
X177601600Y-108498400D02*
X176875000Y-109225000D01*
X176000000Y-86705000D02*
X176000000Y-91026592D01*
X172374999Y-104675001D02*
X172374999Y-105425001D01*
X176700000Y-109225000D02*
X174925001Y-107450001D01*
X154747500Y-94550000D02*
X154747500Y-93072500D01*
X145000000Y-102400000D02*
X144450000Y-101850000D01*
X144275000Y-100325000D02*
X143550000Y-99600000D01*
X164375000Y-98350000D02*
X164350000Y-98375000D01*
X148400000Y-100325000D02*
X149920000Y-100325000D01*
X154675000Y-93000000D02*
X153100000Y-93000000D01*
X176000000Y-91026592D02*
X172305392Y-94721200D01*
X153100000Y-93000000D02*
X151750000Y-94350000D01*
X173375000Y-104600000D02*
X172450000Y-104600000D01*
X156677500Y-93622500D02*
X157175000Y-93622500D01*
X166050000Y-91750000D02*
X166150000Y-91850000D01*
X173400000Y-100475000D02*
X173400000Y-103400000D01*
X158230000Y-69750000D02*
X158230000Y-68250000D01*
X166150000Y-91850000D02*
X166150000Y-94475000D01*
X150324174Y-95325000D02*
X150199300Y-95449874D01*
X160373900Y-94475000D02*
X158350000Y-92451100D01*
X177601600Y-108148400D02*
X177601600Y-108498400D01*
X148100000Y-110925000D02*
X148100000Y-109675000D01*
X145021800Y-95475000D02*
X146375000Y-95475000D01*
X151150000Y-107825000D02*
X150220000Y-108755000D01*
X159250000Y-98325000D02*
X159250000Y-99500000D01*
X146401600Y-94073400D02*
X147200000Y-93275000D01*
X148525000Y-97600000D02*
X148525000Y-100200000D01*
X150420000Y-100825000D02*
X150150000Y-100555000D01*
X149700063Y-95200700D02*
X149700063Y-94824937D01*
X156412500Y-93912500D02*
X156400000Y-93900000D01*
X144125000Y-97250000D02*
X144125000Y-96371800D01*
X143550000Y-99600000D02*
X143550000Y-97825000D01*
X179250000Y-106875000D02*
X178875000Y-106875000D01*
X143850000Y-108550000D02*
X143850000Y-105546900D01*
X151750000Y-107825000D02*
X151150000Y-107825000D01*
X180825000Y-106875000D02*
X179250000Y-106875000D01*
X157250000Y-111075000D02*
X157250000Y-110898900D01*
X176875000Y-109225000D02*
X176700000Y-109225000D01*
X167550000Y-99300000D02*
X172225000Y-99300000D01*
X172225000Y-99300000D02*
X173400000Y-100475000D01*
D49*
X165880000Y-78250000D02*
X165980000Y-78350000D01*
D48*
X144450000Y-101850000D02*
X144450000Y-100325000D01*
X146375000Y-95475000D02*
X146401600Y-95448400D01*
X173400000Y-100475000D02*
X176650000Y-100475000D01*
X173375000Y-105425001D02*
X173375000Y-104600000D01*
X148075000Y-109650000D02*
X144950000Y-109650000D01*
X172450000Y-104600000D02*
X172374999Y-104675001D01*
X151675000Y-95300000D02*
X151700000Y-95325000D01*
X172305392Y-94721200D02*
X166396200Y-94721200D01*
X149199937Y-96925063D02*
X149199937Y-96699300D01*
X149700063Y-94824937D02*
X149825000Y-94700000D01*
X144450000Y-100325000D02*
X148100000Y-100325000D01*
X164400000Y-98375000D02*
X164375000Y-98350000D01*
X144125000Y-96371800D02*
X145021800Y-95475000D01*
X156400000Y-93900000D02*
X156677500Y-93622500D01*
X177750000Y-100500000D02*
X177725000Y-100475000D01*
X162930000Y-78250000D02*
X165880000Y-78250000D01*
X160800000Y-105325000D02*
X160775000Y-105350000D01*
X157250000Y-112195000D02*
X157255000Y-112200000D01*
X157826100Y-92975000D02*
X157175000Y-92975000D01*
X150220000Y-108755000D02*
X149900000Y-108755000D01*
X166625000Y-98375000D02*
X164400000Y-98375000D01*
X177725000Y-100475000D02*
X176650000Y-100475000D01*
X148400000Y-100325000D02*
X148100000Y-100325000D01*
X145000000Y-103124900D02*
X145000000Y-102400000D01*
X151750000Y-94350000D02*
X151675000Y-94350000D01*
X154747500Y-93072500D02*
X154675000Y-93000000D01*
X161275000Y-99500000D02*
X159250000Y-99500000D01*
X174925001Y-107450001D02*
X174399999Y-107450001D01*
X144450000Y-100325000D02*
X144275000Y-100325000D01*
X165980000Y-78350000D02*
X165980000Y-79800000D01*
X178875000Y-106875000D02*
X177601600Y-108148400D01*
X161275000Y-99500000D02*
X160800000Y-99975000D01*
X173375000Y-104600000D02*
X173375000Y-103625000D01*
X166150000Y-94475000D02*
X160373900Y-94475000D01*
X143850000Y-105546900D02*
X145000000Y-104396900D01*
X146401600Y-95448400D02*
X146401600Y-94073400D01*
X149825000Y-94700000D02*
X151075000Y-94700000D01*
X157250000Y-109825000D02*
X157250000Y-111075000D01*
X159580000Y-96475000D02*
X159250000Y-96805000D01*
X164350000Y-98375000D02*
X162400000Y-98375000D01*
X148525000Y-100200000D02*
X148400000Y-100325000D01*
X149920000Y-100325000D02*
X150150000Y-100555000D01*
X157250000Y-111075000D02*
X157250000Y-112195000D01*
X158350000Y-92451100D02*
X157826100Y-92975000D01*
X148100000Y-109675000D02*
X148075000Y-109650000D01*
X162400000Y-98375000D02*
X161275000Y-99500000D01*
X167550000Y-99300000D02*
X166625000Y-98375000D01*
X144950000Y-109650000D02*
X143850000Y-108550000D01*
X157175000Y-92975000D02*
X157175000Y-93622500D01*
X145000000Y-104396900D02*
X145000000Y-103124900D01*
X166396200Y-94721200D02*
X166150000Y-94475000D01*
X149900000Y-108755000D02*
X149005000Y-109650000D01*
X151750000Y-100825000D02*
X150420000Y-100825000D01*
X173400000Y-103400000D02*
X173500000Y-103500000D01*
X156412500Y-94385000D02*
X156412500Y-93912500D01*
D49*
%TO.N,/XIN32*%
X166225000Y-108700000D02*
X165350000Y-107825000D01*
X166225000Y-108700000D02*
X166225000Y-109645000D01*
X166225000Y-109645000D02*
X165845000Y-110025000D01*
X165350000Y-107825000D02*
X163250000Y-107825000D01*
D48*
%TO.N,V_BATT*%
X147798400Y-92598400D02*
X146751600Y-92598400D01*
X144925000Y-94625000D02*
X143225000Y-96325000D01*
X145675000Y-94625000D02*
X144925000Y-94625000D01*
X136925000Y-103375000D02*
X138974400Y-103375000D01*
X143225000Y-96325000D02*
X143225000Y-97150000D01*
X140200000Y-101824400D02*
X139174500Y-102849900D01*
X147807542Y-92589258D02*
X147798400Y-92598400D01*
X146751600Y-92598400D02*
X145675000Y-93675000D01*
X143225000Y-97150000D02*
X141215407Y-97150000D01*
X140200000Y-98165407D02*
X140200000Y-101824400D01*
X145675000Y-93675000D02*
X145675000Y-94625000D01*
X148431100Y-92589258D02*
X147807542Y-92589258D01*
X141215407Y-97150000D02*
X140200000Y-98165407D01*
X138974400Y-103375000D02*
X139174500Y-103174900D01*
X139174500Y-102849900D02*
X139174500Y-103174900D01*
D49*
%TO.N,/SDA*%
X147944524Y-95955476D02*
X147950000Y-95950000D01*
X150750000Y-105325000D02*
X151750000Y-105325000D01*
X177025000Y-105875000D02*
X179250000Y-105875000D01*
X176950000Y-105950000D02*
X177025000Y-105875000D01*
X176950000Y-105950000D02*
X174399999Y-105949999D01*
X150225000Y-104800000D02*
X150750000Y-105325000D01*
X149730000Y-78250000D02*
X147930000Y-78250000D01*
X176950000Y-105950000D02*
X176950000Y-107450000D01*
X147950000Y-95950000D02*
X148700700Y-95950000D01*
X176950000Y-107450000D02*
X176875000Y-107525000D01*
X147944524Y-95975974D02*
X147944524Y-95955476D01*
%TO.N,/SCL*%
X176650000Y-104175000D02*
X176650000Y-102175000D01*
X176725000Y-104250000D02*
X174150000Y-104250000D01*
X150500000Y-105825000D02*
X149525000Y-104850000D01*
X147428900Y-91737500D02*
X148816400Y-90350000D01*
X154525000Y-90350000D02*
X154525000Y-84745000D01*
X176725000Y-104250000D02*
X176650000Y-104175000D01*
X148816400Y-90350000D02*
X154525000Y-90350000D01*
X173875001Y-104524999D02*
X173875001Y-105425001D01*
X151750000Y-105825000D02*
X150500000Y-105825000D01*
X148287500Y-91737500D02*
X149199937Y-92649937D01*
X154525000Y-84745000D02*
X154430000Y-84650000D01*
X174150000Y-104250000D02*
X173875001Y-104524999D01*
X147428900Y-91737500D02*
X148287500Y-91737500D01*
X177350000Y-104875000D02*
X179250000Y-104875000D01*
X176725000Y-104250000D02*
X177350000Y-104875000D01*
X154430000Y-84650000D02*
X154430000Y-82950000D01*
X149199937Y-92649937D02*
X149199937Y-95200700D01*
%TO.N,/D6*%
X160450000Y-96100000D02*
X158900000Y-94550000D01*
X152450000Y-104325000D02*
X151750000Y-104325000D01*
X153075000Y-104125000D02*
X152650000Y-104125000D01*
X153173900Y-104026100D02*
X153075000Y-104125000D01*
X153173900Y-102975000D02*
X153173900Y-104026100D01*
X158900000Y-94550000D02*
X157077500Y-94550000D01*
X152650000Y-104125000D02*
X152450000Y-104325000D01*
%TO.N,/XOUT32*%
X166225000Y-105180000D02*
X165870000Y-104825000D01*
X165100000Y-107325000D02*
X163250000Y-107325000D01*
X166225000Y-106200000D02*
X166225000Y-105180000D01*
X166225000Y-106200000D02*
X165100000Y-107325000D01*
%TO.N,/D10*%
X153600000Y-99325000D02*
X153225000Y-98950000D01*
X151750000Y-102325000D02*
X152250000Y-102325000D01*
X153225000Y-98950000D02*
X153225000Y-98450000D01*
X152250000Y-102325000D02*
X153600000Y-100975000D01*
X153325000Y-94473900D02*
X153539704Y-94473900D01*
X154115804Y-95050000D02*
X154747500Y-95050000D01*
X153600000Y-100975000D02*
X153600000Y-99325000D01*
X153539704Y-94473900D02*
X154115804Y-95050000D01*
%TO.N,/D11*%
X152263200Y-101325000D02*
X152600000Y-100988200D01*
X152600000Y-100825000D02*
X152597300Y-100822300D01*
X152600000Y-100988200D02*
X152600000Y-100825000D01*
X151750000Y-101325000D02*
X152263200Y-101325000D01*
X152597300Y-99596537D02*
X149700063Y-96699300D01*
X152597300Y-100822300D02*
X152597300Y-99596537D01*
%TO.N,/D12*%
X172366100Y-95548900D02*
X178045000Y-89870000D01*
X164175000Y-95548900D02*
X172366100Y-95548900D01*
X152787500Y-102612500D02*
X152575000Y-102825000D01*
X152812500Y-102612500D02*
X152787500Y-102612500D01*
X154115942Y-101309058D02*
X152812500Y-102612500D01*
X152575000Y-102825000D02*
X151750000Y-102825000D01*
X154115942Y-99925668D02*
X154115942Y-101309058D01*
X178045000Y-89870000D02*
X178045000Y-87940000D01*
%TO.N,/D13*%
X153098900Y-100989300D02*
X153098900Y-100450000D01*
X176400000Y-91088474D02*
X176400000Y-87975000D01*
X164900000Y-95047800D02*
X172440674Y-95047800D01*
X176400000Y-87975000D02*
X178095000Y-86280000D01*
X172440674Y-95047800D02*
X176400000Y-91088474D01*
X152263200Y-101825000D02*
X153098900Y-100989300D01*
X151750000Y-101825000D02*
X152263200Y-101825000D01*
%TO.N,/EN*%
X148275100Y-104350000D02*
X146900000Y-105725100D01*
X148375000Y-104350000D02*
X148275100Y-104350000D01*
%TO.N,/SCK*%
X156750000Y-97725000D02*
X155900000Y-96875000D01*
X156750000Y-98325000D02*
X156750000Y-97725000D01*
X155900000Y-96875000D02*
X155912500Y-96862500D01*
X155912500Y-96862500D02*
X155912500Y-96215000D01*
%TO.N,/~{RESET}*%
X154750000Y-104250000D02*
X155250000Y-104750000D01*
X154775000Y-111000000D02*
X152750000Y-111000000D01*
X146325000Y-112625000D02*
X145500000Y-113450000D01*
X151125000Y-112625000D02*
X148100000Y-112625000D01*
X155250000Y-110525000D02*
X154775000Y-111000000D01*
X155250000Y-104750000D02*
X155250000Y-109825000D01*
X152750000Y-111000000D02*
X151125000Y-112625000D01*
X155250000Y-109825000D02*
X155250000Y-110525000D01*
X145500000Y-113450000D02*
X141400000Y-113450000D01*
X148100000Y-112625000D02*
X146325000Y-112625000D01*
%TO.N,/VBACKUP*%
X156330000Y-68430000D02*
X156300000Y-68400000D01*
X156330000Y-69750000D02*
X156330000Y-68430000D01*
%TO.N,Net-(LED1-A)*%
X181502500Y-87940000D02*
X179695000Y-87940000D01*
X181542500Y-87980000D02*
X181502500Y-87940000D01*
%TO.N,Net-(LED2-A)*%
X181562500Y-86270000D02*
X179755000Y-86270000D01*
X179755000Y-86270000D02*
X179745000Y-86280000D01*
%TO.N,Net-(LED3-A)*%
X181542500Y-84550000D02*
X179805000Y-84550000D01*
X181562500Y-84570000D02*
X181542500Y-84550000D01*
%TO.N,Net-(U4-CAP)*%
X172875000Y-107974999D02*
X172875000Y-109725000D01*
X172875000Y-109725000D02*
X172850000Y-109750000D01*
%TO.N,VIN*%
X145000000Y-107675000D02*
X145075000Y-107750000D01*
X145075000Y-108650000D02*
X145075000Y-107750000D01*
X148375000Y-108925000D02*
X148100000Y-109200000D01*
X137875000Y-105475000D02*
X137875000Y-106025000D01*
X137650000Y-106250000D02*
X134825000Y-106250000D01*
X134300000Y-105725000D02*
X134300000Y-107275000D01*
X148100000Y-109200000D02*
X145625000Y-109200000D01*
X134300000Y-107275000D02*
X134350000Y-107325000D01*
X145350000Y-108925000D02*
X145075000Y-108650000D01*
X145000000Y-105725100D02*
X145000000Y-107675000D01*
X134825000Y-106250000D02*
X134300000Y-105725000D01*
X137875000Y-106025000D02*
X137650000Y-106250000D01*
X145625000Y-109200000D02*
X145350000Y-108925000D01*
X148375000Y-106050000D02*
X148375000Y-108925000D01*
%TO.N,VDDA*%
X165850000Y-100720000D02*
X165720000Y-100850000D01*
X165700000Y-103550000D02*
X164925000Y-104325000D01*
X165700000Y-102525000D02*
X165700000Y-103550000D01*
X164925000Y-104325000D02*
X163250000Y-104325000D01*
X164925000Y-106050000D02*
X164925000Y-104325000D01*
X165700000Y-102525000D02*
X165700000Y-100870000D01*
X163250000Y-106325000D02*
X164650000Y-106325000D01*
X165700000Y-100870000D02*
X165720000Y-100850000D01*
X164650000Y-106325000D02*
X164925000Y-106050000D01*
X165850000Y-99300000D02*
X165850000Y-100720000D01*
%TO.N,VCC*%
X155750000Y-111075000D02*
X154575000Y-112250000D01*
X155325000Y-113000000D02*
X154575000Y-112250000D01*
X155750000Y-109825000D02*
X155750000Y-111075000D01*
X158645000Y-112630000D02*
X158275000Y-113000000D01*
X158275000Y-113000000D02*
X155325000Y-113000000D01*
X158645000Y-112200000D02*
X158645000Y-112630000D01*
%TO.N,V_USB*%
X135975000Y-105475000D02*
X135975000Y-105100000D01*
X138300000Y-104425000D02*
X136600000Y-104425000D01*
X139174500Y-106975500D02*
X138500000Y-107650000D01*
X139726400Y-105775100D02*
X139174500Y-105775100D01*
X139174500Y-105775100D02*
X139174500Y-105299500D01*
X138500000Y-107650000D02*
X140175000Y-107650000D01*
X135975000Y-105100000D02*
X134300000Y-103425000D01*
X139174500Y-105299500D02*
X138300000Y-104425000D01*
X142700000Y-102801500D02*
X142700000Y-100350000D01*
X135975000Y-105050000D02*
X135975000Y-105475000D01*
X139726400Y-105775100D02*
X142700000Y-102801500D01*
X139174500Y-105775100D02*
X139174500Y-106975500D01*
X136600000Y-104425000D02*
X135975000Y-105050000D01*
%TO.N,Net-(LED4-PadA)*%
X141100000Y-98498000D02*
X142548000Y-98498000D01*
X142548000Y-98498000D02*
X142700000Y-98650000D01*
%TO.N,Net-(U7-STAT)*%
X141074500Y-100277500D02*
X141074500Y-103174900D01*
X141100000Y-100252000D02*
X141074500Y-100277500D01*
%TO.N,/D5*%
X155425000Y-96925000D02*
X155425000Y-96227500D01*
X153750000Y-97625000D02*
X154450000Y-96925000D01*
X155425000Y-96227500D02*
X155412500Y-96215000D01*
X153750000Y-98325000D02*
X153750000Y-97625000D01*
X154450000Y-96925000D02*
X155425000Y-96925000D01*
%TO.N,/D9*%
X175500000Y-106450000D02*
X175525000Y-106475000D01*
X164250000Y-100325000D02*
X163250000Y-100325000D01*
X174399999Y-106450000D02*
X175500000Y-106450000D01*
%TO.N,/D+*%
X149500000Y-106825000D02*
X149425000Y-106750000D01*
X151750000Y-106825000D02*
X149500000Y-106825000D01*
%TO.N,/D-*%
X149400000Y-105950000D02*
X149775000Y-106325000D01*
X149775000Y-106325000D02*
X151750000Y-106325000D01*
%TO.N,/MOSI*%
X157250000Y-97575000D02*
X157250000Y-98325000D01*
X156475000Y-96277500D02*
X156475000Y-96800000D01*
X156412500Y-96215000D02*
X156475000Y-96277500D01*
X156475000Y-96800000D02*
X157250000Y-97575000D01*
%TO.N,/MISO*%
X157725000Y-96697500D02*
X157750000Y-96722500D01*
X157725000Y-96050000D02*
X157725000Y-96697500D01*
X157750000Y-98325000D02*
X157750000Y-96722500D01*
X157077500Y-96050000D02*
X157725000Y-96050000D01*
%TO.N,Net-(U7-PROG)*%
X141074500Y-105775100D02*
X141324900Y-105775100D01*
X141324900Y-105775100D02*
X142975000Y-104125000D01*
%TO.N,/FLASH_CS*%
X165281474Y-96351600D02*
X161598400Y-96351600D01*
X160250000Y-97700000D02*
X160250000Y-98325000D01*
X176698900Y-96375000D02*
X165304874Y-96375000D01*
X165304874Y-96375000D02*
X165281474Y-96351600D01*
X161598400Y-96351600D02*
X160250000Y-97700000D01*
X176875000Y-96551100D02*
X176698900Y-96375000D01*
%TO.N,/SWDIO*%
X158250000Y-109125000D02*
X158448400Y-108926600D01*
X159407770Y-108926600D02*
X159900000Y-108434370D01*
X158448400Y-108926600D02*
X159407770Y-108926600D01*
X158250000Y-109825000D02*
X158250000Y-109125000D01*
X159900000Y-108434370D02*
X159900000Y-104675000D01*
%TO.N,/SWDCLK*%
X157750000Y-109125000D02*
X157750000Y-109825000D01*
X159200000Y-107675000D02*
X157750000Y-109125000D01*
X159200000Y-104400000D02*
X159200000Y-107675000D01*
%TO.N,/FLASH_MOSI*%
X161873326Y-96978200D02*
X175811524Y-96978200D01*
X175811524Y-96978200D02*
X176491662Y-97658338D01*
X161250000Y-98325000D02*
X161250000Y-97601526D01*
X161250000Y-97601526D02*
X161873326Y-96978200D01*
%TO.N,/FLASH_SCK*%
X161748400Y-96676600D02*
X160750000Y-97675000D01*
X176279046Y-96676600D02*
X161748400Y-96676600D01*
X160750000Y-97675000D02*
X160750000Y-98325000D01*
X177223953Y-97621507D02*
X176279046Y-96676600D01*
%TO.N,/FLASH_MISO*%
X177625000Y-96050000D02*
X161425000Y-96050000D01*
X161425000Y-96050000D02*
X159750000Y-97725000D01*
X159750000Y-97725000D02*
X159750000Y-98325000D01*
X177675000Y-96100000D02*
X177625000Y-96050000D01*
%TO.N,/D7*%
X153300000Y-104825000D02*
X151750000Y-104825000D01*
X153675000Y-104450000D02*
X153300000Y-104825000D01*
%TD*%
%TA.AperFunction,Conductor*%
%TO.N,GND*%
G36*
X181861436Y-62062181D02*
G01*
X182136755Y-62077955D01*
X182142371Y-62078600D01*
X182337723Y-62112490D01*
X182412700Y-62125497D01*
X182418214Y-62126782D01*
X182681425Y-62204267D01*
X182686745Y-62206171D01*
X182939360Y-62313226D01*
X182944446Y-62315734D01*
X183183165Y-62450952D01*
X183187932Y-62454025D01*
X183409631Y-62615638D01*
X183414015Y-62619236D01*
X183615798Y-62805132D01*
X183619737Y-62809202D01*
X183798963Y-63016953D01*
X183802400Y-63021433D01*
X183896763Y-63160172D01*
X183956700Y-63248295D01*
X183959616Y-63253159D01*
X184086977Y-63496169D01*
X184089318Y-63501334D01*
X184188069Y-63757295D01*
X184189804Y-63762695D01*
X184233909Y-63932819D01*
X184237076Y-63957296D01*
X184253438Y-68366690D01*
X184297899Y-80349134D01*
X184297900Y-102437316D01*
X184278993Y-102495507D01*
X184229493Y-102531471D01*
X184168307Y-102531471D01*
X184164304Y-102530074D01*
X184032488Y-102480910D01*
X184032483Y-102480909D01*
X184032481Y-102480908D01*
X184032477Y-102480908D01*
X183996395Y-102477029D01*
X183972873Y-102474500D01*
X183972870Y-102474500D01*
X181877133Y-102474500D01*
X181877129Y-102474500D01*
X181877128Y-102474501D01*
X181869949Y-102475272D01*
X181817519Y-102480908D01*
X181817514Y-102480909D01*
X181682670Y-102531202D01*
X181567458Y-102617450D01*
X181567450Y-102617458D01*
X181481202Y-102732670D01*
X181430910Y-102867511D01*
X181430908Y-102867522D01*
X181424500Y-102927129D01*
X181424500Y-104222866D01*
X181424501Y-104222870D01*
X181430908Y-104282480D01*
X181430909Y-104282485D01*
X181481202Y-104417329D01*
X181552099Y-104512035D01*
X181567454Y-104532546D01*
X181567457Y-104532548D01*
X181567458Y-104532549D01*
X181682670Y-104618797D01*
X181817511Y-104669089D01*
X181817512Y-104669089D01*
X181817517Y-104669091D01*
X181877127Y-104675500D01*
X183972872Y-104675499D01*
X184032483Y-104669091D01*
X184164304Y-104619924D01*
X184225433Y-104617305D01*
X184276427Y-104651116D01*
X184297809Y-104708444D01*
X184297900Y-104712683D01*
X184297900Y-108037316D01*
X184278993Y-108095507D01*
X184229493Y-108131471D01*
X184168307Y-108131471D01*
X184164304Y-108130074D01*
X184032488Y-108080910D01*
X184032483Y-108080909D01*
X184032481Y-108080908D01*
X184032477Y-108080908D01*
X184001249Y-108077550D01*
X183972873Y-108074500D01*
X183972870Y-108074500D01*
X181877133Y-108074500D01*
X181877129Y-108074500D01*
X181877128Y-108074501D01*
X181869949Y-108075272D01*
X181817519Y-108080908D01*
X181817514Y-108080909D01*
X181682670Y-108131202D01*
X181567458Y-108217450D01*
X181567450Y-108217458D01*
X181481202Y-108332670D01*
X181430910Y-108467511D01*
X181430908Y-108467522D01*
X181427090Y-108503033D01*
X181424783Y-108524500D01*
X181424500Y-108527129D01*
X181424500Y-109822866D01*
X181424501Y-109822870D01*
X181430908Y-109882480D01*
X181430909Y-109882485D01*
X181481202Y-110017329D01*
X181563872Y-110127761D01*
X181567454Y-110132546D01*
X181567457Y-110132548D01*
X181567458Y-110132549D01*
X181682670Y-110218797D01*
X181817511Y-110269089D01*
X181817512Y-110269089D01*
X181817517Y-110269091D01*
X181877127Y-110275500D01*
X183972872Y-110275499D01*
X184032483Y-110269091D01*
X184164304Y-110219924D01*
X184225433Y-110217305D01*
X184276427Y-110251116D01*
X184297809Y-110308444D01*
X184297900Y-110312683D01*
X184297900Y-113403619D01*
X184297590Y-113406052D01*
X184297890Y-113442931D01*
X184297824Y-113445921D01*
X184282804Y-113732965D01*
X184282132Y-113738910D01*
X184232884Y-114020556D01*
X184231500Y-114026376D01*
X184148661Y-114300042D01*
X184146586Y-114305653D01*
X184085633Y-114444089D01*
X184034824Y-114559485D01*
X184031366Y-114567338D01*
X184028631Y-114572654D01*
X184022839Y-114582414D01*
X183882706Y-114818546D01*
X183879348Y-114823497D01*
X183704852Y-115050005D01*
X183700921Y-115054516D01*
X183500397Y-115258338D01*
X183495952Y-115262341D01*
X183272319Y-115440509D01*
X183267424Y-115443947D01*
X183025121Y-115593140D01*
X183023953Y-115593859D01*
X183018678Y-115596682D01*
X182758909Y-115716154D01*
X182753332Y-115718321D01*
X182481046Y-115805616D01*
X182475249Y-115807095D01*
X182313193Y-115838164D01*
X182194436Y-115860931D01*
X182188510Y-115861700D01*
X182090628Y-115868424D01*
X181901973Y-115881384D01*
X181898599Y-115881500D01*
X128601280Y-115881500D01*
X128600029Y-115881338D01*
X128562191Y-115881494D01*
X128559201Y-115881416D01*
X128366252Y-115870543D01*
X128268466Y-115865032D01*
X128262530Y-115864336D01*
X127977387Y-115813295D01*
X127971573Y-115811887D01*
X127694660Y-115726849D01*
X127689057Y-115724750D01*
X127424413Y-115606955D01*
X127419104Y-115604196D01*
X127170594Y-115455365D01*
X127165656Y-115451987D01*
X126936886Y-115274278D01*
X126932391Y-115270329D01*
X126922454Y-115260474D01*
X126811485Y-115150418D01*
X126726718Y-115066349D01*
X126722732Y-115061888D01*
X126715908Y-115053252D01*
X126543142Y-114834604D01*
X126539724Y-114829696D01*
X126388835Y-114582414D01*
X126386033Y-114577128D01*
X126378004Y-114559485D01*
X126266049Y-114313461D01*
X126263914Y-114307902D01*
X126176582Y-114031682D01*
X126175128Y-114025884D01*
X126174129Y-114020556D01*
X126121729Y-113741169D01*
X126120985Y-113735244D01*
X126120838Y-113732965D01*
X126112689Y-113606948D01*
X126112591Y-113604224D01*
X126112433Y-113582983D01*
X126750500Y-113582983D01*
X126790138Y-113845965D01*
X126790140Y-113845975D01*
X126868533Y-114100116D01*
X126971276Y-114313465D01*
X126983929Y-114339738D01*
X127133750Y-114559485D01*
X127133753Y-114559488D01*
X127133755Y-114559491D01*
X127314647Y-114754446D01*
X127314659Y-114754457D01*
X127522576Y-114920265D01*
X127522585Y-114920272D01*
X127522589Y-114920274D01*
X127522590Y-114920275D01*
X127752901Y-115053245D01*
X127752905Y-115053247D01*
X127752914Y-115053252D01*
X128000490Y-115150419D01*
X128259783Y-115209601D01*
X128326055Y-115214567D01*
X128458591Y-115224500D01*
X128458599Y-115224500D01*
X128591409Y-115224500D01*
X128713749Y-115215331D01*
X128790217Y-115209601D01*
X129049510Y-115150419D01*
X129297086Y-115053252D01*
X129527415Y-114920272D01*
X129735351Y-114754448D01*
X129916250Y-114559485D01*
X130066071Y-114339738D01*
X130181467Y-114100116D01*
X130259861Y-113845971D01*
X130299500Y-113582980D01*
X130299500Y-113317020D01*
X130259861Y-113054029D01*
X130181467Y-112799884D01*
X130066071Y-112560262D01*
X129916250Y-112340515D01*
X129869850Y-112290508D01*
X129735352Y-112145553D01*
X129735340Y-112145542D01*
X129527423Y-111979734D01*
X129527409Y-111979724D01*
X129297098Y-111846754D01*
X129297089Y-111846749D01*
X129297086Y-111846748D01*
X129297082Y-111846746D01*
X129297079Y-111846745D01*
X129050577Y-111749999D01*
X140450000Y-111749999D01*
X140450001Y-111750000D01*
X141299999Y-111750000D01*
X141300000Y-111749999D01*
X141300000Y-111749998D01*
X141500000Y-111749998D01*
X141500001Y-111750000D01*
X142349999Y-111750000D01*
X142350000Y-111749999D01*
X144550000Y-111749999D01*
X144550001Y-111750000D01*
X145399999Y-111750000D01*
X145400000Y-111749999D01*
X145600000Y-111749999D01*
X145600001Y-111750000D01*
X146449999Y-111750000D01*
X146450000Y-111749999D01*
X146450000Y-111302175D01*
X146443598Y-111242629D01*
X146443596Y-111242618D01*
X146393353Y-111107911D01*
X146393352Y-111107909D01*
X146307192Y-110992815D01*
X146307184Y-110992807D01*
X146192090Y-110906647D01*
X146192088Y-110906646D01*
X146057381Y-110856403D01*
X146057370Y-110856401D01*
X145997824Y-110850000D01*
X145600001Y-110850000D01*
X145600000Y-110850001D01*
X145600000Y-111749999D01*
X145400000Y-111749999D01*
X145400000Y-110850001D01*
X145399999Y-110850000D01*
X145002176Y-110850000D01*
X144942629Y-110856401D01*
X144942618Y-110856403D01*
X144807911Y-110906646D01*
X144807909Y-110906647D01*
X144692815Y-110992807D01*
X144692807Y-110992815D01*
X144606647Y-111107909D01*
X144606646Y-111107911D01*
X144556403Y-111242618D01*
X144556401Y-111242629D01*
X144550000Y-111302175D01*
X144550000Y-111749999D01*
X142350000Y-111749999D01*
X142350000Y-111302175D01*
X142343598Y-111242629D01*
X142343596Y-111242618D01*
X142293353Y-111107911D01*
X142293352Y-111107909D01*
X142207192Y-110992815D01*
X142207184Y-110992807D01*
X142092090Y-110906647D01*
X142092088Y-110906646D01*
X141957381Y-110856403D01*
X141957370Y-110856401D01*
X141897824Y-110850000D01*
X141500001Y-110850000D01*
X141500000Y-110850001D01*
X141500000Y-111749998D01*
X141300000Y-111749998D01*
X141300000Y-110850001D01*
X141299999Y-110850000D01*
X140902176Y-110850000D01*
X140842629Y-110856401D01*
X140842618Y-110856403D01*
X140707911Y-110906646D01*
X140707909Y-110906647D01*
X140592815Y-110992807D01*
X140592807Y-110992815D01*
X140506647Y-111107909D01*
X140506646Y-111107911D01*
X140456403Y-111242618D01*
X140456401Y-111242629D01*
X140450000Y-111302175D01*
X140450000Y-111749999D01*
X129050577Y-111749999D01*
X129049512Y-111749581D01*
X128790221Y-111690400D01*
X128790212Y-111690398D01*
X128591409Y-111675500D01*
X128591401Y-111675500D01*
X128458599Y-111675500D01*
X128458591Y-111675500D01*
X128259787Y-111690398D01*
X128259778Y-111690400D01*
X128000487Y-111749581D01*
X127752920Y-111846745D01*
X127752901Y-111846754D01*
X127522590Y-111979724D01*
X127522576Y-111979734D01*
X127314659Y-112145542D01*
X127314647Y-112145553D01*
X127133755Y-112340508D01*
X127133750Y-112340514D01*
X127133750Y-112340515D01*
X126983929Y-112560262D01*
X126983927Y-112560265D01*
X126983925Y-112560269D01*
X126868533Y-112799883D01*
X126790140Y-113054024D01*
X126790138Y-113054034D01*
X126750500Y-113317016D01*
X126750500Y-113582983D01*
X126112433Y-113582983D01*
X126102100Y-112190522D01*
X126102100Y-108127772D01*
X126121007Y-108069581D01*
X126170507Y-108033617D01*
X126231693Y-108033617D01*
X126281193Y-108069581D01*
X126285588Y-108076170D01*
X126289216Y-108082109D01*
X126291932Y-108087203D01*
X126293454Y-108090507D01*
X126293457Y-108090512D01*
X126295903Y-108094294D01*
X126297609Y-108097136D01*
X126302168Y-108105342D01*
X126302175Y-108105351D01*
X126307014Y-108111718D01*
X126309844Y-108115862D01*
X126318209Y-108129552D01*
X126319165Y-108131185D01*
X126324991Y-108141598D01*
X126333046Y-108152132D01*
X126333708Y-108152998D01*
X126335944Y-108156173D01*
X126343732Y-108168209D01*
X126343742Y-108168223D01*
X126349406Y-108174718D01*
X126353610Y-108180289D01*
X126357261Y-108185910D01*
X126357264Y-108185913D01*
X126357266Y-108185916D01*
X126364837Y-108194569D01*
X126368998Y-108199324D01*
X126371067Y-108201852D01*
X126381911Y-108216033D01*
X126387978Y-108221977D01*
X126389523Y-108223560D01*
X126399890Y-108234668D01*
X126400939Y-108235829D01*
X126411318Y-108247690D01*
X126412645Y-108249272D01*
X126418158Y-108256131D01*
X126418161Y-108256134D01*
X126418163Y-108256136D01*
X126430596Y-108267740D01*
X126433006Y-108270150D01*
X126444619Y-108282592D01*
X126451486Y-108288111D01*
X126453039Y-108289415D01*
X126464933Y-108299822D01*
X126466110Y-108300886D01*
X126477040Y-108311087D01*
X126477197Y-108311233D01*
X126478782Y-108312780D01*
X126484716Y-108318837D01*
X126498882Y-108329670D01*
X126501408Y-108331737D01*
X126514830Y-108343481D01*
X126514832Y-108343482D01*
X126514834Y-108343484D01*
X126520459Y-108347138D01*
X126526026Y-108351340D01*
X126532532Y-108357012D01*
X126532540Y-108357018D01*
X126544588Y-108364814D01*
X126547760Y-108367047D01*
X126559152Y-108375759D01*
X126569590Y-108381598D01*
X126571188Y-108382534D01*
X126584898Y-108390912D01*
X126589024Y-108393729D01*
X126593767Y-108397334D01*
X126595401Y-108398577D01*
X126595405Y-108398580D01*
X126597529Y-108399759D01*
X126603641Y-108403155D01*
X126606455Y-108404844D01*
X126610239Y-108407293D01*
X126610667Y-108407490D01*
X126613540Y-108408813D01*
X126618647Y-108411536D01*
X126637697Y-108423177D01*
X126639150Y-108424102D01*
X126641430Y-108425613D01*
X126657877Y-108433403D01*
X126660703Y-108434856D01*
X126676611Y-108443694D01*
X126676616Y-108443696D01*
X126676620Y-108443698D01*
X126679825Y-108445191D01*
X126679769Y-108445309D01*
X126684940Y-108447767D01*
X126685011Y-108447622D01*
X126688190Y-108449165D01*
X126688195Y-108449168D01*
X126705840Y-108456225D01*
X126708590Y-108457425D01*
X126725775Y-108465566D01*
X126735387Y-108468534D01*
X126735543Y-108468583D01*
X126738046Y-108469429D01*
X126747639Y-108472963D01*
X126748862Y-108473434D01*
X126756333Y-108476423D01*
X126758741Y-108477463D01*
X126761251Y-108478627D01*
X126768617Y-108482043D01*
X126780265Y-108485537D01*
X126786875Y-108487520D01*
X126789766Y-108488484D01*
X126807669Y-108495081D01*
X126807674Y-108495082D01*
X126809196Y-108495523D01*
X126811383Y-108496098D01*
X126816231Y-108497624D01*
X126816246Y-108497630D01*
X126835843Y-108502296D01*
X126838563Y-108503027D01*
X126857874Y-108508820D01*
X126864358Y-108509790D01*
X126866680Y-108510196D01*
X126880538Y-108512968D01*
X126882191Y-108513330D01*
X126892647Y-108515820D01*
X126895010Y-108516446D01*
X126902222Y-108518557D01*
X126904578Y-108518893D01*
X126905547Y-108519042D01*
X126907571Y-108519373D01*
X126907586Y-108519377D01*
X126907601Y-108519378D01*
X126907721Y-108519398D01*
X126909864Y-108519647D01*
X126917473Y-108520735D01*
X126922768Y-108521492D01*
X126925469Y-108521954D01*
X126945814Y-108526024D01*
X126951819Y-108526351D01*
X126958477Y-108527170D01*
X126970344Y-108529458D01*
X126980316Y-108529932D01*
X126984934Y-108530371D01*
X126994801Y-108531782D01*
X127015361Y-108531763D01*
X127029547Y-108532771D01*
X127036347Y-108533750D01*
X127059301Y-108533750D01*
X127061655Y-108533806D01*
X127062744Y-108533857D01*
X127084568Y-108534897D01*
X127093052Y-108534086D01*
X127094234Y-108533974D01*
X127098942Y-108533750D01*
X128618000Y-108533750D01*
X128676191Y-108552657D01*
X128712155Y-108602157D01*
X128714836Y-108619090D01*
X128715993Y-108618924D01*
X128717000Y-108625931D01*
X128725297Y-108654187D01*
X128728299Y-108667991D01*
X128732488Y-108697128D01*
X128732488Y-108697131D01*
X128744720Y-108723915D01*
X128749655Y-108737146D01*
X128757950Y-108765397D01*
X128757952Y-108765400D01*
X128757953Y-108765402D01*
X128773877Y-108790182D01*
X128780640Y-108802568D01*
X128792872Y-108829350D01*
X128792872Y-108829351D01*
X128792873Y-108829352D01*
X128792874Y-108829354D01*
X128812158Y-108851608D01*
X128820617Y-108862909D01*
X128824520Y-108868982D01*
X128836540Y-108887686D01*
X128858792Y-108906968D01*
X128868778Y-108916953D01*
X128888061Y-108939206D01*
X128888065Y-108939211D01*
X128903549Y-108949161D01*
X128912829Y-108955125D01*
X128912836Y-108955129D01*
X128924146Y-108963596D01*
X128946396Y-108982876D01*
X128973179Y-108995107D01*
X128985567Y-109001871D01*
X129010348Y-109017797D01*
X129038608Y-109026094D01*
X129051824Y-109031023D01*
X129078620Y-109043261D01*
X129107768Y-109047451D01*
X129121566Y-109050453D01*
X129149820Y-109058750D01*
X129149821Y-109058750D01*
X129995178Y-109058750D01*
X129995180Y-109058750D01*
X130019606Y-109051577D01*
X130075392Y-109051577D01*
X130099816Y-109058749D01*
X130099817Y-109058749D01*
X130099820Y-109058750D01*
X130099821Y-109058750D01*
X131705179Y-109058750D01*
X131705180Y-109058750D01*
X131733438Y-109050451D01*
X131747228Y-109047451D01*
X131776380Y-109043261D01*
X131803163Y-109031029D01*
X131816394Y-109026093D01*
X131844652Y-109017797D01*
X131869425Y-109001875D01*
X131881820Y-108995108D01*
X131897040Y-108988157D01*
X131908604Y-108982876D01*
X131930858Y-108963591D01*
X131942150Y-108955137D01*
X131966936Y-108939210D01*
X131986221Y-108916952D01*
X131996202Y-108906971D01*
X132018460Y-108887686D01*
X132034387Y-108862900D01*
X132042841Y-108851608D01*
X132062126Y-108829354D01*
X132074359Y-108802568D01*
X132081127Y-108790174D01*
X132097047Y-108765402D01*
X132105343Y-108737144D01*
X132110281Y-108723908D01*
X132110922Y-108722506D01*
X132122511Y-108697130D01*
X132126701Y-108667978D01*
X132129702Y-108654187D01*
X132138000Y-108625930D01*
X132138000Y-108480570D01*
X132138000Y-108480569D01*
X132138000Y-106517097D01*
X132138000Y-106517096D01*
X132138000Y-106480570D01*
X132129703Y-106452316D01*
X132126700Y-106438513D01*
X132122511Y-106409370D01*
X132110273Y-106382574D01*
X132105343Y-106369353D01*
X132097047Y-106341098D01*
X132096611Y-106340420D01*
X132082002Y-106317687D01*
X132066450Y-106258513D01*
X132066855Y-106253584D01*
X132072500Y-106201074D01*
X132072499Y-106053251D01*
X132072499Y-106053250D01*
X131970405Y-106053250D01*
X131912214Y-106034343D01*
X131876250Y-105984843D01*
X131876250Y-105923657D01*
X131911081Y-105874993D01*
X131913753Y-105872993D01*
X131971669Y-105853260D01*
X131973077Y-105853250D01*
X132072499Y-105853250D01*
X132072500Y-105853248D01*
X132072500Y-105703195D01*
X132091407Y-105645004D01*
X132140907Y-105609040D01*
X132202093Y-105609040D01*
X132210668Y-105612480D01*
X132212975Y-105613287D01*
X132212978Y-105613289D01*
X132303614Y-105645004D01*
X132383238Y-105672866D01*
X132383242Y-105672867D01*
X132383245Y-105672868D01*
X132562500Y-105693065D01*
X132741755Y-105672868D01*
X132912022Y-105613289D01*
X133064762Y-105517316D01*
X133192316Y-105389762D01*
X133201673Y-105374869D01*
X133248643Y-105335657D01*
X133309689Y-105331541D01*
X133361497Y-105364093D01*
X133384276Y-105420880D01*
X133384500Y-105427540D01*
X133384500Y-106087866D01*
X133384500Y-106087869D01*
X133384501Y-106087872D01*
X133385918Y-106101055D01*
X133390908Y-106147480D01*
X133390909Y-106147485D01*
X133441202Y-106282329D01*
X133527450Y-106397541D01*
X133527454Y-106397546D01*
X133642669Y-106483796D01*
X133642671Y-106483796D01*
X133647942Y-106486675D01*
X133689956Y-106531156D01*
X133699500Y-106573567D01*
X133699500Y-106827134D01*
X133684326Y-106879805D01*
X133624211Y-106975476D01*
X133624211Y-106975477D01*
X133564633Y-107145738D01*
X133564632Y-107145742D01*
X133544435Y-107325000D01*
X133564632Y-107504257D01*
X133564633Y-107504261D01*
X133624211Y-107674522D01*
X133624211Y-107674523D01*
X133720181Y-107827258D01*
X133720184Y-107827262D01*
X133847738Y-107954816D01*
X133847740Y-107954817D01*
X133847741Y-107954818D01*
X133993169Y-108046197D01*
X134000478Y-108050789D01*
X134068240Y-108074500D01*
X134170738Y-108110366D01*
X134170742Y-108110367D01*
X134170745Y-108110368D01*
X134350000Y-108130565D01*
X134529255Y-108110368D01*
X134543619Y-108105342D01*
X134555270Y-108101265D01*
X134699522Y-108050789D01*
X134852262Y-107954816D01*
X134979816Y-107827262D01*
X135075789Y-107674522D01*
X135135368Y-107504255D01*
X135155565Y-107325000D01*
X135135368Y-107145745D01*
X135134686Y-107143797D01*
X135102058Y-107050551D01*
X135078139Y-106982196D01*
X135076767Y-106921028D01*
X135111610Y-106870734D01*
X135169362Y-106850525D01*
X135171584Y-106850500D01*
X135685473Y-106850500D01*
X135743664Y-106869407D01*
X135779628Y-106918907D01*
X135779628Y-106980093D01*
X135778231Y-106984096D01*
X135756403Y-107042618D01*
X135756401Y-107042629D01*
X135750000Y-107102175D01*
X135750000Y-108197824D01*
X135749999Y-108197824D01*
X135756401Y-108257370D01*
X135756403Y-108257381D01*
X135806646Y-108392088D01*
X135806647Y-108392090D01*
X135853671Y-108454905D01*
X136729995Y-107578582D01*
X136784512Y-107550805D01*
X136844944Y-107560376D01*
X136870003Y-107578582D01*
X137420504Y-108129083D01*
X137448281Y-108183600D01*
X137449204Y-108195284D01*
X137449362Y-108195276D01*
X137449440Y-108196745D01*
X137449347Y-108197090D01*
X137449500Y-108199018D01*
X137449501Y-108200456D01*
X137448448Y-108200456D01*
X137433644Y-108255856D01*
X137386121Y-108294394D01*
X137325022Y-108297638D01*
X137280575Y-108271998D01*
X136799999Y-107791422D01*
X136002282Y-108589139D01*
X136007909Y-108593351D01*
X136142621Y-108643596D01*
X136142629Y-108643598D01*
X136202176Y-108650000D01*
X137397824Y-108650000D01*
X137457370Y-108643598D01*
X137457380Y-108643596D01*
X137592087Y-108593354D01*
X137598308Y-108589957D01*
X137599242Y-108591667D01*
X137648150Y-108574990D01*
X137700961Y-108591309D01*
X137701456Y-108590404D01*
X137705917Y-108592840D01*
X137706609Y-108593054D01*
X137707517Y-108593713D01*
X137707668Y-108593796D01*
X137842511Y-108644089D01*
X137842512Y-108644089D01*
X137842517Y-108644091D01*
X137902127Y-108650500D01*
X139097872Y-108650499D01*
X139157483Y-108644091D01*
X139206181Y-108625928D01*
X139298966Y-108591322D01*
X139299679Y-108593234D01*
X139350175Y-108583744D01*
X139375759Y-108592056D01*
X139376034Y-108591322D01*
X139517511Y-108644089D01*
X139517512Y-108644089D01*
X139517517Y-108644091D01*
X139577127Y-108650500D01*
X140772872Y-108650499D01*
X140832483Y-108644091D01*
X140967331Y-108593796D01*
X140967330Y-108593795D01*
X140973544Y-108590404D01*
X140974365Y-108591907D01*
X141023993Y-108574989D01*
X141076077Y-108591087D01*
X141076694Y-108589958D01*
X141082266Y-108593000D01*
X141082449Y-108593057D01*
X141082688Y-108593231D01*
X141082909Y-108593351D01*
X141217621Y-108643596D01*
X141217629Y-108643598D01*
X141277176Y-108650000D01*
X142472824Y-108650000D01*
X142532370Y-108643598D01*
X142532380Y-108643596D01*
X142667087Y-108593354D01*
X142667090Y-108593352D01*
X142672716Y-108589139D01*
X141874999Y-107791421D01*
X141394425Y-108271996D01*
X141339908Y-108299773D01*
X141279476Y-108290202D01*
X141236211Y-108246937D01*
X141226393Y-108200591D01*
X141225500Y-108200592D01*
X141225499Y-108199155D01*
X141225855Y-108198053D01*
X141225564Y-108196676D01*
X141225643Y-108195207D01*
X141226759Y-108195267D01*
X141244366Y-108140951D01*
X141254495Y-108129082D01*
X141804995Y-107578582D01*
X141859512Y-107550805D01*
X141919944Y-107560376D01*
X141945003Y-107578582D01*
X142821327Y-108454905D01*
X142868355Y-108392084D01*
X142918596Y-108257381D01*
X142918598Y-108257370D01*
X142925000Y-108197824D01*
X142925000Y-107102175D01*
X142918598Y-107042629D01*
X142918596Y-107042622D01*
X142905906Y-107008597D01*
X142903285Y-106947468D01*
X142937096Y-106896473D01*
X142994424Y-106875091D01*
X142998664Y-106875000D01*
X143125500Y-106875000D01*
X143183691Y-106893907D01*
X143219655Y-106943407D01*
X143224500Y-106974000D01*
X143224500Y-108470014D01*
X143222904Y-108484464D01*
X143222913Y-108484465D01*
X143222326Y-108490667D01*
X143223310Y-108521956D01*
X143224476Y-108559068D01*
X143224500Y-108560586D01*
X143224500Y-108589353D01*
X143225442Y-108596820D01*
X143225808Y-108601466D01*
X143227291Y-108648630D01*
X143227291Y-108648633D01*
X143233428Y-108669755D01*
X143236578Y-108684966D01*
X143239334Y-108706787D01*
X143256704Y-108750660D01*
X143258215Y-108755073D01*
X143271381Y-108800388D01*
X143271382Y-108800390D01*
X143282580Y-108819325D01*
X143289412Y-108833272D01*
X143297512Y-108853727D01*
X143297514Y-108853732D01*
X143325251Y-108891909D01*
X143327812Y-108895808D01*
X143351828Y-108936418D01*
X143351828Y-108936419D01*
X143367389Y-108951980D01*
X143377473Y-108963786D01*
X143390406Y-108981587D01*
X143390407Y-108981588D01*
X143390408Y-108981589D01*
X143390410Y-108981591D01*
X143426758Y-109011660D01*
X143430210Y-109014801D01*
X144451151Y-110035742D01*
X144460237Y-110047084D01*
X144460244Y-110047079D01*
X144464212Y-110051875D01*
X144514069Y-110098696D01*
X144515185Y-110099777D01*
X144527444Y-110112035D01*
X144535529Y-110120120D01*
X144541472Y-110124730D01*
X144545017Y-110127758D01*
X144579418Y-110160062D01*
X144598697Y-110170660D01*
X144611681Y-110179189D01*
X144629064Y-110192673D01*
X144672375Y-110211416D01*
X144676565Y-110213469D01*
X144686257Y-110218797D01*
X144717908Y-110236197D01*
X144733093Y-110240095D01*
X144739206Y-110241665D01*
X144753907Y-110246698D01*
X144774101Y-110255437D01*
X144774102Y-110255437D01*
X144774104Y-110255438D01*
X144820714Y-110262820D01*
X144825264Y-110263761D01*
X144846012Y-110269089D01*
X144870975Y-110275499D01*
X144870979Y-110275499D01*
X144870981Y-110275500D01*
X144892982Y-110275500D01*
X144908469Y-110276718D01*
X144930196Y-110280160D01*
X144961451Y-110277205D01*
X144977172Y-110275720D01*
X144981833Y-110275500D01*
X147000500Y-110275500D01*
X147058691Y-110294407D01*
X147094655Y-110343907D01*
X147099500Y-110374500D01*
X147099500Y-111522866D01*
X147099501Y-111522870D01*
X147105908Y-111582480D01*
X147105909Y-111582485D01*
X147156203Y-111717331D01*
X147159596Y-111723544D01*
X147157951Y-111724442D01*
X147174698Y-111773588D01*
X147158530Y-111825874D01*
X147159596Y-111826456D01*
X147156723Y-111831715D01*
X147156623Y-111832042D01*
X147156311Y-111832470D01*
X147156203Y-111832668D01*
X147108677Y-111960096D01*
X147070627Y-112008011D01*
X147015919Y-112024500D01*
X146549000Y-112024500D01*
X146490809Y-112005593D01*
X146454845Y-111956093D01*
X146454610Y-111954611D01*
X146449999Y-111950000D01*
X144550000Y-111950000D01*
X144550000Y-112397824D01*
X144549999Y-112397824D01*
X144556401Y-112457370D01*
X144556403Y-112457381D01*
X144606646Y-112592089D01*
X144610039Y-112598302D01*
X144608333Y-112599233D01*
X144625010Y-112648171D01*
X144608686Y-112700959D01*
X144609596Y-112701456D01*
X144607145Y-112705942D01*
X144606935Y-112706625D01*
X144606284Y-112707519D01*
X144606203Y-112707669D01*
X144577325Y-112785096D01*
X144539275Y-112833011D01*
X144484567Y-112849500D01*
X142415433Y-112849500D01*
X142357242Y-112830593D01*
X142322675Y-112785096D01*
X142293797Y-112707670D01*
X142290404Y-112701457D01*
X142291907Y-112700636D01*
X142274989Y-112651004D01*
X142291090Y-112598917D01*
X142289961Y-112598301D01*
X142293004Y-112592728D01*
X142293060Y-112592548D01*
X142293232Y-112592311D01*
X142293354Y-112592087D01*
X142343596Y-112457381D01*
X142343598Y-112457370D01*
X142350000Y-112397824D01*
X142350000Y-111950001D01*
X142349999Y-111950000D01*
X140450001Y-111950000D01*
X140450000Y-111950001D01*
X140450000Y-112397824D01*
X140449999Y-112397824D01*
X140456401Y-112457370D01*
X140456403Y-112457381D01*
X140506646Y-112592089D01*
X140510039Y-112598302D01*
X140508333Y-112599233D01*
X140525010Y-112648171D01*
X140508686Y-112700959D01*
X140509596Y-112701456D01*
X140507145Y-112705942D01*
X140506935Y-112706625D01*
X140506284Y-112707519D01*
X140506203Y-112707668D01*
X140455910Y-112842511D01*
X140455908Y-112842517D01*
X140455909Y-112842517D01*
X140450332Y-112894394D01*
X140449500Y-112902129D01*
X140449500Y-113997866D01*
X140449501Y-113997870D01*
X140455908Y-114057480D01*
X140455909Y-114057485D01*
X140506202Y-114192329D01*
X140588984Y-114302911D01*
X140592454Y-114307546D01*
X140592457Y-114307548D01*
X140592458Y-114307549D01*
X140707670Y-114393797D01*
X140842511Y-114444089D01*
X140842512Y-114444089D01*
X140842517Y-114444091D01*
X140902127Y-114450500D01*
X141897872Y-114450499D01*
X141957483Y-114444091D01*
X142024907Y-114418943D01*
X142092329Y-114393797D01*
X142092329Y-114393796D01*
X142092331Y-114393796D01*
X142207546Y-114307546D01*
X142293796Y-114192331D01*
X142298727Y-114179110D01*
X142322675Y-114114904D01*
X142360725Y-114066989D01*
X142415433Y-114050500D01*
X144484567Y-114050500D01*
X144542758Y-114069407D01*
X144577325Y-114114904D01*
X144606202Y-114192329D01*
X144688984Y-114302911D01*
X144692454Y-114307546D01*
X144692457Y-114307548D01*
X144692458Y-114307549D01*
X144807670Y-114393797D01*
X144942511Y-114444089D01*
X144942512Y-114444089D01*
X144942517Y-114444091D01*
X145002127Y-114450500D01*
X145997872Y-114450499D01*
X146057483Y-114444091D01*
X146124907Y-114418943D01*
X146192329Y-114393797D01*
X146192329Y-114393796D01*
X146192331Y-114393796D01*
X146307546Y-114307546D01*
X146393796Y-114192331D01*
X146444091Y-114057483D01*
X146450500Y-113997873D01*
X146450499Y-113389741D01*
X146469406Y-113331551D01*
X146479496Y-113319738D01*
X146544739Y-113254496D01*
X146599256Y-113226719D01*
X146614742Y-113225500D01*
X147015918Y-113225500D01*
X147074109Y-113244407D01*
X147108676Y-113289903D01*
X147156203Y-113417330D01*
X147236457Y-113524536D01*
X147242454Y-113532546D01*
X147242457Y-113532548D01*
X147242458Y-113532549D01*
X147357670Y-113618797D01*
X147492511Y-113669089D01*
X147492512Y-113669089D01*
X147492517Y-113669091D01*
X147552127Y-113675500D01*
X148647872Y-113675499D01*
X148707483Y-113669091D01*
X148774907Y-113643943D01*
X148842329Y-113618797D01*
X148842329Y-113618796D01*
X148842331Y-113618796D01*
X148957546Y-113532546D01*
X149043796Y-113417331D01*
X149091323Y-113289903D01*
X149129373Y-113241989D01*
X149184081Y-113225500D01*
X151082391Y-113225500D01*
X151088859Y-113225924D01*
X151124999Y-113230682D01*
X151125000Y-113230682D01*
X151125001Y-113230682D01*
X151164361Y-113225500D01*
X151281762Y-113210044D01*
X151427841Y-113149536D01*
X151434937Y-113144091D01*
X151534489Y-113067701D01*
X151553281Y-113053283D01*
X151553281Y-113053282D01*
X151553282Y-113053282D01*
X151575475Y-113024357D01*
X151579744Y-113019490D01*
X151607144Y-112992090D01*
X151698150Y-112901083D01*
X151752665Y-112873308D01*
X151813097Y-112882879D01*
X151856362Y-112926144D01*
X151860910Y-112936492D01*
X151881647Y-112992090D01*
X151928671Y-113054905D01*
X152804995Y-112178582D01*
X152859512Y-112150805D01*
X152919944Y-112160376D01*
X152945003Y-112178582D01*
X153495504Y-112729083D01*
X153523281Y-112783600D01*
X153524204Y-112795284D01*
X153524362Y-112795276D01*
X153524440Y-112796745D01*
X153524347Y-112797090D01*
X153524500Y-112799018D01*
X153524501Y-112800456D01*
X153523448Y-112800456D01*
X153508644Y-112855856D01*
X153461121Y-112894394D01*
X153400022Y-112897638D01*
X153355575Y-112871998D01*
X152874999Y-112391422D01*
X152077282Y-113189139D01*
X152082909Y-113193351D01*
X152217621Y-113243596D01*
X152217629Y-113243598D01*
X152277176Y-113250000D01*
X153472824Y-113250000D01*
X153532370Y-113243598D01*
X153532380Y-113243596D01*
X153667087Y-113193354D01*
X153673308Y-113189957D01*
X153674242Y-113191667D01*
X153723150Y-113174990D01*
X153775961Y-113191309D01*
X153776456Y-113190404D01*
X153780917Y-113192840D01*
X153781609Y-113193054D01*
X153782517Y-113193713D01*
X153782668Y-113193796D01*
X153917511Y-113244089D01*
X153917512Y-113244089D01*
X153917517Y-113244091D01*
X153977127Y-113250500D01*
X154685256Y-113250499D01*
X154743447Y-113269406D01*
X154755260Y-113279495D01*
X154870255Y-113394491D01*
X154874529Y-113399365D01*
X154888117Y-113417074D01*
X154896718Y-113428282D01*
X154998916Y-113506701D01*
X155012613Y-113517211D01*
X155022157Y-113524535D01*
X155022161Y-113524537D01*
X155163255Y-113582980D01*
X155168238Y-113585044D01*
X155285639Y-113600500D01*
X155324999Y-113605682D01*
X155325000Y-113605682D01*
X155325001Y-113605682D01*
X155361141Y-113600924D01*
X155367609Y-113600500D01*
X158232391Y-113600500D01*
X158238859Y-113600924D01*
X158274999Y-113605682D01*
X158275000Y-113605682D01*
X158275001Y-113605682D01*
X158314361Y-113600500D01*
X158431762Y-113585044D01*
X158557448Y-113532983D01*
X180100500Y-113532983D01*
X180140138Y-113795965D01*
X180140140Y-113795975D01*
X180202416Y-113997866D01*
X180218533Y-114050116D01*
X180333929Y-114289738D01*
X180483750Y-114509485D01*
X180483753Y-114509488D01*
X180483755Y-114509491D01*
X180664647Y-114704446D01*
X180664659Y-114704457D01*
X180810954Y-114821123D01*
X180872585Y-114870272D01*
X180872589Y-114870274D01*
X180872590Y-114870275D01*
X181102901Y-115003245D01*
X181102905Y-115003247D01*
X181102914Y-115003252D01*
X181350490Y-115100419D01*
X181609783Y-115159601D01*
X181676054Y-115164567D01*
X181808591Y-115174500D01*
X181808599Y-115174500D01*
X181941409Y-115174500D01*
X182063749Y-115165331D01*
X182140217Y-115159601D01*
X182399510Y-115100419D01*
X182647086Y-115003252D01*
X182877415Y-114870272D01*
X183085351Y-114704448D01*
X183266250Y-114509485D01*
X183416071Y-114289738D01*
X183531467Y-114050116D01*
X183609861Y-113795971D01*
X183649500Y-113532980D01*
X183649500Y-113267020D01*
X183609861Y-113004029D01*
X183531467Y-112749884D01*
X183416071Y-112510262D01*
X183266250Y-112290515D01*
X183179219Y-112196718D01*
X183085352Y-112095553D01*
X183085340Y-112095542D01*
X182877423Y-111929734D01*
X182877409Y-111929724D01*
X182647098Y-111796754D01*
X182647089Y-111796749D01*
X182647086Y-111796748D01*
X182647082Y-111796746D01*
X182647079Y-111796745D01*
X182399512Y-111699581D01*
X182149939Y-111642618D01*
X182140217Y-111640399D01*
X182140216Y-111640398D01*
X182140212Y-111640398D01*
X181941409Y-111625500D01*
X181941401Y-111625500D01*
X181808599Y-111625500D01*
X181808591Y-111625500D01*
X181609787Y-111640398D01*
X181609778Y-111640400D01*
X181350487Y-111699581D01*
X181102920Y-111796745D01*
X181102901Y-111796754D01*
X180872590Y-111929724D01*
X180872576Y-111929734D01*
X180664659Y-112095542D01*
X180664647Y-112095553D01*
X180483755Y-112290508D01*
X180483750Y-112290514D01*
X180483750Y-112290515D01*
X180333929Y-112510262D01*
X180333927Y-112510265D01*
X180333925Y-112510269D01*
X180218533Y-112749883D01*
X180140140Y-113004024D01*
X180140138Y-113004034D01*
X180100500Y-113267016D01*
X180100500Y-113532983D01*
X158557448Y-113532983D01*
X158577841Y-113524536D01*
X158601084Y-113506701D01*
X158664699Y-113457887D01*
X158703280Y-113428284D01*
X158703280Y-113428283D01*
X158703282Y-113428282D01*
X158725475Y-113399357D01*
X158729744Y-113394490D01*
X158944740Y-113179495D01*
X158999256Y-113151718D01*
X159014743Y-113150499D01*
X159117867Y-113150499D01*
X159117872Y-113150499D01*
X159177483Y-113144091D01*
X159191116Y-113139005D01*
X159252243Y-113136384D01*
X159260313Y-113139006D01*
X159272622Y-113143597D01*
X159272624Y-113143598D01*
X159332176Y-113150000D01*
X160277824Y-113150000D01*
X160337370Y-113143598D01*
X160337381Y-113143596D01*
X160472084Y-113093355D01*
X160520608Y-113057030D01*
X159805000Y-112341420D01*
X159663580Y-112199999D01*
X159946421Y-112199999D01*
X160658436Y-112912014D01*
X160673354Y-112892086D01*
X160723596Y-112757381D01*
X160723598Y-112757370D01*
X160730000Y-112697824D01*
X160730000Y-111702175D01*
X160723598Y-111642629D01*
X160723596Y-111642618D01*
X160673354Y-111507912D01*
X160658436Y-111487984D01*
X159946421Y-112199999D01*
X159663580Y-112199999D01*
X159599495Y-112135914D01*
X159571718Y-112081398D01*
X159570499Y-112065911D01*
X159570499Y-112063084D01*
X159589406Y-112004893D01*
X159638906Y-111968929D01*
X159700092Y-111968929D01*
X159739503Y-111993081D01*
X159804998Y-112058577D01*
X160520608Y-111342968D01*
X160472085Y-111306644D01*
X160337381Y-111256403D01*
X160337370Y-111256401D01*
X160277824Y-111250000D01*
X159332176Y-111250000D01*
X159272629Y-111256401D01*
X159272623Y-111256402D01*
X159260307Y-111260996D01*
X159199177Y-111263613D01*
X159191120Y-111260995D01*
X159177487Y-111255910D01*
X159177484Y-111255909D01*
X159177483Y-111255909D01*
X159177480Y-111255908D01*
X159177477Y-111255908D01*
X159146249Y-111252550D01*
X159117873Y-111249500D01*
X159117870Y-111249500D01*
X158172133Y-111249500D01*
X158172127Y-111249501D01*
X158123491Y-111254729D01*
X158063613Y-111242149D01*
X158022565Y-111196776D01*
X158016026Y-111135941D01*
X158019467Y-111123598D01*
X158035366Y-111078161D01*
X158035367Y-111078157D01*
X158035368Y-111078155D01*
X158053929Y-110913413D01*
X158079233Y-110857707D01*
X158132449Y-110827511D01*
X158152299Y-110825499D01*
X158407872Y-110825499D01*
X158467483Y-110819091D01*
X158467485Y-110819090D01*
X158473511Y-110817667D01*
X158473944Y-110819501D01*
X158526529Y-110817246D01*
X158531385Y-110818823D01*
X158532516Y-110819091D01*
X158536330Y-110819501D01*
X158592127Y-110825500D01*
X158907872Y-110825499D01*
X158967483Y-110819091D01*
X158967485Y-110819090D01*
X158973511Y-110817667D01*
X158973944Y-110819501D01*
X159026529Y-110817246D01*
X159031385Y-110818823D01*
X159032516Y-110819091D01*
X159036330Y-110819501D01*
X159092127Y-110825500D01*
X159407872Y-110825499D01*
X159467483Y-110819091D01*
X159467485Y-110819090D01*
X159473511Y-110817667D01*
X159473944Y-110819501D01*
X159526529Y-110817246D01*
X159531385Y-110818823D01*
X159532516Y-110819091D01*
X159536330Y-110819501D01*
X159592127Y-110825500D01*
X159907872Y-110825499D01*
X159967483Y-110819091D01*
X159967485Y-110819090D01*
X159973511Y-110817667D01*
X159973944Y-110819501D01*
X160026529Y-110817246D01*
X160031385Y-110818823D01*
X160032516Y-110819091D01*
X160036330Y-110819501D01*
X160092127Y-110825500D01*
X160407872Y-110825499D01*
X160467483Y-110819091D01*
X160467485Y-110819090D01*
X160473511Y-110817667D01*
X160473944Y-110819501D01*
X160526529Y-110817246D01*
X160531385Y-110818823D01*
X160532516Y-110819091D01*
X160536330Y-110819501D01*
X160592127Y-110825500D01*
X160907872Y-110825499D01*
X160967483Y-110819091D01*
X160967485Y-110819090D01*
X160973511Y-110817667D01*
X160973944Y-110819501D01*
X161026529Y-110817246D01*
X161031385Y-110818823D01*
X161032516Y-110819091D01*
X161036330Y-110819501D01*
X161092127Y-110825500D01*
X161407872Y-110825499D01*
X161467483Y-110819091D01*
X161534907Y-110793943D01*
X161602329Y-110768797D01*
X161602329Y-110768796D01*
X161602331Y-110768796D01*
X161717546Y-110682546D01*
X161803796Y-110567331D01*
X161811879Y-110545661D01*
X161846540Y-110452729D01*
X161854091Y-110432483D01*
X161860500Y-110372873D01*
X161860499Y-109277128D01*
X161854091Y-109217517D01*
X161844314Y-109191303D01*
X161803797Y-109082670D01*
X161717549Y-108967458D01*
X161717548Y-108967457D01*
X161717546Y-108967454D01*
X161712395Y-108963598D01*
X161602329Y-108881202D01*
X161467488Y-108830910D01*
X161467483Y-108830909D01*
X161467481Y-108830908D01*
X161467477Y-108830908D01*
X161436249Y-108827550D01*
X161407873Y-108824500D01*
X161407870Y-108824500D01*
X161092133Y-108824500D01*
X161092129Y-108824500D01*
X161092128Y-108824501D01*
X161077886Y-108826032D01*
X161032516Y-108830909D01*
X161026485Y-108832334D01*
X161026051Y-108830501D01*
X160973458Y-108832751D01*
X160968613Y-108831176D01*
X160967486Y-108830910D01*
X160967483Y-108830909D01*
X160967479Y-108830908D01*
X160967477Y-108830908D01*
X160936249Y-108827550D01*
X160907873Y-108824500D01*
X160907870Y-108824500D01*
X160592133Y-108824500D01*
X160592124Y-108824501D01*
X160544779Y-108829590D01*
X160484901Y-108817009D01*
X160443854Y-108771636D01*
X160437315Y-108710801D01*
X160442734Y-108693276D01*
X160485044Y-108591132D01*
X160495875Y-108508863D01*
X160505682Y-108434370D01*
X160504987Y-108429089D01*
X160500924Y-108398227D01*
X160500500Y-108391760D01*
X160500500Y-106235417D01*
X160519407Y-106177226D01*
X160568907Y-106141262D01*
X160610585Y-106137040D01*
X160774996Y-106155565D01*
X160774997Y-106155564D01*
X160775000Y-106155565D01*
X160954255Y-106135368D01*
X161124522Y-106075789D01*
X161277262Y-105979816D01*
X161404816Y-105852262D01*
X161500789Y-105699522D01*
X161560368Y-105529255D01*
X161580565Y-105350000D01*
X161560368Y-105170745D01*
X161559102Y-105167128D01*
X161528551Y-105079818D01*
X161500789Y-105000478D01*
X161493026Y-104988124D01*
X161440674Y-104904805D01*
X161425500Y-104852134D01*
X161425500Y-100275097D01*
X161444407Y-100216906D01*
X161454490Y-100205099D01*
X161676985Y-99982604D01*
X161688786Y-99972526D01*
X161706587Y-99959594D01*
X161736661Y-99923239D01*
X161739800Y-99919791D01*
X161749397Y-99910194D01*
X161749412Y-99910176D01*
X162630094Y-99029496D01*
X162684611Y-99001719D01*
X162700098Y-99000500D01*
X163877134Y-99000500D01*
X163929805Y-99015674D01*
X164025478Y-99075789D01*
X164093657Y-99099646D01*
X164195738Y-99135366D01*
X164195742Y-99135367D01*
X164195745Y-99135368D01*
X164375000Y-99155565D01*
X164554255Y-99135368D01*
X164667802Y-99095635D01*
X164728972Y-99094262D01*
X164779266Y-99129106D01*
X164799475Y-99186858D01*
X164799500Y-99189080D01*
X164799500Y-99545737D01*
X164780593Y-99603928D01*
X164731093Y-99639892D01*
X164669907Y-99639892D01*
X164647830Y-99629563D01*
X164599528Y-99599214D01*
X164599522Y-99599211D01*
X164429261Y-99539633D01*
X164429257Y-99539632D01*
X164250000Y-99519435D01*
X164070742Y-99539632D01*
X164070738Y-99539633D01*
X163900477Y-99599211D01*
X163900473Y-99599212D01*
X163743032Y-99698141D01*
X163741813Y-99696201D01*
X163693307Y-99714401D01*
X163688875Y-99714500D01*
X162702133Y-99714500D01*
X162702129Y-99714500D01*
X162702128Y-99714501D01*
X162697486Y-99715000D01*
X162642519Y-99720908D01*
X162642514Y-99720909D01*
X162507670Y-99771202D01*
X162392458Y-99857450D01*
X162392450Y-99857458D01*
X162306202Y-99972670D01*
X162255910Y-100107511D01*
X162255908Y-100107522D01*
X162249500Y-100167129D01*
X162249500Y-100482866D01*
X162249500Y-100482869D01*
X162249501Y-100482872D01*
X162251342Y-100500000D01*
X162255909Y-100542483D01*
X162257334Y-100548515D01*
X162255499Y-100548948D01*
X162257754Y-100601533D01*
X162256176Y-100606386D01*
X162255908Y-100607522D01*
X162249500Y-100667129D01*
X162249500Y-100982866D01*
X162249500Y-100982869D01*
X162249501Y-100982872D01*
X162253322Y-101018413D01*
X162255909Y-101042483D01*
X162257334Y-101048515D01*
X162255499Y-101048948D01*
X162257754Y-101101533D01*
X162256176Y-101106386D01*
X162255908Y-101107522D01*
X162249500Y-101167129D01*
X162249500Y-101482866D01*
X162249500Y-101482869D01*
X162249501Y-101482872D01*
X162253226Y-101517522D01*
X162255909Y-101542483D01*
X162257334Y-101548515D01*
X162255499Y-101548948D01*
X162257754Y-101601533D01*
X162256176Y-101606386D01*
X162255908Y-101607522D01*
X162249500Y-101667129D01*
X162249500Y-101982866D01*
X162249501Y-101982870D01*
X162255909Y-102042483D01*
X162257334Y-102048515D01*
X162255499Y-102048948D01*
X162257754Y-102101533D01*
X162256176Y-102106386D01*
X162255908Y-102107522D01*
X162249500Y-102167129D01*
X162249500Y-102482866D01*
X162249500Y-102482869D01*
X162249501Y-102482872D01*
X162254575Y-102530074D01*
X162255909Y-102542483D01*
X162257334Y-102548515D01*
X162255499Y-102548948D01*
X162257754Y-102601533D01*
X162256176Y-102606386D01*
X162255908Y-102607522D01*
X162254840Y-102617458D01*
X162249600Y-102666202D01*
X162249500Y-102667129D01*
X162249500Y-102982866D01*
X162249500Y-102982869D01*
X162249501Y-102982872D01*
X162251613Y-103002517D01*
X162255909Y-103042483D01*
X162257334Y-103048515D01*
X162255499Y-103048948D01*
X162257754Y-103101533D01*
X162256176Y-103106386D01*
X162255908Y-103107522D01*
X162249500Y-103167129D01*
X162249500Y-103482866D01*
X162249500Y-103482869D01*
X162249501Y-103482872D01*
X162254259Y-103527132D01*
X162255909Y-103542483D01*
X162257334Y-103548515D01*
X162255499Y-103548948D01*
X162257754Y-103601533D01*
X162256176Y-103606386D01*
X162255908Y-103607522D01*
X162252838Y-103636080D01*
X162249769Y-103664631D01*
X162249500Y-103667129D01*
X162249500Y-103982866D01*
X162249500Y-103982869D01*
X162249501Y-103982872D01*
X162253641Y-104021383D01*
X162255909Y-104042483D01*
X162257334Y-104048515D01*
X162255499Y-104048948D01*
X162257754Y-104101533D01*
X162256176Y-104106386D01*
X162255908Y-104107522D01*
X162252652Y-104137809D01*
X162249583Y-104166360D01*
X162249500Y-104167129D01*
X162249500Y-104482866D01*
X162249501Y-104482870D01*
X162255909Y-104542487D01*
X162257333Y-104548512D01*
X162255733Y-104548889D01*
X162258018Y-104602252D01*
X162256745Y-104606168D01*
X162256402Y-104607623D01*
X162250000Y-104667175D01*
X162250000Y-104982824D01*
X162249999Y-104982824D01*
X162256402Y-105042376D01*
X162257826Y-105048403D01*
X162255794Y-105048883D01*
X162258018Y-105100823D01*
X162256083Y-105106778D01*
X162255909Y-105107516D01*
X162255909Y-105107517D01*
X162251500Y-105148530D01*
X162249500Y-105167129D01*
X162249500Y-105482866D01*
X162249500Y-105482869D01*
X162249501Y-105482872D01*
X162254259Y-105527132D01*
X162255909Y-105542483D01*
X162257334Y-105548515D01*
X162255499Y-105548948D01*
X162257754Y-105601533D01*
X162256176Y-105606386D01*
X162255908Y-105607522D01*
X162249500Y-105667129D01*
X162249500Y-105982866D01*
X162249500Y-105982869D01*
X162249501Y-105982872D01*
X162251745Y-106003749D01*
X162255909Y-106042483D01*
X162257334Y-106048515D01*
X162255499Y-106048948D01*
X162257754Y-106101533D01*
X162256176Y-106106386D01*
X162255908Y-106107522D01*
X162252735Y-106137040D01*
X162250901Y-106154101D01*
X162249500Y-106167129D01*
X162249500Y-106482866D01*
X162249500Y-106482869D01*
X162249501Y-106482872D01*
X162249910Y-106486675D01*
X162255909Y-106542483D01*
X162257334Y-106548515D01*
X162255499Y-106548948D01*
X162257754Y-106601533D01*
X162256176Y-106606386D01*
X162255908Y-106607522D01*
X162249500Y-106667129D01*
X162249500Y-106982866D01*
X162249501Y-106982870D01*
X162255909Y-107042483D01*
X162257334Y-107048515D01*
X162255499Y-107048948D01*
X162257754Y-107101533D01*
X162256176Y-107106386D01*
X162255908Y-107107522D01*
X162249500Y-107167129D01*
X162249500Y-107482866D01*
X162249501Y-107482870D01*
X162255909Y-107542483D01*
X162257334Y-107548515D01*
X162255499Y-107548948D01*
X162257754Y-107601533D01*
X162256176Y-107606386D01*
X162255908Y-107607522D01*
X162249500Y-107667129D01*
X162249500Y-107982866D01*
X162249500Y-107982869D01*
X162249501Y-107982872D01*
X162251044Y-107997229D01*
X162255908Y-108042480D01*
X162255909Y-108042485D01*
X162306202Y-108177329D01*
X162384836Y-108282370D01*
X162392454Y-108292546D01*
X162392457Y-108292548D01*
X162392458Y-108292549D01*
X162507670Y-108378797D01*
X162642511Y-108429089D01*
X162642512Y-108429089D01*
X162642517Y-108429091D01*
X162702127Y-108435500D01*
X163797872Y-108435499D01*
X163857483Y-108429091D01*
X163857488Y-108429088D01*
X163861458Y-108428152D01*
X163884220Y-108425500D01*
X164725500Y-108425500D01*
X164783691Y-108444407D01*
X164819655Y-108493907D01*
X164824500Y-108524500D01*
X164824500Y-109247866D01*
X164824501Y-109247870D01*
X164830908Y-109307480D01*
X164830909Y-109307485D01*
X164881202Y-109442327D01*
X164881203Y-109442328D01*
X164881204Y-109442331D01*
X164899753Y-109467110D01*
X164919490Y-109525023D01*
X164919500Y-109526438D01*
X164919500Y-110522866D01*
X164919501Y-110522870D01*
X164925908Y-110582480D01*
X164925909Y-110582485D01*
X164976202Y-110717329D01*
X165057179Y-110825500D01*
X165062454Y-110832546D01*
X165062457Y-110832548D01*
X165062458Y-110832549D01*
X165177670Y-110918797D01*
X165312511Y-110969089D01*
X165312512Y-110969089D01*
X165312517Y-110969091D01*
X165372127Y-110975500D01*
X166317872Y-110975499D01*
X166377483Y-110969091D01*
X166391116Y-110964005D01*
X166452243Y-110961384D01*
X166460313Y-110964006D01*
X166472622Y-110968597D01*
X166472624Y-110968598D01*
X166532176Y-110975000D01*
X167477824Y-110975000D01*
X167537370Y-110968598D01*
X167537381Y-110968596D01*
X167672084Y-110918355D01*
X167720608Y-110882030D01*
X167004999Y-110166421D01*
X166939502Y-110231918D01*
X166884985Y-110259695D01*
X166824553Y-110250123D01*
X166781289Y-110206859D01*
X166770499Y-110161914D01*
X166770499Y-110159086D01*
X166789406Y-110100895D01*
X166799496Y-110089082D01*
X167005001Y-109883579D01*
X167165214Y-109723364D01*
X167219730Y-109695586D01*
X167224602Y-109694938D01*
X167227797Y-109694594D01*
X167287675Y-109707167D01*
X167328728Y-109752536D01*
X167335274Y-109813370D01*
X167308391Y-109863029D01*
X167146421Y-110024999D01*
X167858436Y-110737014D01*
X167873354Y-110717086D01*
X167923596Y-110582381D01*
X167923598Y-110582370D01*
X167930000Y-110522824D01*
X167930000Y-109850001D01*
X170350000Y-109850001D01*
X170350001Y-110048322D01*
X170360142Y-110147597D01*
X170360145Y-110147609D01*
X170413454Y-110308487D01*
X170502425Y-110452729D01*
X170622270Y-110572574D01*
X170766512Y-110661545D01*
X170927396Y-110714856D01*
X171026677Y-110724999D01*
X171200000Y-110724999D01*
X171200000Y-109850001D01*
X171199999Y-109850000D01*
X170350002Y-109850000D01*
X170350000Y-109850001D01*
X167930000Y-109850001D01*
X167930000Y-109649999D01*
X170350000Y-109649999D01*
X170350001Y-109650000D01*
X171199999Y-109650000D01*
X171199999Y-108775000D01*
X171026677Y-108775000D01*
X171026677Y-108775001D01*
X170927402Y-108785142D01*
X170927390Y-108785145D01*
X170766512Y-108838454D01*
X170622270Y-108927425D01*
X170502425Y-109047270D01*
X170413454Y-109191512D01*
X170360143Y-109352396D01*
X170350000Y-109451676D01*
X170350000Y-109649999D01*
X167930000Y-109649999D01*
X167930000Y-109527175D01*
X167923598Y-109467629D01*
X167923596Y-109467618D01*
X167873354Y-109332912D01*
X167858436Y-109312984D01*
X167788031Y-109383390D01*
X167733514Y-109411167D01*
X167673082Y-109401596D01*
X167629817Y-109358331D01*
X167619592Y-109302828D01*
X167619932Y-109299658D01*
X167644937Y-109243816D01*
X167648364Y-109240211D01*
X167720608Y-109167968D01*
X167666420Y-109127404D01*
X167668214Y-109125006D01*
X167635030Y-109089850D01*
X167625499Y-109047470D01*
X167625499Y-108152128D01*
X167619091Y-108092517D01*
X167615563Y-108083058D01*
X167568797Y-107957670D01*
X167482549Y-107842458D01*
X167482548Y-107842457D01*
X167482546Y-107842454D01*
X167473803Y-107835909D01*
X167367329Y-107756202D01*
X167232488Y-107705910D01*
X167232483Y-107705909D01*
X167232481Y-107705908D01*
X167232477Y-107705908D01*
X167201249Y-107702550D01*
X167172873Y-107699500D01*
X167172870Y-107699500D01*
X166114742Y-107699500D01*
X166056551Y-107680593D01*
X166044738Y-107670503D01*
X165894238Y-107520002D01*
X165866461Y-107465486D01*
X165876033Y-107405054D01*
X165894239Y-107379995D01*
X166044740Y-107229495D01*
X166099256Y-107201718D01*
X166114743Y-107200499D01*
X167172867Y-107200499D01*
X167172872Y-107200499D01*
X167232483Y-107194091D01*
X167349955Y-107150277D01*
X167367329Y-107143797D01*
X167367329Y-107143796D01*
X167367331Y-107143796D01*
X167482546Y-107057546D01*
X167568796Y-106942331D01*
X167574467Y-106927128D01*
X167619089Y-106807488D01*
X167619088Y-106807488D01*
X167619091Y-106807483D01*
X167625500Y-106747873D01*
X167625499Y-105813790D01*
X167644406Y-105755600D01*
X167689908Y-105721031D01*
X167697086Y-105718354D01*
X167745609Y-105682029D01*
X167612307Y-105548729D01*
X167589551Y-105513316D01*
X167587866Y-105508800D01*
X167585252Y-105447672D01*
X167619068Y-105396681D01*
X167676398Y-105375304D01*
X167735344Y-105391708D01*
X167750632Y-105404210D01*
X167883436Y-105537014D01*
X167898354Y-105517086D01*
X167948596Y-105382381D01*
X167948598Y-105382370D01*
X167955000Y-105322824D01*
X167955000Y-104327175D01*
X167948598Y-104267629D01*
X167948596Y-104267618D01*
X167898354Y-104132912D01*
X167883436Y-104112984D01*
X167171421Y-104824999D01*
X167420788Y-105074366D01*
X167448565Y-105128883D01*
X167438994Y-105189315D01*
X167395729Y-105232580D01*
X167335297Y-105242151D01*
X167316183Y-105237126D01*
X167311674Y-105235444D01*
X167276271Y-105212692D01*
X166958583Y-104895004D01*
X166930806Y-104840487D01*
X166940377Y-104780055D01*
X166958583Y-104754996D01*
X167030000Y-104683579D01*
X167745609Y-103967969D01*
X167697085Y-103931644D01*
X167562381Y-103881403D01*
X167562370Y-103881401D01*
X167502824Y-103875000D01*
X166557176Y-103875000D01*
X166497629Y-103881401D01*
X166497623Y-103881402D01*
X166485307Y-103885996D01*
X166424177Y-103888613D01*
X166416120Y-103885995D01*
X166402487Y-103880910D01*
X166402484Y-103880909D01*
X166402483Y-103880909D01*
X166402480Y-103880908D01*
X166402477Y-103880908D01*
X166352482Y-103875533D01*
X166296646Y-103850513D01*
X166266180Y-103797452D01*
X166271602Y-103739213D01*
X166276163Y-103728202D01*
X166285044Y-103706762D01*
X166285880Y-103700409D01*
X166293613Y-103641674D01*
X166319954Y-103586452D01*
X166336928Y-103573396D01*
X166336662Y-103573040D01*
X166369482Y-103548471D01*
X166457546Y-103482546D01*
X166482893Y-103448687D01*
X166717731Y-103448687D01*
X166742807Y-103482184D01*
X166742815Y-103482192D01*
X166857909Y-103568352D01*
X166857911Y-103568353D01*
X166992618Y-103618596D01*
X166992629Y-103618598D01*
X167052176Y-103625000D01*
X167947824Y-103625000D01*
X168007370Y-103618598D01*
X168007381Y-103618596D01*
X168142088Y-103568353D01*
X168142090Y-103568352D01*
X168257184Y-103482192D01*
X168257191Y-103482185D01*
X168282266Y-103448688D01*
X168233577Y-103399999D01*
X171000000Y-103399999D01*
X171000001Y-103400000D01*
X171849999Y-103400000D01*
X171850000Y-103399999D01*
X171850000Y-102525001D01*
X171849999Y-102525000D01*
X171676677Y-102525000D01*
X171676677Y-102525001D01*
X171577402Y-102535142D01*
X171577390Y-102535145D01*
X171416512Y-102588454D01*
X171272270Y-102677425D01*
X171152425Y-102797270D01*
X171063454Y-102941512D01*
X171010143Y-103102396D01*
X171000000Y-103201676D01*
X171000000Y-103399999D01*
X168233577Y-103399999D01*
X167499999Y-102666421D01*
X166717731Y-103448687D01*
X166482893Y-103448687D01*
X166540487Y-103371751D01*
X166546052Y-103367827D01*
X166545952Y-103367192D01*
X166550976Y-103348080D01*
X166554731Y-103338013D01*
X166581465Y-103304349D01*
X166580347Y-103303231D01*
X166590096Y-103293481D01*
X166592782Y-103290100D01*
X166593746Y-103289831D01*
X167358581Y-102524999D01*
X167641421Y-102524999D01*
X168381427Y-103265005D01*
X168393597Y-103232378D01*
X168393598Y-103232376D01*
X168399999Y-103172824D01*
X168400000Y-103172824D01*
X168400000Y-101877175D01*
X168393598Y-101817625D01*
X168381426Y-101784994D01*
X167641421Y-102524999D01*
X167358581Y-102524999D01*
X167500001Y-102383579D01*
X168282266Y-101601311D01*
X168282267Y-101601310D01*
X168257192Y-101567815D01*
X168257184Y-101567807D01*
X168142090Y-101481647D01*
X168142088Y-101481646D01*
X168007381Y-101431403D01*
X168007370Y-101431401D01*
X167947824Y-101425000D01*
X167904000Y-101425000D01*
X167845809Y-101406093D01*
X167809845Y-101356593D01*
X167805000Y-101326000D01*
X167805000Y-100399499D01*
X167823907Y-100341308D01*
X167873407Y-100305344D01*
X167903998Y-100300499D01*
X168147872Y-100300499D01*
X168207483Y-100294091D01*
X168301436Y-100259049D01*
X168342329Y-100243797D01*
X168342329Y-100243796D01*
X168342331Y-100243796D01*
X168457546Y-100157546D01*
X168543796Y-100042331D01*
X168563350Y-99989901D01*
X168601400Y-99941989D01*
X168656108Y-99925500D01*
X171924902Y-99925500D01*
X171983093Y-99944407D01*
X171994906Y-99954496D01*
X172745504Y-100705094D01*
X172773281Y-100759611D01*
X172774500Y-100775098D01*
X172774500Y-102590573D01*
X172755593Y-102648764D01*
X172706093Y-102684728D01*
X172644907Y-102684728D01*
X172623527Y-102674833D01*
X172483487Y-102588454D01*
X172322603Y-102535143D01*
X172223323Y-102525000D01*
X172050001Y-102525000D01*
X172050000Y-102525001D01*
X172050000Y-103501000D01*
X172031093Y-103559191D01*
X171981593Y-103595155D01*
X171951000Y-103600000D01*
X171000002Y-103600000D01*
X171000001Y-103600001D01*
X171000001Y-103798322D01*
X171010142Y-103897597D01*
X171010145Y-103897609D01*
X171063454Y-104058487D01*
X171152425Y-104202729D01*
X171272270Y-104322574D01*
X171416512Y-104411545D01*
X171577396Y-104464856D01*
X171663471Y-104473650D01*
X171719438Y-104498373D01*
X171750185Y-104551272D01*
X171749440Y-104589696D01*
X171750280Y-104589803D01*
X171749499Y-104595985D01*
X171749499Y-104617982D01*
X171748280Y-104633470D01*
X171744838Y-104655196D01*
X171749278Y-104702172D01*
X171749498Y-104706832D01*
X171749499Y-105014777D01*
X171743257Y-105049373D01*
X171728509Y-105088912D01*
X171728507Y-105088923D01*
X171722099Y-105148530D01*
X171722099Y-105198099D01*
X171703192Y-105256290D01*
X171653692Y-105292254D01*
X171623101Y-105297099D01*
X171573533Y-105297099D01*
X171573529Y-105297100D01*
X171513920Y-105303507D01*
X171513915Y-105303508D01*
X171379071Y-105353801D01*
X171263859Y-105440049D01*
X171263851Y-105440057D01*
X171177603Y-105555269D01*
X171127311Y-105690110D01*
X171127309Y-105690121D01*
X171120901Y-105749728D01*
X171120901Y-106150265D01*
X171120902Y-106150276D01*
X171125109Y-106189418D01*
X171125109Y-106210575D01*
X171120901Y-106249723D01*
X171120901Y-106650266D01*
X171120902Y-106650277D01*
X171125109Y-106689419D01*
X171125109Y-106710577D01*
X171120901Y-106749725D01*
X171120901Y-107150266D01*
X171120902Y-107150277D01*
X171125109Y-107189419D01*
X171125109Y-107210576D01*
X171120901Y-107249724D01*
X171120901Y-107650267D01*
X171120902Y-107650271D01*
X171127309Y-107709881D01*
X171127310Y-107709886D01*
X171177603Y-107844730D01*
X171262150Y-107957670D01*
X171263855Y-107959947D01*
X171263858Y-107959949D01*
X171263859Y-107959950D01*
X171379071Y-108046198D01*
X171513912Y-108096490D01*
X171513913Y-108096490D01*
X171513918Y-108096492D01*
X171573528Y-108102901D01*
X171623599Y-108102900D01*
X171681788Y-108121806D01*
X171717753Y-108171306D01*
X171722599Y-108201900D01*
X171722599Y-108251423D01*
X171722598Y-108251423D01*
X171729000Y-108310969D01*
X171729002Y-108310980D01*
X171779245Y-108445687D01*
X171779246Y-108445689D01*
X171865406Y-108560783D01*
X171865414Y-108560791D01*
X171980508Y-108646951D01*
X171980510Y-108646952D01*
X172115217Y-108697195D01*
X172115228Y-108697197D01*
X172174775Y-108703599D01*
X172175500Y-108703599D01*
X172175643Y-108703645D01*
X172177422Y-108703741D01*
X172177396Y-108704215D01*
X172233691Y-108722506D01*
X172269655Y-108772006D01*
X172274500Y-108802599D01*
X172274500Y-108808527D01*
X172255593Y-108866718D01*
X172227474Y-108892787D01*
X172171957Y-108927031D01*
X172171953Y-108927034D01*
X172144648Y-108954339D01*
X172090131Y-108982115D01*
X172029700Y-108972543D01*
X172004642Y-108954338D01*
X171977729Y-108927425D01*
X171833487Y-108838454D01*
X171672603Y-108785143D01*
X171573323Y-108775000D01*
X171400001Y-108775000D01*
X171400000Y-108775001D01*
X171400000Y-110724997D01*
X171400001Y-110724999D01*
X171573322Y-110724999D01*
X171672597Y-110714857D01*
X171672609Y-110714854D01*
X171833487Y-110661545D01*
X171977731Y-110572573D01*
X172004640Y-110545664D01*
X172059156Y-110517884D01*
X172119588Y-110527454D01*
X172144646Y-110545658D01*
X172171956Y-110572968D01*
X172254085Y-110623626D01*
X172316299Y-110662001D01*
X172316300Y-110662001D01*
X172316303Y-110662003D01*
X172477292Y-110715349D01*
X172576655Y-110725500D01*
X173123344Y-110725499D01*
X173123352Y-110725499D01*
X173222699Y-110715350D01*
X173222699Y-110715349D01*
X173222708Y-110715349D01*
X173383697Y-110662003D01*
X173528044Y-110572968D01*
X173647968Y-110453044D01*
X173737003Y-110308697D01*
X173790349Y-110147708D01*
X173800500Y-110048345D01*
X173800499Y-109451656D01*
X173800499Y-109451655D01*
X173800499Y-109451647D01*
X173790350Y-109352300D01*
X173790349Y-109352298D01*
X173790349Y-109352292D01*
X173737003Y-109191303D01*
X173647968Y-109046956D01*
X173528044Y-108927032D01*
X173528041Y-108927030D01*
X173528040Y-108927029D01*
X173522523Y-108923626D01*
X173482924Y-108876983D01*
X173475500Y-108839368D01*
X173475500Y-108802599D01*
X173494407Y-108744408D01*
X173543907Y-108708444D01*
X173572586Y-108703902D01*
X173572578Y-108703741D01*
X173574128Y-108703657D01*
X173574500Y-108703599D01*
X173575222Y-108703599D01*
X173612067Y-108699637D01*
X173633227Y-108699637D01*
X173674728Y-108704099D01*
X174075273Y-108704098D01*
X174134884Y-108697690D01*
X174203749Y-108672005D01*
X174269730Y-108647396D01*
X174269730Y-108647395D01*
X174269732Y-108647395D01*
X174384947Y-108561145D01*
X174471197Y-108445930D01*
X174472030Y-108443698D01*
X174514559Y-108329670D01*
X174521492Y-108311082D01*
X174527901Y-108251472D01*
X174527901Y-108201900D01*
X174546808Y-108143709D01*
X174596308Y-108107745D01*
X174626901Y-108102900D01*
X174652302Y-108102900D01*
X174710493Y-108121807D01*
X174722306Y-108131896D01*
X175845504Y-109255094D01*
X175873281Y-109309611D01*
X175874500Y-109325098D01*
X175874500Y-109822866D01*
X175874501Y-109822870D01*
X175880908Y-109882480D01*
X175880909Y-109882485D01*
X175931202Y-110017329D01*
X176013872Y-110127761D01*
X176017454Y-110132546D01*
X176017457Y-110132548D01*
X176017458Y-110132549D01*
X176132670Y-110218797D01*
X176267511Y-110269089D01*
X176267512Y-110269089D01*
X176267517Y-110269091D01*
X176327127Y-110275500D01*
X177422872Y-110275499D01*
X177482483Y-110269091D01*
X177556016Y-110241665D01*
X177617329Y-110218797D01*
X177617329Y-110218796D01*
X177617331Y-110218796D01*
X177732546Y-110132546D01*
X177818796Y-110017331D01*
X177825439Y-109999522D01*
X177869089Y-109882488D01*
X177869090Y-109882485D01*
X177869091Y-109882483D01*
X177875500Y-109822873D01*
X177875499Y-109150096D01*
X177894406Y-109091906D01*
X177904489Y-109080099D01*
X177987342Y-108997246D01*
X177998682Y-108988163D01*
X177998677Y-108988157D01*
X178003475Y-108984187D01*
X178003474Y-108984187D01*
X178003477Y-108984186D01*
X178050354Y-108934266D01*
X178051361Y-108933227D01*
X178071720Y-108912870D01*
X178076329Y-108906927D01*
X178079342Y-108903397D01*
X178111662Y-108868982D01*
X178122261Y-108849701D01*
X178130782Y-108836728D01*
X178144274Y-108819336D01*
X178163021Y-108776010D01*
X178165060Y-108771847D01*
X178187797Y-108730492D01*
X178193268Y-108709182D01*
X178198296Y-108694494D01*
X178206733Y-108675000D01*
X178591423Y-108675000D01*
X179908577Y-108675000D01*
X179250000Y-108016422D01*
X178591423Y-108675000D01*
X178206733Y-108675000D01*
X178207038Y-108674295D01*
X178207038Y-108674291D01*
X178208028Y-108672005D01*
X178248491Y-108626110D01*
X178308203Y-108612763D01*
X178333481Y-108618566D01*
X178356445Y-108627130D01*
X179179995Y-107803582D01*
X179234512Y-107775805D01*
X179294944Y-107785376D01*
X179320003Y-107803582D01*
X180143552Y-108627130D01*
X180167084Y-108618355D01*
X180167091Y-108618351D01*
X180282184Y-108532192D01*
X180282192Y-108532184D01*
X180368352Y-108417090D01*
X180368353Y-108417088D01*
X180418596Y-108282381D01*
X180418598Y-108282370D01*
X180425000Y-108222824D01*
X180425000Y-107722653D01*
X180443907Y-107664462D01*
X180493407Y-107628498D01*
X180554593Y-107628498D01*
X180556698Y-107629209D01*
X180645738Y-107660366D01*
X180645742Y-107660367D01*
X180645745Y-107660368D01*
X180825000Y-107680565D01*
X181004255Y-107660368D01*
X181174522Y-107600789D01*
X181327262Y-107504816D01*
X181454816Y-107377262D01*
X181550789Y-107224522D01*
X181609215Y-107057549D01*
X181610366Y-107054261D01*
X181610367Y-107054257D01*
X181610368Y-107054255D01*
X181630565Y-106875000D01*
X181610368Y-106695745D01*
X181608154Y-106689419D01*
X181577386Y-106601489D01*
X181550789Y-106525478D01*
X181527234Y-106487991D01*
X181454818Y-106372741D01*
X181454817Y-106372740D01*
X181454816Y-106372738D01*
X181327262Y-106245184D01*
X181327259Y-106245182D01*
X181327258Y-106245181D01*
X181174523Y-106149211D01*
X181004261Y-106089633D01*
X181004257Y-106089632D01*
X180825000Y-106069435D01*
X180645742Y-106089632D01*
X180557196Y-106120616D01*
X180496026Y-106121988D01*
X180445732Y-106087144D01*
X180425524Y-106029392D01*
X180425499Y-106027171D01*
X180425499Y-105527132D01*
X180425499Y-105527128D01*
X180419091Y-105467517D01*
X180397486Y-105409593D01*
X180394866Y-105348468D01*
X180397477Y-105340430D01*
X180419091Y-105282483D01*
X180425500Y-105222873D01*
X180425499Y-104527128D01*
X180419091Y-104467517D01*
X180412379Y-104449521D01*
X180368797Y-104332670D01*
X180282549Y-104217458D01*
X180282548Y-104217457D01*
X180282546Y-104217454D01*
X180244824Y-104189215D01*
X180167329Y-104131202D01*
X180032488Y-104080910D01*
X180032483Y-104080909D01*
X180032481Y-104080908D01*
X180032477Y-104080908D01*
X180001249Y-104077550D01*
X179972873Y-104074500D01*
X179972870Y-104074500D01*
X178527133Y-104074500D01*
X178527129Y-104074500D01*
X178527128Y-104074501D01*
X178522486Y-104075000D01*
X178467519Y-104080908D01*
X178467514Y-104080909D01*
X178332670Y-104131202D01*
X178217458Y-104217450D01*
X178217450Y-104217458D01*
X178204447Y-104234829D01*
X178154438Y-104270082D01*
X178125194Y-104274500D01*
X177639743Y-104274500D01*
X177581552Y-104255593D01*
X177569741Y-104245505D01*
X177549516Y-104225281D01*
X177521737Y-104170765D01*
X177521143Y-104166385D01*
X177510368Y-104070745D01*
X177509173Y-104067331D01*
X177477667Y-103977291D01*
X177450789Y-103900478D01*
X177449067Y-103897738D01*
X177354818Y-103747741D01*
X177354814Y-103747736D01*
X177279496Y-103672417D01*
X177251719Y-103617900D01*
X177250500Y-103602414D01*
X177250500Y-103290432D01*
X177269407Y-103232241D01*
X177314902Y-103197674D01*
X177392331Y-103168796D01*
X177507546Y-103082546D01*
X177593796Y-102967331D01*
X177644091Y-102832483D01*
X177650500Y-102772873D01*
X177650499Y-101577128D01*
X177644091Y-101517517D01*
X177613250Y-101434830D01*
X177610631Y-101373702D01*
X177644442Y-101322708D01*
X177701769Y-101301326D01*
X177717089Y-101301856D01*
X177750000Y-101305565D01*
X177929255Y-101285368D01*
X178099522Y-101225789D01*
X178252262Y-101129816D01*
X178379816Y-101002262D01*
X178475789Y-100849522D01*
X178535368Y-100679255D01*
X178555565Y-100500000D01*
X178535368Y-100320745D01*
X178531066Y-100308451D01*
X178498191Y-100214500D01*
X178475789Y-100150478D01*
X178471974Y-100144407D01*
X178379818Y-99997741D01*
X178379817Y-99997740D01*
X178379816Y-99997738D01*
X178252262Y-99870184D01*
X178252259Y-99870182D01*
X178252258Y-99870181D01*
X178099523Y-99774211D01*
X177929261Y-99714633D01*
X177929257Y-99714632D01*
X177809751Y-99701167D01*
X177750000Y-99694435D01*
X177749999Y-99694435D01*
X177670420Y-99703401D01*
X177610479Y-99691127D01*
X177580084Y-99664352D01*
X177507549Y-99567458D01*
X177507548Y-99567457D01*
X177507546Y-99567454D01*
X177498177Y-99560440D01*
X177392329Y-99481202D01*
X177257488Y-99430910D01*
X177257483Y-99430909D01*
X177257481Y-99430908D01*
X177257477Y-99430908D01*
X177226249Y-99427550D01*
X177197873Y-99424500D01*
X177197870Y-99424500D01*
X176102133Y-99424500D01*
X176102129Y-99424500D01*
X176102128Y-99424501D01*
X176094949Y-99425272D01*
X176042519Y-99430908D01*
X176042514Y-99430909D01*
X175907670Y-99481202D01*
X175792458Y-99567450D01*
X175792450Y-99567458D01*
X175706202Y-99682670D01*
X175668001Y-99785096D01*
X175629951Y-99833011D01*
X175575243Y-99849500D01*
X173700098Y-99849500D01*
X173641907Y-99830593D01*
X173630094Y-99820504D01*
X172723848Y-98914257D01*
X172714764Y-98902918D01*
X172714757Y-98902924D01*
X172710789Y-98898129D01*
X172710786Y-98898123D01*
X172660930Y-98851305D01*
X172659830Y-98850238D01*
X172639472Y-98829881D01*
X172633524Y-98825266D01*
X172629978Y-98822238D01*
X172595583Y-98789938D01*
X172576302Y-98779339D01*
X172563318Y-98770810D01*
X172554862Y-98764251D01*
X172545934Y-98757325D01*
X172502631Y-98738586D01*
X172498442Y-98736534D01*
X172473046Y-98722574D01*
X172457092Y-98713803D01*
X172457090Y-98713802D01*
X172457086Y-98713800D01*
X172435780Y-98708330D01*
X172421083Y-98703298D01*
X172400896Y-98694562D01*
X172400890Y-98694560D01*
X172354286Y-98687179D01*
X172349718Y-98686233D01*
X172304021Y-98674500D01*
X172304019Y-98674500D01*
X172282018Y-98674500D01*
X172266530Y-98673281D01*
X172244804Y-98669839D01*
X172197828Y-98674280D01*
X172193167Y-98674500D01*
X168656108Y-98674500D01*
X168597917Y-98655593D01*
X168563350Y-98610098D01*
X168543796Y-98557669D01*
X168520571Y-98526645D01*
X168457549Y-98442458D01*
X168457548Y-98442457D01*
X168457546Y-98442454D01*
X168457541Y-98442450D01*
X168342329Y-98356202D01*
X168207488Y-98305910D01*
X168207483Y-98305909D01*
X168207481Y-98305908D01*
X168207477Y-98305908D01*
X168176249Y-98302550D01*
X168147873Y-98299500D01*
X168147870Y-98299500D01*
X167475099Y-98299500D01*
X167416908Y-98280593D01*
X167405095Y-98270504D01*
X167123847Y-97989256D01*
X167114764Y-97977917D01*
X167114757Y-97977924D01*
X167110789Y-97973129D01*
X167110786Y-97973123D01*
X167060930Y-97926305D01*
X167059830Y-97925238D01*
X167039472Y-97904881D01*
X167033524Y-97900266D01*
X167029978Y-97897238D01*
X166995583Y-97864938D01*
X166976302Y-97854339D01*
X166963318Y-97845810D01*
X166952725Y-97837593D01*
X166945934Y-97832325D01*
X166902631Y-97813586D01*
X166898442Y-97811534D01*
X166870878Y-97796382D01*
X166857092Y-97788803D01*
X166857090Y-97788802D01*
X166857086Y-97788800D01*
X166835780Y-97783330D01*
X166821083Y-97778298D01*
X166798574Y-97768557D01*
X166752679Y-97728094D01*
X166739333Y-97668381D01*
X166763633Y-97612229D01*
X166816299Y-97581084D01*
X166837893Y-97578700D01*
X175521781Y-97578700D01*
X175579972Y-97597607D01*
X175591785Y-97607696D01*
X175667146Y-97683057D01*
X175694923Y-97737574D01*
X175695519Y-97741975D01*
X175706293Y-97837588D01*
X175706295Y-97837599D01*
X175765873Y-98007860D01*
X175765873Y-98007861D01*
X175861843Y-98160596D01*
X175861846Y-98160600D01*
X175989400Y-98288154D01*
X175989402Y-98288155D01*
X175989403Y-98288156D01*
X176097697Y-98356202D01*
X176142140Y-98384127D01*
X176207144Y-98406873D01*
X176312400Y-98443704D01*
X176312404Y-98443705D01*
X176312407Y-98443706D01*
X176491662Y-98463903D01*
X176670917Y-98443706D01*
X176674495Y-98442454D01*
X176841179Y-98384129D01*
X176841180Y-98384128D01*
X176841184Y-98384127D01*
X176850355Y-98378363D01*
X176909685Y-98363412D01*
X176935727Y-98368744D01*
X177044691Y-98406873D01*
X177044695Y-98406874D01*
X177044698Y-98406875D01*
X177223953Y-98427072D01*
X177403208Y-98406875D01*
X177573475Y-98347296D01*
X177726215Y-98251323D01*
X177853769Y-98123769D01*
X177949742Y-97971029D01*
X178009321Y-97800762D01*
X178029518Y-97621507D01*
X178009321Y-97442252D01*
X178007371Y-97436680D01*
X177969699Y-97329019D01*
X177949742Y-97271985D01*
X177937971Y-97253252D01*
X177853771Y-97119248D01*
X177853770Y-97119247D01*
X177853769Y-97119245D01*
X177788985Y-97054461D01*
X177761210Y-96999947D01*
X177770781Y-96939515D01*
X177814046Y-96896250D01*
X177847909Y-96886082D01*
X177854255Y-96885368D01*
X178024522Y-96825789D01*
X178177262Y-96729816D01*
X178304816Y-96602262D01*
X178400789Y-96449522D01*
X178454974Y-96294667D01*
X178460366Y-96279261D01*
X178460367Y-96279257D01*
X178460368Y-96279255D01*
X178480565Y-96100000D01*
X178460368Y-95920745D01*
X178460113Y-95920017D01*
X178427269Y-95826154D01*
X178400789Y-95750478D01*
X178384081Y-95723888D01*
X178304818Y-95597741D01*
X178304817Y-95597740D01*
X178304816Y-95597738D01*
X178177262Y-95470184D01*
X178177259Y-95470182D01*
X178177258Y-95470181D01*
X178024523Y-95374211D01*
X177854261Y-95314633D01*
X177854257Y-95314632D01*
X177675000Y-95294435D01*
X177495742Y-95314632D01*
X177495738Y-95314633D01*
X177325477Y-95374211D01*
X177325476Y-95374211D01*
X177229805Y-95434326D01*
X177177134Y-95449500D01*
X173553743Y-95449500D01*
X173495552Y-95430593D01*
X173459588Y-95381093D01*
X173459588Y-95319907D01*
X173483739Y-95280496D01*
X178439490Y-90324744D01*
X178444357Y-90320475D01*
X178473282Y-90298282D01*
X178569536Y-90172841D01*
X178630044Y-90026762D01*
X178645500Y-89909361D01*
X178650682Y-89870000D01*
X178645924Y-89833858D01*
X178645500Y-89827390D01*
X178645500Y-88845849D01*
X178664407Y-88787658D01*
X178676432Y-88775189D01*
X178675950Y-88774707D01*
X178682638Y-88768019D01*
X178799998Y-88650658D01*
X178854513Y-88622882D01*
X178914945Y-88632453D01*
X178940000Y-88650657D01*
X179059815Y-88770472D01*
X179205394Y-88858478D01*
X179367804Y-88909086D01*
X179438384Y-88915500D01*
X179438389Y-88915500D01*
X179951611Y-88915500D01*
X179951616Y-88915500D01*
X180022196Y-88909086D01*
X180184606Y-88858478D01*
X180330185Y-88770472D01*
X180450472Y-88650185D01*
X180487893Y-88588282D01*
X180534178Y-88548266D01*
X180572615Y-88540500D01*
X180611095Y-88540500D01*
X180669286Y-88559407D01*
X180695355Y-88587527D01*
X180717163Y-88622882D01*
X180755719Y-88685391D01*
X180874609Y-88804281D01*
X180942001Y-88845849D01*
X181017706Y-88892545D01*
X181017708Y-88892546D01*
X181017713Y-88892549D01*
X181107221Y-88922209D01*
X181156510Y-88958459D01*
X181175078Y-89016759D01*
X181161582Y-89063691D01*
X181162367Y-89064082D01*
X181069419Y-89250747D01*
X181013603Y-89446917D01*
X181000850Y-89584552D01*
X180994785Y-89650000D01*
X181013603Y-89853083D01*
X181069418Y-90049250D01*
X181160327Y-90231821D01*
X181283236Y-90394579D01*
X181433959Y-90531981D01*
X181607363Y-90639348D01*
X181797544Y-90713024D01*
X181998024Y-90750500D01*
X182201976Y-90750500D01*
X182402456Y-90713024D01*
X182592637Y-90639348D01*
X182766041Y-90531981D01*
X182916764Y-90394579D01*
X183039673Y-90231821D01*
X183130582Y-90049250D01*
X183186397Y-89853083D01*
X183205215Y-89650000D01*
X183186397Y-89446917D01*
X183130582Y-89250750D01*
X183039673Y-89068179D01*
X183033353Y-89059810D01*
X183013373Y-89001981D01*
X183017500Y-88988430D01*
X183017500Y-88954997D01*
X183217500Y-88954997D01*
X183217501Y-88954999D01*
X183384150Y-88954999D01*
X183482574Y-88944944D01*
X183482586Y-88944941D01*
X183642075Y-88892092D01*
X183785077Y-88803887D01*
X183903887Y-88685077D01*
X183992092Y-88542075D01*
X184044943Y-88382580D01*
X184055000Y-88284151D01*
X184055000Y-88080001D01*
X184054999Y-88080000D01*
X183217501Y-88080000D01*
X183217500Y-88080001D01*
X183217500Y-88954997D01*
X183017500Y-88954997D01*
X183017500Y-87879999D01*
X183217500Y-87879999D01*
X183217501Y-87880000D01*
X184054998Y-87880000D01*
X184054998Y-87879999D01*
X184054999Y-87675849D01*
X184044944Y-87577425D01*
X184044941Y-87577413D01*
X183992092Y-87417924D01*
X183903886Y-87274920D01*
X183833969Y-87205004D01*
X183806191Y-87150488D01*
X183815762Y-87090056D01*
X183833969Y-87064996D01*
X183923886Y-86975079D01*
X184012092Y-86832075D01*
X184064943Y-86672580D01*
X184075000Y-86574151D01*
X184075000Y-86370000D01*
X183237501Y-86370000D01*
X183237499Y-86370001D01*
X183237499Y-87223993D01*
X183218592Y-87282184D01*
X183217500Y-87283462D01*
X183217500Y-87879999D01*
X183017500Y-87879999D01*
X183017500Y-87026007D01*
X183036407Y-86967816D01*
X183037500Y-86966536D01*
X183037500Y-86169999D01*
X183237500Y-86169999D01*
X183237501Y-86170000D01*
X184074998Y-86170000D01*
X184074999Y-86169999D01*
X184074999Y-85965849D01*
X184064944Y-85867425D01*
X184064941Y-85867413D01*
X184012092Y-85707924D01*
X183923886Y-85564920D01*
X183848969Y-85490002D01*
X183821192Y-85435485D01*
X183830764Y-85375053D01*
X183848970Y-85349995D01*
X183923886Y-85275079D01*
X184012092Y-85132075D01*
X184064943Y-84972580D01*
X184075000Y-84874151D01*
X184075000Y-84670000D01*
X183237501Y-84670000D01*
X183237500Y-84670001D01*
X183237500Y-86169999D01*
X183037500Y-86169999D01*
X183037500Y-83595001D01*
X183037499Y-83595000D01*
X183237500Y-83595000D01*
X183237500Y-84469999D01*
X183237501Y-84470000D01*
X184074998Y-84470000D01*
X184074999Y-84469999D01*
X184074999Y-84265849D01*
X184064944Y-84167425D01*
X184064941Y-84167413D01*
X184012092Y-84007924D01*
X183923887Y-83864922D01*
X183805077Y-83746112D01*
X183662075Y-83657907D01*
X183502580Y-83605056D01*
X183404151Y-83595000D01*
X183237500Y-83595000D01*
X183037499Y-83595000D01*
X183029445Y-83586946D01*
X183001668Y-83532429D01*
X183011239Y-83471997D01*
X183020439Y-83457289D01*
X183039673Y-83431821D01*
X183130582Y-83249250D01*
X183186397Y-83053083D01*
X183205215Y-82850000D01*
X183186397Y-82646917D01*
X183130582Y-82450750D01*
X183039673Y-82268179D01*
X182916764Y-82105421D01*
X182766041Y-81968019D01*
X182592637Y-81860652D01*
X182402456Y-81786976D01*
X182402455Y-81786975D01*
X182402453Y-81786975D01*
X182201976Y-81749500D01*
X181998024Y-81749500D01*
X181797546Y-81786975D01*
X181744129Y-81807669D01*
X181607363Y-81860652D01*
X181433959Y-81968019D01*
X181283237Y-82105420D01*
X181160328Y-82268177D01*
X181160323Y-82268186D01*
X181069419Y-82450747D01*
X181069418Y-82450750D01*
X181013603Y-82646917D01*
X180994785Y-82850000D01*
X181013603Y-83053083D01*
X181069418Y-83249250D01*
X181160327Y-83431821D01*
X181160329Y-83431823D01*
X181160332Y-83431828D01*
X181188851Y-83469594D01*
X181208830Y-83527426D01*
X181191001Y-83585956D01*
X181142173Y-83622828D01*
X181140988Y-83623229D01*
X181037712Y-83657451D01*
X181037706Y-83657454D01*
X180894611Y-83745718D01*
X180894610Y-83745718D01*
X180775717Y-83864611D01*
X180759692Y-83890592D01*
X180713050Y-83930193D01*
X180652039Y-83934815D01*
X180599964Y-83902693D01*
X180590710Y-83889835D01*
X180560472Y-83839815D01*
X180440185Y-83719528D01*
X180402777Y-83696914D01*
X180294607Y-83631522D01*
X180294605Y-83631521D01*
X180132194Y-83580913D01*
X180061620Y-83574500D01*
X180061616Y-83574500D01*
X179548384Y-83574500D01*
X179548379Y-83574500D01*
X179477805Y-83580913D01*
X179315394Y-83631521D01*
X179315392Y-83631522D01*
X179169816Y-83719527D01*
X179169815Y-83719527D01*
X179169815Y-83719528D01*
X179050001Y-83839341D01*
X178995487Y-83867117D01*
X178935055Y-83857546D01*
X178909999Y-83839342D01*
X178790185Y-83719528D01*
X178752777Y-83696914D01*
X178644607Y-83631522D01*
X178644605Y-83631521D01*
X178482194Y-83580913D01*
X178411620Y-83574500D01*
X178411616Y-83574500D01*
X177898384Y-83574500D01*
X177898379Y-83574500D01*
X177827805Y-83580913D01*
X177665394Y-83631521D01*
X177665392Y-83631522D01*
X177519816Y-83719527D01*
X177399527Y-83839816D01*
X177311522Y-83985392D01*
X177311521Y-83985394D01*
X177260913Y-84147805D01*
X177254500Y-84218379D01*
X177254500Y-84524899D01*
X177235593Y-84583090D01*
X177225504Y-84594903D01*
X175614253Y-86206154D01*
X175602915Y-86215239D01*
X175602921Y-86215246D01*
X175598127Y-86219211D01*
X175598123Y-86219214D01*
X175598119Y-86219217D01*
X175598118Y-86219219D01*
X175551304Y-86269069D01*
X175550224Y-86270183D01*
X175529885Y-86290523D01*
X175529875Y-86290534D01*
X175525262Y-86296479D01*
X175522240Y-86300017D01*
X175489939Y-86334416D01*
X175489935Y-86334421D01*
X175479334Y-86353703D01*
X175470813Y-86366676D01*
X175457325Y-86384066D01*
X175438584Y-86427373D01*
X175436532Y-86431560D01*
X175413804Y-86472905D01*
X175413800Y-86472916D01*
X175408332Y-86494212D01*
X175403303Y-86508903D01*
X175394561Y-86529105D01*
X175394560Y-86529108D01*
X175387178Y-86575714D01*
X175386232Y-86580281D01*
X175374501Y-86625973D01*
X175374500Y-86625984D01*
X175374500Y-86647981D01*
X175373281Y-86663469D01*
X175369839Y-86685193D01*
X175374280Y-86732170D01*
X175374500Y-86736831D01*
X175374500Y-90726493D01*
X175355593Y-90784684D01*
X175345504Y-90796497D01*
X172075297Y-94066704D01*
X172020780Y-94094481D01*
X172005293Y-94095700D01*
X166911794Y-94095700D01*
X166853603Y-94076793D01*
X166827968Y-94049371D01*
X166790674Y-93990018D01*
X166775500Y-93937347D01*
X166775500Y-92117169D01*
X166781056Y-92084471D01*
X166835366Y-91929261D01*
X166835367Y-91929257D01*
X166835368Y-91929255D01*
X166855565Y-91750000D01*
X166835368Y-91570745D01*
X166828109Y-91550001D01*
X166811014Y-91501145D01*
X166775789Y-91400478D01*
X166767933Y-91387976D01*
X166679818Y-91247741D01*
X166679817Y-91247740D01*
X166679816Y-91247738D01*
X166552262Y-91120184D01*
X166552259Y-91120182D01*
X166552258Y-91120181D01*
X166399523Y-91024211D01*
X166229261Y-90964633D01*
X166229257Y-90964632D01*
X166050000Y-90944435D01*
X165870742Y-90964632D01*
X165870738Y-90964633D01*
X165700477Y-91024211D01*
X165700476Y-91024211D01*
X165547741Y-91120181D01*
X165420181Y-91247741D01*
X165324211Y-91400476D01*
X165324211Y-91400477D01*
X165264633Y-91570738D01*
X165264632Y-91570742D01*
X165244435Y-91750000D01*
X165264632Y-91929257D01*
X165264633Y-91929261D01*
X165324211Y-92099522D01*
X165324211Y-92099523D01*
X165420184Y-92252263D01*
X165495503Y-92327580D01*
X165523281Y-92382096D01*
X165524500Y-92397584D01*
X165524500Y-93750500D01*
X165505593Y-93808691D01*
X165456093Y-93844655D01*
X165425500Y-93849500D01*
X160673998Y-93849500D01*
X160615807Y-93830593D01*
X160603994Y-93820504D01*
X159170025Y-92386534D01*
X159142248Y-92332017D01*
X159141651Y-92327614D01*
X159135368Y-92271845D01*
X159134599Y-92269648D01*
X159094356Y-92154640D01*
X159075789Y-92101578D01*
X159074941Y-92100229D01*
X158979818Y-91948841D01*
X158979817Y-91948840D01*
X158979816Y-91948838D01*
X158852262Y-91821284D01*
X158852259Y-91821282D01*
X158852258Y-91821281D01*
X158699523Y-91725311D01*
X158529261Y-91665733D01*
X158529257Y-91665732D01*
X158409751Y-91652267D01*
X158350000Y-91645535D01*
X158349999Y-91645535D01*
X158260083Y-91655666D01*
X158200141Y-91643392D01*
X158158861Y-91598230D01*
X158149999Y-91557287D01*
X158149999Y-91525000D01*
X156200002Y-91525000D01*
X156200001Y-91525001D01*
X156200001Y-91698322D01*
X156210142Y-91797597D01*
X156210145Y-91797609D01*
X156263454Y-91958487D01*
X156352425Y-92102729D01*
X156379338Y-92129642D01*
X156407115Y-92184159D01*
X156397544Y-92244591D01*
X156379339Y-92269648D01*
X156352035Y-92296952D01*
X156352031Y-92296958D01*
X156262998Y-92441299D01*
X156209650Y-92602294D01*
X156199500Y-92701647D01*
X156199500Y-93174900D01*
X156180593Y-93233091D01*
X156170503Y-93244904D01*
X156006125Y-93409281D01*
X155991775Y-93421153D01*
X155983065Y-93427073D01*
X155983064Y-93427074D01*
X155983062Y-93427075D01*
X155983062Y-93427076D01*
X155976435Y-93434593D01*
X155944835Y-93470434D01*
X155942709Y-93472698D01*
X155929879Y-93485530D01*
X155929877Y-93485532D01*
X155918753Y-93499872D01*
X155916774Y-93502264D01*
X155878545Y-93545627D01*
X155877844Y-93546660D01*
X155877185Y-93547170D01*
X155874433Y-93550293D01*
X155873836Y-93549767D01*
X155829492Y-93584153D01*
X155795973Y-93590000D01*
X155727394Y-93590000D01*
X155727375Y-93590002D01*
X155716580Y-93591298D01*
X155656550Y-93579461D01*
X155614943Y-93534601D01*
X155607650Y-93473851D01*
X155610800Y-93461880D01*
X155640349Y-93372708D01*
X155650500Y-93273345D01*
X155650499Y-92726656D01*
X155650499Y-92726655D01*
X155650499Y-92726647D01*
X155640350Y-92627300D01*
X155640349Y-92627298D01*
X155640349Y-92627292D01*
X155587003Y-92466303D01*
X155575414Y-92447515D01*
X155559296Y-92421383D01*
X155497968Y-92321956D01*
X155470659Y-92294647D01*
X155442884Y-92240133D01*
X155452455Y-92179701D01*
X155470664Y-92154640D01*
X155497573Y-92127731D01*
X155586545Y-91983487D01*
X155639856Y-91822603D01*
X155650000Y-91723323D01*
X155650000Y-91550001D01*
X155649999Y-91550000D01*
X153700002Y-91550000D01*
X153700001Y-91550001D01*
X153700001Y-91723322D01*
X153710142Y-91822597D01*
X153710145Y-91822609D01*
X153763454Y-91983487D01*
X153852425Y-92127729D01*
X153879338Y-92154642D01*
X153907115Y-92209159D01*
X153897544Y-92269591D01*
X153879339Y-92294648D01*
X153852034Y-92321953D01*
X153852028Y-92321960D01*
X153848630Y-92327471D01*
X153801990Y-92367073D01*
X153764369Y-92374500D01*
X153179978Y-92374500D01*
X153165528Y-92372905D01*
X153165528Y-92372914D01*
X153159329Y-92372327D01*
X153114394Y-92373739D01*
X153090949Y-92374476D01*
X153089431Y-92374500D01*
X153060641Y-92374500D01*
X153053167Y-92375443D01*
X153048528Y-92375808D01*
X153008810Y-92377057D01*
X153001373Y-92377291D01*
X153001370Y-92377291D01*
X153001368Y-92377292D01*
X152980241Y-92383429D01*
X152965041Y-92386577D01*
X152943207Y-92389336D01*
X152943203Y-92389337D01*
X152899328Y-92406709D01*
X152894915Y-92408220D01*
X152849613Y-92421381D01*
X152849603Y-92421385D01*
X152830672Y-92432581D01*
X152816726Y-92439413D01*
X152796270Y-92447512D01*
X152796265Y-92447515D01*
X152758091Y-92475248D01*
X152754194Y-92477808D01*
X152713579Y-92501829D01*
X152713577Y-92501831D01*
X152698015Y-92517392D01*
X152686208Y-92527476D01*
X152668416Y-92540402D01*
X152638342Y-92576754D01*
X152635203Y-92580203D01*
X151694957Y-93520450D01*
X151640440Y-93548227D01*
X151636038Y-93548823D01*
X151495750Y-93564630D01*
X151495738Y-93564633D01*
X151325477Y-93624211D01*
X151325476Y-93624211D01*
X151172741Y-93720181D01*
X151045181Y-93847741D01*
X150949211Y-94000476D01*
X150946511Y-94008195D01*
X150909447Y-94056877D01*
X150853066Y-94074500D01*
X149904984Y-94074500D01*
X149890355Y-94072884D01*
X149890354Y-94072896D01*
X149889939Y-94072856D01*
X149889886Y-94072833D01*
X149883390Y-94072116D01*
X149878258Y-94070969D01*
X149878908Y-94068058D01*
X149833831Y-94048453D01*
X149802782Y-93995731D01*
X149800437Y-93974313D01*
X149800437Y-92692545D01*
X149800861Y-92686077D01*
X149805619Y-92649937D01*
X149805619Y-92649936D01*
X149791199Y-92540406D01*
X149784981Y-92493175D01*
X149755243Y-92421381D01*
X149724474Y-92347098D01*
X149724472Y-92347094D01*
X149707137Y-92324503D01*
X149707134Y-92324500D01*
X149705183Y-92321958D01*
X149628219Y-92221655D01*
X149628214Y-92221651D01*
X149628213Y-92221650D01*
X149599302Y-92199466D01*
X149594428Y-92195192D01*
X148777438Y-91378203D01*
X148749661Y-91323686D01*
X148759232Y-91263254D01*
X148777439Y-91238195D01*
X148891350Y-91124285D01*
X149036138Y-90979496D01*
X149090655Y-90951719D01*
X149106142Y-90950500D01*
X153615094Y-90950500D01*
X153673285Y-90969407D01*
X153709249Y-91018907D01*
X153709249Y-91071677D01*
X153711275Y-91072111D01*
X153710143Y-91077396D01*
X153700000Y-91176676D01*
X153700000Y-91349999D01*
X153700001Y-91350000D01*
X155649998Y-91350000D01*
X155649999Y-91349999D01*
X155649999Y-91324998D01*
X156200000Y-91324998D01*
X156200001Y-91325000D01*
X157074999Y-91325000D01*
X157075000Y-91324999D01*
X157275000Y-91324999D01*
X157275001Y-91325000D01*
X158149998Y-91325000D01*
X158149999Y-91324999D01*
X158149999Y-91151677D01*
X158139857Y-91052402D01*
X158139854Y-91052390D01*
X158086545Y-90891512D01*
X157997574Y-90747270D01*
X157877729Y-90627425D01*
X157733487Y-90538454D01*
X157572603Y-90485143D01*
X157473323Y-90475000D01*
X157275001Y-90475000D01*
X157275000Y-90475001D01*
X157275000Y-91324999D01*
X157075000Y-91324999D01*
X157075000Y-90475001D01*
X157074999Y-90475000D01*
X156876677Y-90475000D01*
X156777402Y-90485142D01*
X156777390Y-90485145D01*
X156616512Y-90538454D01*
X156472270Y-90627425D01*
X156352425Y-90747270D01*
X156263454Y-90891512D01*
X156210143Y-91052396D01*
X156200000Y-91151676D01*
X156200000Y-91324998D01*
X155649999Y-91324998D01*
X155649999Y-91176677D01*
X155639857Y-91077402D01*
X155639854Y-91077390D01*
X155586545Y-90916512D01*
X155497574Y-90772270D01*
X155377729Y-90652425D01*
X155233488Y-90563455D01*
X155185748Y-90547635D01*
X155136458Y-90511383D01*
X155117891Y-90453083D01*
X155118736Y-90440738D01*
X155125500Y-90389361D01*
X155130682Y-90350000D01*
X155130682Y-90349999D01*
X155125924Y-90313858D01*
X155125500Y-90307390D01*
X155125500Y-84787608D01*
X155125924Y-84781140D01*
X155130682Y-84745000D01*
X155130682Y-84744999D01*
X155110044Y-84588241D01*
X155110044Y-84588238D01*
X155068268Y-84487384D01*
X155063468Y-84426388D01*
X155095438Y-84374219D01*
X155151965Y-84350804D01*
X155159733Y-84350499D01*
X155227867Y-84350499D01*
X155227872Y-84350499D01*
X155287483Y-84344091D01*
X155345406Y-84322486D01*
X155406532Y-84319866D01*
X155414569Y-84322477D01*
X155472517Y-84344091D01*
X155532127Y-84350500D01*
X157127872Y-84350499D01*
X157187483Y-84344091D01*
X157245406Y-84322486D01*
X157306532Y-84319866D01*
X157314569Y-84322477D01*
X157372517Y-84344091D01*
X157432127Y-84350500D01*
X159027872Y-84350499D01*
X159087483Y-84344091D01*
X159146119Y-84322220D01*
X159207246Y-84319601D01*
X159215311Y-84322221D01*
X159272623Y-84343597D01*
X159272624Y-84343598D01*
X159332176Y-84350000D01*
X160029999Y-84350000D01*
X160030000Y-84349999D01*
X160230000Y-84349999D01*
X160230001Y-84350000D01*
X160927824Y-84350000D01*
X160987370Y-84343598D01*
X160987381Y-84343596D01*
X161122088Y-84293353D01*
X161122090Y-84293352D01*
X161237184Y-84207192D01*
X161237192Y-84207184D01*
X161323352Y-84092090D01*
X161323353Y-84092088D01*
X161373596Y-83957381D01*
X161373598Y-83957370D01*
X161380000Y-83897824D01*
X161380000Y-83050001D01*
X161379999Y-83050000D01*
X160230001Y-83050000D01*
X160230000Y-83050001D01*
X160230000Y-84349999D01*
X160030000Y-84349999D01*
X160030000Y-84349998D01*
X160030000Y-82849999D01*
X160230000Y-82849999D01*
X160230001Y-82850000D01*
X161379999Y-82850000D01*
X161380000Y-82849998D01*
X161380000Y-82002175D01*
X161373598Y-81942629D01*
X161373596Y-81942618D01*
X161323353Y-81807911D01*
X161323352Y-81807909D01*
X161237192Y-81692815D01*
X161237184Y-81692807D01*
X161122090Y-81606647D01*
X161122088Y-81606646D01*
X160987381Y-81556403D01*
X160987370Y-81556401D01*
X160927824Y-81550000D01*
X160230001Y-81550000D01*
X160230000Y-81550001D01*
X160230000Y-82849999D01*
X160030000Y-82849999D01*
X160030000Y-81550001D01*
X160029999Y-81550000D01*
X159332176Y-81550000D01*
X159272629Y-81556401D01*
X159272625Y-81556402D01*
X159215310Y-81577779D01*
X159154180Y-81580398D01*
X159146118Y-81577778D01*
X159087488Y-81555910D01*
X159087483Y-81555909D01*
X159087481Y-81555908D01*
X159087477Y-81555908D01*
X159056249Y-81552550D01*
X159027873Y-81549500D01*
X159027870Y-81549500D01*
X157432133Y-81549500D01*
X157432129Y-81549500D01*
X157432128Y-81549501D01*
X157402322Y-81552705D01*
X157372516Y-81555909D01*
X157314594Y-81577512D01*
X157253465Y-81580131D01*
X157245415Y-81577516D01*
X157187483Y-81555909D01*
X157187479Y-81555908D01*
X157187477Y-81555908D01*
X157156249Y-81552550D01*
X157127873Y-81549500D01*
X157127870Y-81549500D01*
X155532133Y-81549500D01*
X155532129Y-81549500D01*
X155532128Y-81549501D01*
X155502322Y-81552705D01*
X155472516Y-81555909D01*
X155414594Y-81577512D01*
X155353465Y-81580131D01*
X155345415Y-81577516D01*
X155287483Y-81555909D01*
X155287479Y-81555908D01*
X155287477Y-81555908D01*
X155256249Y-81552550D01*
X155227873Y-81549500D01*
X155227870Y-81549500D01*
X153632133Y-81549500D01*
X153632129Y-81549500D01*
X153632128Y-81549501D01*
X153602322Y-81552705D01*
X153572516Y-81555909D01*
X153572513Y-81555909D01*
X153513882Y-81577778D01*
X153452753Y-81580398D01*
X153444689Y-81577778D01*
X153387381Y-81556403D01*
X153387370Y-81556401D01*
X153327824Y-81550000D01*
X152630000Y-81550000D01*
X152630000Y-84349999D01*
X152630001Y-84350000D01*
X153327824Y-84350000D01*
X153387374Y-84343598D01*
X153444687Y-84322221D01*
X153505816Y-84319600D01*
X153513869Y-84322217D01*
X153572517Y-84344091D01*
X153632127Y-84350500D01*
X153730500Y-84350499D01*
X153788690Y-84369406D01*
X153824654Y-84418905D01*
X153829500Y-84449499D01*
X153829500Y-84607390D01*
X153829076Y-84613858D01*
X153824318Y-84649999D01*
X153824318Y-84650000D01*
X153829500Y-84689361D01*
X153844955Y-84806758D01*
X153844957Y-84806766D01*
X153905462Y-84952838D01*
X153908708Y-84958460D01*
X153907029Y-84959429D01*
X153924466Y-85008655D01*
X153924500Y-85011255D01*
X153924500Y-89650500D01*
X153905593Y-89708691D01*
X153856093Y-89744655D01*
X153825500Y-89749500D01*
X148859009Y-89749500D01*
X148852541Y-89749076D01*
X148816401Y-89744318D01*
X148816400Y-89744318D01*
X148777039Y-89749500D01*
X148659641Y-89764955D01*
X148659633Y-89764957D01*
X148513561Y-89825462D01*
X148513560Y-89825462D01*
X148388123Y-89921713D01*
X148388117Y-89921719D01*
X148365925Y-89950638D01*
X148361653Y-89955510D01*
X147404178Y-90912985D01*
X147349661Y-90940762D01*
X147345259Y-90941358D01*
X147249650Y-90952130D01*
X147249638Y-90952133D01*
X147079377Y-91011711D01*
X147079376Y-91011711D01*
X146926641Y-91107681D01*
X146799081Y-91235241D01*
X146703111Y-91387976D01*
X146703111Y-91387977D01*
X146643533Y-91558238D01*
X146643532Y-91558242D01*
X146623335Y-91737500D01*
X146640628Y-91890983D01*
X146628354Y-91950925D01*
X146583192Y-91992204D01*
X146578696Y-91994114D01*
X146550930Y-92005108D01*
X146546515Y-92006620D01*
X146501213Y-92019781D01*
X146501203Y-92019785D01*
X146482272Y-92030981D01*
X146468326Y-92037813D01*
X146447870Y-92045912D01*
X146447865Y-92045915D01*
X146409691Y-92073648D01*
X146405794Y-92076208D01*
X146365179Y-92100229D01*
X146365177Y-92100231D01*
X146349615Y-92115792D01*
X146337808Y-92125876D01*
X146320016Y-92138802D01*
X146289942Y-92175154D01*
X146286803Y-92178603D01*
X145289253Y-93176154D01*
X145277915Y-93185239D01*
X145277921Y-93185246D01*
X145273127Y-93189211D01*
X145273123Y-93189214D01*
X145273119Y-93189217D01*
X145273118Y-93189219D01*
X145226304Y-93239069D01*
X145225224Y-93240183D01*
X145204885Y-93260523D01*
X145204875Y-93260534D01*
X145200262Y-93266479D01*
X145197240Y-93270017D01*
X145164939Y-93304416D01*
X145164935Y-93304421D01*
X145154334Y-93323703D01*
X145145813Y-93336676D01*
X145132325Y-93354066D01*
X145113584Y-93397373D01*
X145111532Y-93401560D01*
X145088804Y-93442905D01*
X145088800Y-93442916D01*
X145083332Y-93464212D01*
X145078303Y-93478903D01*
X145069561Y-93499105D01*
X145069560Y-93499108D01*
X145064959Y-93528159D01*
X145037180Y-93582675D01*
X145001775Y-93605428D01*
X144932667Y-93631204D01*
X144817458Y-93717450D01*
X144817450Y-93717458D01*
X144731202Y-93832670D01*
X144680910Y-93967511D01*
X144680908Y-93967522D01*
X144678162Y-93993066D01*
X144653142Y-94048902D01*
X144625811Y-94067855D01*
X144626723Y-94069514D01*
X144621271Y-94072511D01*
X144583085Y-94100252D01*
X144579188Y-94102812D01*
X144538581Y-94126827D01*
X144523021Y-94142387D01*
X144511215Y-94152470D01*
X144493417Y-94165401D01*
X144463338Y-94201758D01*
X144460199Y-94205208D01*
X142839253Y-95826154D01*
X142827915Y-95835239D01*
X142827921Y-95835246D01*
X142823127Y-95839211D01*
X142823123Y-95839214D01*
X142823119Y-95839217D01*
X142823118Y-95839219D01*
X142776304Y-95889069D01*
X142775224Y-95890183D01*
X142754885Y-95910523D01*
X142754875Y-95910534D01*
X142750262Y-95916479D01*
X142747240Y-95920017D01*
X142714939Y-95954416D01*
X142714935Y-95954421D01*
X142704334Y-95973703D01*
X142695813Y-95986676D01*
X142682325Y-96004066D01*
X142663584Y-96047373D01*
X142661532Y-96051560D01*
X142638804Y-96092905D01*
X142638800Y-96092916D01*
X142633332Y-96114212D01*
X142628303Y-96128903D01*
X142619561Y-96149105D01*
X142619560Y-96149108D01*
X142612178Y-96195714D01*
X142611232Y-96200281D01*
X142599501Y-96245973D01*
X142599500Y-96245984D01*
X142599500Y-96267981D01*
X142598281Y-96283469D01*
X142594839Y-96305193D01*
X142599280Y-96352170D01*
X142599500Y-96356831D01*
X142599500Y-96425500D01*
X142580593Y-96483691D01*
X142531093Y-96519655D01*
X142500500Y-96524500D01*
X141295385Y-96524500D01*
X141280935Y-96522905D01*
X141280935Y-96522914D01*
X141274736Y-96522327D01*
X141229801Y-96523739D01*
X141206356Y-96524476D01*
X141204838Y-96524500D01*
X141176048Y-96524500D01*
X141168574Y-96525443D01*
X141163934Y-96525808D01*
X141116777Y-96527291D01*
X141095650Y-96533429D01*
X141080441Y-96536578D01*
X141058617Y-96539335D01*
X141014735Y-96556708D01*
X141010323Y-96558219D01*
X140965015Y-96571383D01*
X140946079Y-96582581D01*
X140932133Y-96589413D01*
X140911677Y-96597512D01*
X140911672Y-96597515D01*
X140873498Y-96625248D01*
X140869601Y-96627808D01*
X140828986Y-96651829D01*
X140828984Y-96651831D01*
X140813422Y-96667392D01*
X140801615Y-96677476D01*
X140783823Y-96690402D01*
X140753749Y-96726754D01*
X140750610Y-96730203D01*
X139814253Y-97666561D01*
X139802915Y-97675646D01*
X139802921Y-97675653D01*
X139798127Y-97679618D01*
X139798123Y-97679621D01*
X139798119Y-97679624D01*
X139798118Y-97679626D01*
X139751304Y-97729476D01*
X139750224Y-97730590D01*
X139729885Y-97750930D01*
X139729875Y-97750941D01*
X139725262Y-97756886D01*
X139722240Y-97760424D01*
X139689939Y-97794823D01*
X139689935Y-97794828D01*
X139679334Y-97814110D01*
X139670813Y-97827083D01*
X139657325Y-97844473D01*
X139638584Y-97887780D01*
X139636532Y-97891967D01*
X139613804Y-97933312D01*
X139613800Y-97933323D01*
X139608332Y-97954619D01*
X139603303Y-97969310D01*
X139594561Y-97989512D01*
X139594560Y-97989515D01*
X139587178Y-98036121D01*
X139586232Y-98040688D01*
X139574501Y-98086380D01*
X139574500Y-98086391D01*
X139574500Y-98108388D01*
X139573281Y-98123876D01*
X139569839Y-98145600D01*
X139574280Y-98192577D01*
X139574500Y-98197238D01*
X139574500Y-101524300D01*
X139555593Y-101582491D01*
X139545503Y-101594304D01*
X139094402Y-102045404D01*
X139039886Y-102073181D01*
X139024400Y-102074400D01*
X138851631Y-102074400D01*
X138851629Y-102074400D01*
X138851628Y-102074401D01*
X138846056Y-102075000D01*
X138792019Y-102080808D01*
X138792014Y-102080809D01*
X138657170Y-102131102D01*
X138541958Y-102217350D01*
X138541950Y-102217358D01*
X138455702Y-102332570D01*
X138405410Y-102467411D01*
X138405408Y-102467422D01*
X138399000Y-102527029D01*
X138399000Y-102650500D01*
X138380093Y-102708691D01*
X138330593Y-102744655D01*
X138300000Y-102749500D01*
X137862460Y-102749500D01*
X137804269Y-102730593D01*
X137772465Y-102688734D01*
X137772191Y-102688885D01*
X137771196Y-102687064D01*
X137769702Y-102685097D01*
X137768796Y-102682669D01*
X137682549Y-102567458D01*
X137682548Y-102567457D01*
X137682546Y-102567454D01*
X137676940Y-102563257D01*
X137567329Y-102481202D01*
X137432488Y-102430910D01*
X137432483Y-102430909D01*
X137432481Y-102430908D01*
X137432477Y-102430908D01*
X137401249Y-102427550D01*
X137372873Y-102424500D01*
X137372870Y-102424500D01*
X136477133Y-102424500D01*
X136477129Y-102424500D01*
X136477128Y-102424501D01*
X136469949Y-102425272D01*
X136417519Y-102430908D01*
X136417514Y-102430909D01*
X136282670Y-102481202D01*
X136167458Y-102567450D01*
X136167450Y-102567458D01*
X136081202Y-102682670D01*
X136030910Y-102817511D01*
X136030908Y-102817522D01*
X136024500Y-102877129D01*
X136024500Y-103872866D01*
X136024501Y-103872870D01*
X136030908Y-103932480D01*
X136030909Y-103932485D01*
X136066366Y-104027550D01*
X136068986Y-104088679D01*
X136043613Y-104132148D01*
X136020004Y-104155758D01*
X135965488Y-104183537D01*
X135905056Y-104173967D01*
X135879995Y-104155760D01*
X135244495Y-103520260D01*
X135216718Y-103465743D01*
X135215499Y-103450256D01*
X135215499Y-103062132D01*
X135215499Y-103062128D01*
X135209091Y-103002517D01*
X135198828Y-102975000D01*
X135158797Y-102867670D01*
X135072549Y-102752458D01*
X135072548Y-102752457D01*
X135072546Y-102752454D01*
X135068600Y-102749500D01*
X134957329Y-102666202D01*
X134822488Y-102615910D01*
X134822483Y-102615909D01*
X134822481Y-102615908D01*
X134822477Y-102615908D01*
X134791249Y-102612550D01*
X134762873Y-102609500D01*
X134762870Y-102609500D01*
X133837133Y-102609500D01*
X133837129Y-102609500D01*
X133837128Y-102609501D01*
X133832579Y-102609990D01*
X133777519Y-102615908D01*
X133777514Y-102615909D01*
X133642670Y-102666202D01*
X133527458Y-102752450D01*
X133527450Y-102752458D01*
X133503218Y-102784829D01*
X133453209Y-102820082D01*
X133423965Y-102824500D01*
X132781240Y-102824500D01*
X132743354Y-102816964D01*
X132706018Y-102801499D01*
X132625642Y-102768206D01*
X132625640Y-102768205D01*
X132625638Y-102768205D01*
X132609387Y-102766066D01*
X132468881Y-102747568D01*
X132468879Y-102747568D01*
X132432739Y-102752326D01*
X132426271Y-102752750D01*
X132237000Y-102752750D01*
X132178809Y-102733843D01*
X132142845Y-102684343D01*
X132138000Y-102653750D01*
X132138000Y-100680571D01*
X132138000Y-100680570D01*
X132129702Y-100652312D01*
X132126700Y-100638513D01*
X132122511Y-100609370D01*
X132110273Y-100582574D01*
X132105344Y-100569358D01*
X132097047Y-100541098D01*
X132081121Y-100516317D01*
X132074355Y-100503924D01*
X132071765Y-100498253D01*
X132062126Y-100477146D01*
X132042846Y-100454896D01*
X132034379Y-100443586D01*
X132034378Y-100443585D01*
X132018460Y-100418814D01*
X131996201Y-100399526D01*
X131986218Y-100389542D01*
X131966936Y-100367290D01*
X131966937Y-100367290D01*
X131942160Y-100351368D01*
X131930858Y-100342908D01*
X131908604Y-100323624D01*
X131908602Y-100323623D01*
X131908601Y-100323622D01*
X131881818Y-100311390D01*
X131869428Y-100304625D01*
X131844652Y-100288703D01*
X131844651Y-100288702D01*
X131844650Y-100288702D01*
X131844647Y-100288700D01*
X131816396Y-100280405D01*
X131803165Y-100275470D01*
X131776379Y-100263238D01*
X131747241Y-100259049D01*
X131733437Y-100256047D01*
X131705181Y-100247750D01*
X131705180Y-100247750D01*
X131668653Y-100247750D01*
X130245180Y-100247750D01*
X130099820Y-100247750D01*
X130099817Y-100247750D01*
X130075388Y-100254923D01*
X130019608Y-100254922D01*
X129995184Y-100247750D01*
X129995180Y-100247750D01*
X129958653Y-100247750D01*
X129295180Y-100247750D01*
X129149820Y-100247750D01*
X129149819Y-100247750D01*
X129149813Y-100247751D01*
X129121562Y-100256046D01*
X129107763Y-100259048D01*
X129078624Y-100263237D01*
X129078619Y-100263239D01*
X129051836Y-100275470D01*
X129038607Y-100280404D01*
X129010352Y-100288701D01*
X129010345Y-100288704D01*
X128985570Y-100304625D01*
X128973180Y-100311391D01*
X128946397Y-100323623D01*
X128924139Y-100342909D01*
X128912835Y-100351370D01*
X128888064Y-100367289D01*
X128868776Y-100389547D01*
X128858797Y-100399526D01*
X128836539Y-100418814D01*
X128820620Y-100443585D01*
X128812159Y-100454889D01*
X128792873Y-100477147D01*
X128780641Y-100503930D01*
X128773875Y-100516320D01*
X128757954Y-100541095D01*
X128757951Y-100541102D01*
X128749654Y-100569357D01*
X128744720Y-100582586D01*
X128732489Y-100609369D01*
X128732487Y-100609374D01*
X128728298Y-100638513D01*
X128725296Y-100652312D01*
X128717001Y-100680563D01*
X128715993Y-100687576D01*
X128712663Y-100687097D01*
X128698093Y-100731941D01*
X128648593Y-100767905D01*
X128618000Y-100772750D01*
X127098942Y-100772750D01*
X127094234Y-100772526D01*
X127084568Y-100771603D01*
X127061655Y-100772694D01*
X127059301Y-100772750D01*
X127036345Y-100772750D01*
X127029544Y-100773728D01*
X127015367Y-100774736D01*
X126994801Y-100774718D01*
X126994794Y-100774718D01*
X126984939Y-100776126D01*
X126980300Y-100776567D01*
X126970342Y-100777041D01*
X126958481Y-100779327D01*
X126951818Y-100780147D01*
X126946548Y-100780435D01*
X126945814Y-100780476D01*
X126925470Y-100784544D01*
X126922766Y-100785007D01*
X126909879Y-100786848D01*
X126907724Y-100787100D01*
X126904992Y-100787547D01*
X126902226Y-100787942D01*
X126902220Y-100787943D01*
X126895046Y-100790042D01*
X126892614Y-100790686D01*
X126882238Y-100793157D01*
X126880481Y-100793542D01*
X126866704Y-100796297D01*
X126864332Y-100796712D01*
X126857872Y-100797680D01*
X126838585Y-100803465D01*
X126835831Y-100804205D01*
X126816232Y-100808873D01*
X126811454Y-100810377D01*
X126809251Y-100810960D01*
X126807666Y-100811419D01*
X126789780Y-100818009D01*
X126786893Y-100818973D01*
X126768619Y-100824455D01*
X126768610Y-100824459D01*
X126758739Y-100829036D01*
X126756310Y-100830084D01*
X126748864Y-100833063D01*
X126747611Y-100833545D01*
X126738052Y-100837066D01*
X126735560Y-100837909D01*
X126725780Y-100840931D01*
X126725773Y-100840934D01*
X126708619Y-100849060D01*
X126705830Y-100850277D01*
X126699523Y-100852800D01*
X126688190Y-100857333D01*
X126685018Y-100858874D01*
X126684950Y-100858734D01*
X126679761Y-100861201D01*
X126679814Y-100861315D01*
X126676608Y-100862807D01*
X126660710Y-100871638D01*
X126657868Y-100873098D01*
X126641433Y-100880884D01*
X126641429Y-100880886D01*
X126639178Y-100882378D01*
X126637654Y-100883348D01*
X126618656Y-100894956D01*
X126613558Y-100897677D01*
X126610241Y-100899205D01*
X126610238Y-100899206D01*
X126606464Y-100901648D01*
X126603625Y-100903352D01*
X126595404Y-100907920D01*
X126589033Y-100912763D01*
X126584890Y-100915592D01*
X126571203Y-100923956D01*
X126569565Y-100924914D01*
X126559164Y-100930733D01*
X126559143Y-100930746D01*
X126547758Y-100939452D01*
X126544589Y-100941684D01*
X126532540Y-100949481D01*
X126532529Y-100949489D01*
X126526024Y-100955161D01*
X126520460Y-100959361D01*
X126514833Y-100963016D01*
X126514828Y-100963020D01*
X126501405Y-100974764D01*
X126498883Y-100976827D01*
X126484723Y-100987656D01*
X126484714Y-100987664D01*
X126478777Y-100993722D01*
X126477200Y-100995262D01*
X126466111Y-101005612D01*
X126464932Y-101006676D01*
X126453036Y-101017086D01*
X126451454Y-101018413D01*
X126444625Y-101023902D01*
X126444613Y-101023913D01*
X126433006Y-101036348D01*
X126430599Y-101038755D01*
X126418164Y-101050362D01*
X126418147Y-101050380D01*
X126412643Y-101057227D01*
X126411318Y-101058807D01*
X126400941Y-101070667D01*
X126399875Y-101071846D01*
X126389523Y-101082938D01*
X126387982Y-101084517D01*
X126381921Y-101090455D01*
X126381914Y-101090464D01*
X126371070Y-101104642D01*
X126369006Y-101107165D01*
X126357268Y-101120581D01*
X126357258Y-101120593D01*
X126353604Y-101126218D01*
X126349405Y-101131781D01*
X126343742Y-101138278D01*
X126343734Y-101138287D01*
X126335942Y-101150329D01*
X126333708Y-101153500D01*
X126324993Y-101164897D01*
X126319166Y-101175312D01*
X126318208Y-101176948D01*
X126309846Y-101190633D01*
X126307018Y-101194775D01*
X126302171Y-101201153D01*
X126297606Y-101209370D01*
X126295903Y-101212206D01*
X126293957Y-101215214D01*
X126293455Y-101215992D01*
X126291937Y-101219289D01*
X126289213Y-101224395D01*
X126285580Y-101230342D01*
X126239107Y-101270140D01*
X126178116Y-101275021D01*
X126125905Y-101243121D01*
X126102416Y-101186624D01*
X126102100Y-101178726D01*
X126102100Y-95782983D01*
X126800500Y-95782983D01*
X126840138Y-96045965D01*
X126840140Y-96045975D01*
X126918533Y-96300116D01*
X127027185Y-96525735D01*
X127033929Y-96539738D01*
X127183750Y-96759485D01*
X127183753Y-96759488D01*
X127183755Y-96759491D01*
X127364647Y-96954446D01*
X127364659Y-96954457D01*
X127544328Y-97097738D01*
X127572585Y-97120272D01*
X127572589Y-97120274D01*
X127572590Y-97120275D01*
X127802901Y-97253245D01*
X127802905Y-97253247D01*
X127802914Y-97253252D01*
X127907222Y-97294190D01*
X128000779Y-97330909D01*
X128050490Y-97350419D01*
X128309783Y-97409601D01*
X128376054Y-97414567D01*
X128508591Y-97424500D01*
X128508599Y-97424500D01*
X128641409Y-97424500D01*
X128763749Y-97415331D01*
X128840217Y-97409601D01*
X129099510Y-97350419D01*
X129347086Y-97253252D01*
X129577415Y-97120272D01*
X129765655Y-96970155D01*
X129785340Y-96954457D01*
X129785341Y-96954455D01*
X129785351Y-96954448D01*
X129966250Y-96759485D01*
X130116071Y-96539738D01*
X130231467Y-96300116D01*
X130309861Y-96045971D01*
X130349500Y-95782980D01*
X130349500Y-95554366D01*
X135867203Y-95554366D01*
X135897248Y-95750478D01*
X135898017Y-95755498D01*
X135968687Y-95946314D01*
X135987174Y-95975974D01*
X136076318Y-96118994D01*
X136076320Y-96118996D01*
X136076321Y-96118998D01*
X136104939Y-96149104D01*
X136205597Y-96254996D01*
X136216514Y-96266480D01*
X136216516Y-96266481D01*
X136216519Y-96266484D01*
X136346325Y-96356831D01*
X136383524Y-96382722D01*
X136570513Y-96462966D01*
X136570515Y-96462967D01*
X136769832Y-96503927D01*
X136769835Y-96503927D01*
X136922317Y-96503927D01*
X136947954Y-96501319D01*
X137074011Y-96488501D01*
X137268161Y-96427586D01*
X137446075Y-96328836D01*
X137600468Y-96196293D01*
X137725021Y-96035385D01*
X137814633Y-95852698D01*
X137865636Y-95655712D01*
X137875942Y-95452491D01*
X137845129Y-95251356D01*
X137774459Y-95060540D01*
X137666825Y-94887856D01*
X137526632Y-94740374D01*
X137526630Y-94740372D01*
X137526626Y-94740369D01*
X137359627Y-94624135D01*
X137359624Y-94624133D01*
X137359622Y-94624132D01*
X137172631Y-94543887D01*
X137172633Y-94543887D01*
X137092904Y-94527503D01*
X136973314Y-94502927D01*
X136820831Y-94502927D01*
X136820829Y-94502927D01*
X136669134Y-94518353D01*
X136474983Y-94579268D01*
X136474982Y-94579269D01*
X136297074Y-94678015D01*
X136297071Y-94678017D01*
X136142682Y-94810556D01*
X136018122Y-94971472D01*
X135945558Y-95119407D01*
X135928513Y-95154156D01*
X135881195Y-95336909D01*
X135877509Y-95351146D01*
X135867204Y-95554363D01*
X135867203Y-95554366D01*
X130349500Y-95554366D01*
X130349500Y-95517020D01*
X130309861Y-95254029D01*
X130231467Y-94999884D01*
X130116071Y-94760262D01*
X129966250Y-94540515D01*
X129955802Y-94529255D01*
X129785352Y-94345553D01*
X129785340Y-94345542D01*
X129577423Y-94179734D01*
X129577409Y-94179724D01*
X129347098Y-94046754D01*
X129347089Y-94046749D01*
X129347086Y-94046748D01*
X129347082Y-94046746D01*
X129347079Y-94046745D01*
X129099512Y-93949581D01*
X128840221Y-93890400D01*
X128840212Y-93890398D01*
X128641409Y-93875500D01*
X128641401Y-93875500D01*
X128508599Y-93875500D01*
X128508591Y-93875500D01*
X128309787Y-93890398D01*
X128309778Y-93890400D01*
X128050487Y-93949581D01*
X127802920Y-94046745D01*
X127802901Y-94046754D01*
X127572590Y-94179724D01*
X127572576Y-94179734D01*
X127364659Y-94345542D01*
X127364647Y-94345553D01*
X127183755Y-94540508D01*
X127183750Y-94540514D01*
X127183750Y-94540515D01*
X127033929Y-94760262D01*
X127033927Y-94760265D01*
X127033925Y-94760269D01*
X126918533Y-94999883D01*
X126840140Y-95254024D01*
X126840138Y-95254034D01*
X126800500Y-95517016D01*
X126800500Y-95782983D01*
X126102100Y-95782983D01*
X126102100Y-90251065D01*
X141170504Y-90251065D01*
X141201317Y-90452193D01*
X141201318Y-90452197D01*
X141271988Y-90643013D01*
X141271989Y-90643014D01*
X141379619Y-90815693D01*
X141379624Y-90815699D01*
X141512688Y-90955682D01*
X141519815Y-90963179D01*
X141519817Y-90963180D01*
X141519820Y-90963183D01*
X141683924Y-91077402D01*
X141686825Y-91079421D01*
X141873814Y-91159665D01*
X141873816Y-91159666D01*
X142073133Y-91200626D01*
X142073136Y-91200626D01*
X142225618Y-91200626D01*
X142251255Y-91198018D01*
X142377312Y-91185200D01*
X142571462Y-91124285D01*
X142749376Y-91025535D01*
X142903769Y-90892992D01*
X143028322Y-90732084D01*
X143117934Y-90549397D01*
X143168937Y-90352411D01*
X143179243Y-90149190D01*
X143148430Y-89948055D01*
X143077760Y-89757239D01*
X142970126Y-89584555D01*
X142896646Y-89507255D01*
X142829937Y-89437077D01*
X142829927Y-89437068D01*
X142662928Y-89320834D01*
X142662925Y-89320832D01*
X142662923Y-89320831D01*
X142475932Y-89240586D01*
X142475934Y-89240586D01*
X142396205Y-89224202D01*
X142276615Y-89199626D01*
X142124132Y-89199626D01*
X142124130Y-89199626D01*
X141972435Y-89215052D01*
X141778284Y-89275967D01*
X141778283Y-89275968D01*
X141600375Y-89374714D01*
X141600372Y-89374716D01*
X141445983Y-89507255D01*
X141321423Y-89668171D01*
X141244270Y-89825462D01*
X141231814Y-89850855D01*
X141205311Y-89953216D01*
X141180810Y-90047845D01*
X141170505Y-90251062D01*
X141170504Y-90251065D01*
X126102100Y-90251065D01*
X126102100Y-83897824D01*
X151279999Y-83897824D01*
X151286401Y-83957370D01*
X151286403Y-83957381D01*
X151336646Y-84092088D01*
X151336647Y-84092090D01*
X151422807Y-84207184D01*
X151422815Y-84207192D01*
X151537909Y-84293352D01*
X151537911Y-84293353D01*
X151672618Y-84343596D01*
X151672629Y-84343598D01*
X151732176Y-84350000D01*
X152429999Y-84350000D01*
X152430000Y-84349999D01*
X152430000Y-83050001D01*
X152429999Y-83050000D01*
X151280001Y-83050000D01*
X151280000Y-83050001D01*
X151280000Y-83897824D01*
X151279999Y-83897824D01*
X126102100Y-83897824D01*
X126102100Y-82849999D01*
X151280000Y-82849999D01*
X151280001Y-82850000D01*
X152429999Y-82850000D01*
X152430000Y-82849998D01*
X152430000Y-81550001D01*
X152429999Y-81550000D01*
X151732176Y-81550000D01*
X151672629Y-81556401D01*
X151672618Y-81556403D01*
X151537911Y-81606646D01*
X151537909Y-81606647D01*
X151422815Y-81692807D01*
X151422807Y-81692815D01*
X151336647Y-81807909D01*
X151336646Y-81807911D01*
X151286403Y-81942618D01*
X151286401Y-81942629D01*
X151280000Y-82002175D01*
X151280000Y-82849999D01*
X126102100Y-82849999D01*
X126102100Y-80947824D01*
X148329999Y-80947824D01*
X148336401Y-81007370D01*
X148336403Y-81007381D01*
X148386646Y-81142088D01*
X148386647Y-81142090D01*
X148472807Y-81257184D01*
X148472815Y-81257192D01*
X148587909Y-81343352D01*
X148587911Y-81343353D01*
X148722618Y-81393596D01*
X148722629Y-81393598D01*
X148782176Y-81400000D01*
X149629999Y-81400000D01*
X149630000Y-81399998D01*
X149630000Y-80250001D01*
X149629999Y-80250000D01*
X149830000Y-80250000D01*
X149830000Y-81399999D01*
X149830001Y-81400000D01*
X150677824Y-81400000D01*
X150737370Y-81393598D01*
X150737381Y-81393596D01*
X150872088Y-81343353D01*
X150872090Y-81343352D01*
X150987184Y-81257192D01*
X150987192Y-81257184D01*
X151073352Y-81142090D01*
X151073353Y-81142088D01*
X151123596Y-81007381D01*
X151123598Y-81007370D01*
X151130000Y-80947824D01*
X161529999Y-80947824D01*
X161536401Y-81007370D01*
X161536403Y-81007381D01*
X161586646Y-81142088D01*
X161586647Y-81142090D01*
X161672807Y-81257184D01*
X161672815Y-81257192D01*
X161787909Y-81343352D01*
X161787911Y-81343353D01*
X161922618Y-81393596D01*
X161922629Y-81393598D01*
X161982176Y-81400000D01*
X162829999Y-81400000D01*
X162830000Y-81399999D01*
X162830000Y-80250000D01*
X163030000Y-80250000D01*
X163030000Y-81399999D01*
X163030001Y-81400000D01*
X163877824Y-81400000D01*
X163937370Y-81393598D01*
X163937381Y-81393596D01*
X164072088Y-81343353D01*
X164072090Y-81343352D01*
X164187184Y-81257192D01*
X164187192Y-81257184D01*
X164273352Y-81142090D01*
X164273353Y-81142088D01*
X164323596Y-81007381D01*
X164323598Y-81007370D01*
X164330000Y-80947824D01*
X164330000Y-80250000D01*
X163030000Y-80250000D01*
X162830000Y-80250000D01*
X161530001Y-80250000D01*
X161530000Y-80250001D01*
X161530000Y-80947824D01*
X161529999Y-80947824D01*
X151130000Y-80947824D01*
X151130000Y-80250001D01*
X151129999Y-80250000D01*
X149830000Y-80250000D01*
X149629999Y-80250000D01*
X148330001Y-80250000D01*
X148330000Y-80250001D01*
X148330000Y-80947824D01*
X148329999Y-80947824D01*
X126102100Y-80947824D01*
X126102100Y-78250000D01*
X147124435Y-78250000D01*
X147144632Y-78429257D01*
X147144633Y-78429261D01*
X147204211Y-78599522D01*
X147204211Y-78599523D01*
X147300181Y-78752258D01*
X147300184Y-78752262D01*
X147427738Y-78879816D01*
X147427740Y-78879817D01*
X147427741Y-78879818D01*
X147578426Y-78974500D01*
X147580478Y-78975789D01*
X147648657Y-78999646D01*
X147750738Y-79035366D01*
X147750742Y-79035367D01*
X147750745Y-79035368D01*
X147930000Y-79055565D01*
X148109255Y-79035368D01*
X148202429Y-79002764D01*
X148263597Y-79001391D01*
X148313892Y-79036235D01*
X148333559Y-79085625D01*
X148335908Y-79107478D01*
X148335909Y-79107482D01*
X148335909Y-79107485D01*
X148357778Y-79166118D01*
X148360398Y-79227247D01*
X148357779Y-79235310D01*
X148336402Y-79292625D01*
X148336401Y-79292629D01*
X148330000Y-79352175D01*
X148330000Y-80049998D01*
X148330001Y-80050000D01*
X151129999Y-80050000D01*
X151130000Y-80049999D01*
X151130000Y-79352175D01*
X151123598Y-79292624D01*
X151123597Y-79292623D01*
X151102221Y-79235311D01*
X151099600Y-79174182D01*
X151102212Y-79166143D01*
X151124091Y-79107483D01*
X151130500Y-79047873D01*
X151130500Y-79047866D01*
X161529500Y-79047866D01*
X161529501Y-79047870D01*
X161535908Y-79107480D01*
X161535909Y-79107485D01*
X161557778Y-79166118D01*
X161560398Y-79227247D01*
X161557779Y-79235310D01*
X161536402Y-79292625D01*
X161536401Y-79292629D01*
X161530000Y-79352175D01*
X161530000Y-80049999D01*
X161530001Y-80050000D01*
X164329999Y-80050000D01*
X164330000Y-80049999D01*
X164330000Y-79352175D01*
X164323598Y-79292624D01*
X164323597Y-79292623D01*
X164302221Y-79235311D01*
X164299600Y-79174182D01*
X164302212Y-79166143D01*
X164324091Y-79107483D01*
X164330500Y-79047873D01*
X164330500Y-78974500D01*
X164349407Y-78916309D01*
X164398907Y-78880345D01*
X164429500Y-78875500D01*
X165017752Y-78875500D01*
X165075943Y-78894407D01*
X165111726Y-78943358D01*
X165145186Y-79044334D01*
X165145187Y-79044336D01*
X165237285Y-79193652D01*
X165237286Y-79193653D01*
X165237288Y-79193656D01*
X165325505Y-79281873D01*
X165353281Y-79336388D01*
X165354500Y-79351875D01*
X165354500Y-79391921D01*
X165339326Y-79444591D01*
X165304211Y-79500476D01*
X165244633Y-79670738D01*
X165244632Y-79670742D01*
X165224435Y-79850000D01*
X165244632Y-80029257D01*
X165244633Y-80029261D01*
X165304211Y-80199522D01*
X165304211Y-80199523D01*
X165400181Y-80352258D01*
X165400184Y-80352262D01*
X165527738Y-80479816D01*
X165680478Y-80575789D01*
X165748657Y-80599646D01*
X165850738Y-80635366D01*
X165850742Y-80635367D01*
X165850745Y-80635368D01*
X166030000Y-80655565D01*
X166209255Y-80635368D01*
X166379522Y-80575789D01*
X166532262Y-80479816D01*
X166659816Y-80352262D01*
X166755789Y-80199522D01*
X166815368Y-80029255D01*
X166835565Y-79850000D01*
X166815368Y-79670745D01*
X166755789Y-79500478D01*
X166751776Y-79494091D01*
X166738109Y-79472340D01*
X166723159Y-79413010D01*
X166745938Y-79356223D01*
X166769959Y-79335411D01*
X166798656Y-79317712D01*
X166922712Y-79193656D01*
X166946033Y-79155846D01*
X166992672Y-79116246D01*
X167053682Y-79111622D01*
X167105759Y-79143741D01*
X167114553Y-79155846D01*
X167137679Y-79193339D01*
X167261659Y-79317319D01*
X167410875Y-79409356D01*
X167577306Y-79464506D01*
X167680013Y-79474999D01*
X167879998Y-79474999D01*
X167879999Y-79474998D01*
X168080000Y-79474998D01*
X168080001Y-79474999D01*
X168279986Y-79474999D01*
X168382687Y-79464507D01*
X168382699Y-79464504D01*
X168549124Y-79409356D01*
X168698340Y-79317319D01*
X168822319Y-79193340D01*
X168914356Y-79044124D01*
X168969506Y-78877693D01*
X168980000Y-78774987D01*
X168980000Y-78350001D01*
X168979999Y-78350000D01*
X168080001Y-78350000D01*
X168080000Y-78350001D01*
X168080000Y-79474998D01*
X167879999Y-79474998D01*
X167880000Y-79474997D01*
X167880000Y-78149999D01*
X168080000Y-78149999D01*
X168080001Y-78150000D01*
X168979998Y-78150000D01*
X168979999Y-78149999D01*
X168979999Y-77725013D01*
X168969507Y-77622312D01*
X168969504Y-77622300D01*
X168914356Y-77455875D01*
X168822319Y-77306659D01*
X168698340Y-77182680D01*
X168549124Y-77090643D01*
X168382693Y-77035493D01*
X168279987Y-77025000D01*
X168080001Y-77025000D01*
X168080000Y-77025001D01*
X168080000Y-78149999D01*
X167880000Y-78149999D01*
X167880000Y-77025001D01*
X167879999Y-77025000D01*
X167680013Y-77025000D01*
X167577312Y-77035492D01*
X167577300Y-77035495D01*
X167410875Y-77090643D01*
X167261659Y-77182680D01*
X167137680Y-77306659D01*
X167114553Y-77344154D01*
X167067911Y-77383754D01*
X167006901Y-77388377D01*
X166954825Y-77356255D01*
X166946032Y-77344152D01*
X166922714Y-77306347D01*
X166922713Y-77306346D01*
X166922712Y-77306344D01*
X166798656Y-77182288D01*
X166798653Y-77182286D01*
X166798652Y-77182285D01*
X166649336Y-77090187D01*
X166649335Y-77090186D01*
X166649334Y-77090186D01*
X166482797Y-77035001D01*
X166482794Y-77035000D01*
X166380016Y-77024500D01*
X165779983Y-77024500D01*
X165677211Y-77034999D01*
X165677199Y-77035002D01*
X165510663Y-77090187D01*
X165361347Y-77182285D01*
X165237285Y-77306347D01*
X165145187Y-77455663D01*
X165145186Y-77455665D01*
X165145186Y-77455666D01*
X165111726Y-77556641D01*
X165075476Y-77605930D01*
X165017752Y-77624500D01*
X164429499Y-77624500D01*
X164371308Y-77605593D01*
X164335344Y-77556093D01*
X164330499Y-77525500D01*
X164330499Y-77452133D01*
X164330499Y-77452128D01*
X164324091Y-77392517D01*
X164302486Y-77334593D01*
X164299866Y-77273468D01*
X164302477Y-77265430D01*
X164324091Y-77207483D01*
X164330500Y-77147873D01*
X164330499Y-75552128D01*
X164324091Y-75492517D01*
X164302486Y-75434593D01*
X164299866Y-75373468D01*
X164302477Y-75365430D01*
X164324091Y-75307483D01*
X164330500Y-75247873D01*
X164330499Y-73652128D01*
X164324091Y-73592517D01*
X164302220Y-73533880D01*
X164299601Y-73472753D01*
X164302221Y-73464687D01*
X164323598Y-73407374D01*
X164330000Y-73347824D01*
X164330000Y-72650000D01*
X161530001Y-72650000D01*
X161530000Y-72650001D01*
X161530000Y-73347824D01*
X161529999Y-73347824D01*
X161536401Y-73407370D01*
X161536403Y-73407381D01*
X161557778Y-73464689D01*
X161560398Y-73525818D01*
X161557780Y-73533876D01*
X161557779Y-73533882D01*
X161535909Y-73592518D01*
X161535908Y-73592522D01*
X161529500Y-73652129D01*
X161529500Y-75247866D01*
X161529501Y-75247870D01*
X161535909Y-75307485D01*
X161557511Y-75365404D01*
X161560131Y-75426533D01*
X161557512Y-75434595D01*
X161535909Y-75492515D01*
X161535908Y-75492522D01*
X161529500Y-75552129D01*
X161529500Y-77147866D01*
X161529501Y-77147870D01*
X161535909Y-77207485D01*
X161557511Y-77265404D01*
X161560131Y-77326533D01*
X161557512Y-77334595D01*
X161535909Y-77392515D01*
X161535908Y-77392522D01*
X161529500Y-77452129D01*
X161529500Y-79047866D01*
X151130500Y-79047866D01*
X151130499Y-77452128D01*
X151124091Y-77392517D01*
X151102486Y-77334593D01*
X151099866Y-77273468D01*
X151102477Y-77265430D01*
X151124091Y-77207483D01*
X151130500Y-77147873D01*
X151130499Y-75552128D01*
X151124091Y-75492517D01*
X151102486Y-75434593D01*
X151099866Y-75373468D01*
X151102477Y-75365430D01*
X151124091Y-75307483D01*
X151130500Y-75247873D01*
X151130499Y-73652128D01*
X151124091Y-73592517D01*
X151102220Y-73533880D01*
X151099601Y-73472753D01*
X151102221Y-73464687D01*
X151123598Y-73407374D01*
X151130000Y-73347824D01*
X151130000Y-72650001D01*
X151129999Y-72650000D01*
X148330001Y-72650000D01*
X148330000Y-72650001D01*
X148330000Y-73347824D01*
X148329999Y-73347824D01*
X148336401Y-73407370D01*
X148336403Y-73407381D01*
X148357778Y-73464689D01*
X148360398Y-73525818D01*
X148357780Y-73533876D01*
X148357779Y-73533882D01*
X148335909Y-73592518D01*
X148335908Y-73592522D01*
X148329500Y-73652129D01*
X148329500Y-75247866D01*
X148329501Y-75247870D01*
X148335909Y-75307485D01*
X148357511Y-75365404D01*
X148360131Y-75426533D01*
X148357512Y-75434595D01*
X148335909Y-75492515D01*
X148335908Y-75492522D01*
X148329500Y-75552129D01*
X148329500Y-77147866D01*
X148329501Y-77147870D01*
X148335909Y-77207485D01*
X148357511Y-77265404D01*
X148360131Y-77326533D01*
X148357512Y-77334595D01*
X148335909Y-77392515D01*
X148335908Y-77392521D01*
X148333559Y-77414374D01*
X148308539Y-77470210D01*
X148255478Y-77500676D01*
X148202428Y-77497234D01*
X148109261Y-77464633D01*
X148109257Y-77464632D01*
X147930000Y-77444435D01*
X147750742Y-77464632D01*
X147750738Y-77464633D01*
X147580477Y-77524211D01*
X147580476Y-77524211D01*
X147427741Y-77620181D01*
X147300181Y-77747741D01*
X147204211Y-77900476D01*
X147204211Y-77900477D01*
X147144633Y-78070738D01*
X147144632Y-78070742D01*
X147124435Y-78250000D01*
X126102100Y-78250000D01*
X126102100Y-72449998D01*
X148330000Y-72449998D01*
X148330001Y-72450000D01*
X149629999Y-72450000D01*
X149630000Y-72449999D01*
X149630000Y-71300001D01*
X149629999Y-71300000D01*
X149830000Y-71300000D01*
X149830000Y-72449999D01*
X149830001Y-72450000D01*
X151129999Y-72450000D01*
X151130000Y-72449999D01*
X151130000Y-72449998D01*
X161530000Y-72449998D01*
X161530001Y-72450000D01*
X162829999Y-72450000D01*
X162830000Y-72449999D01*
X163030000Y-72449999D01*
X163030001Y-72450000D01*
X164329999Y-72450000D01*
X164330000Y-72449999D01*
X164330000Y-71752175D01*
X164323598Y-71692629D01*
X164323596Y-71692618D01*
X164273353Y-71557911D01*
X164273352Y-71557909D01*
X164187192Y-71442815D01*
X164187184Y-71442807D01*
X164072090Y-71356647D01*
X164072088Y-71356646D01*
X163937381Y-71306403D01*
X163937370Y-71306401D01*
X163877824Y-71300000D01*
X163030001Y-71300000D01*
X163030000Y-71300001D01*
X163030000Y-72449999D01*
X162830000Y-72449999D01*
X162830000Y-71300001D01*
X162829999Y-71300000D01*
X161982176Y-71300000D01*
X161922629Y-71306401D01*
X161922618Y-71306403D01*
X161787911Y-71356646D01*
X161787909Y-71356647D01*
X161672815Y-71442807D01*
X161672807Y-71442815D01*
X161586647Y-71557909D01*
X161586646Y-71557911D01*
X161536403Y-71692618D01*
X161536401Y-71692629D01*
X161530000Y-71752175D01*
X161530000Y-72449998D01*
X151130000Y-72449998D01*
X151130000Y-71752175D01*
X151123598Y-71692629D01*
X151123596Y-71692618D01*
X151073353Y-71557911D01*
X151073352Y-71557909D01*
X150987192Y-71442815D01*
X150987184Y-71442807D01*
X150872090Y-71356647D01*
X150872088Y-71356646D01*
X150737381Y-71306403D01*
X150737370Y-71306401D01*
X150677824Y-71300000D01*
X149830000Y-71300000D01*
X149629999Y-71300000D01*
X148782176Y-71300000D01*
X148722629Y-71306401D01*
X148722618Y-71306403D01*
X148587911Y-71356646D01*
X148587909Y-71356647D01*
X148472815Y-71442807D01*
X148472807Y-71442815D01*
X148386647Y-71557909D01*
X148386646Y-71557911D01*
X148336403Y-71692618D01*
X148336401Y-71692629D01*
X148330000Y-71752175D01*
X148330000Y-72449998D01*
X126102100Y-72449998D01*
X126102100Y-70697824D01*
X151279999Y-70697824D01*
X151286401Y-70757370D01*
X151286403Y-70757381D01*
X151336646Y-70892088D01*
X151336647Y-70892090D01*
X151422807Y-71007184D01*
X151422815Y-71007192D01*
X151537909Y-71093352D01*
X151537911Y-71093353D01*
X151672618Y-71143596D01*
X151672629Y-71143598D01*
X151732176Y-71150000D01*
X152429999Y-71150000D01*
X152430000Y-71149999D01*
X152430000Y-71149998D01*
X152630000Y-71149998D01*
X152630001Y-71150000D01*
X153327824Y-71150000D01*
X153387370Y-71143598D01*
X153387374Y-71143597D01*
X153445402Y-71121954D01*
X153506531Y-71119333D01*
X153514598Y-71121954D01*
X153572625Y-71143597D01*
X153572629Y-71143598D01*
X153632176Y-71150000D01*
X154329999Y-71150000D01*
X154330000Y-71149999D01*
X154330000Y-71149998D01*
X154530000Y-71149998D01*
X154530001Y-71150000D01*
X155227824Y-71150000D01*
X155287374Y-71143598D01*
X155344687Y-71122221D01*
X155405816Y-71119600D01*
X155413869Y-71122217D01*
X155472517Y-71144091D01*
X155532127Y-71150500D01*
X157127872Y-71150499D01*
X157187483Y-71144091D01*
X157245406Y-71122486D01*
X157306532Y-71119866D01*
X157314569Y-71122477D01*
X157372517Y-71144091D01*
X157432127Y-71150500D01*
X159027872Y-71150499D01*
X159087483Y-71144091D01*
X159146119Y-71122220D01*
X159207246Y-71119601D01*
X159215311Y-71122221D01*
X159272623Y-71143597D01*
X159272624Y-71143598D01*
X159332176Y-71150000D01*
X160029999Y-71150000D01*
X160030000Y-71149999D01*
X160030000Y-69850000D01*
X160230000Y-69850000D01*
X160230000Y-71149999D01*
X160230001Y-71150000D01*
X160927824Y-71150000D01*
X160987370Y-71143598D01*
X160987381Y-71143596D01*
X161122088Y-71093353D01*
X161122090Y-71093352D01*
X161237184Y-71007192D01*
X161237192Y-71007184D01*
X161323352Y-70892090D01*
X161323353Y-70892088D01*
X161373596Y-70757381D01*
X161373598Y-70757370D01*
X161380000Y-70697824D01*
X161380000Y-69850000D01*
X160230000Y-69850000D01*
X160030000Y-69850000D01*
X160030000Y-69649999D01*
X160230000Y-69649999D01*
X160230001Y-69650000D01*
X161379999Y-69650000D01*
X161380000Y-69649999D01*
X161380000Y-68802175D01*
X161373598Y-68742629D01*
X161373596Y-68742618D01*
X161323353Y-68607911D01*
X161323352Y-68607909D01*
X161237192Y-68492815D01*
X161237184Y-68492807D01*
X161122090Y-68406647D01*
X161122088Y-68406646D01*
X160987381Y-68356403D01*
X160987370Y-68356401D01*
X160927824Y-68350000D01*
X160230001Y-68350000D01*
X160230000Y-68350001D01*
X160230000Y-69649999D01*
X160030000Y-69649999D01*
X160030000Y-68350001D01*
X160029999Y-68350000D01*
X159332176Y-68350000D01*
X159272629Y-68356401D01*
X159272625Y-68356402D01*
X159215310Y-68377779D01*
X159154180Y-68380398D01*
X159146117Y-68377778D01*
X159098643Y-68360071D01*
X159050729Y-68322020D01*
X159034331Y-68263073D01*
X159034860Y-68256249D01*
X159035565Y-68250000D01*
X159015368Y-68070745D01*
X159008276Y-68050478D01*
X158991014Y-68001145D01*
X158955789Y-67900478D01*
X158954067Y-67897738D01*
X158859818Y-67747741D01*
X158859817Y-67747740D01*
X158859816Y-67747738D01*
X158732262Y-67620184D01*
X158732259Y-67620182D01*
X158732258Y-67620181D01*
X158579523Y-67524211D01*
X158409261Y-67464633D01*
X158409257Y-67464632D01*
X158230000Y-67444435D01*
X158050742Y-67464632D01*
X158050738Y-67464633D01*
X157880477Y-67524211D01*
X157880476Y-67524211D01*
X157727741Y-67620181D01*
X157600181Y-67747741D01*
X157504211Y-67900476D01*
X157504211Y-67900477D01*
X157444633Y-68070738D01*
X157444632Y-68070742D01*
X157424435Y-68250001D01*
X157425137Y-68256231D01*
X157412862Y-68316173D01*
X157367699Y-68357452D01*
X157361355Y-68360071D01*
X157314595Y-68377511D01*
X157253466Y-68380131D01*
X157245415Y-68377516D01*
X157187483Y-68355909D01*
X157187478Y-68355908D01*
X157187471Y-68355907D01*
X157178435Y-68354935D01*
X157122600Y-68329913D01*
X157092137Y-68276850D01*
X157090647Y-68267602D01*
X157085368Y-68220745D01*
X157025789Y-68050478D01*
X156931536Y-67900476D01*
X156929818Y-67897741D01*
X156929817Y-67897740D01*
X156929816Y-67897738D01*
X156802262Y-67770184D01*
X156802259Y-67770182D01*
X156802258Y-67770181D01*
X156649523Y-67674211D01*
X156479261Y-67614633D01*
X156479257Y-67614632D01*
X156300000Y-67594435D01*
X156120742Y-67614632D01*
X156120738Y-67614633D01*
X155950477Y-67674211D01*
X155950476Y-67674211D01*
X155797741Y-67770181D01*
X155670181Y-67897741D01*
X155574211Y-68050476D01*
X155574211Y-68050477D01*
X155514633Y-68220738D01*
X155514631Y-68220749D01*
X155507389Y-68285018D01*
X155482085Y-68340725D01*
X155443610Y-68366690D01*
X155413883Y-68377778D01*
X155352754Y-68380399D01*
X155344689Y-68377778D01*
X155287381Y-68356403D01*
X155287370Y-68356401D01*
X155227824Y-68350000D01*
X154530001Y-68350000D01*
X154530000Y-68350001D01*
X154530000Y-71149998D01*
X154330000Y-71149998D01*
X154330000Y-69850001D01*
X154329999Y-69850000D01*
X152630001Y-69850000D01*
X152630000Y-69850001D01*
X152630000Y-71149998D01*
X152430000Y-71149998D01*
X152430000Y-69850001D01*
X152429999Y-69850000D01*
X151280000Y-69850000D01*
X151280000Y-70697824D01*
X151279999Y-70697824D01*
X126102100Y-70697824D01*
X126102100Y-69649999D01*
X151280000Y-69649999D01*
X151280001Y-69650000D01*
X152429999Y-69650000D01*
X152430000Y-69649999D01*
X152430000Y-69649998D01*
X152630000Y-69649998D01*
X152630001Y-69650000D01*
X154329999Y-69650000D01*
X154330000Y-69649999D01*
X154330000Y-68350001D01*
X154329999Y-68350000D01*
X153632176Y-68350000D01*
X153572629Y-68356401D01*
X153572622Y-68356402D01*
X153514595Y-68378045D01*
X153453466Y-68380664D01*
X153445405Y-68378045D01*
X153387377Y-68356402D01*
X153387370Y-68356401D01*
X153327824Y-68350000D01*
X152630001Y-68350000D01*
X152630000Y-68350001D01*
X152630000Y-69649998D01*
X152430000Y-69649998D01*
X152430000Y-68350001D01*
X152429999Y-68350000D01*
X151732176Y-68350000D01*
X151672629Y-68356401D01*
X151672618Y-68356403D01*
X151537911Y-68406646D01*
X151537909Y-68406647D01*
X151422815Y-68492807D01*
X151422807Y-68492815D01*
X151336647Y-68607909D01*
X151336646Y-68607911D01*
X151286403Y-68742618D01*
X151286401Y-68742629D01*
X151280000Y-68802175D01*
X151280000Y-69649999D01*
X126102100Y-69649999D01*
X126102100Y-64580294D01*
X126102210Y-64579452D01*
X126102104Y-64541216D01*
X126102186Y-64538226D01*
X126118843Y-64249638D01*
X126119548Y-64243697D01*
X126170602Y-63960700D01*
X126172015Y-63954900D01*
X126178829Y-63932819D01*
X126256810Y-63680115D01*
X126258908Y-63674537D01*
X126376212Y-63411966D01*
X126378970Y-63406676D01*
X126527073Y-63160150D01*
X126530430Y-63155258D01*
X126707162Y-62928393D01*
X126711116Y-62923905D01*
X126913909Y-62719992D01*
X126918346Y-62716039D01*
X127144241Y-62538056D01*
X127149149Y-62534650D01*
X127394842Y-62385198D01*
X127400104Y-62382418D01*
X127580665Y-62300557D01*
X127662015Y-62263676D01*
X127667603Y-62261539D01*
X127778726Y-62226576D01*
X127941914Y-62175231D01*
X127947698Y-62173788D01*
X128230412Y-62121177D01*
X128236350Y-62120439D01*
X128524817Y-62102195D01*
X128527867Y-62102097D01*
X181858573Y-62062101D01*
X181861436Y-62062181D01*
G37*
%TD.AperFunction*%
%TA.AperFunction,Conductor*%
G36*
X158531163Y-99318252D02*
G01*
X158532619Y-99318596D01*
X158536074Y-99318968D01*
X158538177Y-99319910D01*
X158538654Y-99320023D01*
X158538632Y-99320114D01*
X158591913Y-99343983D01*
X158622384Y-99397041D01*
X158624500Y-99417402D01*
X158624500Y-99431513D01*
X158622747Y-99450062D01*
X158620773Y-99460410D01*
X158620772Y-99460411D01*
X158624402Y-99518104D01*
X158624500Y-99521213D01*
X158624500Y-99539350D01*
X158626773Y-99557347D01*
X158627065Y-99560440D01*
X158630696Y-99618140D01*
X158633951Y-99628156D01*
X158638013Y-99646330D01*
X158639334Y-99656786D01*
X158639337Y-99656798D01*
X158660618Y-99710548D01*
X158661672Y-99713473D01*
X158679532Y-99768440D01*
X158685176Y-99777334D01*
X158693632Y-99793929D01*
X158697514Y-99803732D01*
X158727694Y-99845272D01*
X158731497Y-99850506D01*
X158733245Y-99853078D01*
X158764211Y-99901874D01*
X158764214Y-99901877D01*
X158771888Y-99909083D01*
X158784213Y-99923063D01*
X158785983Y-99925500D01*
X158790406Y-99931587D01*
X158834959Y-99968445D01*
X158837267Y-99970479D01*
X158879418Y-100010062D01*
X158879420Y-100010063D01*
X158888648Y-100015136D01*
X158904060Y-100025610D01*
X158912174Y-100032323D01*
X158933443Y-100042331D01*
X158964489Y-100056940D01*
X158967227Y-100058334D01*
X159017908Y-100086197D01*
X159028113Y-100088817D01*
X159045635Y-100095125D01*
X159055174Y-100099614D01*
X159111965Y-100110447D01*
X159114991Y-100111124D01*
X159170974Y-100125499D01*
X159170980Y-100125499D01*
X159170981Y-100125500D01*
X159181514Y-100125500D01*
X159200063Y-100127252D01*
X159210412Y-100129227D01*
X159246214Y-100126974D01*
X159268105Y-100125598D01*
X159271214Y-100125500D01*
X160075500Y-100125500D01*
X160133691Y-100144407D01*
X160169655Y-100193907D01*
X160174500Y-100224500D01*
X160174500Y-103789582D01*
X160155593Y-103847773D01*
X160106093Y-103883737D01*
X160064416Y-103887960D01*
X160001844Y-103880910D01*
X159900000Y-103869435D01*
X159899999Y-103869435D01*
X159858860Y-103874070D01*
X159798918Y-103861796D01*
X159777777Y-103845699D01*
X159702262Y-103770184D01*
X159702259Y-103770182D01*
X159702258Y-103770181D01*
X159549523Y-103674211D01*
X159379261Y-103614633D01*
X159379257Y-103614632D01*
X159200000Y-103594435D01*
X159020742Y-103614632D01*
X159020738Y-103614633D01*
X158850477Y-103674211D01*
X158850476Y-103674211D01*
X158697741Y-103770181D01*
X158570181Y-103897741D01*
X158474211Y-104050476D01*
X158474211Y-104050477D01*
X158414633Y-104220738D01*
X158414632Y-104220742D01*
X158394435Y-104400000D01*
X158414632Y-104579257D01*
X158414633Y-104579261D01*
X158474211Y-104749522D01*
X158474211Y-104749523D01*
X158565623Y-104895004D01*
X158570184Y-104902262D01*
X158570505Y-104902583D01*
X158570619Y-104902807D01*
X158573648Y-104906605D01*
X158572870Y-104907225D01*
X158598281Y-104957098D01*
X158599500Y-104972585D01*
X158599500Y-107385255D01*
X158580593Y-107443446D01*
X158570504Y-107455259D01*
X157355510Y-108670253D01*
X157350638Y-108674525D01*
X157321719Y-108696717D01*
X157321713Y-108696723D01*
X157254230Y-108784670D01*
X157253357Y-108785807D01*
X157202915Y-108820437D01*
X157174846Y-108824500D01*
X157092132Y-108824500D01*
X157092128Y-108824501D01*
X157032516Y-108830909D01*
X157026485Y-108832334D01*
X157026051Y-108830501D01*
X156973458Y-108832751D01*
X156968613Y-108831176D01*
X156967486Y-108830910D01*
X156967483Y-108830909D01*
X156967479Y-108830908D01*
X156967477Y-108830908D01*
X156936249Y-108827550D01*
X156907873Y-108824500D01*
X156907870Y-108824500D01*
X156592133Y-108824500D01*
X156592129Y-108824500D01*
X156592128Y-108824501D01*
X156534126Y-108830736D01*
X156532517Y-108830909D01*
X156526491Y-108832333D01*
X156526113Y-108830736D01*
X156472733Y-108833014D01*
X156468829Y-108831745D01*
X156467376Y-108831402D01*
X156407824Y-108825000D01*
X156092176Y-108825000D01*
X156032623Y-108831402D01*
X156026597Y-108832826D01*
X156026117Y-108830796D01*
X155974166Y-108833015D01*
X155968222Y-108831083D01*
X155967477Y-108830907D01*
X155938915Y-108827836D01*
X155883079Y-108802816D01*
X155852614Y-108749754D01*
X155850500Y-108729404D01*
X155850500Y-104792608D01*
X155850924Y-104786140D01*
X155855682Y-104750000D01*
X155855682Y-104749999D01*
X155849385Y-104702172D01*
X155835044Y-104593238D01*
X155814021Y-104542483D01*
X155774537Y-104447161D01*
X155774537Y-104447160D01*
X155747560Y-104412003D01*
X155678286Y-104321723D01*
X155678285Y-104321722D01*
X155678282Y-104321718D01*
X155678277Y-104321714D01*
X155678276Y-104321713D01*
X155649365Y-104299529D01*
X155644491Y-104295255D01*
X155574514Y-104225279D01*
X155546737Y-104170762D01*
X155546142Y-104166379D01*
X155535368Y-104070745D01*
X155534173Y-104067331D01*
X155502667Y-103977291D01*
X155475789Y-103900478D01*
X155474067Y-103897738D01*
X155379818Y-103747741D01*
X155379817Y-103747740D01*
X155379816Y-103747738D01*
X155252262Y-103620184D01*
X155252259Y-103620182D01*
X155252258Y-103620181D01*
X155099523Y-103524211D01*
X154929261Y-103464633D01*
X154929257Y-103464632D01*
X154750000Y-103444435D01*
X154570742Y-103464632D01*
X154570738Y-103464633D01*
X154400477Y-103524211D01*
X154400476Y-103524211D01*
X154247741Y-103620181D01*
X154247736Y-103620185D01*
X154153544Y-103714377D01*
X154099028Y-103742154D01*
X154038595Y-103732582D01*
X154030875Y-103728202D01*
X154024523Y-103724211D01*
X153854256Y-103664631D01*
X153851366Y-103663972D01*
X153849946Y-103663123D01*
X153849007Y-103662795D01*
X153849074Y-103662602D01*
X153798843Y-103632587D01*
X153774798Y-103576324D01*
X153774400Y-103567455D01*
X153774400Y-103547584D01*
X153793307Y-103489393D01*
X153803399Y-103477578D01*
X153803716Y-103477262D01*
X153899689Y-103324522D01*
X153959268Y-103154255D01*
X153979465Y-102975000D01*
X153959268Y-102795745D01*
X153955448Y-102784829D01*
X153921239Y-102687064D01*
X153899689Y-102625478D01*
X153893676Y-102615909D01*
X153844863Y-102538223D01*
X153829913Y-102478893D01*
X153852692Y-102422106D01*
X153858674Y-102415559D01*
X154510432Y-101763801D01*
X154515299Y-101759533D01*
X154544224Y-101737340D01*
X154640478Y-101611899D01*
X154700986Y-101465820D01*
X154706738Y-101422130D01*
X154721624Y-101309058D01*
X154716866Y-101272916D01*
X154716442Y-101266448D01*
X154716442Y-100498253D01*
X154735349Y-100440062D01*
X154745432Y-100428255D01*
X154745758Y-100427930D01*
X154841731Y-100275190D01*
X154900402Y-100107517D01*
X154901308Y-100104929D01*
X154901309Y-100104925D01*
X154901310Y-100104923D01*
X154921507Y-99925668D01*
X154901310Y-99746413D01*
X154899913Y-99742422D01*
X154866289Y-99646330D01*
X154841731Y-99576146D01*
X154841729Y-99576144D01*
X154841729Y-99576141D01*
X154779541Y-99477171D01*
X154764590Y-99417840D01*
X154787369Y-99361053D01*
X154839176Y-99328500D01*
X154863366Y-99325499D01*
X154907867Y-99325499D01*
X154907872Y-99325499D01*
X154967483Y-99319091D01*
X154967485Y-99319090D01*
X154973511Y-99317667D01*
X154973944Y-99319501D01*
X155026529Y-99317246D01*
X155031385Y-99318823D01*
X155032516Y-99319091D01*
X155034163Y-99319268D01*
X155092127Y-99325500D01*
X155407872Y-99325499D01*
X155467483Y-99319091D01*
X155467485Y-99319090D01*
X155473511Y-99317667D01*
X155473944Y-99319501D01*
X155526529Y-99317246D01*
X155531385Y-99318823D01*
X155532516Y-99319091D01*
X155534163Y-99319268D01*
X155592127Y-99325500D01*
X155907872Y-99325499D01*
X155967483Y-99319091D01*
X155967485Y-99319090D01*
X155973511Y-99317667D01*
X155973944Y-99319501D01*
X156026529Y-99317246D01*
X156031385Y-99318823D01*
X156032516Y-99319091D01*
X156034163Y-99319268D01*
X156092127Y-99325500D01*
X156407872Y-99325499D01*
X156467483Y-99319091D01*
X156467485Y-99319090D01*
X156473511Y-99317667D01*
X156473944Y-99319501D01*
X156526529Y-99317246D01*
X156531385Y-99318823D01*
X156532516Y-99319091D01*
X156534163Y-99319268D01*
X156592127Y-99325500D01*
X156907872Y-99325499D01*
X156967483Y-99319091D01*
X156967485Y-99319090D01*
X156973511Y-99317667D01*
X156973944Y-99319501D01*
X157026529Y-99317246D01*
X157031385Y-99318823D01*
X157032516Y-99319091D01*
X157034163Y-99319268D01*
X157092127Y-99325500D01*
X157407872Y-99325499D01*
X157467483Y-99319091D01*
X157467485Y-99319090D01*
X157473511Y-99317667D01*
X157473944Y-99319501D01*
X157526529Y-99317246D01*
X157531385Y-99318823D01*
X157532516Y-99319091D01*
X157534163Y-99319268D01*
X157592127Y-99325500D01*
X157907872Y-99325499D01*
X157967483Y-99319091D01*
X157967485Y-99319090D01*
X157973511Y-99317667D01*
X157973944Y-99319501D01*
X158026529Y-99317246D01*
X158031385Y-99318823D01*
X158032516Y-99319091D01*
X158034163Y-99319268D01*
X158092127Y-99325500D01*
X158407872Y-99325499D01*
X158467483Y-99319091D01*
X158467486Y-99319089D01*
X158473510Y-99317667D01*
X158473888Y-99319268D01*
X158527238Y-99316977D01*
X158531163Y-99318252D01*
G37*
%TD.AperFunction*%
%TA.AperFunction,Conductor*%
G36*
X139684811Y-104247121D02*
G01*
X139742123Y-104268497D01*
X139742124Y-104268498D01*
X139801676Y-104274900D01*
X140138355Y-104274900D01*
X140196546Y-104293807D01*
X140232510Y-104343307D01*
X140232510Y-104404493D01*
X140208359Y-104443904D01*
X139883525Y-104768738D01*
X139829008Y-104796515D01*
X139768576Y-104786944D01*
X139754192Y-104777987D01*
X139691829Y-104731302D01*
X139556988Y-104681010D01*
X139556983Y-104681009D01*
X139556981Y-104681008D01*
X139556977Y-104681008D01*
X139522774Y-104677331D01*
X139497373Y-104674600D01*
X139497370Y-104674600D01*
X139439843Y-104674600D01*
X139381652Y-104655693D01*
X139369839Y-104645604D01*
X139168638Y-104444403D01*
X139140861Y-104389886D01*
X139150432Y-104329454D01*
X139193697Y-104286189D01*
X139238642Y-104275399D01*
X139497367Y-104275399D01*
X139497372Y-104275399D01*
X139556983Y-104268991D01*
X139615619Y-104247120D01*
X139676746Y-104244501D01*
X139684811Y-104247121D01*
G37*
%TD.AperFunction*%
%TA.AperFunction,Conductor*%
G36*
X147109013Y-95793906D02*
G01*
X147144977Y-95843406D01*
X147149199Y-95885082D01*
X147145455Y-95918319D01*
X147138959Y-95975973D01*
X147159156Y-96155231D01*
X147159157Y-96155235D01*
X147218735Y-96325496D01*
X147218735Y-96325497D01*
X147311700Y-96473449D01*
X147314708Y-96478236D01*
X147442262Y-96605790D01*
X147442264Y-96605791D01*
X147442265Y-96605792D01*
X147556349Y-96677476D01*
X147595002Y-96701763D01*
X147654265Y-96722500D01*
X147765262Y-96761340D01*
X147765266Y-96761341D01*
X147765269Y-96761342D01*
X147944524Y-96781539D01*
X147974634Y-96778146D01*
X148034575Y-96790420D01*
X148075855Y-96835582D01*
X148082706Y-96896382D01*
X148052510Y-96949598D01*
X148038394Y-96960346D01*
X148022784Y-96970155D01*
X148022738Y-96970184D01*
X147895181Y-97097741D01*
X147799211Y-97250476D01*
X147799211Y-97250477D01*
X147739633Y-97420738D01*
X147739632Y-97420742D01*
X147719435Y-97600000D01*
X147739632Y-97779255D01*
X147739633Y-97779261D01*
X147799211Y-97949522D01*
X147799211Y-97949523D01*
X147884326Y-98084982D01*
X147899500Y-98137653D01*
X147899500Y-99600500D01*
X147880593Y-99658691D01*
X147831093Y-99694655D01*
X147800500Y-99699500D01*
X145524758Y-99699500D01*
X145466567Y-99680593D01*
X145432000Y-99635097D01*
X145393795Y-99532667D01*
X145390404Y-99526456D01*
X145391905Y-99525636D01*
X145374989Y-99475996D01*
X145391090Y-99423924D01*
X145389958Y-99423306D01*
X145393009Y-99417717D01*
X145393064Y-99417541D01*
X145393232Y-99417309D01*
X145393351Y-99417090D01*
X145443596Y-99282378D01*
X145443598Y-99282370D01*
X145450000Y-99222824D01*
X145450000Y-98027175D01*
X145443598Y-97967629D01*
X145443596Y-97967621D01*
X145393352Y-97832911D01*
X145389138Y-97827281D01*
X144591421Y-98624999D01*
X145071996Y-99105574D01*
X145099773Y-99160091D01*
X145090202Y-99220523D01*
X145046937Y-99263788D01*
X145000524Y-99273635D01*
X145000524Y-99274500D01*
X144999086Y-99274500D01*
X144998045Y-99274161D01*
X144996739Y-99274439D01*
X144995271Y-99274361D01*
X144995328Y-99273279D01*
X144940895Y-99255593D01*
X144929082Y-99245504D01*
X144378582Y-98695004D01*
X144350805Y-98640487D01*
X144360376Y-98580055D01*
X144378583Y-98554996D01*
X144450001Y-98483579D01*
X145254905Y-97678671D01*
X145254905Y-97678670D01*
X145192087Y-97631645D01*
X145057381Y-97581403D01*
X145057370Y-97581401D01*
X144997824Y-97575000D01*
X144816627Y-97575000D01*
X144758436Y-97556093D01*
X144722472Y-97506593D01*
X144722472Y-97445407D01*
X144725765Y-97436692D01*
X144730438Y-97425895D01*
X144737823Y-97379259D01*
X144738757Y-97374748D01*
X144745416Y-97348817D01*
X144778202Y-97297160D01*
X144835092Y-97274638D01*
X144894354Y-97289857D01*
X144900634Y-97294190D01*
X144932912Y-97318354D01*
X145067618Y-97368596D01*
X145067629Y-97368598D01*
X145127176Y-97375000D01*
X146222824Y-97375000D01*
X146282370Y-97368598D01*
X146282381Y-97368596D01*
X146417088Y-97318353D01*
X146417090Y-97318352D01*
X146479905Y-97271328D01*
X145603582Y-96395004D01*
X145575805Y-96340487D01*
X145585376Y-96280055D01*
X145603582Y-96254996D01*
X145604996Y-96253582D01*
X145659513Y-96225805D01*
X145719945Y-96235376D01*
X145745004Y-96253582D01*
X146614139Y-97122717D01*
X146618351Y-97117090D01*
X146668596Y-96982378D01*
X146668598Y-96982370D01*
X146675000Y-96922824D01*
X146675000Y-96080746D01*
X146693907Y-96022555D01*
X146723604Y-95995533D01*
X146761420Y-95973170D01*
X146776980Y-95957608D01*
X146788780Y-95947530D01*
X146806587Y-95934594D01*
X146831448Y-95904539D01*
X146833480Y-95902234D01*
X146850341Y-95884279D01*
X146851347Y-95883242D01*
X146871720Y-95862871D01*
X146876338Y-95856916D01*
X146879340Y-95853400D01*
X146911662Y-95818982D01*
X146911663Y-95818979D01*
X146913968Y-95815809D01*
X146963468Y-95779845D01*
X146994061Y-95774999D01*
X147050822Y-95774999D01*
X147109013Y-95793906D01*
G37*
%TD.AperFunction*%
%TA.AperFunction,Conductor*%
G36*
X149625504Y-97480829D02*
G01*
X149650563Y-97499035D01*
X150452524Y-98300996D01*
X150480301Y-98355513D01*
X150470730Y-98415945D01*
X150427465Y-98459210D01*
X150382520Y-98470000D01*
X149652176Y-98470000D01*
X149592629Y-98476401D01*
X149592618Y-98476403D01*
X149457916Y-98526644D01*
X149457914Y-98526645D01*
X149437985Y-98541563D01*
X150221417Y-99324995D01*
X150249194Y-99379512D01*
X150239623Y-99439944D01*
X150221417Y-99465003D01*
X150220003Y-99466417D01*
X150165486Y-99494194D01*
X150105054Y-99484623D01*
X150079995Y-99466417D01*
X149292968Y-98679390D01*
X149256562Y-98681994D01*
X149197171Y-98667286D01*
X149157768Y-98620477D01*
X149150500Y-98583246D01*
X149150500Y-98137651D01*
X149165674Y-98084980D01*
X149225662Y-97989511D01*
X149250787Y-97949526D01*
X149250788Y-97949523D01*
X149250789Y-97949522D01*
X149308942Y-97783330D01*
X149310366Y-97779261D01*
X149310367Y-97779257D01*
X149310368Y-97779255D01*
X149316651Y-97723482D01*
X149341955Y-97667776D01*
X149345026Y-97664564D01*
X149510556Y-97499035D01*
X149565072Y-97471258D01*
X149625504Y-97480829D01*
G37*
%TD.AperFunction*%
%TA.AperFunction,Conductor*%
G36*
X152551194Y-97620852D02*
G01*
X152576255Y-97639059D01*
X152609766Y-97672571D01*
X152664373Y-97706253D01*
X152703974Y-97752894D01*
X152708597Y-97813905D01*
X152682404Y-97860517D01*
X152595185Y-97947736D01*
X152595181Y-97947741D01*
X152499211Y-98100476D01*
X152499211Y-98100477D01*
X152439633Y-98270738D01*
X152439632Y-98270741D01*
X152430358Y-98353059D01*
X152405054Y-98408766D01*
X152351838Y-98438962D01*
X152291038Y-98432111D01*
X152261976Y-98411978D01*
X151844001Y-97994003D01*
X151816224Y-97939486D01*
X151825795Y-97879054D01*
X151869060Y-97835789D01*
X151914005Y-97824999D01*
X151998322Y-97824999D01*
X152097597Y-97814857D01*
X152097609Y-97814854D01*
X152258487Y-97761545D01*
X152402730Y-97672574D01*
X152436245Y-97639059D01*
X152490762Y-97611281D01*
X152551194Y-97620852D01*
G37*
%TD.AperFunction*%
%TA.AperFunction,Conductor*%
G36*
X153371691Y-96793907D02*
G01*
X153407655Y-96843407D01*
X153412500Y-96874000D01*
X153412500Y-96876000D01*
X153393593Y-96934191D01*
X153344093Y-96970155D01*
X153313500Y-96975000D01*
X151699000Y-96975000D01*
X151640809Y-96956093D01*
X151604845Y-96906593D01*
X151600000Y-96876000D01*
X151600000Y-96874000D01*
X151618907Y-96815809D01*
X151668407Y-96779845D01*
X151699000Y-96775000D01*
X153313500Y-96775000D01*
X153371691Y-96793907D01*
G37*
%TD.AperFunction*%
%TA.AperFunction,Conductor*%
G36*
X158668448Y-95169407D02*
G01*
X158680261Y-95179496D01*
X158856761Y-95355996D01*
X158884538Y-95410513D01*
X158874967Y-95470945D01*
X158831702Y-95514210D01*
X158786757Y-95525000D01*
X158046414Y-95525000D01*
X158008528Y-95517464D01*
X157934113Y-95486640D01*
X157887587Y-95446903D01*
X157872999Y-95395176D01*
X157872999Y-95364850D01*
X157866628Y-95311800D01*
X157866629Y-95288194D01*
X157872695Y-95237693D01*
X157898407Y-95182173D01*
X157951842Y-95152369D01*
X157970988Y-95150500D01*
X158610257Y-95150500D01*
X158668448Y-95169407D01*
G37*
%TD.AperFunction*%
%TA.AperFunction,Conductor*%
G36*
X148357215Y-93386498D02*
G01*
X148431096Y-93394823D01*
X148431100Y-93394823D01*
X148431104Y-93394823D01*
X148489352Y-93388260D01*
X148549294Y-93400533D01*
X148590574Y-93445695D01*
X148599437Y-93486637D01*
X148599437Y-94724672D01*
X148580530Y-94782863D01*
X148531030Y-94818827D01*
X148511020Y-94823105D01*
X148453629Y-94829275D01*
X148453618Y-94829277D01*
X148318911Y-94879520D01*
X148318909Y-94879521D01*
X148279274Y-94909192D01*
X148221359Y-94928929D01*
X148208652Y-94925000D01*
X147199000Y-94925000D01*
X147140809Y-94906093D01*
X147104845Y-94856593D01*
X147100000Y-94826000D01*
X147100000Y-94824000D01*
X147118907Y-94765809D01*
X147168407Y-94729845D01*
X147199000Y-94725000D01*
X148174998Y-94725000D01*
X148174999Y-94724999D01*
X148174999Y-94551677D01*
X148164857Y-94452402D01*
X148164854Y-94452390D01*
X148111545Y-94291512D01*
X148022574Y-94147270D01*
X147995661Y-94120357D01*
X147967884Y-94065840D01*
X147977455Y-94005408D01*
X147995661Y-93980350D01*
X148022968Y-93953044D01*
X148112003Y-93808697D01*
X148165349Y-93647708D01*
X148175500Y-93548345D01*
X148175499Y-93476803D01*
X148194406Y-93418614D01*
X148243905Y-93382650D01*
X148285581Y-93378427D01*
X148357215Y-93386498D01*
G37*
%TD.AperFunction*%
%TA.AperFunction,Conductor*%
G36*
X177179593Y-88451784D02*
G01*
X177194018Y-88480523D01*
X177201522Y-88504605D01*
X177201522Y-88504607D01*
X177251650Y-88587527D01*
X177289528Y-88650185D01*
X177409815Y-88770472D01*
X177409817Y-88770473D01*
X177414050Y-88774706D01*
X177412297Y-88776458D01*
X177440700Y-88818683D01*
X177444500Y-88845849D01*
X177444500Y-89580257D01*
X177425593Y-89638448D01*
X177415509Y-89650254D01*
X177214912Y-89850853D01*
X177169504Y-89896261D01*
X177114987Y-89924038D01*
X177054555Y-89914467D01*
X177011290Y-89871202D01*
X177000500Y-89826257D01*
X177000500Y-88509975D01*
X177019407Y-88451784D01*
X177068907Y-88415820D01*
X177130093Y-88415820D01*
X177179593Y-88451784D01*
G37*
%TD.AperFunction*%
%TD*%
M02*
