M48
INCH,TZ
T1C0.0118
T2C0.0256
T3C0.0276
%
G90
G05
T1
X52190Y-41294
X52195Y-40984
X52894Y-42254
X54990Y-41181
X57224Y-42884
X57441Y-38484
X57886Y-31594
X58043Y-36117
X58189Y-42756
X58240Y-30807
X58246Y-37786
X58280Y-28563
X58437Y-36452
X58474Y-38425
X58632Y-42402
X58663Y-43169
X58819Y-41713
X58829Y-42028
X58868Y-41280
X58949Y-32146
X59144Y-41260
X59154Y-38701
X59421Y-27461
X59461Y-32657
X59618Y-28563
X59618Y-31555
X59680Y-38529
X59715Y-37146
X60051Y-26752
X60051Y-28169
X60051Y-31988
X60051Y-33327
X60275Y-39547
X60305Y-40541
X60325Y-38760
X60364Y-37194
X60502Y-41122
X60620Y-44626
X60676Y-39341
X60799Y-26791
X60799Y-28169
X60925Y-41043
X61398Y-36683
X61535Y-26929
X61909Y-43661
X61939Y-42598
X61959Y-41142
X62218Y-37424
X62295Y-26870
X62343Y-36398
X62677Y-41102
X62953Y-41211
X63043Y-26791
X63043Y-31988
X63043Y-33327
X63169Y-37835
X63297Y-41476
X63476Y-31516
X63634Y-32657
X63673Y-27461
X63711Y-41270
X64146Y-27972
X64146Y-32146
X64636Y-37618
X64665Y-39498
X64715Y-38720
X64854Y-28563
X64921Y-37420
X65366Y-31437
X65374Y-36122
X65413Y-37195
X66114Y-30138
X66114Y-31476
X69104Y-41919
X69485Y-38448
X69577Y-41043
X69636Y-38012
X69665Y-41713
X69701Y-35299
X69773Y-38434
X69951Y-37835
X69980Y-39567
X71191Y-42077
T2
G00X51615Y-40247
M15
G01X51458Y-40247
M16
G05
G00X51615Y-42157
M15
G01X51458Y-42157
M16
G05
T3
G00X50442Y-40129
M15
G01X50245Y-40129
M16
G05
G00X50442Y-42275
M15
G01X50245Y-42275
M16
G05
M30
