%TF.GenerationSoftware,KiCad,Pcbnew,8.0.8*%
%TF.CreationDate,2025-01-20T12:07:48-06:00*%
%TF.ProjectId,tempo,74656d70-6f2e-46b6-9963-61645f706362,rev?*%
%TF.SameCoordinates,Original*%
%TF.FileFunction,Legend,Bot*%
%TF.FilePolarity,Positive*%
%FSLAX46Y46*%
G04 Gerber Fmt 4.6, Leading zero omitted, Abs format (unit mm)*
G04 Created by KiCad (PCBNEW 8.0.8) date 2025-01-20 12:07:48*
%MOMM*%
%LPD*%
G01*
G04 APERTURE LIST*
%ADD10C,0.150000*%
%ADD11C,0.100000*%
%ADD12C,0.120000*%
%ADD13C,0.310000*%
%ADD14C,0.127000*%
%ADD15C,0.304800*%
%ADD16C,0.203200*%
G04 APERTURE END LIST*
D10*
X145339411Y-81132494D02*
X145434649Y-81084875D01*
X145434649Y-81084875D02*
X145577506Y-81084875D01*
X145577506Y-81084875D02*
X145720363Y-81132494D01*
X145720363Y-81132494D02*
X145815601Y-81227732D01*
X145815601Y-81227732D02*
X145863220Y-81322970D01*
X145863220Y-81322970D02*
X145910839Y-81513446D01*
X145910839Y-81513446D02*
X145910839Y-81656303D01*
X145910839Y-81656303D02*
X145863220Y-81846779D01*
X145863220Y-81846779D02*
X145815601Y-81942017D01*
X145815601Y-81942017D02*
X145720363Y-82037256D01*
X145720363Y-82037256D02*
X145577506Y-82084875D01*
X145577506Y-82084875D02*
X145482268Y-82084875D01*
X145482268Y-82084875D02*
X145339411Y-82037256D01*
X145339411Y-82037256D02*
X145291792Y-81989636D01*
X145291792Y-81989636D02*
X145291792Y-81656303D01*
X145291792Y-81656303D02*
X145482268Y-81656303D01*
X144863220Y-82084875D02*
X144863220Y-81084875D01*
X144863220Y-81084875D02*
X144482268Y-81084875D01*
X144482268Y-81084875D02*
X144387030Y-81132494D01*
X144387030Y-81132494D02*
X144339411Y-81180113D01*
X144339411Y-81180113D02*
X144291792Y-81275351D01*
X144291792Y-81275351D02*
X144291792Y-81418208D01*
X144291792Y-81418208D02*
X144339411Y-81513446D01*
X144339411Y-81513446D02*
X144387030Y-81561065D01*
X144387030Y-81561065D02*
X144482268Y-81608684D01*
X144482268Y-81608684D02*
X144863220Y-81608684D01*
X143910839Y-82037256D02*
X143767982Y-82084875D01*
X143767982Y-82084875D02*
X143529887Y-82084875D01*
X143529887Y-82084875D02*
X143434649Y-82037256D01*
X143434649Y-82037256D02*
X143387030Y-81989636D01*
X143387030Y-81989636D02*
X143339411Y-81894398D01*
X143339411Y-81894398D02*
X143339411Y-81799160D01*
X143339411Y-81799160D02*
X143387030Y-81703922D01*
X143387030Y-81703922D02*
X143434649Y-81656303D01*
X143434649Y-81656303D02*
X143529887Y-81608684D01*
X143529887Y-81608684D02*
X143720363Y-81561065D01*
X143720363Y-81561065D02*
X143815601Y-81513446D01*
X143815601Y-81513446D02*
X143863220Y-81465827D01*
X143863220Y-81465827D02*
X143910839Y-81370589D01*
X143910839Y-81370589D02*
X143910839Y-81275351D01*
X143910839Y-81275351D02*
X143863220Y-81180113D01*
X143863220Y-81180113D02*
X143815601Y-81132494D01*
X143815601Y-81132494D02*
X143720363Y-81084875D01*
X143720363Y-81084875D02*
X143482268Y-81084875D01*
X143482268Y-81084875D02*
X143339411Y-81132494D01*
X141815601Y-81561065D02*
X141672744Y-81608684D01*
X141672744Y-81608684D02*
X141625125Y-81656303D01*
X141625125Y-81656303D02*
X141577506Y-81751541D01*
X141577506Y-81751541D02*
X141577506Y-81894398D01*
X141577506Y-81894398D02*
X141625125Y-81989636D01*
X141625125Y-81989636D02*
X141672744Y-82037256D01*
X141672744Y-82037256D02*
X141767982Y-82084875D01*
X141767982Y-82084875D02*
X142148934Y-82084875D01*
X142148934Y-82084875D02*
X142148934Y-81084875D01*
X142148934Y-81084875D02*
X141815601Y-81084875D01*
X141815601Y-81084875D02*
X141720363Y-81132494D01*
X141720363Y-81132494D02*
X141672744Y-81180113D01*
X141672744Y-81180113D02*
X141625125Y-81275351D01*
X141625125Y-81275351D02*
X141625125Y-81370589D01*
X141625125Y-81370589D02*
X141672744Y-81465827D01*
X141672744Y-81465827D02*
X141720363Y-81513446D01*
X141720363Y-81513446D02*
X141815601Y-81561065D01*
X141815601Y-81561065D02*
X142148934Y-81561065D01*
X141196553Y-81799160D02*
X140720363Y-81799160D01*
X141291791Y-82084875D02*
X140958458Y-81084875D01*
X140958458Y-81084875D02*
X140625125Y-82084875D01*
X140434648Y-81084875D02*
X139863220Y-81084875D01*
X140148934Y-82084875D02*
X140148934Y-81084875D01*
X139672743Y-81084875D02*
X139101315Y-81084875D01*
X139387029Y-82084875D02*
X139387029Y-81084875D01*
X138767981Y-81561065D02*
X138434648Y-81561065D01*
X138291791Y-82084875D02*
X138767981Y-82084875D01*
X138767981Y-82084875D02*
X138767981Y-81084875D01*
X138767981Y-81084875D02*
X138291791Y-81084875D01*
X137291791Y-82084875D02*
X137625124Y-81608684D01*
X137863219Y-82084875D02*
X137863219Y-81084875D01*
X137863219Y-81084875D02*
X137482267Y-81084875D01*
X137482267Y-81084875D02*
X137387029Y-81132494D01*
X137387029Y-81132494D02*
X137339410Y-81180113D01*
X137339410Y-81180113D02*
X137291791Y-81275351D01*
X137291791Y-81275351D02*
X137291791Y-81418208D01*
X137291791Y-81418208D02*
X137339410Y-81513446D01*
X137339410Y-81513446D02*
X137387029Y-81561065D01*
X137387029Y-81561065D02*
X137482267Y-81608684D01*
X137482267Y-81608684D02*
X137863219Y-81608684D01*
X136672743Y-81608684D02*
X136672743Y-82084875D01*
X137006076Y-81084875D02*
X136672743Y-81608684D01*
X136672743Y-81608684D02*
X136339410Y-81084875D01*
X134910838Y-81561065D02*
X134767981Y-81608684D01*
X134767981Y-81608684D02*
X134720362Y-81656303D01*
X134720362Y-81656303D02*
X134672743Y-81751541D01*
X134672743Y-81751541D02*
X134672743Y-81894398D01*
X134672743Y-81894398D02*
X134720362Y-81989636D01*
X134720362Y-81989636D02*
X134767981Y-82037256D01*
X134767981Y-82037256D02*
X134863219Y-82084875D01*
X134863219Y-82084875D02*
X135244171Y-82084875D01*
X135244171Y-82084875D02*
X135244171Y-81084875D01*
X135244171Y-81084875D02*
X134910838Y-81084875D01*
X134910838Y-81084875D02*
X134815600Y-81132494D01*
X134815600Y-81132494D02*
X134767981Y-81180113D01*
X134767981Y-81180113D02*
X134720362Y-81275351D01*
X134720362Y-81275351D02*
X134720362Y-81370589D01*
X134720362Y-81370589D02*
X134767981Y-81465827D01*
X134767981Y-81465827D02*
X134815600Y-81513446D01*
X134815600Y-81513446D02*
X134910838Y-81561065D01*
X134910838Y-81561065D02*
X135244171Y-81561065D01*
X134291790Y-81799160D02*
X133815600Y-81799160D01*
X134387028Y-82084875D02*
X134053695Y-81084875D01*
X134053695Y-81084875D02*
X133720362Y-82084875D01*
X132815600Y-81989636D02*
X132863219Y-82037256D01*
X132863219Y-82037256D02*
X133006076Y-82084875D01*
X133006076Y-82084875D02*
X133101314Y-82084875D01*
X133101314Y-82084875D02*
X133244171Y-82037256D01*
X133244171Y-82037256D02*
X133339409Y-81942017D01*
X133339409Y-81942017D02*
X133387028Y-81846779D01*
X133387028Y-81846779D02*
X133434647Y-81656303D01*
X133434647Y-81656303D02*
X133434647Y-81513446D01*
X133434647Y-81513446D02*
X133387028Y-81322970D01*
X133387028Y-81322970D02*
X133339409Y-81227732D01*
X133339409Y-81227732D02*
X133244171Y-81132494D01*
X133244171Y-81132494D02*
X133101314Y-81084875D01*
X133101314Y-81084875D02*
X133006076Y-81084875D01*
X133006076Y-81084875D02*
X132863219Y-81132494D01*
X132863219Y-81132494D02*
X132815600Y-81180113D01*
X132387028Y-82084875D02*
X132387028Y-81084875D01*
X131815600Y-82084875D02*
X132244171Y-81513446D01*
X131815600Y-81084875D02*
X132387028Y-81656303D01*
X131387028Y-81084875D02*
X131387028Y-81894398D01*
X131387028Y-81894398D02*
X131339409Y-81989636D01*
X131339409Y-81989636D02*
X131291790Y-82037256D01*
X131291790Y-82037256D02*
X131196552Y-82084875D01*
X131196552Y-82084875D02*
X131006076Y-82084875D01*
X131006076Y-82084875D02*
X130910838Y-82037256D01*
X130910838Y-82037256D02*
X130863219Y-81989636D01*
X130863219Y-81989636D02*
X130815600Y-81894398D01*
X130815600Y-81894398D02*
X130815600Y-81084875D01*
X130339409Y-82084875D02*
X130339409Y-81084875D01*
X130339409Y-81084875D02*
X129958457Y-81084875D01*
X129958457Y-81084875D02*
X129863219Y-81132494D01*
X129863219Y-81132494D02*
X129815600Y-81180113D01*
X129815600Y-81180113D02*
X129767981Y-81275351D01*
X129767981Y-81275351D02*
X129767981Y-81418208D01*
X129767981Y-81418208D02*
X129815600Y-81513446D01*
X129815600Y-81513446D02*
X129863219Y-81561065D01*
X129863219Y-81561065D02*
X129958457Y-81608684D01*
X129958457Y-81608684D02*
X130339409Y-81608684D01*
X145291792Y-83599580D02*
X145339411Y-83647200D01*
X145339411Y-83647200D02*
X145482268Y-83694819D01*
X145482268Y-83694819D02*
X145577506Y-83694819D01*
X145577506Y-83694819D02*
X145720363Y-83647200D01*
X145720363Y-83647200D02*
X145815601Y-83551961D01*
X145815601Y-83551961D02*
X145863220Y-83456723D01*
X145863220Y-83456723D02*
X145910839Y-83266247D01*
X145910839Y-83266247D02*
X145910839Y-83123390D01*
X145910839Y-83123390D02*
X145863220Y-82932914D01*
X145863220Y-82932914D02*
X145815601Y-82837676D01*
X145815601Y-82837676D02*
X145720363Y-82742438D01*
X145720363Y-82742438D02*
X145577506Y-82694819D01*
X145577506Y-82694819D02*
X145482268Y-82694819D01*
X145482268Y-82694819D02*
X145339411Y-82742438D01*
X145339411Y-82742438D02*
X145291792Y-82790057D01*
X144291792Y-83694819D02*
X144625125Y-83218628D01*
X144863220Y-83694819D02*
X144863220Y-82694819D01*
X144863220Y-82694819D02*
X144482268Y-82694819D01*
X144482268Y-82694819D02*
X144387030Y-82742438D01*
X144387030Y-82742438D02*
X144339411Y-82790057D01*
X144339411Y-82790057D02*
X144291792Y-82885295D01*
X144291792Y-82885295D02*
X144291792Y-83028152D01*
X144291792Y-83028152D02*
X144339411Y-83123390D01*
X144339411Y-83123390D02*
X144387030Y-83171009D01*
X144387030Y-83171009D02*
X144482268Y-83218628D01*
X144482268Y-83218628D02*
X144863220Y-83218628D01*
X143339411Y-83694819D02*
X143910839Y-83694819D01*
X143625125Y-83694819D02*
X143625125Y-82694819D01*
X143625125Y-82694819D02*
X143720363Y-82837676D01*
X143720363Y-82837676D02*
X143815601Y-82932914D01*
X143815601Y-82932914D02*
X143910839Y-82980533D01*
X142958458Y-82790057D02*
X142910839Y-82742438D01*
X142910839Y-82742438D02*
X142815601Y-82694819D01*
X142815601Y-82694819D02*
X142577506Y-82694819D01*
X142577506Y-82694819D02*
X142482268Y-82742438D01*
X142482268Y-82742438D02*
X142434649Y-82790057D01*
X142434649Y-82790057D02*
X142387030Y-82885295D01*
X142387030Y-82885295D02*
X142387030Y-82980533D01*
X142387030Y-82980533D02*
X142434649Y-83123390D01*
X142434649Y-83123390D02*
X143006077Y-83694819D01*
X143006077Y-83694819D02*
X142387030Y-83694819D01*
X142006077Y-82790057D02*
X141958458Y-82742438D01*
X141958458Y-82742438D02*
X141863220Y-82694819D01*
X141863220Y-82694819D02*
X141625125Y-82694819D01*
X141625125Y-82694819D02*
X141529887Y-82742438D01*
X141529887Y-82742438D02*
X141482268Y-82790057D01*
X141482268Y-82790057D02*
X141434649Y-82885295D01*
X141434649Y-82885295D02*
X141434649Y-82980533D01*
X141434649Y-82980533D02*
X141482268Y-83123390D01*
X141482268Y-83123390D02*
X142053696Y-83694819D01*
X142053696Y-83694819D02*
X141434649Y-83694819D01*
X140815601Y-82694819D02*
X140720363Y-82694819D01*
X140720363Y-82694819D02*
X140625125Y-82742438D01*
X140625125Y-82742438D02*
X140577506Y-82790057D01*
X140577506Y-82790057D02*
X140529887Y-82885295D01*
X140529887Y-82885295D02*
X140482268Y-83075771D01*
X140482268Y-83075771D02*
X140482268Y-83313866D01*
X140482268Y-83313866D02*
X140529887Y-83504342D01*
X140529887Y-83504342D02*
X140577506Y-83599580D01*
X140577506Y-83599580D02*
X140625125Y-83647200D01*
X140625125Y-83647200D02*
X140720363Y-83694819D01*
X140720363Y-83694819D02*
X140815601Y-83694819D01*
X140815601Y-83694819D02*
X140910839Y-83647200D01*
X140910839Y-83647200D02*
X140958458Y-83599580D01*
X140958458Y-83599580D02*
X141006077Y-83504342D01*
X141006077Y-83504342D02*
X141053696Y-83313866D01*
X141053696Y-83313866D02*
X141053696Y-83075771D01*
X141053696Y-83075771D02*
X141006077Y-82885295D01*
X141006077Y-82885295D02*
X140958458Y-82790057D01*
X140958458Y-82790057D02*
X140910839Y-82742438D01*
X140910839Y-82742438D02*
X140815601Y-82694819D01*
X183033458Y-65874931D02*
X182414411Y-65874931D01*
X182414411Y-65874931D02*
X182747744Y-66255883D01*
X182747744Y-66255883D02*
X182604887Y-66255883D01*
X182604887Y-66255883D02*
X182509649Y-66303502D01*
X182509649Y-66303502D02*
X182462030Y-66351121D01*
X182462030Y-66351121D02*
X182414411Y-66446359D01*
X182414411Y-66446359D02*
X182414411Y-66684454D01*
X182414411Y-66684454D02*
X182462030Y-66779692D01*
X182462030Y-66779692D02*
X182509649Y-66827312D01*
X182509649Y-66827312D02*
X182604887Y-66874931D01*
X182604887Y-66874931D02*
X182890601Y-66874931D01*
X182890601Y-66874931D02*
X182985839Y-66827312D01*
X182985839Y-66827312D02*
X183033458Y-66779692D01*
X181985839Y-66779692D02*
X181938220Y-66827312D01*
X181938220Y-66827312D02*
X181985839Y-66874931D01*
X181985839Y-66874931D02*
X182033458Y-66827312D01*
X182033458Y-66827312D02*
X181985839Y-66779692D01*
X181985839Y-66779692D02*
X181985839Y-66874931D01*
X181604887Y-65874931D02*
X180938221Y-65874931D01*
X180938221Y-65874931D02*
X181366792Y-66874931D01*
X180700125Y-65874931D02*
X180366792Y-66874931D01*
X180366792Y-66874931D02*
X180033459Y-65874931D01*
X178414411Y-66874931D02*
X178985839Y-66874931D01*
X178700125Y-66874931D02*
X178700125Y-65874931D01*
X178700125Y-65874931D02*
X178795363Y-66017788D01*
X178795363Y-66017788D02*
X178890601Y-66113026D01*
X178890601Y-66113026D02*
X178985839Y-66160645D01*
X177985839Y-66493978D02*
X177223935Y-66493978D01*
X176176316Y-66779692D02*
X176223935Y-66827312D01*
X176223935Y-66827312D02*
X176366792Y-66874931D01*
X176366792Y-66874931D02*
X176462030Y-66874931D01*
X176462030Y-66874931D02*
X176604887Y-66827312D01*
X176604887Y-66827312D02*
X176700125Y-66732073D01*
X176700125Y-66732073D02*
X176747744Y-66636835D01*
X176747744Y-66636835D02*
X176795363Y-66446359D01*
X176795363Y-66446359D02*
X176795363Y-66303502D01*
X176795363Y-66303502D02*
X176747744Y-66113026D01*
X176747744Y-66113026D02*
X176700125Y-66017788D01*
X176700125Y-66017788D02*
X176604887Y-65922550D01*
X176604887Y-65922550D02*
X176462030Y-65874931D01*
X176462030Y-65874931D02*
X176366792Y-65874931D01*
X176366792Y-65874931D02*
X176223935Y-65922550D01*
X176223935Y-65922550D02*
X176176316Y-65970169D01*
X175747744Y-66351121D02*
X175414411Y-66351121D01*
X175271554Y-66874931D02*
X175747744Y-66874931D01*
X175747744Y-66874931D02*
X175747744Y-65874931D01*
X175747744Y-65874931D02*
X175271554Y-65874931D01*
X174366792Y-66874931D02*
X174842982Y-66874931D01*
X174842982Y-66874931D02*
X174842982Y-65874931D01*
X173557268Y-66874931D02*
X174033458Y-66874931D01*
X174033458Y-66874931D02*
X174033458Y-65874931D01*
X182462030Y-68484875D02*
X182938220Y-68484875D01*
X182938220Y-68484875D02*
X182938220Y-67484875D01*
X182128696Y-68484875D02*
X182128696Y-67484875D01*
X181652506Y-68103922D02*
X180890602Y-68103922D01*
X180414411Y-68484875D02*
X180414411Y-67484875D01*
X180414411Y-67484875D02*
X180033459Y-67484875D01*
X180033459Y-67484875D02*
X179938221Y-67532494D01*
X179938221Y-67532494D02*
X179890602Y-67580113D01*
X179890602Y-67580113D02*
X179842983Y-67675351D01*
X179842983Y-67675351D02*
X179842983Y-67818208D01*
X179842983Y-67818208D02*
X179890602Y-67913446D01*
X179890602Y-67913446D02*
X179938221Y-67961065D01*
X179938221Y-67961065D02*
X180033459Y-68008684D01*
X180033459Y-68008684D02*
X180414411Y-68008684D01*
X179223935Y-67484875D02*
X179033459Y-67484875D01*
X179033459Y-67484875D02*
X178938221Y-67532494D01*
X178938221Y-67532494D02*
X178842983Y-67627732D01*
X178842983Y-67627732D02*
X178795364Y-67818208D01*
X178795364Y-67818208D02*
X178795364Y-68151541D01*
X178795364Y-68151541D02*
X178842983Y-68342017D01*
X178842983Y-68342017D02*
X178938221Y-68437256D01*
X178938221Y-68437256D02*
X179033459Y-68484875D01*
X179033459Y-68484875D02*
X179223935Y-68484875D01*
X179223935Y-68484875D02*
X179319173Y-68437256D01*
X179319173Y-68437256D02*
X179414411Y-68342017D01*
X179414411Y-68342017D02*
X179462030Y-68151541D01*
X179462030Y-68151541D02*
X179462030Y-67818208D01*
X179462030Y-67818208D02*
X179414411Y-67627732D01*
X179414411Y-67627732D02*
X179319173Y-67532494D01*
X179319173Y-67532494D02*
X179223935Y-67484875D01*
X177890602Y-68484875D02*
X178366792Y-68484875D01*
X178366792Y-68484875D02*
X178366792Y-67484875D01*
X177366792Y-68008684D02*
X177366792Y-68484875D01*
X177700125Y-67484875D02*
X177366792Y-68008684D01*
X177366792Y-68008684D02*
X177033459Y-67484875D01*
X175747744Y-67484875D02*
X175557268Y-67484875D01*
X175557268Y-67484875D02*
X175462030Y-67532494D01*
X175462030Y-67532494D02*
X175366792Y-67627732D01*
X175366792Y-67627732D02*
X175319173Y-67818208D01*
X175319173Y-67818208D02*
X175319173Y-68151541D01*
X175319173Y-68151541D02*
X175366792Y-68342017D01*
X175366792Y-68342017D02*
X175462030Y-68437256D01*
X175462030Y-68437256D02*
X175557268Y-68484875D01*
X175557268Y-68484875D02*
X175747744Y-68484875D01*
X175747744Y-68484875D02*
X175842982Y-68437256D01*
X175842982Y-68437256D02*
X175938220Y-68342017D01*
X175938220Y-68342017D02*
X175985839Y-68151541D01*
X175985839Y-68151541D02*
X175985839Y-67818208D01*
X175985839Y-67818208D02*
X175938220Y-67627732D01*
X175938220Y-67627732D02*
X175842982Y-67532494D01*
X175842982Y-67532494D02*
X175747744Y-67484875D01*
X174890601Y-68484875D02*
X174890601Y-67484875D01*
X174890601Y-67484875D02*
X174319173Y-68484875D01*
X174319173Y-68484875D02*
X174319173Y-67484875D01*
X173366792Y-68484875D02*
X173842982Y-68484875D01*
X173842982Y-68484875D02*
X173842982Y-67484875D01*
X172842982Y-68008684D02*
X172842982Y-68484875D01*
X173176315Y-67484875D02*
X172842982Y-68008684D01*
X172842982Y-68008684D02*
X172509649Y-67484875D01*
X182509649Y-69428152D02*
X182509649Y-70094819D01*
X182747744Y-69047200D02*
X182985839Y-69761485D01*
X182985839Y-69761485D02*
X182366792Y-69761485D01*
X181795363Y-69094819D02*
X181700125Y-69094819D01*
X181700125Y-69094819D02*
X181604887Y-69142438D01*
X181604887Y-69142438D02*
X181557268Y-69190057D01*
X181557268Y-69190057D02*
X181509649Y-69285295D01*
X181509649Y-69285295D02*
X181462030Y-69475771D01*
X181462030Y-69475771D02*
X181462030Y-69713866D01*
X181462030Y-69713866D02*
X181509649Y-69904342D01*
X181509649Y-69904342D02*
X181557268Y-69999580D01*
X181557268Y-69999580D02*
X181604887Y-70047200D01*
X181604887Y-70047200D02*
X181700125Y-70094819D01*
X181700125Y-70094819D02*
X181795363Y-70094819D01*
X181795363Y-70094819D02*
X181890601Y-70047200D01*
X181890601Y-70047200D02*
X181938220Y-69999580D01*
X181938220Y-69999580D02*
X181985839Y-69904342D01*
X181985839Y-69904342D02*
X182033458Y-69713866D01*
X182033458Y-69713866D02*
X182033458Y-69475771D01*
X182033458Y-69475771D02*
X181985839Y-69285295D01*
X181985839Y-69285295D02*
X181938220Y-69190057D01*
X181938220Y-69190057D02*
X181890601Y-69142438D01*
X181890601Y-69142438D02*
X181795363Y-69094819D01*
X180842982Y-69094819D02*
X180747744Y-69094819D01*
X180747744Y-69094819D02*
X180652506Y-69142438D01*
X180652506Y-69142438D02*
X180604887Y-69190057D01*
X180604887Y-69190057D02*
X180557268Y-69285295D01*
X180557268Y-69285295D02*
X180509649Y-69475771D01*
X180509649Y-69475771D02*
X180509649Y-69713866D01*
X180509649Y-69713866D02*
X180557268Y-69904342D01*
X180557268Y-69904342D02*
X180604887Y-69999580D01*
X180604887Y-69999580D02*
X180652506Y-70047200D01*
X180652506Y-70047200D02*
X180747744Y-70094819D01*
X180747744Y-70094819D02*
X180842982Y-70094819D01*
X180842982Y-70094819D02*
X180938220Y-70047200D01*
X180938220Y-70047200D02*
X180985839Y-69999580D01*
X180985839Y-69999580D02*
X181033458Y-69904342D01*
X181033458Y-69904342D02*
X181081077Y-69713866D01*
X181081077Y-69713866D02*
X181081077Y-69475771D01*
X181081077Y-69475771D02*
X181033458Y-69285295D01*
X181033458Y-69285295D02*
X180985839Y-69190057D01*
X180985839Y-69190057D02*
X180938220Y-69142438D01*
X180938220Y-69142438D02*
X180842982Y-69094819D01*
X179319172Y-70094819D02*
X179319172Y-69428152D01*
X179319172Y-69523390D02*
X179271553Y-69475771D01*
X179271553Y-69475771D02*
X179176315Y-69428152D01*
X179176315Y-69428152D02*
X179033458Y-69428152D01*
X179033458Y-69428152D02*
X178938220Y-69475771D01*
X178938220Y-69475771D02*
X178890601Y-69571009D01*
X178890601Y-69571009D02*
X178890601Y-70094819D01*
X178890601Y-69571009D02*
X178842982Y-69475771D01*
X178842982Y-69475771D02*
X178747744Y-69428152D01*
X178747744Y-69428152D02*
X178604887Y-69428152D01*
X178604887Y-69428152D02*
X178509648Y-69475771D01*
X178509648Y-69475771D02*
X178462029Y-69571009D01*
X178462029Y-69571009D02*
X178462029Y-70094819D01*
X178033458Y-69809104D02*
X177557268Y-69809104D01*
X178128696Y-70094819D02*
X177795363Y-69094819D01*
X177795363Y-69094819D02*
X177462030Y-70094819D01*
X177128696Y-70094819D02*
X177128696Y-69094819D01*
X177128696Y-69571009D02*
X176557268Y-69571009D01*
X176557268Y-70094819D02*
X176557268Y-69094819D01*
X174890601Y-70047200D02*
X174985839Y-70094819D01*
X174985839Y-70094819D02*
X175176315Y-70094819D01*
X175176315Y-70094819D02*
X175271553Y-70047200D01*
X175271553Y-70047200D02*
X175319172Y-69999580D01*
X175319172Y-69999580D02*
X175366791Y-69904342D01*
X175366791Y-69904342D02*
X175366791Y-69618628D01*
X175366791Y-69618628D02*
X175319172Y-69523390D01*
X175319172Y-69523390D02*
X175271553Y-69475771D01*
X175271553Y-69475771D02*
X175176315Y-69428152D01*
X175176315Y-69428152D02*
X174985839Y-69428152D01*
X174985839Y-69428152D02*
X174890601Y-69475771D01*
X174033458Y-70094819D02*
X174033458Y-69571009D01*
X174033458Y-69571009D02*
X174081077Y-69475771D01*
X174081077Y-69475771D02*
X174176315Y-69428152D01*
X174176315Y-69428152D02*
X174366791Y-69428152D01*
X174366791Y-69428152D02*
X174462029Y-69475771D01*
X174033458Y-70047200D02*
X174128696Y-70094819D01*
X174128696Y-70094819D02*
X174366791Y-70094819D01*
X174366791Y-70094819D02*
X174462029Y-70047200D01*
X174462029Y-70047200D02*
X174509648Y-69951961D01*
X174509648Y-69951961D02*
X174509648Y-69856723D01*
X174509648Y-69856723D02*
X174462029Y-69761485D01*
X174462029Y-69761485D02*
X174366791Y-69713866D01*
X174366791Y-69713866D02*
X174128696Y-69713866D01*
X174128696Y-69713866D02*
X174033458Y-69666247D01*
X173557267Y-69428152D02*
X173557267Y-70428152D01*
X173557267Y-69475771D02*
X173462029Y-69428152D01*
X173462029Y-69428152D02*
X173271553Y-69428152D01*
X173271553Y-69428152D02*
X173176315Y-69475771D01*
X173176315Y-69475771D02*
X173128696Y-69523390D01*
X173128696Y-69523390D02*
X173081077Y-69618628D01*
X173081077Y-69618628D02*
X173081077Y-69904342D01*
X173081077Y-69904342D02*
X173128696Y-69999580D01*
X173128696Y-69999580D02*
X173176315Y-70047200D01*
X173176315Y-70047200D02*
X173271553Y-70094819D01*
X173271553Y-70094819D02*
X173462029Y-70094819D01*
X173462029Y-70094819D02*
X173557267Y-70047200D01*
X172223934Y-70094819D02*
X172223934Y-69571009D01*
X172223934Y-69571009D02*
X172271553Y-69475771D01*
X172271553Y-69475771D02*
X172366791Y-69428152D01*
X172366791Y-69428152D02*
X172557267Y-69428152D01*
X172557267Y-69428152D02*
X172652505Y-69475771D01*
X172223934Y-70047200D02*
X172319172Y-70094819D01*
X172319172Y-70094819D02*
X172557267Y-70094819D01*
X172557267Y-70094819D02*
X172652505Y-70047200D01*
X172652505Y-70047200D02*
X172700124Y-69951961D01*
X172700124Y-69951961D02*
X172700124Y-69856723D01*
X172700124Y-69856723D02*
X172652505Y-69761485D01*
X172652505Y-69761485D02*
X172557267Y-69713866D01*
X172557267Y-69713866D02*
X172319172Y-69713866D01*
X172319172Y-69713866D02*
X172223934Y-69666247D01*
X171319172Y-70047200D02*
X171414410Y-70094819D01*
X171414410Y-70094819D02*
X171604886Y-70094819D01*
X171604886Y-70094819D02*
X171700124Y-70047200D01*
X171700124Y-70047200D02*
X171747743Y-69999580D01*
X171747743Y-69999580D02*
X171795362Y-69904342D01*
X171795362Y-69904342D02*
X171795362Y-69618628D01*
X171795362Y-69618628D02*
X171747743Y-69523390D01*
X171747743Y-69523390D02*
X171700124Y-69475771D01*
X171700124Y-69475771D02*
X171604886Y-69428152D01*
X171604886Y-69428152D02*
X171414410Y-69428152D01*
X171414410Y-69428152D02*
X171319172Y-69475771D01*
X170890600Y-70094819D02*
X170890600Y-69428152D01*
X170890600Y-69094819D02*
X170938219Y-69142438D01*
X170938219Y-69142438D02*
X170890600Y-69190057D01*
X170890600Y-69190057D02*
X170842981Y-69142438D01*
X170842981Y-69142438D02*
X170890600Y-69094819D01*
X170890600Y-69094819D02*
X170890600Y-69190057D01*
X170557267Y-69428152D02*
X170176315Y-69428152D01*
X170414410Y-69094819D02*
X170414410Y-69951961D01*
X170414410Y-69951961D02*
X170366791Y-70047200D01*
X170366791Y-70047200D02*
X170271553Y-70094819D01*
X170271553Y-70094819D02*
X170176315Y-70094819D01*
X169938219Y-69428152D02*
X169700124Y-70094819D01*
X169462029Y-69428152D02*
X169700124Y-70094819D01*
X169700124Y-70094819D02*
X169795362Y-70332914D01*
X169795362Y-70332914D02*
X169842981Y-70380533D01*
X169842981Y-70380533D02*
X169938219Y-70428152D01*
X163916666Y-108862295D02*
X163916666Y-109433723D01*
X163916666Y-109433723D02*
X163954761Y-109548009D01*
X163954761Y-109548009D02*
X164030952Y-109624200D01*
X164030952Y-109624200D02*
X164145237Y-109662295D01*
X164145237Y-109662295D02*
X164221428Y-109662295D01*
X163573809Y-108938485D02*
X163535713Y-108900390D01*
X163535713Y-108900390D02*
X163459523Y-108862295D01*
X163459523Y-108862295D02*
X163269047Y-108862295D01*
X163269047Y-108862295D02*
X163192856Y-108900390D01*
X163192856Y-108900390D02*
X163154761Y-108938485D01*
X163154761Y-108938485D02*
X163116666Y-109014676D01*
X163116666Y-109014676D02*
X163116666Y-109090866D01*
X163116666Y-109090866D02*
X163154761Y-109205152D01*
X163154761Y-109205152D02*
X163611904Y-109662295D01*
X163611904Y-109662295D02*
X163116666Y-109662295D01*
X177016667Y-86649200D02*
X176902381Y-86687295D01*
X176902381Y-86687295D02*
X176711905Y-86687295D01*
X176711905Y-86687295D02*
X176635714Y-86649200D01*
X176635714Y-86649200D02*
X176597619Y-86611104D01*
X176597619Y-86611104D02*
X176559524Y-86534914D01*
X176559524Y-86534914D02*
X176559524Y-86458723D01*
X176559524Y-86458723D02*
X176597619Y-86382533D01*
X176597619Y-86382533D02*
X176635714Y-86344438D01*
X176635714Y-86344438D02*
X176711905Y-86306342D01*
X176711905Y-86306342D02*
X176864286Y-86268247D01*
X176864286Y-86268247D02*
X176940476Y-86230152D01*
X176940476Y-86230152D02*
X176978571Y-86192057D01*
X176978571Y-86192057D02*
X177016667Y-86115866D01*
X177016667Y-86115866D02*
X177016667Y-86039676D01*
X177016667Y-86039676D02*
X176978571Y-85963485D01*
X176978571Y-85963485D02*
X176940476Y-85925390D01*
X176940476Y-85925390D02*
X176864286Y-85887295D01*
X176864286Y-85887295D02*
X176673809Y-85887295D01*
X176673809Y-85887295D02*
X176559524Y-85925390D01*
X176292857Y-85887295D02*
X176102381Y-86687295D01*
X176102381Y-86687295D02*
X175950000Y-86115866D01*
X175950000Y-86115866D02*
X175797619Y-86687295D01*
X175797619Y-86687295D02*
X175607143Y-85887295D01*
X174883333Y-86687295D02*
X175340476Y-86687295D01*
X175111904Y-86687295D02*
X175111904Y-85887295D01*
X175111904Y-85887295D02*
X175188095Y-86001580D01*
X175188095Y-86001580D02*
X175264285Y-86077771D01*
X175264285Y-86077771D02*
X175340476Y-86115866D01*
X170358208Y-94244295D02*
X169824874Y-95044295D01*
X169824874Y-94244295D02*
X170358208Y-95044295D01*
X169558208Y-94320485D02*
X169520112Y-94282390D01*
X169520112Y-94282390D02*
X169443922Y-94244295D01*
X169443922Y-94244295D02*
X169253446Y-94244295D01*
X169253446Y-94244295D02*
X169177255Y-94282390D01*
X169177255Y-94282390D02*
X169139160Y-94320485D01*
X169139160Y-94320485D02*
X169101065Y-94396676D01*
X169101065Y-94396676D02*
X169101065Y-94472866D01*
X169101065Y-94472866D02*
X169139160Y-94587152D01*
X169139160Y-94587152D02*
X169596303Y-95044295D01*
X169596303Y-95044295D02*
X169101065Y-95044295D01*
X133897020Y-85679908D02*
X133789271Y-85626034D01*
X133789271Y-85626034D02*
X133735396Y-85626034D01*
X133735396Y-85626034D02*
X133654584Y-85652971D01*
X133654584Y-85652971D02*
X133573772Y-85733783D01*
X133573772Y-85733783D02*
X133546834Y-85814595D01*
X133546834Y-85814595D02*
X133546834Y-85868470D01*
X133546834Y-85868470D02*
X133573772Y-85949282D01*
X133573772Y-85949282D02*
X133789271Y-86164782D01*
X133789271Y-86164782D02*
X134354956Y-85599096D01*
X134354956Y-85599096D02*
X134166394Y-85410534D01*
X134166394Y-85410534D02*
X134085582Y-85383597D01*
X134085582Y-85383597D02*
X134031707Y-85383597D01*
X134031707Y-85383597D02*
X133950895Y-85410534D01*
X133950895Y-85410534D02*
X133897020Y-85464409D01*
X133897020Y-85464409D02*
X133870083Y-85545221D01*
X133870083Y-85545221D02*
X133870083Y-85599096D01*
X133870083Y-85599096D02*
X133897020Y-85679908D01*
X133897020Y-85679908D02*
X134085582Y-85868470D01*
X132927274Y-85302785D02*
X133250523Y-85626034D01*
X133088898Y-85464409D02*
X133654584Y-84898724D01*
X133654584Y-84898724D02*
X133627646Y-85033411D01*
X133627646Y-85033411D02*
X133627646Y-85141160D01*
X133627646Y-85141160D02*
X133654584Y-85221973D01*
X173466666Y-72812295D02*
X173466666Y-73383723D01*
X173466666Y-73383723D02*
X173504761Y-73498009D01*
X173504761Y-73498009D02*
X173580952Y-73574200D01*
X173580952Y-73574200D02*
X173695237Y-73612295D01*
X173695237Y-73612295D02*
X173771428Y-73612295D01*
X172666666Y-73612295D02*
X173123809Y-73612295D01*
X172895237Y-73612295D02*
X172895237Y-72812295D01*
X172895237Y-72812295D02*
X172971428Y-72926580D01*
X172971428Y-72926580D02*
X173047618Y-73002771D01*
X173047618Y-73002771D02*
X173123809Y-73040866D01*
D11*
%TO.C,J2*%
X163685000Y-101870000D02*
X163685000Y-107170000D01*
X162095000Y-107170000D02*
X163685000Y-107170000D01*
X162095000Y-101820000D02*
X163685000Y-101820000D01*
D12*
X159235000Y-106820000D02*
X159235000Y-107520000D01*
X155435000Y-106820000D02*
X155435000Y-107520000D01*
D11*
X152585000Y-107170000D02*
X150995000Y-107170000D01*
X152585000Y-101820000D02*
X150995000Y-101820000D01*
X150995000Y-107120000D02*
X150995000Y-101820000D01*
D13*
X163540000Y-107620000D02*
G75*
G02*
X163230000Y-107620000I-155000J0D01*
G01*
X163230000Y-107620000D02*
G75*
G02*
X163540000Y-107620000I155000J0D01*
G01*
D14*
%TO.C,X2*%
X168935000Y-96050000D02*
X180885000Y-96050000D01*
X168935000Y-96300000D02*
X168935000Y-96050000D01*
X168435000Y-96300000D02*
X168935000Y-96300000D01*
X168435000Y-96950000D02*
X168435000Y-96300000D01*
X168435000Y-99250000D02*
X168435000Y-102950000D01*
X168435000Y-105200000D02*
X168435000Y-110250000D01*
X168435000Y-110250000D02*
X181785000Y-110250000D01*
D15*
%TO.C,B1*%
X146134672Y-88361649D02*
X146841778Y-89634441D01*
X143801219Y-86311039D02*
X143023402Y-85816064D01*
X146841778Y-89634441D02*
X147266043Y-91048654D01*
X143023402Y-85816064D02*
X142033452Y-85391800D01*
X142033452Y-85391800D02*
X140972792Y-85038247D01*
X147266043Y-91048654D02*
X147478175Y-92392157D01*
X140972792Y-85038247D02*
X139629289Y-84967536D01*
X147478175Y-92392157D02*
X147478175Y-93523528D01*
X139629289Y-84967536D02*
X138427208Y-85038247D01*
X147478175Y-93523528D02*
X147266043Y-94725610D01*
X138427208Y-85038247D02*
X137083705Y-85391800D01*
X147266043Y-94725610D02*
X146841778Y-95998402D01*
X137083705Y-85391800D02*
X136023045Y-85745354D01*
X146841778Y-95998402D02*
X146134672Y-97271194D01*
X136023045Y-85745354D02*
X134679542Y-86523171D01*
X146134672Y-97271194D02*
X145356854Y-98331854D01*
X134679542Y-86523171D02*
X133618882Y-87583831D01*
X145356854Y-98331854D02*
X144437615Y-99109672D01*
X133618882Y-87583831D02*
X132841064Y-88644491D01*
X144437615Y-99109672D02*
X143306245Y-99816778D01*
X132841064Y-88644491D02*
X131921825Y-90412258D01*
X143376955Y-99746068D02*
X141962742Y-100453175D01*
X141927386Y-100488530D02*
X139700000Y-102715916D01*
X131886470Y-90447614D02*
X129659084Y-92675000D01*
X139700000Y-102715916D02*
X137437258Y-100453175D01*
X137437258Y-100453175D02*
X136376598Y-100099621D01*
X131992536Y-95008452D02*
X132275379Y-95998402D01*
X129659084Y-92675000D02*
X131992536Y-95008452D01*
X136376598Y-100099621D02*
X135315938Y-99463225D01*
X132275379Y-95998402D02*
X132699643Y-96846930D01*
X132699643Y-96846930D02*
X132982486Y-97129773D01*
D16*
%TO.C,J1*%
X183220000Y-79900000D02*
X183220000Y-75900000D01*
X182370000Y-79900000D02*
X183220000Y-79900000D01*
X182370000Y-77400000D02*
X182370000Y-79900000D01*
X181470000Y-72400000D02*
X176970000Y-72400000D01*
X180970000Y-77400000D02*
X182370000Y-77400000D01*
X176070000Y-79900000D02*
X176070000Y-77400000D01*
X176070000Y-77400000D02*
X177470000Y-77400000D01*
X175220000Y-79900000D02*
X176070000Y-79900000D01*
X175220000Y-75900000D02*
X175220000Y-79900000D01*
%TD*%
M02*
