%TF.GenerationSoftware,KiCad,Pcbnew,8.0.8*%
%TF.CreationDate,2025-01-20T12:07:48-06:00*%
%TF.ProjectId,tempo,74656d70-6f2e-46b6-9963-61645f706362,rev?*%
%TF.SameCoordinates,Original*%
%TF.FileFunction,Legend,Top*%
%TF.FilePolarity,Positive*%
%FSLAX46Y46*%
G04 Gerber Fmt 4.6, Leading zero omitted, Abs format (unit mm)*
G04 Created by KiCad (PCBNEW 8.0.8) date 2025-01-20 12:07:48*
%MOMM*%
%LPD*%
G01*
G04 APERTURE LIST*
%ADD10C,0.150000*%
%ADD11C,0.120000*%
%ADD12C,0.203200*%
%ADD13C,0.127000*%
%ADD14C,0.200000*%
%ADD15C,0.010000*%
%ADD16C,0.152400*%
%ADD17C,0.000000*%
%ADD18C,0.100000*%
G04 APERTURE END LIST*
D10*
X128617731Y-81868600D02*
X129093922Y-81868600D01*
X128796303Y-81451933D02*
X128796303Y-82523362D01*
X128796303Y-82523362D02*
X128855826Y-82642410D01*
X128855826Y-82642410D02*
X128974874Y-82701933D01*
X128974874Y-82701933D02*
X129093922Y-82701933D01*
X129986779Y-82642410D02*
X129867731Y-82701933D01*
X129867731Y-82701933D02*
X129629636Y-82701933D01*
X129629636Y-82701933D02*
X129510589Y-82642410D01*
X129510589Y-82642410D02*
X129451065Y-82523362D01*
X129451065Y-82523362D02*
X129451065Y-82047171D01*
X129451065Y-82047171D02*
X129510589Y-81928124D01*
X129510589Y-81928124D02*
X129629636Y-81868600D01*
X129629636Y-81868600D02*
X129867731Y-81868600D01*
X129867731Y-81868600D02*
X129986779Y-81928124D01*
X129986779Y-81928124D02*
X130046303Y-82047171D01*
X130046303Y-82047171D02*
X130046303Y-82166219D01*
X130046303Y-82166219D02*
X129451065Y-82285267D01*
X130582018Y-82701933D02*
X130582018Y-81868600D01*
X130582018Y-81987648D02*
X130641541Y-81928124D01*
X130641541Y-81928124D02*
X130760589Y-81868600D01*
X130760589Y-81868600D02*
X130939160Y-81868600D01*
X130939160Y-81868600D02*
X131058208Y-81928124D01*
X131058208Y-81928124D02*
X131117732Y-82047171D01*
X131117732Y-82047171D02*
X131117732Y-82701933D01*
X131117732Y-82047171D02*
X131177256Y-81928124D01*
X131177256Y-81928124D02*
X131296303Y-81868600D01*
X131296303Y-81868600D02*
X131474875Y-81868600D01*
X131474875Y-81868600D02*
X131593922Y-81928124D01*
X131593922Y-81928124D02*
X131653446Y-82047171D01*
X131653446Y-82047171D02*
X131653446Y-82701933D01*
X132248685Y-81868600D02*
X132248685Y-83118600D01*
X132248685Y-81928124D02*
X132367732Y-81868600D01*
X132367732Y-81868600D02*
X132605827Y-81868600D01*
X132605827Y-81868600D02*
X132724875Y-81928124D01*
X132724875Y-81928124D02*
X132784399Y-81987648D01*
X132784399Y-81987648D02*
X132843923Y-82106695D01*
X132843923Y-82106695D02*
X132843923Y-82463838D01*
X132843923Y-82463838D02*
X132784399Y-82582886D01*
X132784399Y-82582886D02*
X132724875Y-82642410D01*
X132724875Y-82642410D02*
X132605827Y-82701933D01*
X132605827Y-82701933D02*
X132367732Y-82701933D01*
X132367732Y-82701933D02*
X132248685Y-82642410D01*
X133558208Y-82701933D02*
X133439160Y-82642410D01*
X133439160Y-82642410D02*
X133379637Y-82582886D01*
X133379637Y-82582886D02*
X133320113Y-82463838D01*
X133320113Y-82463838D02*
X133320113Y-82106695D01*
X133320113Y-82106695D02*
X133379637Y-81987648D01*
X133379637Y-81987648D02*
X133439160Y-81928124D01*
X133439160Y-81928124D02*
X133558208Y-81868600D01*
X133558208Y-81868600D02*
X133736779Y-81868600D01*
X133736779Y-81868600D02*
X133855827Y-81928124D01*
X133855827Y-81928124D02*
X133915351Y-81987648D01*
X133915351Y-81987648D02*
X133974875Y-82106695D01*
X133974875Y-82106695D02*
X133974875Y-82463838D01*
X133974875Y-82463838D02*
X133915351Y-82582886D01*
X133915351Y-82582886D02*
X133855827Y-82642410D01*
X133855827Y-82642410D02*
X133736779Y-82701933D01*
X133736779Y-82701933D02*
X133558208Y-82701933D01*
X135284398Y-81451933D02*
X135701065Y-82701933D01*
X135701065Y-82701933D02*
X136117731Y-81451933D01*
X137189160Y-82701933D02*
X136474875Y-82701933D01*
X136832018Y-82701933D02*
X136832018Y-81451933D01*
X136832018Y-81451933D02*
X136712970Y-81630505D01*
X136712970Y-81630505D02*
X136593922Y-81749552D01*
X136593922Y-81749552D02*
X136474875Y-81809076D01*
X128796303Y-86726793D02*
X128796303Y-85476793D01*
X129332017Y-86726793D02*
X129332017Y-86072031D01*
X129332017Y-86072031D02*
X129272493Y-85952984D01*
X129272493Y-85952984D02*
X129153445Y-85893460D01*
X129153445Y-85893460D02*
X128974874Y-85893460D01*
X128974874Y-85893460D02*
X128855826Y-85952984D01*
X128855826Y-85952984D02*
X128796303Y-86012508D01*
X129748683Y-85893460D02*
X130224874Y-85893460D01*
X129927255Y-85476793D02*
X129927255Y-86548222D01*
X129927255Y-86548222D02*
X129986778Y-86667270D01*
X129986778Y-86667270D02*
X130105826Y-86726793D01*
X130105826Y-86726793D02*
X130224874Y-86726793D01*
X130462969Y-85893460D02*
X130939160Y-85893460D01*
X130641541Y-85476793D02*
X130641541Y-86548222D01*
X130641541Y-86548222D02*
X130701064Y-86667270D01*
X130701064Y-86667270D02*
X130820112Y-86726793D01*
X130820112Y-86726793D02*
X130939160Y-86726793D01*
X131355827Y-85893460D02*
X131355827Y-87143460D01*
X131355827Y-85952984D02*
X131474874Y-85893460D01*
X131474874Y-85893460D02*
X131712969Y-85893460D01*
X131712969Y-85893460D02*
X131832017Y-85952984D01*
X131832017Y-85952984D02*
X131891541Y-86012508D01*
X131891541Y-86012508D02*
X131951065Y-86131555D01*
X131951065Y-86131555D02*
X131951065Y-86488698D01*
X131951065Y-86488698D02*
X131891541Y-86607746D01*
X131891541Y-86607746D02*
X131832017Y-86667270D01*
X131832017Y-86667270D02*
X131712969Y-86726793D01*
X131712969Y-86726793D02*
X131474874Y-86726793D01*
X131474874Y-86726793D02*
X131355827Y-86667270D01*
X132427255Y-86667270D02*
X132546302Y-86726793D01*
X132546302Y-86726793D02*
X132784398Y-86726793D01*
X132784398Y-86726793D02*
X132903445Y-86667270D01*
X132903445Y-86667270D02*
X132962969Y-86548222D01*
X132962969Y-86548222D02*
X132962969Y-86488698D01*
X132962969Y-86488698D02*
X132903445Y-86369650D01*
X132903445Y-86369650D02*
X132784398Y-86310127D01*
X132784398Y-86310127D02*
X132605826Y-86310127D01*
X132605826Y-86310127D02*
X132486779Y-86250603D01*
X132486779Y-86250603D02*
X132427255Y-86131555D01*
X132427255Y-86131555D02*
X132427255Y-86072031D01*
X132427255Y-86072031D02*
X132486779Y-85952984D01*
X132486779Y-85952984D02*
X132605826Y-85893460D01*
X132605826Y-85893460D02*
X132784398Y-85893460D01*
X132784398Y-85893460D02*
X132903445Y-85952984D01*
X133498684Y-86607746D02*
X133558207Y-86667270D01*
X133558207Y-86667270D02*
X133498684Y-86726793D01*
X133498684Y-86726793D02*
X133439160Y-86667270D01*
X133439160Y-86667270D02*
X133498684Y-86607746D01*
X133498684Y-86607746D02*
X133498684Y-86726793D01*
X133498684Y-85952984D02*
X133558207Y-86012508D01*
X133558207Y-86012508D02*
X133498684Y-86072031D01*
X133498684Y-86072031D02*
X133439160Y-86012508D01*
X133439160Y-86012508D02*
X133498684Y-85952984D01*
X133498684Y-85952984D02*
X133498684Y-86072031D01*
X134986779Y-85417270D02*
X133915350Y-87024412D01*
X136296303Y-85417270D02*
X135224874Y-87024412D01*
X137248684Y-85893460D02*
X137248684Y-86905365D01*
X137248684Y-86905365D02*
X137189160Y-87024412D01*
X137189160Y-87024412D02*
X137129636Y-87083936D01*
X137129636Y-87083936D02*
X137010589Y-87143460D01*
X137010589Y-87143460D02*
X136832017Y-87143460D01*
X136832017Y-87143460D02*
X136712970Y-87083936D01*
X137248684Y-86667270D02*
X137129636Y-86726793D01*
X137129636Y-86726793D02*
X136891541Y-86726793D01*
X136891541Y-86726793D02*
X136772493Y-86667270D01*
X136772493Y-86667270D02*
X136712970Y-86607746D01*
X136712970Y-86607746D02*
X136653446Y-86488698D01*
X136653446Y-86488698D02*
X136653446Y-86131555D01*
X136653446Y-86131555D02*
X136712970Y-86012508D01*
X136712970Y-86012508D02*
X136772493Y-85952984D01*
X136772493Y-85952984D02*
X136891541Y-85893460D01*
X136891541Y-85893460D02*
X137129636Y-85893460D01*
X137129636Y-85893460D02*
X137248684Y-85952984D01*
X137843922Y-86726793D02*
X137843922Y-85893460D01*
X137843922Y-85476793D02*
X137784398Y-85536317D01*
X137784398Y-85536317D02*
X137843922Y-85595841D01*
X137843922Y-85595841D02*
X137903445Y-85536317D01*
X137903445Y-85536317D02*
X137843922Y-85476793D01*
X137843922Y-85476793D02*
X137843922Y-85595841D01*
X138260588Y-85893460D02*
X138736779Y-85893460D01*
X138439160Y-85476793D02*
X138439160Y-86548222D01*
X138439160Y-86548222D02*
X138498683Y-86667270D01*
X138498683Y-86667270D02*
X138617731Y-86726793D01*
X138617731Y-86726793D02*
X138736779Y-86726793D01*
X139153446Y-86726793D02*
X139153446Y-85476793D01*
X139689160Y-86726793D02*
X139689160Y-86072031D01*
X139689160Y-86072031D02*
X139629636Y-85952984D01*
X139629636Y-85952984D02*
X139510588Y-85893460D01*
X139510588Y-85893460D02*
X139332017Y-85893460D01*
X139332017Y-85893460D02*
X139212969Y-85952984D01*
X139212969Y-85952984D02*
X139153446Y-86012508D01*
X140820112Y-85893460D02*
X140820112Y-86726793D01*
X140284398Y-85893460D02*
X140284398Y-86548222D01*
X140284398Y-86548222D02*
X140343921Y-86667270D01*
X140343921Y-86667270D02*
X140462969Y-86726793D01*
X140462969Y-86726793D02*
X140641540Y-86726793D01*
X140641540Y-86726793D02*
X140760588Y-86667270D01*
X140760588Y-86667270D02*
X140820112Y-86607746D01*
X141415350Y-86726793D02*
X141415350Y-85476793D01*
X141415350Y-85952984D02*
X141534397Y-85893460D01*
X141534397Y-85893460D02*
X141772492Y-85893460D01*
X141772492Y-85893460D02*
X141891540Y-85952984D01*
X141891540Y-85952984D02*
X141951064Y-86012508D01*
X141951064Y-86012508D02*
X142010588Y-86131555D01*
X142010588Y-86131555D02*
X142010588Y-86488698D01*
X142010588Y-86488698D02*
X141951064Y-86607746D01*
X141951064Y-86607746D02*
X141891540Y-86667270D01*
X141891540Y-86667270D02*
X141772492Y-86726793D01*
X141772492Y-86726793D02*
X141534397Y-86726793D01*
X141534397Y-86726793D02*
X141415350Y-86667270D01*
X142546302Y-86607746D02*
X142605825Y-86667270D01*
X142605825Y-86667270D02*
X142546302Y-86726793D01*
X142546302Y-86726793D02*
X142486778Y-86667270D01*
X142486778Y-86667270D02*
X142546302Y-86607746D01*
X142546302Y-86607746D02*
X142546302Y-86726793D01*
X143677254Y-86667270D02*
X143558206Y-86726793D01*
X143558206Y-86726793D02*
X143320111Y-86726793D01*
X143320111Y-86726793D02*
X143201063Y-86667270D01*
X143201063Y-86667270D02*
X143141540Y-86607746D01*
X143141540Y-86607746D02*
X143082016Y-86488698D01*
X143082016Y-86488698D02*
X143082016Y-86131555D01*
X143082016Y-86131555D02*
X143141540Y-86012508D01*
X143141540Y-86012508D02*
X143201063Y-85952984D01*
X143201063Y-85952984D02*
X143320111Y-85893460D01*
X143320111Y-85893460D02*
X143558206Y-85893460D01*
X143558206Y-85893460D02*
X143677254Y-85952984D01*
X144391540Y-86726793D02*
X144272492Y-86667270D01*
X144272492Y-86667270D02*
X144212969Y-86607746D01*
X144212969Y-86607746D02*
X144153445Y-86488698D01*
X144153445Y-86488698D02*
X144153445Y-86131555D01*
X144153445Y-86131555D02*
X144212969Y-86012508D01*
X144212969Y-86012508D02*
X144272492Y-85952984D01*
X144272492Y-85952984D02*
X144391540Y-85893460D01*
X144391540Y-85893460D02*
X144570111Y-85893460D01*
X144570111Y-85893460D02*
X144689159Y-85952984D01*
X144689159Y-85952984D02*
X144748683Y-86012508D01*
X144748683Y-86012508D02*
X144808207Y-86131555D01*
X144808207Y-86131555D02*
X144808207Y-86488698D01*
X144808207Y-86488698D02*
X144748683Y-86607746D01*
X144748683Y-86607746D02*
X144689159Y-86667270D01*
X144689159Y-86667270D02*
X144570111Y-86726793D01*
X144570111Y-86726793D02*
X144391540Y-86726793D01*
X145343921Y-86726793D02*
X145343921Y-85893460D01*
X145343921Y-86012508D02*
X145403444Y-85952984D01*
X145403444Y-85952984D02*
X145522492Y-85893460D01*
X145522492Y-85893460D02*
X145701063Y-85893460D01*
X145701063Y-85893460D02*
X145820111Y-85952984D01*
X145820111Y-85952984D02*
X145879635Y-86072031D01*
X145879635Y-86072031D02*
X145879635Y-86726793D01*
X145879635Y-86072031D02*
X145939159Y-85952984D01*
X145939159Y-85952984D02*
X146058206Y-85893460D01*
X146058206Y-85893460D02*
X146236778Y-85893460D01*
X146236778Y-85893460D02*
X146355825Y-85952984D01*
X146355825Y-85952984D02*
X146415349Y-86072031D01*
X146415349Y-86072031D02*
X146415349Y-86726793D01*
X147903445Y-85417270D02*
X146832016Y-87024412D01*
X148320112Y-86726793D02*
X148320112Y-85893460D01*
X148320112Y-86131555D02*
X148379635Y-86012508D01*
X148379635Y-86012508D02*
X148439159Y-85952984D01*
X148439159Y-85952984D02*
X148558207Y-85893460D01*
X148558207Y-85893460D02*
X148677254Y-85893460D01*
X149093922Y-86726793D02*
X149093922Y-85893460D01*
X149093922Y-86131555D02*
X149153445Y-86012508D01*
X149153445Y-86012508D02*
X149212969Y-85952984D01*
X149212969Y-85952984D02*
X149332017Y-85893460D01*
X149332017Y-85893460D02*
X149451064Y-85893460D01*
X150403446Y-86726793D02*
X150403446Y-86072031D01*
X150403446Y-86072031D02*
X150343922Y-85952984D01*
X150343922Y-85952984D02*
X150224874Y-85893460D01*
X150224874Y-85893460D02*
X149986779Y-85893460D01*
X149986779Y-85893460D02*
X149867732Y-85952984D01*
X150403446Y-86667270D02*
X150284398Y-86726793D01*
X150284398Y-86726793D02*
X149986779Y-86726793D01*
X149986779Y-86726793D02*
X149867732Y-86667270D01*
X149867732Y-86667270D02*
X149808208Y-86548222D01*
X149808208Y-86548222D02*
X149808208Y-86429174D01*
X149808208Y-86429174D02*
X149867732Y-86310127D01*
X149867732Y-86310127D02*
X149986779Y-86250603D01*
X149986779Y-86250603D02*
X150284398Y-86250603D01*
X150284398Y-86250603D02*
X150403446Y-86191079D01*
X150998684Y-86726793D02*
X150998684Y-85893460D01*
X150998684Y-85476793D02*
X150939160Y-85536317D01*
X150939160Y-85536317D02*
X150998684Y-85595841D01*
X150998684Y-85595841D02*
X151058207Y-85536317D01*
X151058207Y-85536317D02*
X150998684Y-85476793D01*
X150998684Y-85476793D02*
X150998684Y-85595841D01*
X151593922Y-85893460D02*
X151593922Y-86726793D01*
X151593922Y-86012508D02*
X151653445Y-85952984D01*
X151653445Y-85952984D02*
X151772493Y-85893460D01*
X151772493Y-85893460D02*
X151951064Y-85893460D01*
X151951064Y-85893460D02*
X152070112Y-85952984D01*
X152070112Y-85952984D02*
X152129636Y-86072031D01*
X152129636Y-86072031D02*
X152129636Y-86726793D01*
X153201064Y-86667270D02*
X153082016Y-86726793D01*
X153082016Y-86726793D02*
X152843921Y-86726793D01*
X152843921Y-86726793D02*
X152724874Y-86667270D01*
X152724874Y-86667270D02*
X152665350Y-86548222D01*
X152665350Y-86548222D02*
X152665350Y-86072031D01*
X152665350Y-86072031D02*
X152724874Y-85952984D01*
X152724874Y-85952984D02*
X152843921Y-85893460D01*
X152843921Y-85893460D02*
X153082016Y-85893460D01*
X153082016Y-85893460D02*
X153201064Y-85952984D01*
X153201064Y-85952984D02*
X153260588Y-86072031D01*
X153260588Y-86072031D02*
X153260588Y-86191079D01*
X153260588Y-86191079D02*
X152665350Y-86310127D01*
X153677255Y-85893460D02*
X153974874Y-86726793D01*
X154272493Y-85893460D02*
X153974874Y-86726793D01*
X153974874Y-86726793D02*
X153855826Y-87024412D01*
X153855826Y-87024412D02*
X153796303Y-87083936D01*
X153796303Y-87083936D02*
X153677255Y-87143460D01*
X155641541Y-85417270D02*
X154570112Y-87024412D01*
X155879636Y-85893460D02*
X156355827Y-85893460D01*
X156058208Y-85476793D02*
X156058208Y-86548222D01*
X156058208Y-86548222D02*
X156117731Y-86667270D01*
X156117731Y-86667270D02*
X156236779Y-86726793D01*
X156236779Y-86726793D02*
X156355827Y-86726793D01*
X157248684Y-86667270D02*
X157129636Y-86726793D01*
X157129636Y-86726793D02*
X156891541Y-86726793D01*
X156891541Y-86726793D02*
X156772494Y-86667270D01*
X156772494Y-86667270D02*
X156712970Y-86548222D01*
X156712970Y-86548222D02*
X156712970Y-86072031D01*
X156712970Y-86072031D02*
X156772494Y-85952984D01*
X156772494Y-85952984D02*
X156891541Y-85893460D01*
X156891541Y-85893460D02*
X157129636Y-85893460D01*
X157129636Y-85893460D02*
X157248684Y-85952984D01*
X157248684Y-85952984D02*
X157308208Y-86072031D01*
X157308208Y-86072031D02*
X157308208Y-86191079D01*
X157308208Y-86191079D02*
X156712970Y-86310127D01*
X157843923Y-86726793D02*
X157843923Y-85893460D01*
X157843923Y-86012508D02*
X157903446Y-85952984D01*
X157903446Y-85952984D02*
X158022494Y-85893460D01*
X158022494Y-85893460D02*
X158201065Y-85893460D01*
X158201065Y-85893460D02*
X158320113Y-85952984D01*
X158320113Y-85952984D02*
X158379637Y-86072031D01*
X158379637Y-86072031D02*
X158379637Y-86726793D01*
X158379637Y-86072031D02*
X158439161Y-85952984D01*
X158439161Y-85952984D02*
X158558208Y-85893460D01*
X158558208Y-85893460D02*
X158736780Y-85893460D01*
X158736780Y-85893460D02*
X158855827Y-85952984D01*
X158855827Y-85952984D02*
X158915351Y-86072031D01*
X158915351Y-86072031D02*
X158915351Y-86726793D01*
X159510590Y-85893460D02*
X159510590Y-87143460D01*
X159510590Y-85952984D02*
X159629637Y-85893460D01*
X159629637Y-85893460D02*
X159867732Y-85893460D01*
X159867732Y-85893460D02*
X159986780Y-85952984D01*
X159986780Y-85952984D02*
X160046304Y-86012508D01*
X160046304Y-86012508D02*
X160105828Y-86131555D01*
X160105828Y-86131555D02*
X160105828Y-86488698D01*
X160105828Y-86488698D02*
X160046304Y-86607746D01*
X160046304Y-86607746D02*
X159986780Y-86667270D01*
X159986780Y-86667270D02*
X159867732Y-86726793D01*
X159867732Y-86726793D02*
X159629637Y-86726793D01*
X159629637Y-86726793D02*
X159510590Y-86667270D01*
X160820113Y-86726793D02*
X160701065Y-86667270D01*
X160701065Y-86667270D02*
X160641542Y-86607746D01*
X160641542Y-86607746D02*
X160582018Y-86488698D01*
X160582018Y-86488698D02*
X160582018Y-86131555D01*
X160582018Y-86131555D02*
X160641542Y-86012508D01*
X160641542Y-86012508D02*
X160701065Y-85952984D01*
X160701065Y-85952984D02*
X160820113Y-85893460D01*
X160820113Y-85893460D02*
X160998684Y-85893460D01*
X160998684Y-85893460D02*
X161117732Y-85952984D01*
X161117732Y-85952984D02*
X161177256Y-86012508D01*
X161177256Y-86012508D02*
X161236780Y-86131555D01*
X161236780Y-86131555D02*
X161236780Y-86488698D01*
X161236780Y-86488698D02*
X161177256Y-86607746D01*
X161177256Y-86607746D02*
X161117732Y-86667270D01*
X161117732Y-86667270D02*
X160998684Y-86726793D01*
X160998684Y-86726793D02*
X160820113Y-86726793D01*
X129510588Y-88739223D02*
X129093922Y-88143985D01*
X128796303Y-88739223D02*
X128796303Y-87489223D01*
X128796303Y-87489223D02*
X129272493Y-87489223D01*
X129272493Y-87489223D02*
X129391541Y-87548747D01*
X129391541Y-87548747D02*
X129451064Y-87608271D01*
X129451064Y-87608271D02*
X129510588Y-87727319D01*
X129510588Y-87727319D02*
X129510588Y-87905890D01*
X129510588Y-87905890D02*
X129451064Y-88024938D01*
X129451064Y-88024938D02*
X129391541Y-88084461D01*
X129391541Y-88084461D02*
X129272493Y-88143985D01*
X129272493Y-88143985D02*
X128796303Y-88143985D01*
X130046303Y-88739223D02*
X130046303Y-87905890D01*
X130046303Y-87489223D02*
X129986779Y-87548747D01*
X129986779Y-87548747D02*
X130046303Y-87608271D01*
X130046303Y-87608271D02*
X130105826Y-87548747D01*
X130105826Y-87548747D02*
X130046303Y-87489223D01*
X130046303Y-87489223D02*
X130046303Y-87608271D01*
X130820112Y-88739223D02*
X130701064Y-88679700D01*
X130701064Y-88679700D02*
X130641541Y-88560652D01*
X130641541Y-88560652D02*
X130641541Y-87489223D01*
X131772493Y-88679700D02*
X131653445Y-88739223D01*
X131653445Y-88739223D02*
X131415350Y-88739223D01*
X131415350Y-88739223D02*
X131296303Y-88679700D01*
X131296303Y-88679700D02*
X131236779Y-88560652D01*
X131236779Y-88560652D02*
X131236779Y-88084461D01*
X131236779Y-88084461D02*
X131296303Y-87965414D01*
X131296303Y-87965414D02*
X131415350Y-87905890D01*
X131415350Y-87905890D02*
X131653445Y-87905890D01*
X131653445Y-87905890D02*
X131772493Y-87965414D01*
X131772493Y-87965414D02*
X131832017Y-88084461D01*
X131832017Y-88084461D02*
X131832017Y-88203509D01*
X131832017Y-88203509D02*
X131236779Y-88322557D01*
X132248684Y-87905890D02*
X132546303Y-88739223D01*
X132843922Y-87905890D02*
X132546303Y-88739223D01*
X132546303Y-88739223D02*
X132427255Y-89036842D01*
X132427255Y-89036842D02*
X132367732Y-89096366D01*
X132367732Y-89096366D02*
X132248684Y-89155890D01*
X134986779Y-88739223D02*
X134570113Y-88143985D01*
X134272494Y-88739223D02*
X134272494Y-87489223D01*
X134272494Y-87489223D02*
X134748684Y-87489223D01*
X134748684Y-87489223D02*
X134867732Y-87548747D01*
X134867732Y-87548747D02*
X134927255Y-87608271D01*
X134927255Y-87608271D02*
X134986779Y-87727319D01*
X134986779Y-87727319D02*
X134986779Y-87905890D01*
X134986779Y-87905890D02*
X134927255Y-88024938D01*
X134927255Y-88024938D02*
X134867732Y-88084461D01*
X134867732Y-88084461D02*
X134748684Y-88143985D01*
X134748684Y-88143985D02*
X134272494Y-88143985D01*
X136058208Y-88739223D02*
X136058208Y-88084461D01*
X136058208Y-88084461D02*
X135998684Y-87965414D01*
X135998684Y-87965414D02*
X135879636Y-87905890D01*
X135879636Y-87905890D02*
X135641541Y-87905890D01*
X135641541Y-87905890D02*
X135522494Y-87965414D01*
X136058208Y-88679700D02*
X135939160Y-88739223D01*
X135939160Y-88739223D02*
X135641541Y-88739223D01*
X135641541Y-88739223D02*
X135522494Y-88679700D01*
X135522494Y-88679700D02*
X135462970Y-88560652D01*
X135462970Y-88560652D02*
X135462970Y-88441604D01*
X135462970Y-88441604D02*
X135522494Y-88322557D01*
X135522494Y-88322557D02*
X135641541Y-88263033D01*
X135641541Y-88263033D02*
X135939160Y-88263033D01*
X135939160Y-88263033D02*
X136058208Y-88203509D01*
X136653446Y-88739223D02*
X136653446Y-87905890D01*
X136653446Y-87489223D02*
X136593922Y-87548747D01*
X136593922Y-87548747D02*
X136653446Y-87608271D01*
X136653446Y-87608271D02*
X136712969Y-87548747D01*
X136712969Y-87548747D02*
X136653446Y-87489223D01*
X136653446Y-87489223D02*
X136653446Y-87608271D01*
X137248684Y-87905890D02*
X137248684Y-88739223D01*
X137248684Y-88024938D02*
X137308207Y-87965414D01*
X137308207Y-87965414D02*
X137427255Y-87905890D01*
X137427255Y-87905890D02*
X137605826Y-87905890D01*
X137605826Y-87905890D02*
X137724874Y-87965414D01*
X137724874Y-87965414D02*
X137784398Y-88084461D01*
X137784398Y-88084461D02*
X137784398Y-88739223D01*
X138855826Y-88679700D02*
X138736778Y-88739223D01*
X138736778Y-88739223D02*
X138498683Y-88739223D01*
X138498683Y-88739223D02*
X138379636Y-88679700D01*
X138379636Y-88679700D02*
X138320112Y-88560652D01*
X138320112Y-88560652D02*
X138320112Y-88084461D01*
X138320112Y-88084461D02*
X138379636Y-87965414D01*
X138379636Y-87965414D02*
X138498683Y-87905890D01*
X138498683Y-87905890D02*
X138736778Y-87905890D01*
X138736778Y-87905890D02*
X138855826Y-87965414D01*
X138855826Y-87965414D02*
X138915350Y-88084461D01*
X138915350Y-88084461D02*
X138915350Y-88203509D01*
X138915350Y-88203509D02*
X138320112Y-88322557D01*
X139332017Y-87905890D02*
X139629636Y-88739223D01*
X139927255Y-87905890D02*
X139629636Y-88739223D01*
X139629636Y-88739223D02*
X139510588Y-89036842D01*
X139510588Y-89036842D02*
X139451065Y-89096366D01*
X139451065Y-89096366D02*
X139332017Y-89155890D01*
X141296303Y-87608271D02*
X141355827Y-87548747D01*
X141355827Y-87548747D02*
X141474874Y-87489223D01*
X141474874Y-87489223D02*
X141772493Y-87489223D01*
X141772493Y-87489223D02*
X141891541Y-87548747D01*
X141891541Y-87548747D02*
X141951065Y-87608271D01*
X141951065Y-87608271D02*
X142010588Y-87727319D01*
X142010588Y-87727319D02*
X142010588Y-87846366D01*
X142010588Y-87846366D02*
X141951065Y-88024938D01*
X141951065Y-88024938D02*
X141236779Y-88739223D01*
X141236779Y-88739223D02*
X142010588Y-88739223D01*
X142784398Y-87489223D02*
X142903445Y-87489223D01*
X142903445Y-87489223D02*
X143022493Y-87548747D01*
X143022493Y-87548747D02*
X143082017Y-87608271D01*
X143082017Y-87608271D02*
X143141541Y-87727319D01*
X143141541Y-87727319D02*
X143201064Y-87965414D01*
X143201064Y-87965414D02*
X143201064Y-88263033D01*
X143201064Y-88263033D02*
X143141541Y-88501128D01*
X143141541Y-88501128D02*
X143082017Y-88620176D01*
X143082017Y-88620176D02*
X143022493Y-88679700D01*
X143022493Y-88679700D02*
X142903445Y-88739223D01*
X142903445Y-88739223D02*
X142784398Y-88739223D01*
X142784398Y-88739223D02*
X142665350Y-88679700D01*
X142665350Y-88679700D02*
X142605826Y-88620176D01*
X142605826Y-88620176D02*
X142546303Y-88501128D01*
X142546303Y-88501128D02*
X142486779Y-88263033D01*
X142486779Y-88263033D02*
X142486779Y-87965414D01*
X142486779Y-87965414D02*
X142546303Y-87727319D01*
X142546303Y-87727319D02*
X142605826Y-87608271D01*
X142605826Y-87608271D02*
X142665350Y-87548747D01*
X142665350Y-87548747D02*
X142784398Y-87489223D01*
X143677255Y-87608271D02*
X143736779Y-87548747D01*
X143736779Y-87548747D02*
X143855826Y-87489223D01*
X143855826Y-87489223D02*
X144153445Y-87489223D01*
X144153445Y-87489223D02*
X144272493Y-87548747D01*
X144272493Y-87548747D02*
X144332017Y-87608271D01*
X144332017Y-87608271D02*
X144391540Y-87727319D01*
X144391540Y-87727319D02*
X144391540Y-87846366D01*
X144391540Y-87846366D02*
X144332017Y-88024938D01*
X144332017Y-88024938D02*
X143617731Y-88739223D01*
X143617731Y-88739223D02*
X144391540Y-88739223D01*
X145462969Y-87905890D02*
X145462969Y-88739223D01*
X145165350Y-87429700D02*
X144867731Y-88322557D01*
X144867731Y-88322557D02*
X145641540Y-88322557D01*
X174441667Y-110011104D02*
X174403571Y-110049200D01*
X174403571Y-110049200D02*
X174289286Y-110087295D01*
X174289286Y-110087295D02*
X174213095Y-110087295D01*
X174213095Y-110087295D02*
X174098809Y-110049200D01*
X174098809Y-110049200D02*
X174022619Y-109973009D01*
X174022619Y-109973009D02*
X173984524Y-109896819D01*
X173984524Y-109896819D02*
X173946428Y-109744438D01*
X173946428Y-109744438D02*
X173946428Y-109630152D01*
X173946428Y-109630152D02*
X173984524Y-109477771D01*
X173984524Y-109477771D02*
X174022619Y-109401580D01*
X174022619Y-109401580D02*
X174098809Y-109325390D01*
X174098809Y-109325390D02*
X174213095Y-109287295D01*
X174213095Y-109287295D02*
X174289286Y-109287295D01*
X174289286Y-109287295D02*
X174403571Y-109325390D01*
X174403571Y-109325390D02*
X174441667Y-109363485D01*
X174708333Y-109287295D02*
X175241667Y-109287295D01*
X175241667Y-109287295D02*
X174898809Y-110087295D01*
X146068104Y-93064285D02*
X146106200Y-93102381D01*
X146106200Y-93102381D02*
X146144295Y-93216666D01*
X146144295Y-93216666D02*
X146144295Y-93292857D01*
X146144295Y-93292857D02*
X146106200Y-93407143D01*
X146106200Y-93407143D02*
X146030009Y-93483333D01*
X146030009Y-93483333D02*
X145953819Y-93521428D01*
X145953819Y-93521428D02*
X145801438Y-93559524D01*
X145801438Y-93559524D02*
X145687152Y-93559524D01*
X145687152Y-93559524D02*
X145534771Y-93521428D01*
X145534771Y-93521428D02*
X145458580Y-93483333D01*
X145458580Y-93483333D02*
X145382390Y-93407143D01*
X145382390Y-93407143D02*
X145344295Y-93292857D01*
X145344295Y-93292857D02*
X145344295Y-93216666D01*
X145344295Y-93216666D02*
X145382390Y-93102381D01*
X145382390Y-93102381D02*
X145420485Y-93064285D01*
X145420485Y-92759524D02*
X145382390Y-92721428D01*
X145382390Y-92721428D02*
X145344295Y-92645238D01*
X145344295Y-92645238D02*
X145344295Y-92454762D01*
X145344295Y-92454762D02*
X145382390Y-92378571D01*
X145382390Y-92378571D02*
X145420485Y-92340476D01*
X145420485Y-92340476D02*
X145496676Y-92302381D01*
X145496676Y-92302381D02*
X145572866Y-92302381D01*
X145572866Y-92302381D02*
X145687152Y-92340476D01*
X145687152Y-92340476D02*
X146144295Y-92797619D01*
X146144295Y-92797619D02*
X146144295Y-92302381D01*
X145420485Y-91997619D02*
X145382390Y-91959523D01*
X145382390Y-91959523D02*
X145344295Y-91883333D01*
X145344295Y-91883333D02*
X145344295Y-91692857D01*
X145344295Y-91692857D02*
X145382390Y-91616666D01*
X145382390Y-91616666D02*
X145420485Y-91578571D01*
X145420485Y-91578571D02*
X145496676Y-91540476D01*
X145496676Y-91540476D02*
X145572866Y-91540476D01*
X145572866Y-91540476D02*
X145687152Y-91578571D01*
X145687152Y-91578571D02*
X146144295Y-92035714D01*
X146144295Y-92035714D02*
X146144295Y-91540476D01*
X144785714Y-109393104D02*
X144747618Y-109431200D01*
X144747618Y-109431200D02*
X144633333Y-109469295D01*
X144633333Y-109469295D02*
X144557142Y-109469295D01*
X144557142Y-109469295D02*
X144442856Y-109431200D01*
X144442856Y-109431200D02*
X144366666Y-109355009D01*
X144366666Y-109355009D02*
X144328571Y-109278819D01*
X144328571Y-109278819D02*
X144290475Y-109126438D01*
X144290475Y-109126438D02*
X144290475Y-109012152D01*
X144290475Y-109012152D02*
X144328571Y-108859771D01*
X144328571Y-108859771D02*
X144366666Y-108783580D01*
X144366666Y-108783580D02*
X144442856Y-108707390D01*
X144442856Y-108707390D02*
X144557142Y-108669295D01*
X144557142Y-108669295D02*
X144633333Y-108669295D01*
X144633333Y-108669295D02*
X144747618Y-108707390D01*
X144747618Y-108707390D02*
X144785714Y-108745485D01*
X145547618Y-109469295D02*
X145090475Y-109469295D01*
X145319047Y-109469295D02*
X145319047Y-108669295D01*
X145319047Y-108669295D02*
X145242856Y-108783580D01*
X145242856Y-108783580D02*
X145166666Y-108859771D01*
X145166666Y-108859771D02*
X145090475Y-108897866D01*
X146309523Y-109469295D02*
X145852380Y-109469295D01*
X146080952Y-109469295D02*
X146080952Y-108669295D01*
X146080952Y-108669295D02*
X146004761Y-108783580D01*
X146004761Y-108783580D02*
X145928571Y-108859771D01*
X145928571Y-108859771D02*
X145852380Y-108897866D01*
X176186667Y-86642295D02*
X175920000Y-86261342D01*
X175729524Y-86642295D02*
X175729524Y-85842295D01*
X175729524Y-85842295D02*
X176034286Y-85842295D01*
X176034286Y-85842295D02*
X176110476Y-85880390D01*
X176110476Y-85880390D02*
X176148571Y-85918485D01*
X176148571Y-85918485D02*
X176186667Y-85994676D01*
X176186667Y-85994676D02*
X176186667Y-86108961D01*
X176186667Y-86108961D02*
X176148571Y-86185152D01*
X176148571Y-86185152D02*
X176110476Y-86223247D01*
X176110476Y-86223247D02*
X176034286Y-86261342D01*
X176034286Y-86261342D02*
X175729524Y-86261342D01*
X176491428Y-85918485D02*
X176529524Y-85880390D01*
X176529524Y-85880390D02*
X176605714Y-85842295D01*
X176605714Y-85842295D02*
X176796190Y-85842295D01*
X176796190Y-85842295D02*
X176872381Y-85880390D01*
X176872381Y-85880390D02*
X176910476Y-85918485D01*
X176910476Y-85918485D02*
X176948571Y-85994676D01*
X176948571Y-85994676D02*
X176948571Y-86070866D01*
X176948571Y-86070866D02*
X176910476Y-86185152D01*
X176910476Y-86185152D02*
X176453333Y-86642295D01*
X176453333Y-86642295D02*
X176948571Y-86642295D01*
X145389160Y-101494295D02*
X145389160Y-102141914D01*
X145389160Y-102141914D02*
X145427255Y-102218104D01*
X145427255Y-102218104D02*
X145465350Y-102256200D01*
X145465350Y-102256200D02*
X145541541Y-102294295D01*
X145541541Y-102294295D02*
X145693922Y-102294295D01*
X145693922Y-102294295D02*
X145770112Y-102256200D01*
X145770112Y-102256200D02*
X145808207Y-102218104D01*
X145808207Y-102218104D02*
X145846303Y-102141914D01*
X145846303Y-102141914D02*
X145846303Y-101494295D01*
X146608207Y-101494295D02*
X146227255Y-101494295D01*
X146227255Y-101494295D02*
X146189159Y-101875247D01*
X146189159Y-101875247D02*
X146227255Y-101837152D01*
X146227255Y-101837152D02*
X146303445Y-101799057D01*
X146303445Y-101799057D02*
X146493921Y-101799057D01*
X146493921Y-101799057D02*
X146570112Y-101837152D01*
X146570112Y-101837152D02*
X146608207Y-101875247D01*
X146608207Y-101875247D02*
X146646302Y-101951438D01*
X146646302Y-101951438D02*
X146646302Y-102141914D01*
X146646302Y-102141914D02*
X146608207Y-102218104D01*
X146608207Y-102218104D02*
X146570112Y-102256200D01*
X146570112Y-102256200D02*
X146493921Y-102294295D01*
X146493921Y-102294295D02*
X146303445Y-102294295D01*
X146303445Y-102294295D02*
X146227255Y-102256200D01*
X146227255Y-102256200D02*
X146189159Y-102218104D01*
X176206667Y-88352295D02*
X175940000Y-87971342D01*
X175749524Y-88352295D02*
X175749524Y-87552295D01*
X175749524Y-87552295D02*
X176054286Y-87552295D01*
X176054286Y-87552295D02*
X176130476Y-87590390D01*
X176130476Y-87590390D02*
X176168571Y-87628485D01*
X176168571Y-87628485D02*
X176206667Y-87704676D01*
X176206667Y-87704676D02*
X176206667Y-87818961D01*
X176206667Y-87818961D02*
X176168571Y-87895152D01*
X176168571Y-87895152D02*
X176130476Y-87933247D01*
X176130476Y-87933247D02*
X176054286Y-87971342D01*
X176054286Y-87971342D02*
X175749524Y-87971342D01*
X176968571Y-88352295D02*
X176511428Y-88352295D01*
X176740000Y-88352295D02*
X176740000Y-87552295D01*
X176740000Y-87552295D02*
X176663809Y-87666580D01*
X176663809Y-87666580D02*
X176587619Y-87742771D01*
X176587619Y-87742771D02*
X176511428Y-87780866D01*
X150518104Y-102939285D02*
X150556200Y-102977381D01*
X150556200Y-102977381D02*
X150594295Y-103091666D01*
X150594295Y-103091666D02*
X150594295Y-103167857D01*
X150594295Y-103167857D02*
X150556200Y-103282143D01*
X150556200Y-103282143D02*
X150480009Y-103358333D01*
X150480009Y-103358333D02*
X150403819Y-103396428D01*
X150403819Y-103396428D02*
X150251438Y-103434524D01*
X150251438Y-103434524D02*
X150137152Y-103434524D01*
X150137152Y-103434524D02*
X149984771Y-103396428D01*
X149984771Y-103396428D02*
X149908580Y-103358333D01*
X149908580Y-103358333D02*
X149832390Y-103282143D01*
X149832390Y-103282143D02*
X149794295Y-103167857D01*
X149794295Y-103167857D02*
X149794295Y-103091666D01*
X149794295Y-103091666D02*
X149832390Y-102977381D01*
X149832390Y-102977381D02*
X149870485Y-102939285D01*
X150594295Y-102177381D02*
X150594295Y-102634524D01*
X150594295Y-102405952D02*
X149794295Y-102405952D01*
X149794295Y-102405952D02*
X149908580Y-102482143D01*
X149908580Y-102482143D02*
X149984771Y-102558333D01*
X149984771Y-102558333D02*
X150022866Y-102634524D01*
X149794295Y-101910714D02*
X149794295Y-101415476D01*
X149794295Y-101415476D02*
X150099057Y-101682142D01*
X150099057Y-101682142D02*
X150099057Y-101567857D01*
X150099057Y-101567857D02*
X150137152Y-101491666D01*
X150137152Y-101491666D02*
X150175247Y-101453571D01*
X150175247Y-101453571D02*
X150251438Y-101415476D01*
X150251438Y-101415476D02*
X150441914Y-101415476D01*
X150441914Y-101415476D02*
X150518104Y-101453571D01*
X150518104Y-101453571D02*
X150556200Y-101491666D01*
X150556200Y-101491666D02*
X150594295Y-101567857D01*
X150594295Y-101567857D02*
X150594295Y-101796428D01*
X150594295Y-101796428D02*
X150556200Y-101872619D01*
X150556200Y-101872619D02*
X150518104Y-101910714D01*
X178619295Y-110407268D02*
X179190723Y-110407268D01*
X179190723Y-110407268D02*
X179305009Y-110445363D01*
X179305009Y-110445363D02*
X179381200Y-110521554D01*
X179381200Y-110521554D02*
X179419295Y-110635839D01*
X179419295Y-110635839D02*
X179419295Y-110712030D01*
X178619295Y-110102506D02*
X178619295Y-109607268D01*
X178619295Y-109607268D02*
X178924057Y-109873934D01*
X178924057Y-109873934D02*
X178924057Y-109759649D01*
X178924057Y-109759649D02*
X178962152Y-109683458D01*
X178962152Y-109683458D02*
X179000247Y-109645363D01*
X179000247Y-109645363D02*
X179076438Y-109607268D01*
X179076438Y-109607268D02*
X179266914Y-109607268D01*
X179266914Y-109607268D02*
X179343104Y-109645363D01*
X179343104Y-109645363D02*
X179381200Y-109683458D01*
X179381200Y-109683458D02*
X179419295Y-109759649D01*
X179419295Y-109759649D02*
X179419295Y-109988220D01*
X179419295Y-109988220D02*
X179381200Y-110064411D01*
X179381200Y-110064411D02*
X179343104Y-110102506D01*
X133709524Y-102644295D02*
X133709524Y-101844295D01*
X133709524Y-101844295D02*
X133900000Y-101844295D01*
X133900000Y-101844295D02*
X134014286Y-101882390D01*
X134014286Y-101882390D02*
X134090476Y-101958580D01*
X134090476Y-101958580D02*
X134128571Y-102034771D01*
X134128571Y-102034771D02*
X134166667Y-102187152D01*
X134166667Y-102187152D02*
X134166667Y-102301438D01*
X134166667Y-102301438D02*
X134128571Y-102453819D01*
X134128571Y-102453819D02*
X134090476Y-102530009D01*
X134090476Y-102530009D02*
X134014286Y-102606200D01*
X134014286Y-102606200D02*
X133900000Y-102644295D01*
X133900000Y-102644295D02*
X133709524Y-102644295D01*
X134928571Y-102644295D02*
X134471428Y-102644295D01*
X134700000Y-102644295D02*
X134700000Y-101844295D01*
X134700000Y-101844295D02*
X134623809Y-101958580D01*
X134623809Y-101958580D02*
X134547619Y-102034771D01*
X134547619Y-102034771D02*
X134471428Y-102072866D01*
X169166666Y-99719295D02*
X168785714Y-99719295D01*
X168785714Y-99719295D02*
X168785714Y-98919295D01*
X169852380Y-99719295D02*
X169395237Y-99719295D01*
X169623809Y-99719295D02*
X169623809Y-98919295D01*
X169623809Y-98919295D02*
X169547618Y-99033580D01*
X169547618Y-99033580D02*
X169471428Y-99109771D01*
X169471428Y-99109771D02*
X169395237Y-99147866D01*
X169441667Y-78536104D02*
X169403571Y-78574200D01*
X169403571Y-78574200D02*
X169289286Y-78612295D01*
X169289286Y-78612295D02*
X169213095Y-78612295D01*
X169213095Y-78612295D02*
X169098809Y-78574200D01*
X169098809Y-78574200D02*
X169022619Y-78498009D01*
X169022619Y-78498009D02*
X168984524Y-78421819D01*
X168984524Y-78421819D02*
X168946428Y-78269438D01*
X168946428Y-78269438D02*
X168946428Y-78155152D01*
X168946428Y-78155152D02*
X168984524Y-78002771D01*
X168984524Y-78002771D02*
X169022619Y-77926580D01*
X169022619Y-77926580D02*
X169098809Y-77850390D01*
X169098809Y-77850390D02*
X169213095Y-77812295D01*
X169213095Y-77812295D02*
X169289286Y-77812295D01*
X169289286Y-77812295D02*
X169403571Y-77850390D01*
X169403571Y-77850390D02*
X169441667Y-77888485D01*
X170203571Y-78612295D02*
X169746428Y-78612295D01*
X169975000Y-78612295D02*
X169975000Y-77812295D01*
X169975000Y-77812295D02*
X169898809Y-77926580D01*
X169898809Y-77926580D02*
X169822619Y-78002771D01*
X169822619Y-78002771D02*
X169746428Y-78040866D01*
D11*
X156692857Y-96946331D02*
X156692857Y-97432045D01*
X156692857Y-97432045D02*
X156721428Y-97489188D01*
X156721428Y-97489188D02*
X156750000Y-97517760D01*
X156750000Y-97517760D02*
X156807142Y-97546331D01*
X156807142Y-97546331D02*
X156921428Y-97546331D01*
X156921428Y-97546331D02*
X156978571Y-97517760D01*
X156978571Y-97517760D02*
X157007142Y-97489188D01*
X157007142Y-97489188D02*
X157035714Y-97432045D01*
X157035714Y-97432045D02*
X157035714Y-96946331D01*
X157264285Y-96946331D02*
X157635713Y-96946331D01*
X157635713Y-96946331D02*
X157435713Y-97174902D01*
X157435713Y-97174902D02*
X157521428Y-97174902D01*
X157521428Y-97174902D02*
X157578571Y-97203474D01*
X157578571Y-97203474D02*
X157607142Y-97232045D01*
X157607142Y-97232045D02*
X157635713Y-97289188D01*
X157635713Y-97289188D02*
X157635713Y-97432045D01*
X157635713Y-97432045D02*
X157607142Y-97489188D01*
X157607142Y-97489188D02*
X157578571Y-97517760D01*
X157578571Y-97517760D02*
X157521428Y-97546331D01*
X157521428Y-97546331D02*
X157349999Y-97546331D01*
X157349999Y-97546331D02*
X157292856Y-97517760D01*
X157292856Y-97517760D02*
X157264285Y-97489188D01*
D10*
X148769295Y-102908332D02*
X148388342Y-103174999D01*
X148769295Y-103365475D02*
X147969295Y-103365475D01*
X147969295Y-103365475D02*
X147969295Y-103060713D01*
X147969295Y-103060713D02*
X148007390Y-102984523D01*
X148007390Y-102984523D02*
X148045485Y-102946428D01*
X148045485Y-102946428D02*
X148121676Y-102908332D01*
X148121676Y-102908332D02*
X148235961Y-102908332D01*
X148235961Y-102908332D02*
X148312152Y-102946428D01*
X148312152Y-102946428D02*
X148350247Y-102984523D01*
X148350247Y-102984523D02*
X148388342Y-103060713D01*
X148388342Y-103060713D02*
X148388342Y-103365475D01*
X147969295Y-102641666D02*
X147969295Y-102108332D01*
X147969295Y-102108332D02*
X148769295Y-102451190D01*
X143094295Y-97083332D02*
X142713342Y-97349999D01*
X143094295Y-97540475D02*
X142294295Y-97540475D01*
X142294295Y-97540475D02*
X142294295Y-97235713D01*
X142294295Y-97235713D02*
X142332390Y-97159523D01*
X142332390Y-97159523D02*
X142370485Y-97121428D01*
X142370485Y-97121428D02*
X142446676Y-97083332D01*
X142446676Y-97083332D02*
X142560961Y-97083332D01*
X142560961Y-97083332D02*
X142637152Y-97121428D01*
X142637152Y-97121428D02*
X142675247Y-97159523D01*
X142675247Y-97159523D02*
X142713342Y-97235713D01*
X142713342Y-97235713D02*
X142713342Y-97540475D01*
X143094295Y-96702380D02*
X143094295Y-96549999D01*
X143094295Y-96549999D02*
X143056200Y-96473809D01*
X143056200Y-96473809D02*
X143018104Y-96435713D01*
X143018104Y-96435713D02*
X142903819Y-96359523D01*
X142903819Y-96359523D02*
X142751438Y-96321428D01*
X142751438Y-96321428D02*
X142446676Y-96321428D01*
X142446676Y-96321428D02*
X142370485Y-96359523D01*
X142370485Y-96359523D02*
X142332390Y-96397618D01*
X142332390Y-96397618D02*
X142294295Y-96473809D01*
X142294295Y-96473809D02*
X142294295Y-96626190D01*
X142294295Y-96626190D02*
X142332390Y-96702380D01*
X142332390Y-96702380D02*
X142370485Y-96740475D01*
X142370485Y-96740475D02*
X142446676Y-96778571D01*
X142446676Y-96778571D02*
X142637152Y-96778571D01*
X142637152Y-96778571D02*
X142713342Y-96740475D01*
X142713342Y-96740475D02*
X142751438Y-96702380D01*
X142751438Y-96702380D02*
X142789533Y-96626190D01*
X142789533Y-96626190D02*
X142789533Y-96473809D01*
X142789533Y-96473809D02*
X142751438Y-96397618D01*
X142751438Y-96397618D02*
X142713342Y-96359523D01*
X142713342Y-96359523D02*
X142637152Y-96321428D01*
X168416667Y-110368104D02*
X168378571Y-110406200D01*
X168378571Y-110406200D02*
X168264286Y-110444295D01*
X168264286Y-110444295D02*
X168188095Y-110444295D01*
X168188095Y-110444295D02*
X168073809Y-110406200D01*
X168073809Y-110406200D02*
X167997619Y-110330009D01*
X167997619Y-110330009D02*
X167959524Y-110253819D01*
X167959524Y-110253819D02*
X167921428Y-110101438D01*
X167921428Y-110101438D02*
X167921428Y-109987152D01*
X167921428Y-109987152D02*
X167959524Y-109834771D01*
X167959524Y-109834771D02*
X167997619Y-109758580D01*
X167997619Y-109758580D02*
X168073809Y-109682390D01*
X168073809Y-109682390D02*
X168188095Y-109644295D01*
X168188095Y-109644295D02*
X168264286Y-109644295D01*
X168264286Y-109644295D02*
X168378571Y-109682390D01*
X168378571Y-109682390D02*
X168416667Y-109720485D01*
X168797619Y-110444295D02*
X168950000Y-110444295D01*
X168950000Y-110444295D02*
X169026190Y-110406200D01*
X169026190Y-110406200D02*
X169064286Y-110368104D01*
X169064286Y-110368104D02*
X169140476Y-110253819D01*
X169140476Y-110253819D02*
X169178571Y-110101438D01*
X169178571Y-110101438D02*
X169178571Y-109796676D01*
X169178571Y-109796676D02*
X169140476Y-109720485D01*
X169140476Y-109720485D02*
X169102381Y-109682390D01*
X169102381Y-109682390D02*
X169026190Y-109644295D01*
X169026190Y-109644295D02*
X168873809Y-109644295D01*
X168873809Y-109644295D02*
X168797619Y-109682390D01*
X168797619Y-109682390D02*
X168759524Y-109720485D01*
X168759524Y-109720485D02*
X168721428Y-109796676D01*
X168721428Y-109796676D02*
X168721428Y-109987152D01*
X168721428Y-109987152D02*
X168759524Y-110063342D01*
X168759524Y-110063342D02*
X168797619Y-110101438D01*
X168797619Y-110101438D02*
X168873809Y-110139533D01*
X168873809Y-110139533D02*
X169026190Y-110139533D01*
X169026190Y-110139533D02*
X169102381Y-110101438D01*
X169102381Y-110101438D02*
X169140476Y-110063342D01*
X169140476Y-110063342D02*
X169178571Y-109987152D01*
X144593104Y-97189285D02*
X144631200Y-97227381D01*
X144631200Y-97227381D02*
X144669295Y-97341666D01*
X144669295Y-97341666D02*
X144669295Y-97417857D01*
X144669295Y-97417857D02*
X144631200Y-97532143D01*
X144631200Y-97532143D02*
X144555009Y-97608333D01*
X144555009Y-97608333D02*
X144478819Y-97646428D01*
X144478819Y-97646428D02*
X144326438Y-97684524D01*
X144326438Y-97684524D02*
X144212152Y-97684524D01*
X144212152Y-97684524D02*
X144059771Y-97646428D01*
X144059771Y-97646428D02*
X143983580Y-97608333D01*
X143983580Y-97608333D02*
X143907390Y-97532143D01*
X143907390Y-97532143D02*
X143869295Y-97417857D01*
X143869295Y-97417857D02*
X143869295Y-97341666D01*
X143869295Y-97341666D02*
X143907390Y-97227381D01*
X143907390Y-97227381D02*
X143945485Y-97189285D01*
X144669295Y-96427381D02*
X144669295Y-96884524D01*
X144669295Y-96655952D02*
X143869295Y-96655952D01*
X143869295Y-96655952D02*
X143983580Y-96732143D01*
X143983580Y-96732143D02*
X144059771Y-96808333D01*
X144059771Y-96808333D02*
X144097866Y-96884524D01*
X143869295Y-95741666D02*
X143869295Y-95894047D01*
X143869295Y-95894047D02*
X143907390Y-95970238D01*
X143907390Y-95970238D02*
X143945485Y-96008333D01*
X143945485Y-96008333D02*
X144059771Y-96084523D01*
X144059771Y-96084523D02*
X144212152Y-96122619D01*
X144212152Y-96122619D02*
X144516914Y-96122619D01*
X144516914Y-96122619D02*
X144593104Y-96084523D01*
X144593104Y-96084523D02*
X144631200Y-96046428D01*
X144631200Y-96046428D02*
X144669295Y-95970238D01*
X144669295Y-95970238D02*
X144669295Y-95817857D01*
X144669295Y-95817857D02*
X144631200Y-95741666D01*
X144631200Y-95741666D02*
X144593104Y-95703571D01*
X144593104Y-95703571D02*
X144516914Y-95665476D01*
X144516914Y-95665476D02*
X144326438Y-95665476D01*
X144326438Y-95665476D02*
X144250247Y-95703571D01*
X144250247Y-95703571D02*
X144212152Y-95741666D01*
X144212152Y-95741666D02*
X144174057Y-95817857D01*
X144174057Y-95817857D02*
X144174057Y-95970238D01*
X144174057Y-95970238D02*
X144212152Y-96046428D01*
X144212152Y-96046428D02*
X144250247Y-96084523D01*
X144250247Y-96084523D02*
X144326438Y-96122619D01*
X177294295Y-111739285D02*
X176913342Y-112005952D01*
X177294295Y-112196428D02*
X176494295Y-112196428D01*
X176494295Y-112196428D02*
X176494295Y-111891666D01*
X176494295Y-111891666D02*
X176532390Y-111815476D01*
X176532390Y-111815476D02*
X176570485Y-111777381D01*
X176570485Y-111777381D02*
X176646676Y-111739285D01*
X176646676Y-111739285D02*
X176760961Y-111739285D01*
X176760961Y-111739285D02*
X176837152Y-111777381D01*
X176837152Y-111777381D02*
X176875247Y-111815476D01*
X176875247Y-111815476D02*
X176913342Y-111891666D01*
X176913342Y-111891666D02*
X176913342Y-112196428D01*
X177294295Y-110977381D02*
X177294295Y-111434524D01*
X177294295Y-111205952D02*
X176494295Y-111205952D01*
X176494295Y-111205952D02*
X176608580Y-111282143D01*
X176608580Y-111282143D02*
X176684771Y-111358333D01*
X176684771Y-111358333D02*
X176722866Y-111434524D01*
X176494295Y-110710714D02*
X176494295Y-110215476D01*
X176494295Y-110215476D02*
X176799057Y-110482142D01*
X176799057Y-110482142D02*
X176799057Y-110367857D01*
X176799057Y-110367857D02*
X176837152Y-110291666D01*
X176837152Y-110291666D02*
X176875247Y-110253571D01*
X176875247Y-110253571D02*
X176951438Y-110215476D01*
X176951438Y-110215476D02*
X177141914Y-110215476D01*
X177141914Y-110215476D02*
X177218104Y-110253571D01*
X177218104Y-110253571D02*
X177256200Y-110291666D01*
X177256200Y-110291666D02*
X177294295Y-110367857D01*
X177294295Y-110367857D02*
X177294295Y-110596428D01*
X177294295Y-110596428D02*
X177256200Y-110672619D01*
X177256200Y-110672619D02*
X177218104Y-110710714D01*
X167988342Y-107705951D02*
X168369295Y-107705951D01*
X167569295Y-107972618D02*
X167988342Y-107705951D01*
X167988342Y-107705951D02*
X167569295Y-107439285D01*
X168369295Y-106753571D02*
X168369295Y-107210714D01*
X168369295Y-106982142D02*
X167569295Y-106982142D01*
X167569295Y-106982142D02*
X167683580Y-107058333D01*
X167683580Y-107058333D02*
X167759771Y-107134523D01*
X167759771Y-107134523D02*
X167797866Y-107210714D01*
X152086104Y-93808332D02*
X152124200Y-93846428D01*
X152124200Y-93846428D02*
X152162295Y-93960713D01*
X152162295Y-93960713D02*
X152162295Y-94036904D01*
X152162295Y-94036904D02*
X152124200Y-94151190D01*
X152124200Y-94151190D02*
X152048009Y-94227380D01*
X152048009Y-94227380D02*
X151971819Y-94265475D01*
X151971819Y-94265475D02*
X151819438Y-94303571D01*
X151819438Y-94303571D02*
X151705152Y-94303571D01*
X151705152Y-94303571D02*
X151552771Y-94265475D01*
X151552771Y-94265475D02*
X151476580Y-94227380D01*
X151476580Y-94227380D02*
X151400390Y-94151190D01*
X151400390Y-94151190D02*
X151362295Y-94036904D01*
X151362295Y-94036904D02*
X151362295Y-93960713D01*
X151362295Y-93960713D02*
X151400390Y-93846428D01*
X151400390Y-93846428D02*
X151438485Y-93808332D01*
X151362295Y-93541666D02*
X151362295Y-93046428D01*
X151362295Y-93046428D02*
X151667057Y-93313094D01*
X151667057Y-93313094D02*
X151667057Y-93198809D01*
X151667057Y-93198809D02*
X151705152Y-93122618D01*
X151705152Y-93122618D02*
X151743247Y-93084523D01*
X151743247Y-93084523D02*
X151819438Y-93046428D01*
X151819438Y-93046428D02*
X152009914Y-93046428D01*
X152009914Y-93046428D02*
X152086104Y-93084523D01*
X152086104Y-93084523D02*
X152124200Y-93122618D01*
X152124200Y-93122618D02*
X152162295Y-93198809D01*
X152162295Y-93198809D02*
X152162295Y-93427380D01*
X152162295Y-93427380D02*
X152124200Y-93503571D01*
X152124200Y-93503571D02*
X152086104Y-93541666D01*
X153611104Y-93833332D02*
X153649200Y-93871428D01*
X153649200Y-93871428D02*
X153687295Y-93985713D01*
X153687295Y-93985713D02*
X153687295Y-94061904D01*
X153687295Y-94061904D02*
X153649200Y-94176190D01*
X153649200Y-94176190D02*
X153573009Y-94252380D01*
X153573009Y-94252380D02*
X153496819Y-94290475D01*
X153496819Y-94290475D02*
X153344438Y-94328571D01*
X153344438Y-94328571D02*
X153230152Y-94328571D01*
X153230152Y-94328571D02*
X153077771Y-94290475D01*
X153077771Y-94290475D02*
X153001580Y-94252380D01*
X153001580Y-94252380D02*
X152925390Y-94176190D01*
X152925390Y-94176190D02*
X152887295Y-94061904D01*
X152887295Y-94061904D02*
X152887295Y-93985713D01*
X152887295Y-93985713D02*
X152925390Y-93871428D01*
X152925390Y-93871428D02*
X152963485Y-93833332D01*
X152887295Y-93147618D02*
X152887295Y-93299999D01*
X152887295Y-93299999D02*
X152925390Y-93376190D01*
X152925390Y-93376190D02*
X152963485Y-93414285D01*
X152963485Y-93414285D02*
X153077771Y-93490475D01*
X153077771Y-93490475D02*
X153230152Y-93528571D01*
X153230152Y-93528571D02*
X153534914Y-93528571D01*
X153534914Y-93528571D02*
X153611104Y-93490475D01*
X153611104Y-93490475D02*
X153649200Y-93452380D01*
X153649200Y-93452380D02*
X153687295Y-93376190D01*
X153687295Y-93376190D02*
X153687295Y-93223809D01*
X153687295Y-93223809D02*
X153649200Y-93147618D01*
X153649200Y-93147618D02*
X153611104Y-93109523D01*
X153611104Y-93109523D02*
X153534914Y-93071428D01*
X153534914Y-93071428D02*
X153344438Y-93071428D01*
X153344438Y-93071428D02*
X153268247Y-93109523D01*
X153268247Y-93109523D02*
X153230152Y-93147618D01*
X153230152Y-93147618D02*
X153192057Y-93223809D01*
X153192057Y-93223809D02*
X153192057Y-93376190D01*
X153192057Y-93376190D02*
X153230152Y-93452380D01*
X153230152Y-93452380D02*
X153268247Y-93490475D01*
X153268247Y-93490475D02*
X153344438Y-93528571D01*
X170341667Y-103811105D02*
X170303571Y-103849201D01*
X170303571Y-103849201D02*
X170189286Y-103887296D01*
X170189286Y-103887296D02*
X170113095Y-103887296D01*
X170113095Y-103887296D02*
X169998809Y-103849201D01*
X169998809Y-103849201D02*
X169922619Y-103773010D01*
X169922619Y-103773010D02*
X169884524Y-103696820D01*
X169884524Y-103696820D02*
X169846428Y-103544439D01*
X169846428Y-103544439D02*
X169846428Y-103430153D01*
X169846428Y-103430153D02*
X169884524Y-103277772D01*
X169884524Y-103277772D02*
X169922619Y-103201581D01*
X169922619Y-103201581D02*
X169998809Y-103125391D01*
X169998809Y-103125391D02*
X170113095Y-103087296D01*
X170113095Y-103087296D02*
X170189286Y-103087296D01*
X170189286Y-103087296D02*
X170303571Y-103125391D01*
X170303571Y-103125391D02*
X170341667Y-103163486D01*
X170798809Y-103430153D02*
X170722619Y-103392058D01*
X170722619Y-103392058D02*
X170684524Y-103353962D01*
X170684524Y-103353962D02*
X170646428Y-103277772D01*
X170646428Y-103277772D02*
X170646428Y-103239677D01*
X170646428Y-103239677D02*
X170684524Y-103163486D01*
X170684524Y-103163486D02*
X170722619Y-103125391D01*
X170722619Y-103125391D02*
X170798809Y-103087296D01*
X170798809Y-103087296D02*
X170951190Y-103087296D01*
X170951190Y-103087296D02*
X171027381Y-103125391D01*
X171027381Y-103125391D02*
X171065476Y-103163486D01*
X171065476Y-103163486D02*
X171103571Y-103239677D01*
X171103571Y-103239677D02*
X171103571Y-103277772D01*
X171103571Y-103277772D02*
X171065476Y-103353962D01*
X171065476Y-103353962D02*
X171027381Y-103392058D01*
X171027381Y-103392058D02*
X170951190Y-103430153D01*
X170951190Y-103430153D02*
X170798809Y-103430153D01*
X170798809Y-103430153D02*
X170722619Y-103468248D01*
X170722619Y-103468248D02*
X170684524Y-103506343D01*
X170684524Y-103506343D02*
X170646428Y-103582534D01*
X170646428Y-103582534D02*
X170646428Y-103734915D01*
X170646428Y-103734915D02*
X170684524Y-103811105D01*
X170684524Y-103811105D02*
X170722619Y-103849201D01*
X170722619Y-103849201D02*
X170798809Y-103887296D01*
X170798809Y-103887296D02*
X170951190Y-103887296D01*
X170951190Y-103887296D02*
X171027381Y-103849201D01*
X171027381Y-103849201D02*
X171065476Y-103811105D01*
X171065476Y-103811105D02*
X171103571Y-103734915D01*
X171103571Y-103734915D02*
X171103571Y-103582534D01*
X171103571Y-103582534D02*
X171065476Y-103506343D01*
X171065476Y-103506343D02*
X171027381Y-103468248D01*
X171027381Y-103468248D02*
X170951190Y-103430153D01*
X143344295Y-102789285D02*
X142963342Y-103055952D01*
X143344295Y-103246428D02*
X142544295Y-103246428D01*
X142544295Y-103246428D02*
X142544295Y-102941666D01*
X142544295Y-102941666D02*
X142582390Y-102865476D01*
X142582390Y-102865476D02*
X142620485Y-102827381D01*
X142620485Y-102827381D02*
X142696676Y-102789285D01*
X142696676Y-102789285D02*
X142810961Y-102789285D01*
X142810961Y-102789285D02*
X142887152Y-102827381D01*
X142887152Y-102827381D02*
X142925247Y-102865476D01*
X142925247Y-102865476D02*
X142963342Y-102941666D01*
X142963342Y-102941666D02*
X142963342Y-103246428D01*
X143344295Y-102027381D02*
X143344295Y-102484524D01*
X143344295Y-102255952D02*
X142544295Y-102255952D01*
X142544295Y-102255952D02*
X142658580Y-102332143D01*
X142658580Y-102332143D02*
X142734771Y-102408333D01*
X142734771Y-102408333D02*
X142772866Y-102484524D01*
X143344295Y-101265476D02*
X143344295Y-101722619D01*
X143344295Y-101494047D02*
X142544295Y-101494047D01*
X142544295Y-101494047D02*
X142658580Y-101570238D01*
X142658580Y-101570238D02*
X142734771Y-101646428D01*
X142734771Y-101646428D02*
X142772866Y-101722619D01*
X148519295Y-109383332D02*
X148138342Y-109649999D01*
X148519295Y-109840475D02*
X147719295Y-109840475D01*
X147719295Y-109840475D02*
X147719295Y-109535713D01*
X147719295Y-109535713D02*
X147757390Y-109459523D01*
X147757390Y-109459523D02*
X147795485Y-109421428D01*
X147795485Y-109421428D02*
X147871676Y-109383332D01*
X147871676Y-109383332D02*
X147985961Y-109383332D01*
X147985961Y-109383332D02*
X148062152Y-109421428D01*
X148062152Y-109421428D02*
X148100247Y-109459523D01*
X148100247Y-109459523D02*
X148138342Y-109535713D01*
X148138342Y-109535713D02*
X148138342Y-109840475D01*
X148062152Y-108926190D02*
X148024057Y-109002380D01*
X148024057Y-109002380D02*
X147985961Y-109040475D01*
X147985961Y-109040475D02*
X147909771Y-109078571D01*
X147909771Y-109078571D02*
X147871676Y-109078571D01*
X147871676Y-109078571D02*
X147795485Y-109040475D01*
X147795485Y-109040475D02*
X147757390Y-109002380D01*
X147757390Y-109002380D02*
X147719295Y-108926190D01*
X147719295Y-108926190D02*
X147719295Y-108773809D01*
X147719295Y-108773809D02*
X147757390Y-108697618D01*
X147757390Y-108697618D02*
X147795485Y-108659523D01*
X147795485Y-108659523D02*
X147871676Y-108621428D01*
X147871676Y-108621428D02*
X147909771Y-108621428D01*
X147909771Y-108621428D02*
X147985961Y-108659523D01*
X147985961Y-108659523D02*
X148024057Y-108697618D01*
X148024057Y-108697618D02*
X148062152Y-108773809D01*
X148062152Y-108773809D02*
X148062152Y-108926190D01*
X148062152Y-108926190D02*
X148100247Y-109002380D01*
X148100247Y-109002380D02*
X148138342Y-109040475D01*
X148138342Y-109040475D02*
X148214533Y-109078571D01*
X148214533Y-109078571D02*
X148366914Y-109078571D01*
X148366914Y-109078571D02*
X148443104Y-109040475D01*
X148443104Y-109040475D02*
X148481200Y-109002380D01*
X148481200Y-109002380D02*
X148519295Y-108926190D01*
X148519295Y-108926190D02*
X148519295Y-108773809D01*
X148519295Y-108773809D02*
X148481200Y-108697618D01*
X148481200Y-108697618D02*
X148443104Y-108659523D01*
X148443104Y-108659523D02*
X148366914Y-108621428D01*
X148366914Y-108621428D02*
X148214533Y-108621428D01*
X148214533Y-108621428D02*
X148138342Y-108659523D01*
X148138342Y-108659523D02*
X148100247Y-108697618D01*
X148100247Y-108697618D02*
X148062152Y-108773809D01*
X168835714Y-102718104D02*
X168797618Y-102756200D01*
X168797618Y-102756200D02*
X168683333Y-102794295D01*
X168683333Y-102794295D02*
X168607142Y-102794295D01*
X168607142Y-102794295D02*
X168492856Y-102756200D01*
X168492856Y-102756200D02*
X168416666Y-102680009D01*
X168416666Y-102680009D02*
X168378571Y-102603819D01*
X168378571Y-102603819D02*
X168340475Y-102451438D01*
X168340475Y-102451438D02*
X168340475Y-102337152D01*
X168340475Y-102337152D02*
X168378571Y-102184771D01*
X168378571Y-102184771D02*
X168416666Y-102108580D01*
X168416666Y-102108580D02*
X168492856Y-102032390D01*
X168492856Y-102032390D02*
X168607142Y-101994295D01*
X168607142Y-101994295D02*
X168683333Y-101994295D01*
X168683333Y-101994295D02*
X168797618Y-102032390D01*
X168797618Y-102032390D02*
X168835714Y-102070485D01*
X169597618Y-102794295D02*
X169140475Y-102794295D01*
X169369047Y-102794295D02*
X169369047Y-101994295D01*
X169369047Y-101994295D02*
X169292856Y-102108580D01*
X169292856Y-102108580D02*
X169216666Y-102184771D01*
X169216666Y-102184771D02*
X169140475Y-102222866D01*
X170054761Y-102337152D02*
X169978571Y-102299057D01*
X169978571Y-102299057D02*
X169940476Y-102260961D01*
X169940476Y-102260961D02*
X169902380Y-102184771D01*
X169902380Y-102184771D02*
X169902380Y-102146676D01*
X169902380Y-102146676D02*
X169940476Y-102070485D01*
X169940476Y-102070485D02*
X169978571Y-102032390D01*
X169978571Y-102032390D02*
X170054761Y-101994295D01*
X170054761Y-101994295D02*
X170207142Y-101994295D01*
X170207142Y-101994295D02*
X170283333Y-102032390D01*
X170283333Y-102032390D02*
X170321428Y-102070485D01*
X170321428Y-102070485D02*
X170359523Y-102146676D01*
X170359523Y-102146676D02*
X170359523Y-102184771D01*
X170359523Y-102184771D02*
X170321428Y-102260961D01*
X170321428Y-102260961D02*
X170283333Y-102299057D01*
X170283333Y-102299057D02*
X170207142Y-102337152D01*
X170207142Y-102337152D02*
X170054761Y-102337152D01*
X170054761Y-102337152D02*
X169978571Y-102375247D01*
X169978571Y-102375247D02*
X169940476Y-102413342D01*
X169940476Y-102413342D02*
X169902380Y-102489533D01*
X169902380Y-102489533D02*
X169902380Y-102641914D01*
X169902380Y-102641914D02*
X169940476Y-102718104D01*
X169940476Y-102718104D02*
X169978571Y-102756200D01*
X169978571Y-102756200D02*
X170054761Y-102794295D01*
X170054761Y-102794295D02*
X170207142Y-102794295D01*
X170207142Y-102794295D02*
X170283333Y-102756200D01*
X170283333Y-102756200D02*
X170321428Y-102718104D01*
X170321428Y-102718104D02*
X170359523Y-102641914D01*
X170359523Y-102641914D02*
X170359523Y-102489533D01*
X170359523Y-102489533D02*
X170321428Y-102413342D01*
X170321428Y-102413342D02*
X170283333Y-102375247D01*
X170283333Y-102375247D02*
X170207142Y-102337152D01*
X141444295Y-97270238D02*
X141444295Y-97651190D01*
X141444295Y-97651190D02*
X140644295Y-97651190D01*
X141025247Y-97003571D02*
X141025247Y-96736905D01*
X141444295Y-96622619D02*
X141444295Y-97003571D01*
X141444295Y-97003571D02*
X140644295Y-97003571D01*
X140644295Y-97003571D02*
X140644295Y-96622619D01*
X141444295Y-96279761D02*
X140644295Y-96279761D01*
X140644295Y-96279761D02*
X140644295Y-96089285D01*
X140644295Y-96089285D02*
X140682390Y-95974999D01*
X140682390Y-95974999D02*
X140758580Y-95898809D01*
X140758580Y-95898809D02*
X140834771Y-95860714D01*
X140834771Y-95860714D02*
X140987152Y-95822618D01*
X140987152Y-95822618D02*
X141101438Y-95822618D01*
X141101438Y-95822618D02*
X141253819Y-95860714D01*
X141253819Y-95860714D02*
X141330009Y-95898809D01*
X141330009Y-95898809D02*
X141406200Y-95974999D01*
X141406200Y-95974999D02*
X141444295Y-96089285D01*
X141444295Y-96089285D02*
X141444295Y-96279761D01*
X140910961Y-95136904D02*
X141444295Y-95136904D01*
X140606200Y-95327380D02*
X141177628Y-95517857D01*
X141177628Y-95517857D02*
X141177628Y-95022618D01*
X162065476Y-109919295D02*
X162065476Y-110566914D01*
X162065476Y-110566914D02*
X162103571Y-110643104D01*
X162103571Y-110643104D02*
X162141666Y-110681200D01*
X162141666Y-110681200D02*
X162217857Y-110719295D01*
X162217857Y-110719295D02*
X162370238Y-110719295D01*
X162370238Y-110719295D02*
X162446428Y-110681200D01*
X162446428Y-110681200D02*
X162484523Y-110643104D01*
X162484523Y-110643104D02*
X162522619Y-110566914D01*
X162522619Y-110566914D02*
X162522619Y-109919295D01*
X163246428Y-109919295D02*
X163094047Y-109919295D01*
X163094047Y-109919295D02*
X163017856Y-109957390D01*
X163017856Y-109957390D02*
X162979761Y-109995485D01*
X162979761Y-109995485D02*
X162903571Y-110109771D01*
X162903571Y-110109771D02*
X162865475Y-110262152D01*
X162865475Y-110262152D02*
X162865475Y-110566914D01*
X162865475Y-110566914D02*
X162903571Y-110643104D01*
X162903571Y-110643104D02*
X162941666Y-110681200D01*
X162941666Y-110681200D02*
X163017856Y-110719295D01*
X163017856Y-110719295D02*
X163170237Y-110719295D01*
X163170237Y-110719295D02*
X163246428Y-110681200D01*
X163246428Y-110681200D02*
X163284523Y-110643104D01*
X163284523Y-110643104D02*
X163322618Y-110566914D01*
X163322618Y-110566914D02*
X163322618Y-110376438D01*
X163322618Y-110376438D02*
X163284523Y-110300247D01*
X163284523Y-110300247D02*
X163246428Y-110262152D01*
X163246428Y-110262152D02*
X163170237Y-110224057D01*
X163170237Y-110224057D02*
X163017856Y-110224057D01*
X163017856Y-110224057D02*
X162941666Y-110262152D01*
X162941666Y-110262152D02*
X162903571Y-110300247D01*
X162903571Y-110300247D02*
X162865475Y-110376438D01*
X168435714Y-105093104D02*
X168397618Y-105131200D01*
X168397618Y-105131200D02*
X168283333Y-105169295D01*
X168283333Y-105169295D02*
X168207142Y-105169295D01*
X168207142Y-105169295D02*
X168092856Y-105131200D01*
X168092856Y-105131200D02*
X168016666Y-105055009D01*
X168016666Y-105055009D02*
X167978571Y-104978819D01*
X167978571Y-104978819D02*
X167940475Y-104826438D01*
X167940475Y-104826438D02*
X167940475Y-104712152D01*
X167940475Y-104712152D02*
X167978571Y-104559771D01*
X167978571Y-104559771D02*
X168016666Y-104483580D01*
X168016666Y-104483580D02*
X168092856Y-104407390D01*
X168092856Y-104407390D02*
X168207142Y-104369295D01*
X168207142Y-104369295D02*
X168283333Y-104369295D01*
X168283333Y-104369295D02*
X168397618Y-104407390D01*
X168397618Y-104407390D02*
X168435714Y-104445485D01*
X169197618Y-105169295D02*
X168740475Y-105169295D01*
X168969047Y-105169295D02*
X168969047Y-104369295D01*
X168969047Y-104369295D02*
X168892856Y-104483580D01*
X168892856Y-104483580D02*
X168816666Y-104559771D01*
X168816666Y-104559771D02*
X168740475Y-104597866D01*
X169692857Y-104369295D02*
X169769047Y-104369295D01*
X169769047Y-104369295D02*
X169845238Y-104407390D01*
X169845238Y-104407390D02*
X169883333Y-104445485D01*
X169883333Y-104445485D02*
X169921428Y-104521676D01*
X169921428Y-104521676D02*
X169959523Y-104674057D01*
X169959523Y-104674057D02*
X169959523Y-104864533D01*
X169959523Y-104864533D02*
X169921428Y-105016914D01*
X169921428Y-105016914D02*
X169883333Y-105093104D01*
X169883333Y-105093104D02*
X169845238Y-105131200D01*
X169845238Y-105131200D02*
X169769047Y-105169295D01*
X169769047Y-105169295D02*
X169692857Y-105169295D01*
X169692857Y-105169295D02*
X169616666Y-105131200D01*
X169616666Y-105131200D02*
X169578571Y-105093104D01*
X169578571Y-105093104D02*
X169540476Y-105016914D01*
X169540476Y-105016914D02*
X169502380Y-104864533D01*
X169502380Y-104864533D02*
X169502380Y-104674057D01*
X169502380Y-104674057D02*
X169540476Y-104521676D01*
X169540476Y-104521676D02*
X169578571Y-104445485D01*
X169578571Y-104445485D02*
X169616666Y-104407390D01*
X169616666Y-104407390D02*
X169692857Y-104369295D01*
X154961104Y-89943332D02*
X154999200Y-89981428D01*
X154999200Y-89981428D02*
X155037295Y-90095713D01*
X155037295Y-90095713D02*
X155037295Y-90171904D01*
X155037295Y-90171904D02*
X154999200Y-90286190D01*
X154999200Y-90286190D02*
X154923009Y-90362380D01*
X154923009Y-90362380D02*
X154846819Y-90400475D01*
X154846819Y-90400475D02*
X154694438Y-90438571D01*
X154694438Y-90438571D02*
X154580152Y-90438571D01*
X154580152Y-90438571D02*
X154427771Y-90400475D01*
X154427771Y-90400475D02*
X154351580Y-90362380D01*
X154351580Y-90362380D02*
X154275390Y-90286190D01*
X154275390Y-90286190D02*
X154237295Y-90171904D01*
X154237295Y-90171904D02*
X154237295Y-90095713D01*
X154237295Y-90095713D02*
X154275390Y-89981428D01*
X154275390Y-89981428D02*
X154313485Y-89943332D01*
X154237295Y-89219523D02*
X154237295Y-89600475D01*
X154237295Y-89600475D02*
X154618247Y-89638571D01*
X154618247Y-89638571D02*
X154580152Y-89600475D01*
X154580152Y-89600475D02*
X154542057Y-89524285D01*
X154542057Y-89524285D02*
X154542057Y-89333809D01*
X154542057Y-89333809D02*
X154580152Y-89257618D01*
X154580152Y-89257618D02*
X154618247Y-89219523D01*
X154618247Y-89219523D02*
X154694438Y-89181428D01*
X154694438Y-89181428D02*
X154884914Y-89181428D01*
X154884914Y-89181428D02*
X154961104Y-89219523D01*
X154961104Y-89219523D02*
X154999200Y-89257618D01*
X154999200Y-89257618D02*
X155037295Y-89333809D01*
X155037295Y-89333809D02*
X155037295Y-89524285D01*
X155037295Y-89524285D02*
X154999200Y-89600475D01*
X154999200Y-89600475D02*
X154961104Y-89638571D01*
X141235714Y-109243104D02*
X141197618Y-109281200D01*
X141197618Y-109281200D02*
X141083333Y-109319295D01*
X141083333Y-109319295D02*
X141007142Y-109319295D01*
X141007142Y-109319295D02*
X140892856Y-109281200D01*
X140892856Y-109281200D02*
X140816666Y-109205009D01*
X140816666Y-109205009D02*
X140778571Y-109128819D01*
X140778571Y-109128819D02*
X140740475Y-108976438D01*
X140740475Y-108976438D02*
X140740475Y-108862152D01*
X140740475Y-108862152D02*
X140778571Y-108709771D01*
X140778571Y-108709771D02*
X140816666Y-108633580D01*
X140816666Y-108633580D02*
X140892856Y-108557390D01*
X140892856Y-108557390D02*
X141007142Y-108519295D01*
X141007142Y-108519295D02*
X141083333Y-108519295D01*
X141083333Y-108519295D02*
X141197618Y-108557390D01*
X141197618Y-108557390D02*
X141235714Y-108595485D01*
X141540475Y-108595485D02*
X141578571Y-108557390D01*
X141578571Y-108557390D02*
X141654761Y-108519295D01*
X141654761Y-108519295D02*
X141845237Y-108519295D01*
X141845237Y-108519295D02*
X141921428Y-108557390D01*
X141921428Y-108557390D02*
X141959523Y-108595485D01*
X141959523Y-108595485D02*
X141997618Y-108671676D01*
X141997618Y-108671676D02*
X141997618Y-108747866D01*
X141997618Y-108747866D02*
X141959523Y-108862152D01*
X141959523Y-108862152D02*
X141502380Y-109319295D01*
X141502380Y-109319295D02*
X141997618Y-109319295D01*
X142759523Y-109319295D02*
X142302380Y-109319295D01*
X142530952Y-109319295D02*
X142530952Y-108519295D01*
X142530952Y-108519295D02*
X142454761Y-108633580D01*
X142454761Y-108633580D02*
X142378571Y-108709771D01*
X142378571Y-108709771D02*
X142302380Y-108747866D01*
X178404761Y-83487295D02*
X178023809Y-83487295D01*
X178023809Y-83487295D02*
X178023809Y-82687295D01*
X178671428Y-83068247D02*
X178938094Y-83068247D01*
X179052380Y-83487295D02*
X178671428Y-83487295D01*
X178671428Y-83487295D02*
X178671428Y-82687295D01*
X178671428Y-82687295D02*
X179052380Y-82687295D01*
X179395238Y-83487295D02*
X179395238Y-82687295D01*
X179395238Y-82687295D02*
X179585714Y-82687295D01*
X179585714Y-82687295D02*
X179700000Y-82725390D01*
X179700000Y-82725390D02*
X179776190Y-82801580D01*
X179776190Y-82801580D02*
X179814285Y-82877771D01*
X179814285Y-82877771D02*
X179852381Y-83030152D01*
X179852381Y-83030152D02*
X179852381Y-83144438D01*
X179852381Y-83144438D02*
X179814285Y-83296819D01*
X179814285Y-83296819D02*
X179776190Y-83373009D01*
X179776190Y-83373009D02*
X179700000Y-83449200D01*
X179700000Y-83449200D02*
X179585714Y-83487295D01*
X179585714Y-83487295D02*
X179395238Y-83487295D01*
X180119047Y-82687295D02*
X180614285Y-82687295D01*
X180614285Y-82687295D02*
X180347619Y-82992057D01*
X180347619Y-82992057D02*
X180461904Y-82992057D01*
X180461904Y-82992057D02*
X180538095Y-83030152D01*
X180538095Y-83030152D02*
X180576190Y-83068247D01*
X180576190Y-83068247D02*
X180614285Y-83144438D01*
X180614285Y-83144438D02*
X180614285Y-83334914D01*
X180614285Y-83334914D02*
X180576190Y-83411104D01*
X180576190Y-83411104D02*
X180538095Y-83449200D01*
X180538095Y-83449200D02*
X180461904Y-83487295D01*
X180461904Y-83487295D02*
X180233333Y-83487295D01*
X180233333Y-83487295D02*
X180157142Y-83449200D01*
X180157142Y-83449200D02*
X180119047Y-83411104D01*
X136541667Y-109319295D02*
X136275000Y-108938342D01*
X136084524Y-109319295D02*
X136084524Y-108519295D01*
X136084524Y-108519295D02*
X136389286Y-108519295D01*
X136389286Y-108519295D02*
X136465476Y-108557390D01*
X136465476Y-108557390D02*
X136503571Y-108595485D01*
X136503571Y-108595485D02*
X136541667Y-108671676D01*
X136541667Y-108671676D02*
X136541667Y-108785961D01*
X136541667Y-108785961D02*
X136503571Y-108862152D01*
X136503571Y-108862152D02*
X136465476Y-108900247D01*
X136465476Y-108900247D02*
X136389286Y-108938342D01*
X136389286Y-108938342D02*
X136084524Y-108938342D01*
X137227381Y-108519295D02*
X137075000Y-108519295D01*
X137075000Y-108519295D02*
X136998809Y-108557390D01*
X136998809Y-108557390D02*
X136960714Y-108595485D01*
X136960714Y-108595485D02*
X136884524Y-108709771D01*
X136884524Y-108709771D02*
X136846428Y-108862152D01*
X136846428Y-108862152D02*
X136846428Y-109166914D01*
X136846428Y-109166914D02*
X136884524Y-109243104D01*
X136884524Y-109243104D02*
X136922619Y-109281200D01*
X136922619Y-109281200D02*
X136998809Y-109319295D01*
X136998809Y-109319295D02*
X137151190Y-109319295D01*
X137151190Y-109319295D02*
X137227381Y-109281200D01*
X137227381Y-109281200D02*
X137265476Y-109243104D01*
X137265476Y-109243104D02*
X137303571Y-109166914D01*
X137303571Y-109166914D02*
X137303571Y-108976438D01*
X137303571Y-108976438D02*
X137265476Y-108900247D01*
X137265476Y-108900247D02*
X137227381Y-108862152D01*
X137227381Y-108862152D02*
X137151190Y-108824057D01*
X137151190Y-108824057D02*
X136998809Y-108824057D01*
X136998809Y-108824057D02*
X136922619Y-108862152D01*
X136922619Y-108862152D02*
X136884524Y-108900247D01*
X136884524Y-108900247D02*
X136846428Y-108976438D01*
X149365476Y-93362295D02*
X149365476Y-94009914D01*
X149365476Y-94009914D02*
X149403571Y-94086104D01*
X149403571Y-94086104D02*
X149441666Y-94124200D01*
X149441666Y-94124200D02*
X149517857Y-94162295D01*
X149517857Y-94162295D02*
X149670238Y-94162295D01*
X149670238Y-94162295D02*
X149746428Y-94124200D01*
X149746428Y-94124200D02*
X149784523Y-94086104D01*
X149784523Y-94086104D02*
X149822619Y-94009914D01*
X149822619Y-94009914D02*
X149822619Y-93362295D01*
X150622618Y-94162295D02*
X150165475Y-94162295D01*
X150394047Y-94162295D02*
X150394047Y-93362295D01*
X150394047Y-93362295D02*
X150317856Y-93476580D01*
X150317856Y-93476580D02*
X150241666Y-93552771D01*
X150241666Y-93552771D02*
X150165475Y-93590866D01*
X178904761Y-89962295D02*
X178523809Y-89962295D01*
X178523809Y-89962295D02*
X178523809Y-89162295D01*
X179171428Y-89543247D02*
X179438094Y-89543247D01*
X179552380Y-89962295D02*
X179171428Y-89962295D01*
X179171428Y-89962295D02*
X179171428Y-89162295D01*
X179171428Y-89162295D02*
X179552380Y-89162295D01*
X179895238Y-89962295D02*
X179895238Y-89162295D01*
X179895238Y-89162295D02*
X180085714Y-89162295D01*
X180085714Y-89162295D02*
X180200000Y-89200390D01*
X180200000Y-89200390D02*
X180276190Y-89276580D01*
X180276190Y-89276580D02*
X180314285Y-89352771D01*
X180314285Y-89352771D02*
X180352381Y-89505152D01*
X180352381Y-89505152D02*
X180352381Y-89619438D01*
X180352381Y-89619438D02*
X180314285Y-89771819D01*
X180314285Y-89771819D02*
X180276190Y-89848009D01*
X180276190Y-89848009D02*
X180200000Y-89924200D01*
X180200000Y-89924200D02*
X180085714Y-89962295D01*
X180085714Y-89962295D02*
X179895238Y-89962295D01*
X181114285Y-89962295D02*
X180657142Y-89962295D01*
X180885714Y-89962295D02*
X180885714Y-89162295D01*
X180885714Y-89162295D02*
X180809523Y-89276580D01*
X180809523Y-89276580D02*
X180733333Y-89352771D01*
X180733333Y-89352771D02*
X180657142Y-89390866D01*
X176246667Y-84912295D02*
X175980000Y-84531342D01*
X175789524Y-84912295D02*
X175789524Y-84112295D01*
X175789524Y-84112295D02*
X176094286Y-84112295D01*
X176094286Y-84112295D02*
X176170476Y-84150390D01*
X176170476Y-84150390D02*
X176208571Y-84188485D01*
X176208571Y-84188485D02*
X176246667Y-84264676D01*
X176246667Y-84264676D02*
X176246667Y-84378961D01*
X176246667Y-84378961D02*
X176208571Y-84455152D01*
X176208571Y-84455152D02*
X176170476Y-84493247D01*
X176170476Y-84493247D02*
X176094286Y-84531342D01*
X176094286Y-84531342D02*
X175789524Y-84531342D01*
X176513333Y-84112295D02*
X177008571Y-84112295D01*
X177008571Y-84112295D02*
X176741905Y-84417057D01*
X176741905Y-84417057D02*
X176856190Y-84417057D01*
X176856190Y-84417057D02*
X176932381Y-84455152D01*
X176932381Y-84455152D02*
X176970476Y-84493247D01*
X176970476Y-84493247D02*
X177008571Y-84569438D01*
X177008571Y-84569438D02*
X177008571Y-84759914D01*
X177008571Y-84759914D02*
X176970476Y-84836104D01*
X176970476Y-84836104D02*
X176932381Y-84874200D01*
X176932381Y-84874200D02*
X176856190Y-84912295D01*
X176856190Y-84912295D02*
X176627619Y-84912295D01*
X176627619Y-84912295D02*
X176551428Y-84874200D01*
X176551428Y-84874200D02*
X176513333Y-84836104D01*
X140466792Y-101494295D02*
X140466792Y-102141914D01*
X140466792Y-102141914D02*
X140504887Y-102218104D01*
X140504887Y-102218104D02*
X140542982Y-102256200D01*
X140542982Y-102256200D02*
X140619173Y-102294295D01*
X140619173Y-102294295D02*
X140771554Y-102294295D01*
X140771554Y-102294295D02*
X140847744Y-102256200D01*
X140847744Y-102256200D02*
X140885839Y-102218104D01*
X140885839Y-102218104D02*
X140923935Y-102141914D01*
X140923935Y-102141914D02*
X140923935Y-101494295D01*
X141228696Y-101494295D02*
X141762030Y-101494295D01*
X141762030Y-101494295D02*
X141419172Y-102294295D01*
X136522618Y-113204819D02*
X136189285Y-112728628D01*
X135951190Y-113204819D02*
X135951190Y-112204819D01*
X135951190Y-112204819D02*
X136332142Y-112204819D01*
X136332142Y-112204819D02*
X136427380Y-112252438D01*
X136427380Y-112252438D02*
X136474999Y-112300057D01*
X136474999Y-112300057D02*
X136522618Y-112395295D01*
X136522618Y-112395295D02*
X136522618Y-112538152D01*
X136522618Y-112538152D02*
X136474999Y-112633390D01*
X136474999Y-112633390D02*
X136427380Y-112681009D01*
X136427380Y-112681009D02*
X136332142Y-112728628D01*
X136332142Y-112728628D02*
X135951190Y-112728628D01*
X136951190Y-112681009D02*
X137284523Y-112681009D01*
X137427380Y-113204819D02*
X136951190Y-113204819D01*
X136951190Y-113204819D02*
X136951190Y-112204819D01*
X136951190Y-112204819D02*
X137427380Y-112204819D01*
X137808333Y-113157200D02*
X137951190Y-113204819D01*
X137951190Y-113204819D02*
X138189285Y-113204819D01*
X138189285Y-113204819D02*
X138284523Y-113157200D01*
X138284523Y-113157200D02*
X138332142Y-113109580D01*
X138332142Y-113109580D02*
X138379761Y-113014342D01*
X138379761Y-113014342D02*
X138379761Y-112919104D01*
X138379761Y-112919104D02*
X138332142Y-112823866D01*
X138332142Y-112823866D02*
X138284523Y-112776247D01*
X138284523Y-112776247D02*
X138189285Y-112728628D01*
X138189285Y-112728628D02*
X137998809Y-112681009D01*
X137998809Y-112681009D02*
X137903571Y-112633390D01*
X137903571Y-112633390D02*
X137855952Y-112585771D01*
X137855952Y-112585771D02*
X137808333Y-112490533D01*
X137808333Y-112490533D02*
X137808333Y-112395295D01*
X137808333Y-112395295D02*
X137855952Y-112300057D01*
X137855952Y-112300057D02*
X137903571Y-112252438D01*
X137903571Y-112252438D02*
X137998809Y-112204819D01*
X137998809Y-112204819D02*
X138236904Y-112204819D01*
X138236904Y-112204819D02*
X138379761Y-112252438D01*
X138808333Y-112681009D02*
X139141666Y-112681009D01*
X139284523Y-113204819D02*
X138808333Y-113204819D01*
X138808333Y-113204819D02*
X138808333Y-112204819D01*
X138808333Y-112204819D02*
X139284523Y-112204819D01*
X139570238Y-112204819D02*
X140141666Y-112204819D01*
X139855952Y-113204819D02*
X139855952Y-112204819D01*
X156135714Y-113693104D02*
X156097618Y-113731200D01*
X156097618Y-113731200D02*
X155983333Y-113769295D01*
X155983333Y-113769295D02*
X155907142Y-113769295D01*
X155907142Y-113769295D02*
X155792856Y-113731200D01*
X155792856Y-113731200D02*
X155716666Y-113655009D01*
X155716666Y-113655009D02*
X155678571Y-113578819D01*
X155678571Y-113578819D02*
X155640475Y-113426438D01*
X155640475Y-113426438D02*
X155640475Y-113312152D01*
X155640475Y-113312152D02*
X155678571Y-113159771D01*
X155678571Y-113159771D02*
X155716666Y-113083580D01*
X155716666Y-113083580D02*
X155792856Y-113007390D01*
X155792856Y-113007390D02*
X155907142Y-112969295D01*
X155907142Y-112969295D02*
X155983333Y-112969295D01*
X155983333Y-112969295D02*
X156097618Y-113007390D01*
X156097618Y-113007390D02*
X156135714Y-113045485D01*
X156897618Y-113769295D02*
X156440475Y-113769295D01*
X156669047Y-113769295D02*
X156669047Y-112969295D01*
X156669047Y-112969295D02*
X156592856Y-113083580D01*
X156592856Y-113083580D02*
X156516666Y-113159771D01*
X156516666Y-113159771D02*
X156440475Y-113197866D01*
X157621428Y-112969295D02*
X157240476Y-112969295D01*
X157240476Y-112969295D02*
X157202380Y-113350247D01*
X157202380Y-113350247D02*
X157240476Y-113312152D01*
X157240476Y-113312152D02*
X157316666Y-113274057D01*
X157316666Y-113274057D02*
X157507142Y-113274057D01*
X157507142Y-113274057D02*
X157583333Y-113312152D01*
X157583333Y-113312152D02*
X157621428Y-113350247D01*
X157621428Y-113350247D02*
X157659523Y-113426438D01*
X157659523Y-113426438D02*
X157659523Y-113616914D01*
X157659523Y-113616914D02*
X157621428Y-113693104D01*
X157621428Y-113693104D02*
X157583333Y-113731200D01*
X157583333Y-113731200D02*
X157507142Y-113769295D01*
X157507142Y-113769295D02*
X157316666Y-113769295D01*
X157316666Y-113769295D02*
X157240476Y-113731200D01*
X157240476Y-113731200D02*
X157202380Y-113693104D01*
X161160714Y-112543104D02*
X161122618Y-112581200D01*
X161122618Y-112581200D02*
X161008333Y-112619295D01*
X161008333Y-112619295D02*
X160932142Y-112619295D01*
X160932142Y-112619295D02*
X160817856Y-112581200D01*
X160817856Y-112581200D02*
X160741666Y-112505009D01*
X160741666Y-112505009D02*
X160703571Y-112428819D01*
X160703571Y-112428819D02*
X160665475Y-112276438D01*
X160665475Y-112276438D02*
X160665475Y-112162152D01*
X160665475Y-112162152D02*
X160703571Y-112009771D01*
X160703571Y-112009771D02*
X160741666Y-111933580D01*
X160741666Y-111933580D02*
X160817856Y-111857390D01*
X160817856Y-111857390D02*
X160932142Y-111819295D01*
X160932142Y-111819295D02*
X161008333Y-111819295D01*
X161008333Y-111819295D02*
X161122618Y-111857390D01*
X161122618Y-111857390D02*
X161160714Y-111895485D01*
X161465475Y-111895485D02*
X161503571Y-111857390D01*
X161503571Y-111857390D02*
X161579761Y-111819295D01*
X161579761Y-111819295D02*
X161770237Y-111819295D01*
X161770237Y-111819295D02*
X161846428Y-111857390D01*
X161846428Y-111857390D02*
X161884523Y-111895485D01*
X161884523Y-111895485D02*
X161922618Y-111971676D01*
X161922618Y-111971676D02*
X161922618Y-112047866D01*
X161922618Y-112047866D02*
X161884523Y-112162152D01*
X161884523Y-112162152D02*
X161427380Y-112619295D01*
X161427380Y-112619295D02*
X161922618Y-112619295D01*
X162417857Y-111819295D02*
X162494047Y-111819295D01*
X162494047Y-111819295D02*
X162570238Y-111857390D01*
X162570238Y-111857390D02*
X162608333Y-111895485D01*
X162608333Y-111895485D02*
X162646428Y-111971676D01*
X162646428Y-111971676D02*
X162684523Y-112124057D01*
X162684523Y-112124057D02*
X162684523Y-112314533D01*
X162684523Y-112314533D02*
X162646428Y-112466914D01*
X162646428Y-112466914D02*
X162608333Y-112543104D01*
X162608333Y-112543104D02*
X162570238Y-112581200D01*
X162570238Y-112581200D02*
X162494047Y-112619295D01*
X162494047Y-112619295D02*
X162417857Y-112619295D01*
X162417857Y-112619295D02*
X162341666Y-112581200D01*
X162341666Y-112581200D02*
X162303571Y-112543104D01*
X162303571Y-112543104D02*
X162265476Y-112466914D01*
X162265476Y-112466914D02*
X162227380Y-112314533D01*
X162227380Y-112314533D02*
X162227380Y-112124057D01*
X162227380Y-112124057D02*
X162265476Y-111971676D01*
X162265476Y-111971676D02*
X162303571Y-111895485D01*
X162303571Y-111895485D02*
X162341666Y-111857390D01*
X162341666Y-111857390D02*
X162417857Y-111819295D01*
X161035714Y-96943104D02*
X160997618Y-96981200D01*
X160997618Y-96981200D02*
X160883333Y-97019295D01*
X160883333Y-97019295D02*
X160807142Y-97019295D01*
X160807142Y-97019295D02*
X160692856Y-96981200D01*
X160692856Y-96981200D02*
X160616666Y-96905009D01*
X160616666Y-96905009D02*
X160578571Y-96828819D01*
X160578571Y-96828819D02*
X160540475Y-96676438D01*
X160540475Y-96676438D02*
X160540475Y-96562152D01*
X160540475Y-96562152D02*
X160578571Y-96409771D01*
X160578571Y-96409771D02*
X160616666Y-96333580D01*
X160616666Y-96333580D02*
X160692856Y-96257390D01*
X160692856Y-96257390D02*
X160807142Y-96219295D01*
X160807142Y-96219295D02*
X160883333Y-96219295D01*
X160883333Y-96219295D02*
X160997618Y-96257390D01*
X160997618Y-96257390D02*
X161035714Y-96295485D01*
X161797618Y-97019295D02*
X161340475Y-97019295D01*
X161569047Y-97019295D02*
X161569047Y-96219295D01*
X161569047Y-96219295D02*
X161492856Y-96333580D01*
X161492856Y-96333580D02*
X161416666Y-96409771D01*
X161416666Y-96409771D02*
X161340475Y-96447866D01*
X162102380Y-96295485D02*
X162140476Y-96257390D01*
X162140476Y-96257390D02*
X162216666Y-96219295D01*
X162216666Y-96219295D02*
X162407142Y-96219295D01*
X162407142Y-96219295D02*
X162483333Y-96257390D01*
X162483333Y-96257390D02*
X162521428Y-96295485D01*
X162521428Y-96295485D02*
X162559523Y-96371676D01*
X162559523Y-96371676D02*
X162559523Y-96447866D01*
X162559523Y-96447866D02*
X162521428Y-96562152D01*
X162521428Y-96562152D02*
X162064285Y-97019295D01*
X162064285Y-97019295D02*
X162559523Y-97019295D01*
X177019295Y-98914285D02*
X176638342Y-99180952D01*
X177019295Y-99371428D02*
X176219295Y-99371428D01*
X176219295Y-99371428D02*
X176219295Y-99066666D01*
X176219295Y-99066666D02*
X176257390Y-98990476D01*
X176257390Y-98990476D02*
X176295485Y-98952381D01*
X176295485Y-98952381D02*
X176371676Y-98914285D01*
X176371676Y-98914285D02*
X176485961Y-98914285D01*
X176485961Y-98914285D02*
X176562152Y-98952381D01*
X176562152Y-98952381D02*
X176600247Y-98990476D01*
X176600247Y-98990476D02*
X176638342Y-99066666D01*
X176638342Y-99066666D02*
X176638342Y-99371428D01*
X177019295Y-98152381D02*
X177019295Y-98609524D01*
X177019295Y-98380952D02*
X176219295Y-98380952D01*
X176219295Y-98380952D02*
X176333580Y-98457143D01*
X176333580Y-98457143D02*
X176409771Y-98533333D01*
X176409771Y-98533333D02*
X176447866Y-98609524D01*
X176295485Y-97847619D02*
X176257390Y-97809523D01*
X176257390Y-97809523D02*
X176219295Y-97733333D01*
X176219295Y-97733333D02*
X176219295Y-97542857D01*
X176219295Y-97542857D02*
X176257390Y-97466666D01*
X176257390Y-97466666D02*
X176295485Y-97428571D01*
X176295485Y-97428571D02*
X176371676Y-97390476D01*
X176371676Y-97390476D02*
X176447866Y-97390476D01*
X176447866Y-97390476D02*
X176562152Y-97428571D01*
X176562152Y-97428571D02*
X177019295Y-97885714D01*
X177019295Y-97885714D02*
X177019295Y-97390476D01*
X147486104Y-91833332D02*
X147524200Y-91871428D01*
X147524200Y-91871428D02*
X147562295Y-91985713D01*
X147562295Y-91985713D02*
X147562295Y-92061904D01*
X147562295Y-92061904D02*
X147524200Y-92176190D01*
X147524200Y-92176190D02*
X147448009Y-92252380D01*
X147448009Y-92252380D02*
X147371819Y-92290475D01*
X147371819Y-92290475D02*
X147219438Y-92328571D01*
X147219438Y-92328571D02*
X147105152Y-92328571D01*
X147105152Y-92328571D02*
X146952771Y-92290475D01*
X146952771Y-92290475D02*
X146876580Y-92252380D01*
X146876580Y-92252380D02*
X146800390Y-92176190D01*
X146800390Y-92176190D02*
X146762295Y-92061904D01*
X146762295Y-92061904D02*
X146762295Y-91985713D01*
X146762295Y-91985713D02*
X146800390Y-91871428D01*
X146800390Y-91871428D02*
X146838485Y-91833332D01*
X146838485Y-91528571D02*
X146800390Y-91490475D01*
X146800390Y-91490475D02*
X146762295Y-91414285D01*
X146762295Y-91414285D02*
X146762295Y-91223809D01*
X146762295Y-91223809D02*
X146800390Y-91147618D01*
X146800390Y-91147618D02*
X146838485Y-91109523D01*
X146838485Y-91109523D02*
X146914676Y-91071428D01*
X146914676Y-91071428D02*
X146990866Y-91071428D01*
X146990866Y-91071428D02*
X147105152Y-91109523D01*
X147105152Y-91109523D02*
X147562295Y-91566666D01*
X147562295Y-91566666D02*
X147562295Y-91071428D01*
X150293104Y-106339285D02*
X150331200Y-106377381D01*
X150331200Y-106377381D02*
X150369295Y-106491666D01*
X150369295Y-106491666D02*
X150369295Y-106567857D01*
X150369295Y-106567857D02*
X150331200Y-106682143D01*
X150331200Y-106682143D02*
X150255009Y-106758333D01*
X150255009Y-106758333D02*
X150178819Y-106796428D01*
X150178819Y-106796428D02*
X150026438Y-106834524D01*
X150026438Y-106834524D02*
X149912152Y-106834524D01*
X149912152Y-106834524D02*
X149759771Y-106796428D01*
X149759771Y-106796428D02*
X149683580Y-106758333D01*
X149683580Y-106758333D02*
X149607390Y-106682143D01*
X149607390Y-106682143D02*
X149569295Y-106567857D01*
X149569295Y-106567857D02*
X149569295Y-106491666D01*
X149569295Y-106491666D02*
X149607390Y-106377381D01*
X149607390Y-106377381D02*
X149645485Y-106339285D01*
X150369295Y-105577381D02*
X150369295Y-106034524D01*
X150369295Y-105805952D02*
X149569295Y-105805952D01*
X149569295Y-105805952D02*
X149683580Y-105882143D01*
X149683580Y-105882143D02*
X149759771Y-105958333D01*
X149759771Y-105958333D02*
X149797866Y-106034524D01*
X149835961Y-104891666D02*
X150369295Y-104891666D01*
X149531200Y-105082142D02*
X150102628Y-105272619D01*
X150102628Y-105272619D02*
X150102628Y-104777380D01*
X136897493Y-102645485D02*
X136821303Y-102607390D01*
X136821303Y-102607390D02*
X136745112Y-102531200D01*
X136745112Y-102531200D02*
X136630826Y-102416914D01*
X136630826Y-102416914D02*
X136554636Y-102378819D01*
X136554636Y-102378819D02*
X136478445Y-102378819D01*
X136516541Y-102569295D02*
X136440350Y-102531200D01*
X136440350Y-102531200D02*
X136364160Y-102455009D01*
X136364160Y-102455009D02*
X136326064Y-102302628D01*
X136326064Y-102302628D02*
X136326064Y-102035961D01*
X136326064Y-102035961D02*
X136364160Y-101883580D01*
X136364160Y-101883580D02*
X136440350Y-101807390D01*
X136440350Y-101807390D02*
X136516541Y-101769295D01*
X136516541Y-101769295D02*
X136668922Y-101769295D01*
X136668922Y-101769295D02*
X136745112Y-101807390D01*
X136745112Y-101807390D02*
X136821303Y-101883580D01*
X136821303Y-101883580D02*
X136859398Y-102035961D01*
X136859398Y-102035961D02*
X136859398Y-102302628D01*
X136859398Y-102302628D02*
X136821303Y-102455009D01*
X136821303Y-102455009D02*
X136745112Y-102531200D01*
X136745112Y-102531200D02*
X136668922Y-102569295D01*
X136668922Y-102569295D02*
X136516541Y-102569295D01*
X137621302Y-102569295D02*
X137164159Y-102569295D01*
X137392731Y-102569295D02*
X137392731Y-101769295D01*
X137392731Y-101769295D02*
X137316540Y-101883580D01*
X137316540Y-101883580D02*
X137240350Y-101959771D01*
X137240350Y-101959771D02*
X137164159Y-101997866D01*
X168360714Y-101193104D02*
X168322618Y-101231200D01*
X168322618Y-101231200D02*
X168208333Y-101269295D01*
X168208333Y-101269295D02*
X168132142Y-101269295D01*
X168132142Y-101269295D02*
X168017856Y-101231200D01*
X168017856Y-101231200D02*
X167941666Y-101155009D01*
X167941666Y-101155009D02*
X167903571Y-101078819D01*
X167903571Y-101078819D02*
X167865475Y-100926438D01*
X167865475Y-100926438D02*
X167865475Y-100812152D01*
X167865475Y-100812152D02*
X167903571Y-100659771D01*
X167903571Y-100659771D02*
X167941666Y-100583580D01*
X167941666Y-100583580D02*
X168017856Y-100507390D01*
X168017856Y-100507390D02*
X168132142Y-100469295D01*
X168132142Y-100469295D02*
X168208333Y-100469295D01*
X168208333Y-100469295D02*
X168322618Y-100507390D01*
X168322618Y-100507390D02*
X168360714Y-100545485D01*
X169122618Y-101269295D02*
X168665475Y-101269295D01*
X168894047Y-101269295D02*
X168894047Y-100469295D01*
X168894047Y-100469295D02*
X168817856Y-100583580D01*
X168817856Y-100583580D02*
X168741666Y-100659771D01*
X168741666Y-100659771D02*
X168665475Y-100697866D01*
X169389285Y-100469295D02*
X169922619Y-100469295D01*
X169922619Y-100469295D02*
X169579761Y-101269295D01*
X130454819Y-110483333D02*
X131169104Y-110483333D01*
X131169104Y-110483333D02*
X131311961Y-110530952D01*
X131311961Y-110530952D02*
X131407200Y-110626190D01*
X131407200Y-110626190D02*
X131454819Y-110769047D01*
X131454819Y-110769047D02*
X131454819Y-110864285D01*
X130788152Y-109578571D02*
X131454819Y-109578571D01*
X130407200Y-109816666D02*
X131121485Y-110054761D01*
X131121485Y-110054761D02*
X131121485Y-109435714D01*
X150410714Y-112618104D02*
X150372618Y-112656200D01*
X150372618Y-112656200D02*
X150258333Y-112694295D01*
X150258333Y-112694295D02*
X150182142Y-112694295D01*
X150182142Y-112694295D02*
X150067856Y-112656200D01*
X150067856Y-112656200D02*
X149991666Y-112580009D01*
X149991666Y-112580009D02*
X149953571Y-112503819D01*
X149953571Y-112503819D02*
X149915475Y-112351438D01*
X149915475Y-112351438D02*
X149915475Y-112237152D01*
X149915475Y-112237152D02*
X149953571Y-112084771D01*
X149953571Y-112084771D02*
X149991666Y-112008580D01*
X149991666Y-112008580D02*
X150067856Y-111932390D01*
X150067856Y-111932390D02*
X150182142Y-111894295D01*
X150182142Y-111894295D02*
X150258333Y-111894295D01*
X150258333Y-111894295D02*
X150372618Y-111932390D01*
X150372618Y-111932390D02*
X150410714Y-111970485D01*
X151172618Y-112694295D02*
X150715475Y-112694295D01*
X150944047Y-112694295D02*
X150944047Y-111894295D01*
X150944047Y-111894295D02*
X150867856Y-112008580D01*
X150867856Y-112008580D02*
X150791666Y-112084771D01*
X150791666Y-112084771D02*
X150715475Y-112122866D01*
X151553571Y-112694295D02*
X151705952Y-112694295D01*
X151705952Y-112694295D02*
X151782142Y-112656200D01*
X151782142Y-112656200D02*
X151820238Y-112618104D01*
X151820238Y-112618104D02*
X151896428Y-112503819D01*
X151896428Y-112503819D02*
X151934523Y-112351438D01*
X151934523Y-112351438D02*
X151934523Y-112046676D01*
X151934523Y-112046676D02*
X151896428Y-111970485D01*
X151896428Y-111970485D02*
X151858333Y-111932390D01*
X151858333Y-111932390D02*
X151782142Y-111894295D01*
X151782142Y-111894295D02*
X151629761Y-111894295D01*
X151629761Y-111894295D02*
X151553571Y-111932390D01*
X151553571Y-111932390D02*
X151515476Y-111970485D01*
X151515476Y-111970485D02*
X151477380Y-112046676D01*
X151477380Y-112046676D02*
X151477380Y-112237152D01*
X151477380Y-112237152D02*
X151515476Y-112313342D01*
X151515476Y-112313342D02*
X151553571Y-112351438D01*
X151553571Y-112351438D02*
X151629761Y-112389533D01*
X151629761Y-112389533D02*
X151782142Y-112389533D01*
X151782142Y-112389533D02*
X151858333Y-112351438D01*
X151858333Y-112351438D02*
X151896428Y-112313342D01*
X151896428Y-112313342D02*
X151934523Y-112237152D01*
X163865476Y-65987295D02*
X163865476Y-66634914D01*
X163865476Y-66634914D02*
X163903571Y-66711104D01*
X163903571Y-66711104D02*
X163941666Y-66749200D01*
X163941666Y-66749200D02*
X164017857Y-66787295D01*
X164017857Y-66787295D02*
X164170238Y-66787295D01*
X164170238Y-66787295D02*
X164246428Y-66749200D01*
X164246428Y-66749200D02*
X164284523Y-66711104D01*
X164284523Y-66711104D02*
X164322619Y-66634914D01*
X164322619Y-66634914D02*
X164322619Y-65987295D01*
X164665475Y-66063485D02*
X164703571Y-66025390D01*
X164703571Y-66025390D02*
X164779761Y-65987295D01*
X164779761Y-65987295D02*
X164970237Y-65987295D01*
X164970237Y-65987295D02*
X165046428Y-66025390D01*
X165046428Y-66025390D02*
X165084523Y-66063485D01*
X165084523Y-66063485D02*
X165122618Y-66139676D01*
X165122618Y-66139676D02*
X165122618Y-66215866D01*
X165122618Y-66215866D02*
X165084523Y-66330152D01*
X165084523Y-66330152D02*
X164627380Y-66787295D01*
X164627380Y-66787295D02*
X165122618Y-66787295D01*
X157461104Y-89918332D02*
X157499200Y-89956428D01*
X157499200Y-89956428D02*
X157537295Y-90070713D01*
X157537295Y-90070713D02*
X157537295Y-90146904D01*
X157537295Y-90146904D02*
X157499200Y-90261190D01*
X157499200Y-90261190D02*
X157423009Y-90337380D01*
X157423009Y-90337380D02*
X157346819Y-90375475D01*
X157346819Y-90375475D02*
X157194438Y-90413571D01*
X157194438Y-90413571D02*
X157080152Y-90413571D01*
X157080152Y-90413571D02*
X156927771Y-90375475D01*
X156927771Y-90375475D02*
X156851580Y-90337380D01*
X156851580Y-90337380D02*
X156775390Y-90261190D01*
X156775390Y-90261190D02*
X156737295Y-90146904D01*
X156737295Y-90146904D02*
X156737295Y-90070713D01*
X156737295Y-90070713D02*
X156775390Y-89956428D01*
X156775390Y-89956428D02*
X156813485Y-89918332D01*
X157003961Y-89232618D02*
X157537295Y-89232618D01*
X156699200Y-89423094D02*
X157270628Y-89613571D01*
X157270628Y-89613571D02*
X157270628Y-89118332D01*
X174865475Y-103587296D02*
X174865475Y-104234915D01*
X174865475Y-104234915D02*
X174903570Y-104311105D01*
X174903570Y-104311105D02*
X174941665Y-104349201D01*
X174941665Y-104349201D02*
X175017856Y-104387296D01*
X175017856Y-104387296D02*
X175170237Y-104387296D01*
X175170237Y-104387296D02*
X175246427Y-104349201D01*
X175246427Y-104349201D02*
X175284522Y-104311105D01*
X175284522Y-104311105D02*
X175322618Y-104234915D01*
X175322618Y-104234915D02*
X175322618Y-103587296D01*
X176046427Y-103853962D02*
X176046427Y-104387296D01*
X175855951Y-103549201D02*
X175665474Y-104120629D01*
X175665474Y-104120629D02*
X176160713Y-104120629D01*
D11*
%TO.C,C7*%
X172215580Y-110260000D02*
X171934420Y-110260000D01*
X172215580Y-109240000D02*
X171934420Y-109240000D01*
%TO.C,R2*%
X178682742Y-85757500D02*
X179157258Y-85757500D01*
X178682742Y-86802500D02*
X179157258Y-86802500D01*
D12*
%TO.C,U5*%
X144680000Y-104854400D02*
X144680000Y-103995600D01*
X145681600Y-103716200D02*
X146218400Y-103716200D01*
X147220000Y-103995600D02*
X147220000Y-104854400D01*
D13*
X144413300Y-105441000D02*
G75*
G02*
X144286300Y-105441000I-63500J0D01*
G01*
X144286300Y-105441000D02*
G75*
G02*
X144413300Y-105441000I63500J0D01*
G01*
D11*
%TO.C,R1*%
X178632742Y-87417500D02*
X179107258Y-87417500D01*
X178632742Y-88462500D02*
X179107258Y-88462500D01*
D12*
%TO.C,J3*%
X179600000Y-109375000D02*
X179600000Y-108625000D01*
X181250000Y-109375000D02*
X179600000Y-109375000D01*
X183850000Y-107875000D02*
X183850000Y-104875000D01*
X179600000Y-104125000D02*
X179600000Y-103375000D01*
X179600000Y-103375000D02*
X181250000Y-103375000D01*
X179051600Y-108875000D02*
G75*
G02*
X178848400Y-108875000I-101600J0D01*
G01*
X178848400Y-108875000D02*
G75*
G02*
X179051600Y-108875000I101600J0D01*
G01*
%TO.C,D1*%
X133675000Y-106345000D02*
X134925000Y-106345000D01*
X133675000Y-105475000D02*
X133675000Y-103675000D01*
X134925000Y-105475000D02*
X134925000Y-103675000D01*
D11*
%TO.C,C1*%
X166768748Y-77515000D02*
X167291252Y-77515000D01*
X166768748Y-78985000D02*
X167291252Y-78985000D01*
D13*
%TO.C,U3*%
X157412500Y-96550000D02*
X156902500Y-96550000D01*
X157412500Y-94050000D02*
X156902500Y-94050000D01*
X154922500Y-96550000D02*
X154412500Y-96550000D01*
X154412500Y-94050000D02*
X154922500Y-94050000D01*
D14*
X157612500Y-96625000D02*
G75*
G02*
X157412500Y-96625000I-100000J0D01*
G01*
X157412500Y-96625000D02*
G75*
G02*
X157612500Y-96625000I100000J0D01*
G01*
D15*
%TO.C,LOGO2*%
X140560690Y-75740018D02*
X140595585Y-75755269D01*
X140678877Y-75821235D01*
X140750103Y-75916618D01*
X140794153Y-76018406D01*
X140801322Y-76068587D01*
X140777285Y-76138647D01*
X140724561Y-76175717D01*
X140668031Y-76198164D01*
X140642146Y-76202300D01*
X140629542Y-76172283D01*
X140604654Y-76106961D01*
X140593735Y-76077445D01*
X140532508Y-75975348D01*
X140443861Y-75924423D01*
X140330193Y-75925989D01*
X140321774Y-75927994D01*
X140261088Y-75956767D01*
X140216474Y-76012859D01*
X140186002Y-76103163D01*
X140167744Y-76234571D01*
X140159771Y-76413974D01*
X140159023Y-76509433D01*
X140158652Y-76659913D01*
X140156223Y-76762495D01*
X140149760Y-76827672D01*
X140137288Y-76865938D01*
X140116833Y-76887785D01*
X140086419Y-76903707D01*
X140084661Y-76904509D01*
X140026091Y-76929272D01*
X139997075Y-76938391D01*
X139992616Y-76910822D01*
X139988799Y-76834620D01*
X139985899Y-76719541D01*
X139984191Y-76575341D01*
X139983851Y-76469814D01*
X139985588Y-76265613D01*
X139992382Y-76110697D01*
X140006607Y-75996024D01*
X140030638Y-75912551D01*
X140066848Y-75851236D01*
X140117612Y-75803034D01*
X140167739Y-75769393D01*
X140288275Y-75724619D01*
X140428557Y-75714521D01*
X140560690Y-75740018D01*
G36*
X140560690Y-75740018D02*
G01*
X140595585Y-75755269D01*
X140678877Y-75821235D01*
X140750103Y-75916618D01*
X140794153Y-76018406D01*
X140801322Y-76068587D01*
X140777285Y-76138647D01*
X140724561Y-76175717D01*
X140668031Y-76198164D01*
X140642146Y-76202300D01*
X140629542Y-76172283D01*
X140604654Y-76106961D01*
X140593735Y-76077445D01*
X140532508Y-75975348D01*
X140443861Y-75924423D01*
X140330193Y-75925989D01*
X140321774Y-75927994D01*
X140261088Y-75956767D01*
X140216474Y-76012859D01*
X140186002Y-76103163D01*
X140167744Y-76234571D01*
X140159771Y-76413974D01*
X140159023Y-76509433D01*
X140158652Y-76659913D01*
X140156223Y-76762495D01*
X140149760Y-76827672D01*
X140137288Y-76865938D01*
X140116833Y-76887785D01*
X140086419Y-76903707D01*
X140084661Y-76904509D01*
X140026091Y-76929272D01*
X139997075Y-76938391D01*
X139992616Y-76910822D01*
X139988799Y-76834620D01*
X139985899Y-76719541D01*
X139984191Y-76575341D01*
X139983851Y-76469814D01*
X139985588Y-76265613D01*
X139992382Y-76110697D01*
X140006607Y-75996024D01*
X140030638Y-75912551D01*
X140066848Y-75851236D01*
X140117612Y-75803034D01*
X140167739Y-75769393D01*
X140288275Y-75724619D01*
X140428557Y-75714521D01*
X140560690Y-75740018D01*
G37*
X132642429Y-75677719D02*
X132736123Y-75731914D01*
X132801264Y-75785707D01*
X132848907Y-75842066D01*
X132881728Y-75910987D01*
X132902406Y-76002468D01*
X132913620Y-76126506D01*
X132918049Y-76293098D01*
X132918563Y-76412851D01*
X132918563Y-76853659D01*
X132794483Y-76909283D01*
X132670402Y-76964907D01*
X132655805Y-76482095D01*
X132649773Y-76301779D01*
X132643445Y-76170901D01*
X132635606Y-76080511D01*
X132625037Y-76021664D01*
X132610523Y-75985413D01*
X132590848Y-75962810D01*
X132584535Y-75957917D01*
X132488888Y-75919706D01*
X132392207Y-75934827D01*
X132334655Y-75974943D01*
X132311245Y-76003370D01*
X132295039Y-76040672D01*
X132284741Y-76097223D01*
X132279049Y-76183394D01*
X132276664Y-76309558D01*
X132276264Y-76441042D01*
X132276186Y-76605999D01*
X132273361Y-76722761D01*
X132263907Y-76801510D01*
X132243940Y-76852431D01*
X132209576Y-76885706D01*
X132156932Y-76911520D01*
X132086617Y-76938344D01*
X132009820Y-76967542D01*
X132018962Y-76449346D01*
X132022643Y-76262539D01*
X132026950Y-76124490D01*
X132033123Y-76025568D01*
X132042402Y-75956145D01*
X132056027Y-75906590D01*
X132075239Y-75867273D01*
X132098402Y-75832584D01*
X132210152Y-75721770D01*
X132346513Y-75657689D01*
X132494825Y-75642339D01*
X132642429Y-75677719D01*
G36*
X132642429Y-75677719D02*
G01*
X132736123Y-75731914D01*
X132801264Y-75785707D01*
X132848907Y-75842066D01*
X132881728Y-75910987D01*
X132902406Y-76002468D01*
X132913620Y-76126506D01*
X132918049Y-76293098D01*
X132918563Y-76412851D01*
X132918563Y-76853659D01*
X132794483Y-76909283D01*
X132670402Y-76964907D01*
X132655805Y-76482095D01*
X132649773Y-76301779D01*
X132643445Y-76170901D01*
X132635606Y-76080511D01*
X132625037Y-76021664D01*
X132610523Y-75985413D01*
X132590848Y-75962810D01*
X132584535Y-75957917D01*
X132488888Y-75919706D01*
X132392207Y-75934827D01*
X132334655Y-75974943D01*
X132311245Y-76003370D01*
X132295039Y-76040672D01*
X132284741Y-76097223D01*
X132279049Y-76183394D01*
X132276664Y-76309558D01*
X132276264Y-76441042D01*
X132276186Y-76605999D01*
X132273361Y-76722761D01*
X132263907Y-76801510D01*
X132243940Y-76852431D01*
X132209576Y-76885706D01*
X132156932Y-76911520D01*
X132086617Y-76938344D01*
X132009820Y-76967542D01*
X132018962Y-76449346D01*
X132022643Y-76262539D01*
X132026950Y-76124490D01*
X132033123Y-76025568D01*
X132042402Y-75956145D01*
X132056027Y-75906590D01*
X132075239Y-75867273D01*
X132098402Y-75832584D01*
X132210152Y-75721770D01*
X132346513Y-75657689D01*
X132494825Y-75642339D01*
X132642429Y-75677719D01*
G37*
X136290943Y-75721920D02*
X136423565Y-75770859D01*
X136531010Y-75857419D01*
X136573032Y-75918352D01*
X136618843Y-76030161D01*
X136617891Y-76111006D01*
X136569808Y-76165378D01*
X136552017Y-76174624D01*
X136475204Y-76203450D01*
X136435976Y-76196065D01*
X136422689Y-76147658D01*
X136422012Y-76120920D01*
X136397686Y-76022548D01*
X136334281Y-75953734D01*
X136246154Y-75920498D01*
X136147663Y-75928861D01*
X136067602Y-75972296D01*
X136040561Y-75997072D01*
X136021394Y-76027129D01*
X136008446Y-76072565D01*
X136000064Y-76143476D01*
X135994593Y-76249960D01*
X135990378Y-76402112D01*
X135989287Y-76450287D01*
X135985307Y-76615095D01*
X135980781Y-76731088D01*
X135973995Y-76807833D01*
X135963231Y-76854893D01*
X135946773Y-76881835D01*
X135922906Y-76898223D01*
X135907626Y-76905463D01*
X135842733Y-76930220D01*
X135804534Y-76938391D01*
X135791912Y-76911103D01*
X135784208Y-76828603D01*
X135781380Y-76689941D01*
X135783386Y-76494162D01*
X135784011Y-76463965D01*
X135788421Y-76285349D01*
X135793635Y-76154923D01*
X135801055Y-76062492D01*
X135812082Y-75997858D01*
X135828117Y-75950825D01*
X135850561Y-75911196D01*
X135862302Y-75894215D01*
X135929619Y-75819080D01*
X136004910Y-75760638D01*
X136014128Y-75755536D01*
X136149133Y-75715260D01*
X136290943Y-75721920D01*
G36*
X136290943Y-75721920D02*
G01*
X136423565Y-75770859D01*
X136531010Y-75857419D01*
X136573032Y-75918352D01*
X136618843Y-76030161D01*
X136617891Y-76111006D01*
X136569808Y-76165378D01*
X136552017Y-76174624D01*
X136475204Y-76203450D01*
X136435976Y-76196065D01*
X136422689Y-76147658D01*
X136422012Y-76120920D01*
X136397686Y-76022548D01*
X136334281Y-75953734D01*
X136246154Y-75920498D01*
X136147663Y-75928861D01*
X136067602Y-75972296D01*
X136040561Y-75997072D01*
X136021394Y-76027129D01*
X136008446Y-76072565D01*
X136000064Y-76143476D01*
X135994593Y-76249960D01*
X135990378Y-76402112D01*
X135989287Y-76450287D01*
X135985307Y-76615095D01*
X135980781Y-76731088D01*
X135973995Y-76807833D01*
X135963231Y-76854893D01*
X135946773Y-76881835D01*
X135922906Y-76898223D01*
X135907626Y-76905463D01*
X135842733Y-76930220D01*
X135804534Y-76938391D01*
X135791912Y-76911103D01*
X135784208Y-76828603D01*
X135781380Y-76689941D01*
X135783386Y-76494162D01*
X135784011Y-76463965D01*
X135788421Y-76285349D01*
X135793635Y-76154923D01*
X135801055Y-76062492D01*
X135812082Y-75997858D01*
X135828117Y-75950825D01*
X135850561Y-75911196D01*
X135862302Y-75894215D01*
X135929619Y-75819080D01*
X136004910Y-75760638D01*
X136014128Y-75755536D01*
X136149133Y-75715260D01*
X136290943Y-75721920D01*
G37*
X138805124Y-75739840D02*
X138809579Y-75816653D01*
X138813071Y-75933391D01*
X138815315Y-76080821D01*
X138816035Y-76235455D01*
X138816035Y-76758727D01*
X138723645Y-76851117D01*
X138659978Y-76908047D01*
X138604089Y-76931107D01*
X138527702Y-76929647D01*
X138497380Y-76925934D01*
X138402610Y-76915126D01*
X138324222Y-76908933D01*
X138305115Y-76908361D01*
X138240699Y-76912102D01*
X138148571Y-76921494D01*
X138112850Y-76925934D01*
X138025114Y-76932801D01*
X137966153Y-76917885D01*
X137907690Y-76871835D01*
X137886585Y-76851117D01*
X137794195Y-76758727D01*
X137794195Y-75779947D01*
X137868558Y-75746066D01*
X137932590Y-75720970D01*
X137970052Y-75712184D01*
X137979657Y-75739950D01*
X137988635Y-75817530D01*
X137996386Y-75936348D01*
X138002314Y-76087828D01*
X138005173Y-76215805D01*
X138013161Y-76719425D01*
X138082848Y-76729278D01*
X138146229Y-76722389D01*
X138177286Y-76700083D01*
X138185967Y-76658379D01*
X138193378Y-76569544D01*
X138198931Y-76444834D01*
X138202036Y-76295507D01*
X138202484Y-76218661D01*
X138202931Y-75776287D01*
X138294874Y-75744235D01*
X138359949Y-75722443D01*
X138395347Y-75712281D01*
X138396368Y-75712184D01*
X138399920Y-75739809D01*
X138403823Y-75816411D01*
X138407751Y-75932579D01*
X138411376Y-76078904D01*
X138413908Y-76215805D01*
X138421897Y-76719425D01*
X138597069Y-76719425D01*
X138605107Y-76259965D01*
X138613146Y-75800505D01*
X138698543Y-75756344D01*
X138761593Y-75726019D01*
X138798910Y-75712258D01*
X138799987Y-75712184D01*
X138805124Y-75739840D01*
G36*
X138805124Y-75739840D02*
G01*
X138809579Y-75816653D01*
X138813071Y-75933391D01*
X138815315Y-76080821D01*
X138816035Y-76235455D01*
X138816035Y-76758727D01*
X138723645Y-76851117D01*
X138659978Y-76908047D01*
X138604089Y-76931107D01*
X138527702Y-76929647D01*
X138497380Y-76925934D01*
X138402610Y-76915126D01*
X138324222Y-76908933D01*
X138305115Y-76908361D01*
X138240699Y-76912102D01*
X138148571Y-76921494D01*
X138112850Y-76925934D01*
X138025114Y-76932801D01*
X137966153Y-76917885D01*
X137907690Y-76871835D01*
X137886585Y-76851117D01*
X137794195Y-76758727D01*
X137794195Y-75779947D01*
X137868558Y-75746066D01*
X137932590Y-75720970D01*
X137970052Y-75712184D01*
X137979657Y-75739950D01*
X137988635Y-75817530D01*
X137996386Y-75936348D01*
X138002314Y-76087828D01*
X138005173Y-76215805D01*
X138013161Y-76719425D01*
X138082848Y-76729278D01*
X138146229Y-76722389D01*
X138177286Y-76700083D01*
X138185967Y-76658379D01*
X138193378Y-76569544D01*
X138198931Y-76444834D01*
X138202036Y-76295507D01*
X138202484Y-76218661D01*
X138202931Y-75776287D01*
X138294874Y-75744235D01*
X138359949Y-75722443D01*
X138395347Y-75712281D01*
X138396368Y-75712184D01*
X138399920Y-75739809D01*
X138403823Y-75816411D01*
X138407751Y-75932579D01*
X138411376Y-76078904D01*
X138413908Y-76215805D01*
X138421897Y-76719425D01*
X138597069Y-76719425D01*
X138605107Y-76259965D01*
X138613146Y-75800505D01*
X138698543Y-75756344D01*
X138761593Y-75726019D01*
X138798910Y-75712258D01*
X138799987Y-75712184D01*
X138805124Y-75739840D01*
G37*
X133969598Y-75523857D02*
X133978154Y-75643188D01*
X133987981Y-75713506D01*
X134001599Y-75744179D01*
X134021527Y-75744571D01*
X134027989Y-75740910D01*
X134113940Y-75714398D01*
X134225745Y-75715946D01*
X134339414Y-75743199D01*
X134410510Y-75778455D01*
X134483405Y-75834778D01*
X134536693Y-75898519D01*
X134573275Y-75979510D01*
X134596050Y-76087586D01*
X134607919Y-76232580D01*
X134611782Y-76424326D01*
X134611851Y-76461109D01*
X134611897Y-76874288D01*
X134519954Y-76906339D01*
X134454652Y-76928144D01*
X134418824Y-76938297D01*
X134417770Y-76938391D01*
X134414242Y-76910860D01*
X134411239Y-76834923D01*
X134408990Y-76720565D01*
X134407724Y-76577769D01*
X134407529Y-76490951D01*
X134407123Y-76319773D01*
X134405032Y-76197088D01*
X134399947Y-76113000D01*
X134390560Y-76057614D01*
X134375561Y-76021032D01*
X134353642Y-75993359D01*
X134339957Y-75980032D01*
X134245949Y-75926328D01*
X134143364Y-75922307D01*
X134050290Y-75967725D01*
X134033078Y-75984123D01*
X134007832Y-76014957D01*
X133990320Y-76051531D01*
X133979142Y-76104415D01*
X133972896Y-76184177D01*
X133970182Y-76301385D01*
X133969598Y-76462991D01*
X133969598Y-76874288D01*
X133877655Y-76906339D01*
X133812353Y-76928144D01*
X133776525Y-76938297D01*
X133775471Y-76938391D01*
X133772775Y-76910448D01*
X133770345Y-76831630D01*
X133768278Y-76709453D01*
X133766671Y-76551432D01*
X133765623Y-76365083D01*
X133765231Y-76157920D01*
X133765230Y-76148706D01*
X133765230Y-75359020D01*
X133860115Y-75318997D01*
X133955000Y-75278973D01*
X133969598Y-75523857D01*
G36*
X133969598Y-75523857D02*
G01*
X133978154Y-75643188D01*
X133987981Y-75713506D01*
X134001599Y-75744179D01*
X134021527Y-75744571D01*
X134027989Y-75740910D01*
X134113940Y-75714398D01*
X134225745Y-75715946D01*
X134339414Y-75743199D01*
X134410510Y-75778455D01*
X134483405Y-75834778D01*
X134536693Y-75898519D01*
X134573275Y-75979510D01*
X134596050Y-76087586D01*
X134607919Y-76232580D01*
X134611782Y-76424326D01*
X134611851Y-76461109D01*
X134611897Y-76874288D01*
X134519954Y-76906339D01*
X134454652Y-76928144D01*
X134418824Y-76938297D01*
X134417770Y-76938391D01*
X134414242Y-76910860D01*
X134411239Y-76834923D01*
X134408990Y-76720565D01*
X134407724Y-76577769D01*
X134407529Y-76490951D01*
X134407123Y-76319773D01*
X134405032Y-76197088D01*
X134399947Y-76113000D01*
X134390560Y-76057614D01*
X134375561Y-76021032D01*
X134353642Y-75993359D01*
X134339957Y-75980032D01*
X134245949Y-75926328D01*
X134143364Y-75922307D01*
X134050290Y-75967725D01*
X134033078Y-75984123D01*
X134007832Y-76014957D01*
X133990320Y-76051531D01*
X133979142Y-76104415D01*
X133972896Y-76184177D01*
X133970182Y-76301385D01*
X133969598Y-76462991D01*
X133969598Y-76874288D01*
X133877655Y-76906339D01*
X133812353Y-76928144D01*
X133776525Y-76938297D01*
X133775471Y-76938391D01*
X133772775Y-76910448D01*
X133770345Y-76831630D01*
X133768278Y-76709453D01*
X133766671Y-76551432D01*
X133765623Y-76365083D01*
X133765231Y-76157920D01*
X133765230Y-76148706D01*
X133765230Y-75359020D01*
X133860115Y-75318997D01*
X133955000Y-75278973D01*
X133969598Y-75523857D01*
G37*
X129273221Y-75666015D02*
X129410061Y-75737968D01*
X129511051Y-75853766D01*
X129546925Y-75928213D01*
X129574839Y-76039992D01*
X129589129Y-76181227D01*
X129590484Y-76335371D01*
X129579595Y-76485879D01*
X129557153Y-76616205D01*
X129523850Y-76709803D01*
X129513615Y-76725922D01*
X129392382Y-76846249D01*
X129248387Y-76918317D01*
X129092139Y-76939408D01*
X128934148Y-76906802D01*
X128890180Y-76887253D01*
X128804556Y-76827012D01*
X128729408Y-76747135D01*
X128722306Y-76737004D01*
X128693439Y-76688181D01*
X128674357Y-76635990D01*
X128663084Y-76567285D01*
X128657645Y-76468918D01*
X128656062Y-76327744D01*
X128656035Y-76296092D01*
X128656107Y-76286019D01*
X128947989Y-76286019D01*
X128949687Y-76419256D01*
X128956372Y-76507674D01*
X128970425Y-76564785D01*
X128994229Y-76604102D01*
X129006379Y-76617241D01*
X129076236Y-76667172D01*
X129144059Y-76664895D01*
X129212635Y-76621584D01*
X129253535Y-76575346D01*
X129277758Y-76507857D01*
X129291361Y-76401433D01*
X129292294Y-76389020D01*
X129294616Y-76196147D01*
X129270350Y-76052900D01*
X129219824Y-75960160D01*
X129143368Y-75918807D01*
X129116076Y-75916552D01*
X129044411Y-75927893D01*
X128995390Y-75967184D01*
X128965418Y-76042326D01*
X128950899Y-76161222D01*
X128947989Y-76286019D01*
X128656107Y-76286019D01*
X128657122Y-76145659D01*
X128661688Y-76040549D01*
X128671688Y-75967714D01*
X128689079Y-75914108D01*
X128715816Y-75866681D01*
X128721724Y-75857864D01*
X128821032Y-75739007D01*
X128929242Y-75670008D01*
X129060981Y-75642619D01*
X129105717Y-75641281D01*
X129273221Y-75666015D01*
G36*
X129273221Y-75666015D02*
G01*
X129410061Y-75737968D01*
X129511051Y-75853766D01*
X129546925Y-75928213D01*
X129574839Y-76039992D01*
X129589129Y-76181227D01*
X129590484Y-76335371D01*
X129579595Y-76485879D01*
X129557153Y-76616205D01*
X129523850Y-76709803D01*
X129513615Y-76725922D01*
X129392382Y-76846249D01*
X129248387Y-76918317D01*
X129092139Y-76939408D01*
X128934148Y-76906802D01*
X128890180Y-76887253D01*
X128804556Y-76827012D01*
X128729408Y-76747135D01*
X128722306Y-76737004D01*
X128693439Y-76688181D01*
X128674357Y-76635990D01*
X128663084Y-76567285D01*
X128657645Y-76468918D01*
X128656062Y-76327744D01*
X128656035Y-76296092D01*
X128656107Y-76286019D01*
X128947989Y-76286019D01*
X128949687Y-76419256D01*
X128956372Y-76507674D01*
X128970425Y-76564785D01*
X128994229Y-76604102D01*
X129006379Y-76617241D01*
X129076236Y-76667172D01*
X129144059Y-76664895D01*
X129212635Y-76621584D01*
X129253535Y-76575346D01*
X129277758Y-76507857D01*
X129291361Y-76401433D01*
X129292294Y-76389020D01*
X129294616Y-76196147D01*
X129270350Y-76052900D01*
X129219824Y-75960160D01*
X129143368Y-75918807D01*
X129116076Y-75916552D01*
X129044411Y-75927893D01*
X128995390Y-75967184D01*
X128965418Y-76042326D01*
X128950899Y-76161222D01*
X128947989Y-76286019D01*
X128656107Y-76286019D01*
X128657122Y-76145659D01*
X128661688Y-76040549D01*
X128671688Y-75967714D01*
X128689079Y-75914108D01*
X128715816Y-75866681D01*
X128721724Y-75857864D01*
X128821032Y-75739007D01*
X128929242Y-75670008D01*
X129060981Y-75642619D01*
X129105717Y-75641281D01*
X129273221Y-75666015D01*
G37*
X141568439Y-75756540D02*
X141683950Y-75832034D01*
X141739664Y-75899617D01*
X141783804Y-76022255D01*
X141787309Y-76119298D01*
X141779368Y-76249056D01*
X141480115Y-76380039D01*
X141334611Y-76446958D01*
X141239537Y-76500790D01*
X141190101Y-76547416D01*
X141181511Y-76592720D01*
X141208972Y-76642582D01*
X141239253Y-76675632D01*
X141327363Y-76728633D01*
X141423196Y-76732347D01*
X141511212Y-76691041D01*
X141575869Y-76608983D01*
X141587433Y-76580008D01*
X141642825Y-76489509D01*
X141706553Y-76450940D01*
X141793966Y-76417946D01*
X141793966Y-76543034D01*
X141786238Y-76628156D01*
X141755966Y-76699938D01*
X141692518Y-76782356D01*
X141683088Y-76793066D01*
X141612513Y-76866391D01*
X141551847Y-76905742D01*
X141475950Y-76923845D01*
X141413030Y-76929774D01*
X141300487Y-76931251D01*
X141220370Y-76912535D01*
X141170390Y-76884747D01*
X141091838Y-76823641D01*
X141037463Y-76757554D01*
X141003052Y-76674441D01*
X140984388Y-76562254D01*
X140977256Y-76408946D01*
X140976687Y-76331136D01*
X140978622Y-76237853D01*
X141154899Y-76237853D01*
X141156944Y-76287896D01*
X141162039Y-76296092D01*
X141195666Y-76284958D01*
X141268030Y-76255493D01*
X141364747Y-76213601D01*
X141384973Y-76204597D01*
X141507203Y-76142442D01*
X141574547Y-76087815D01*
X141589348Y-76036649D01*
X141553947Y-75984876D01*
X141524711Y-75962000D01*
X141419216Y-75916250D01*
X141320476Y-75923808D01*
X141237812Y-75979651D01*
X141180548Y-76078753D01*
X141162188Y-76157414D01*
X141154899Y-76237853D01*
X140978622Y-76237853D01*
X140980459Y-76149351D01*
X140994359Y-76014853D01*
X141021894Y-75916916D01*
X141066572Y-75844811D01*
X141131901Y-75787813D01*
X141160383Y-75769393D01*
X141289763Y-75721422D01*
X141431412Y-75718403D01*
X141568439Y-75756540D01*
G36*
X141568439Y-75756540D02*
G01*
X141683950Y-75832034D01*
X141739664Y-75899617D01*
X141783804Y-76022255D01*
X141787309Y-76119298D01*
X141779368Y-76249056D01*
X141480115Y-76380039D01*
X141334611Y-76446958D01*
X141239537Y-76500790D01*
X141190101Y-76547416D01*
X141181511Y-76592720D01*
X141208972Y-76642582D01*
X141239253Y-76675632D01*
X141327363Y-76728633D01*
X141423196Y-76732347D01*
X141511212Y-76691041D01*
X141575869Y-76608983D01*
X141587433Y-76580008D01*
X141642825Y-76489509D01*
X141706553Y-76450940D01*
X141793966Y-76417946D01*
X141793966Y-76543034D01*
X141786238Y-76628156D01*
X141755966Y-76699938D01*
X141692518Y-76782356D01*
X141683088Y-76793066D01*
X141612513Y-76866391D01*
X141551847Y-76905742D01*
X141475950Y-76923845D01*
X141413030Y-76929774D01*
X141300487Y-76931251D01*
X141220370Y-76912535D01*
X141170390Y-76884747D01*
X141091838Y-76823641D01*
X141037463Y-76757554D01*
X141003052Y-76674441D01*
X140984388Y-76562254D01*
X140977256Y-76408946D01*
X140976687Y-76331136D01*
X140978622Y-76237853D01*
X141154899Y-76237853D01*
X141156944Y-76287896D01*
X141162039Y-76296092D01*
X141195666Y-76284958D01*
X141268030Y-76255493D01*
X141364747Y-76213601D01*
X141384973Y-76204597D01*
X141507203Y-76142442D01*
X141574547Y-76087815D01*
X141589348Y-76036649D01*
X141553947Y-75984876D01*
X141524711Y-75962000D01*
X141419216Y-75916250D01*
X141320476Y-75923808D01*
X141237812Y-75979651D01*
X141180548Y-76078753D01*
X141162188Y-76157414D01*
X141154899Y-76237853D01*
X140978622Y-76237853D01*
X140980459Y-76149351D01*
X140994359Y-76014853D01*
X141021894Y-75916916D01*
X141066572Y-75844811D01*
X141131901Y-75787813D01*
X141160383Y-75769393D01*
X141289763Y-75721422D01*
X141431412Y-75718403D01*
X141568439Y-75756540D01*
G37*
X137618914Y-75954455D02*
X137618543Y-76172661D01*
X137617108Y-76340519D01*
X137614002Y-76466070D01*
X137608622Y-76557355D01*
X137600362Y-76622415D01*
X137588616Y-76669291D01*
X137572781Y-76706024D01*
X137560790Y-76726991D01*
X137461490Y-76840694D01*
X137335588Y-76911965D01*
X137196291Y-76937538D01*
X137056805Y-76914150D01*
X136973743Y-76872119D01*
X136886545Y-76799411D01*
X136827117Y-76710612D01*
X136791261Y-76594320D01*
X136774781Y-76439135D01*
X136772447Y-76325287D01*
X136772761Y-76317106D01*
X136976724Y-76317106D01*
X136977970Y-76447657D01*
X136983678Y-76534080D01*
X136996804Y-76590618D01*
X137020306Y-76631514D01*
X137048386Y-76662362D01*
X137142688Y-76721905D01*
X137243940Y-76726992D01*
X137339636Y-76677279D01*
X137347084Y-76670543D01*
X137378874Y-76635502D01*
X137398808Y-76593811D01*
X137409600Y-76531762D01*
X137413965Y-76435644D01*
X137414655Y-76329379D01*
X137413159Y-76195880D01*
X137406964Y-76106822D01*
X137393514Y-76048293D01*
X137370251Y-76006382D01*
X137351175Y-75984123D01*
X137262563Y-75927985D01*
X137160508Y-75921235D01*
X137063095Y-75964114D01*
X137044296Y-75980032D01*
X137012293Y-76015382D01*
X136992318Y-76057502D01*
X136981593Y-76120251D01*
X136977339Y-76217487D01*
X136976724Y-76317106D01*
X136772761Y-76317106D01*
X136779504Y-76141947D01*
X136803472Y-76004195D01*
X136848548Y-75900632D01*
X136918928Y-75819856D01*
X136973743Y-75778455D01*
X137073376Y-75733728D01*
X137188855Y-75712967D01*
X137296199Y-75718525D01*
X137356264Y-75740943D01*
X137379835Y-75747323D01*
X137395477Y-75723535D01*
X137406395Y-75659788D01*
X137414655Y-75562687D01*
X137423699Y-75454541D01*
X137436261Y-75389475D01*
X137459119Y-75352268D01*
X137499051Y-75327699D01*
X137524138Y-75316819D01*
X137619023Y-75277072D01*
X137618914Y-75954455D01*
G36*
X137618914Y-75954455D02*
G01*
X137618543Y-76172661D01*
X137617108Y-76340519D01*
X137614002Y-76466070D01*
X137608622Y-76557355D01*
X137600362Y-76622415D01*
X137588616Y-76669291D01*
X137572781Y-76706024D01*
X137560790Y-76726991D01*
X137461490Y-76840694D01*
X137335588Y-76911965D01*
X137196291Y-76937538D01*
X137056805Y-76914150D01*
X136973743Y-76872119D01*
X136886545Y-76799411D01*
X136827117Y-76710612D01*
X136791261Y-76594320D01*
X136774781Y-76439135D01*
X136772447Y-76325287D01*
X136772761Y-76317106D01*
X136976724Y-76317106D01*
X136977970Y-76447657D01*
X136983678Y-76534080D01*
X136996804Y-76590618D01*
X137020306Y-76631514D01*
X137048386Y-76662362D01*
X137142688Y-76721905D01*
X137243940Y-76726992D01*
X137339636Y-76677279D01*
X137347084Y-76670543D01*
X137378874Y-76635502D01*
X137398808Y-76593811D01*
X137409600Y-76531762D01*
X137413965Y-76435644D01*
X137414655Y-76329379D01*
X137413159Y-76195880D01*
X137406964Y-76106822D01*
X137393514Y-76048293D01*
X137370251Y-76006382D01*
X137351175Y-75984123D01*
X137262563Y-75927985D01*
X137160508Y-75921235D01*
X137063095Y-75964114D01*
X137044296Y-75980032D01*
X137012293Y-76015382D01*
X136992318Y-76057502D01*
X136981593Y-76120251D01*
X136977339Y-76217487D01*
X136976724Y-76317106D01*
X136772761Y-76317106D01*
X136779504Y-76141947D01*
X136803472Y-76004195D01*
X136848548Y-75900632D01*
X136918928Y-75819856D01*
X136973743Y-75778455D01*
X137073376Y-75733728D01*
X137188855Y-75712967D01*
X137296199Y-75718525D01*
X137356264Y-75740943D01*
X137379835Y-75747323D01*
X137395477Y-75723535D01*
X137406395Y-75659788D01*
X137414655Y-75562687D01*
X137423699Y-75454541D01*
X137436261Y-75389475D01*
X137459119Y-75352268D01*
X137499051Y-75327699D01*
X137524138Y-75316819D01*
X137619023Y-75277072D01*
X137618914Y-75954455D01*
G37*
X131540552Y-75684676D02*
X131655658Y-75762111D01*
X131744611Y-75873949D01*
X131797749Y-76016265D01*
X131808497Y-76121015D01*
X131807276Y-76164726D01*
X131797056Y-76198194D01*
X131768961Y-76228179D01*
X131714116Y-76261440D01*
X131623645Y-76304738D01*
X131488672Y-76364833D01*
X131487989Y-76365134D01*
X131363751Y-76422037D01*
X131261873Y-76472565D01*
X131192767Y-76511280D01*
X131166846Y-76532740D01*
X131166839Y-76532913D01*
X131189685Y-76579644D01*
X131243109Y-76631154D01*
X131304442Y-76668261D01*
X131335515Y-76675632D01*
X131420289Y-76650138D01*
X131493293Y-76586291D01*
X131528913Y-76516094D01*
X131563180Y-76464343D01*
X131630303Y-76405409D01*
X131709208Y-76354496D01*
X131778821Y-76326809D01*
X131793377Y-76325287D01*
X131809763Y-76350321D01*
X131810750Y-76414311D01*
X131798708Y-76500593D01*
X131776007Y-76592501D01*
X131745014Y-76673369D01*
X131743448Y-76676509D01*
X131650181Y-76806734D01*
X131529304Y-76895311D01*
X131392027Y-76938786D01*
X131249560Y-76933706D01*
X131113112Y-76876616D01*
X131107045Y-76872602D01*
X130999710Y-76775326D01*
X130929132Y-76648409D01*
X130890074Y-76481526D01*
X130884832Y-76434639D01*
X130875548Y-76213329D01*
X130886678Y-76110124D01*
X131166839Y-76110124D01*
X131170479Y-76174503D01*
X131190389Y-76193291D01*
X131240026Y-76179235D01*
X131318267Y-76146009D01*
X131405726Y-76104359D01*
X131407899Y-76103256D01*
X131482030Y-76064265D01*
X131511781Y-76038244D01*
X131504445Y-76010965D01*
X131473553Y-75975121D01*
X131394960Y-75923251D01*
X131310323Y-75919439D01*
X131234403Y-75957189D01*
X131181965Y-76030001D01*
X131166839Y-76110124D01*
X130886678Y-76110124D01*
X130894644Y-76036261D01*
X130943634Y-75895829D01*
X131011836Y-75797447D01*
X131134935Y-75698030D01*
X131270528Y-75648711D01*
X131408955Y-75645568D01*
X131540552Y-75684676D01*
G36*
X131540552Y-75684676D02*
G01*
X131655658Y-75762111D01*
X131744611Y-75873949D01*
X131797749Y-76016265D01*
X131808497Y-76121015D01*
X131807276Y-76164726D01*
X131797056Y-76198194D01*
X131768961Y-76228179D01*
X131714116Y-76261440D01*
X131623645Y-76304738D01*
X131488672Y-76364833D01*
X131487989Y-76365134D01*
X131363751Y-76422037D01*
X131261873Y-76472565D01*
X131192767Y-76511280D01*
X131166846Y-76532740D01*
X131166839Y-76532913D01*
X131189685Y-76579644D01*
X131243109Y-76631154D01*
X131304442Y-76668261D01*
X131335515Y-76675632D01*
X131420289Y-76650138D01*
X131493293Y-76586291D01*
X131528913Y-76516094D01*
X131563180Y-76464343D01*
X131630303Y-76405409D01*
X131709208Y-76354496D01*
X131778821Y-76326809D01*
X131793377Y-76325287D01*
X131809763Y-76350321D01*
X131810750Y-76414311D01*
X131798708Y-76500593D01*
X131776007Y-76592501D01*
X131745014Y-76673369D01*
X131743448Y-76676509D01*
X131650181Y-76806734D01*
X131529304Y-76895311D01*
X131392027Y-76938786D01*
X131249560Y-76933706D01*
X131113112Y-76876616D01*
X131107045Y-76872602D01*
X130999710Y-76775326D01*
X130929132Y-76648409D01*
X130890074Y-76481526D01*
X130884832Y-76434639D01*
X130875548Y-76213329D01*
X130886678Y-76110124D01*
X131166839Y-76110124D01*
X131170479Y-76174503D01*
X131190389Y-76193291D01*
X131240026Y-76179235D01*
X131318267Y-76146009D01*
X131405726Y-76104359D01*
X131407899Y-76103256D01*
X131482030Y-76064265D01*
X131511781Y-76038244D01*
X131504445Y-76010965D01*
X131473553Y-75975121D01*
X131394960Y-75923251D01*
X131310323Y-75919439D01*
X131234403Y-75957189D01*
X131181965Y-76030001D01*
X131166839Y-76110124D01*
X130886678Y-76110124D01*
X130894644Y-76036261D01*
X130943634Y-75895829D01*
X131011836Y-75797447D01*
X131134935Y-75698030D01*
X131270528Y-75648711D01*
X131408955Y-75645568D01*
X131540552Y-75684676D01*
G37*
X135304944Y-75724360D02*
X135419343Y-75766842D01*
X135420652Y-75767658D01*
X135491403Y-75819730D01*
X135543636Y-75880584D01*
X135580371Y-75959887D01*
X135604634Y-76067309D01*
X135619445Y-76212517D01*
X135627829Y-76405179D01*
X135628564Y-76432628D01*
X135639120Y-76846521D01*
X135550291Y-76892456D01*
X135486018Y-76923498D01*
X135447210Y-76938206D01*
X135445415Y-76938391D01*
X135438700Y-76911250D01*
X135433365Y-76838041D01*
X135430083Y-76731081D01*
X135429368Y-76644469D01*
X135429351Y-76504162D01*
X135422937Y-76416051D01*
X135400580Y-76374025D01*
X135352732Y-76371975D01*
X135269849Y-76403790D01*
X135144713Y-76462272D01*
X135052697Y-76510845D01*
X135005371Y-76552986D01*
X134991458Y-76598916D01*
X134991437Y-76601189D01*
X135014395Y-76680311D01*
X135082370Y-76723055D01*
X135186398Y-76729246D01*
X135261330Y-76728172D01*
X135300839Y-76749753D01*
X135325478Y-76801591D01*
X135339659Y-76867632D01*
X135319223Y-76905104D01*
X135311528Y-76910467D01*
X135239083Y-76932006D01*
X135137633Y-76935055D01*
X135033157Y-76920778D01*
X134959125Y-76894688D01*
X134856772Y-76807785D01*
X134798591Y-76686816D01*
X134787069Y-76592308D01*
X134795862Y-76507062D01*
X134827680Y-76437476D01*
X134890684Y-76375672D01*
X134993031Y-76313772D01*
X135142882Y-76243897D01*
X135152012Y-76239948D01*
X135286997Y-76177588D01*
X135370294Y-76126446D01*
X135405997Y-76080488D01*
X135398203Y-76033683D01*
X135351007Y-75979998D01*
X135336894Y-75967644D01*
X135242359Y-75919741D01*
X135144406Y-75921758D01*
X135059097Y-75968724D01*
X135002496Y-76055669D01*
X134997237Y-76072734D01*
X134946023Y-76155504D01*
X134881037Y-76195372D01*
X134787069Y-76234882D01*
X134787069Y-76132658D01*
X134815653Y-75984072D01*
X134900495Y-75847784D01*
X134944645Y-75802191D01*
X135045005Y-75743674D01*
X135172635Y-75717184D01*
X135304944Y-75724360D01*
G36*
X135304944Y-75724360D02*
G01*
X135419343Y-75766842D01*
X135420652Y-75767658D01*
X135491403Y-75819730D01*
X135543636Y-75880584D01*
X135580371Y-75959887D01*
X135604634Y-76067309D01*
X135619445Y-76212517D01*
X135627829Y-76405179D01*
X135628564Y-76432628D01*
X135639120Y-76846521D01*
X135550291Y-76892456D01*
X135486018Y-76923498D01*
X135447210Y-76938206D01*
X135445415Y-76938391D01*
X135438700Y-76911250D01*
X135433365Y-76838041D01*
X135430083Y-76731081D01*
X135429368Y-76644469D01*
X135429351Y-76504162D01*
X135422937Y-76416051D01*
X135400580Y-76374025D01*
X135352732Y-76371975D01*
X135269849Y-76403790D01*
X135144713Y-76462272D01*
X135052697Y-76510845D01*
X135005371Y-76552986D01*
X134991458Y-76598916D01*
X134991437Y-76601189D01*
X135014395Y-76680311D01*
X135082370Y-76723055D01*
X135186398Y-76729246D01*
X135261330Y-76728172D01*
X135300839Y-76749753D01*
X135325478Y-76801591D01*
X135339659Y-76867632D01*
X135319223Y-76905104D01*
X135311528Y-76910467D01*
X135239083Y-76932006D01*
X135137633Y-76935055D01*
X135033157Y-76920778D01*
X134959125Y-76894688D01*
X134856772Y-76807785D01*
X134798591Y-76686816D01*
X134787069Y-76592308D01*
X134795862Y-76507062D01*
X134827680Y-76437476D01*
X134890684Y-76375672D01*
X134993031Y-76313772D01*
X135142882Y-76243897D01*
X135152012Y-76239948D01*
X135286997Y-76177588D01*
X135370294Y-76126446D01*
X135405997Y-76080488D01*
X135398203Y-76033683D01*
X135351007Y-75979998D01*
X135336894Y-75967644D01*
X135242359Y-75919741D01*
X135144406Y-75921758D01*
X135059097Y-75968724D01*
X135002496Y-76055669D01*
X134997237Y-76072734D01*
X134946023Y-76155504D01*
X134881037Y-76195372D01*
X134787069Y-76234882D01*
X134787069Y-76132658D01*
X134815653Y-75984072D01*
X134900495Y-75847784D01*
X134944645Y-75802191D01*
X135045005Y-75743674D01*
X135172635Y-75717184D01*
X135304944Y-75724360D01*
G37*
X130396900Y-75661903D02*
X130508450Y-75717522D01*
X130606908Y-75819931D01*
X130634023Y-75857864D01*
X130663562Y-75907500D01*
X130682728Y-75961412D01*
X130693693Y-76033364D01*
X130698629Y-76137122D01*
X130699713Y-76274101D01*
X130694818Y-76461815D01*
X130677804Y-76602758D01*
X130645177Y-76707908D01*
X130593442Y-76788243D01*
X130519104Y-76854741D01*
X130513642Y-76858678D01*
X130440380Y-76898953D01*
X130352160Y-76918880D01*
X130239962Y-76923793D01*
X130057567Y-76923793D01*
X130057491Y-77100857D01*
X130055793Y-77199470D01*
X130045450Y-77257314D01*
X130018422Y-77292006D01*
X129966668Y-77321164D01*
X129954239Y-77327121D01*
X129896077Y-77355039D01*
X129851044Y-77372672D01*
X129817559Y-77374194D01*
X129794038Y-77353781D01*
X129778900Y-77305607D01*
X129770563Y-77223846D01*
X129767444Y-77102672D01*
X129767960Y-76936260D01*
X129770529Y-76718785D01*
X129771332Y-76653736D01*
X129774222Y-76429502D01*
X129776812Y-76282821D01*
X130057414Y-76282821D01*
X130058991Y-76407326D01*
X130066000Y-76488787D01*
X130081858Y-76542515D01*
X130109981Y-76583823D01*
X130129075Y-76603971D01*
X130207135Y-76662921D01*
X130276247Y-76667720D01*
X130347560Y-76619038D01*
X130349368Y-76617241D01*
X130378383Y-76579618D01*
X130396033Y-76528484D01*
X130404936Y-76449738D01*
X130407709Y-76329276D01*
X130407759Y-76302588D01*
X130401058Y-76136583D01*
X130379248Y-76021505D01*
X130339765Y-75951254D01*
X130280044Y-75919729D01*
X130245528Y-75916552D01*
X130163611Y-75931460D01*
X130107421Y-75980548D01*
X130073598Y-76070362D01*
X130058780Y-76207445D01*
X130057414Y-76282821D01*
X129776812Y-76282821D01*
X129777287Y-76255952D01*
X129781247Y-76125382D01*
X129786826Y-76030087D01*
X129794746Y-75962364D01*
X129805731Y-75914507D01*
X129820501Y-75878813D01*
X129839782Y-75847578D01*
X129848049Y-75835824D01*
X129957712Y-75724797D01*
X130096365Y-75661847D01*
X130256754Y-75644297D01*
X130396900Y-75661903D01*
G36*
X130396900Y-75661903D02*
G01*
X130508450Y-75717522D01*
X130606908Y-75819931D01*
X130634023Y-75857864D01*
X130663562Y-75907500D01*
X130682728Y-75961412D01*
X130693693Y-76033364D01*
X130698629Y-76137122D01*
X130699713Y-76274101D01*
X130694818Y-76461815D01*
X130677804Y-76602758D01*
X130645177Y-76707908D01*
X130593442Y-76788243D01*
X130519104Y-76854741D01*
X130513642Y-76858678D01*
X130440380Y-76898953D01*
X130352160Y-76918880D01*
X130239962Y-76923793D01*
X130057567Y-76923793D01*
X130057491Y-77100857D01*
X130055793Y-77199470D01*
X130045450Y-77257314D01*
X130018422Y-77292006D01*
X129966668Y-77321164D01*
X129954239Y-77327121D01*
X129896077Y-77355039D01*
X129851044Y-77372672D01*
X129817559Y-77374194D01*
X129794038Y-77353781D01*
X129778900Y-77305607D01*
X129770563Y-77223846D01*
X129767444Y-77102672D01*
X129767960Y-76936260D01*
X129770529Y-76718785D01*
X129771332Y-76653736D01*
X129774222Y-76429502D01*
X129776812Y-76282821D01*
X130057414Y-76282821D01*
X130058991Y-76407326D01*
X130066000Y-76488787D01*
X130081858Y-76542515D01*
X130109981Y-76583823D01*
X130129075Y-76603971D01*
X130207135Y-76662921D01*
X130276247Y-76667720D01*
X130347560Y-76619038D01*
X130349368Y-76617241D01*
X130378383Y-76579618D01*
X130396033Y-76528484D01*
X130404936Y-76449738D01*
X130407709Y-76329276D01*
X130407759Y-76302588D01*
X130401058Y-76136583D01*
X130379248Y-76021505D01*
X130339765Y-75951254D01*
X130280044Y-75919729D01*
X130245528Y-75916552D01*
X130163611Y-75931460D01*
X130107421Y-75980548D01*
X130073598Y-76070362D01*
X130058780Y-76207445D01*
X130057414Y-76282821D01*
X129776812Y-76282821D01*
X129777287Y-76255952D01*
X129781247Y-76125382D01*
X129786826Y-76030087D01*
X129794746Y-75962364D01*
X129805731Y-75914507D01*
X129820501Y-75878813D01*
X129839782Y-75847578D01*
X129848049Y-75835824D01*
X129957712Y-75724797D01*
X130096365Y-75661847D01*
X130256754Y-75644297D01*
X130396900Y-75661903D01*
G37*
X139539406Y-75735156D02*
X139623469Y-75773393D01*
X139689450Y-75819726D01*
X139737794Y-75871532D01*
X139771172Y-75938363D01*
X139792253Y-76029769D01*
X139803707Y-76155301D01*
X139808203Y-76324508D01*
X139808678Y-76435933D01*
X139808678Y-76870627D01*
X139734316Y-76904509D01*
X139675746Y-76929272D01*
X139646730Y-76938391D01*
X139641179Y-76911257D01*
X139636775Y-76838094D01*
X139634078Y-76731263D01*
X139633506Y-76646437D01*
X139631046Y-76523887D01*
X139624412Y-76426668D01*
X139614726Y-76367134D01*
X139607032Y-76354483D01*
X139555311Y-76367402D01*
X139474117Y-76400539D01*
X139380102Y-76445461D01*
X139289917Y-76493735D01*
X139220215Y-76536928D01*
X139187648Y-76566608D01*
X139187519Y-76566929D01*
X139190320Y-76621857D01*
X139215439Y-76674292D01*
X139259541Y-76716881D01*
X139323909Y-76731126D01*
X139378921Y-76729466D01*
X139456835Y-76728245D01*
X139497732Y-76746498D01*
X139522295Y-76794726D01*
X139525392Y-76803820D01*
X139536040Y-76872598D01*
X139507565Y-76914360D01*
X139433344Y-76934263D01*
X139353168Y-76937944D01*
X139208890Y-76910658D01*
X139134203Y-76871690D01*
X139041963Y-76780148D01*
X138993043Y-76667782D01*
X138988654Y-76549051D01*
X139030001Y-76438411D01*
X139092197Y-76369080D01*
X139154294Y-76330265D01*
X139251895Y-76281125D01*
X139365632Y-76231292D01*
X139384590Y-76223677D01*
X139509521Y-76168545D01*
X139581539Y-76119954D01*
X139604700Y-76071647D01*
X139583064Y-76017370D01*
X139545920Y-75974943D01*
X139458127Y-75922702D01*
X139361530Y-75918784D01*
X139272944Y-75959041D01*
X139209186Y-76039326D01*
X139200817Y-76060040D01*
X139152096Y-76136225D01*
X139080965Y-76192785D01*
X138991207Y-76239201D01*
X138991207Y-76107584D01*
X138996490Y-76027168D01*
X139019142Y-75963786D01*
X139069367Y-75896163D01*
X139117582Y-75844076D01*
X139192554Y-75770322D01*
X139250806Y-75730702D01*
X139313372Y-75714810D01*
X139384193Y-75712184D01*
X139539406Y-75735156D01*
G36*
X139539406Y-75735156D02*
G01*
X139623469Y-75773393D01*
X139689450Y-75819726D01*
X139737794Y-75871532D01*
X139771172Y-75938363D01*
X139792253Y-76029769D01*
X139803707Y-76155301D01*
X139808203Y-76324508D01*
X139808678Y-76435933D01*
X139808678Y-76870627D01*
X139734316Y-76904509D01*
X139675746Y-76929272D01*
X139646730Y-76938391D01*
X139641179Y-76911257D01*
X139636775Y-76838094D01*
X139634078Y-76731263D01*
X139633506Y-76646437D01*
X139631046Y-76523887D01*
X139624412Y-76426668D01*
X139614726Y-76367134D01*
X139607032Y-76354483D01*
X139555311Y-76367402D01*
X139474117Y-76400539D01*
X139380102Y-76445461D01*
X139289917Y-76493735D01*
X139220215Y-76536928D01*
X139187648Y-76566608D01*
X139187519Y-76566929D01*
X139190320Y-76621857D01*
X139215439Y-76674292D01*
X139259541Y-76716881D01*
X139323909Y-76731126D01*
X139378921Y-76729466D01*
X139456835Y-76728245D01*
X139497732Y-76746498D01*
X139522295Y-76794726D01*
X139525392Y-76803820D01*
X139536040Y-76872598D01*
X139507565Y-76914360D01*
X139433344Y-76934263D01*
X139353168Y-76937944D01*
X139208890Y-76910658D01*
X139134203Y-76871690D01*
X139041963Y-76780148D01*
X138993043Y-76667782D01*
X138988654Y-76549051D01*
X139030001Y-76438411D01*
X139092197Y-76369080D01*
X139154294Y-76330265D01*
X139251895Y-76281125D01*
X139365632Y-76231292D01*
X139384590Y-76223677D01*
X139509521Y-76168545D01*
X139581539Y-76119954D01*
X139604700Y-76071647D01*
X139583064Y-76017370D01*
X139545920Y-75974943D01*
X139458127Y-75922702D01*
X139361530Y-75918784D01*
X139272944Y-75959041D01*
X139209186Y-76039326D01*
X139200817Y-76060040D01*
X139152096Y-76136225D01*
X139080965Y-76192785D01*
X138991207Y-76239201D01*
X138991207Y-76107584D01*
X138996490Y-76027168D01*
X139019142Y-75963786D01*
X139069367Y-75896163D01*
X139117582Y-75844076D01*
X139192554Y-75770322D01*
X139250806Y-75730702D01*
X139313372Y-75714810D01*
X139384193Y-75712184D01*
X139539406Y-75735156D01*
G37*
X135434014Y-66252998D02*
X135592006Y-66253863D01*
X135706347Y-66256205D01*
X135784407Y-66260762D01*
X135833554Y-66268270D01*
X135861159Y-66279466D01*
X135874592Y-66295088D01*
X135881221Y-66315873D01*
X135881865Y-66318563D01*
X135891935Y-66367113D01*
X135910575Y-66462905D01*
X135935845Y-66595743D01*
X135965807Y-66755431D01*
X135998522Y-66931774D01*
X135999664Y-66937967D01*
X136032433Y-67110782D01*
X136063093Y-67263469D01*
X136089664Y-67386871D01*
X136110167Y-67471831D01*
X136122626Y-67509190D01*
X136123220Y-67509852D01*
X136159919Y-67528095D01*
X136235586Y-67558497D01*
X136333878Y-67594493D01*
X136334425Y-67594685D01*
X136458233Y-67641222D01*
X136604196Y-67700504D01*
X136741781Y-67760109D01*
X136748293Y-67763056D01*
X136972390Y-67864765D01*
X137468619Y-67525897D01*
X137620846Y-67422592D01*
X137758741Y-67330237D01*
X137874315Y-67254084D01*
X137959579Y-67199385D01*
X138006544Y-67171393D01*
X138011004Y-67169317D01*
X138045134Y-67178560D01*
X138108881Y-67223156D01*
X138204731Y-67305209D01*
X138335169Y-67426821D01*
X138468328Y-67556205D01*
X138596694Y-67683702D01*
X138711581Y-67800046D01*
X138806073Y-67898052D01*
X138873253Y-67970536D01*
X138906206Y-68010313D01*
X138907432Y-68012361D01*
X138911074Y-68039656D01*
X138897350Y-68084234D01*
X138862869Y-68152112D01*
X138804239Y-68249311D01*
X138718070Y-68381851D01*
X138603200Y-68552476D01*
X138501254Y-68702655D01*
X138410123Y-68837350D01*
X138335073Y-68948740D01*
X138281369Y-69029005D01*
X138254280Y-69070325D01*
X138252574Y-69073130D01*
X138255882Y-69112721D01*
X138280953Y-69189669D01*
X138322798Y-69289432D01*
X138337712Y-69321291D01*
X138402786Y-69463226D01*
X138472212Y-69624273D01*
X138528609Y-69763621D01*
X138569247Y-69867044D01*
X138601526Y-69945642D01*
X138620178Y-69986720D01*
X138622497Y-69989885D01*
X138656803Y-69995128D01*
X138737669Y-70009494D01*
X138854343Y-70030937D01*
X138996075Y-70057413D01*
X139152110Y-70086877D01*
X139311698Y-70117283D01*
X139464085Y-70146588D01*
X139598521Y-70172745D01*
X139704252Y-70193710D01*
X139770526Y-70207439D01*
X139786782Y-70211320D01*
X139803573Y-70220900D01*
X139816249Y-70242536D01*
X139825378Y-70283531D01*
X139831531Y-70351189D01*
X139835280Y-70452812D01*
X139837192Y-70595703D01*
X139837840Y-70787165D01*
X139837874Y-70865645D01*
X139837874Y-71503906D01*
X139684598Y-71534160D01*
X139599322Y-71550564D01*
X139472070Y-71574509D01*
X139318315Y-71603107D01*
X139153534Y-71633467D01*
X139107989Y-71641806D01*
X138955932Y-71671370D01*
X138823468Y-71700442D01*
X138721714Y-71726329D01*
X138661788Y-71746337D01*
X138651805Y-71752301D01*
X138627293Y-71794534D01*
X138592148Y-71876370D01*
X138553173Y-71981683D01*
X138545442Y-72004368D01*
X138494360Y-72145018D01*
X138430954Y-72303714D01*
X138368904Y-72446225D01*
X138368598Y-72446886D01*
X138265267Y-72670440D01*
X138944961Y-73670232D01*
X138508621Y-74107300D01*
X138376649Y-74237381D01*
X138256279Y-74352048D01*
X138154273Y-74445181D01*
X138077391Y-74510658D01*
X138032393Y-74542357D01*
X138025938Y-74544368D01*
X137988040Y-74528529D01*
X137910708Y-74484496D01*
X137802389Y-74417490D01*
X137671532Y-74332734D01*
X137530052Y-74237816D01*
X137386461Y-74140998D01*
X137258435Y-74056751D01*
X137154105Y-73990258D01*
X137081600Y-73946702D01*
X137049158Y-73931264D01*
X137009576Y-73944328D01*
X136934519Y-73978750D01*
X136839468Y-74027380D01*
X136829392Y-74032785D01*
X136701391Y-74096980D01*
X136613618Y-74128463D01*
X136559028Y-74128798D01*
X136530575Y-74099548D01*
X136530410Y-74099138D01*
X136516188Y-74064498D01*
X136482269Y-73982269D01*
X136431284Y-73858814D01*
X136365862Y-73700498D01*
X136288634Y-73513686D01*
X136202229Y-73304742D01*
X136118551Y-73102446D01*
X136026588Y-72879200D01*
X135942150Y-72672392D01*
X135867769Y-72488362D01*
X135805974Y-72333451D01*
X135759297Y-72213996D01*
X135730268Y-72136339D01*
X135721322Y-72107356D01*
X135743756Y-72074110D01*
X135802439Y-72021123D01*
X135880689Y-71962704D01*
X136103534Y-71777952D01*
X136277718Y-71566182D01*
X136401154Y-71331856D01*
X136471754Y-71079434D01*
X136487431Y-70813377D01*
X136476036Y-70690575D01*
X136413950Y-70435793D01*
X136307023Y-70210801D01*
X136161889Y-70017817D01*
X135985178Y-69859061D01*
X135783522Y-69736750D01*
X135563554Y-69653105D01*
X135331906Y-69610344D01*
X135095209Y-69610687D01*
X134860095Y-69656352D01*
X134633196Y-69749559D01*
X134421144Y-69892527D01*
X134332636Y-69973383D01*
X134162889Y-70181007D01*
X134044699Y-70407895D01*
X133977278Y-70647433D01*
X133959840Y-70893007D01*
X133991598Y-71138003D01*
X134071765Y-71375808D01*
X134199555Y-71599807D01*
X134374180Y-71803387D01*
X134569312Y-71962704D01*
X134650591Y-72023602D01*
X134708009Y-72076015D01*
X134728678Y-72107406D01*
X134717856Y-72141639D01*
X134687077Y-72223419D01*
X134638874Y-72346407D01*
X134575778Y-72504263D01*
X134500322Y-72690649D01*
X134415038Y-72899226D01*
X134331219Y-73102496D01*
X134238745Y-73325933D01*
X134153089Y-73532984D01*
X134076882Y-73717286D01*
X134012753Y-73872475D01*
X133963332Y-73992188D01*
X133931248Y-74070061D01*
X133919359Y-74099138D01*
X133891274Y-74128677D01*
X133836949Y-74128591D01*
X133749395Y-74097326D01*
X133621619Y-74033329D01*
X133620608Y-74032785D01*
X133524402Y-73983121D01*
X133446631Y-73946945D01*
X133402777Y-73931408D01*
X133400842Y-73931264D01*
X133367829Y-73947024D01*
X133294946Y-73990850D01*
X133190322Y-74057557D01*
X133062090Y-74141964D01*
X132919948Y-74237816D01*
X132775233Y-74334867D01*
X132644804Y-74419270D01*
X132537110Y-74485801D01*
X132460598Y-74529238D01*
X132424062Y-74544368D01*
X132390418Y-74524482D01*
X132322776Y-74468903D01*
X132227893Y-74383754D01*
X132112530Y-74275153D01*
X131983445Y-74149221D01*
X131941229Y-74107149D01*
X131504739Y-73669931D01*
X131836977Y-73182340D01*
X131937946Y-73032605D01*
X132026562Y-72898220D01*
X132097854Y-72786969D01*
X132146850Y-72706639D01*
X132168578Y-72665014D01*
X132169215Y-72662053D01*
X132157760Y-72622818D01*
X132126949Y-72543895D01*
X132082116Y-72438509D01*
X132050647Y-72367954D01*
X131991808Y-72232876D01*
X131936396Y-72096409D01*
X131893436Y-71981103D01*
X131881766Y-71945977D01*
X131848611Y-71852174D01*
X131816201Y-71779694D01*
X131798399Y-71752301D01*
X131759114Y-71735536D01*
X131673374Y-71711770D01*
X131552303Y-71683697D01*
X131407027Y-71654009D01*
X131342012Y-71641806D01*
X131176913Y-71611468D01*
X131018552Y-71582093D01*
X130882404Y-71556569D01*
X130783943Y-71537785D01*
X130765402Y-71534160D01*
X130612127Y-71503906D01*
X130612127Y-70865645D01*
X130612471Y-70655770D01*
X130613884Y-70496980D01*
X130616936Y-70381973D01*
X130622197Y-70303446D01*
X130630237Y-70254096D01*
X130641627Y-70226619D01*
X130656937Y-70213713D01*
X130663218Y-70211320D01*
X130701104Y-70202833D01*
X130784805Y-70185900D01*
X130903567Y-70162566D01*
X131046639Y-70134875D01*
X131203268Y-70104873D01*
X131362703Y-70074604D01*
X131514191Y-70046115D01*
X131646981Y-70021449D01*
X131750319Y-70002651D01*
X131813455Y-69991767D01*
X131827503Y-69989885D01*
X131840230Y-69964704D01*
X131868400Y-69897622D01*
X131906748Y-69801333D01*
X131921391Y-69763621D01*
X131980452Y-69617921D01*
X132050000Y-69456951D01*
X132112288Y-69321291D01*
X132158121Y-69217561D01*
X132188613Y-69132326D01*
X132198792Y-69080126D01*
X132197169Y-69073130D01*
X132175657Y-69040102D01*
X132126535Y-68966643D01*
X132055077Y-68860577D01*
X131966555Y-68729726D01*
X131866241Y-68581912D01*
X131846406Y-68552734D01*
X131730012Y-68379863D01*
X131644452Y-68248226D01*
X131586316Y-68151761D01*
X131552192Y-68084408D01*
X131538669Y-68040106D01*
X131542336Y-68012794D01*
X131542430Y-68012620D01*
X131571293Y-67976746D01*
X131635133Y-67907391D01*
X131727031Y-67811745D01*
X131840067Y-67696999D01*
X131967321Y-67570341D01*
X131981672Y-67556205D01*
X132142043Y-67400903D01*
X132265805Y-67286870D01*
X132355445Y-67212002D01*
X132413448Y-67174196D01*
X132438996Y-67169317D01*
X132476282Y-67190603D01*
X132553657Y-67239773D01*
X132663133Y-67311575D01*
X132796720Y-67400755D01*
X132946430Y-67502063D01*
X132981382Y-67525897D01*
X133477610Y-67864765D01*
X133701707Y-67763056D01*
X133837989Y-67703783D01*
X133984276Y-67644170D01*
X134110035Y-67596640D01*
X134115575Y-67594685D01*
X134213943Y-67558677D01*
X134289771Y-67528229D01*
X134326718Y-67509905D01*
X134326780Y-67509852D01*
X134338504Y-67476729D01*
X134358432Y-67395267D01*
X134384587Y-67274625D01*
X134414990Y-67123959D01*
X134447663Y-66952428D01*
X134450336Y-66937967D01*
X134483110Y-66761235D01*
X134513198Y-66600810D01*
X134538661Y-66466888D01*
X134557559Y-66369663D01*
X134567953Y-66319332D01*
X134568135Y-66318563D01*
X134574461Y-66297153D01*
X134586761Y-66280988D01*
X134612406Y-66269331D01*
X134658765Y-66261445D01*
X134733208Y-66256593D01*
X134843105Y-66254039D01*
X134995825Y-66253045D01*
X135198738Y-66252874D01*
X135225000Y-66252874D01*
X135434014Y-66252998D01*
G36*
X135434014Y-66252998D02*
G01*
X135592006Y-66253863D01*
X135706347Y-66256205D01*
X135784407Y-66260762D01*
X135833554Y-66268270D01*
X135861159Y-66279466D01*
X135874592Y-66295088D01*
X135881221Y-66315873D01*
X135881865Y-66318563D01*
X135891935Y-66367113D01*
X135910575Y-66462905D01*
X135935845Y-66595743D01*
X135965807Y-66755431D01*
X135998522Y-66931774D01*
X135999664Y-66937967D01*
X136032433Y-67110782D01*
X136063093Y-67263469D01*
X136089664Y-67386871D01*
X136110167Y-67471831D01*
X136122626Y-67509190D01*
X136123220Y-67509852D01*
X136159919Y-67528095D01*
X136235586Y-67558497D01*
X136333878Y-67594493D01*
X136334425Y-67594685D01*
X136458233Y-67641222D01*
X136604196Y-67700504D01*
X136741781Y-67760109D01*
X136748293Y-67763056D01*
X136972390Y-67864765D01*
X137468619Y-67525897D01*
X137620846Y-67422592D01*
X137758741Y-67330237D01*
X137874315Y-67254084D01*
X137959579Y-67199385D01*
X138006544Y-67171393D01*
X138011004Y-67169317D01*
X138045134Y-67178560D01*
X138108881Y-67223156D01*
X138204731Y-67305209D01*
X138335169Y-67426821D01*
X138468328Y-67556205D01*
X138596694Y-67683702D01*
X138711581Y-67800046D01*
X138806073Y-67898052D01*
X138873253Y-67970536D01*
X138906206Y-68010313D01*
X138907432Y-68012361D01*
X138911074Y-68039656D01*
X138897350Y-68084234D01*
X138862869Y-68152112D01*
X138804239Y-68249311D01*
X138718070Y-68381851D01*
X138603200Y-68552476D01*
X138501254Y-68702655D01*
X138410123Y-68837350D01*
X138335073Y-68948740D01*
X138281369Y-69029005D01*
X138254280Y-69070325D01*
X138252574Y-69073130D01*
X138255882Y-69112721D01*
X138280953Y-69189669D01*
X138322798Y-69289432D01*
X138337712Y-69321291D01*
X138402786Y-69463226D01*
X138472212Y-69624273D01*
X138528609Y-69763621D01*
X138569247Y-69867044D01*
X138601526Y-69945642D01*
X138620178Y-69986720D01*
X138622497Y-69989885D01*
X138656803Y-69995128D01*
X138737669Y-70009494D01*
X138854343Y-70030937D01*
X138996075Y-70057413D01*
X139152110Y-70086877D01*
X139311698Y-70117283D01*
X139464085Y-70146588D01*
X139598521Y-70172745D01*
X139704252Y-70193710D01*
X139770526Y-70207439D01*
X139786782Y-70211320D01*
X139803573Y-70220900D01*
X139816249Y-70242536D01*
X139825378Y-70283531D01*
X139831531Y-70351189D01*
X139835280Y-70452812D01*
X139837192Y-70595703D01*
X139837840Y-70787165D01*
X139837874Y-70865645D01*
X139837874Y-71503906D01*
X139684598Y-71534160D01*
X139599322Y-71550564D01*
X139472070Y-71574509D01*
X139318315Y-71603107D01*
X139153534Y-71633467D01*
X139107989Y-71641806D01*
X138955932Y-71671370D01*
X138823468Y-71700442D01*
X138721714Y-71726329D01*
X138661788Y-71746337D01*
X138651805Y-71752301D01*
X138627293Y-71794534D01*
X138592148Y-71876370D01*
X138553173Y-71981683D01*
X138545442Y-72004368D01*
X138494360Y-72145018D01*
X138430954Y-72303714D01*
X138368904Y-72446225D01*
X138368598Y-72446886D01*
X138265267Y-72670440D01*
X138944961Y-73670232D01*
X138508621Y-74107300D01*
X138376649Y-74237381D01*
X138256279Y-74352048D01*
X138154273Y-74445181D01*
X138077391Y-74510658D01*
X138032393Y-74542357D01*
X138025938Y-74544368D01*
X137988040Y-74528529D01*
X137910708Y-74484496D01*
X137802389Y-74417490D01*
X137671532Y-74332734D01*
X137530052Y-74237816D01*
X137386461Y-74140998D01*
X137258435Y-74056751D01*
X137154105Y-73990258D01*
X137081600Y-73946702D01*
X137049158Y-73931264D01*
X137009576Y-73944328D01*
X136934519Y-73978750D01*
X136839468Y-74027380D01*
X136829392Y-74032785D01*
X136701391Y-74096980D01*
X136613618Y-74128463D01*
X136559028Y-74128798D01*
X136530575Y-74099548D01*
X136530410Y-74099138D01*
X136516188Y-74064498D01*
X136482269Y-73982269D01*
X136431284Y-73858814D01*
X136365862Y-73700498D01*
X136288634Y-73513686D01*
X136202229Y-73304742D01*
X136118551Y-73102446D01*
X136026588Y-72879200D01*
X135942150Y-72672392D01*
X135867769Y-72488362D01*
X135805974Y-72333451D01*
X135759297Y-72213996D01*
X135730268Y-72136339D01*
X135721322Y-72107356D01*
X135743756Y-72074110D01*
X135802439Y-72021123D01*
X135880689Y-71962704D01*
X136103534Y-71777952D01*
X136277718Y-71566182D01*
X136401154Y-71331856D01*
X136471754Y-71079434D01*
X136487431Y-70813377D01*
X136476036Y-70690575D01*
X136413950Y-70435793D01*
X136307023Y-70210801D01*
X136161889Y-70017817D01*
X135985178Y-69859061D01*
X135783522Y-69736750D01*
X135563554Y-69653105D01*
X135331906Y-69610344D01*
X135095209Y-69610687D01*
X134860095Y-69656352D01*
X134633196Y-69749559D01*
X134421144Y-69892527D01*
X134332636Y-69973383D01*
X134162889Y-70181007D01*
X134044699Y-70407895D01*
X133977278Y-70647433D01*
X133959840Y-70893007D01*
X133991598Y-71138003D01*
X134071765Y-71375808D01*
X134199555Y-71599807D01*
X134374180Y-71803387D01*
X134569312Y-71962704D01*
X134650591Y-72023602D01*
X134708009Y-72076015D01*
X134728678Y-72107406D01*
X134717856Y-72141639D01*
X134687077Y-72223419D01*
X134638874Y-72346407D01*
X134575778Y-72504263D01*
X134500322Y-72690649D01*
X134415038Y-72899226D01*
X134331219Y-73102496D01*
X134238745Y-73325933D01*
X134153089Y-73532984D01*
X134076882Y-73717286D01*
X134012753Y-73872475D01*
X133963332Y-73992188D01*
X133931248Y-74070061D01*
X133919359Y-74099138D01*
X133891274Y-74128677D01*
X133836949Y-74128591D01*
X133749395Y-74097326D01*
X133621619Y-74033329D01*
X133620608Y-74032785D01*
X133524402Y-73983121D01*
X133446631Y-73946945D01*
X133402777Y-73931408D01*
X133400842Y-73931264D01*
X133367829Y-73947024D01*
X133294946Y-73990850D01*
X133190322Y-74057557D01*
X133062090Y-74141964D01*
X132919948Y-74237816D01*
X132775233Y-74334867D01*
X132644804Y-74419270D01*
X132537110Y-74485801D01*
X132460598Y-74529238D01*
X132424062Y-74544368D01*
X132390418Y-74524482D01*
X132322776Y-74468903D01*
X132227893Y-74383754D01*
X132112530Y-74275153D01*
X131983445Y-74149221D01*
X131941229Y-74107149D01*
X131504739Y-73669931D01*
X131836977Y-73182340D01*
X131937946Y-73032605D01*
X132026562Y-72898220D01*
X132097854Y-72786969D01*
X132146850Y-72706639D01*
X132168578Y-72665014D01*
X132169215Y-72662053D01*
X132157760Y-72622818D01*
X132126949Y-72543895D01*
X132082116Y-72438509D01*
X132050647Y-72367954D01*
X131991808Y-72232876D01*
X131936396Y-72096409D01*
X131893436Y-71981103D01*
X131881766Y-71945977D01*
X131848611Y-71852174D01*
X131816201Y-71779694D01*
X131798399Y-71752301D01*
X131759114Y-71735536D01*
X131673374Y-71711770D01*
X131552303Y-71683697D01*
X131407027Y-71654009D01*
X131342012Y-71641806D01*
X131176913Y-71611468D01*
X131018552Y-71582093D01*
X130882404Y-71556569D01*
X130783943Y-71537785D01*
X130765402Y-71534160D01*
X130612127Y-71503906D01*
X130612127Y-70865645D01*
X130612471Y-70655770D01*
X130613884Y-70496980D01*
X130616936Y-70381973D01*
X130622197Y-70303446D01*
X130630237Y-70254096D01*
X130641627Y-70226619D01*
X130656937Y-70213713D01*
X130663218Y-70211320D01*
X130701104Y-70202833D01*
X130784805Y-70185900D01*
X130903567Y-70162566D01*
X131046639Y-70134875D01*
X131203268Y-70104873D01*
X131362703Y-70074604D01*
X131514191Y-70046115D01*
X131646981Y-70021449D01*
X131750319Y-70002651D01*
X131813455Y-69991767D01*
X131827503Y-69989885D01*
X131840230Y-69964704D01*
X131868400Y-69897622D01*
X131906748Y-69801333D01*
X131921391Y-69763621D01*
X131980452Y-69617921D01*
X132050000Y-69456951D01*
X132112288Y-69321291D01*
X132158121Y-69217561D01*
X132188613Y-69132326D01*
X132198792Y-69080126D01*
X132197169Y-69073130D01*
X132175657Y-69040102D01*
X132126535Y-68966643D01*
X132055077Y-68860577D01*
X131966555Y-68729726D01*
X131866241Y-68581912D01*
X131846406Y-68552734D01*
X131730012Y-68379863D01*
X131644452Y-68248226D01*
X131586316Y-68151761D01*
X131552192Y-68084408D01*
X131538669Y-68040106D01*
X131542336Y-68012794D01*
X131542430Y-68012620D01*
X131571293Y-67976746D01*
X131635133Y-67907391D01*
X131727031Y-67811745D01*
X131840067Y-67696999D01*
X131967321Y-67570341D01*
X131981672Y-67556205D01*
X132142043Y-67400903D01*
X132265805Y-67286870D01*
X132355445Y-67212002D01*
X132413448Y-67174196D01*
X132438996Y-67169317D01*
X132476282Y-67190603D01*
X132553657Y-67239773D01*
X132663133Y-67311575D01*
X132796720Y-67400755D01*
X132946430Y-67502063D01*
X132981382Y-67525897D01*
X133477610Y-67864765D01*
X133701707Y-67763056D01*
X133837989Y-67703783D01*
X133984276Y-67644170D01*
X134110035Y-67596640D01*
X134115575Y-67594685D01*
X134213943Y-67558677D01*
X134289771Y-67528229D01*
X134326718Y-67509905D01*
X134326780Y-67509852D01*
X134338504Y-67476729D01*
X134358432Y-67395267D01*
X134384587Y-67274625D01*
X134414990Y-67123959D01*
X134447663Y-66952428D01*
X134450336Y-66937967D01*
X134483110Y-66761235D01*
X134513198Y-66600810D01*
X134538661Y-66466888D01*
X134557559Y-66369663D01*
X134567953Y-66319332D01*
X134568135Y-66318563D01*
X134574461Y-66297153D01*
X134586761Y-66280988D01*
X134612406Y-66269331D01*
X134658765Y-66261445D01*
X134733208Y-66256593D01*
X134843105Y-66254039D01*
X134995825Y-66253045D01*
X135198738Y-66252874D01*
X135225000Y-66252874D01*
X135434014Y-66252998D01*
G37*
D12*
%TO.C,Y1*%
X165375000Y-107950000D02*
X165375000Y-106950000D01*
X167075000Y-106950000D02*
X167075000Y-107950000D01*
D11*
%TO.C,C3*%
X152210000Y-95959420D02*
X152210000Y-96240580D01*
X151190000Y-95959420D02*
X151190000Y-96240580D01*
%TO.C,C6*%
X153822500Y-95959420D02*
X153822500Y-96240580D01*
X152802500Y-95959420D02*
X152802500Y-96240580D01*
%TO.C,C8*%
X172865580Y-104010000D02*
X172584420Y-104010000D01*
X172865580Y-102990000D02*
X172584420Y-102990000D01*
D12*
%TO.C,LED4*%
X141576250Y-100962500D02*
X140623750Y-100962500D01*
%TO.C,U6*%
X152400000Y-109175000D02*
X152400000Y-108175000D01*
X153400000Y-109175000D02*
X152400000Y-109175000D01*
X161600000Y-109175000D02*
X162600000Y-108175000D01*
X152400000Y-99975000D02*
X152400000Y-98975000D01*
X162600000Y-99975000D02*
X162600000Y-98975000D01*
X152400000Y-98975000D02*
X153400000Y-98975000D01*
X162600000Y-98975000D02*
X161600000Y-98975000D01*
X163062600Y-109536000D02*
G75*
G02*
X162859400Y-109536000I-101600J0D01*
G01*
X162859400Y-109536000D02*
G75*
G02*
X163062600Y-109536000I101600J0D01*
G01*
D11*
%TO.C,C5*%
X154165000Y-92365580D02*
X154165000Y-92084420D01*
X155185000Y-92365580D02*
X155185000Y-92084420D01*
%TO.C,LED3*%
X183835000Y-85305000D02*
X183835000Y-83835000D01*
X183835000Y-83835000D02*
X181550000Y-83835000D01*
X181550000Y-85305000D02*
X183835000Y-85305000D01*
D16*
%TO.C,U1*%
X148294300Y-94794300D02*
X148294300Y-95123909D01*
X148294300Y-96776091D02*
X148294300Y-97105700D01*
X148294300Y-97105700D02*
X148873972Y-97105700D01*
X148873972Y-94794300D02*
X148294300Y-94794300D01*
X150026028Y-97105700D02*
X150605700Y-97105700D01*
X150605700Y-94794300D02*
X150026028Y-94794300D01*
X150605700Y-95123909D02*
X150605700Y-94794300D01*
X150605700Y-97105700D02*
X150605700Y-96776091D01*
D17*
G36*
X150650000Y-94654000D02*
G01*
X150269000Y-94654000D01*
X150269000Y-94400000D01*
X150650000Y-94400000D01*
X150650000Y-94654000D01*
G37*
D11*
%TO.C,LED1*%
X183815000Y-88715000D02*
X183815000Y-87245000D01*
X183815000Y-87245000D02*
X181530000Y-87245000D01*
X181530000Y-88715000D02*
X183815000Y-88715000D01*
%TO.C,R3*%
X178742742Y-84027500D02*
X179217258Y-84027500D01*
X178742742Y-85072500D02*
X179217258Y-85072500D01*
D12*
%TO.C,U7*%
X141394500Y-104045600D02*
X141394500Y-104904400D01*
X140392900Y-105183800D02*
X139856100Y-105183800D01*
X138854500Y-104904400D02*
X138854500Y-104045600D01*
D13*
X141788200Y-103459000D02*
G75*
G02*
X141661200Y-103459000I-63500J0D01*
G01*
X141661200Y-103459000D02*
G75*
G02*
X141788200Y-103459000I63500J0D01*
G01*
D11*
%TO.C,S1*%
X141250000Y-112700000D02*
X141250000Y-112600000D01*
X141250000Y-114200000D02*
X145650000Y-114200000D01*
X145650000Y-111100000D02*
X141250000Y-111100000D01*
X145650000Y-112700000D02*
X145650000Y-112600000D01*
%TO.C,C2*%
X147710000Y-93909420D02*
X147710000Y-94190580D01*
X146690000Y-93909420D02*
X146690000Y-94190580D01*
D12*
%TO.C,Q1*%
X135525000Y-103775000D02*
X135525000Y-104575000D01*
X136125000Y-103775000D02*
X135525000Y-103775000D01*
X137725000Y-103775000D02*
X138325000Y-103775000D01*
X138325000Y-103775000D02*
X138325000Y-104575000D01*
D11*
%TO.C,LED2*%
X183835000Y-87005000D02*
X183835000Y-85535000D01*
X183835000Y-85535000D02*
X181550000Y-85535000D01*
X181550000Y-87005000D02*
X183835000Y-87005000D01*
D13*
%TO.C,J4*%
X128872500Y-100903250D02*
X126172500Y-100903250D01*
X128872500Y-108403250D02*
X126172500Y-108403250D01*
D14*
X132372500Y-103353250D02*
G75*
G02*
X132172500Y-103353250I-100000J0D01*
G01*
X132172500Y-103353250D02*
G75*
G02*
X132372500Y-103353250I100000J0D01*
G01*
D13*
%TO.C,U2*%
X164080000Y-68600000D02*
X164080000Y-71480000D01*
X161200000Y-68600000D02*
X164080000Y-68600000D01*
X148580000Y-68600000D02*
X151460000Y-68600000D01*
X148580000Y-71480000D02*
X148580000Y-68600000D01*
X164080000Y-81220000D02*
X164080000Y-84100000D01*
X164080000Y-84100000D02*
X161200000Y-84100000D01*
X148580000Y-84100000D02*
X148580000Y-81220000D01*
X148580000Y-84100000D02*
X151460000Y-84100000D01*
D14*
X160230000Y-67850000D02*
G75*
G02*
X160030000Y-67850000I-100000J0D01*
G01*
X160030000Y-67850000D02*
G75*
G02*
X160230000Y-67850000I100000J0D01*
G01*
D11*
%TO.C,C4*%
X156665000Y-92340580D02*
X156665000Y-92059420D01*
X157685000Y-92340580D02*
X157685000Y-92059420D01*
D16*
%TO.C,U4*%
X175004600Y-104820400D02*
X171245400Y-104820400D01*
X171245400Y-104820400D02*
X171245400Y-108579600D01*
X175004600Y-108579600D02*
X175004600Y-104820400D01*
X171245400Y-108579600D02*
X175004600Y-108579600D01*
D18*
X174425000Y-104450000D02*
G75*
G02*
X174225000Y-104450000I-100000J0D01*
G01*
X174225000Y-104450000D02*
G75*
G02*
X174425000Y-104450000I100000J0D01*
G01*
D17*
G36*
X173065501Y-108711599D02*
G01*
X172684500Y-108711599D01*
X172684500Y-108457599D01*
X173065501Y-108457599D01*
X173065501Y-108711599D01*
G37*
%TD*%
M02*
