M48
INCH,TZ
T1C0.0118
T2C0.0197
T3C0.0200
T4C0.0236
T5C0.0256
%
G90
G05
T1
X50791Y-28087
X51362Y-39150
X51776Y-35961
X51854Y-44583
X51913Y-32299
X52681Y-41925
X52740Y-41256
X53606Y-43953
X55063Y-44839
X55476Y-42614
X56008Y-43972
X56185Y-38461
X56598Y-39996
X57031Y-41257
X57150Y-39445
X57307Y-40272
X57311Y-41257
X57484Y-44228
X57504Y-40469
X57543Y-40764
X57780Y-39976
X57839Y-43717
X57919Y-39362
X58116Y-39165
X58193Y-44583
X58370Y-43244
X58547Y-40311
X58646Y-46000
X58665Y-44347
X58705Y-43519
X58862Y-41039
X59217Y-40942
X59453Y-39209
X59492Y-40646
X59697Y-40835
X59709Y-38776
X59965Y-40488
X60063Y-40823
X60308Y-41182
X60398Y-44150
X60417Y-45213
X60516Y-40951
X60516Y-43500
X60555Y-42831
X60713Y-41197
X60772Y-44465
X61264Y-45429
X61421Y-34051
X61461Y-27280
X61461Y-38539
X61462Y-39447
X61539Y-42850
X61539Y-43283
X61539Y-43717
X61539Y-44031
X62051Y-37654
X62209Y-33480
X62228Y-37201
X62406Y-37614
X62543Y-36965
X63007Y-41284
X63203Y-43519
X63232Y-43952
X63311Y-42201
X63311Y-44583
X63331Y-42634
X63331Y-43067
X63390Y-41768
X63429Y-43717
X63469Y-44150
X63547Y-42398
X63547Y-42850
X63626Y-41984
X63685Y-39323
X64650Y-40626
X65319Y-40114
X65398Y-32220
X65564Y-42630
X65693Y-39504
X66953Y-40626
X67228Y-37929
X67248Y-37535
X67780Y-45783
X68055Y-39976
X68823Y-41591
X68882Y-40872
X69059Y-39346
X69236Y-40272
X69246Y-40685
X69266Y-39553
X69266Y-41591
X69571Y-42752
X69886Y-33264
X70063Y-34150
X70378Y-44701
X71382Y-28244
T2
X58921Y-40449
X67307Y-42087
T3
X55720Y-44825
X55720Y-45325
X56220Y-44825
X56220Y-45325
X56720Y-44825
X56720Y-45325
X57220Y-44825
X57220Y-45325
X57720Y-44825
X57720Y-45325
T5
X65850Y-45016
X66350Y-45016
X66850Y-45016
X67350Y-45016
X67850Y-45016
X68350Y-45016
X68850Y-45016
X69350Y-45016
T4
G00X69770Y-38880
M15
G01X70203Y-38880
M16
G05
G00X69770Y-42281
M15
G01X70203Y-42281
M16
G05
G00X71474Y-38880
M15
G01X71789Y-38880
M16
G05
G00X71474Y-42281
M15
G01X71789Y-42281
M16
G05
M30
