%TF.GenerationSoftware,KiCad,Pcbnew,9.0.0-rc1*%
%TF.CreationDate,2025-02-03T21:42:01-06:00*%
%TF.ProjectId,tempo,74656d70-6f2e-46b6-9963-61645f706362,rev?*%
%TF.SameCoordinates,Original*%
%TF.FileFunction,OtherDrawing,Comment*%
%FSLAX46Y46*%
G04 Gerber Fmt 4.6, Leading zero omitted, Abs format (unit mm)*
G04 Created by KiCad (PCBNEW 9.0.0-rc1) date 2025-02-03 21:42:01*
%MOMM*%
%LPD*%
G01*
G04 APERTURE LIST*
%ADD10C,0.100000*%
%ADD11C,0.150000*%
G04 APERTURE END LIST*
D10*
X178050000Y-94350000D02*
X178050000Y-96000000D01*
X150100000Y-94350000D02*
X150100000Y-95900000D01*
D11*
X124141541Y-127569819D02*
X124760588Y-127569819D01*
X124760588Y-127569819D02*
X124427255Y-127950771D01*
X124427255Y-127950771D02*
X124570112Y-127950771D01*
X124570112Y-127950771D02*
X124665350Y-127998390D01*
X124665350Y-127998390D02*
X124712969Y-128046009D01*
X124712969Y-128046009D02*
X124760588Y-128141247D01*
X124760588Y-128141247D02*
X124760588Y-128379342D01*
X124760588Y-128379342D02*
X124712969Y-128474580D01*
X124712969Y-128474580D02*
X124665350Y-128522200D01*
X124665350Y-128522200D02*
X124570112Y-128569819D01*
X124570112Y-128569819D02*
X124284398Y-128569819D01*
X124284398Y-128569819D02*
X124189160Y-128522200D01*
X124189160Y-128522200D02*
X124141541Y-128474580D01*
X125951065Y-127903152D02*
X125951065Y-128903152D01*
X125951065Y-127950771D02*
X126046303Y-127903152D01*
X126046303Y-127903152D02*
X126236779Y-127903152D01*
X126236779Y-127903152D02*
X126332017Y-127950771D01*
X126332017Y-127950771D02*
X126379636Y-127998390D01*
X126379636Y-127998390D02*
X126427255Y-128093628D01*
X126427255Y-128093628D02*
X126427255Y-128379342D01*
X126427255Y-128379342D02*
X126379636Y-128474580D01*
X126379636Y-128474580D02*
X126332017Y-128522200D01*
X126332017Y-128522200D02*
X126236779Y-128569819D01*
X126236779Y-128569819D02*
X126046303Y-128569819D01*
X126046303Y-128569819D02*
X125951065Y-128522200D01*
X126998684Y-128569819D02*
X126903446Y-128522200D01*
X126903446Y-128522200D02*
X126855827Y-128426961D01*
X126855827Y-128426961D02*
X126855827Y-127569819D01*
X127808208Y-128569819D02*
X127808208Y-128046009D01*
X127808208Y-128046009D02*
X127760589Y-127950771D01*
X127760589Y-127950771D02*
X127665351Y-127903152D01*
X127665351Y-127903152D02*
X127474875Y-127903152D01*
X127474875Y-127903152D02*
X127379637Y-127950771D01*
X127808208Y-128522200D02*
X127712970Y-128569819D01*
X127712970Y-128569819D02*
X127474875Y-128569819D01*
X127474875Y-128569819D02*
X127379637Y-128522200D01*
X127379637Y-128522200D02*
X127332018Y-128426961D01*
X127332018Y-128426961D02*
X127332018Y-128331723D01*
X127332018Y-128331723D02*
X127379637Y-128236485D01*
X127379637Y-128236485D02*
X127474875Y-128188866D01*
X127474875Y-128188866D02*
X127712970Y-128188866D01*
X127712970Y-128188866D02*
X127808208Y-128141247D01*
X128712970Y-128522200D02*
X128617732Y-128569819D01*
X128617732Y-128569819D02*
X128427256Y-128569819D01*
X128427256Y-128569819D02*
X128332018Y-128522200D01*
X128332018Y-128522200D02*
X128284399Y-128474580D01*
X128284399Y-128474580D02*
X128236780Y-128379342D01*
X128236780Y-128379342D02*
X128236780Y-128093628D01*
X128236780Y-128093628D02*
X128284399Y-127998390D01*
X128284399Y-127998390D02*
X128332018Y-127950771D01*
X128332018Y-127950771D02*
X128427256Y-127903152D01*
X128427256Y-127903152D02*
X128617732Y-127903152D01*
X128617732Y-127903152D02*
X128712970Y-127950771D01*
X129522494Y-128522200D02*
X129427256Y-128569819D01*
X129427256Y-128569819D02*
X129236780Y-128569819D01*
X129236780Y-128569819D02*
X129141542Y-128522200D01*
X129141542Y-128522200D02*
X129093923Y-128426961D01*
X129093923Y-128426961D02*
X129093923Y-128046009D01*
X129093923Y-128046009D02*
X129141542Y-127950771D01*
X129141542Y-127950771D02*
X129236780Y-127903152D01*
X129236780Y-127903152D02*
X129427256Y-127903152D01*
X129427256Y-127903152D02*
X129522494Y-127950771D01*
X129522494Y-127950771D02*
X129570113Y-128046009D01*
X129570113Y-128046009D02*
X129570113Y-128141247D01*
X129570113Y-128141247D02*
X129093923Y-128236485D01*
X129951066Y-128522200D02*
X130046304Y-128569819D01*
X130046304Y-128569819D02*
X130236780Y-128569819D01*
X130236780Y-128569819D02*
X130332018Y-128522200D01*
X130332018Y-128522200D02*
X130379637Y-128426961D01*
X130379637Y-128426961D02*
X130379637Y-128379342D01*
X130379637Y-128379342D02*
X130332018Y-128284104D01*
X130332018Y-128284104D02*
X130236780Y-128236485D01*
X130236780Y-128236485D02*
X130093923Y-128236485D01*
X130093923Y-128236485D02*
X129998685Y-128188866D01*
X129998685Y-128188866D02*
X129951066Y-128093628D01*
X129951066Y-128093628D02*
X129951066Y-128046009D01*
X129951066Y-128046009D02*
X129998685Y-127950771D01*
X129998685Y-127950771D02*
X130093923Y-127903152D01*
X130093923Y-127903152D02*
X130236780Y-127903152D01*
X130236780Y-127903152D02*
X130332018Y-127950771D01*
X190556009Y-93569887D02*
X190603628Y-93427030D01*
X190603628Y-93427030D02*
X190651247Y-93379411D01*
X190651247Y-93379411D02*
X190746485Y-93331792D01*
X190746485Y-93331792D02*
X190889342Y-93331792D01*
X190889342Y-93331792D02*
X190984580Y-93379411D01*
X190984580Y-93379411D02*
X191032200Y-93427030D01*
X191032200Y-93427030D02*
X191079819Y-93522268D01*
X191079819Y-93522268D02*
X191079819Y-93903220D01*
X191079819Y-93903220D02*
X190079819Y-93903220D01*
X190079819Y-93903220D02*
X190079819Y-93569887D01*
X190079819Y-93569887D02*
X190127438Y-93474649D01*
X190127438Y-93474649D02*
X190175057Y-93427030D01*
X190175057Y-93427030D02*
X190270295Y-93379411D01*
X190270295Y-93379411D02*
X190365533Y-93379411D01*
X190365533Y-93379411D02*
X190460771Y-93427030D01*
X190460771Y-93427030D02*
X190508390Y-93474649D01*
X190508390Y-93474649D02*
X190556009Y-93569887D01*
X190556009Y-93569887D02*
X190556009Y-93903220D01*
X190794104Y-92950839D02*
X190794104Y-92474649D01*
X191079819Y-93046077D02*
X190079819Y-92712744D01*
X190079819Y-92712744D02*
X191079819Y-92379411D01*
X190079819Y-92188934D02*
X190079819Y-91617506D01*
X191079819Y-91903220D02*
X190079819Y-91903220D01*
X190079819Y-91427029D02*
X190079819Y-90855601D01*
X191079819Y-91141315D02*
X190079819Y-91141315D01*
X190556009Y-90522267D02*
X190556009Y-90188934D01*
X191079819Y-90046077D02*
X191079819Y-90522267D01*
X191079819Y-90522267D02*
X190079819Y-90522267D01*
X190079819Y-90522267D02*
X190079819Y-90046077D01*
X191079819Y-89046077D02*
X190603628Y-89379410D01*
X191079819Y-89617505D02*
X190079819Y-89617505D01*
X190079819Y-89617505D02*
X190079819Y-89236553D01*
X190079819Y-89236553D02*
X190127438Y-89141315D01*
X190127438Y-89141315D02*
X190175057Y-89093696D01*
X190175057Y-89093696D02*
X190270295Y-89046077D01*
X190270295Y-89046077D02*
X190413152Y-89046077D01*
X190413152Y-89046077D02*
X190508390Y-89093696D01*
X190508390Y-89093696D02*
X190556009Y-89141315D01*
X190556009Y-89141315D02*
X190603628Y-89236553D01*
X190603628Y-89236553D02*
X190603628Y-89617505D01*
X190603628Y-88427029D02*
X191079819Y-88427029D01*
X190079819Y-88760362D02*
X190603628Y-88427029D01*
X190603628Y-88427029D02*
X190079819Y-88093696D01*
X190984580Y-86427029D02*
X191032200Y-86474648D01*
X191032200Y-86474648D02*
X191079819Y-86617505D01*
X191079819Y-86617505D02*
X191079819Y-86712743D01*
X191079819Y-86712743D02*
X191032200Y-86855600D01*
X191032200Y-86855600D02*
X190936961Y-86950838D01*
X190936961Y-86950838D02*
X190841723Y-86998457D01*
X190841723Y-86998457D02*
X190651247Y-87046076D01*
X190651247Y-87046076D02*
X190508390Y-87046076D01*
X190508390Y-87046076D02*
X190317914Y-86998457D01*
X190317914Y-86998457D02*
X190222676Y-86950838D01*
X190222676Y-86950838D02*
X190127438Y-86855600D01*
X190127438Y-86855600D02*
X190079819Y-86712743D01*
X190079819Y-86712743D02*
X190079819Y-86617505D01*
X190079819Y-86617505D02*
X190127438Y-86474648D01*
X190127438Y-86474648D02*
X190175057Y-86427029D01*
X191079819Y-85522267D02*
X191079819Y-85998457D01*
X191079819Y-85998457D02*
X190079819Y-85998457D01*
X190556009Y-85188933D02*
X190556009Y-84855600D01*
X191079819Y-84712743D02*
X191079819Y-85188933D01*
X191079819Y-85188933D02*
X190079819Y-85188933D01*
X190079819Y-85188933D02*
X190079819Y-84712743D01*
X190794104Y-84331790D02*
X190794104Y-83855600D01*
X191079819Y-84427028D02*
X190079819Y-84093695D01*
X190079819Y-84093695D02*
X191079819Y-83760362D01*
X191079819Y-82855600D02*
X190603628Y-83188933D01*
X191079819Y-83427028D02*
X190079819Y-83427028D01*
X190079819Y-83427028D02*
X190079819Y-83046076D01*
X190079819Y-83046076D02*
X190127438Y-82950838D01*
X190127438Y-82950838D02*
X190175057Y-82903219D01*
X190175057Y-82903219D02*
X190270295Y-82855600D01*
X190270295Y-82855600D02*
X190413152Y-82855600D01*
X190413152Y-82855600D02*
X190508390Y-82903219D01*
X190508390Y-82903219D02*
X190556009Y-82950838D01*
X190556009Y-82950838D02*
X190603628Y-83046076D01*
X190603628Y-83046076D02*
X190603628Y-83427028D01*
X190794104Y-82474647D02*
X190794104Y-81998457D01*
X191079819Y-82569885D02*
X190079819Y-82236552D01*
X190079819Y-82236552D02*
X191079819Y-81903219D01*
X191079819Y-81569885D02*
X190079819Y-81569885D01*
X190079819Y-81569885D02*
X191079819Y-80998457D01*
X191079819Y-80998457D02*
X190079819Y-80998457D01*
X190984580Y-79950838D02*
X191032200Y-79998457D01*
X191032200Y-79998457D02*
X191079819Y-80141314D01*
X191079819Y-80141314D02*
X191079819Y-80236552D01*
X191079819Y-80236552D02*
X191032200Y-80379409D01*
X191032200Y-80379409D02*
X190936961Y-80474647D01*
X190936961Y-80474647D02*
X190841723Y-80522266D01*
X190841723Y-80522266D02*
X190651247Y-80569885D01*
X190651247Y-80569885D02*
X190508390Y-80569885D01*
X190508390Y-80569885D02*
X190317914Y-80522266D01*
X190317914Y-80522266D02*
X190222676Y-80474647D01*
X190222676Y-80474647D02*
X190127438Y-80379409D01*
X190127438Y-80379409D02*
X190079819Y-80236552D01*
X190079819Y-80236552D02*
X190079819Y-80141314D01*
X190079819Y-80141314D02*
X190127438Y-79998457D01*
X190127438Y-79998457D02*
X190175057Y-79950838D01*
X190556009Y-79522266D02*
X190556009Y-79188933D01*
X191079819Y-79046076D02*
X191079819Y-79522266D01*
X191079819Y-79522266D02*
X190079819Y-79522266D01*
X190079819Y-79522266D02*
X190079819Y-79046076D01*
X110695057Y-117560839D02*
X110647438Y-117513220D01*
X110647438Y-117513220D02*
X110599819Y-117417982D01*
X110599819Y-117417982D02*
X110599819Y-117179887D01*
X110599819Y-117179887D02*
X110647438Y-117084649D01*
X110647438Y-117084649D02*
X110695057Y-117037030D01*
X110695057Y-117037030D02*
X110790295Y-116989411D01*
X110790295Y-116989411D02*
X110885533Y-116989411D01*
X110885533Y-116989411D02*
X111028390Y-117037030D01*
X111028390Y-117037030D02*
X111599819Y-117608458D01*
X111599819Y-117608458D02*
X111599819Y-116989411D01*
X110933152Y-115798934D02*
X111933152Y-115798934D01*
X110980771Y-115798934D02*
X110933152Y-115703696D01*
X110933152Y-115703696D02*
X110933152Y-115513220D01*
X110933152Y-115513220D02*
X110980771Y-115417982D01*
X110980771Y-115417982D02*
X111028390Y-115370363D01*
X111028390Y-115370363D02*
X111123628Y-115322744D01*
X111123628Y-115322744D02*
X111409342Y-115322744D01*
X111409342Y-115322744D02*
X111504580Y-115370363D01*
X111504580Y-115370363D02*
X111552200Y-115417982D01*
X111552200Y-115417982D02*
X111599819Y-115513220D01*
X111599819Y-115513220D02*
X111599819Y-115703696D01*
X111599819Y-115703696D02*
X111552200Y-115798934D01*
X111599819Y-114751315D02*
X111552200Y-114846553D01*
X111552200Y-114846553D02*
X111456961Y-114894172D01*
X111456961Y-114894172D02*
X110599819Y-114894172D01*
X111599819Y-113941791D02*
X111076009Y-113941791D01*
X111076009Y-113941791D02*
X110980771Y-113989410D01*
X110980771Y-113989410D02*
X110933152Y-114084648D01*
X110933152Y-114084648D02*
X110933152Y-114275124D01*
X110933152Y-114275124D02*
X110980771Y-114370362D01*
X111552200Y-113941791D02*
X111599819Y-114037029D01*
X111599819Y-114037029D02*
X111599819Y-114275124D01*
X111599819Y-114275124D02*
X111552200Y-114370362D01*
X111552200Y-114370362D02*
X111456961Y-114417981D01*
X111456961Y-114417981D02*
X111361723Y-114417981D01*
X111361723Y-114417981D02*
X111266485Y-114370362D01*
X111266485Y-114370362D02*
X111218866Y-114275124D01*
X111218866Y-114275124D02*
X111218866Y-114037029D01*
X111218866Y-114037029D02*
X111171247Y-113941791D01*
X111552200Y-113037029D02*
X111599819Y-113132267D01*
X111599819Y-113132267D02*
X111599819Y-113322743D01*
X111599819Y-113322743D02*
X111552200Y-113417981D01*
X111552200Y-113417981D02*
X111504580Y-113465600D01*
X111504580Y-113465600D02*
X111409342Y-113513219D01*
X111409342Y-113513219D02*
X111123628Y-113513219D01*
X111123628Y-113513219D02*
X111028390Y-113465600D01*
X111028390Y-113465600D02*
X110980771Y-113417981D01*
X110980771Y-113417981D02*
X110933152Y-113322743D01*
X110933152Y-113322743D02*
X110933152Y-113132267D01*
X110933152Y-113132267D02*
X110980771Y-113037029D01*
X111552200Y-112227505D02*
X111599819Y-112322743D01*
X111599819Y-112322743D02*
X111599819Y-112513219D01*
X111599819Y-112513219D02*
X111552200Y-112608457D01*
X111552200Y-112608457D02*
X111456961Y-112656076D01*
X111456961Y-112656076D02*
X111076009Y-112656076D01*
X111076009Y-112656076D02*
X110980771Y-112608457D01*
X110980771Y-112608457D02*
X110933152Y-112513219D01*
X110933152Y-112513219D02*
X110933152Y-112322743D01*
X110933152Y-112322743D02*
X110980771Y-112227505D01*
X110980771Y-112227505D02*
X111076009Y-112179886D01*
X111076009Y-112179886D02*
X111171247Y-112179886D01*
X111171247Y-112179886D02*
X111266485Y-112656076D01*
X111552200Y-111798933D02*
X111599819Y-111703695D01*
X111599819Y-111703695D02*
X111599819Y-111513219D01*
X111599819Y-111513219D02*
X111552200Y-111417981D01*
X111552200Y-111417981D02*
X111456961Y-111370362D01*
X111456961Y-111370362D02*
X111409342Y-111370362D01*
X111409342Y-111370362D02*
X111314104Y-111417981D01*
X111314104Y-111417981D02*
X111266485Y-111513219D01*
X111266485Y-111513219D02*
X111266485Y-111656076D01*
X111266485Y-111656076D02*
X111218866Y-111751314D01*
X111218866Y-111751314D02*
X111123628Y-111798933D01*
X111123628Y-111798933D02*
X111076009Y-111798933D01*
X111076009Y-111798933D02*
X110980771Y-111751314D01*
X110980771Y-111751314D02*
X110933152Y-111656076D01*
X110933152Y-111656076D02*
X110933152Y-111513219D01*
X110933152Y-111513219D02*
X110980771Y-111417981D01*
X162455112Y-62061009D02*
X162597969Y-62108628D01*
X162597969Y-62108628D02*
X162645588Y-62156247D01*
X162645588Y-62156247D02*
X162693207Y-62251485D01*
X162693207Y-62251485D02*
X162693207Y-62394342D01*
X162693207Y-62394342D02*
X162645588Y-62489580D01*
X162645588Y-62489580D02*
X162597969Y-62537200D01*
X162597969Y-62537200D02*
X162502731Y-62584819D01*
X162502731Y-62584819D02*
X162121779Y-62584819D01*
X162121779Y-62584819D02*
X162121779Y-61584819D01*
X162121779Y-61584819D02*
X162455112Y-61584819D01*
X162455112Y-61584819D02*
X162550350Y-61632438D01*
X162550350Y-61632438D02*
X162597969Y-61680057D01*
X162597969Y-61680057D02*
X162645588Y-61775295D01*
X162645588Y-61775295D02*
X162645588Y-61870533D01*
X162645588Y-61870533D02*
X162597969Y-61965771D01*
X162597969Y-61965771D02*
X162550350Y-62013390D01*
X162550350Y-62013390D02*
X162455112Y-62061009D01*
X162455112Y-62061009D02*
X162121779Y-62061009D01*
X163074160Y-62299104D02*
X163550350Y-62299104D01*
X162978922Y-62584819D02*
X163312255Y-61584819D01*
X163312255Y-61584819D02*
X163645588Y-62584819D01*
X163836065Y-61584819D02*
X164407493Y-61584819D01*
X164121779Y-62584819D02*
X164121779Y-61584819D01*
X164597970Y-61584819D02*
X165169398Y-61584819D01*
X164883684Y-62584819D02*
X164883684Y-61584819D01*
X165502732Y-62061009D02*
X165836065Y-62061009D01*
X165978922Y-62584819D02*
X165502732Y-62584819D01*
X165502732Y-62584819D02*
X165502732Y-61584819D01*
X165502732Y-61584819D02*
X165978922Y-61584819D01*
X166978922Y-62584819D02*
X166645589Y-62108628D01*
X166407494Y-62584819D02*
X166407494Y-61584819D01*
X166407494Y-61584819D02*
X166788446Y-61584819D01*
X166788446Y-61584819D02*
X166883684Y-61632438D01*
X166883684Y-61632438D02*
X166931303Y-61680057D01*
X166931303Y-61680057D02*
X166978922Y-61775295D01*
X166978922Y-61775295D02*
X166978922Y-61918152D01*
X166978922Y-61918152D02*
X166931303Y-62013390D01*
X166931303Y-62013390D02*
X166883684Y-62061009D01*
X166883684Y-62061009D02*
X166788446Y-62108628D01*
X166788446Y-62108628D02*
X166407494Y-62108628D01*
X167597970Y-62108628D02*
X167597970Y-62584819D01*
X167264637Y-61584819D02*
X167597970Y-62108628D01*
X167597970Y-62108628D02*
X167931303Y-61584819D01*
X169597970Y-62489580D02*
X169550351Y-62537200D01*
X169550351Y-62537200D02*
X169407494Y-62584819D01*
X169407494Y-62584819D02*
X169312256Y-62584819D01*
X169312256Y-62584819D02*
X169169399Y-62537200D01*
X169169399Y-62537200D02*
X169074161Y-62441961D01*
X169074161Y-62441961D02*
X169026542Y-62346723D01*
X169026542Y-62346723D02*
X168978923Y-62156247D01*
X168978923Y-62156247D02*
X168978923Y-62013390D01*
X168978923Y-62013390D02*
X169026542Y-61822914D01*
X169026542Y-61822914D02*
X169074161Y-61727676D01*
X169074161Y-61727676D02*
X169169399Y-61632438D01*
X169169399Y-61632438D02*
X169312256Y-61584819D01*
X169312256Y-61584819D02*
X169407494Y-61584819D01*
X169407494Y-61584819D02*
X169550351Y-61632438D01*
X169550351Y-61632438D02*
X169597970Y-61680057D01*
X170502732Y-62584819D02*
X170026542Y-62584819D01*
X170026542Y-62584819D02*
X170026542Y-61584819D01*
X170836066Y-62061009D02*
X171169399Y-62061009D01*
X171312256Y-62584819D02*
X170836066Y-62584819D01*
X170836066Y-62584819D02*
X170836066Y-61584819D01*
X170836066Y-61584819D02*
X171312256Y-61584819D01*
X171693209Y-62299104D02*
X172169399Y-62299104D01*
X171597971Y-62584819D02*
X171931304Y-61584819D01*
X171931304Y-61584819D02*
X172264637Y-62584819D01*
X173169399Y-62584819D02*
X172836066Y-62108628D01*
X172597971Y-62584819D02*
X172597971Y-61584819D01*
X172597971Y-61584819D02*
X172978923Y-61584819D01*
X172978923Y-61584819D02*
X173074161Y-61632438D01*
X173074161Y-61632438D02*
X173121780Y-61680057D01*
X173121780Y-61680057D02*
X173169399Y-61775295D01*
X173169399Y-61775295D02*
X173169399Y-61918152D01*
X173169399Y-61918152D02*
X173121780Y-62013390D01*
X173121780Y-62013390D02*
X173074161Y-62061009D01*
X173074161Y-62061009D02*
X172978923Y-62108628D01*
X172978923Y-62108628D02*
X172597971Y-62108628D01*
X173550352Y-62299104D02*
X174026542Y-62299104D01*
X173455114Y-62584819D02*
X173788447Y-61584819D01*
X173788447Y-61584819D02*
X174121780Y-62584819D01*
X174455114Y-62584819D02*
X174455114Y-61584819D01*
X174455114Y-61584819D02*
X175026542Y-62584819D01*
X175026542Y-62584819D02*
X175026542Y-61584819D01*
X176074161Y-62489580D02*
X176026542Y-62537200D01*
X176026542Y-62537200D02*
X175883685Y-62584819D01*
X175883685Y-62584819D02*
X175788447Y-62584819D01*
X175788447Y-62584819D02*
X175645590Y-62537200D01*
X175645590Y-62537200D02*
X175550352Y-62441961D01*
X175550352Y-62441961D02*
X175502733Y-62346723D01*
X175502733Y-62346723D02*
X175455114Y-62156247D01*
X175455114Y-62156247D02*
X175455114Y-62013390D01*
X175455114Y-62013390D02*
X175502733Y-61822914D01*
X175502733Y-61822914D02*
X175550352Y-61727676D01*
X175550352Y-61727676D02*
X175645590Y-61632438D01*
X175645590Y-61632438D02*
X175788447Y-61584819D01*
X175788447Y-61584819D02*
X175883685Y-61584819D01*
X175883685Y-61584819D02*
X176026542Y-61632438D01*
X176026542Y-61632438D02*
X176074161Y-61680057D01*
X176502733Y-62061009D02*
X176836066Y-62061009D01*
X176978923Y-62584819D02*
X176502733Y-62584819D01*
X176502733Y-62584819D02*
X176502733Y-61584819D01*
X176502733Y-61584819D02*
X176978923Y-61584819D01*
X112780057Y-117840475D02*
X112732438Y-117792856D01*
X112732438Y-117792856D02*
X112684819Y-117697618D01*
X112684819Y-117697618D02*
X112684819Y-117459523D01*
X112684819Y-117459523D02*
X112732438Y-117364285D01*
X112732438Y-117364285D02*
X112780057Y-117316666D01*
X112780057Y-117316666D02*
X112875295Y-117269047D01*
X112875295Y-117269047D02*
X112970533Y-117269047D01*
X112970533Y-117269047D02*
X113113390Y-117316666D01*
X113113390Y-117316666D02*
X113684819Y-117888094D01*
X113684819Y-117888094D02*
X113684819Y-117269047D01*
X113589580Y-116840475D02*
X113637200Y-116792856D01*
X113637200Y-116792856D02*
X113684819Y-116840475D01*
X113684819Y-116840475D02*
X113637200Y-116888094D01*
X113637200Y-116888094D02*
X113589580Y-116840475D01*
X113589580Y-116840475D02*
X113684819Y-116840475D01*
X112684819Y-115888095D02*
X112684819Y-116364285D01*
X112684819Y-116364285D02*
X113161009Y-116411904D01*
X113161009Y-116411904D02*
X113113390Y-116364285D01*
X113113390Y-116364285D02*
X113065771Y-116269047D01*
X113065771Y-116269047D02*
X113065771Y-116030952D01*
X113065771Y-116030952D02*
X113113390Y-115935714D01*
X113113390Y-115935714D02*
X113161009Y-115888095D01*
X113161009Y-115888095D02*
X113256247Y-115840476D01*
X113256247Y-115840476D02*
X113494342Y-115840476D01*
X113494342Y-115840476D02*
X113589580Y-115888095D01*
X113589580Y-115888095D02*
X113637200Y-115935714D01*
X113637200Y-115935714D02*
X113684819Y-116030952D01*
X113684819Y-116030952D02*
X113684819Y-116269047D01*
X113684819Y-116269047D02*
X113637200Y-116364285D01*
X113637200Y-116364285D02*
X113589580Y-116411904D01*
X113018152Y-114983333D02*
X113684819Y-114983333D01*
X112637200Y-115221428D02*
X113351485Y-115459523D01*
X113351485Y-115459523D02*
X113351485Y-114840476D01*
X113684819Y-113697618D02*
X113018152Y-113697618D01*
X113113390Y-113697618D02*
X113065771Y-113649999D01*
X113065771Y-113649999D02*
X113018152Y-113554761D01*
X113018152Y-113554761D02*
X113018152Y-113411904D01*
X113018152Y-113411904D02*
X113065771Y-113316666D01*
X113065771Y-113316666D02*
X113161009Y-113269047D01*
X113161009Y-113269047D02*
X113684819Y-113269047D01*
X113161009Y-113269047D02*
X113065771Y-113221428D01*
X113065771Y-113221428D02*
X113018152Y-113126190D01*
X113018152Y-113126190D02*
X113018152Y-112983333D01*
X113018152Y-112983333D02*
X113065771Y-112888094D01*
X113065771Y-112888094D02*
X113161009Y-112840475D01*
X113161009Y-112840475D02*
X113684819Y-112840475D01*
X113684819Y-112364285D02*
X113018152Y-112364285D01*
X113113390Y-112364285D02*
X113065771Y-112316666D01*
X113065771Y-112316666D02*
X113018152Y-112221428D01*
X113018152Y-112221428D02*
X113018152Y-112078571D01*
X113018152Y-112078571D02*
X113065771Y-111983333D01*
X113065771Y-111983333D02*
X113161009Y-111935714D01*
X113161009Y-111935714D02*
X113684819Y-111935714D01*
X113161009Y-111935714D02*
X113065771Y-111888095D01*
X113065771Y-111888095D02*
X113018152Y-111792857D01*
X113018152Y-111792857D02*
X113018152Y-111650000D01*
X113018152Y-111650000D02*
X113065771Y-111554761D01*
X113065771Y-111554761D02*
X113161009Y-111507142D01*
X113161009Y-111507142D02*
X113684819Y-111507142D01*
D10*
X128061100Y-113443600D02*
X114543580Y-113443600D01*
X128061100Y-115983600D02*
X114543580Y-115983600D01*
X115130000Y-113443600D02*
X115130000Y-115983600D01*
X115130000Y-113443600D02*
X115130000Y-115983600D01*
X115130000Y-113443600D02*
X115716421Y-114570104D01*
X115130000Y-113443600D02*
X114543579Y-114570104D01*
X115130000Y-115983600D02*
X114543579Y-114857096D01*
X115130000Y-115983600D02*
X115716421Y-114857096D01*
X115130000Y-113443600D02*
X115130000Y-115983600D01*
X115130000Y-113443600D02*
X115130000Y-115983600D01*
X115130000Y-113443600D02*
X115716421Y-114570104D01*
X115130000Y-113443600D02*
X114543579Y-114570104D01*
X115130000Y-115983600D02*
X114543579Y-114857096D01*
X115130000Y-115983600D02*
X115716421Y-114857096D01*
D11*
X118939524Y-92100057D02*
X118987143Y-92052438D01*
X118987143Y-92052438D02*
X119082381Y-92004819D01*
X119082381Y-92004819D02*
X119320476Y-92004819D01*
X119320476Y-92004819D02*
X119415714Y-92052438D01*
X119415714Y-92052438D02*
X119463333Y-92100057D01*
X119463333Y-92100057D02*
X119510952Y-92195295D01*
X119510952Y-92195295D02*
X119510952Y-92290533D01*
X119510952Y-92290533D02*
X119463333Y-92433390D01*
X119463333Y-92433390D02*
X118891905Y-93004819D01*
X118891905Y-93004819D02*
X119510952Y-93004819D01*
X119939524Y-92909580D02*
X119987143Y-92957200D01*
X119987143Y-92957200D02*
X119939524Y-93004819D01*
X119939524Y-93004819D02*
X119891905Y-92957200D01*
X119891905Y-92957200D02*
X119939524Y-92909580D01*
X119939524Y-92909580D02*
X119939524Y-93004819D01*
X120891904Y-92004819D02*
X120415714Y-92004819D01*
X120415714Y-92004819D02*
X120368095Y-92481009D01*
X120368095Y-92481009D02*
X120415714Y-92433390D01*
X120415714Y-92433390D02*
X120510952Y-92385771D01*
X120510952Y-92385771D02*
X120749047Y-92385771D01*
X120749047Y-92385771D02*
X120844285Y-92433390D01*
X120844285Y-92433390D02*
X120891904Y-92481009D01*
X120891904Y-92481009D02*
X120939523Y-92576247D01*
X120939523Y-92576247D02*
X120939523Y-92814342D01*
X120939523Y-92814342D02*
X120891904Y-92909580D01*
X120891904Y-92909580D02*
X120844285Y-92957200D01*
X120844285Y-92957200D02*
X120749047Y-93004819D01*
X120749047Y-93004819D02*
X120510952Y-93004819D01*
X120510952Y-93004819D02*
X120415714Y-92957200D01*
X120415714Y-92957200D02*
X120368095Y-92909580D01*
X121796666Y-92338152D02*
X121796666Y-93004819D01*
X121558571Y-91957200D02*
X121320476Y-92671485D01*
X121320476Y-92671485D02*
X121939523Y-92671485D01*
X123082381Y-93004819D02*
X123082381Y-92338152D01*
X123082381Y-92433390D02*
X123130000Y-92385771D01*
X123130000Y-92385771D02*
X123225238Y-92338152D01*
X123225238Y-92338152D02*
X123368095Y-92338152D01*
X123368095Y-92338152D02*
X123463333Y-92385771D01*
X123463333Y-92385771D02*
X123510952Y-92481009D01*
X123510952Y-92481009D02*
X123510952Y-93004819D01*
X123510952Y-92481009D02*
X123558571Y-92385771D01*
X123558571Y-92385771D02*
X123653809Y-92338152D01*
X123653809Y-92338152D02*
X123796666Y-92338152D01*
X123796666Y-92338152D02*
X123891905Y-92385771D01*
X123891905Y-92385771D02*
X123939524Y-92481009D01*
X123939524Y-92481009D02*
X123939524Y-93004819D01*
X124415714Y-93004819D02*
X124415714Y-92338152D01*
X124415714Y-92433390D02*
X124463333Y-92385771D01*
X124463333Y-92385771D02*
X124558571Y-92338152D01*
X124558571Y-92338152D02*
X124701428Y-92338152D01*
X124701428Y-92338152D02*
X124796666Y-92385771D01*
X124796666Y-92385771D02*
X124844285Y-92481009D01*
X124844285Y-92481009D02*
X124844285Y-93004819D01*
X124844285Y-92481009D02*
X124891904Y-92385771D01*
X124891904Y-92385771D02*
X124987142Y-92338152D01*
X124987142Y-92338152D02*
X125129999Y-92338152D01*
X125129999Y-92338152D02*
X125225238Y-92385771D01*
X125225238Y-92385771D02*
X125272857Y-92481009D01*
X125272857Y-92481009D02*
X125272857Y-93004819D01*
D10*
X128561100Y-95163600D02*
X128561100Y-92063580D01*
X126021100Y-95163600D02*
X126021100Y-92063580D01*
X128561100Y-92650000D02*
X126135952Y-92650000D01*
X128561100Y-92650000D02*
X127434596Y-93236421D01*
X128561100Y-92650000D02*
X127434596Y-92063579D01*
X126021100Y-92650000D02*
X127147604Y-92063579D01*
X126021100Y-92650000D02*
X127147604Y-93236421D01*
X128561100Y-92650000D02*
X126135952Y-92650000D01*
X128561100Y-92650000D02*
X127434596Y-93236421D01*
X128561100Y-92650000D02*
X127434596Y-92063579D01*
X126021100Y-92650000D02*
X127147604Y-92063579D01*
X126021100Y-92650000D02*
X127147604Y-93236421D01*
D11*
X124339524Y-125500057D02*
X124387143Y-125452438D01*
X124387143Y-125452438D02*
X124482381Y-125404819D01*
X124482381Y-125404819D02*
X124720476Y-125404819D01*
X124720476Y-125404819D02*
X124815714Y-125452438D01*
X124815714Y-125452438D02*
X124863333Y-125500057D01*
X124863333Y-125500057D02*
X124910952Y-125595295D01*
X124910952Y-125595295D02*
X124910952Y-125690533D01*
X124910952Y-125690533D02*
X124863333Y-125833390D01*
X124863333Y-125833390D02*
X124291905Y-126404819D01*
X124291905Y-126404819D02*
X124910952Y-126404819D01*
X125339524Y-126309580D02*
X125387143Y-126357200D01*
X125387143Y-126357200D02*
X125339524Y-126404819D01*
X125339524Y-126404819D02*
X125291905Y-126357200D01*
X125291905Y-126357200D02*
X125339524Y-126309580D01*
X125339524Y-126309580D02*
X125339524Y-126404819D01*
X126291904Y-125404819D02*
X125815714Y-125404819D01*
X125815714Y-125404819D02*
X125768095Y-125881009D01*
X125768095Y-125881009D02*
X125815714Y-125833390D01*
X125815714Y-125833390D02*
X125910952Y-125785771D01*
X125910952Y-125785771D02*
X126149047Y-125785771D01*
X126149047Y-125785771D02*
X126244285Y-125833390D01*
X126244285Y-125833390D02*
X126291904Y-125881009D01*
X126291904Y-125881009D02*
X126339523Y-125976247D01*
X126339523Y-125976247D02*
X126339523Y-126214342D01*
X126339523Y-126214342D02*
X126291904Y-126309580D01*
X126291904Y-126309580D02*
X126244285Y-126357200D01*
X126244285Y-126357200D02*
X126149047Y-126404819D01*
X126149047Y-126404819D02*
X125910952Y-126404819D01*
X125910952Y-126404819D02*
X125815714Y-126357200D01*
X125815714Y-126357200D02*
X125768095Y-126309580D01*
X127196666Y-125738152D02*
X127196666Y-126404819D01*
X126958571Y-125357200D02*
X126720476Y-126071485D01*
X126720476Y-126071485D02*
X127339523Y-126071485D01*
X128482381Y-126404819D02*
X128482381Y-125738152D01*
X128482381Y-125833390D02*
X128530000Y-125785771D01*
X128530000Y-125785771D02*
X128625238Y-125738152D01*
X128625238Y-125738152D02*
X128768095Y-125738152D01*
X128768095Y-125738152D02*
X128863333Y-125785771D01*
X128863333Y-125785771D02*
X128910952Y-125881009D01*
X128910952Y-125881009D02*
X128910952Y-126404819D01*
X128910952Y-125881009D02*
X128958571Y-125785771D01*
X128958571Y-125785771D02*
X129053809Y-125738152D01*
X129053809Y-125738152D02*
X129196666Y-125738152D01*
X129196666Y-125738152D02*
X129291905Y-125785771D01*
X129291905Y-125785771D02*
X129339524Y-125881009D01*
X129339524Y-125881009D02*
X129339524Y-126404819D01*
X129815714Y-126404819D02*
X129815714Y-125738152D01*
X129815714Y-125833390D02*
X129863333Y-125785771D01*
X129863333Y-125785771D02*
X129958571Y-125738152D01*
X129958571Y-125738152D02*
X130101428Y-125738152D01*
X130101428Y-125738152D02*
X130196666Y-125785771D01*
X130196666Y-125785771D02*
X130244285Y-125881009D01*
X130244285Y-125881009D02*
X130244285Y-126404819D01*
X130244285Y-125881009D02*
X130291904Y-125785771D01*
X130291904Y-125785771D02*
X130387142Y-125738152D01*
X130387142Y-125738152D02*
X130529999Y-125738152D01*
X130529999Y-125738152D02*
X130625238Y-125785771D01*
X130625238Y-125785771D02*
X130672857Y-125881009D01*
X130672857Y-125881009D02*
X130672857Y-126404819D01*
D10*
X128561100Y-113943600D02*
X128561100Y-124636420D01*
X126021100Y-113943600D02*
X126021100Y-124636420D01*
X128561100Y-124050000D02*
X126021100Y-124050000D01*
X128561100Y-124050000D02*
X126021100Y-124050000D01*
X128561100Y-124050000D02*
X127434596Y-124636421D01*
X128561100Y-124050000D02*
X127434596Y-123463579D01*
X126021100Y-124050000D02*
X127147604Y-123463579D01*
X126021100Y-124050000D02*
X127147604Y-124636421D01*
X128561100Y-124050000D02*
X126021100Y-124050000D01*
X128561100Y-124050000D02*
X126021100Y-124050000D01*
X128561100Y-124050000D02*
X127434596Y-124636421D01*
X128561100Y-124050000D02*
X127434596Y-123463579D01*
X126021100Y-124050000D02*
X127147604Y-123463579D01*
X126021100Y-124050000D02*
X127147604Y-124636421D01*
D11*
X152529384Y-54208768D02*
X152053194Y-54208768D01*
X152053194Y-54208768D02*
X152005575Y-54684958D01*
X152005575Y-54684958D02*
X152053194Y-54637339D01*
X152053194Y-54637339D02*
X152148432Y-54589720D01*
X152148432Y-54589720D02*
X152386527Y-54589720D01*
X152386527Y-54589720D02*
X152481765Y-54637339D01*
X152481765Y-54637339D02*
X152529384Y-54684958D01*
X152529384Y-54684958D02*
X152577003Y-54780196D01*
X152577003Y-54780196D02*
X152577003Y-55018291D01*
X152577003Y-55018291D02*
X152529384Y-55113529D01*
X152529384Y-55113529D02*
X152481765Y-55161149D01*
X152481765Y-55161149D02*
X152386527Y-55208768D01*
X152386527Y-55208768D02*
X152148432Y-55208768D01*
X152148432Y-55208768D02*
X152053194Y-55161149D01*
X152053194Y-55161149D02*
X152005575Y-55113529D01*
X153148432Y-54637339D02*
X153053194Y-54589720D01*
X153053194Y-54589720D02*
X153005575Y-54542101D01*
X153005575Y-54542101D02*
X152957956Y-54446863D01*
X152957956Y-54446863D02*
X152957956Y-54399244D01*
X152957956Y-54399244D02*
X153005575Y-54304006D01*
X153005575Y-54304006D02*
X153053194Y-54256387D01*
X153053194Y-54256387D02*
X153148432Y-54208768D01*
X153148432Y-54208768D02*
X153338908Y-54208768D01*
X153338908Y-54208768D02*
X153434146Y-54256387D01*
X153434146Y-54256387D02*
X153481765Y-54304006D01*
X153481765Y-54304006D02*
X153529384Y-54399244D01*
X153529384Y-54399244D02*
X153529384Y-54446863D01*
X153529384Y-54446863D02*
X153481765Y-54542101D01*
X153481765Y-54542101D02*
X153434146Y-54589720D01*
X153434146Y-54589720D02*
X153338908Y-54637339D01*
X153338908Y-54637339D02*
X153148432Y-54637339D01*
X153148432Y-54637339D02*
X153053194Y-54684958D01*
X153053194Y-54684958D02*
X153005575Y-54732577D01*
X153005575Y-54732577D02*
X152957956Y-54827815D01*
X152957956Y-54827815D02*
X152957956Y-55018291D01*
X152957956Y-55018291D02*
X153005575Y-55113529D01*
X153005575Y-55113529D02*
X153053194Y-55161149D01*
X153053194Y-55161149D02*
X153148432Y-55208768D01*
X153148432Y-55208768D02*
X153338908Y-55208768D01*
X153338908Y-55208768D02*
X153434146Y-55161149D01*
X153434146Y-55161149D02*
X153481765Y-55113529D01*
X153481765Y-55113529D02*
X153529384Y-55018291D01*
X153529384Y-55018291D02*
X153529384Y-54827815D01*
X153529384Y-54827815D02*
X153481765Y-54732577D01*
X153481765Y-54732577D02*
X153434146Y-54684958D01*
X153434146Y-54684958D02*
X153338908Y-54637339D01*
X153957956Y-55113529D02*
X154005575Y-55161149D01*
X154005575Y-55161149D02*
X153957956Y-55208768D01*
X153957956Y-55208768D02*
X153910337Y-55161149D01*
X153910337Y-55161149D02*
X153957956Y-55113529D01*
X153957956Y-55113529D02*
X153957956Y-55208768D01*
X154862717Y-54542101D02*
X154862717Y-55208768D01*
X154624622Y-54161149D02*
X154386527Y-54875434D01*
X154386527Y-54875434D02*
X155005574Y-54875434D01*
X156148432Y-55208768D02*
X156148432Y-54542101D01*
X156148432Y-54637339D02*
X156196051Y-54589720D01*
X156196051Y-54589720D02*
X156291289Y-54542101D01*
X156291289Y-54542101D02*
X156434146Y-54542101D01*
X156434146Y-54542101D02*
X156529384Y-54589720D01*
X156529384Y-54589720D02*
X156577003Y-54684958D01*
X156577003Y-54684958D02*
X156577003Y-55208768D01*
X156577003Y-54684958D02*
X156624622Y-54589720D01*
X156624622Y-54589720D02*
X156719860Y-54542101D01*
X156719860Y-54542101D02*
X156862717Y-54542101D01*
X156862717Y-54542101D02*
X156957956Y-54589720D01*
X156957956Y-54589720D02*
X157005575Y-54684958D01*
X157005575Y-54684958D02*
X157005575Y-55208768D01*
X157481765Y-55208768D02*
X157481765Y-54542101D01*
X157481765Y-54637339D02*
X157529384Y-54589720D01*
X157529384Y-54589720D02*
X157624622Y-54542101D01*
X157624622Y-54542101D02*
X157767479Y-54542101D01*
X157767479Y-54542101D02*
X157862717Y-54589720D01*
X157862717Y-54589720D02*
X157910336Y-54684958D01*
X157910336Y-54684958D02*
X157910336Y-55208768D01*
X157910336Y-54684958D02*
X157957955Y-54589720D01*
X157957955Y-54589720D02*
X158053193Y-54542101D01*
X158053193Y-54542101D02*
X158196050Y-54542101D01*
X158196050Y-54542101D02*
X158291289Y-54589720D01*
X158291289Y-54589720D02*
X158338908Y-54684958D01*
X158338908Y-54684958D02*
X158338908Y-55208768D01*
D10*
X125986051Y-67200000D02*
X125986051Y-55317529D01*
X184406051Y-67200000D02*
X184406051Y-55317529D01*
X125986051Y-55903949D02*
X184406051Y-55903949D01*
X125986051Y-55903949D02*
X184406051Y-55903949D01*
X125986051Y-55903949D02*
X127112555Y-55317528D01*
X125986051Y-55903949D02*
X127112555Y-56490370D01*
X184406051Y-55903949D02*
X183279547Y-56490370D01*
X184406051Y-55903949D02*
X183279547Y-55317528D01*
X125986051Y-55903949D02*
X184406051Y-55903949D01*
X125986051Y-55903949D02*
X184406051Y-55903949D01*
X125986051Y-55903949D02*
X127112555Y-55317528D01*
X125986051Y-55903949D02*
X127112555Y-56490370D01*
X184406051Y-55903949D02*
X183279547Y-56490370D01*
X184406051Y-55903949D02*
X183279547Y-55317528D01*
D11*
X150714433Y-121354819D02*
X150238243Y-121354819D01*
X150238243Y-121354819D02*
X150190624Y-121831009D01*
X150190624Y-121831009D02*
X150238243Y-121783390D01*
X150238243Y-121783390D02*
X150333481Y-121735771D01*
X150333481Y-121735771D02*
X150571576Y-121735771D01*
X150571576Y-121735771D02*
X150666814Y-121783390D01*
X150666814Y-121783390D02*
X150714433Y-121831009D01*
X150714433Y-121831009D02*
X150762052Y-121926247D01*
X150762052Y-121926247D02*
X150762052Y-122164342D01*
X150762052Y-122164342D02*
X150714433Y-122259580D01*
X150714433Y-122259580D02*
X150666814Y-122307200D01*
X150666814Y-122307200D02*
X150571576Y-122354819D01*
X150571576Y-122354819D02*
X150333481Y-122354819D01*
X150333481Y-122354819D02*
X150238243Y-122307200D01*
X150238243Y-122307200D02*
X150190624Y-122259580D01*
X151095386Y-121354819D02*
X151714433Y-121354819D01*
X151714433Y-121354819D02*
X151381100Y-121735771D01*
X151381100Y-121735771D02*
X151523957Y-121735771D01*
X151523957Y-121735771D02*
X151619195Y-121783390D01*
X151619195Y-121783390D02*
X151666814Y-121831009D01*
X151666814Y-121831009D02*
X151714433Y-121926247D01*
X151714433Y-121926247D02*
X151714433Y-122164342D01*
X151714433Y-122164342D02*
X151666814Y-122259580D01*
X151666814Y-122259580D02*
X151619195Y-122307200D01*
X151619195Y-122307200D02*
X151523957Y-122354819D01*
X151523957Y-122354819D02*
X151238243Y-122354819D01*
X151238243Y-122354819D02*
X151143005Y-122307200D01*
X151143005Y-122307200D02*
X151095386Y-122259580D01*
X152143005Y-122259580D02*
X152190624Y-122307200D01*
X152190624Y-122307200D02*
X152143005Y-122354819D01*
X152143005Y-122354819D02*
X152095386Y-122307200D01*
X152095386Y-122307200D02*
X152143005Y-122259580D01*
X152143005Y-122259580D02*
X152143005Y-122354819D01*
X152523957Y-121354819D02*
X153143004Y-121354819D01*
X153143004Y-121354819D02*
X152809671Y-121735771D01*
X152809671Y-121735771D02*
X152952528Y-121735771D01*
X152952528Y-121735771D02*
X153047766Y-121783390D01*
X153047766Y-121783390D02*
X153095385Y-121831009D01*
X153095385Y-121831009D02*
X153143004Y-121926247D01*
X153143004Y-121926247D02*
X153143004Y-122164342D01*
X153143004Y-122164342D02*
X153095385Y-122259580D01*
X153095385Y-122259580D02*
X153047766Y-122307200D01*
X153047766Y-122307200D02*
X152952528Y-122354819D01*
X152952528Y-122354819D02*
X152666814Y-122354819D01*
X152666814Y-122354819D02*
X152571576Y-122307200D01*
X152571576Y-122307200D02*
X152523957Y-122259580D01*
X154333481Y-122354819D02*
X154333481Y-121688152D01*
X154333481Y-121783390D02*
X154381100Y-121735771D01*
X154381100Y-121735771D02*
X154476338Y-121688152D01*
X154476338Y-121688152D02*
X154619195Y-121688152D01*
X154619195Y-121688152D02*
X154714433Y-121735771D01*
X154714433Y-121735771D02*
X154762052Y-121831009D01*
X154762052Y-121831009D02*
X154762052Y-122354819D01*
X154762052Y-121831009D02*
X154809671Y-121735771D01*
X154809671Y-121735771D02*
X154904909Y-121688152D01*
X154904909Y-121688152D02*
X155047766Y-121688152D01*
X155047766Y-121688152D02*
X155143005Y-121735771D01*
X155143005Y-121735771D02*
X155190624Y-121831009D01*
X155190624Y-121831009D02*
X155190624Y-122354819D01*
X155666814Y-122354819D02*
X155666814Y-121688152D01*
X155666814Y-121783390D02*
X155714433Y-121735771D01*
X155714433Y-121735771D02*
X155809671Y-121688152D01*
X155809671Y-121688152D02*
X155952528Y-121688152D01*
X155952528Y-121688152D02*
X156047766Y-121735771D01*
X156047766Y-121735771D02*
X156095385Y-121831009D01*
X156095385Y-121831009D02*
X156095385Y-122354819D01*
X156095385Y-121831009D02*
X156143004Y-121735771D01*
X156143004Y-121735771D02*
X156238242Y-121688152D01*
X156238242Y-121688152D02*
X156381099Y-121688152D01*
X156381099Y-121688152D02*
X156476338Y-121735771D01*
X156476338Y-121735771D02*
X156523957Y-121831009D01*
X156523957Y-121831009D02*
X156523957Y-122354819D01*
D10*
X180051100Y-112943600D02*
X180051100Y-123636420D01*
X126711100Y-112943600D02*
X126711100Y-123636420D01*
X180051100Y-123050000D02*
X126711100Y-123050000D01*
X180051100Y-123050000D02*
X126711100Y-123050000D01*
X180051100Y-123050000D02*
X178924596Y-123636421D01*
X180051100Y-123050000D02*
X178924596Y-122463579D01*
X126711100Y-123050000D02*
X127837604Y-122463579D01*
X126711100Y-123050000D02*
X127837604Y-123636421D01*
X180051100Y-123050000D02*
X126711100Y-123050000D01*
X180051100Y-123050000D02*
X126711100Y-123050000D01*
X180051100Y-123050000D02*
X178924596Y-123636421D01*
X180051100Y-123050000D02*
X178924596Y-122463579D01*
X126711100Y-123050000D02*
X127837604Y-122463579D01*
X126711100Y-123050000D02*
X127837604Y-123636421D01*
D11*
X114434819Y-107172647D02*
X114434819Y-107744075D01*
X114434819Y-107458361D02*
X113434819Y-107458361D01*
X113434819Y-107458361D02*
X113577676Y-107553599D01*
X113577676Y-107553599D02*
X113672914Y-107648837D01*
X113672914Y-107648837D02*
X113720533Y-107744075D01*
X113434819Y-106839313D02*
X113434819Y-106172647D01*
X113434819Y-106172647D02*
X114434819Y-106601218D01*
X114339580Y-105791694D02*
X114387200Y-105744075D01*
X114387200Y-105744075D02*
X114434819Y-105791694D01*
X114434819Y-105791694D02*
X114387200Y-105839313D01*
X114387200Y-105839313D02*
X114339580Y-105791694D01*
X114339580Y-105791694D02*
X114434819Y-105791694D01*
X113863390Y-105172647D02*
X113815771Y-105267885D01*
X113815771Y-105267885D02*
X113768152Y-105315504D01*
X113768152Y-105315504D02*
X113672914Y-105363123D01*
X113672914Y-105363123D02*
X113625295Y-105363123D01*
X113625295Y-105363123D02*
X113530057Y-105315504D01*
X113530057Y-105315504D02*
X113482438Y-105267885D01*
X113482438Y-105267885D02*
X113434819Y-105172647D01*
X113434819Y-105172647D02*
X113434819Y-104982171D01*
X113434819Y-104982171D02*
X113482438Y-104886933D01*
X113482438Y-104886933D02*
X113530057Y-104839314D01*
X113530057Y-104839314D02*
X113625295Y-104791695D01*
X113625295Y-104791695D02*
X113672914Y-104791695D01*
X113672914Y-104791695D02*
X113768152Y-104839314D01*
X113768152Y-104839314D02*
X113815771Y-104886933D01*
X113815771Y-104886933D02*
X113863390Y-104982171D01*
X113863390Y-104982171D02*
X113863390Y-105172647D01*
X113863390Y-105172647D02*
X113911009Y-105267885D01*
X113911009Y-105267885D02*
X113958628Y-105315504D01*
X113958628Y-105315504D02*
X114053866Y-105363123D01*
X114053866Y-105363123D02*
X114244342Y-105363123D01*
X114244342Y-105363123D02*
X114339580Y-105315504D01*
X114339580Y-105315504D02*
X114387200Y-105267885D01*
X114387200Y-105267885D02*
X114434819Y-105172647D01*
X114434819Y-105172647D02*
X114434819Y-104982171D01*
X114434819Y-104982171D02*
X114387200Y-104886933D01*
X114387200Y-104886933D02*
X114339580Y-104839314D01*
X114339580Y-104839314D02*
X114244342Y-104791695D01*
X114244342Y-104791695D02*
X114053866Y-104791695D01*
X114053866Y-104791695D02*
X113958628Y-104839314D01*
X113958628Y-104839314D02*
X113911009Y-104886933D01*
X113911009Y-104886933D02*
X113863390Y-104982171D01*
X114434819Y-103601218D02*
X113768152Y-103601218D01*
X113863390Y-103601218D02*
X113815771Y-103553599D01*
X113815771Y-103553599D02*
X113768152Y-103458361D01*
X113768152Y-103458361D02*
X113768152Y-103315504D01*
X113768152Y-103315504D02*
X113815771Y-103220266D01*
X113815771Y-103220266D02*
X113911009Y-103172647D01*
X113911009Y-103172647D02*
X114434819Y-103172647D01*
X113911009Y-103172647D02*
X113815771Y-103125028D01*
X113815771Y-103125028D02*
X113768152Y-103029790D01*
X113768152Y-103029790D02*
X113768152Y-102886933D01*
X113768152Y-102886933D02*
X113815771Y-102791694D01*
X113815771Y-102791694D02*
X113911009Y-102744075D01*
X113911009Y-102744075D02*
X114434819Y-102744075D01*
X114434819Y-102267885D02*
X113768152Y-102267885D01*
X113863390Y-102267885D02*
X113815771Y-102220266D01*
X113815771Y-102220266D02*
X113768152Y-102125028D01*
X113768152Y-102125028D02*
X113768152Y-101982171D01*
X113768152Y-101982171D02*
X113815771Y-101886933D01*
X113815771Y-101886933D02*
X113911009Y-101839314D01*
X113911009Y-101839314D02*
X114434819Y-101839314D01*
X113911009Y-101839314D02*
X113815771Y-101791695D01*
X113815771Y-101791695D02*
X113768152Y-101696457D01*
X113768152Y-101696457D02*
X113768152Y-101553600D01*
X113768152Y-101553600D02*
X113815771Y-101458361D01*
X113815771Y-101458361D02*
X113911009Y-101410742D01*
X113911009Y-101410742D02*
X114434819Y-101410742D01*
D10*
X128061100Y-95663600D02*
X114543580Y-95663600D01*
X128061100Y-113443600D02*
X114543580Y-113443600D01*
X115130000Y-95663600D02*
X115130000Y-113443600D01*
X115130000Y-95663600D02*
X115130000Y-113443600D01*
X115130000Y-95663600D02*
X115716421Y-96790104D01*
X115130000Y-95663600D02*
X114543579Y-96790104D01*
X115130000Y-113443600D02*
X114543579Y-112317096D01*
X115130000Y-113443600D02*
X115716421Y-112317096D01*
X115130000Y-95663600D02*
X115130000Y-113443600D01*
X115130000Y-95663600D02*
X115130000Y-113443600D01*
X115130000Y-95663600D02*
X115716421Y-96790104D01*
X115130000Y-95663600D02*
X114543579Y-96790104D01*
X115130000Y-113443600D02*
X114543579Y-112317096D01*
X115130000Y-113443600D02*
X115716421Y-112317096D01*
D11*
X195864819Y-93181666D02*
X195864819Y-93657856D01*
X195864819Y-93657856D02*
X196341009Y-93705475D01*
X196341009Y-93705475D02*
X196293390Y-93657856D01*
X196293390Y-93657856D02*
X196245771Y-93562618D01*
X196245771Y-93562618D02*
X196245771Y-93324523D01*
X196245771Y-93324523D02*
X196293390Y-93229285D01*
X196293390Y-93229285D02*
X196341009Y-93181666D01*
X196341009Y-93181666D02*
X196436247Y-93134047D01*
X196436247Y-93134047D02*
X196674342Y-93134047D01*
X196674342Y-93134047D02*
X196769580Y-93181666D01*
X196769580Y-93181666D02*
X196817200Y-93229285D01*
X196817200Y-93229285D02*
X196864819Y-93324523D01*
X196864819Y-93324523D02*
X196864819Y-93562618D01*
X196864819Y-93562618D02*
X196817200Y-93657856D01*
X196817200Y-93657856D02*
X196769580Y-93705475D01*
X195864819Y-92514999D02*
X195864819Y-92419761D01*
X195864819Y-92419761D02*
X195912438Y-92324523D01*
X195912438Y-92324523D02*
X195960057Y-92276904D01*
X195960057Y-92276904D02*
X196055295Y-92229285D01*
X196055295Y-92229285D02*
X196245771Y-92181666D01*
X196245771Y-92181666D02*
X196483866Y-92181666D01*
X196483866Y-92181666D02*
X196674342Y-92229285D01*
X196674342Y-92229285D02*
X196769580Y-92276904D01*
X196769580Y-92276904D02*
X196817200Y-92324523D01*
X196817200Y-92324523D02*
X196864819Y-92419761D01*
X196864819Y-92419761D02*
X196864819Y-92514999D01*
X196864819Y-92514999D02*
X196817200Y-92610237D01*
X196817200Y-92610237D02*
X196769580Y-92657856D01*
X196769580Y-92657856D02*
X196674342Y-92705475D01*
X196674342Y-92705475D02*
X196483866Y-92753094D01*
X196483866Y-92753094D02*
X196245771Y-92753094D01*
X196245771Y-92753094D02*
X196055295Y-92705475D01*
X196055295Y-92705475D02*
X195960057Y-92657856D01*
X195960057Y-92657856D02*
X195912438Y-92610237D01*
X195912438Y-92610237D02*
X195864819Y-92514999D01*
X196769580Y-91753094D02*
X196817200Y-91705475D01*
X196817200Y-91705475D02*
X196864819Y-91753094D01*
X196864819Y-91753094D02*
X196817200Y-91800713D01*
X196817200Y-91800713D02*
X196769580Y-91753094D01*
X196769580Y-91753094D02*
X196864819Y-91753094D01*
X196864819Y-91229285D02*
X196864819Y-91038809D01*
X196864819Y-91038809D02*
X196817200Y-90943571D01*
X196817200Y-90943571D02*
X196769580Y-90895952D01*
X196769580Y-90895952D02*
X196626723Y-90800714D01*
X196626723Y-90800714D02*
X196436247Y-90753095D01*
X196436247Y-90753095D02*
X196055295Y-90753095D01*
X196055295Y-90753095D02*
X195960057Y-90800714D01*
X195960057Y-90800714D02*
X195912438Y-90848333D01*
X195912438Y-90848333D02*
X195864819Y-90943571D01*
X195864819Y-90943571D02*
X195864819Y-91134047D01*
X195864819Y-91134047D02*
X195912438Y-91229285D01*
X195912438Y-91229285D02*
X195960057Y-91276904D01*
X195960057Y-91276904D02*
X196055295Y-91324523D01*
X196055295Y-91324523D02*
X196293390Y-91324523D01*
X196293390Y-91324523D02*
X196388628Y-91276904D01*
X196388628Y-91276904D02*
X196436247Y-91229285D01*
X196436247Y-91229285D02*
X196483866Y-91134047D01*
X196483866Y-91134047D02*
X196483866Y-90943571D01*
X196483866Y-90943571D02*
X196436247Y-90848333D01*
X196436247Y-90848333D02*
X196388628Y-90800714D01*
X196388628Y-90800714D02*
X196293390Y-90753095D01*
X196864819Y-89562618D02*
X196198152Y-89562618D01*
X196293390Y-89562618D02*
X196245771Y-89514999D01*
X196245771Y-89514999D02*
X196198152Y-89419761D01*
X196198152Y-89419761D02*
X196198152Y-89276904D01*
X196198152Y-89276904D02*
X196245771Y-89181666D01*
X196245771Y-89181666D02*
X196341009Y-89134047D01*
X196341009Y-89134047D02*
X196864819Y-89134047D01*
X196341009Y-89134047D02*
X196245771Y-89086428D01*
X196245771Y-89086428D02*
X196198152Y-88991190D01*
X196198152Y-88991190D02*
X196198152Y-88848333D01*
X196198152Y-88848333D02*
X196245771Y-88753094D01*
X196245771Y-88753094D02*
X196341009Y-88705475D01*
X196341009Y-88705475D02*
X196864819Y-88705475D01*
X196864819Y-88229285D02*
X196198152Y-88229285D01*
X196293390Y-88229285D02*
X196245771Y-88181666D01*
X196245771Y-88181666D02*
X196198152Y-88086428D01*
X196198152Y-88086428D02*
X196198152Y-87943571D01*
X196198152Y-87943571D02*
X196245771Y-87848333D01*
X196245771Y-87848333D02*
X196341009Y-87800714D01*
X196341009Y-87800714D02*
X196864819Y-87800714D01*
X196341009Y-87800714D02*
X196245771Y-87753095D01*
X196245771Y-87753095D02*
X196198152Y-87657857D01*
X196198152Y-87657857D02*
X196198152Y-87515000D01*
X196198152Y-87515000D02*
X196245771Y-87419761D01*
X196245771Y-87419761D02*
X196341009Y-87372142D01*
X196341009Y-87372142D02*
X196864819Y-87372142D01*
D10*
X185010000Y-65090000D02*
X198146420Y-65090000D01*
X198146420Y-115940000D02*
X185010000Y-115940000D01*
X197560000Y-65090000D02*
X197560000Y-115940000D01*
X197560000Y-65090000D02*
X197560000Y-115940000D01*
X197560000Y-65090000D02*
X198146421Y-66216504D01*
X197560000Y-65090000D02*
X196973579Y-66216504D01*
X197560000Y-115940000D02*
X196973579Y-114813496D01*
X197560000Y-115940000D02*
X198146421Y-114813496D01*
X197560000Y-65090000D02*
X197560000Y-115940000D01*
X197560000Y-65090000D02*
X197560000Y-115940000D01*
X197560000Y-65090000D02*
X198146421Y-66216504D01*
X197560000Y-65090000D02*
X196973579Y-66216504D01*
X197560000Y-115940000D02*
X196973579Y-114813496D01*
X197560000Y-115940000D02*
X198146421Y-114813496D01*
D11*
X164479863Y-58819819D02*
X165098910Y-58819819D01*
X165098910Y-58819819D02*
X164765577Y-59200771D01*
X164765577Y-59200771D02*
X164908434Y-59200771D01*
X164908434Y-59200771D02*
X165003672Y-59248390D01*
X165003672Y-59248390D02*
X165051291Y-59296009D01*
X165051291Y-59296009D02*
X165098910Y-59391247D01*
X165098910Y-59391247D02*
X165098910Y-59629342D01*
X165098910Y-59629342D02*
X165051291Y-59724580D01*
X165051291Y-59724580D02*
X165003672Y-59772200D01*
X165003672Y-59772200D02*
X164908434Y-59819819D01*
X164908434Y-59819819D02*
X164622720Y-59819819D01*
X164622720Y-59819819D02*
X164527482Y-59772200D01*
X164527482Y-59772200D02*
X164479863Y-59724580D01*
X165432244Y-58819819D02*
X166051291Y-58819819D01*
X166051291Y-58819819D02*
X165717958Y-59200771D01*
X165717958Y-59200771D02*
X165860815Y-59200771D01*
X165860815Y-59200771D02*
X165956053Y-59248390D01*
X165956053Y-59248390D02*
X166003672Y-59296009D01*
X166003672Y-59296009D02*
X166051291Y-59391247D01*
X166051291Y-59391247D02*
X166051291Y-59629342D01*
X166051291Y-59629342D02*
X166003672Y-59724580D01*
X166003672Y-59724580D02*
X165956053Y-59772200D01*
X165956053Y-59772200D02*
X165860815Y-59819819D01*
X165860815Y-59819819D02*
X165575101Y-59819819D01*
X165575101Y-59819819D02*
X165479863Y-59772200D01*
X165479863Y-59772200D02*
X165432244Y-59724580D01*
X166479863Y-59724580D02*
X166527482Y-59772200D01*
X166527482Y-59772200D02*
X166479863Y-59819819D01*
X166479863Y-59819819D02*
X166432244Y-59772200D01*
X166432244Y-59772200D02*
X166479863Y-59724580D01*
X166479863Y-59724580D02*
X166479863Y-59819819D01*
X167432243Y-58819819D02*
X166956053Y-58819819D01*
X166956053Y-58819819D02*
X166908434Y-59296009D01*
X166908434Y-59296009D02*
X166956053Y-59248390D01*
X166956053Y-59248390D02*
X167051291Y-59200771D01*
X167051291Y-59200771D02*
X167289386Y-59200771D01*
X167289386Y-59200771D02*
X167384624Y-59248390D01*
X167384624Y-59248390D02*
X167432243Y-59296009D01*
X167432243Y-59296009D02*
X167479862Y-59391247D01*
X167479862Y-59391247D02*
X167479862Y-59629342D01*
X167479862Y-59629342D02*
X167432243Y-59724580D01*
X167432243Y-59724580D02*
X167384624Y-59772200D01*
X167384624Y-59772200D02*
X167289386Y-59819819D01*
X167289386Y-59819819D02*
X167051291Y-59819819D01*
X167051291Y-59819819D02*
X166956053Y-59772200D01*
X166956053Y-59772200D02*
X166908434Y-59724580D01*
X168670339Y-59819819D02*
X168670339Y-59153152D01*
X168670339Y-59248390D02*
X168717958Y-59200771D01*
X168717958Y-59200771D02*
X168813196Y-59153152D01*
X168813196Y-59153152D02*
X168956053Y-59153152D01*
X168956053Y-59153152D02*
X169051291Y-59200771D01*
X169051291Y-59200771D02*
X169098910Y-59296009D01*
X169098910Y-59296009D02*
X169098910Y-59819819D01*
X169098910Y-59296009D02*
X169146529Y-59200771D01*
X169146529Y-59200771D02*
X169241767Y-59153152D01*
X169241767Y-59153152D02*
X169384624Y-59153152D01*
X169384624Y-59153152D02*
X169479863Y-59200771D01*
X169479863Y-59200771D02*
X169527482Y-59296009D01*
X169527482Y-59296009D02*
X169527482Y-59819819D01*
X170003672Y-59819819D02*
X170003672Y-59153152D01*
X170003672Y-59248390D02*
X170051291Y-59200771D01*
X170051291Y-59200771D02*
X170146529Y-59153152D01*
X170146529Y-59153152D02*
X170289386Y-59153152D01*
X170289386Y-59153152D02*
X170384624Y-59200771D01*
X170384624Y-59200771D02*
X170432243Y-59296009D01*
X170432243Y-59296009D02*
X170432243Y-59819819D01*
X170432243Y-59296009D02*
X170479862Y-59200771D01*
X170479862Y-59200771D02*
X170575100Y-59153152D01*
X170575100Y-59153152D02*
X170717957Y-59153152D01*
X170717957Y-59153152D02*
X170813196Y-59200771D01*
X170813196Y-59200771D02*
X170860815Y-59296009D01*
X170860815Y-59296009D02*
X170860815Y-59819819D01*
D10*
X150950916Y-93440000D02*
X150950916Y-59928580D01*
X184485000Y-59928580D02*
X184485000Y-93415000D01*
X150950916Y-60515000D02*
X184485000Y-60515000D01*
X150950916Y-60515000D02*
X184485000Y-60515000D01*
X150950916Y-60515000D02*
X152077420Y-59928579D01*
X150950916Y-60515000D02*
X152077420Y-61101421D01*
X184485000Y-60515000D02*
X183358496Y-61101421D01*
X184485000Y-60515000D02*
X183358496Y-59928579D01*
X150950916Y-60515000D02*
X184485000Y-60515000D01*
X150950916Y-60515000D02*
X184485000Y-60515000D01*
X150950916Y-60515000D02*
X152077420Y-59928579D01*
X150950916Y-60515000D02*
X152077420Y-61101421D01*
X184485000Y-60515000D02*
X183358496Y-61101421D01*
X184485000Y-60515000D02*
X183358496Y-59928579D01*
D11*
X192223152Y-89754285D02*
X192889819Y-89754285D01*
X191842200Y-89992380D02*
X192556485Y-90230475D01*
X192556485Y-90230475D02*
X192556485Y-89611428D01*
X191889819Y-89325713D02*
X191889819Y-88706666D01*
X191889819Y-88706666D02*
X192270771Y-89039999D01*
X192270771Y-89039999D02*
X192270771Y-88897142D01*
X192270771Y-88897142D02*
X192318390Y-88801904D01*
X192318390Y-88801904D02*
X192366009Y-88754285D01*
X192366009Y-88754285D02*
X192461247Y-88706666D01*
X192461247Y-88706666D02*
X192699342Y-88706666D01*
X192699342Y-88706666D02*
X192794580Y-88754285D01*
X192794580Y-88754285D02*
X192842200Y-88801904D01*
X192842200Y-88801904D02*
X192889819Y-88897142D01*
X192889819Y-88897142D02*
X192889819Y-89182856D01*
X192889819Y-89182856D02*
X192842200Y-89278094D01*
X192842200Y-89278094D02*
X192794580Y-89325713D01*
X192794580Y-88278094D02*
X192842200Y-88230475D01*
X192842200Y-88230475D02*
X192889819Y-88278094D01*
X192889819Y-88278094D02*
X192842200Y-88325713D01*
X192842200Y-88325713D02*
X192794580Y-88278094D01*
X192794580Y-88278094D02*
X192889819Y-88278094D01*
X192889819Y-87754285D02*
X192889819Y-87563809D01*
X192889819Y-87563809D02*
X192842200Y-87468571D01*
X192842200Y-87468571D02*
X192794580Y-87420952D01*
X192794580Y-87420952D02*
X192651723Y-87325714D01*
X192651723Y-87325714D02*
X192461247Y-87278095D01*
X192461247Y-87278095D02*
X192080295Y-87278095D01*
X192080295Y-87278095D02*
X191985057Y-87325714D01*
X191985057Y-87325714D02*
X191937438Y-87373333D01*
X191937438Y-87373333D02*
X191889819Y-87468571D01*
X191889819Y-87468571D02*
X191889819Y-87659047D01*
X191889819Y-87659047D02*
X191937438Y-87754285D01*
X191937438Y-87754285D02*
X191985057Y-87801904D01*
X191985057Y-87801904D02*
X192080295Y-87849523D01*
X192080295Y-87849523D02*
X192318390Y-87849523D01*
X192318390Y-87849523D02*
X192413628Y-87801904D01*
X192413628Y-87801904D02*
X192461247Y-87754285D01*
X192461247Y-87754285D02*
X192508866Y-87659047D01*
X192508866Y-87659047D02*
X192508866Y-87468571D01*
X192508866Y-87468571D02*
X192461247Y-87373333D01*
X192461247Y-87373333D02*
X192413628Y-87325714D01*
X192413628Y-87325714D02*
X192318390Y-87278095D01*
X192889819Y-86087618D02*
X192223152Y-86087618D01*
X192318390Y-86087618D02*
X192270771Y-86039999D01*
X192270771Y-86039999D02*
X192223152Y-85944761D01*
X192223152Y-85944761D02*
X192223152Y-85801904D01*
X192223152Y-85801904D02*
X192270771Y-85706666D01*
X192270771Y-85706666D02*
X192366009Y-85659047D01*
X192366009Y-85659047D02*
X192889819Y-85659047D01*
X192366009Y-85659047D02*
X192270771Y-85611428D01*
X192270771Y-85611428D02*
X192223152Y-85516190D01*
X192223152Y-85516190D02*
X192223152Y-85373333D01*
X192223152Y-85373333D02*
X192270771Y-85278094D01*
X192270771Y-85278094D02*
X192366009Y-85230475D01*
X192366009Y-85230475D02*
X192889819Y-85230475D01*
X192889819Y-84754285D02*
X192223152Y-84754285D01*
X192318390Y-84754285D02*
X192270771Y-84706666D01*
X192270771Y-84706666D02*
X192223152Y-84611428D01*
X192223152Y-84611428D02*
X192223152Y-84468571D01*
X192223152Y-84468571D02*
X192270771Y-84373333D01*
X192270771Y-84373333D02*
X192366009Y-84325714D01*
X192366009Y-84325714D02*
X192889819Y-84325714D01*
X192366009Y-84325714D02*
X192270771Y-84278095D01*
X192270771Y-84278095D02*
X192223152Y-84182857D01*
X192223152Y-84182857D02*
X192223152Y-84040000D01*
X192223152Y-84040000D02*
X192270771Y-83944761D01*
X192270771Y-83944761D02*
X192366009Y-83897142D01*
X192366009Y-83897142D02*
X192889819Y-83897142D01*
D10*
X184885000Y-108990000D02*
X194171420Y-108990000D01*
X194171420Y-65090000D02*
X185010000Y-65090000D01*
X193585000Y-108990000D02*
X193585000Y-65090000D01*
X193585000Y-108990000D02*
X193585000Y-65090000D01*
X193585000Y-108990000D02*
X192998579Y-107863496D01*
X193585000Y-108990000D02*
X194171421Y-107863496D01*
X193585000Y-65090000D02*
X194171421Y-66216504D01*
X193585000Y-65090000D02*
X192998579Y-66216504D01*
X193585000Y-108990000D02*
X193585000Y-65090000D01*
X193585000Y-108990000D02*
X193585000Y-65090000D01*
X193585000Y-108990000D02*
X192998579Y-107863496D01*
X193585000Y-108990000D02*
X194171421Y-107863496D01*
X193585000Y-65090000D02*
X194171421Y-66216504D01*
X193585000Y-65090000D02*
X192998579Y-66216504D01*
D11*
X201389819Y-94746666D02*
X201389819Y-95222856D01*
X201389819Y-95222856D02*
X201866009Y-95270475D01*
X201866009Y-95270475D02*
X201818390Y-95222856D01*
X201818390Y-95222856D02*
X201770771Y-95127618D01*
X201770771Y-95127618D02*
X201770771Y-94889523D01*
X201770771Y-94889523D02*
X201818390Y-94794285D01*
X201818390Y-94794285D02*
X201866009Y-94746666D01*
X201866009Y-94746666D02*
X201961247Y-94699047D01*
X201961247Y-94699047D02*
X202199342Y-94699047D01*
X202199342Y-94699047D02*
X202294580Y-94746666D01*
X202294580Y-94746666D02*
X202342200Y-94794285D01*
X202342200Y-94794285D02*
X202389819Y-94889523D01*
X202389819Y-94889523D02*
X202389819Y-95127618D01*
X202389819Y-95127618D02*
X202342200Y-95222856D01*
X202342200Y-95222856D02*
X202294580Y-95270475D01*
X201723152Y-93841904D02*
X202389819Y-93841904D01*
X201342200Y-94079999D02*
X202056485Y-94318094D01*
X202056485Y-94318094D02*
X202056485Y-93699047D01*
X202294580Y-93318094D02*
X202342200Y-93270475D01*
X202342200Y-93270475D02*
X202389819Y-93318094D01*
X202389819Y-93318094D02*
X202342200Y-93365713D01*
X202342200Y-93365713D02*
X202294580Y-93318094D01*
X202294580Y-93318094D02*
X202389819Y-93318094D01*
X201389819Y-92651428D02*
X201389819Y-92556190D01*
X201389819Y-92556190D02*
X201437438Y-92460952D01*
X201437438Y-92460952D02*
X201485057Y-92413333D01*
X201485057Y-92413333D02*
X201580295Y-92365714D01*
X201580295Y-92365714D02*
X201770771Y-92318095D01*
X201770771Y-92318095D02*
X202008866Y-92318095D01*
X202008866Y-92318095D02*
X202199342Y-92365714D01*
X202199342Y-92365714D02*
X202294580Y-92413333D01*
X202294580Y-92413333D02*
X202342200Y-92460952D01*
X202342200Y-92460952D02*
X202389819Y-92556190D01*
X202389819Y-92556190D02*
X202389819Y-92651428D01*
X202389819Y-92651428D02*
X202342200Y-92746666D01*
X202342200Y-92746666D02*
X202294580Y-92794285D01*
X202294580Y-92794285D02*
X202199342Y-92841904D01*
X202199342Y-92841904D02*
X202008866Y-92889523D01*
X202008866Y-92889523D02*
X201770771Y-92889523D01*
X201770771Y-92889523D02*
X201580295Y-92841904D01*
X201580295Y-92841904D02*
X201485057Y-92794285D01*
X201485057Y-92794285D02*
X201437438Y-92746666D01*
X201437438Y-92746666D02*
X201389819Y-92651428D01*
X202389819Y-91127618D02*
X201723152Y-91127618D01*
X201818390Y-91127618D02*
X201770771Y-91079999D01*
X201770771Y-91079999D02*
X201723152Y-90984761D01*
X201723152Y-90984761D02*
X201723152Y-90841904D01*
X201723152Y-90841904D02*
X201770771Y-90746666D01*
X201770771Y-90746666D02*
X201866009Y-90699047D01*
X201866009Y-90699047D02*
X202389819Y-90699047D01*
X201866009Y-90699047D02*
X201770771Y-90651428D01*
X201770771Y-90651428D02*
X201723152Y-90556190D01*
X201723152Y-90556190D02*
X201723152Y-90413333D01*
X201723152Y-90413333D02*
X201770771Y-90318094D01*
X201770771Y-90318094D02*
X201866009Y-90270475D01*
X201866009Y-90270475D02*
X202389819Y-90270475D01*
X202389819Y-89794285D02*
X201723152Y-89794285D01*
X201818390Y-89794285D02*
X201770771Y-89746666D01*
X201770771Y-89746666D02*
X201723152Y-89651428D01*
X201723152Y-89651428D02*
X201723152Y-89508571D01*
X201723152Y-89508571D02*
X201770771Y-89413333D01*
X201770771Y-89413333D02*
X201866009Y-89365714D01*
X201866009Y-89365714D02*
X202389819Y-89365714D01*
X201866009Y-89365714D02*
X201770771Y-89318095D01*
X201770771Y-89318095D02*
X201723152Y-89222857D01*
X201723152Y-89222857D02*
X201723152Y-89080000D01*
X201723152Y-89080000D02*
X201770771Y-88984761D01*
X201770771Y-88984761D02*
X201866009Y-88937142D01*
X201866009Y-88937142D02*
X202389819Y-88937142D01*
D10*
X184979784Y-65070000D02*
X203671420Y-65070000D01*
X203671420Y-119090000D02*
X170810000Y-119090000D01*
X203085000Y-65070000D02*
X203085000Y-119090000D01*
X203085000Y-65070000D02*
X203085000Y-119090000D01*
X203085000Y-65070000D02*
X203671421Y-66196504D01*
X203085000Y-65070000D02*
X202498579Y-66196504D01*
X203085000Y-119090000D02*
X202498579Y-117963496D01*
X203085000Y-119090000D02*
X203671421Y-117963496D01*
X203085000Y-65070000D02*
X203085000Y-119090000D01*
X203085000Y-65070000D02*
X203085000Y-119090000D01*
X203085000Y-65070000D02*
X203671421Y-66196504D01*
X203085000Y-65070000D02*
X202498579Y-66196504D01*
X203085000Y-119090000D02*
X202498579Y-117963496D01*
X203085000Y-119090000D02*
X203671421Y-117963496D01*
%TO.C,J2*%
X178535000Y-98365000D02*
X178535000Y-107765000D01*
%TO.C,SW3*%
X124710000Y-77190000D02*
X125060000Y-76840000D01*
X124710000Y-78590000D02*
X124710000Y-77190000D01*
X124710000Y-78590000D02*
X125110000Y-78990000D01*
X125060000Y-76840000D02*
X125510000Y-76790000D01*
X125110000Y-78990000D02*
X125510000Y-79040000D01*
X125510000Y-79040000D02*
X125510000Y-76790000D01*
%TO.C,SW2*%
X124710000Y-86240000D02*
X125060000Y-85890000D01*
X124710000Y-87640000D02*
X124710000Y-86240000D01*
X124710000Y-87640000D02*
X125110000Y-88040000D01*
X125060000Y-85890000D02*
X125510000Y-85840000D01*
X125110000Y-88040000D02*
X125510000Y-88090000D01*
X125510000Y-88090000D02*
X125510000Y-85840000D01*
%TD*%
M02*
