%TF.GenerationSoftware,KiCad,Pcbnew,9.0.0-rc1*%
%TF.CreationDate,2025-02-03T21:42:01-06:00*%
%TF.ProjectId,tempo,74656d70-6f2e-46b6-9963-61645f706362,rev?*%
%TF.SameCoordinates,Original*%
%TF.FileFunction,Other,User*%
%FSLAX46Y46*%
G04 Gerber Fmt 4.6, Leading zero omitted, Abs format (unit mm)*
G04 Created by KiCad (PCBNEW 9.0.0-rc1) date 2025-02-03 21:42:01*
%MOMM*%
%LPD*%
G01*
G04 APERTURE LIST*
%ADD10C,0.050000*%
%ADD11C,0.050800*%
%ADD12C,0.127000*%
%ADD13C,0.152400*%
G04 APERTURE END LIST*
D10*
%TO.C,C9*%
X145350000Y-100180000D02*
X147170000Y-100180000D01*
X145350000Y-101100000D02*
X145350000Y-100180000D01*
X147170000Y-100180000D02*
X147170000Y-101100000D01*
X147170000Y-101100000D02*
X145350000Y-101100000D01*
%TO.C,C8*%
X159080000Y-91909999D02*
X162040000Y-91909999D01*
X159080000Y-93369999D02*
X159080000Y-91909999D01*
X162040000Y-91909999D02*
X162040000Y-93369999D01*
X162040000Y-93369999D02*
X159080000Y-93369999D01*
%TO.C,C15*%
X170275000Y-110210000D02*
X173235000Y-110210000D01*
X170275000Y-111670000D02*
X170275000Y-110210000D01*
X173235000Y-110210000D02*
X173235000Y-111670000D01*
X173235000Y-111670000D02*
X170275000Y-111670000D01*
%TO.C,C10*%
X162715000Y-99150000D02*
X165675000Y-99150000D01*
X162715000Y-100610000D02*
X162715000Y-99150000D01*
X165675000Y-99150000D02*
X165675000Y-100610000D01*
X165675000Y-100610000D02*
X162715000Y-100610000D01*
%TO.C,J5*%
X149320000Y-116260000D02*
X138820000Y-116260000D01*
X138820000Y-112710000D01*
X149320000Y-112710000D01*
X149320000Y-116260000D01*
%TO.C,R2*%
X174430000Y-100870000D02*
X176290000Y-100870000D01*
X174430000Y-101810000D02*
X174430000Y-100870000D01*
X176290000Y-100870000D02*
X176290000Y-101810000D01*
X176290000Y-101810000D02*
X174430000Y-101810000D01*
%TO.C,R9*%
X130155000Y-105710000D02*
X133115000Y-105710000D01*
X130155000Y-107170000D02*
X130155000Y-105710000D01*
X133115000Y-105710000D02*
X133115000Y-107170000D01*
X133115000Y-107170000D02*
X130155000Y-107170000D01*
%TO.C,R5*%
X130205000Y-104050000D02*
X133165000Y-104050000D01*
X130205000Y-105510000D02*
X130205000Y-104050000D01*
X133165000Y-104050000D02*
X133165000Y-105510000D01*
X133165000Y-105510000D02*
X130205000Y-105510000D01*
%TO.C,U5*%
X141422500Y-105040000D02*
X141422500Y-111640000D01*
X141422500Y-111640000D02*
X146922500Y-111640000D01*
X146922500Y-105040000D02*
X141422500Y-105040000D01*
X146922500Y-111640000D02*
X146922500Y-105040000D01*
%TO.C,TP3*%
X148660000Y-101740000D02*
X148660000Y-103740000D01*
X148660000Y-101740000D02*
X150660000Y-101740000D01*
X150660000Y-103740000D02*
X148660000Y-103740000D01*
X150660000Y-103740000D02*
X150660000Y-101740000D01*
%TO.C,C2*%
X165330000Y-79610000D02*
X168290000Y-79610000D01*
X165330000Y-81070000D02*
X165330000Y-79610000D01*
X168290000Y-79610000D02*
X168290000Y-81070000D01*
X168290000Y-81070000D02*
X165330000Y-81070000D01*
%TO.C,D2*%
X132510000Y-78440000D02*
X132680000Y-78440000D01*
X132510000Y-79540000D02*
X132510000Y-78440000D01*
X132680000Y-78240000D02*
X133240000Y-78240000D01*
X132680000Y-78440000D02*
X132680000Y-78240000D01*
X132680000Y-79540000D02*
X132510000Y-79540000D01*
X132680000Y-79540000D02*
X132680000Y-79740000D01*
X132680000Y-79740000D02*
X133240000Y-79740000D01*
X133240000Y-78240000D02*
X133240000Y-78440000D01*
X133240000Y-78440000D02*
X133410000Y-78440000D01*
X133240000Y-79740000D02*
X133240000Y-79540000D01*
X133410000Y-78440000D02*
X133410000Y-79540000D01*
X133410000Y-79540000D02*
X133240000Y-79540000D01*
%TO.C,U4*%
X147710000Y-98240000D02*
X150710000Y-98240000D01*
X147710000Y-101740000D02*
X147710000Y-98240000D01*
X150710000Y-98240000D02*
X150710000Y-101740000D01*
X150710000Y-101740000D02*
X147710000Y-101740000D01*
%TO.C,J3*%
X166110000Y-112790000D02*
X166110000Y-115890000D01*
X166110000Y-115890000D02*
X177310000Y-115890000D01*
X177310000Y-112790000D02*
X166110000Y-112790000D01*
X177310000Y-115890000D02*
X177310000Y-112790000D01*
D11*
%TO.C,R13*%
X161045000Y-100830000D02*
X162445000Y-100830000D01*
X161045000Y-104030000D02*
X161045000Y-100830000D01*
X162445000Y-100830000D02*
X162445000Y-104030000D01*
X162445000Y-104030000D02*
X161045000Y-104030000D01*
%TO.C,R15*%
X166720000Y-106530000D02*
X168120000Y-106530000D01*
X166720000Y-109730000D02*
X166720000Y-106530000D01*
X168120000Y-106530000D02*
X168120000Y-109730000D01*
X168120000Y-109730000D02*
X166720000Y-109730000D01*
D12*
%TO.C,H1*%
X131403784Y-95650000D02*
G75*
G02*
X125815784Y-95650000I-2794000J0D01*
G01*
X125815784Y-95650000D02*
G75*
G02*
X131403784Y-95650000I2794000J0D01*
G01*
D10*
%TO.C,C11*%
X164940000Y-106675000D02*
X166400000Y-106675000D01*
X164940000Y-109635000D02*
X164940000Y-106675000D01*
X166400000Y-106675000D02*
X166400000Y-109635000D01*
X166400000Y-109635000D02*
X164940000Y-109635000D01*
D11*
%TO.C,R4*%
X153710000Y-98490000D02*
X155110000Y-98490000D01*
X153710000Y-101690000D02*
X153710000Y-98490000D01*
X155110000Y-98490000D02*
X155110000Y-101690000D01*
X155110000Y-101690000D02*
X153710000Y-101690000D01*
D10*
%TO.C,R8*%
X131865000Y-100960000D02*
X133725000Y-100960000D01*
X131865000Y-101900000D02*
X131865000Y-100960000D01*
X133725000Y-100960000D02*
X133725000Y-101900000D01*
X133725000Y-101900000D02*
X131865000Y-101900000D01*
%TO.C,U7*%
X149460000Y-104540000D02*
X149460000Y-119340000D01*
X149460000Y-119340000D02*
X160360000Y-119340000D01*
X160360000Y-104540000D02*
X149460000Y-104540000D01*
X160360000Y-119340000D02*
X160360000Y-104540000D01*
D11*
%TO.C,R14*%
X132760000Y-109890000D02*
X134160000Y-109890000D01*
X132760000Y-113090000D02*
X132760000Y-109890000D01*
X134160000Y-109890000D02*
X134160000Y-113090000D01*
X134160000Y-113090000D02*
X132760000Y-113090000D01*
D10*
%TO.C,C3*%
X152679300Y-94510126D02*
X154139300Y-94510126D01*
X152679300Y-97470126D02*
X152679300Y-94510126D01*
X154139300Y-94510126D02*
X154139300Y-97470126D01*
X154139300Y-97470126D02*
X152679300Y-97470126D01*
%TO.C,C7*%
X150980000Y-94975000D02*
X152440000Y-94975000D01*
X150980000Y-97935000D02*
X150980000Y-94975000D01*
X152440000Y-94975000D02*
X152440000Y-97935000D01*
X152440000Y-97935000D02*
X150980000Y-97935000D01*
%TO.C,C4*%
X161285000Y-97559999D02*
X164245000Y-97559999D01*
X161285000Y-99019999D02*
X161285000Y-97559999D01*
X164245000Y-97559999D02*
X164245000Y-99019999D01*
X164245000Y-99019999D02*
X161285000Y-99019999D01*
%TO.C,J2*%
X176365000Y-98005000D02*
X176365000Y-108145000D01*
X176365000Y-108145000D02*
X184795000Y-108145000D01*
X184795000Y-98005000D02*
X176365000Y-98005000D01*
X184795000Y-108145000D02*
X184795000Y-98005000D01*
D11*
%TO.C,R16*%
X166445000Y-101055000D02*
X167845000Y-101055000D01*
X166445000Y-104255000D02*
X166445000Y-101055000D01*
X167845000Y-101055000D02*
X167845000Y-104255000D01*
X167845000Y-104255000D02*
X166445000Y-104255000D01*
D10*
%TO.C,R12*%
X144070000Y-100200000D02*
X145010000Y-100200000D01*
X144070000Y-102060000D02*
X144070000Y-100200000D01*
X145010000Y-100200000D02*
X145010000Y-102060000D01*
X145010000Y-102060000D02*
X144070000Y-102060000D01*
D11*
%TO.C,C13*%
X162810000Y-106490000D02*
X164410000Y-106490000D01*
X162810000Y-109490000D02*
X162810000Y-106490000D01*
X164410000Y-106490000D02*
X164410000Y-109490000D01*
X164410000Y-109490000D02*
X162810000Y-109490000D01*
D10*
%TO.C,C6*%
X150730000Y-100010000D02*
X152190000Y-100010000D01*
X150730000Y-102970000D02*
X150730000Y-100010000D01*
X152190000Y-100010000D02*
X152190000Y-102970000D01*
X152190000Y-102970000D02*
X150730000Y-102970000D01*
%TO.C,D1*%
X132560000Y-87390000D02*
X132730000Y-87390000D01*
X132560000Y-88490000D02*
X132560000Y-87390000D01*
X132730000Y-87190000D02*
X133290000Y-87190000D01*
X132730000Y-87390000D02*
X132730000Y-87190000D01*
X132730000Y-88490000D02*
X132560000Y-88490000D01*
X132730000Y-88490000D02*
X132730000Y-88690000D01*
X132730000Y-88690000D02*
X133290000Y-88690000D01*
X133290000Y-87190000D02*
X133290000Y-87390000D01*
X133290000Y-87390000D02*
X133460000Y-87390000D01*
X133290000Y-88690000D02*
X133290000Y-88490000D01*
X133460000Y-87390000D02*
X133460000Y-88490000D01*
X133460000Y-88490000D02*
X133290000Y-88490000D01*
%TO.C,R7*%
X131875000Y-99710000D02*
X133735000Y-99710000D01*
X131875000Y-100650000D02*
X131875000Y-99710000D01*
X133735000Y-99710000D02*
X133735000Y-100650000D01*
X133735000Y-100650000D02*
X131875000Y-100650000D01*
%TO.C,C12*%
X167615000Y-99250000D02*
X170575000Y-99250000D01*
X167615000Y-100710000D02*
X167615000Y-99250000D01*
X170575000Y-99250000D02*
X170575000Y-100710000D01*
X170575000Y-100710000D02*
X167615000Y-100710000D01*
%TO.C,LED3*%
X126725000Y-107420000D02*
X129685000Y-107420000D01*
X126725000Y-108880000D02*
X126725000Y-107420000D01*
X129685000Y-107420000D02*
X129685000Y-108880000D01*
X129685000Y-108880000D02*
X126725000Y-108880000D01*
D11*
%TO.C,R11*%
X170870000Y-99280000D02*
X174070000Y-99280000D01*
X170870000Y-100680000D02*
X170870000Y-99280000D01*
X174070000Y-99280000D02*
X174070000Y-100680000D01*
X174070000Y-100680000D02*
X170870000Y-100680000D01*
D13*
%TO.C,U1*%
X154526600Y-94907426D02*
X155178237Y-94907426D01*
X154526600Y-95309000D02*
X154526600Y-94907426D01*
X154526600Y-95309000D02*
X154526600Y-95309000D01*
X154526600Y-97071252D02*
X154526600Y-95309000D01*
X154526600Y-97071252D02*
X154526600Y-97071252D01*
X154526600Y-97472826D02*
X154526600Y-97071252D01*
X155178237Y-94907426D02*
X155178237Y-94907426D01*
X155178237Y-94907426D02*
X156440363Y-94907426D01*
X155178237Y-97472826D02*
X154526600Y-97472826D01*
X155178237Y-97472826D02*
X155178237Y-97472826D01*
X156440363Y-94907426D02*
X156440363Y-94907426D01*
X156440363Y-94907426D02*
X157092000Y-94907426D01*
X156440363Y-97472826D02*
X155178237Y-97472826D01*
X156440363Y-97472826D02*
X156440363Y-97472826D01*
X157092000Y-94907426D02*
X157092000Y-95309000D01*
X157092000Y-95309000D02*
X157092000Y-95309000D01*
X157092000Y-95309000D02*
X157092000Y-97071252D01*
X157092000Y-97071252D02*
X157092000Y-97071252D01*
X157092000Y-97071252D02*
X157092000Y-97472826D01*
X157092000Y-97472826D02*
X156440363Y-97472826D01*
D10*
%TO.C,TP4*%
X169960000Y-105900000D02*
X169960000Y-107900000D01*
X169960000Y-105900000D02*
X171960000Y-105900000D01*
X171960000Y-107900000D02*
X169960000Y-107900000D01*
X171960000Y-107900000D02*
X171960000Y-105900000D01*
%TO.C,LED1*%
X126745000Y-104010000D02*
X129705000Y-104010000D01*
X126745000Y-105470000D02*
X126745000Y-104010000D01*
X129705000Y-104010000D02*
X129705000Y-105470000D01*
X129705000Y-105470000D02*
X126745000Y-105470000D01*
%TO.C,R10*%
X130095000Y-107440000D02*
X133055000Y-107440000D01*
X130095000Y-108900000D02*
X130095000Y-107440000D01*
X133055000Y-107440000D02*
X133055000Y-108900000D01*
X133055000Y-108900000D02*
X130095000Y-108900000D01*
D12*
%TO.C,H3*%
X184754000Y-113440000D02*
G75*
G02*
X179166000Y-113440000I-2794000J0D01*
G01*
X179166000Y-113440000D02*
G75*
G02*
X184754000Y-113440000I2794000J0D01*
G01*
D10*
%TO.C,R1*%
X174230000Y-104220000D02*
X176090000Y-104220000D01*
X174230000Y-105160000D02*
X174230000Y-104220000D01*
X176090000Y-104220000D02*
X176090000Y-105160000D01*
X176090000Y-105160000D02*
X174230000Y-105160000D01*
%TO.C,SW4*%
X134960000Y-109840000D02*
X138560000Y-109840000D01*
X134960000Y-115440000D02*
X134960000Y-109840000D01*
X138560000Y-109840000D02*
X138560000Y-115440000D01*
X138560000Y-115440000D02*
X134960000Y-115440000D01*
%TO.C,F1*%
X174260000Y-106210000D02*
X176160000Y-106210000D01*
X174260000Y-109570000D02*
X174260000Y-106210000D01*
X176160000Y-106210000D02*
X176160000Y-109570000D01*
X176160000Y-109570000D02*
X174260000Y-109570000D01*
D11*
%TO.C,R3*%
X152310000Y-98490000D02*
X153710000Y-98490000D01*
X152310000Y-101690000D02*
X152310000Y-98490000D01*
X153710000Y-98490000D02*
X153710000Y-101690000D01*
X153710000Y-101690000D02*
X152310000Y-101690000D01*
D10*
%TO.C,C1*%
X157380000Y-96310000D02*
X158840000Y-96310000D01*
X157380000Y-99270000D02*
X157380000Y-96310000D01*
X158840000Y-96310000D02*
X158840000Y-99270000D01*
X158840000Y-99270000D02*
X157380000Y-99270000D01*
%TO.C,LED2*%
X126725000Y-105720000D02*
X129685000Y-105720000D01*
X126725000Y-107180000D02*
X126725000Y-105720000D01*
X129685000Y-105720000D02*
X129685000Y-107180000D01*
X129685000Y-107180000D02*
X126725000Y-107180000D01*
D12*
%TO.C,H2*%
X131404000Y-113440000D02*
G75*
G02*
X125816000Y-113440000I-2794000J0D01*
G01*
X125816000Y-113440000D02*
G75*
G02*
X131404000Y-113440000I2794000J0D01*
G01*
D10*
%TO.C,R6*%
X131865000Y-98260000D02*
X133725000Y-98260000D01*
X131865000Y-99200000D02*
X131865000Y-98260000D01*
X133725000Y-98260000D02*
X133725000Y-99200000D01*
X133725000Y-99200000D02*
X131865000Y-99200000D01*
%TO.C,U2*%
X147360000Y-69690000D02*
X147360000Y-87190000D01*
X147360000Y-87190000D02*
X164860000Y-87190000D01*
X164860000Y-69690000D02*
X147360000Y-69690000D01*
X164860000Y-87190000D02*
X164860000Y-69690000D01*
%TO.C,C5*%
X149250000Y-94975000D02*
X150710000Y-94975000D01*
X149250000Y-97935000D02*
X149250000Y-94975000D01*
X150710000Y-94975000D02*
X150710000Y-97935000D01*
X150710000Y-97935000D02*
X149250000Y-97935000D01*
D13*
%TO.C,U3*%
X159252400Y-94389399D02*
X159257400Y-94389399D01*
X159252400Y-96702199D02*
X159252400Y-94389399D01*
X159257400Y-93793199D02*
X159853600Y-93793199D01*
X159257400Y-94389399D02*
X159257400Y-93793199D01*
X159257400Y-96702199D02*
X159252400Y-96702199D01*
X159257400Y-97298399D02*
X159257400Y-96702199D01*
X159853600Y-93788199D02*
X162166400Y-93788199D01*
X159853600Y-93793199D02*
X159853600Y-93788199D01*
X159853600Y-97298399D02*
X159257400Y-97298399D01*
X159853600Y-97303399D02*
X159853600Y-97298399D01*
X162166400Y-93788199D02*
X162166400Y-93793199D01*
X162166400Y-93793199D02*
X162762600Y-93793199D01*
X162166400Y-97298399D02*
X162166400Y-97303399D01*
X162166400Y-97303399D02*
X159853600Y-97303399D01*
X162762600Y-93793199D02*
X162762600Y-94389399D01*
X162762600Y-94389399D02*
X162767600Y-94389399D01*
X162762600Y-96702199D02*
X162762600Y-97298399D01*
X162762600Y-97298399D02*
X162166400Y-97298399D01*
X162767600Y-94389399D02*
X162767600Y-96702199D01*
X162767600Y-96702199D02*
X162762600Y-96702199D01*
%TD*%
M02*
