%TF.GenerationSoftware,KiCad,Pcbnew,9.0.0-rc1*%
%TF.CreationDate,2025-02-03T21:42:01-06:00*%
%TF.ProjectId,tempo,74656d70-6f2e-46b6-9963-61645f706362,rev?*%
%TF.SameCoordinates,Original*%
%TF.FileFunction,Paste,Top*%
%TF.FilePolarity,Positive*%
%FSLAX46Y46*%
G04 Gerber Fmt 4.6, Leading zero omitted, Abs format (unit mm)*
G04 Created by KiCad (PCBNEW 9.0.0-rc1) date 2025-02-03 21:42:01*
%MOMM*%
%LPD*%
G01*
G04 APERTURE LIST*
G04 Aperture macros list*
%AMRoundRect*
0 Rectangle with rounded corners*
0 $1 Rounding radius*
0 $2 $3 $4 $5 $6 $7 $8 $9 X,Y pos of 4 corners*
0 Add a 4 corners polygon primitive as box body*
4,1,4,$2,$3,$4,$5,$6,$7,$8,$9,$2,$3,0*
0 Add four circle primitives for the rounded corners*
1,1,$1+$1,$2,$3*
1,1,$1+$1,$4,$5*
1,1,$1+$1,$6,$7*
1,1,$1+$1,$8,$9*
0 Add four rect primitives between the rounded corners*
20,1,$1+$1,$2,$3,$4,$5,0*
20,1,$1+$1,$4,$5,$6,$7,0*
20,1,$1+$1,$6,$7,$8,$9,0*
20,1,$1+$1,$8,$9,$2,$3,0*%
G04 Aperture macros list end*
%ADD10C,0.010000*%
%ADD11RoundRect,0.112000X-0.112000X-0.136000X0.112000X-0.136000X0.112000X0.136000X-0.112000X0.136000X0*%
%ADD12RoundRect,0.180000X0.180000X0.200000X-0.180000X0.200000X-0.180000X-0.200000X0.180000X-0.200000X0*%
%ADD13RoundRect,0.180000X-0.180000X-0.200000X0.180000X-0.200000X0.180000X0.200000X-0.180000X0.200000X0*%
%ADD14RoundRect,0.108000X0.108000X0.148000X-0.108000X0.148000X-0.108000X-0.148000X0.108000X-0.148000X0*%
%ADD15RoundRect,0.160000X0.160000X0.220000X-0.160000X0.220000X-0.160000X-0.220000X0.160000X-0.220000X0*%
%ADD16R,0.440000X0.960000*%
%ADD17RoundRect,0.250000X-0.555000X0.435000X-0.555000X-0.435000X0.555000X-0.435000X0.555000X0.435000X0*%
%ADD18RoundRect,0.100000X-0.100000X0.210000X-0.100000X-0.210000X0.100000X-0.210000X0.100000X0.210000X0*%
%ADD19R,1.080000X0.480000*%
%ADD20R,1.600000X0.960000*%
%ADD21R,0.664000X0.504000*%
%ADD22RoundRect,0.050000X-0.050000X0.094000X-0.050000X-0.094000X0.050000X-0.094000X0.050000X0.094000X0*%
%ADD23RoundRect,0.025830X0.117670X-0.237670X0.117670X0.237670X-0.117670X0.237670X-0.117670X-0.237670X0*%
%ADD24RoundRect,0.025830X0.237670X0.117670X-0.237670X0.117670X-0.237670X-0.117670X0.237670X-0.117670X0*%
%ADD25R,0.800000X0.880000*%
%ADD26RoundRect,0.180000X-0.200000X0.180000X-0.200000X-0.180000X0.200000X-0.180000X0.200000X0.180000X0*%
%ADD27R,0.880000X1.520000*%
%ADD28R,0.480000X0.480000*%
%ADD29RoundRect,0.180000X0.200000X-0.180000X0.200000X0.180000X-0.200000X0.180000X-0.200000X-0.180000X0*%
%ADD30R,1.000000X0.480000*%
%ADD31R,1.000000X0.240000*%
%ADD32RoundRect,0.108000X0.148000X-0.108000X0.148000X0.108000X-0.148000X0.108000X-0.148000X-0.108000X0*%
%ADD33R,0.960000X0.640000*%
%ADD34RoundRect,0.120000X-0.280000X-0.280000X0.280000X-0.280000X0.280000X0.280000X-0.280000X0.280000X0*%
%ADD35RoundRect,0.168000X0.392000X0.432000X-0.392000X0.432000X-0.392000X-0.432000X0.392000X-0.432000X0*%
%ADD36R,0.520000X0.680000*%
%ADD37RoundRect,0.175000X-0.175000X-0.205000X0.175000X-0.205000X0.175000X0.205000X-0.175000X0.205000X0*%
%ADD38R,0.880000X0.800000*%
%ADD39R,0.203200X0.223520*%
%ADD40R,0.223520X0.203200*%
%ADD41R,0.800000X0.720000*%
%ADD42RoundRect,0.195000X0.365000X-0.195000X0.365000X0.195000X-0.365000X0.195000X-0.365000X-0.195000X0*%
%ADD43R,0.640000X0.720000*%
%ADD44R,0.243840X0.365760*%
%ADD45R,0.365760X0.243840*%
G04 APERTURE END LIST*
D10*
%TO.C,U2*%
X149370000Y-74505000D02*
X148650000Y-74505000D01*
X148650000Y-73925000D01*
X149370000Y-73925000D01*
X149370000Y-74505000D01*
G36*
X149370000Y-74505000D02*
G01*
X148650000Y-74505000D01*
X148650000Y-73925000D01*
X149370000Y-73925000D01*
X149370000Y-74505000D01*
G37*
X149370000Y-75355000D02*
X148650000Y-75355000D01*
X148650000Y-74775000D01*
X149370000Y-74775000D01*
X149370000Y-75355000D01*
G36*
X149370000Y-75355000D02*
G01*
X148650000Y-75355000D01*
X148650000Y-74775000D01*
X149370000Y-74775000D01*
X149370000Y-75355000D01*
G37*
X149370000Y-76405000D02*
X148650000Y-76405000D01*
X148650000Y-75825000D01*
X149370000Y-75825000D01*
X149370000Y-76405000D01*
G36*
X149370000Y-76405000D02*
G01*
X148650000Y-76405000D01*
X148650000Y-75825000D01*
X149370000Y-75825000D01*
X149370000Y-76405000D01*
G37*
X149370000Y-77255000D02*
X148650000Y-77255000D01*
X148650000Y-76675000D01*
X149370000Y-76675000D01*
X149370000Y-77255000D01*
G36*
X149370000Y-77255000D02*
G01*
X148650000Y-77255000D01*
X148650000Y-76675000D01*
X149370000Y-76675000D01*
X149370000Y-77255000D01*
G37*
X149370000Y-78305000D02*
X148650000Y-78305000D01*
X148650000Y-77725000D01*
X149370000Y-77725000D01*
X149370000Y-78305000D01*
G36*
X149370000Y-78305000D02*
G01*
X148650000Y-78305000D01*
X148650000Y-77725000D01*
X149370000Y-77725000D01*
X149370000Y-78305000D01*
G37*
X149370000Y-79155000D02*
X148650000Y-79155000D01*
X148650000Y-78575000D01*
X149370000Y-78575000D01*
X149370000Y-79155000D01*
G36*
X149370000Y-79155000D02*
G01*
X148650000Y-79155000D01*
X148650000Y-78575000D01*
X149370000Y-78575000D01*
X149370000Y-79155000D01*
G37*
X149370000Y-80205000D02*
X148650000Y-80205000D01*
X148650000Y-79625000D01*
X149370000Y-79625000D01*
X149370000Y-80205000D01*
G36*
X149370000Y-80205000D02*
G01*
X148650000Y-80205000D01*
X148650000Y-79625000D01*
X149370000Y-79625000D01*
X149370000Y-80205000D01*
G37*
X149370000Y-81055000D02*
X148650000Y-81055000D01*
X148650000Y-80475000D01*
X149370000Y-80475000D01*
X149370000Y-81055000D01*
G36*
X149370000Y-81055000D02*
G01*
X148650000Y-81055000D01*
X148650000Y-80475000D01*
X149370000Y-80475000D01*
X149370000Y-81055000D01*
G37*
X149370000Y-82105000D02*
X148650000Y-82105000D01*
X148650000Y-81525000D01*
X149370000Y-81525000D01*
X149370000Y-82105000D01*
G36*
X149370000Y-82105000D02*
G01*
X148650000Y-82105000D01*
X148650000Y-81525000D01*
X149370000Y-81525000D01*
X149370000Y-82105000D01*
G37*
X149370000Y-82955000D02*
X148650000Y-82955000D01*
X148650000Y-82375000D01*
X149370000Y-82375000D01*
X149370000Y-82955000D01*
G36*
X149370000Y-82955000D02*
G01*
X148650000Y-82955000D01*
X148650000Y-82375000D01*
X149370000Y-82375000D01*
X149370000Y-82955000D01*
G37*
X150370000Y-74505000D02*
X149650000Y-74505000D01*
X149650000Y-73925000D01*
X150370000Y-73925000D01*
X150370000Y-74505000D01*
G36*
X150370000Y-74505000D02*
G01*
X149650000Y-74505000D01*
X149650000Y-73925000D01*
X150370000Y-73925000D01*
X150370000Y-74505000D01*
G37*
X150370000Y-75355000D02*
X149650000Y-75355000D01*
X149650000Y-74775000D01*
X150370000Y-74775000D01*
X150370000Y-75355000D01*
G36*
X150370000Y-75355000D02*
G01*
X149650000Y-75355000D01*
X149650000Y-74775000D01*
X150370000Y-74775000D01*
X150370000Y-75355000D01*
G37*
X150370000Y-76405000D02*
X149650000Y-76405000D01*
X149650000Y-75825000D01*
X150370000Y-75825000D01*
X150370000Y-76405000D01*
G36*
X150370000Y-76405000D02*
G01*
X149650000Y-76405000D01*
X149650000Y-75825000D01*
X150370000Y-75825000D01*
X150370000Y-76405000D01*
G37*
X150370000Y-77255000D02*
X149650000Y-77255000D01*
X149650000Y-76675000D01*
X150370000Y-76675000D01*
X150370000Y-77255000D01*
G36*
X150370000Y-77255000D02*
G01*
X149650000Y-77255000D01*
X149650000Y-76675000D01*
X150370000Y-76675000D01*
X150370000Y-77255000D01*
G37*
X150370000Y-78305000D02*
X149650000Y-78305000D01*
X149650000Y-77725000D01*
X150370000Y-77725000D01*
X150370000Y-78305000D01*
G36*
X150370000Y-78305000D02*
G01*
X149650000Y-78305000D01*
X149650000Y-77725000D01*
X150370000Y-77725000D01*
X150370000Y-78305000D01*
G37*
X150370000Y-79155000D02*
X149650000Y-79155000D01*
X149650000Y-78575000D01*
X150370000Y-78575000D01*
X150370000Y-79155000D01*
G36*
X150370000Y-79155000D02*
G01*
X149650000Y-79155000D01*
X149650000Y-78575000D01*
X150370000Y-78575000D01*
X150370000Y-79155000D01*
G37*
X150370000Y-80205000D02*
X149650000Y-80205000D01*
X149650000Y-79625000D01*
X150370000Y-79625000D01*
X150370000Y-80205000D01*
G36*
X150370000Y-80205000D02*
G01*
X149650000Y-80205000D01*
X149650000Y-79625000D01*
X150370000Y-79625000D01*
X150370000Y-80205000D01*
G37*
X150370000Y-81055000D02*
X149650000Y-81055000D01*
X149650000Y-80475000D01*
X150370000Y-80475000D01*
X150370000Y-81055000D01*
G36*
X150370000Y-81055000D02*
G01*
X149650000Y-81055000D01*
X149650000Y-80475000D01*
X150370000Y-80475000D01*
X150370000Y-81055000D01*
G37*
X150370000Y-82105000D02*
X149650000Y-82105000D01*
X149650000Y-81525000D01*
X150370000Y-81525000D01*
X150370000Y-82105000D01*
G36*
X150370000Y-82105000D02*
G01*
X149650000Y-82105000D01*
X149650000Y-81525000D01*
X150370000Y-81525000D01*
X150370000Y-82105000D01*
G37*
X150370000Y-82955000D02*
X149650000Y-82955000D01*
X149650000Y-82375000D01*
X150370000Y-82375000D01*
X150370000Y-82955000D01*
G36*
X150370000Y-82955000D02*
G01*
X149650000Y-82955000D01*
X149650000Y-82375000D01*
X150370000Y-82375000D01*
X150370000Y-82955000D01*
G37*
X152175000Y-71700000D02*
X151595000Y-71700000D01*
X151595000Y-70980000D01*
X152175000Y-70980000D01*
X152175000Y-71700000D01*
G36*
X152175000Y-71700000D02*
G01*
X151595000Y-71700000D01*
X151595000Y-70980000D01*
X152175000Y-70980000D01*
X152175000Y-71700000D01*
G37*
X152175000Y-72700000D02*
X151595000Y-72700000D01*
X151595000Y-71980000D01*
X152175000Y-71980000D01*
X152175000Y-72700000D01*
G36*
X152175000Y-72700000D02*
G01*
X151595000Y-72700000D01*
X151595000Y-71980000D01*
X152175000Y-71980000D01*
X152175000Y-72700000D01*
G37*
X152175000Y-84900000D02*
X151595000Y-84900000D01*
X151595000Y-84180000D01*
X152175000Y-84180000D01*
X152175000Y-84900000D01*
G36*
X152175000Y-84900000D02*
G01*
X151595000Y-84900000D01*
X151595000Y-84180000D01*
X152175000Y-84180000D01*
X152175000Y-84900000D01*
G37*
X152175000Y-85900000D02*
X151595000Y-85900000D01*
X151595000Y-85180000D01*
X152175000Y-85180000D01*
X152175000Y-85900000D01*
G36*
X152175000Y-85900000D02*
G01*
X151595000Y-85900000D01*
X151595000Y-85180000D01*
X152175000Y-85180000D01*
X152175000Y-85900000D01*
G37*
X153025000Y-71700000D02*
X152445000Y-71700000D01*
X152445000Y-70980000D01*
X153025000Y-70980000D01*
X153025000Y-71700000D01*
G36*
X153025000Y-71700000D02*
G01*
X152445000Y-71700000D01*
X152445000Y-70980000D01*
X153025000Y-70980000D01*
X153025000Y-71700000D01*
G37*
X153025000Y-72700000D02*
X152445000Y-72700000D01*
X152445000Y-71980000D01*
X153025000Y-71980000D01*
X153025000Y-72700000D01*
G36*
X153025000Y-72700000D02*
G01*
X152445000Y-72700000D01*
X152445000Y-71980000D01*
X153025000Y-71980000D01*
X153025000Y-72700000D01*
G37*
X153025000Y-84900000D02*
X152445000Y-84900000D01*
X152445000Y-84180000D01*
X153025000Y-84180000D01*
X153025000Y-84900000D01*
G36*
X153025000Y-84900000D02*
G01*
X152445000Y-84900000D01*
X152445000Y-84180000D01*
X153025000Y-84180000D01*
X153025000Y-84900000D01*
G37*
X153025000Y-85900000D02*
X152445000Y-85900000D01*
X152445000Y-85180000D01*
X153025000Y-85180000D01*
X153025000Y-85900000D01*
G36*
X153025000Y-85900000D02*
G01*
X152445000Y-85900000D01*
X152445000Y-85180000D01*
X153025000Y-85180000D01*
X153025000Y-85900000D01*
G37*
X154075000Y-71700000D02*
X153495000Y-71700000D01*
X153495000Y-70980000D01*
X154075000Y-70980000D01*
X154075000Y-71700000D01*
G36*
X154075000Y-71700000D02*
G01*
X153495000Y-71700000D01*
X153495000Y-70980000D01*
X154075000Y-70980000D01*
X154075000Y-71700000D01*
G37*
X154075000Y-72700000D02*
X153495000Y-72700000D01*
X153495000Y-71980000D01*
X154075000Y-71980000D01*
X154075000Y-72700000D01*
G36*
X154075000Y-72700000D02*
G01*
X153495000Y-72700000D01*
X153495000Y-71980000D01*
X154075000Y-71980000D01*
X154075000Y-72700000D01*
G37*
X154075000Y-84900000D02*
X153495000Y-84900000D01*
X153495000Y-84180000D01*
X154075000Y-84180000D01*
X154075000Y-84900000D01*
G36*
X154075000Y-84900000D02*
G01*
X153495000Y-84900000D01*
X153495000Y-84180000D01*
X154075000Y-84180000D01*
X154075000Y-84900000D01*
G37*
X154075000Y-85900000D02*
X153495000Y-85900000D01*
X153495000Y-85180000D01*
X154075000Y-85180000D01*
X154075000Y-85900000D01*
G36*
X154075000Y-85900000D02*
G01*
X153495000Y-85900000D01*
X153495000Y-85180000D01*
X154075000Y-85180000D01*
X154075000Y-85900000D01*
G37*
X154925000Y-71700000D02*
X154345000Y-71700000D01*
X154345000Y-70980000D01*
X154925000Y-70980000D01*
X154925000Y-71700000D01*
G36*
X154925000Y-71700000D02*
G01*
X154345000Y-71700000D01*
X154345000Y-70980000D01*
X154925000Y-70980000D01*
X154925000Y-71700000D01*
G37*
X154925000Y-72700000D02*
X154345000Y-72700000D01*
X154345000Y-71980000D01*
X154925000Y-71980000D01*
X154925000Y-72700000D01*
G36*
X154925000Y-72700000D02*
G01*
X154345000Y-72700000D01*
X154345000Y-71980000D01*
X154925000Y-71980000D01*
X154925000Y-72700000D01*
G37*
X154925000Y-84900000D02*
X154345000Y-84900000D01*
X154345000Y-84180000D01*
X154925000Y-84180000D01*
X154925000Y-84900000D01*
G36*
X154925000Y-84900000D02*
G01*
X154345000Y-84900000D01*
X154345000Y-84180000D01*
X154925000Y-84180000D01*
X154925000Y-84900000D01*
G37*
X154925000Y-85900000D02*
X154345000Y-85900000D01*
X154345000Y-85180000D01*
X154925000Y-85180000D01*
X154925000Y-85900000D01*
G36*
X154925000Y-85900000D02*
G01*
X154345000Y-85900000D01*
X154345000Y-85180000D01*
X154925000Y-85180000D01*
X154925000Y-85900000D01*
G37*
X155975000Y-71700000D02*
X155395000Y-71700000D01*
X155395000Y-70980000D01*
X155975000Y-70980000D01*
X155975000Y-71700000D01*
G36*
X155975000Y-71700000D02*
G01*
X155395000Y-71700000D01*
X155395000Y-70980000D01*
X155975000Y-70980000D01*
X155975000Y-71700000D01*
G37*
X155975000Y-72700000D02*
X155395000Y-72700000D01*
X155395000Y-71980000D01*
X155975000Y-71980000D01*
X155975000Y-72700000D01*
G36*
X155975000Y-72700000D02*
G01*
X155395000Y-72700000D01*
X155395000Y-71980000D01*
X155975000Y-71980000D01*
X155975000Y-72700000D01*
G37*
X155975000Y-84900000D02*
X155395000Y-84900000D01*
X155395000Y-84180000D01*
X155975000Y-84180000D01*
X155975000Y-84900000D01*
G36*
X155975000Y-84900000D02*
G01*
X155395000Y-84900000D01*
X155395000Y-84180000D01*
X155975000Y-84180000D01*
X155975000Y-84900000D01*
G37*
X155975000Y-85900000D02*
X155395000Y-85900000D01*
X155395000Y-85180000D01*
X155975000Y-85180000D01*
X155975000Y-85900000D01*
G36*
X155975000Y-85900000D02*
G01*
X155395000Y-85900000D01*
X155395000Y-85180000D01*
X155975000Y-85180000D01*
X155975000Y-85900000D01*
G37*
X156825000Y-71700000D02*
X156245000Y-71700000D01*
X156245000Y-70980000D01*
X156825000Y-70980000D01*
X156825000Y-71700000D01*
G36*
X156825000Y-71700000D02*
G01*
X156245000Y-71700000D01*
X156245000Y-70980000D01*
X156825000Y-70980000D01*
X156825000Y-71700000D01*
G37*
X156825000Y-72700000D02*
X156245000Y-72700000D01*
X156245000Y-71980000D01*
X156825000Y-71980000D01*
X156825000Y-72700000D01*
G36*
X156825000Y-72700000D02*
G01*
X156245000Y-72700000D01*
X156245000Y-71980000D01*
X156825000Y-71980000D01*
X156825000Y-72700000D01*
G37*
X156825000Y-84900000D02*
X156245000Y-84900000D01*
X156245000Y-84180000D01*
X156825000Y-84180000D01*
X156825000Y-84900000D01*
G36*
X156825000Y-84900000D02*
G01*
X156245000Y-84900000D01*
X156245000Y-84180000D01*
X156825000Y-84180000D01*
X156825000Y-84900000D01*
G37*
X156825000Y-85900000D02*
X156245000Y-85900000D01*
X156245000Y-85180000D01*
X156825000Y-85180000D01*
X156825000Y-85900000D01*
G36*
X156825000Y-85900000D02*
G01*
X156245000Y-85900000D01*
X156245000Y-85180000D01*
X156825000Y-85180000D01*
X156825000Y-85900000D01*
G37*
X157875000Y-71700000D02*
X157295000Y-71700000D01*
X157295000Y-70980000D01*
X157875000Y-70980000D01*
X157875000Y-71700000D01*
G36*
X157875000Y-71700000D02*
G01*
X157295000Y-71700000D01*
X157295000Y-70980000D01*
X157875000Y-70980000D01*
X157875000Y-71700000D01*
G37*
X157875000Y-72700000D02*
X157295000Y-72700000D01*
X157295000Y-71980000D01*
X157875000Y-71980000D01*
X157875000Y-72700000D01*
G36*
X157875000Y-72700000D02*
G01*
X157295000Y-72700000D01*
X157295000Y-71980000D01*
X157875000Y-71980000D01*
X157875000Y-72700000D01*
G37*
X157875000Y-84900000D02*
X157295000Y-84900000D01*
X157295000Y-84180000D01*
X157875000Y-84180000D01*
X157875000Y-84900000D01*
G36*
X157875000Y-84900000D02*
G01*
X157295000Y-84900000D01*
X157295000Y-84180000D01*
X157875000Y-84180000D01*
X157875000Y-84900000D01*
G37*
X157875000Y-85900000D02*
X157295000Y-85900000D01*
X157295000Y-85180000D01*
X157875000Y-85180000D01*
X157875000Y-85900000D01*
G36*
X157875000Y-85900000D02*
G01*
X157295000Y-85900000D01*
X157295000Y-85180000D01*
X157875000Y-85180000D01*
X157875000Y-85900000D01*
G37*
X158725000Y-71700000D02*
X158145000Y-71700000D01*
X158145000Y-70980000D01*
X158725000Y-70980000D01*
X158725000Y-71700000D01*
G36*
X158725000Y-71700000D02*
G01*
X158145000Y-71700000D01*
X158145000Y-70980000D01*
X158725000Y-70980000D01*
X158725000Y-71700000D01*
G37*
X158725000Y-72700000D02*
X158145000Y-72700000D01*
X158145000Y-71980000D01*
X158725000Y-71980000D01*
X158725000Y-72700000D01*
G36*
X158725000Y-72700000D02*
G01*
X158145000Y-72700000D01*
X158145000Y-71980000D01*
X158725000Y-71980000D01*
X158725000Y-72700000D01*
G37*
X158725000Y-84900000D02*
X158145000Y-84900000D01*
X158145000Y-84180000D01*
X158725000Y-84180000D01*
X158725000Y-84900000D01*
G36*
X158725000Y-84900000D02*
G01*
X158145000Y-84900000D01*
X158145000Y-84180000D01*
X158725000Y-84180000D01*
X158725000Y-84900000D01*
G37*
X158725000Y-85900000D02*
X158145000Y-85900000D01*
X158145000Y-85180000D01*
X158725000Y-85180000D01*
X158725000Y-85900000D01*
G36*
X158725000Y-85900000D02*
G01*
X158145000Y-85900000D01*
X158145000Y-85180000D01*
X158725000Y-85180000D01*
X158725000Y-85900000D01*
G37*
X159775000Y-71700000D02*
X159195000Y-71700000D01*
X159195000Y-70980000D01*
X159775000Y-70980000D01*
X159775000Y-71700000D01*
G36*
X159775000Y-71700000D02*
G01*
X159195000Y-71700000D01*
X159195000Y-70980000D01*
X159775000Y-70980000D01*
X159775000Y-71700000D01*
G37*
X159775000Y-72700000D02*
X159195000Y-72700000D01*
X159195000Y-71980000D01*
X159775000Y-71980000D01*
X159775000Y-72700000D01*
G36*
X159775000Y-72700000D02*
G01*
X159195000Y-72700000D01*
X159195000Y-71980000D01*
X159775000Y-71980000D01*
X159775000Y-72700000D01*
G37*
X159775000Y-84900000D02*
X159195000Y-84900000D01*
X159195000Y-84180000D01*
X159775000Y-84180000D01*
X159775000Y-84900000D01*
G36*
X159775000Y-84900000D02*
G01*
X159195000Y-84900000D01*
X159195000Y-84180000D01*
X159775000Y-84180000D01*
X159775000Y-84900000D01*
G37*
X159775000Y-85900000D02*
X159195000Y-85900000D01*
X159195000Y-85180000D01*
X159775000Y-85180000D01*
X159775000Y-85900000D01*
G36*
X159775000Y-85900000D02*
G01*
X159195000Y-85900000D01*
X159195000Y-85180000D01*
X159775000Y-85180000D01*
X159775000Y-85900000D01*
G37*
X160625000Y-71700000D02*
X160045000Y-71700000D01*
X160045000Y-70980000D01*
X160625000Y-70980000D01*
X160625000Y-71700000D01*
G36*
X160625000Y-71700000D02*
G01*
X160045000Y-71700000D01*
X160045000Y-70980000D01*
X160625000Y-70980000D01*
X160625000Y-71700000D01*
G37*
X160625000Y-72700000D02*
X160045000Y-72700000D01*
X160045000Y-71980000D01*
X160625000Y-71980000D01*
X160625000Y-72700000D01*
G36*
X160625000Y-72700000D02*
G01*
X160045000Y-72700000D01*
X160045000Y-71980000D01*
X160625000Y-71980000D01*
X160625000Y-72700000D01*
G37*
X160625000Y-84900000D02*
X160045000Y-84900000D01*
X160045000Y-84180000D01*
X160625000Y-84180000D01*
X160625000Y-84900000D01*
G36*
X160625000Y-84900000D02*
G01*
X160045000Y-84900000D01*
X160045000Y-84180000D01*
X160625000Y-84180000D01*
X160625000Y-84900000D01*
G37*
X160625000Y-85900000D02*
X160045000Y-85900000D01*
X160045000Y-85180000D01*
X160625000Y-85180000D01*
X160625000Y-85900000D01*
G36*
X160625000Y-85900000D02*
G01*
X160045000Y-85900000D01*
X160045000Y-85180000D01*
X160625000Y-85180000D01*
X160625000Y-85900000D01*
G37*
X162570000Y-74505000D02*
X161850000Y-74505000D01*
X161850000Y-73925000D01*
X162570000Y-73925000D01*
X162570000Y-74505000D01*
G36*
X162570000Y-74505000D02*
G01*
X161850000Y-74505000D01*
X161850000Y-73925000D01*
X162570000Y-73925000D01*
X162570000Y-74505000D01*
G37*
X162570000Y-75355000D02*
X161850000Y-75355000D01*
X161850000Y-74775000D01*
X162570000Y-74775000D01*
X162570000Y-75355000D01*
G36*
X162570000Y-75355000D02*
G01*
X161850000Y-75355000D01*
X161850000Y-74775000D01*
X162570000Y-74775000D01*
X162570000Y-75355000D01*
G37*
X162570000Y-76405000D02*
X161850000Y-76405000D01*
X161850000Y-75825000D01*
X162570000Y-75825000D01*
X162570000Y-76405000D01*
G36*
X162570000Y-76405000D02*
G01*
X161850000Y-76405000D01*
X161850000Y-75825000D01*
X162570000Y-75825000D01*
X162570000Y-76405000D01*
G37*
X162570000Y-77255000D02*
X161850000Y-77255000D01*
X161850000Y-76675000D01*
X162570000Y-76675000D01*
X162570000Y-77255000D01*
G36*
X162570000Y-77255000D02*
G01*
X161850000Y-77255000D01*
X161850000Y-76675000D01*
X162570000Y-76675000D01*
X162570000Y-77255000D01*
G37*
X162570000Y-78305000D02*
X161850000Y-78305000D01*
X161850000Y-77725000D01*
X162570000Y-77725000D01*
X162570000Y-78305000D01*
G36*
X162570000Y-78305000D02*
G01*
X161850000Y-78305000D01*
X161850000Y-77725000D01*
X162570000Y-77725000D01*
X162570000Y-78305000D01*
G37*
X162570000Y-79155000D02*
X161850000Y-79155000D01*
X161850000Y-78575000D01*
X162570000Y-78575000D01*
X162570000Y-79155000D01*
G36*
X162570000Y-79155000D02*
G01*
X161850000Y-79155000D01*
X161850000Y-78575000D01*
X162570000Y-78575000D01*
X162570000Y-79155000D01*
G37*
X162570000Y-80205000D02*
X161850000Y-80205000D01*
X161850000Y-79625000D01*
X162570000Y-79625000D01*
X162570000Y-80205000D01*
G36*
X162570000Y-80205000D02*
G01*
X161850000Y-80205000D01*
X161850000Y-79625000D01*
X162570000Y-79625000D01*
X162570000Y-80205000D01*
G37*
X162570000Y-81055000D02*
X161850000Y-81055000D01*
X161850000Y-80475000D01*
X162570000Y-80475000D01*
X162570000Y-81055000D01*
G36*
X162570000Y-81055000D02*
G01*
X161850000Y-81055000D01*
X161850000Y-80475000D01*
X162570000Y-80475000D01*
X162570000Y-81055000D01*
G37*
X162570000Y-82105000D02*
X161850000Y-82105000D01*
X161850000Y-81525000D01*
X162570000Y-81525000D01*
X162570000Y-82105000D01*
G36*
X162570000Y-82105000D02*
G01*
X161850000Y-82105000D01*
X161850000Y-81525000D01*
X162570000Y-81525000D01*
X162570000Y-82105000D01*
G37*
X162570000Y-82955000D02*
X161850000Y-82955000D01*
X161850000Y-82375000D01*
X162570000Y-82375000D01*
X162570000Y-82955000D01*
G36*
X162570000Y-82955000D02*
G01*
X161850000Y-82955000D01*
X161850000Y-82375000D01*
X162570000Y-82375000D01*
X162570000Y-82955000D01*
G37*
X163570000Y-74505000D02*
X162850000Y-74505000D01*
X162850000Y-73925000D01*
X163570000Y-73925000D01*
X163570000Y-74505000D01*
G36*
X163570000Y-74505000D02*
G01*
X162850000Y-74505000D01*
X162850000Y-73925000D01*
X163570000Y-73925000D01*
X163570000Y-74505000D01*
G37*
X163570000Y-75355000D02*
X162850000Y-75355000D01*
X162850000Y-74775000D01*
X163570000Y-74775000D01*
X163570000Y-75355000D01*
G36*
X163570000Y-75355000D02*
G01*
X162850000Y-75355000D01*
X162850000Y-74775000D01*
X163570000Y-74775000D01*
X163570000Y-75355000D01*
G37*
X163570000Y-76405000D02*
X162850000Y-76405000D01*
X162850000Y-75825000D01*
X163570000Y-75825000D01*
X163570000Y-76405000D01*
G36*
X163570000Y-76405000D02*
G01*
X162850000Y-76405000D01*
X162850000Y-75825000D01*
X163570000Y-75825000D01*
X163570000Y-76405000D01*
G37*
X163570000Y-77255000D02*
X162850000Y-77255000D01*
X162850000Y-76675000D01*
X163570000Y-76675000D01*
X163570000Y-77255000D01*
G36*
X163570000Y-77255000D02*
G01*
X162850000Y-77255000D01*
X162850000Y-76675000D01*
X163570000Y-76675000D01*
X163570000Y-77255000D01*
G37*
X163570000Y-78305000D02*
X162850000Y-78305000D01*
X162850000Y-77725000D01*
X163570000Y-77725000D01*
X163570000Y-78305000D01*
G36*
X163570000Y-78305000D02*
G01*
X162850000Y-78305000D01*
X162850000Y-77725000D01*
X163570000Y-77725000D01*
X163570000Y-78305000D01*
G37*
X163570000Y-79155000D02*
X162850000Y-79155000D01*
X162850000Y-78575000D01*
X163570000Y-78575000D01*
X163570000Y-79155000D01*
G36*
X163570000Y-79155000D02*
G01*
X162850000Y-79155000D01*
X162850000Y-78575000D01*
X163570000Y-78575000D01*
X163570000Y-79155000D01*
G37*
X163570000Y-80205000D02*
X162850000Y-80205000D01*
X162850000Y-79625000D01*
X163570000Y-79625000D01*
X163570000Y-80205000D01*
G36*
X163570000Y-80205000D02*
G01*
X162850000Y-80205000D01*
X162850000Y-79625000D01*
X163570000Y-79625000D01*
X163570000Y-80205000D01*
G37*
X163570000Y-81055000D02*
X162850000Y-81055000D01*
X162850000Y-80475000D01*
X163570000Y-80475000D01*
X163570000Y-81055000D01*
G36*
X163570000Y-81055000D02*
G01*
X162850000Y-81055000D01*
X162850000Y-80475000D01*
X163570000Y-80475000D01*
X163570000Y-81055000D01*
G37*
X163570000Y-82105000D02*
X162850000Y-82105000D01*
X162850000Y-81525000D01*
X163570000Y-81525000D01*
X163570000Y-82105000D01*
G36*
X163570000Y-82105000D02*
G01*
X162850000Y-82105000D01*
X162850000Y-81525000D01*
X163570000Y-81525000D01*
X163570000Y-82105000D01*
G37*
X163570000Y-82955000D02*
X162850000Y-82955000D01*
X162850000Y-82375000D01*
X163570000Y-82375000D01*
X163570000Y-82955000D01*
G36*
X163570000Y-82955000D02*
G01*
X162850000Y-82955000D01*
X162850000Y-82375000D01*
X163570000Y-82375000D01*
X163570000Y-82955000D01*
G37*
%TD*%
D11*
%TO.C,C9*%
X145780000Y-100640000D03*
X146740000Y-100640000D03*
%TD*%
D12*
%TO.C,C8*%
X161335000Y-92639999D03*
X159785000Y-92639999D03*
%TD*%
D13*
%TO.C,C15*%
X170980000Y-110940000D03*
X172530000Y-110940000D03*
%TD*%
D12*
%TO.C,C10*%
X164970000Y-99880000D03*
X163420000Y-99880000D03*
%TD*%
D14*
%TO.C,R2*%
X175870000Y-101340000D03*
X174850000Y-101340000D03*
%TD*%
D15*
%TO.C,R9*%
X132460000Y-106440000D03*
X130810000Y-106440000D03*
%TD*%
D16*
%TO.C,U6*%
X165120000Y-101904900D03*
X164170000Y-101904900D03*
X163220000Y-101904900D03*
X163220000Y-104505100D03*
X165120000Y-104505100D03*
%TD*%
D15*
%TO.C,R5*%
X132510000Y-104780000D03*
X130860000Y-104780000D03*
%TD*%
D17*
%TO.C,U5*%
X145172500Y-107490000D03*
X143172500Y-107490000D03*
X145172500Y-109190000D03*
X143172500Y-109190000D03*
D18*
X146077500Y-105677500D03*
X144807500Y-105677500D03*
X143537500Y-105677500D03*
X142267500Y-105677500D03*
X142267500Y-111002500D03*
X143537500Y-111002500D03*
X144807500Y-111002500D03*
X146077500Y-111002500D03*
%TD*%
D19*
%TO.C,J4*%
X172160000Y-93390000D03*
X172160000Y-94390000D03*
X172160000Y-95390000D03*
X172160000Y-96390000D03*
D20*
X168485000Y-97690000D03*
X168485000Y-92090000D03*
%TD*%
D21*
%TO.C,D5*%
X172670000Y-108630000D03*
X172670000Y-106330000D03*
%TD*%
D13*
%TO.C,C2*%
X166035000Y-80340000D03*
X167585000Y-80340000D03*
%TD*%
D22*
%TO.C,D2*%
X132960000Y-79410000D03*
X132960000Y-78570000D03*
%TD*%
D23*
%TO.C,U4*%
X148460000Y-101155000D03*
X148960000Y-101155000D03*
X149460000Y-101155000D03*
X149960000Y-101155000D03*
D24*
X148290000Y-100490000D03*
X150120000Y-100490000D03*
X148290000Y-99990000D03*
X150120000Y-99990000D03*
X148290000Y-99490000D03*
X150120000Y-99490000D03*
D23*
X148460000Y-98830000D03*
X148960000Y-98830000D03*
X149460000Y-98830000D03*
X149960000Y-98830000D03*
%TD*%
D25*
%TO.C,R13*%
X161745000Y-103280000D03*
X161745000Y-101580000D03*
%TD*%
%TO.C,R15*%
X167420000Y-107280000D03*
X167420000Y-108980000D03*
%TD*%
D26*
%TO.C,C11*%
X165670000Y-107380000D03*
X165670000Y-108930000D03*
%TD*%
D27*
%TO.C,Y1*%
X154760000Y-102840000D03*
X157260000Y-102840000D03*
%TD*%
D25*
%TO.C,R4*%
X154410000Y-100940000D03*
X154410000Y-99240000D03*
%TD*%
D14*
%TO.C,R8*%
X133305000Y-101430000D03*
X132285000Y-101430000D03*
%TD*%
D28*
%TO.C,U7*%
X150510000Y-105540000D03*
X151610000Y-105540000D03*
X152710000Y-105540000D03*
X153810000Y-105540000D03*
X154910000Y-105540000D03*
X156010000Y-105540000D03*
X157110000Y-105540000D03*
X158210000Y-105540000D03*
X159310000Y-105540000D03*
X150510000Y-106640000D03*
X151610000Y-106640000D03*
X152710000Y-106640000D03*
X153810000Y-106640000D03*
X154910000Y-106640000D03*
X156010000Y-106640000D03*
X157110000Y-106640000D03*
X158210000Y-106640000D03*
X159310000Y-106640000D03*
X150510000Y-107740000D03*
X151610000Y-107740000D03*
X153810000Y-107740000D03*
X154910000Y-107740000D03*
X156010000Y-107740000D03*
X158210000Y-107740000D03*
X159310000Y-107740000D03*
X150510000Y-108840000D03*
X151610000Y-108840000D03*
X152710000Y-108840000D03*
X157110000Y-108840000D03*
X158210000Y-108840000D03*
X159310000Y-108840000D03*
X150510000Y-109940000D03*
X151610000Y-109940000D03*
X152710000Y-109940000D03*
X154360000Y-109940000D03*
X155460000Y-109940000D03*
X157110000Y-109940000D03*
X158210000Y-109940000D03*
X159310000Y-109940000D03*
X150510000Y-111040000D03*
X151610000Y-111040000D03*
X152710000Y-111040000D03*
X154360000Y-111040000D03*
X155460000Y-111040000D03*
X157110000Y-111040000D03*
X158210000Y-111040000D03*
X159310000Y-111040000D03*
X150510000Y-112140000D03*
X151610000Y-112140000D03*
X152710000Y-112140000D03*
X154360000Y-112140000D03*
X155460000Y-112140000D03*
X157110000Y-112140000D03*
X158210000Y-112140000D03*
X159310000Y-112140000D03*
X150510000Y-113240000D03*
X151610000Y-113240000D03*
X152710000Y-113240000D03*
X157110000Y-113240000D03*
X158210000Y-113240000D03*
X159310000Y-113240000D03*
X150510000Y-114340000D03*
X151610000Y-114340000D03*
X152710000Y-114340000D03*
X154360000Y-114340000D03*
X155460000Y-114340000D03*
X157110000Y-114340000D03*
X158210000Y-114340000D03*
X159310000Y-114340000D03*
X150510000Y-115440000D03*
X151610000Y-115440000D03*
X152710000Y-115440000D03*
X154910000Y-115440000D03*
X157110000Y-115440000D03*
X158210000Y-115440000D03*
X159310000Y-115440000D03*
X150510000Y-116940000D03*
X159310000Y-116940000D03*
X150510000Y-118440000D03*
X151610000Y-118440000D03*
X158210000Y-118440000D03*
X159310000Y-118440000D03*
%TD*%
D25*
%TO.C,R14*%
X133460000Y-112340000D03*
X133460000Y-110640000D03*
%TD*%
D29*
%TO.C,C3*%
X153409300Y-96765126D03*
X153409300Y-95215126D03*
%TD*%
%TO.C,C7*%
X151710000Y-97230000D03*
X151710000Y-95680000D03*
%TD*%
D13*
%TO.C,C4*%
X161990000Y-98289999D03*
X163540000Y-98289999D03*
%TD*%
D30*
%TO.C,J2*%
X177155000Y-106315000D03*
X177155000Y-105515000D03*
D31*
X177155000Y-104315000D03*
X177155000Y-103315000D03*
X177155000Y-102815000D03*
X177155000Y-101815000D03*
D30*
X177155000Y-100615000D03*
X177155000Y-99815000D03*
X177155000Y-99815000D03*
X177155000Y-100615000D03*
D31*
X177155000Y-101315000D03*
X177155000Y-102315000D03*
X177155000Y-103815000D03*
X177155000Y-104815000D03*
D30*
X177155000Y-105515000D03*
X177155000Y-106315000D03*
%TD*%
D25*
%TO.C,R16*%
X167145000Y-101805000D03*
X167145000Y-103505000D03*
%TD*%
D32*
%TO.C,R12*%
X144540000Y-101640000D03*
X144540000Y-100620000D03*
%TD*%
D33*
%TO.C,C13*%
X163610000Y-107090000D03*
X163610000Y-108890000D03*
%TD*%
D34*
%TO.C,LED4*%
X169020000Y-109132000D03*
X169020000Y-107378000D03*
%TD*%
D35*
%TO.C,SW3*%
X130760000Y-80890000D03*
X127360000Y-80890000D03*
X130760000Y-74890000D03*
X127360000Y-74890000D03*
%TD*%
D26*
%TO.C,C6*%
X151460000Y-100715000D03*
X151460000Y-102265000D03*
%TD*%
D22*
%TO.C,D1*%
X133010000Y-88360000D03*
X133010000Y-87520000D03*
%TD*%
D36*
%TO.C,RGB1*%
X127620000Y-99955000D03*
X128470000Y-99955000D03*
X128470000Y-101405000D03*
X127620000Y-101405000D03*
%TD*%
D14*
%TO.C,R7*%
X133315000Y-100180000D03*
X132295000Y-100180000D03*
%TD*%
D12*
%TO.C,C12*%
X169870000Y-99980000D03*
X168320000Y-99980000D03*
%TD*%
D37*
%TO.C,LED3*%
X127417500Y-108150000D03*
X128992500Y-108150000D03*
%TD*%
D38*
%TO.C,R11*%
X173320000Y-99980000D03*
X171620000Y-99980000D03*
%TD*%
D39*
%TO.C,U1*%
X155559237Y-96939426D03*
X156059363Y-96939426D03*
D40*
X156558600Y-96690252D03*
X156558600Y-96190126D03*
X156558600Y-95690000D03*
D39*
X156059363Y-95440826D03*
X155559237Y-95440826D03*
D40*
X155060000Y-95690000D03*
X155060000Y-96190126D03*
X155060000Y-96690252D03*
%TD*%
D37*
%TO.C,LED1*%
X127437500Y-104740000D03*
X129012500Y-104740000D03*
%TD*%
D15*
%TO.C,R10*%
X132400000Y-108170000D03*
X130750000Y-108170000D03*
%TD*%
D16*
%TO.C,U8*%
X169045500Y-104455100D03*
X169995500Y-104455100D03*
X170945500Y-104455100D03*
X170945500Y-101854900D03*
X169045500Y-101854900D03*
%TD*%
D14*
%TO.C,R1*%
X175670000Y-104690000D03*
X174650000Y-104690000D03*
%TD*%
D41*
%TO.C,SW4*%
X135960000Y-114690000D03*
X135960000Y-110590000D03*
X137560000Y-114690000D03*
X137560000Y-110590000D03*
%TD*%
D35*
%TO.C,SW2*%
X130760000Y-89940000D03*
X127360000Y-89940000D03*
X130760000Y-83940000D03*
X127360000Y-83940000D03*
%TD*%
D42*
%TO.C,F1*%
X175210000Y-108827500D03*
X175210000Y-106952500D03*
%TD*%
D25*
%TO.C,R3*%
X153010000Y-100940000D03*
X153010000Y-99240000D03*
%TD*%
D29*
%TO.C,C1*%
X158110000Y-98565000D03*
X158110000Y-97015000D03*
%TD*%
D43*
%TO.C,Q1*%
X173930000Y-102180000D03*
X172030000Y-102180000D03*
X172980000Y-104280000D03*
%TD*%
D37*
%TO.C,LED2*%
X127417500Y-106450000D03*
X128992500Y-106450000D03*
%TD*%
D14*
%TO.C,R6*%
X133305000Y-98730000D03*
X132285000Y-98730000D03*
%TD*%
D29*
%TO.C,C5*%
X149980000Y-97230000D03*
X149980000Y-95680000D03*
%TD*%
D44*
%TO.C,U3*%
X160259999Y-96820798D03*
X160760000Y-96820798D03*
X161260000Y-96820798D03*
X161760001Y-96820798D03*
D45*
X162284999Y-96295800D03*
X162284999Y-95795799D03*
X162284999Y-95295799D03*
X162284999Y-94795798D03*
D44*
X161760001Y-94270800D03*
X161260000Y-94270800D03*
X160760000Y-94270800D03*
X160259999Y-94270800D03*
D45*
X159735001Y-94795798D03*
X159735001Y-95295799D03*
X159735001Y-95795799D03*
X159735001Y-96295800D03*
%TD*%
M02*
