%TF.GenerationSoftware,KiCad,Pcbnew,9.0.0-rc1*%
%TF.CreationDate,2025-02-03T21:42:00-06:00*%
%TF.ProjectId,tempo,74656d70-6f2e-46b6-9963-61645f706362,rev?*%
%TF.SameCoordinates,Original*%
%TF.FileFunction,Copper,L4,Bot*%
%TF.FilePolarity,Positive*%
%FSLAX46Y46*%
G04 Gerber Fmt 4.6, Leading zero omitted, Abs format (unit mm)*
G04 Created by KiCad (PCBNEW 9.0.0-rc1) date 2025-02-03 21:42:00*
%MOMM*%
%LPD*%
G01*
G04 APERTURE LIST*
G04 Aperture macros list*
%AMRoundRect*
0 Rectangle with rounded corners*
0 $1 Rounding radius*
0 $2 $3 $4 $5 $6 $7 $8 $9 X,Y pos of 4 corners*
0 Add a 4 corners polygon primitive as box body*
4,1,4,$2,$3,$4,$5,$6,$7,$8,$9,$2,$3,0*
0 Add four circle primitives for the rounded corners*
1,1,$1+$1,$2,$3*
1,1,$1+$1,$4,$5*
1,1,$1+$1,$6,$7*
1,1,$1+$1,$8,$9*
0 Add four rect primitives between the rounded corners*
20,1,$1+$1,$2,$3,$4,$5,0*
20,1,$1+$1,$4,$5,$6,$7,0*
20,1,$1+$1,$6,$7,$8,$9,0*
20,1,$1+$1,$8,$9,$2,$3,0*%
%AMRotRect*
0 Rectangle, with rotation*
0 The origin of the aperture is its center*
0 $1 length*
0 $2 width*
0 $3 Rotation angle, in degrees counterclockwise*
0 Add horizontal line*
21,1,$1,$2,0,0,$3*%
G04 Aperture macros list end*
%TA.AperFunction,ComponentPad*%
%ADD10C,1.000000*%
%TD*%
%TA.AperFunction,ComponentPad*%
%ADD11R,1.000000X1.000000*%
%TD*%
%TA.AperFunction,ComponentPad*%
%ADD12O,1.000000X1.000000*%
%TD*%
%TA.AperFunction,ComponentPad*%
%ADD13O,2.100000X1.000000*%
%TD*%
%TA.AperFunction,ComponentPad*%
%ADD14O,1.800000X1.000000*%
%TD*%
%TA.AperFunction,WasherPad*%
%ADD15C,1.200000*%
%TD*%
%TA.AperFunction,SMDPad,CuDef*%
%ADD16RoundRect,0.300000X0.950000X-0.300000X0.950000X0.300000X-0.950000X0.300000X-0.950000X-0.300000X0*%
%TD*%
%TA.AperFunction,SMDPad,CuDef*%
%ADD17R,1.500000X0.700000*%
%TD*%
%TA.AperFunction,SMDPad,CuDef*%
%ADD18R,1.400000X1.800000*%
%TD*%
%TA.AperFunction,SMDPad,CuDef*%
%ADD19R,1.900000X1.400000*%
%TD*%
%TA.AperFunction,SMDPad,CuDef*%
%ADD20RotRect,4.000000X2.600000X45.000000*%
%TD*%
%TA.AperFunction,SMDPad,CuDef*%
%ADD21R,1.000000X4.600000*%
%TD*%
%TA.AperFunction,SMDPad,CuDef*%
%ADD22R,1.600000X3.400000*%
%TD*%
%TA.AperFunction,SMDPad,CuDef*%
%ADD23R,1.000000X1.000000*%
%TD*%
%TA.AperFunction,ViaPad*%
%ADD24C,0.600000*%
%TD*%
%TA.AperFunction,Conductor*%
%ADD25C,0.250000*%
%TD*%
%TA.AperFunction,Conductor*%
%ADD26C,0.200000*%
%TD*%
G04 APERTURE END LIST*
D10*
%TO.P,J5,1*%
%TO.N,3.3V*%
X146610000Y-113855000D03*
%TO.P,J5,2*%
%TO.N,/SWDIO*%
X146610000Y-115125000D03*
%TO.P,J5,3*%
%TO.N,GND*%
X145340000Y-113855000D03*
%TO.P,J5,4*%
%TO.N,/SWDCLK*%
X145340000Y-115125000D03*
%TO.P,J5,5*%
%TO.N,GND*%
X144070000Y-113855000D03*
%TO.P,J5,6*%
%TO.N,unconnected-(J5-Pad6)*%
X144070000Y-115125000D03*
%TO.P,J5,7*%
%TO.N,unconnected-(J5-Pad7)*%
X142800000Y-113855000D03*
%TO.P,J5,8*%
%TO.N,unconnected-(J5-Pad8)*%
X142800000Y-115125000D03*
%TO.P,J5,9*%
%TO.N,GND*%
X141530000Y-113855000D03*
%TO.P,J5,10*%
%TO.N,/~{RESET}*%
X141530000Y-115125000D03*
%TD*%
D11*
%TO.P,TP3,1,1*%
%TO.N,/D6*%
X149660000Y-102740000D03*
%TD*%
%TO.P,J3,1,Pin_1*%
%TO.N,/P0.31*%
X167260000Y-114340000D03*
D12*
%TO.P,J3,2,Pin_2*%
%TO.N,3.3V*%
X168530000Y-114340000D03*
%TO.P,J3,3,Pin_3*%
%TO.N,/APP_NORA_TX*%
X169800000Y-114340000D03*
%TO.P,J3,4,Pin_4*%
%TO.N,/APP_NORA_RX*%
X171070000Y-114340000D03*
%TO.P,J3,5,Pin_5*%
%TO.N,/FLASH_MISO*%
X172340000Y-114340000D03*
%TO.P,J3,6,Pin_6*%
%TO.N,/FLASH_MOSI*%
X173610000Y-114340000D03*
%TO.P,J3,7,Pin_7*%
%TO.N,/FLASH_SCK*%
X174880000Y-114340000D03*
%TO.P,J3,8,Pin_8*%
%TO.N,GND*%
X176150000Y-114340000D03*
%TD*%
D13*
%TO.P,J2,S1,SHIELD*%
%TO.N,GND*%
X177765000Y-107395000D03*
D14*
X181945000Y-107395000D03*
D13*
X177765000Y-98755000D03*
D14*
X181945000Y-98755000D03*
%TD*%
D11*
%TO.P,TP4,1,1*%
%TO.N,V_BATT*%
X170960000Y-106900000D03*
%TD*%
D15*
%TO.P,SW1,*%
%TO.N,*%
X127897500Y-109850000D03*
X127897500Y-103050000D03*
D16*
%TO.P,SW1,1,A*%
%TO.N,unconnected-(SW1-A-Pad1)*%
X130697500Y-108950000D03*
%TO.P,SW1,2,B*%
%TO.N,Net-(SW1-B)*%
X130697500Y-106450000D03*
%TO.P,SW1,3,C*%
%TO.N,GND*%
X130697500Y-103950000D03*
%TD*%
D17*
%TO.P,X1,1,DAT2*%
%TO.N,unconnected-(X1-DAT2-Pad1)*%
X179410000Y-91090000D03*
%TO.P,X1,2,CS*%
%TO.N,/FLASH_CS*%
X179010000Y-89990000D03*
%TO.P,X1,3,DATA_IN*%
%TO.N,/FLASH_MOSI*%
X179410000Y-88890000D03*
%TO.P,X1,4,SD_VDD*%
%TO.N,3.3V*%
X179810000Y-87790000D03*
%TO.P,X1,5,SCLK*%
%TO.N,/FLASH_SCK*%
X179410000Y-86690000D03*
%TO.P,X1,6,GND@3*%
%TO.N,GND*%
X179810000Y-85590000D03*
%TO.P,X1,7,DATA_OUT*%
%TO.N,/FLASH_MISO*%
X179410000Y-84490000D03*
%TO.P,X1,8,DAT1*%
%TO.N,unconnected-(X1-DAT1-Pad8)*%
X179410000Y-83390000D03*
D18*
%TO.P,X1,CD1,CARD_DETECT*%
%TO.N,/FLASH_CD*%
X169210000Y-84090000D03*
%TO.P,X1,CD2,CARD_DETECT1*%
%TO.N,unconnected-(X1-CARD_DETECT1-PadCD2)*%
X169210000Y-90090000D03*
D19*
%TO.P,X1,MT1,GND@2*%
%TO.N,GND*%
X182310000Y-82490000D03*
%TO.P,X1,MT2,GND@1*%
X183210000Y-95690000D03*
%TD*%
D20*
%TO.P,B1,+,+*%
%TO.N,/VBACKUP*%
X146856768Y-87993232D03*
%TO.P,B1,-,-*%
%TO.N,GND*%
X135436994Y-99455433D03*
%TD*%
D21*
%TO.P,J1,1,1*%
%TO.N,Net-(SW1-B)*%
X134060000Y-85590000D03*
%TO.P,J1,2,2*%
%TO.N,V_BATT*%
X132060000Y-85590000D03*
D22*
%TO.P,J1,NC1*%
%TO.N,N/C*%
X136460000Y-80390000D03*
%TO.P,J1,NC2*%
X129660000Y-80390000D03*
%TD*%
D23*
%TO.P,TP1,1,1*%
%TO.N,/NET_NORA_TX*%
X153760000Y-107640000D03*
%TD*%
%TO.P,TP2,1,1*%
%TO.N,/NET_NORA_RX*%
X153785000Y-105565000D03*
%TD*%
D24*
%TO.N,GND*%
X131710000Y-113240000D03*
X139860000Y-113890000D03*
X130460000Y-99440000D03*
X129010000Y-71340000D03*
X166860000Y-100340000D03*
X148960000Y-116840000D03*
X142710000Y-97690000D03*
X155610000Y-115390000D03*
X151010000Y-99590000D03*
X152310000Y-102840000D03*
X181310000Y-71740000D03*
X174811600Y-105640000D03*
X175410000Y-99940000D03*
X172160000Y-116290000D03*
X176710000Y-108590000D03*
X170060000Y-103190000D03*
X146760000Y-101540000D03*
X149510000Y-104240000D03*
X136160000Y-111640000D03*
X153710000Y-110490000D03*
X160037637Y-104862363D03*
X178760000Y-113540000D03*
X161760000Y-99880000D03*
X164210000Y-103190000D03*
X140910000Y-108240000D03*
%TO.N,3.3V*%
X145160000Y-100190000D03*
X146910000Y-111040000D03*
X166110000Y-81840000D03*
X161010000Y-106090000D03*
X151660000Y-98490000D03*
X158860000Y-93890000D03*
%TO.N,V_BATT*%
X156114685Y-100194685D03*
%TO.N,/SDA*%
X153181990Y-104602008D03*
X170810000Y-95340000D03*
X157610000Y-95640000D03*
%TO.N,/SCL*%
X156110000Y-97890000D03*
X152560000Y-103690000D03*
X170760000Y-96340000D03*
%TO.N,/D6*%
X150410000Y-103991600D03*
X156310000Y-111040000D03*
%TO.N,VBUS*%
X175935000Y-100465000D03*
X175935000Y-105640000D03*
%TO.N,/D11*%
X160810000Y-113240000D03*
X158060000Y-94490000D03*
%TO.N,/D12*%
X151110000Y-103240000D03*
X133960000Y-104790000D03*
%TO.N,/D13*%
X133810000Y-106490000D03*
X146010000Y-112338400D03*
%TO.N,/SCK*%
X148710000Y-102390000D03*
X147115308Y-99979464D03*
%TO.N,/~{RESET}*%
X153460000Y-114840000D03*
%TO.N,/VBACKUP*%
X156110000Y-69290000D03*
%TO.N,VIN*%
X172860000Y-101540000D03*
X165910000Y-101890000D03*
%TO.N,V_USB*%
X161610000Y-106640000D03*
X166531304Y-108279661D03*
%TO.N,/D5*%
X151631497Y-103720653D03*
X147614694Y-99477864D03*
%TO.N,/D9*%
X158510000Y-95540000D03*
X156310000Y-111840000D03*
%TO.N,/VCOM1_RX*%
X149010000Y-112641600D03*
X156010000Y-86490000D03*
%TO.N,/VCOM1_TX*%
X158010000Y-85040000D03*
X153410000Y-112140000D03*
%TO.N,/FLASH_CD*%
X160610000Y-111638400D03*
%TO.N,/FLASH_CS*%
X154360000Y-112940000D03*
%TO.N,/FLASH_MOSI*%
X161210000Y-112140000D03*
%TO.N,/FLASH_SCK*%
X177960000Y-86740000D03*
X161110000Y-111040000D03*
%TO.N,/FLASH_MISO*%
X177510000Y-84490000D03*
X160535224Y-110538400D03*
%TO.N,/BTN1*%
X156310000Y-108840000D03*
X131510000Y-91340000D03*
%TO.N,/BTN2*%
X131860000Y-82040000D03*
X147810000Y-113240000D03*
%TO.N,/QSPI_IO0*%
X142260000Y-111690000D03*
X148260000Y-109840000D03*
%TO.N,/RGB_R*%
X160860000Y-108290000D03*
X145560000Y-102290000D03*
%TO.N,USB_D+*%
X175860000Y-102290000D03*
X175885000Y-103340000D03*
X161410000Y-107690000D03*
%TO.N,USB_D-*%
X161410000Y-108840000D03*
X174960000Y-103815000D03*
%TO.N,/RGB_G*%
X146060000Y-102790000D03*
X160860000Y-109390000D03*
%TO.N,/RGB_B*%
X156310000Y-109940000D03*
X146160000Y-103540000D03*
%TO.N,/NET_NORA_TX*%
X153810000Y-108791600D03*
%TO.N,/APP_NORA_TX*%
X154210000Y-104640000D03*
%TO.N,/APP_NORA_RX*%
X160810000Y-107190000D03*
%TO.N,/QSPI_CSN*%
X145569369Y-104791600D03*
X143760000Y-101590000D03*
%TO.N,/QSPI_IO1*%
X144860000Y-104791600D03*
X149110000Y-110538400D03*
%TO.N,/NET_NORA_RX*%
X153710000Y-104015000D03*
%TD*%
D25*
%TO.N,3.3V*%
X170960000Y-84040000D02*
X170960000Y-81890000D01*
X166160000Y-81890000D02*
X166110000Y-81840000D01*
X170860000Y-84140000D02*
X170960000Y-84040000D01*
X174510000Y-87790000D02*
X170860000Y-84140000D01*
X170960000Y-81890000D02*
X166160000Y-81890000D01*
X179810000Y-87790000D02*
X174510000Y-87790000D01*
%TO.N,V_BATT*%
X135310000Y-82690000D02*
X132160000Y-82690000D01*
X153810000Y-97890000D02*
X156114685Y-100194685D01*
X145641370Y-97890000D02*
X153810000Y-97890000D01*
X135410000Y-87590000D02*
X135410000Y-82790000D01*
X142041370Y-94290000D02*
X142041370Y-94221370D01*
X132110000Y-85540000D02*
X132060000Y-85590000D01*
X132160000Y-82690000D02*
X132110000Y-82740000D01*
X142041370Y-94290000D02*
X145641370Y-97890000D01*
X132110000Y-82740000D02*
X132110000Y-85540000D01*
X142041370Y-94221370D02*
X135410000Y-87590000D01*
X135410000Y-82790000D02*
X135310000Y-82690000D01*
D26*
%TO.N,/D6*%
X152860000Y-106441600D02*
X150410000Y-103991600D01*
X155410000Y-111040000D02*
X153760000Y-112690000D01*
X153760000Y-112690000D02*
X153160000Y-112690000D01*
X152910000Y-112350784D02*
X152860000Y-112300784D01*
X152860000Y-112300784D02*
X152860000Y-106441600D01*
X152910000Y-112440000D02*
X152910000Y-112350784D01*
X156310000Y-111040000D02*
X155410000Y-111040000D01*
X153160000Y-112690000D02*
X152910000Y-112440000D01*
%TO.N,VBUS*%
X175935000Y-105590000D02*
X175935000Y-105640000D01*
X176362600Y-102081816D02*
X176362600Y-103106816D01*
X176360000Y-102079216D02*
X176362600Y-102081816D01*
X175935000Y-100465000D02*
X176360000Y-100890000D01*
X176387600Y-105137400D02*
X175935000Y-105590000D01*
X176360000Y-100890000D02*
X176360000Y-102079216D01*
X176387600Y-103131816D02*
X176387600Y-105137400D01*
X176362600Y-103106816D02*
X176387600Y-103131816D01*
%TO.N,/D11*%
X160107400Y-111837400D02*
X157960000Y-109690000D01*
X157960000Y-96767942D02*
X158685342Y-96042600D01*
X158060000Y-94490000D02*
X157960000Y-94490000D01*
X159012600Y-95331816D02*
X158170784Y-94490000D01*
X158685342Y-96042600D02*
X158718184Y-96042600D01*
X158718184Y-96042600D02*
X159012600Y-95748184D01*
X159012600Y-95748184D02*
X159012600Y-95331816D01*
X160107400Y-111846584D02*
X160107400Y-111837400D01*
X157960000Y-109690000D02*
X157960000Y-96767942D01*
X160810000Y-113240000D02*
X160810000Y-112540000D01*
X160401816Y-112141000D02*
X160107400Y-111846584D01*
X160411000Y-112141000D02*
X160401816Y-112141000D01*
X158170784Y-94490000D02*
X158060000Y-94490000D01*
X160810000Y-112540000D02*
X160411000Y-112141000D01*
%TO.N,/D12*%
X149169784Y-103492600D02*
X148753416Y-103492600D01*
X145657400Y-103490000D02*
X135260000Y-103490000D01*
X148753416Y-103492600D02*
X148750816Y-103490000D01*
X150860000Y-103490000D02*
X149172384Y-103490000D01*
X149172384Y-103490000D02*
X149169784Y-103492600D01*
X146368184Y-104042600D02*
X145951816Y-104042600D01*
X145951816Y-104042600D02*
X145657400Y-103748184D01*
X145657400Y-103748184D02*
X145657400Y-103490000D01*
X146662600Y-103490000D02*
X146662600Y-103748184D01*
X135260000Y-103490000D02*
X133960000Y-104790000D01*
X146662600Y-103748184D02*
X146368184Y-104042600D01*
X148750816Y-103490000D02*
X146662600Y-103490000D01*
X151110000Y-103240000D02*
X150860000Y-103490000D01*
%TO.N,/D13*%
X146010000Y-112338400D02*
X146008400Y-112340000D01*
X146008400Y-112340000D02*
X139660000Y-112340000D01*
X139660000Y-112340000D02*
X133810000Y-106490000D01*
%TO.N,/SCK*%
X148710000Y-101574156D02*
X147115308Y-99979464D01*
X148710000Y-102390000D02*
X148710000Y-101574156D01*
%TO.N,/~{RESET}*%
X150768164Y-115639000D02*
X150709000Y-115698164D01*
X153210000Y-114840000D02*
X152411000Y-115639000D01*
X153460000Y-114840000D02*
X153210000Y-114840000D01*
X150709000Y-115698164D02*
X150709000Y-115827600D01*
X142232600Y-115827600D02*
X141530000Y-115125000D01*
X152411000Y-115639000D02*
X150768164Y-115639000D01*
X150709000Y-115827600D02*
X142232600Y-115827600D01*
%TO.N,/VBACKUP*%
X146810000Y-87946464D02*
X146856768Y-87993232D01*
X156110000Y-69290000D02*
X146910000Y-69290000D01*
X146910000Y-69290000D02*
X146810000Y-69390000D01*
X146810000Y-69390000D02*
X146810000Y-87946464D01*
%TO.N,Net-(SW1-B)*%
X130697500Y-106450000D02*
X132620000Y-106450000D01*
X130760000Y-90290000D02*
X133110000Y-90290000D01*
X133110000Y-90290000D02*
X134060000Y-89340000D01*
X132710000Y-97940000D02*
X132760000Y-97890000D01*
X134060000Y-89340000D02*
X134060000Y-85590000D01*
X132620000Y-106450000D02*
X132710000Y-106540000D01*
X132760000Y-97890000D02*
X132760000Y-93790000D01*
X132760000Y-93790000D02*
X130760000Y-91790000D01*
X130760000Y-91790000D02*
X130760000Y-90290000D01*
X132710000Y-106540000D02*
X132710000Y-97940000D01*
%TO.N,VIN*%
X165910000Y-101890000D02*
X172510000Y-101890000D01*
X172510000Y-101890000D02*
X172860000Y-101540000D01*
%TO.N,/D5*%
X151631497Y-103720653D02*
X151631497Y-102261497D01*
X147617908Y-99481078D02*
X147614694Y-99477864D01*
X151631497Y-102261497D02*
X148851078Y-99481078D01*
X148851078Y-99481078D02*
X147617908Y-99481078D01*
%TO.N,/D9*%
X157560000Y-96740000D02*
X158510000Y-95790000D01*
X156310000Y-111840000D02*
X157560000Y-110590000D01*
X158510000Y-95790000D02*
X158510000Y-95540000D01*
X157560000Y-110590000D02*
X157560000Y-96740000D01*
%TO.N,/VCOM1_TX*%
X156099216Y-110440000D02*
X156101816Y-110442600D01*
X157107400Y-95848184D02*
X157107400Y-87692600D01*
X156101816Y-110442600D02*
X156518184Y-110442600D01*
X158010000Y-86790000D02*
X158010000Y-85040000D01*
X153410000Y-112140000D02*
X155110000Y-110440000D01*
X157160000Y-109800784D02*
X157160000Y-95900784D01*
X155110000Y-110440000D02*
X156099216Y-110440000D01*
X157107400Y-87692600D02*
X158010000Y-86790000D01*
X156518184Y-110442600D02*
X157160000Y-109800784D01*
X157160000Y-95900784D02*
X157107400Y-95848184D01*
%TO.N,/FLASH_CD*%
X160610000Y-111638400D02*
X160408400Y-111638400D01*
X168060000Y-85240000D02*
X169210000Y-84090000D01*
X160507400Y-105292600D02*
X168060000Y-97740000D01*
X160408400Y-111638400D02*
X159710000Y-110940000D01*
X159710000Y-110940000D02*
X159710000Y-105890000D01*
X160507400Y-105890000D02*
X160507400Y-105292600D01*
X159710000Y-105890000D02*
X160507400Y-105890000D01*
X168060000Y-97740000D02*
X168060000Y-85240000D01*
%TO.N,/FLASH_CS*%
X175811000Y-115639000D02*
X156609000Y-115639000D01*
X176535000Y-96790000D02*
X176535000Y-98441374D01*
X176740200Y-100131475D02*
X176740200Y-100131474D01*
X156609000Y-115639000D02*
X154360000Y-113390000D01*
X176740200Y-100131474D02*
X176740200Y-100414316D01*
X176512400Y-98463974D02*
X176512400Y-99046026D01*
X176512400Y-99046026D02*
X176535000Y-99068626D01*
X177126814Y-112456814D02*
X177126814Y-114356814D01*
X179010000Y-89990000D02*
X176560000Y-92440000D01*
X176535000Y-98441374D02*
X176512400Y-98463974D01*
X176740200Y-100414316D02*
X177012600Y-100686716D01*
X154360000Y-113390000D02*
X154360000Y-112940000D01*
X176441027Y-115042600D02*
X176407400Y-115042600D01*
X176535000Y-99068626D02*
X176535000Y-99926274D01*
X176560000Y-96765000D02*
X176535000Y-96790000D01*
X177126814Y-114356814D02*
X176441027Y-115042600D01*
X176407400Y-115042600D02*
X175811000Y-115639000D01*
X176207400Y-111537400D02*
X177126814Y-112456814D01*
X176210000Y-108379216D02*
X176207400Y-108381816D01*
X177012600Y-100686716D02*
X177012600Y-106465342D01*
X176207400Y-108381816D02*
X176207400Y-111537400D01*
X176535000Y-99926274D02*
X176740200Y-100131475D01*
X176210000Y-107267942D02*
X176210000Y-108379216D01*
X177012600Y-106465342D02*
X176210000Y-107267942D01*
X176560000Y-92440000D02*
X176560000Y-96765000D01*
%TO.N,/FLASH_MOSI*%
X176710000Y-106340000D02*
X173610000Y-109440000D01*
X177510000Y-88890000D02*
X176160000Y-90240000D01*
X176160000Y-99979216D02*
X176437600Y-100256816D01*
X179410000Y-88890000D02*
X177510000Y-88890000D01*
X176437600Y-100539658D02*
X176710000Y-100812058D01*
X173610000Y-109440000D02*
X173610000Y-114340000D01*
X176710000Y-100812058D02*
X176710000Y-106340000D01*
X176160000Y-90240000D02*
X176160000Y-99979216D01*
X176437600Y-100256816D02*
X176437600Y-100539658D01*
%TO.N,/FLASH_SCK*%
X161110000Y-111040000D02*
X161810000Y-111040000D01*
X174310000Y-115290000D02*
X174310000Y-114910000D01*
X174310000Y-114910000D02*
X174880000Y-114340000D01*
X178010000Y-86690000D02*
X177960000Y-86740000D01*
X179410000Y-86690000D02*
X178010000Y-86690000D01*
X166060000Y-115290000D02*
X174310000Y-115290000D01*
X161810000Y-111040000D02*
X166060000Y-115290000D01*
%TO.N,/FLASH_MISO*%
X171772600Y-114048973D02*
X168262027Y-110538400D01*
X179410000Y-84490000D02*
X177510000Y-84490000D01*
X168262027Y-110538400D02*
X160535224Y-110538400D01*
X171772600Y-114052600D02*
X171772600Y-114048973D01*
X172340000Y-114340000D02*
X172060000Y-114340000D01*
X172060000Y-114340000D02*
X171772600Y-114052600D01*
%TO.N,/BTN1*%
X154760000Y-104190000D02*
X149560000Y-98990000D01*
X147822878Y-98975264D02*
X141274736Y-98975264D01*
X139260000Y-98990000D02*
X131610000Y-91340000D01*
X156310000Y-108840000D02*
X154760000Y-107290000D01*
X141274736Y-98975264D02*
X141260000Y-98990000D01*
X154760000Y-107290000D02*
X154760000Y-104190000D01*
X149560000Y-98990000D02*
X147837614Y-98990000D01*
X147837614Y-98990000D02*
X147822878Y-98975264D01*
X131610000Y-91340000D02*
X131510000Y-91340000D01*
X141260000Y-98990000D02*
X139260000Y-98990000D01*
%TO.N,/QSPI_IO0*%
X145010000Y-111740000D02*
X142310000Y-111740000D01*
X142310000Y-111740000D02*
X142260000Y-111690000D01*
X148260000Y-109840000D02*
X146910000Y-109840000D01*
X146910000Y-109840000D02*
X145010000Y-111740000D01*
%TO.N,USB_D+*%
X175885000Y-102815000D02*
X175860000Y-102790000D01*
X175112600Y-103037400D02*
X172812600Y-103037400D01*
X175860000Y-102790000D02*
X175860000Y-102290000D01*
X175885000Y-103340000D02*
X175885000Y-102815000D01*
X163160000Y-105940000D02*
X161410000Y-107690000D01*
X169910000Y-105940000D02*
X163160000Y-105940000D01*
X172812600Y-103037400D02*
X169910000Y-105940000D01*
X175860000Y-102290000D02*
X175112600Y-103037400D01*
%TO.N,USB_D-*%
X163910000Y-106290000D02*
X164198705Y-106290000D01*
X174685000Y-103540000D02*
X174960000Y-103815000D01*
X170452600Y-106197400D02*
X173085000Y-103565000D01*
X173060000Y-103540000D02*
X174685000Y-103540000D01*
X173085000Y-103565000D02*
X173060000Y-103540000D01*
X161410000Y-108790000D02*
X162041861Y-108158139D01*
X170257400Y-106290000D02*
X170257400Y-106197400D01*
X165218039Y-106290000D02*
X165398705Y-106290000D01*
X161410000Y-108840000D02*
X161410000Y-108790000D01*
X164618039Y-106709334D02*
X164798705Y-106709334D01*
X165398705Y-106290000D02*
X170257400Y-106290000D01*
X162048503Y-108151497D02*
X163910000Y-106290000D01*
X162041861Y-108158139D02*
X162048503Y-108151497D01*
X170257400Y-106197400D02*
X170452600Y-106197400D01*
X164798705Y-106709334D02*
G75*
G03*
X165008334Y-106499667I-5J209634D01*
G01*
X164408372Y-106499667D02*
G75*
G03*
X164618039Y-106709328I209628J-33D01*
G01*
X165008372Y-106499667D02*
G75*
G02*
X165218039Y-106290072I209628J-33D01*
G01*
X164198705Y-106290000D02*
G75*
G02*
X164408400Y-106499667I-5J-209700D01*
G01*
%TO.N,/NET_NORA_TX*%
X153810000Y-108791600D02*
X153810000Y-107690000D01*
X153810000Y-107690000D02*
X153760000Y-107640000D01*
%TO.N,/QSPI_IO1*%
X148601816Y-108792600D02*
X148307400Y-108498184D01*
X149110000Y-109290000D02*
X148612600Y-108792600D01*
X148307400Y-108498184D02*
X148307400Y-108239000D01*
X149110000Y-110538400D02*
X149110000Y-109290000D01*
X148612600Y-108792600D02*
X148601816Y-108792600D01*
X148307400Y-108239000D02*
X144860000Y-104791600D01*
%TO.N,/NET_NORA_RX*%
X153707400Y-105487400D02*
X153785000Y-105565000D01*
X153710000Y-104015000D02*
X153710000Y-104429216D01*
X153707400Y-104431816D02*
X153707400Y-105487400D01*
X153710000Y-104429216D02*
X153707400Y-104431816D01*
%TD*%
%TA.AperFunction,Conductor*%
%TO.N,GND*%
G36*
X181953528Y-65172325D02*
G01*
X182235530Y-65189344D01*
X182250355Y-65191140D01*
X182524572Y-65241276D01*
X182539074Y-65244842D01*
X182805290Y-65327599D01*
X182819250Y-65332881D01*
X183033721Y-65429160D01*
X183073561Y-65447045D01*
X183086797Y-65453973D01*
X183325540Y-65597897D01*
X183337844Y-65606366D01*
X183557533Y-65777950D01*
X183568732Y-65787838D01*
X183766202Y-65984609D01*
X183776130Y-65995773D01*
X183948494Y-66214853D01*
X183957008Y-66227130D01*
X184101778Y-66465359D01*
X184108753Y-66478571D01*
X184223817Y-66732470D01*
X184229153Y-66746424D01*
X184312849Y-67012328D01*
X184316468Y-67026824D01*
X184367577Y-67300862D01*
X184369426Y-67315686D01*
X184387431Y-67597372D01*
X184387684Y-67605282D01*
X184387684Y-94371290D01*
X184367999Y-94438329D01*
X184315195Y-94484084D01*
X184250429Y-94494580D01*
X184207828Y-94490000D01*
X183460000Y-94490000D01*
X183460000Y-96890000D01*
X184207828Y-96890000D01*
X184207841Y-96889999D01*
X184250427Y-96885420D01*
X184319186Y-96897824D01*
X184370325Y-96945433D01*
X184387684Y-97008709D01*
X184387684Y-99301000D01*
X184367999Y-99368039D01*
X184315195Y-99413794D01*
X184263684Y-99425000D01*
X183331999Y-99425000D01*
X183264960Y-99405315D01*
X183219205Y-99352511D01*
X183209261Y-99283353D01*
X183228898Y-99232108D01*
X183231184Y-99228686D01*
X183231192Y-99228671D01*
X183306569Y-99046692D01*
X183306569Y-99046690D01*
X183314862Y-99005000D01*
X182511988Y-99005000D01*
X182529205Y-98995060D01*
X182585060Y-98939205D01*
X182624556Y-98870796D01*
X182645000Y-98794496D01*
X182645000Y-98715504D01*
X182624556Y-98639204D01*
X182585060Y-98570795D01*
X182529205Y-98514940D01*
X182511988Y-98505000D01*
X183314862Y-98505000D01*
X183306569Y-98463309D01*
X183306569Y-98463307D01*
X183231192Y-98281328D01*
X183231185Y-98281315D01*
X183121751Y-98117537D01*
X183121748Y-98117533D01*
X182982466Y-97978251D01*
X182982462Y-97978248D01*
X182818684Y-97868814D01*
X182818671Y-97868807D01*
X182636693Y-97793430D01*
X182636681Y-97793427D01*
X182443495Y-97755000D01*
X182195000Y-97755000D01*
X182195000Y-98455000D01*
X181695000Y-98455000D01*
X181695000Y-97755000D01*
X181446504Y-97755000D01*
X181253318Y-97793427D01*
X181253306Y-97793430D01*
X181071328Y-97868807D01*
X181071315Y-97868814D01*
X180907537Y-97978248D01*
X180907533Y-97978251D01*
X180768251Y-98117533D01*
X180768248Y-98117537D01*
X180658814Y-98281315D01*
X180658807Y-98281328D01*
X180583430Y-98463307D01*
X180583430Y-98463309D01*
X180575138Y-98505000D01*
X181378012Y-98505000D01*
X181360795Y-98514940D01*
X181304940Y-98570795D01*
X181265444Y-98639204D01*
X181245000Y-98715504D01*
X181245000Y-98794496D01*
X181265444Y-98870796D01*
X181304940Y-98939205D01*
X181360795Y-98995060D01*
X181378012Y-99005000D01*
X180575138Y-99005000D01*
X180583430Y-99046690D01*
X180583430Y-99046692D01*
X180658807Y-99228671D01*
X180658815Y-99228686D01*
X180661102Y-99232108D01*
X180681981Y-99298785D01*
X180663497Y-99366166D01*
X180611519Y-99412856D01*
X180558001Y-99425000D01*
X179301999Y-99425000D01*
X179234960Y-99405315D01*
X179189205Y-99352511D01*
X179179261Y-99283353D01*
X179198898Y-99232108D01*
X179201184Y-99228686D01*
X179201192Y-99228671D01*
X179276569Y-99046692D01*
X179276569Y-99046690D01*
X179284862Y-99005000D01*
X178481988Y-99005000D01*
X178499205Y-98995060D01*
X178555060Y-98939205D01*
X178594556Y-98870796D01*
X178615000Y-98794496D01*
X178615000Y-98715504D01*
X178594556Y-98639204D01*
X178555060Y-98570795D01*
X178499205Y-98514940D01*
X178481988Y-98505000D01*
X179284862Y-98505000D01*
X179276569Y-98463309D01*
X179276569Y-98463307D01*
X179201192Y-98281328D01*
X179201185Y-98281315D01*
X179091751Y-98117537D01*
X179091748Y-98117533D01*
X178952466Y-97978251D01*
X178952462Y-97978248D01*
X178788684Y-97868814D01*
X178788671Y-97868807D01*
X178606693Y-97793430D01*
X178606681Y-97793427D01*
X178413495Y-97755000D01*
X178015000Y-97755000D01*
X178015000Y-98455000D01*
X177515000Y-98455000D01*
X177515000Y-97755000D01*
X177259500Y-97755000D01*
X177192461Y-97735315D01*
X177146706Y-97682511D01*
X177135500Y-97631000D01*
X177135500Y-96953684D01*
X177139725Y-96921590D01*
X177149906Y-96883596D01*
X177159712Y-96846999D01*
X177160500Y-96844058D01*
X177160500Y-96685943D01*
X177160500Y-96437844D01*
X181760000Y-96437844D01*
X181766401Y-96497372D01*
X181766403Y-96497379D01*
X181816645Y-96632086D01*
X181816649Y-96632093D01*
X181902809Y-96747187D01*
X181902812Y-96747190D01*
X182017906Y-96833350D01*
X182017913Y-96833354D01*
X182152620Y-96883596D01*
X182152627Y-96883598D01*
X182212155Y-96889999D01*
X182212172Y-96890000D01*
X182960000Y-96890000D01*
X182960000Y-95940000D01*
X181760000Y-95940000D01*
X181760000Y-96437844D01*
X177160500Y-96437844D01*
X177160500Y-94942155D01*
X181760000Y-94942155D01*
X181760000Y-95440000D01*
X182960000Y-95440000D01*
X182960000Y-94490000D01*
X182212155Y-94490000D01*
X182152627Y-94496401D01*
X182152620Y-94496403D01*
X182017913Y-94546645D01*
X182017906Y-94546649D01*
X181902812Y-94632809D01*
X181902809Y-94632812D01*
X181816649Y-94747906D01*
X181816645Y-94747913D01*
X181766403Y-94882620D01*
X181766401Y-94882627D01*
X181760000Y-94942155D01*
X177160500Y-94942155D01*
X177160500Y-92740096D01*
X177180185Y-92673057D01*
X177196814Y-92652419D01*
X178093910Y-91755323D01*
X178155231Y-91721840D01*
X178224922Y-91726824D01*
X178280855Y-91768694D01*
X178302455Y-91797547D01*
X178417664Y-91883793D01*
X178417671Y-91883797D01*
X178552517Y-91934091D01*
X178552516Y-91934091D01*
X178559444Y-91934835D01*
X178612127Y-91940500D01*
X180207872Y-91940499D01*
X180267483Y-91934091D01*
X180402331Y-91883796D01*
X180517546Y-91797546D01*
X180603796Y-91682331D01*
X180654091Y-91547483D01*
X180660500Y-91487873D01*
X180660499Y-90692128D01*
X180654091Y-90632517D01*
X180603796Y-90497669D01*
X180603795Y-90497668D01*
X180603793Y-90497664D01*
X180517547Y-90382455D01*
X180517544Y-90382452D01*
X180402335Y-90296206D01*
X180402330Y-90296203D01*
X180341165Y-90273390D01*
X180285232Y-90231518D01*
X180260815Y-90166054D01*
X180260499Y-90157208D01*
X180260499Y-89822791D01*
X180280184Y-89755752D01*
X180332988Y-89709997D01*
X180341167Y-89706609D01*
X180402326Y-89683798D01*
X180402326Y-89683797D01*
X180402331Y-89683796D01*
X180517546Y-89597546D01*
X180603796Y-89482331D01*
X180654091Y-89347483D01*
X180660500Y-89287873D01*
X180660499Y-88722790D01*
X180680183Y-88655752D01*
X180732987Y-88609997D01*
X180741167Y-88606609D01*
X180802326Y-88583798D01*
X180802326Y-88583797D01*
X180802331Y-88583796D01*
X180917546Y-88497546D01*
X181003796Y-88382331D01*
X181054091Y-88247483D01*
X181060500Y-88187873D01*
X181060499Y-87392128D01*
X181054091Y-87332517D01*
X181053491Y-87330909D01*
X181003797Y-87197671D01*
X181003793Y-87197664D01*
X180917547Y-87082455D01*
X180917544Y-87082452D01*
X180802335Y-86996206D01*
X180802330Y-86996203D01*
X180741165Y-86973390D01*
X180685232Y-86931518D01*
X180660815Y-86866054D01*
X180660499Y-86857208D01*
X180660499Y-86522258D01*
X180680184Y-86455219D01*
X180732988Y-86409464D01*
X180741166Y-86406076D01*
X180802086Y-86383354D01*
X180802093Y-86383350D01*
X180917187Y-86297190D01*
X180917190Y-86297187D01*
X181003350Y-86182093D01*
X181003354Y-86182086D01*
X181053596Y-86047379D01*
X181053598Y-86047372D01*
X181059999Y-85987844D01*
X181060000Y-85987827D01*
X181060000Y-85840000D01*
X180219167Y-85840000D01*
X180211188Y-85839572D01*
X180211183Y-85839678D01*
X180207879Y-85839500D01*
X180207873Y-85839500D01*
X180207866Y-85839500D01*
X178615335Y-85839500D01*
X178615329Y-85839500D01*
X178612128Y-85839501D01*
X178552517Y-85845909D01*
X178520144Y-85857983D01*
X178520135Y-85857985D01*
X178417669Y-85896203D01*
X178417665Y-85896206D01*
X178330651Y-85961344D01*
X178265187Y-85985761D01*
X178208893Y-85976640D01*
X178193497Y-85970263D01*
X178193493Y-85970262D01*
X178193488Y-85970260D01*
X178038845Y-85939500D01*
X178038842Y-85939500D01*
X177881158Y-85939500D01*
X177881155Y-85939500D01*
X177726510Y-85970261D01*
X177726498Y-85970264D01*
X177580827Y-86030602D01*
X177580814Y-86030609D01*
X177449711Y-86118210D01*
X177449707Y-86118213D01*
X177338213Y-86229707D01*
X177338210Y-86229711D01*
X177250609Y-86360814D01*
X177250602Y-86360827D01*
X177190264Y-86506498D01*
X177190261Y-86506510D01*
X177159500Y-86661153D01*
X177159500Y-86818846D01*
X177190261Y-86973489D01*
X177190264Y-86973501D01*
X177198361Y-86993048D01*
X177205830Y-87062517D01*
X177174555Y-87124996D01*
X177114466Y-87160648D01*
X177083800Y-87164500D01*
X174820453Y-87164500D01*
X174753414Y-87144815D01*
X174732772Y-87128181D01*
X172015744Y-84411153D01*
X176709500Y-84411153D01*
X176709500Y-84568846D01*
X176740261Y-84723489D01*
X176740264Y-84723501D01*
X176800602Y-84869172D01*
X176800609Y-84869185D01*
X176888210Y-85000288D01*
X176888213Y-85000292D01*
X176999707Y-85111786D01*
X176999711Y-85111789D01*
X177130814Y-85199390D01*
X177130827Y-85199397D01*
X177276498Y-85259735D01*
X177276503Y-85259737D01*
X177397440Y-85283793D01*
X177431153Y-85290499D01*
X177431156Y-85290500D01*
X177431158Y-85290500D01*
X177588844Y-85290500D01*
X177588845Y-85290499D01*
X177743497Y-85259737D01*
X177889179Y-85199394D01*
X177891951Y-85197542D01*
X178020875Y-85111398D01*
X178038921Y-85105747D01*
X178054831Y-85095523D01*
X178085792Y-85091071D01*
X178087553Y-85090520D01*
X178089766Y-85090500D01*
X178160249Y-85090500D01*
X178227288Y-85110185D01*
X178259515Y-85140188D01*
X178282530Y-85170931D01*
X178302454Y-85197546D01*
X178304923Y-85199394D01*
X178417664Y-85283793D01*
X178417673Y-85283798D01*
X178435643Y-85290500D01*
X178552517Y-85334091D01*
X178612127Y-85340500D01*
X180207872Y-85340499D01*
X180207872Y-85340498D01*
X180211196Y-85340321D01*
X180211201Y-85340426D01*
X180219163Y-85340000D01*
X181060000Y-85340000D01*
X181060000Y-85192172D01*
X181059999Y-85192155D01*
X181053598Y-85132627D01*
X181053596Y-85132620D01*
X181003354Y-84997913D01*
X181003350Y-84997906D01*
X180917190Y-84882812D01*
X180917187Y-84882809D01*
X180802093Y-84796649D01*
X180802087Y-84796646D01*
X180741165Y-84773923D01*
X180685231Y-84732051D01*
X180660815Y-84666586D01*
X180660499Y-84657760D01*
X180660499Y-84092128D01*
X180654091Y-84032517D01*
X180635747Y-83983334D01*
X180630762Y-83913643D01*
X180635747Y-83896665D01*
X180654089Y-83847488D01*
X180654091Y-83847483D01*
X180660500Y-83787873D01*
X180660499Y-83432615D01*
X180680183Y-83365578D01*
X180732987Y-83319823D01*
X180802146Y-83309879D01*
X180865701Y-83338904D01*
X180900681Y-83389283D01*
X180916646Y-83432088D01*
X180916649Y-83432093D01*
X181002809Y-83547187D01*
X181002812Y-83547190D01*
X181117906Y-83633350D01*
X181117913Y-83633354D01*
X181252620Y-83683596D01*
X181252627Y-83683598D01*
X181312155Y-83689999D01*
X181312172Y-83690000D01*
X182060000Y-83690000D01*
X182560000Y-83690000D01*
X183307828Y-83690000D01*
X183307844Y-83689999D01*
X183367372Y-83683598D01*
X183367379Y-83683596D01*
X183502086Y-83633354D01*
X183502093Y-83633350D01*
X183617187Y-83547190D01*
X183617190Y-83547187D01*
X183703350Y-83432093D01*
X183703354Y-83432086D01*
X183753596Y-83297379D01*
X183753598Y-83297372D01*
X183759999Y-83237844D01*
X183760000Y-83237827D01*
X183760000Y-82740000D01*
X182560000Y-82740000D01*
X182560000Y-83690000D01*
X182060000Y-83690000D01*
X182060000Y-82740000D01*
X180860000Y-82740000D01*
X180860000Y-82797292D01*
X180840315Y-82864331D01*
X180787511Y-82910086D01*
X180718353Y-82920030D01*
X180654797Y-82891005D01*
X180619818Y-82840625D01*
X180603797Y-82797671D01*
X180603793Y-82797664D01*
X180517547Y-82682455D01*
X180517544Y-82682452D01*
X180402335Y-82596206D01*
X180402328Y-82596202D01*
X180267482Y-82545908D01*
X180267483Y-82545908D01*
X180207883Y-82539501D01*
X180207881Y-82539500D01*
X180207873Y-82539500D01*
X180207864Y-82539500D01*
X178612129Y-82539500D01*
X178612123Y-82539501D01*
X178552516Y-82545908D01*
X178417671Y-82596202D01*
X178417664Y-82596206D01*
X178302455Y-82682452D01*
X178302452Y-82682455D01*
X178216206Y-82797664D01*
X178216202Y-82797671D01*
X178165908Y-82932517D01*
X178159501Y-82992116D01*
X178159500Y-82992135D01*
X178159500Y-83729241D01*
X178139815Y-83796280D01*
X178087011Y-83842035D01*
X178017853Y-83851979D01*
X177966609Y-83832343D01*
X177889184Y-83780609D01*
X177889172Y-83780602D01*
X177743501Y-83720264D01*
X177743489Y-83720261D01*
X177588845Y-83689500D01*
X177588842Y-83689500D01*
X177431158Y-83689500D01*
X177431155Y-83689500D01*
X177276510Y-83720261D01*
X177276498Y-83720264D01*
X177130827Y-83780602D01*
X177130814Y-83780609D01*
X176999711Y-83868210D01*
X176999707Y-83868213D01*
X176888213Y-83979707D01*
X176888210Y-83979711D01*
X176800609Y-84110814D01*
X176800602Y-84110827D01*
X176740264Y-84256498D01*
X176740261Y-84256510D01*
X176709500Y-84411153D01*
X172015744Y-84411153D01*
X171621819Y-84017228D01*
X171588334Y-83955905D01*
X171585500Y-83929547D01*
X171585500Y-81828393D01*
X171585499Y-81828390D01*
X171572502Y-81763047D01*
X171568346Y-81742155D01*
X180860000Y-81742155D01*
X180860000Y-82240000D01*
X182060000Y-82240000D01*
X182560000Y-82240000D01*
X183760000Y-82240000D01*
X183760000Y-81742172D01*
X183759999Y-81742155D01*
X183753598Y-81682627D01*
X183753596Y-81682620D01*
X183703354Y-81547913D01*
X183703350Y-81547906D01*
X183617190Y-81432812D01*
X183617187Y-81432809D01*
X183502093Y-81346649D01*
X183502086Y-81346645D01*
X183367379Y-81296403D01*
X183367372Y-81296401D01*
X183307844Y-81290000D01*
X182560000Y-81290000D01*
X182560000Y-82240000D01*
X182060000Y-82240000D01*
X182060000Y-81290000D01*
X181312155Y-81290000D01*
X181252627Y-81296401D01*
X181252620Y-81296403D01*
X181117913Y-81346645D01*
X181117906Y-81346649D01*
X181002812Y-81432809D01*
X181002809Y-81432812D01*
X180916649Y-81547906D01*
X180916645Y-81547913D01*
X180866403Y-81682620D01*
X180866401Y-81682627D01*
X180860000Y-81742155D01*
X171568346Y-81742155D01*
X171561463Y-81707548D01*
X171519606Y-81606498D01*
X171514312Y-81593716D01*
X171514307Y-81593707D01*
X171445858Y-81491267D01*
X171445855Y-81491263D01*
X171358736Y-81404144D01*
X171358732Y-81404141D01*
X171256292Y-81335692D01*
X171256283Y-81335687D01*
X171142454Y-81288538D01*
X171142455Y-81288538D01*
X171142452Y-81288537D01*
X171142448Y-81288536D01*
X171142444Y-81288535D01*
X171021610Y-81264500D01*
X171021606Y-81264500D01*
X166717941Y-81264500D01*
X166650902Y-81244815D01*
X166630260Y-81228181D01*
X166620292Y-81218213D01*
X166620288Y-81218210D01*
X166489185Y-81130609D01*
X166489172Y-81130602D01*
X166343501Y-81070264D01*
X166343489Y-81070261D01*
X166188845Y-81039500D01*
X166188842Y-81039500D01*
X166031158Y-81039500D01*
X166031155Y-81039500D01*
X165876510Y-81070261D01*
X165876498Y-81070264D01*
X165730827Y-81130602D01*
X165730814Y-81130609D01*
X165599711Y-81218210D01*
X165599707Y-81218213D01*
X165488213Y-81329707D01*
X165488210Y-81329711D01*
X165400609Y-81460814D01*
X165400602Y-81460827D01*
X165340264Y-81606498D01*
X165340261Y-81606510D01*
X165309500Y-81761153D01*
X165309500Y-81918846D01*
X165340261Y-82073489D01*
X165340264Y-82073501D01*
X165400602Y-82219172D01*
X165400609Y-82219185D01*
X165488210Y-82350288D01*
X165488213Y-82350292D01*
X165599707Y-82461786D01*
X165599711Y-82461789D01*
X165730814Y-82549390D01*
X165730827Y-82549397D01*
X165871218Y-82607548D01*
X165876503Y-82609737D01*
X166031153Y-82640499D01*
X166031156Y-82640500D01*
X166031158Y-82640500D01*
X166188844Y-82640500D01*
X166188845Y-82640499D01*
X166343497Y-82609737D01*
X166489179Y-82549394D01*
X166503985Y-82539501D01*
X166508628Y-82536399D01*
X166575305Y-82515520D01*
X166577520Y-82515500D01*
X168204344Y-82515500D01*
X168271383Y-82535185D01*
X168317138Y-82587989D01*
X168327082Y-82657147D01*
X168298057Y-82720703D01*
X168274106Y-82740003D01*
X168274769Y-82740888D01*
X168152455Y-82832452D01*
X168152452Y-82832455D01*
X168066206Y-82947664D01*
X168066202Y-82947671D01*
X168015908Y-83082517D01*
X168009501Y-83142116D01*
X168009500Y-83142135D01*
X168009500Y-84389901D01*
X167989815Y-84456940D01*
X167973181Y-84477582D01*
X167691286Y-84759478D01*
X167579481Y-84871282D01*
X167579479Y-84871284D01*
X167572824Y-84882812D01*
X167540652Y-84938537D01*
X167500423Y-85008215D01*
X167459499Y-85160943D01*
X167459499Y-85160945D01*
X167459499Y-85329046D01*
X167459500Y-85329059D01*
X167459500Y-97439902D01*
X167439815Y-97506941D01*
X167423181Y-97527583D01*
X160026881Y-104923882D01*
X160026879Y-104923884D01*
X160003562Y-104964272D01*
X159993706Y-104981344D01*
X159983480Y-104999056D01*
X159947823Y-105060813D01*
X159934028Y-105112297D01*
X159918787Y-105169179D01*
X159911173Y-105197594D01*
X159874807Y-105257254D01*
X159811960Y-105287783D01*
X159791398Y-105289500D01*
X159630943Y-105289500D01*
X159478216Y-105330423D01*
X159478209Y-105330426D01*
X159341290Y-105409475D01*
X159341282Y-105409481D01*
X159229481Y-105521282D01*
X159229475Y-105521290D01*
X159150426Y-105658209D01*
X159150423Y-105658216D01*
X159109500Y-105810943D01*
X159109500Y-109690903D01*
X159089815Y-109757942D01*
X159037011Y-109803697D01*
X158967853Y-109813641D01*
X158904297Y-109784616D01*
X158897819Y-109778584D01*
X158596819Y-109477584D01*
X158563334Y-109416261D01*
X158560500Y-109389903D01*
X158560500Y-97068038D01*
X158580185Y-97000999D01*
X158596815Y-96980361D01*
X158997651Y-96579524D01*
X159023344Y-96559813D01*
X159026113Y-96558215D01*
X159086900Y-96523120D01*
X159198704Y-96411316D01*
X159198704Y-96411314D01*
X159208907Y-96401112D01*
X159208911Y-96401106D01*
X159371106Y-96238912D01*
X159371111Y-96238908D01*
X159381314Y-96228704D01*
X159381316Y-96228704D01*
X159493120Y-96116900D01*
X159562384Y-95996930D01*
X159562386Y-95996928D01*
X159572176Y-95979970D01*
X159572177Y-95979969D01*
X159613100Y-95827241D01*
X159613100Y-95669127D01*
X159613100Y-95420876D01*
X159613101Y-95420863D01*
X159613101Y-95252760D01*
X159613101Y-95252759D01*
X159572177Y-95100032D01*
X159572173Y-95100025D01*
X159493124Y-94963106D01*
X159493118Y-94963098D01*
X159280219Y-94750199D01*
X159246734Y-94688876D01*
X159251718Y-94619184D01*
X159293590Y-94563251D01*
X159298980Y-94559435D01*
X159370289Y-94511789D01*
X159481789Y-94400289D01*
X159569394Y-94269179D01*
X159629737Y-94123497D01*
X159660500Y-93968842D01*
X159660500Y-93811158D01*
X159660500Y-93811155D01*
X159660499Y-93811153D01*
X159629737Y-93656503D01*
X159611698Y-93612952D01*
X159569397Y-93510827D01*
X159569390Y-93510814D01*
X159481789Y-93379711D01*
X159481786Y-93379707D01*
X159370292Y-93268213D01*
X159370288Y-93268210D01*
X159239185Y-93180609D01*
X159239172Y-93180602D01*
X159093501Y-93120264D01*
X159093489Y-93120261D01*
X158938845Y-93089500D01*
X158938842Y-93089500D01*
X158781158Y-93089500D01*
X158781155Y-93089500D01*
X158626510Y-93120261D01*
X158626498Y-93120264D01*
X158480827Y-93180602D01*
X158480814Y-93180609D01*
X158349711Y-93268210D01*
X158349707Y-93268213D01*
X158238213Y-93379707D01*
X158238210Y-93379711D01*
X158150609Y-93510814D01*
X158150602Y-93510827D01*
X158108302Y-93612952D01*
X158064462Y-93667356D01*
X158014336Y-93687778D01*
X158004112Y-93689500D01*
X157981158Y-93689500D01*
X157854326Y-93714728D01*
X157852495Y-93715037D01*
X157819545Y-93711105D01*
X157786499Y-93708149D01*
X157785000Y-93706984D01*
X157783118Y-93706760D01*
X157757535Y-93685648D01*
X157731322Y-93665285D01*
X157730690Y-93663496D01*
X157729228Y-93662289D01*
X157719114Y-93630680D01*
X157708078Y-93599395D01*
X157707984Y-93595893D01*
X157707936Y-93595743D01*
X157707976Y-93595593D01*
X157707900Y-93592759D01*
X157707900Y-87992696D01*
X157727585Y-87925657D01*
X157744215Y-87905019D01*
X158368506Y-87280727D01*
X158368511Y-87280724D01*
X158378714Y-87270520D01*
X158378716Y-87270520D01*
X158490520Y-87158716D01*
X158543781Y-87066465D01*
X158569577Y-87021785D01*
X158610500Y-86869057D01*
X158610500Y-86710943D01*
X158610500Y-85619765D01*
X158630185Y-85552726D01*
X158631398Y-85550874D01*
X158719390Y-85419185D01*
X158719390Y-85419184D01*
X158719394Y-85419179D01*
X158779737Y-85273497D01*
X158810500Y-85118842D01*
X158810500Y-84961158D01*
X158810500Y-84961155D01*
X158810499Y-84961153D01*
X158806000Y-84938536D01*
X158779737Y-84806503D01*
X158775654Y-84796646D01*
X158719397Y-84660827D01*
X158719390Y-84660814D01*
X158631789Y-84529711D01*
X158631786Y-84529707D01*
X158520292Y-84418213D01*
X158520288Y-84418210D01*
X158389185Y-84330609D01*
X158389172Y-84330602D01*
X158243501Y-84270264D01*
X158243489Y-84270261D01*
X158088845Y-84239500D01*
X158088842Y-84239500D01*
X157931158Y-84239500D01*
X157931155Y-84239500D01*
X157776510Y-84270261D01*
X157776498Y-84270264D01*
X157630827Y-84330602D01*
X157630814Y-84330609D01*
X157499711Y-84418210D01*
X157499707Y-84418213D01*
X157388213Y-84529707D01*
X157388210Y-84529711D01*
X157300609Y-84660814D01*
X157300602Y-84660827D01*
X157240264Y-84806498D01*
X157240261Y-84806510D01*
X157209500Y-84961153D01*
X157209500Y-85118846D01*
X157240261Y-85273489D01*
X157240264Y-85273501D01*
X157300602Y-85419172D01*
X157300609Y-85419185D01*
X157388602Y-85550874D01*
X157409480Y-85617551D01*
X157409500Y-85619765D01*
X157409500Y-86489902D01*
X157389815Y-86556941D01*
X157373181Y-86577583D01*
X156880303Y-87070460D01*
X156818980Y-87103945D01*
X156749288Y-87098961D01*
X156693355Y-87057089D01*
X156668938Y-86991625D01*
X156683790Y-86923352D01*
X156689521Y-86913887D01*
X156719394Y-86869179D01*
X156779737Y-86723497D01*
X156810500Y-86568842D01*
X156810500Y-86411158D01*
X156810500Y-86411155D01*
X156810499Y-86411153D01*
X156787830Y-86297190D01*
X156779737Y-86256503D01*
X156769802Y-86232517D01*
X156719397Y-86110827D01*
X156719390Y-86110814D01*
X156631789Y-85979711D01*
X156631786Y-85979707D01*
X156520292Y-85868213D01*
X156520288Y-85868210D01*
X156389185Y-85780609D01*
X156389172Y-85780602D01*
X156243501Y-85720264D01*
X156243489Y-85720261D01*
X156088845Y-85689500D01*
X156088842Y-85689500D01*
X155931158Y-85689500D01*
X155931155Y-85689500D01*
X155776510Y-85720261D01*
X155776498Y-85720264D01*
X155630827Y-85780602D01*
X155630814Y-85780609D01*
X155499711Y-85868210D01*
X155499707Y-85868213D01*
X155388213Y-85979707D01*
X155388210Y-85979711D01*
X155300609Y-86110814D01*
X155300602Y-86110827D01*
X155240264Y-86256498D01*
X155240261Y-86256510D01*
X155209500Y-86411153D01*
X155209500Y-86568846D01*
X155240261Y-86723489D01*
X155240264Y-86723501D01*
X155300602Y-86869172D01*
X155300609Y-86869185D01*
X155388210Y-87000288D01*
X155388213Y-87000292D01*
X155499707Y-87111786D01*
X155499711Y-87111789D01*
X155630814Y-87199390D01*
X155630827Y-87199397D01*
X155750091Y-87248797D01*
X155776503Y-87259737D01*
X155903181Y-87284935D01*
X155931153Y-87290499D01*
X155931156Y-87290500D01*
X155931158Y-87290500D01*
X156088844Y-87290500D01*
X156088845Y-87290499D01*
X156243497Y-87259737D01*
X156389179Y-87199394D01*
X156451004Y-87158083D01*
X156457866Y-87155934D01*
X156463071Y-87150972D01*
X156490764Y-87145633D01*
X156517680Y-87137205D01*
X156524614Y-87139107D01*
X156531677Y-87137746D01*
X156557865Y-87148228D01*
X156585060Y-87155689D01*
X156589864Y-87161037D01*
X156596543Y-87163711D01*
X156612907Y-87186689D01*
X156631751Y-87207667D01*
X156632901Y-87214764D01*
X156637074Y-87220624D01*
X156638417Y-87248797D01*
X156642929Y-87276637D01*
X156640139Y-87284935D01*
X156640401Y-87290414D01*
X156627285Y-87323181D01*
X156614869Y-87344686D01*
X156604996Y-87361789D01*
X156547823Y-87460815D01*
X156506899Y-87613543D01*
X156506899Y-87613545D01*
X156506899Y-87781646D01*
X156506900Y-87781659D01*
X156506900Y-95761514D01*
X156506899Y-95761532D01*
X156506899Y-95927238D01*
X156506898Y-95927238D01*
X156547823Y-96079971D01*
X156550061Y-96085372D01*
X156559500Y-96132825D01*
X156559500Y-97024155D01*
X156539815Y-97091194D01*
X156487011Y-97136949D01*
X156417853Y-97146893D01*
X156388048Y-97138716D01*
X156343501Y-97120264D01*
X156343489Y-97120261D01*
X156188845Y-97089500D01*
X156188842Y-97089500D01*
X156031158Y-97089500D01*
X156031155Y-97089500D01*
X155876510Y-97120261D01*
X155876498Y-97120264D01*
X155730827Y-97180602D01*
X155730814Y-97180609D01*
X155599711Y-97268210D01*
X155599707Y-97268213D01*
X155488213Y-97379707D01*
X155488210Y-97379711D01*
X155400609Y-97510814D01*
X155400602Y-97510827D01*
X155340264Y-97656498D01*
X155340261Y-97656510D01*
X155309500Y-97811153D01*
X155309500Y-97968846D01*
X155340261Y-98123489D01*
X155340264Y-98123501D01*
X155393153Y-98251188D01*
X155400622Y-98320657D01*
X155369346Y-98383136D01*
X155309257Y-98418788D01*
X155239432Y-98416294D01*
X155190911Y-98386321D01*
X154303353Y-97498763D01*
X154295860Y-97491270D01*
X154295858Y-97491267D01*
X154208733Y-97404142D01*
X154150901Y-97365500D01*
X154144467Y-97361200D01*
X154144465Y-97361199D01*
X154106290Y-97335690D01*
X154106286Y-97335688D01*
X154023762Y-97301506D01*
X153992452Y-97288537D01*
X153901867Y-97270519D01*
X153898224Y-97269794D01*
X153898215Y-97269792D01*
X153871607Y-97264500D01*
X153871606Y-97264500D01*
X145951822Y-97264500D01*
X145884783Y-97244815D01*
X145864141Y-97228181D01*
X142637614Y-94001654D01*
X142610734Y-93961425D01*
X142595681Y-93925084D01*
X142595677Y-93925077D01*
X142527229Y-93822638D01*
X142515744Y-93811153D01*
X142440103Y-93735512D01*
X142440102Y-93735511D01*
X139914707Y-91210116D01*
X142737926Y-91210116D01*
X142776374Y-91403402D01*
X142776377Y-91403412D01*
X142851791Y-91585480D01*
X142851798Y-91585493D01*
X142961287Y-91749354D01*
X142961290Y-91749358D01*
X143100641Y-91888709D01*
X143100645Y-91888712D01*
X143264506Y-91998201D01*
X143264519Y-91998208D01*
X143321445Y-92021787D01*
X143446592Y-92073624D01*
X143446596Y-92073624D01*
X143446597Y-92073625D01*
X143639883Y-92112073D01*
X143639886Y-92112073D01*
X143836970Y-92112073D01*
X143967009Y-92086205D01*
X144030262Y-92073624D01*
X144212341Y-91998205D01*
X144376209Y-91888712D01*
X144515566Y-91749355D01*
X144625059Y-91585487D01*
X144700478Y-91403408D01*
X144734508Y-91232331D01*
X144738927Y-91210116D01*
X144738927Y-91013029D01*
X144700479Y-90819743D01*
X144700478Y-90819742D01*
X144700478Y-90819738D01*
X144680093Y-90770524D01*
X144625062Y-90637665D01*
X144625055Y-90637652D01*
X144515566Y-90473791D01*
X144515563Y-90473787D01*
X144376212Y-90334436D01*
X144376208Y-90334433D01*
X144212347Y-90224944D01*
X144212334Y-90224937D01*
X144030266Y-90149523D01*
X144030256Y-90149520D01*
X143836970Y-90111073D01*
X143836968Y-90111073D01*
X143639886Y-90111073D01*
X143639884Y-90111073D01*
X143446597Y-90149520D01*
X143446587Y-90149523D01*
X143264519Y-90224937D01*
X143264506Y-90224944D01*
X143100645Y-90334433D01*
X143100641Y-90334436D01*
X142961290Y-90473787D01*
X142961287Y-90473791D01*
X142851798Y-90637652D01*
X142851791Y-90637665D01*
X142776377Y-90819733D01*
X142776374Y-90819743D01*
X142737927Y-91013029D01*
X142737927Y-91013032D01*
X142737927Y-91210114D01*
X142737927Y-91210116D01*
X142737926Y-91210116D01*
X139914707Y-91210116D01*
X137192798Y-88488207D01*
X144017669Y-88488207D01*
X144038150Y-88630663D01*
X144097937Y-88761578D01*
X144097939Y-88761580D01*
X144135557Y-88808262D01*
X144135560Y-88808265D01*
X144135565Y-88808271D01*
X145734237Y-90406940D01*
X146041738Y-90714441D01*
X146041742Y-90714444D01*
X146041744Y-90714446D01*
X146088419Y-90752061D01*
X146153878Y-90781955D01*
X146219336Y-90811849D01*
X146219335Y-90811849D01*
X146239817Y-90814793D01*
X146361793Y-90832331D01*
X146504251Y-90811849D01*
X146635166Y-90752061D01*
X146681849Y-90714443D01*
X149577977Y-87818313D01*
X149615597Y-87771630D01*
X149675385Y-87640715D01*
X149695867Y-87498257D01*
X149675385Y-87355800D01*
X149664752Y-87332517D01*
X149615598Y-87224885D01*
X149601723Y-87207667D01*
X149577979Y-87178202D01*
X149577974Y-87178197D01*
X149577970Y-87178192D01*
X147671801Y-85272026D01*
X147671791Y-85272017D01*
X147625116Y-85234402D01*
X147486133Y-85170931D01*
X147487322Y-85168326D01*
X147440774Y-85138401D01*
X147411759Y-85074840D01*
X147410500Y-85057213D01*
X147410500Y-70014500D01*
X147430185Y-69947461D01*
X147482989Y-69901706D01*
X147534500Y-69890500D01*
X155530234Y-69890500D01*
X155597273Y-69910185D01*
X155599125Y-69911398D01*
X155730814Y-69999390D01*
X155730827Y-69999397D01*
X155876498Y-70059735D01*
X155876503Y-70059737D01*
X156031153Y-70090499D01*
X156031156Y-70090500D01*
X156031158Y-70090500D01*
X156188844Y-70090500D01*
X156188845Y-70090499D01*
X156343497Y-70059737D01*
X156489179Y-69999394D01*
X156620289Y-69911789D01*
X156731789Y-69800289D01*
X156819394Y-69669179D01*
X156879737Y-69523497D01*
X156910500Y-69368842D01*
X156910500Y-69211158D01*
X156910500Y-69211155D01*
X156910499Y-69211153D01*
X156879738Y-69056510D01*
X156879737Y-69056503D01*
X156879735Y-69056498D01*
X156819397Y-68910827D01*
X156819390Y-68910814D01*
X156731789Y-68779711D01*
X156731786Y-68779707D01*
X156620292Y-68668213D01*
X156620288Y-68668210D01*
X156489185Y-68580609D01*
X156489172Y-68580602D01*
X156343501Y-68520264D01*
X156343489Y-68520261D01*
X156188845Y-68489500D01*
X156188842Y-68489500D01*
X156031158Y-68489500D01*
X156031155Y-68489500D01*
X155876510Y-68520261D01*
X155876498Y-68520264D01*
X155730827Y-68580602D01*
X155730814Y-68580609D01*
X155599125Y-68668602D01*
X155532447Y-68689480D01*
X155530234Y-68689500D01*
X146830940Y-68689500D01*
X146790019Y-68700464D01*
X146790019Y-68700465D01*
X146752751Y-68710451D01*
X146678214Y-68730423D01*
X146678209Y-68730426D01*
X146541290Y-68809475D01*
X146541282Y-68809481D01*
X146329481Y-69021282D01*
X146329479Y-69021285D01*
X146283887Y-69100255D01*
X146283885Y-69100257D01*
X146250425Y-69158209D01*
X146250423Y-69158212D01*
X146225868Y-69249851D01*
X146209499Y-69310943D01*
X146209499Y-69310945D01*
X146209499Y-69479046D01*
X146209500Y-69479059D01*
X146209500Y-86042846D01*
X146189815Y-86109885D01*
X146173181Y-86130527D01*
X144135566Y-88168143D01*
X144135560Y-88168150D01*
X144097938Y-88214835D01*
X144097937Y-88214837D01*
X144038150Y-88345749D01*
X144017669Y-88488207D01*
X137192798Y-88488207D01*
X136071819Y-87367228D01*
X136038334Y-87305905D01*
X136035500Y-87279547D01*
X136035500Y-82728392D01*
X136035328Y-82726645D01*
X136035500Y-82725738D01*
X136035500Y-82722302D01*
X136036152Y-82722302D01*
X136048352Y-82658000D01*
X136096420Y-82607293D01*
X136158732Y-82590499D01*
X137307871Y-82590499D01*
X137307872Y-82590499D01*
X137367483Y-82584091D01*
X137502331Y-82533796D01*
X137617546Y-82447546D01*
X137703796Y-82332331D01*
X137754091Y-82197483D01*
X137760500Y-82137873D01*
X137760499Y-78642128D01*
X137754091Y-78582517D01*
X137754089Y-78582512D01*
X137703797Y-78447671D01*
X137703793Y-78447664D01*
X137617547Y-78332455D01*
X137617544Y-78332452D01*
X137502335Y-78246206D01*
X137502328Y-78246202D01*
X137367482Y-78195908D01*
X137367483Y-78195908D01*
X137307883Y-78189501D01*
X137307881Y-78189500D01*
X137307873Y-78189500D01*
X137307864Y-78189500D01*
X135612129Y-78189500D01*
X135612123Y-78189501D01*
X135552516Y-78195908D01*
X135417671Y-78246202D01*
X135417664Y-78246206D01*
X135302455Y-78332452D01*
X135302452Y-78332455D01*
X135216206Y-78447664D01*
X135216202Y-78447671D01*
X135165908Y-78582517D01*
X135159501Y-78642116D01*
X135159501Y-78642123D01*
X135159500Y-78642135D01*
X135159501Y-81940500D01*
X135139816Y-82007539D01*
X135087012Y-82053294D01*
X135035501Y-82064500D01*
X132782820Y-82064500D01*
X132715781Y-82044815D01*
X132670026Y-81992011D01*
X132661203Y-81964691D01*
X132634091Y-81828393D01*
X132629737Y-81806503D01*
X132610953Y-81761153D01*
X132569397Y-81660827D01*
X132569390Y-81660814D01*
X132481789Y-81529711D01*
X132481786Y-81529707D01*
X132370292Y-81418213D01*
X132370288Y-81418210D01*
X132239185Y-81330609D01*
X132239172Y-81330602D01*
X132093501Y-81270264D01*
X132093489Y-81270261D01*
X131938845Y-81239500D01*
X131938842Y-81239500D01*
X131781158Y-81239500D01*
X131781155Y-81239500D01*
X131626510Y-81270261D01*
X131626498Y-81270264D01*
X131480827Y-81330602D01*
X131480814Y-81330609D01*
X131349711Y-81418210D01*
X131349707Y-81418213D01*
X131238213Y-81529707D01*
X131187601Y-81605453D01*
X131133988Y-81650257D01*
X131064663Y-81658964D01*
X131001636Y-81628809D01*
X130964917Y-81569365D01*
X130960499Y-81536567D01*
X130960499Y-78642128D01*
X130954091Y-78582517D01*
X130954090Y-78582515D01*
X130954090Y-78582512D01*
X130952308Y-78574969D01*
X130953883Y-78574596D01*
X130949545Y-78514024D01*
X130983023Y-78452697D01*
X131001822Y-78437267D01*
X131006542Y-78434114D01*
X131104114Y-78336542D01*
X131180775Y-78221811D01*
X131233580Y-78094328D01*
X131244126Y-78041309D01*
X131260500Y-77958995D01*
X131260500Y-77821004D01*
X131233581Y-77685677D01*
X131233580Y-77685676D01*
X131233580Y-77685672D01*
X131233578Y-77685667D01*
X131180778Y-77558195D01*
X131180771Y-77558182D01*
X131104114Y-77443458D01*
X131104111Y-77443454D01*
X131006545Y-77345888D01*
X131006541Y-77345885D01*
X130891817Y-77269228D01*
X130891804Y-77269221D01*
X130764332Y-77216421D01*
X130764322Y-77216418D01*
X130628995Y-77189500D01*
X130628993Y-77189500D01*
X130491007Y-77189500D01*
X130491005Y-77189500D01*
X130355677Y-77216418D01*
X130355667Y-77216421D01*
X130228195Y-77269221D01*
X130228182Y-77269228D01*
X130113458Y-77345885D01*
X130113454Y-77345888D01*
X130015888Y-77443454D01*
X130015885Y-77443458D01*
X129939228Y-77558182D01*
X129939221Y-77558195D01*
X129886421Y-77685667D01*
X129886418Y-77685677D01*
X129859500Y-77821004D01*
X129859500Y-77958997D01*
X129875873Y-78041309D01*
X129869646Y-78110900D01*
X129826783Y-78166078D01*
X129760893Y-78189322D01*
X129754256Y-78189500D01*
X128812129Y-78189500D01*
X128812123Y-78189501D01*
X128752516Y-78195908D01*
X128617671Y-78246202D01*
X128617664Y-78246206D01*
X128502455Y-78332452D01*
X128502452Y-78332455D01*
X128416206Y-78447664D01*
X128416202Y-78447671D01*
X128365908Y-78582517D01*
X128359501Y-78642116D01*
X128359501Y-78642123D01*
X128359500Y-78642135D01*
X128359500Y-82137870D01*
X128359501Y-82137876D01*
X128365908Y-82197483D01*
X128416202Y-82332328D01*
X128416206Y-82332335D01*
X128502452Y-82447544D01*
X128502455Y-82447547D01*
X128617664Y-82533793D01*
X128617671Y-82533797D01*
X128752517Y-82584091D01*
X128752516Y-82584091D01*
X128759444Y-82584835D01*
X128812127Y-82590500D01*
X130507872Y-82590499D01*
X130567483Y-82584091D01*
X130702331Y-82533796D01*
X130817546Y-82447546D01*
X130903796Y-82332331D01*
X130903796Y-82332329D01*
X130909032Y-82325336D01*
X130964966Y-82283465D01*
X131034658Y-82278481D01*
X131095981Y-82311966D01*
X131122860Y-82352195D01*
X131150602Y-82419172D01*
X131150609Y-82419185D01*
X131238210Y-82550288D01*
X131238213Y-82550292D01*
X131340547Y-82652626D01*
X131374032Y-82713949D01*
X131369048Y-82783641D01*
X131327176Y-82839574D01*
X131322568Y-82842535D01*
X131202455Y-82932452D01*
X131202452Y-82932455D01*
X131116206Y-83047664D01*
X131116202Y-83047671D01*
X131065908Y-83182517D01*
X131059501Y-83242116D01*
X131059500Y-83242135D01*
X131059500Y-86203104D01*
X131039815Y-86270143D01*
X130987011Y-86315898D01*
X130917853Y-86325842D01*
X130888048Y-86317665D01*
X130764332Y-86266421D01*
X130764322Y-86266418D01*
X130628995Y-86239500D01*
X130628993Y-86239500D01*
X130491007Y-86239500D01*
X130491005Y-86239500D01*
X130355677Y-86266418D01*
X130355667Y-86266421D01*
X130228195Y-86319221D01*
X130228182Y-86319228D01*
X130113458Y-86395885D01*
X130113454Y-86395888D01*
X130015888Y-86493454D01*
X130015885Y-86493458D01*
X129939228Y-86608182D01*
X129939221Y-86608195D01*
X129886421Y-86735667D01*
X129886418Y-86735677D01*
X129859500Y-86871004D01*
X129859500Y-86871007D01*
X129859500Y-87008993D01*
X129859500Y-87008995D01*
X129859499Y-87008995D01*
X129886418Y-87144322D01*
X129886421Y-87144332D01*
X129939221Y-87271804D01*
X129939228Y-87271817D01*
X130015885Y-87386541D01*
X130015888Y-87386545D01*
X130113454Y-87484111D01*
X130113458Y-87484114D01*
X130228182Y-87560771D01*
X130228195Y-87560778D01*
X130355667Y-87613578D01*
X130355672Y-87613580D01*
X130355676Y-87613580D01*
X130355677Y-87613581D01*
X130491004Y-87640500D01*
X130491007Y-87640500D01*
X130628995Y-87640500D01*
X130720041Y-87622389D01*
X130764328Y-87613580D01*
X130888047Y-87562333D01*
X130957517Y-87554865D01*
X131019996Y-87586140D01*
X131055648Y-87646229D01*
X131059500Y-87676895D01*
X131059500Y-87937869D01*
X131059501Y-87937876D01*
X131065908Y-87997483D01*
X131116202Y-88132328D01*
X131116206Y-88132335D01*
X131202452Y-88247544D01*
X131202455Y-88247547D01*
X131317664Y-88333793D01*
X131317671Y-88333797D01*
X131452517Y-88384091D01*
X131452516Y-88384091D01*
X131459444Y-88384835D01*
X131512127Y-88390500D01*
X132607872Y-88390499D01*
X132667483Y-88384091D01*
X132802331Y-88333796D01*
X132917546Y-88247546D01*
X132960734Y-88189854D01*
X133016667Y-88147984D01*
X133086359Y-88143000D01*
X133147682Y-88176485D01*
X133159263Y-88189850D01*
X133202454Y-88247546D01*
X133231630Y-88269387D01*
X133317664Y-88333793D01*
X133317669Y-88333796D01*
X133378833Y-88356608D01*
X133434766Y-88398478D01*
X133459184Y-88463942D01*
X133459500Y-88472790D01*
X133459500Y-89039903D01*
X133439815Y-89106942D01*
X133423181Y-89127584D01*
X132897584Y-89653181D01*
X132836261Y-89686666D01*
X132809903Y-89689500D01*
X130680943Y-89689500D01*
X130528216Y-89730423D01*
X130528209Y-89730426D01*
X130391290Y-89809475D01*
X130391282Y-89809481D01*
X130279481Y-89921282D01*
X130279475Y-89921290D01*
X130200426Y-90058209D01*
X130200423Y-90058216D01*
X130159500Y-90210943D01*
X130159500Y-91703330D01*
X130159499Y-91703348D01*
X130159499Y-91869054D01*
X130159498Y-91869054D01*
X130200423Y-92021786D01*
X130200424Y-92021787D01*
X130216363Y-92049394D01*
X130279481Y-92158717D01*
X130398349Y-92277585D01*
X130398355Y-92277590D01*
X132123181Y-94002416D01*
X132156666Y-94063739D01*
X132159500Y-94090097D01*
X132159500Y-97661636D01*
X132151834Y-97700179D01*
X132152527Y-97700365D01*
X132150424Y-97708213D01*
X132150423Y-97708215D01*
X132109499Y-97860943D01*
X132109499Y-97860945D01*
X132109499Y-98029046D01*
X132109500Y-98029059D01*
X132109500Y-102840189D01*
X132089815Y-102907228D01*
X132073181Y-102927870D01*
X131051052Y-103949999D01*
X131051052Y-103950000D01*
X132073181Y-104972129D01*
X132087884Y-104999056D01*
X132104477Y-105024875D01*
X132105368Y-105031075D01*
X132106666Y-105033452D01*
X132109500Y-105059810D01*
X132109500Y-105288806D01*
X132089815Y-105355845D01*
X132037011Y-105401600D01*
X131967853Y-105411544D01*
X131944546Y-105405848D01*
X131826757Y-105364632D01*
X131826749Y-105364630D01*
X131692460Y-105349500D01*
X131692454Y-105349500D01*
X129702546Y-105349500D01*
X129702539Y-105349500D01*
X129568250Y-105364630D01*
X129568245Y-105364631D01*
X129397976Y-105424211D01*
X129245237Y-105520184D01*
X129117684Y-105647737D01*
X129021711Y-105800476D01*
X128962131Y-105970745D01*
X128962130Y-105970750D01*
X128947000Y-106105039D01*
X128947000Y-106794960D01*
X128962130Y-106929249D01*
X128962131Y-106929254D01*
X129021711Y-107099523D01*
X129095931Y-107217642D01*
X129117684Y-107252262D01*
X129245238Y-107379816D01*
X129397978Y-107475789D01*
X129514829Y-107516677D01*
X129568245Y-107535368D01*
X129568250Y-107535369D01*
X129658746Y-107545565D01*
X129702540Y-107550499D01*
X129702543Y-107550500D01*
X129702546Y-107550500D01*
X131692457Y-107550500D01*
X131692458Y-107550499D01*
X131759604Y-107542934D01*
X131826749Y-107535369D01*
X131826752Y-107535368D01*
X131826755Y-107535368D01*
X131997022Y-107475789D01*
X132149762Y-107379816D01*
X132277316Y-107252262D01*
X132339690Y-107152993D01*
X132392025Y-107106703D01*
X132461078Y-107096055D01*
X132476778Y-107099191D01*
X132478211Y-107099575D01*
X132478215Y-107099577D01*
X132630942Y-107140500D01*
X132630943Y-107140500D01*
X132630945Y-107140500D01*
X132789055Y-107140500D01*
X132789057Y-107140500D01*
X132941784Y-107099577D01*
X133078559Y-107020610D01*
X133146457Y-107004138D01*
X133212484Y-107026991D01*
X133228238Y-107040317D01*
X133299707Y-107111786D01*
X133299711Y-107111789D01*
X133430814Y-107199390D01*
X133430827Y-107199397D01*
X133576498Y-107259735D01*
X133576503Y-107259737D01*
X133623071Y-107269000D01*
X133731849Y-107290638D01*
X133793760Y-107323023D01*
X133795339Y-107324574D01*
X139175139Y-112704374D01*
X139175149Y-112704385D01*
X139179479Y-112708715D01*
X139179480Y-112708716D01*
X139291284Y-112820520D01*
X139291286Y-112820521D01*
X139291290Y-112820524D01*
X139396926Y-112881512D01*
X139428216Y-112899577D01*
X139511098Y-112921785D01*
X139580942Y-112940500D01*
X139580943Y-112940500D01*
X140917690Y-112940500D01*
X140984729Y-112960185D01*
X141005371Y-112976819D01*
X141619095Y-113590542D01*
X141637748Y-113624703D01*
X141580524Y-113601000D01*
X141479476Y-113601000D01*
X141386121Y-113639669D01*
X141314669Y-113711121D01*
X141276000Y-113804476D01*
X141276000Y-113905524D01*
X141301566Y-113967247D01*
X141265542Y-113944095D01*
X140667426Y-113345978D01*
X140667426Y-113345979D01*
X140643813Y-113381318D01*
X140643809Y-113381325D01*
X140568429Y-113563310D01*
X140568427Y-113563318D01*
X140530000Y-113756504D01*
X140530000Y-113953495D01*
X140568427Y-114146681D01*
X140568430Y-114146693D01*
X140643807Y-114328671D01*
X140643814Y-114328684D01*
X140705270Y-114420659D01*
X140726148Y-114487337D01*
X140707663Y-114554717D01*
X140705271Y-114558440D01*
X140643370Y-114651082D01*
X140643364Y-114651093D01*
X140567950Y-114833160D01*
X140567947Y-114833170D01*
X140529500Y-115026456D01*
X140529500Y-115026459D01*
X140529500Y-115223541D01*
X140529500Y-115223543D01*
X140529499Y-115223543D01*
X140567947Y-115416829D01*
X140567950Y-115416839D01*
X140643364Y-115598907D01*
X140643371Y-115598920D01*
X140752860Y-115762781D01*
X140752863Y-115762785D01*
X140892214Y-115902136D01*
X140892218Y-115902139D01*
X141056079Y-116011628D01*
X141056092Y-116011635D01*
X141238160Y-116087049D01*
X141238165Y-116087051D01*
X141238169Y-116087051D01*
X141238170Y-116087052D01*
X141431456Y-116125500D01*
X141629903Y-116125500D01*
X141659343Y-116134144D01*
X141689330Y-116140668D01*
X141694345Y-116144422D01*
X141696942Y-116145185D01*
X141717584Y-116161819D01*
X141747739Y-116191974D01*
X141747749Y-116191985D01*
X141752079Y-116196315D01*
X141752080Y-116196316D01*
X141863884Y-116308120D01*
X141863886Y-116308121D01*
X141863890Y-116308124D01*
X141959806Y-116363500D01*
X142000816Y-116387177D01*
X142112619Y-116417134D01*
X142153542Y-116428100D01*
X142153543Y-116428100D01*
X142153544Y-116428100D01*
X150686000Y-116428100D01*
X150753039Y-116447785D01*
X150798794Y-116500589D01*
X150810000Y-116552100D01*
X150810000Y-118140000D01*
X151786000Y-118140000D01*
X151853039Y-118159685D01*
X151898794Y-118212489D01*
X151910000Y-118264000D01*
X151910000Y-118816000D01*
X151890315Y-118883039D01*
X151837511Y-118928794D01*
X151786000Y-118940000D01*
X149703001Y-118940000D01*
X149657096Y-118965066D01*
X149630738Y-118967900D01*
X139913437Y-118967900D01*
X139846398Y-118948215D01*
X139825756Y-118931581D01*
X139584727Y-118690552D01*
X136727621Y-115833445D01*
X136727619Y-115833444D01*
X136690095Y-115817900D01*
X136690093Y-115817900D01*
X128613551Y-115817900D01*
X128606064Y-115817674D01*
X128323430Y-115800577D01*
X128308565Y-115798772D01*
X128033743Y-115748409D01*
X128019205Y-115744825D01*
X127752476Y-115661709D01*
X127738475Y-115656400D01*
X127483690Y-115541731D01*
X127470431Y-115534772D01*
X127231330Y-115390230D01*
X127219010Y-115381726D01*
X127178887Y-115350292D01*
X127021645Y-115227100D01*
X126999074Y-115209417D01*
X126987866Y-115199487D01*
X126790312Y-115001933D01*
X126780382Y-114990725D01*
X126733836Y-114931313D01*
X126608069Y-114770783D01*
X126599571Y-114758472D01*
X126455024Y-114519362D01*
X126448071Y-114506116D01*
X126333397Y-114251320D01*
X126328090Y-114237323D01*
X126324727Y-114226532D01*
X126244973Y-113970593D01*
X126241390Y-113956056D01*
X126204821Y-113756504D01*
X126191026Y-113681232D01*
X126189222Y-113666369D01*
X126185066Y-113597669D01*
X126172126Y-113383736D01*
X126171900Y-113376299D01*
X126171900Y-113352642D01*
X126171890Y-113352625D01*
X126171884Y-113336446D01*
X126171888Y-113336430D01*
X126171884Y-113336396D01*
X126171884Y-113323685D01*
X126835500Y-113323685D01*
X126835500Y-113556314D01*
X126854710Y-113702218D01*
X126865863Y-113786930D01*
X126887073Y-113866086D01*
X126926068Y-114011620D01*
X127015083Y-114226521D01*
X127015088Y-114226532D01*
X127131387Y-114427966D01*
X127131398Y-114427982D01*
X127272996Y-114612517D01*
X127273002Y-114612524D01*
X127437475Y-114776997D01*
X127437482Y-114777003D01*
X127529416Y-114847546D01*
X127622026Y-114918608D01*
X127622033Y-114918612D01*
X127823467Y-115034911D01*
X127823472Y-115034913D01*
X127823475Y-115034915D01*
X127916601Y-115073489D01*
X128038379Y-115123931D01*
X128038380Y-115123931D01*
X128038382Y-115123932D01*
X128263070Y-115184137D01*
X128493693Y-115214500D01*
X128493700Y-115214500D01*
X128726300Y-115214500D01*
X128726307Y-115214500D01*
X128956930Y-115184137D01*
X129181618Y-115123932D01*
X129396525Y-115034915D01*
X129597974Y-114918608D01*
X129782519Y-114777002D01*
X129947002Y-114612519D01*
X130088608Y-114427974D01*
X130204915Y-114226525D01*
X130293932Y-114011618D01*
X130354137Y-113786930D01*
X130384500Y-113556307D01*
X130384500Y-113323693D01*
X130354137Y-113093070D01*
X130293932Y-112868382D01*
X130290938Y-112861155D01*
X130232654Y-112720444D01*
X130204915Y-112653475D01*
X130204913Y-112653472D01*
X130204911Y-112653467D01*
X130088612Y-112452033D01*
X130088608Y-112452026D01*
X129947002Y-112267481D01*
X129946997Y-112267475D01*
X129782524Y-112103002D01*
X129782517Y-112102996D01*
X129597982Y-111961398D01*
X129597980Y-111961396D01*
X129597974Y-111961392D01*
X129597969Y-111961389D01*
X129597966Y-111961387D01*
X129396532Y-111845088D01*
X129396521Y-111845083D01*
X129181620Y-111756068D01*
X129046320Y-111719815D01*
X128956930Y-111695863D01*
X128905680Y-111689115D01*
X128726314Y-111665500D01*
X128726307Y-111665500D01*
X128493693Y-111665500D01*
X128493685Y-111665500D01*
X128288694Y-111692489D01*
X128263070Y-111695863D01*
X128235759Y-111703181D01*
X128038379Y-111756068D01*
X127823478Y-111845083D01*
X127823467Y-111845088D01*
X127622033Y-111961387D01*
X127622017Y-111961398D01*
X127437482Y-112102996D01*
X127437475Y-112103002D01*
X127273002Y-112267475D01*
X127272996Y-112267482D01*
X127131398Y-112452017D01*
X127131387Y-112452033D01*
X127015088Y-112653467D01*
X127015083Y-112653478D01*
X126926068Y-112868379D01*
X126865863Y-113093071D01*
X126835500Y-113323685D01*
X126171884Y-113323685D01*
X126171884Y-109763389D01*
X126797000Y-109763389D01*
X126797000Y-109936610D01*
X126812641Y-110035368D01*
X126824098Y-110107701D01*
X126877627Y-110272445D01*
X126956268Y-110426788D01*
X127058086Y-110566928D01*
X127180572Y-110689414D01*
X127320712Y-110791232D01*
X127475055Y-110869873D01*
X127639799Y-110923402D01*
X127810889Y-110950500D01*
X127810890Y-110950500D01*
X127984110Y-110950500D01*
X127984111Y-110950500D01*
X128155201Y-110923402D01*
X128319945Y-110869873D01*
X128474288Y-110791232D01*
X128614428Y-110689414D01*
X128736914Y-110566928D01*
X128838732Y-110426788D01*
X128917373Y-110272445D01*
X128970902Y-110107701D01*
X128998000Y-109936611D01*
X128998000Y-109931940D01*
X129017685Y-109864901D01*
X129070489Y-109819146D01*
X129139647Y-109809202D01*
X129203203Y-109838227D01*
X129209681Y-109844259D01*
X129245238Y-109879816D01*
X129397978Y-109975789D01*
X129545831Y-110027525D01*
X129568245Y-110035368D01*
X129568250Y-110035369D01*
X129658746Y-110045565D01*
X129702540Y-110050499D01*
X129702543Y-110050500D01*
X129702546Y-110050500D01*
X131692457Y-110050500D01*
X131692458Y-110050499D01*
X131759604Y-110042934D01*
X131826749Y-110035369D01*
X131826752Y-110035368D01*
X131826755Y-110035368D01*
X131997022Y-109975789D01*
X132149762Y-109879816D01*
X132277316Y-109752262D01*
X132373289Y-109599522D01*
X132432868Y-109429255D01*
X132448000Y-109294954D01*
X132448000Y-108605046D01*
X132440569Y-108539096D01*
X132432869Y-108470750D01*
X132432868Y-108470745D01*
X132406363Y-108394999D01*
X132373289Y-108300478D01*
X132371151Y-108297076D01*
X132308953Y-108198088D01*
X132277316Y-108147738D01*
X132149762Y-108020184D01*
X132100754Y-107989390D01*
X131997023Y-107924211D01*
X131826754Y-107864631D01*
X131826749Y-107864630D01*
X131692460Y-107849500D01*
X131692454Y-107849500D01*
X129702546Y-107849500D01*
X129702539Y-107849500D01*
X129568250Y-107864630D01*
X129568245Y-107864631D01*
X129397976Y-107924211D01*
X129245237Y-108020184D01*
X129117684Y-108147737D01*
X129021711Y-108300476D01*
X128962131Y-108470745D01*
X128962130Y-108470750D01*
X128947000Y-108605039D01*
X128947000Y-109043796D01*
X128927315Y-109110835D01*
X128874511Y-109156590D01*
X128805353Y-109166534D01*
X128741797Y-109137509D01*
X128735319Y-109131477D01*
X128614430Y-109010588D01*
X128614428Y-109010586D01*
X128474288Y-108908768D01*
X128319945Y-108830127D01*
X128155201Y-108776598D01*
X128155199Y-108776597D01*
X128155198Y-108776597D01*
X128023771Y-108755781D01*
X127984111Y-108749500D01*
X127810889Y-108749500D01*
X127771228Y-108755781D01*
X127639802Y-108776597D01*
X127475052Y-108830128D01*
X127320711Y-108908768D01*
X127261197Y-108952008D01*
X127180572Y-109010586D01*
X127180570Y-109010588D01*
X127180569Y-109010588D01*
X127058088Y-109133069D01*
X127058088Y-109133070D01*
X127058086Y-109133072D01*
X127030695Y-109170772D01*
X126956268Y-109273211D01*
X126877628Y-109427552D01*
X126824097Y-109592302D01*
X126797000Y-109763389D01*
X126171884Y-109763389D01*
X126171884Y-105049999D01*
X129951051Y-105049999D01*
X129951052Y-105050000D01*
X131443948Y-105050000D01*
X131443948Y-105049999D01*
X130697500Y-104303552D01*
X129951051Y-105049999D01*
X126171884Y-105049999D01*
X126171884Y-102963389D01*
X126797000Y-102963389D01*
X126797000Y-103136611D01*
X126824098Y-103307701D01*
X126877627Y-103472445D01*
X126956268Y-103626788D01*
X127058086Y-103766928D01*
X127180572Y-103889414D01*
X127320712Y-103991232D01*
X127475055Y-104069873D01*
X127639799Y-104123402D01*
X127810889Y-104150500D01*
X127810890Y-104150500D01*
X127984110Y-104150500D01*
X127984111Y-104150500D01*
X128155201Y-104123402D01*
X128319945Y-104069873D01*
X128474288Y-103991232D01*
X128614428Y-103889414D01*
X128735819Y-103768023D01*
X128797142Y-103734538D01*
X128866834Y-103739522D01*
X128922767Y-103781394D01*
X128947184Y-103846858D01*
X128947500Y-103855704D01*
X128947500Y-104294930D01*
X128962622Y-104429141D01*
X129022163Y-104599301D01*
X129118077Y-104751948D01*
X129245551Y-104879422D01*
X129245554Y-104879424D01*
X129349322Y-104944624D01*
X129360723Y-104933224D01*
X130343948Y-103950000D01*
X130343948Y-103949999D01*
X129360724Y-102966776D01*
X129349322Y-102955374D01*
X129245551Y-103020577D01*
X129209681Y-103056448D01*
X129148358Y-103089933D01*
X129078666Y-103084949D01*
X129022733Y-103043077D01*
X128998316Y-102977613D01*
X128998000Y-102968767D01*
X128998000Y-102963389D01*
X128992374Y-102927870D01*
X128980041Y-102850000D01*
X129951051Y-102850000D01*
X130697500Y-103596448D01*
X131443948Y-102850000D01*
X129951051Y-102850000D01*
X128980041Y-102850000D01*
X128970902Y-102792299D01*
X128917373Y-102627555D01*
X128838732Y-102473212D01*
X128736914Y-102333072D01*
X128614428Y-102210586D01*
X128474288Y-102108768D01*
X128359521Y-102050292D01*
X128319947Y-102030128D01*
X128319946Y-102030127D01*
X128319945Y-102030127D01*
X128155201Y-101976598D01*
X128155199Y-101976597D01*
X128155198Y-101976597D01*
X128023771Y-101955781D01*
X127984111Y-101949500D01*
X127810889Y-101949500D01*
X127771228Y-101955781D01*
X127639802Y-101976597D01*
X127475052Y-102030128D01*
X127320711Y-102108768D01*
X127255001Y-102156510D01*
X127180572Y-102210586D01*
X127180570Y-102210588D01*
X127180569Y-102210588D01*
X127058088Y-102333069D01*
X127058088Y-102333070D01*
X127058086Y-102333072D01*
X127016363Y-102390499D01*
X126956268Y-102473211D01*
X126877628Y-102627552D01*
X126824097Y-102792302D01*
X126810626Y-102877356D01*
X126797000Y-102963389D01*
X126171884Y-102963389D01*
X126171884Y-95533685D01*
X126835284Y-95533685D01*
X126835284Y-95766314D01*
X126856472Y-95927238D01*
X126865647Y-95996930D01*
X126865648Y-95996933D01*
X126925852Y-96221620D01*
X127014867Y-96436521D01*
X127014872Y-96436532D01*
X127131171Y-96637966D01*
X127131182Y-96637982D01*
X127272780Y-96822517D01*
X127272786Y-96822524D01*
X127437259Y-96986997D01*
X127437265Y-96987002D01*
X127621810Y-97128608D01*
X127621817Y-97128612D01*
X127823251Y-97244911D01*
X127823256Y-97244913D01*
X127823259Y-97244915D01*
X127879501Y-97268211D01*
X128038163Y-97333931D01*
X128038164Y-97333931D01*
X128038166Y-97333932D01*
X128262854Y-97394137D01*
X128493477Y-97424500D01*
X128493484Y-97424500D01*
X128726084Y-97424500D01*
X128726091Y-97424500D01*
X128956714Y-97394137D01*
X129181402Y-97333932D01*
X129396309Y-97244915D01*
X129597758Y-97128608D01*
X129782303Y-96987002D01*
X129946786Y-96822519D01*
X130088392Y-96637974D01*
X130197391Y-96449181D01*
X130204695Y-96436532D01*
X130204695Y-96436531D01*
X130204699Y-96436525D01*
X130293716Y-96221618D01*
X130353921Y-95996930D01*
X130384284Y-95766307D01*
X130384284Y-95533693D01*
X130353921Y-95303070D01*
X130293716Y-95078382D01*
X130204699Y-94863475D01*
X130204697Y-94863472D01*
X130204695Y-94863467D01*
X130088396Y-94662033D01*
X130088392Y-94662026D01*
X130017978Y-94570261D01*
X129946787Y-94477482D01*
X129946781Y-94477475D01*
X129782308Y-94313002D01*
X129782301Y-94312996D01*
X129597766Y-94171398D01*
X129597764Y-94171396D01*
X129597758Y-94171392D01*
X129597753Y-94171389D01*
X129597750Y-94171387D01*
X129396316Y-94055088D01*
X129396305Y-94055083D01*
X129181404Y-93966068D01*
X129069058Y-93935965D01*
X128956714Y-93905863D01*
X128905464Y-93899115D01*
X128726098Y-93875500D01*
X128726091Y-93875500D01*
X128493477Y-93875500D01*
X128493469Y-93875500D01*
X128288478Y-93902489D01*
X128262854Y-93905863D01*
X128206682Y-93920914D01*
X128038163Y-93966068D01*
X127823262Y-94055083D01*
X127823251Y-94055088D01*
X127621817Y-94171387D01*
X127621801Y-94171398D01*
X127437266Y-94312996D01*
X127437259Y-94313002D01*
X127272786Y-94477475D01*
X127272780Y-94477482D01*
X127131182Y-94662017D01*
X127131171Y-94662033D01*
X127014872Y-94863467D01*
X127014867Y-94863478D01*
X126925852Y-95078379D01*
X126865647Y-95303071D01*
X126835284Y-95533685D01*
X126171884Y-95533685D01*
X126171884Y-87008995D01*
X126859499Y-87008995D01*
X126886418Y-87144322D01*
X126886421Y-87144332D01*
X126939221Y-87271804D01*
X126939228Y-87271817D01*
X127015885Y-87386541D01*
X127015888Y-87386545D01*
X127113454Y-87484111D01*
X127113458Y-87484114D01*
X127228182Y-87560771D01*
X127228195Y-87560778D01*
X127355667Y-87613578D01*
X127355672Y-87613580D01*
X127355676Y-87613580D01*
X127355677Y-87613581D01*
X127491004Y-87640500D01*
X127491007Y-87640500D01*
X127628995Y-87640500D01*
X127720041Y-87622389D01*
X127764328Y-87613580D01*
X127891811Y-87560775D01*
X128006542Y-87484114D01*
X128104114Y-87386542D01*
X128180775Y-87271811D01*
X128233580Y-87144328D01*
X128249068Y-87066465D01*
X128260500Y-87008995D01*
X128260500Y-86871004D01*
X128233581Y-86735677D01*
X128233580Y-86735676D01*
X128233580Y-86735672D01*
X128223337Y-86710943D01*
X128180778Y-86608195D01*
X128180771Y-86608182D01*
X128104114Y-86493458D01*
X128104111Y-86493454D01*
X128006545Y-86395888D01*
X128006541Y-86395885D01*
X127891817Y-86319228D01*
X127891804Y-86319221D01*
X127764332Y-86266421D01*
X127764322Y-86266418D01*
X127628995Y-86239500D01*
X127628993Y-86239500D01*
X127491007Y-86239500D01*
X127491005Y-86239500D01*
X127355677Y-86266418D01*
X127355667Y-86266421D01*
X127228195Y-86319221D01*
X127228182Y-86319228D01*
X127113458Y-86395885D01*
X127113454Y-86395888D01*
X127015888Y-86493454D01*
X127015885Y-86493458D01*
X126939228Y-86608182D01*
X126939221Y-86608195D01*
X126886421Y-86735667D01*
X126886418Y-86735677D01*
X126859500Y-86871004D01*
X126859500Y-86871007D01*
X126859500Y-87008993D01*
X126859500Y-87008995D01*
X126859499Y-87008995D01*
X126171884Y-87008995D01*
X126171884Y-77958995D01*
X126859499Y-77958995D01*
X126886418Y-78094322D01*
X126886421Y-78094332D01*
X126939221Y-78221804D01*
X126939228Y-78221817D01*
X127015885Y-78336541D01*
X127015888Y-78336545D01*
X127113454Y-78434111D01*
X127113458Y-78434114D01*
X127228182Y-78510771D01*
X127228195Y-78510778D01*
X127355667Y-78563578D01*
X127355672Y-78563580D01*
X127355676Y-78563580D01*
X127355677Y-78563581D01*
X127491004Y-78590500D01*
X127491007Y-78590500D01*
X127628995Y-78590500D01*
X127720041Y-78572389D01*
X127764328Y-78563580D01*
X127891811Y-78510775D01*
X128006542Y-78434114D01*
X128104114Y-78336542D01*
X128180775Y-78221811D01*
X128233580Y-78094328D01*
X128244126Y-78041309D01*
X128260500Y-77958995D01*
X128260500Y-77821004D01*
X128233581Y-77685677D01*
X128233580Y-77685676D01*
X128233580Y-77685672D01*
X128233578Y-77685667D01*
X128180778Y-77558195D01*
X128180771Y-77558182D01*
X128104114Y-77443458D01*
X128104111Y-77443454D01*
X128006545Y-77345888D01*
X128006541Y-77345885D01*
X127891817Y-77269228D01*
X127891804Y-77269221D01*
X127764332Y-77216421D01*
X127764322Y-77216418D01*
X127628995Y-77189500D01*
X127628993Y-77189500D01*
X127491007Y-77189500D01*
X127491005Y-77189500D01*
X127355677Y-77216418D01*
X127355667Y-77216421D01*
X127228195Y-77269221D01*
X127228182Y-77269228D01*
X127113458Y-77345885D01*
X127113454Y-77345888D01*
X127015888Y-77443454D01*
X127015885Y-77443458D01*
X126939228Y-77558182D01*
X126939221Y-77558195D01*
X126886421Y-77685667D01*
X126886418Y-77685677D01*
X126859500Y-77821004D01*
X126859500Y-77821007D01*
X126859500Y-77958993D01*
X126859500Y-77958995D01*
X126859499Y-77958995D01*
X126171884Y-77958995D01*
X126171884Y-67613759D01*
X126172111Y-67606255D01*
X126189284Y-67322985D01*
X126191097Y-67308088D01*
X126194130Y-67291575D01*
X126241689Y-67032652D01*
X126245281Y-67018111D01*
X126328781Y-66750795D01*
X126334101Y-66736802D01*
X126449284Y-66481528D01*
X126456262Y-66468267D01*
X126601434Y-66228789D01*
X126609961Y-66216470D01*
X126783003Y-65996280D01*
X126792969Y-65985070D01*
X126991333Y-65787409D01*
X127002575Y-65777486D01*
X127223388Y-65605218D01*
X127235709Y-65596754D01*
X127475728Y-65452417D01*
X127488997Y-65445494D01*
X127744670Y-65331222D01*
X127758701Y-65325944D01*
X128026304Y-65243397D01*
X128040881Y-65239851D01*
X128316469Y-65190241D01*
X128331367Y-65188481D01*
X128614730Y-65172311D01*
X128621740Y-65172111D01*
X128621798Y-65172110D01*
X128645810Y-65172197D01*
X128645971Y-65172104D01*
X128662275Y-65172100D01*
X128662285Y-65172103D01*
X128662309Y-65172100D01*
X181922442Y-65172100D01*
X181946058Y-65172100D01*
X181953528Y-65172325D01*
G37*
%TD.AperFunction*%
%TA.AperFunction,Conductor*%
G36*
X172773570Y-116259185D02*
G01*
X172819325Y-116311989D01*
X172829269Y-116381147D01*
X172800244Y-116444703D01*
X172794212Y-116451181D01*
X170313812Y-118931581D01*
X170252489Y-118965066D01*
X170226131Y-118967900D01*
X160188374Y-118967900D01*
X160121335Y-118948215D01*
X160110270Y-118940097D01*
X160110000Y-118940000D01*
X158034000Y-118940000D01*
X157966961Y-118920315D01*
X157921206Y-118867511D01*
X157910000Y-118816000D01*
X157910000Y-118264000D01*
X157929685Y-118196961D01*
X157982489Y-118151206D01*
X158034000Y-118140000D01*
X159010000Y-118140000D01*
X159010000Y-116363500D01*
X159029685Y-116296461D01*
X159082489Y-116250706D01*
X159134000Y-116239500D01*
X172706531Y-116239500D01*
X172773570Y-116259185D01*
G37*
%TD.AperFunction*%
%TA.AperFunction,Conductor*%
G36*
X180573598Y-106764241D02*
G01*
X180605398Y-106772358D01*
X180606962Y-106774038D01*
X180609164Y-106774685D01*
X180630637Y-106799466D01*
X180653009Y-106823495D01*
X180653416Y-106825755D01*
X180654919Y-106827489D01*
X180659586Y-106859952D01*
X180665415Y-106892255D01*
X180664657Y-106895220D01*
X180664863Y-106896647D01*
X180656686Y-106926452D01*
X180583430Y-107103307D01*
X180583430Y-107103309D01*
X180575138Y-107145000D01*
X181378012Y-107145000D01*
X181360795Y-107154940D01*
X181304940Y-107210795D01*
X181265444Y-107279204D01*
X181245000Y-107355504D01*
X181245000Y-107434496D01*
X181265444Y-107510796D01*
X181304940Y-107579205D01*
X181360795Y-107635060D01*
X181378012Y-107645000D01*
X180575138Y-107645000D01*
X180583430Y-107686690D01*
X180583430Y-107686692D01*
X180658807Y-107868671D01*
X180658814Y-107868684D01*
X180768248Y-108032462D01*
X180768251Y-108032466D01*
X180907533Y-108171748D01*
X180907537Y-108171751D01*
X181071315Y-108281185D01*
X181071328Y-108281192D01*
X181253306Y-108356569D01*
X181253318Y-108356572D01*
X181446504Y-108394999D01*
X181446508Y-108395000D01*
X181695000Y-108395000D01*
X181695000Y-107695000D01*
X182195000Y-107695000D01*
X182195000Y-108395000D01*
X182443492Y-108395000D01*
X182443495Y-108394999D01*
X182636681Y-108356572D01*
X182636693Y-108356569D01*
X182818671Y-108281192D01*
X182818684Y-108281185D01*
X182982462Y-108171751D01*
X182982466Y-108171748D01*
X183121748Y-108032466D01*
X183121751Y-108032462D01*
X183231185Y-107868684D01*
X183231192Y-107868671D01*
X183306569Y-107686692D01*
X183306569Y-107686690D01*
X183314862Y-107645000D01*
X182511988Y-107645000D01*
X182529205Y-107635060D01*
X182585060Y-107579205D01*
X182624556Y-107510796D01*
X182645000Y-107434496D01*
X182645000Y-107355504D01*
X182624556Y-107279204D01*
X182585060Y-107210795D01*
X182529205Y-107154940D01*
X182511988Y-107145000D01*
X183314862Y-107145000D01*
X183306569Y-107103309D01*
X183306569Y-107103307D01*
X183233314Y-106926452D01*
X183225845Y-106856983D01*
X183257120Y-106794504D01*
X183317209Y-106758852D01*
X183347875Y-106755000D01*
X184263684Y-106755000D01*
X184330723Y-106774685D01*
X184376478Y-106827489D01*
X184387684Y-106879000D01*
X184387684Y-113396249D01*
X184387458Y-113403736D01*
X184370361Y-113686369D01*
X184368556Y-113701234D01*
X184318193Y-113976054D01*
X184314609Y-113990592D01*
X184231491Y-114257328D01*
X184226184Y-114271322D01*
X184111513Y-114526110D01*
X184104560Y-114539358D01*
X183960012Y-114778467D01*
X183951506Y-114790790D01*
X183779206Y-115010714D01*
X183769276Y-115021922D01*
X183571716Y-115219481D01*
X183560508Y-115229411D01*
X183340569Y-115401721D01*
X183328245Y-115410227D01*
X183089155Y-115554760D01*
X183075897Y-115561719D01*
X182821116Y-115676386D01*
X182807115Y-115681696D01*
X182540368Y-115764816D01*
X182525829Y-115768399D01*
X182251019Y-115818758D01*
X182236154Y-115820563D01*
X181953254Y-115837674D01*
X181945768Y-115837900D01*
X176760696Y-115837900D01*
X176739450Y-115831661D01*
X176717364Y-115830082D01*
X176706580Y-115822009D01*
X176693657Y-115818215D01*
X176679158Y-115801482D01*
X176661430Y-115788212D01*
X176656722Y-115775589D01*
X176647902Y-115765411D01*
X176644750Y-115743494D01*
X176637012Y-115722747D01*
X176639874Y-115709585D01*
X176637958Y-115696253D01*
X176647156Y-115676111D01*
X176651863Y-115654474D01*
X176665133Y-115636747D01*
X176666983Y-115632697D01*
X176673014Y-115626220D01*
X176689497Y-115609737D01*
X176718636Y-115580597D01*
X176744316Y-115560893D01*
X176809743Y-115523120D01*
X177485320Y-114847541D01*
X177485325Y-114847538D01*
X177495528Y-114837334D01*
X177495530Y-114837334D01*
X177607334Y-114725530D01*
X177661428Y-114631835D01*
X177686391Y-114588599D01*
X177727315Y-114435871D01*
X177727315Y-114277757D01*
X177727315Y-114270162D01*
X177727314Y-114270144D01*
X177727314Y-113323685D01*
X180185500Y-113323685D01*
X180185500Y-113556314D01*
X180204710Y-113702218D01*
X180215863Y-113786930D01*
X180237073Y-113866086D01*
X180276068Y-114011620D01*
X180365083Y-114226521D01*
X180365088Y-114226532D01*
X180481387Y-114427966D01*
X180481398Y-114427982D01*
X180622996Y-114612517D01*
X180623002Y-114612524D01*
X180787475Y-114776997D01*
X180787482Y-114777003D01*
X180879416Y-114847546D01*
X180972026Y-114918608D01*
X180972033Y-114918612D01*
X181173467Y-115034911D01*
X181173472Y-115034913D01*
X181173475Y-115034915D01*
X181266601Y-115073489D01*
X181388379Y-115123931D01*
X181388380Y-115123931D01*
X181388382Y-115123932D01*
X181613070Y-115184137D01*
X181843693Y-115214500D01*
X181843700Y-115214500D01*
X182076300Y-115214500D01*
X182076307Y-115214500D01*
X182306930Y-115184137D01*
X182531618Y-115123932D01*
X182746525Y-115034915D01*
X182947974Y-114918608D01*
X183132519Y-114777002D01*
X183297002Y-114612519D01*
X183438608Y-114427974D01*
X183554915Y-114226525D01*
X183643932Y-114011618D01*
X183704137Y-113786930D01*
X183734500Y-113556307D01*
X183734500Y-113323693D01*
X183704137Y-113093070D01*
X183643932Y-112868382D01*
X183640938Y-112861155D01*
X183582654Y-112720444D01*
X183554915Y-112653475D01*
X183554913Y-112653472D01*
X183554911Y-112653467D01*
X183438612Y-112452033D01*
X183438608Y-112452026D01*
X183297002Y-112267481D01*
X183296997Y-112267475D01*
X183132524Y-112103002D01*
X183132517Y-112102996D01*
X182947982Y-111961398D01*
X182947980Y-111961396D01*
X182947974Y-111961392D01*
X182947969Y-111961389D01*
X182947966Y-111961387D01*
X182746532Y-111845088D01*
X182746521Y-111845083D01*
X182531620Y-111756068D01*
X182396320Y-111719815D01*
X182306930Y-111695863D01*
X182255680Y-111689115D01*
X182076314Y-111665500D01*
X182076307Y-111665500D01*
X181843693Y-111665500D01*
X181843685Y-111665500D01*
X181638694Y-111692489D01*
X181613070Y-111695863D01*
X181585759Y-111703181D01*
X181388379Y-111756068D01*
X181173478Y-111845083D01*
X181173467Y-111845088D01*
X180972033Y-111961387D01*
X180972017Y-111961398D01*
X180787482Y-112102996D01*
X180787475Y-112103002D01*
X180623002Y-112267475D01*
X180622996Y-112267482D01*
X180481398Y-112452017D01*
X180481387Y-112452033D01*
X180365088Y-112653467D01*
X180365083Y-112653478D01*
X180276068Y-112868379D01*
X180215863Y-113093071D01*
X180185500Y-113323685D01*
X177727314Y-113323685D01*
X177727314Y-112545874D01*
X177727315Y-112545861D01*
X177727315Y-112377758D01*
X177726195Y-112373578D01*
X177686391Y-112225030D01*
X177680775Y-112215302D01*
X177607338Y-112088104D01*
X177607332Y-112088096D01*
X176844219Y-111324983D01*
X176810734Y-111263660D01*
X176807900Y-111237302D01*
X176807900Y-108484708D01*
X176827585Y-108417669D01*
X176880389Y-108371914D01*
X176949547Y-108361970D01*
X176956091Y-108363091D01*
X177116505Y-108394999D01*
X177116508Y-108395000D01*
X177515000Y-108395000D01*
X177515000Y-107695000D01*
X178015000Y-107695000D01*
X178015000Y-108395000D01*
X178413492Y-108395000D01*
X178413495Y-108394999D01*
X178606681Y-108356572D01*
X178606693Y-108356569D01*
X178788671Y-108281192D01*
X178788684Y-108281185D01*
X178952462Y-108171751D01*
X178952466Y-108171748D01*
X179091748Y-108032466D01*
X179091751Y-108032462D01*
X179201185Y-107868684D01*
X179201192Y-107868671D01*
X179276569Y-107686692D01*
X179276569Y-107686690D01*
X179284862Y-107645000D01*
X178481988Y-107645000D01*
X178499205Y-107635060D01*
X178555060Y-107579205D01*
X178594556Y-107510796D01*
X178615000Y-107434496D01*
X178615000Y-107355504D01*
X178594556Y-107279204D01*
X178555060Y-107210795D01*
X178499205Y-107154940D01*
X178481988Y-107145000D01*
X179284862Y-107145000D01*
X179276569Y-107103309D01*
X179276569Y-107103307D01*
X179203314Y-106926452D01*
X179195845Y-106856983D01*
X179227120Y-106794504D01*
X179287209Y-106758852D01*
X179317875Y-106755000D01*
X180542125Y-106755000D01*
X180573598Y-106764241D01*
G37*
%TD.AperFunction*%
%TA.AperFunction,Conductor*%
G36*
X148649205Y-104090615D02*
G01*
X148650009Y-104090511D01*
X148665475Y-104090720D01*
X148674359Y-104093101D01*
X148832473Y-104093101D01*
X148832477Y-104093100D01*
X149083115Y-104093100D01*
X149083131Y-104093101D01*
X149090727Y-104093101D01*
X149248839Y-104093101D01*
X149248841Y-104093101D01*
X149248842Y-104093100D01*
X149256897Y-104092040D01*
X149257003Y-104092852D01*
X149274872Y-104090500D01*
X149511726Y-104090500D01*
X149578765Y-104110185D01*
X149624520Y-104162989D01*
X149633342Y-104190305D01*
X149640263Y-104225097D01*
X149640263Y-104225098D01*
X149700602Y-104370772D01*
X149700609Y-104370785D01*
X149788210Y-104501888D01*
X149788213Y-104501892D01*
X149899707Y-104613386D01*
X149899711Y-104613389D01*
X150030814Y-104700990D01*
X150030827Y-104700997D01*
X150176498Y-104761335D01*
X150176503Y-104761337D01*
X150241147Y-104774195D01*
X150331849Y-104792238D01*
X150393760Y-104824623D01*
X150395339Y-104826174D01*
X152223181Y-106654016D01*
X152256666Y-106715339D01*
X152259500Y-106741697D01*
X152259500Y-112214114D01*
X152259499Y-112214132D01*
X152259499Y-112379838D01*
X152259498Y-112379838D01*
X152300422Y-112532567D01*
X152315953Y-112559467D01*
X152324186Y-112576658D01*
X152326607Y-112582907D01*
X152350423Y-112671785D01*
X152377972Y-112719500D01*
X152382750Y-112727776D01*
X152382751Y-112727778D01*
X152429479Y-112808714D01*
X152429481Y-112808717D01*
X152548349Y-112927585D01*
X152548355Y-112927590D01*
X152675139Y-113054374D01*
X152675149Y-113054385D01*
X152679479Y-113058715D01*
X152679480Y-113058716D01*
X152791284Y-113170520D01*
X152791286Y-113170521D01*
X152791290Y-113170524D01*
X152872168Y-113217218D01*
X152928216Y-113249577D01*
X153033919Y-113277900D01*
X153033918Y-113277900D01*
X153046518Y-113281275D01*
X153080942Y-113290500D01*
X153080943Y-113290500D01*
X153565164Y-113290500D01*
X153571959Y-113292495D01*
X153578934Y-113291267D01*
X153605045Y-113302210D01*
X153632203Y-113310185D01*
X153638400Y-113316190D01*
X153643373Y-113318274D01*
X153664538Y-113341515D01*
X153667315Y-113344206D01*
X153667781Y-113344883D01*
X153738211Y-113450289D01*
X153744957Y-113457035D01*
X153751396Y-113466392D01*
X153757232Y-113484176D01*
X153769019Y-113504591D01*
X153799726Y-113619185D01*
X153800423Y-113621785D01*
X153808003Y-113634913D01*
X153808005Y-113634922D01*
X153808008Y-113634921D01*
X153878177Y-113756459D01*
X153879479Y-113758714D01*
X153879481Y-113758717D01*
X153998349Y-113877585D01*
X153998355Y-113877590D01*
X155649084Y-115528319D01*
X155682569Y-115589642D01*
X155677585Y-115659334D01*
X155635713Y-115715267D01*
X155570249Y-115739684D01*
X155561403Y-115740000D01*
X153962691Y-115740000D01*
X153895652Y-115720315D01*
X153849897Y-115667511D01*
X153839953Y-115598353D01*
X153868978Y-115534797D01*
X153893800Y-115512898D01*
X153930813Y-115488165D01*
X153970289Y-115461789D01*
X154081789Y-115350289D01*
X154169394Y-115219179D01*
X154175353Y-115204794D01*
X154229737Y-115073497D01*
X154229737Y-115073496D01*
X154260500Y-114918842D01*
X154260500Y-114761158D01*
X154260500Y-114761155D01*
X154260499Y-114761153D01*
X154241373Y-114665000D01*
X154229737Y-114606503D01*
X154227070Y-114600064D01*
X154169397Y-114460827D01*
X154169390Y-114460814D01*
X154081789Y-114329711D01*
X154081786Y-114329707D01*
X153970292Y-114218213D01*
X153970288Y-114218210D01*
X153839185Y-114130609D01*
X153839172Y-114130602D01*
X153693501Y-114070264D01*
X153693489Y-114070261D01*
X153538845Y-114039500D01*
X153538842Y-114039500D01*
X153381158Y-114039500D01*
X153381155Y-114039500D01*
X153226510Y-114070261D01*
X153226498Y-114070264D01*
X153080827Y-114130602D01*
X153080814Y-114130609D01*
X152949711Y-114218210D01*
X152949707Y-114218213D01*
X152838217Y-114329704D01*
X152838214Y-114329706D01*
X152778860Y-114418534D01*
X152763440Y-114437322D01*
X152198584Y-115002181D01*
X152137261Y-115035666D01*
X152110903Y-115038500D01*
X150854834Y-115038500D01*
X150854818Y-115038499D01*
X150847222Y-115038499D01*
X150689107Y-115038499D01*
X150558496Y-115073497D01*
X150558495Y-115073496D01*
X150536382Y-115079422D01*
X150536373Y-115079426D01*
X150399454Y-115158475D01*
X150399446Y-115158481D01*
X150367147Y-115190781D01*
X150305824Y-115224266D01*
X150279466Y-115227100D01*
X147734500Y-115227100D01*
X147667461Y-115207415D01*
X147621706Y-115154611D01*
X147610500Y-115103100D01*
X147610500Y-115026456D01*
X147572052Y-114833170D01*
X147572051Y-114833169D01*
X147572051Y-114833165D01*
X147572049Y-114833160D01*
X147496635Y-114651092D01*
X147496633Y-114651088D01*
X147496632Y-114651086D01*
X147483769Y-114631835D01*
X147435029Y-114558891D01*
X147414151Y-114492214D01*
X147432635Y-114424834D01*
X147435029Y-114421109D01*
X147460635Y-114382787D01*
X147496632Y-114328914D01*
X147572051Y-114146835D01*
X147574261Y-114135720D01*
X147606646Y-114073811D01*
X147667361Y-114039236D01*
X147720071Y-114038295D01*
X147731156Y-114040500D01*
X147731158Y-114040500D01*
X147888844Y-114040500D01*
X147888845Y-114040499D01*
X148043497Y-114009737D01*
X148156166Y-113963067D01*
X148189172Y-113949397D01*
X148189172Y-113949396D01*
X148189179Y-113949394D01*
X148320289Y-113861789D01*
X148431789Y-113750289D01*
X148519394Y-113619179D01*
X148579737Y-113473497D01*
X148579737Y-113473496D01*
X148582068Y-113467869D01*
X148584052Y-113468691D01*
X148617011Y-113418373D01*
X148680816Y-113389901D01*
X148744849Y-113398226D01*
X148762592Y-113405575D01*
X148776503Y-113411337D01*
X148931153Y-113442099D01*
X148931156Y-113442100D01*
X148931158Y-113442100D01*
X149088844Y-113442100D01*
X149088845Y-113442099D01*
X149243497Y-113411337D01*
X149374776Y-113356960D01*
X149389172Y-113350997D01*
X149389172Y-113350996D01*
X149389179Y-113350994D01*
X149520289Y-113263389D01*
X149631789Y-113151889D01*
X149719394Y-113020779D01*
X149720196Y-113018844D01*
X149750935Y-112944631D01*
X149779737Y-112875097D01*
X149810500Y-112720442D01*
X149810500Y-112562758D01*
X149810500Y-112562755D01*
X149810499Y-112562753D01*
X149807239Y-112546363D01*
X149779737Y-112408103D01*
X149768031Y-112379841D01*
X149719397Y-112262427D01*
X149719390Y-112262414D01*
X149631789Y-112131311D01*
X149631786Y-112131307D01*
X149520292Y-112019813D01*
X149520288Y-112019810D01*
X149389185Y-111932209D01*
X149389172Y-111932202D01*
X149243501Y-111871864D01*
X149243489Y-111871861D01*
X149088845Y-111841100D01*
X149088842Y-111841100D01*
X148931158Y-111841100D01*
X148931155Y-111841100D01*
X148776510Y-111871861D01*
X148776498Y-111871864D01*
X148630827Y-111932202D01*
X148630814Y-111932209D01*
X148499711Y-112019810D01*
X148499707Y-112019813D01*
X148388213Y-112131307D01*
X148388210Y-112131311D01*
X148300609Y-112262414D01*
X148300602Y-112262427D01*
X148237932Y-112413730D01*
X148235954Y-112412911D01*
X148202954Y-112463255D01*
X148139139Y-112491704D01*
X148075152Y-112483374D01*
X148043500Y-112470264D01*
X148043498Y-112470263D01*
X148043497Y-112470263D01*
X148043494Y-112470262D01*
X148043489Y-112470261D01*
X147888845Y-112439500D01*
X147888842Y-112439500D01*
X147731158Y-112439500D01*
X147731155Y-112439500D01*
X147576510Y-112470261D01*
X147576498Y-112470264D01*
X147430827Y-112530602D01*
X147430814Y-112530609D01*
X147299711Y-112618210D01*
X147299707Y-112618213D01*
X147188213Y-112729707D01*
X147188210Y-112729711D01*
X147097240Y-112865856D01*
X147078506Y-112881512D01*
X147062812Y-112900211D01*
X147052175Y-112903517D01*
X147043627Y-112910661D01*
X147019405Y-112913703D01*
X146996091Y-112920950D01*
X146982438Y-112918346D01*
X146974302Y-112919368D01*
X146961082Y-112916478D01*
X146953732Y-112914445D01*
X146901835Y-112892949D01*
X146809895Y-112874660D01*
X146805496Y-112873444D01*
X146779529Y-112857328D01*
X146752449Y-112843163D01*
X146750122Y-112839078D01*
X146746130Y-112836600D01*
X146732999Y-112809008D01*
X146717875Y-112782447D01*
X146718126Y-112777753D01*
X146716107Y-112773509D01*
X146719979Y-112743189D01*
X146721616Y-112712677D01*
X146723979Y-112706510D01*
X146779737Y-112571897D01*
X146810500Y-112417242D01*
X146810500Y-112259558D01*
X146810500Y-112259555D01*
X146810499Y-112259553D01*
X146803632Y-112225030D01*
X146779737Y-112104903D01*
X146741236Y-112011952D01*
X146733767Y-111942483D01*
X146765042Y-111880004D01*
X146825131Y-111844352D01*
X146855797Y-111840500D01*
X146988844Y-111840500D01*
X146988845Y-111840499D01*
X147143497Y-111809737D01*
X147256166Y-111763067D01*
X147289172Y-111749397D01*
X147289172Y-111749396D01*
X147289179Y-111749394D01*
X147420289Y-111661789D01*
X147531789Y-111550289D01*
X147619394Y-111419179D01*
X147679737Y-111273497D01*
X147710500Y-111118842D01*
X147710500Y-110961158D01*
X147710500Y-110961155D01*
X147710499Y-110961153D01*
X147701833Y-110917585D01*
X147679737Y-110806503D01*
X147673411Y-110791231D01*
X147619397Y-110660827D01*
X147616521Y-110655446D01*
X147617984Y-110654663D01*
X147599493Y-110595602D01*
X147617979Y-110528222D01*
X147669959Y-110481533D01*
X147738929Y-110470358D01*
X147792364Y-110490289D01*
X147880814Y-110549390D01*
X147880827Y-110549397D01*
X148026498Y-110609735D01*
X148026503Y-110609737D01*
X148181153Y-110640499D01*
X148181156Y-110640500D01*
X148181158Y-110640500D01*
X148212362Y-110640500D01*
X148279401Y-110660185D01*
X148325156Y-110712989D01*
X148333979Y-110740308D01*
X148340261Y-110771891D01*
X148340264Y-110771901D01*
X148400602Y-110917572D01*
X148400609Y-110917585D01*
X148488210Y-111048688D01*
X148488213Y-111048692D01*
X148599707Y-111160186D01*
X148599711Y-111160189D01*
X148730814Y-111247790D01*
X148730827Y-111247797D01*
X148876498Y-111308135D01*
X148876503Y-111308137D01*
X149031153Y-111338899D01*
X149031156Y-111338900D01*
X149031158Y-111338900D01*
X149188844Y-111338900D01*
X149188845Y-111338899D01*
X149343497Y-111308137D01*
X149489179Y-111247794D01*
X149620289Y-111160189D01*
X149731789Y-111048689D01*
X149819394Y-110917579D01*
X149879737Y-110771897D01*
X149910500Y-110617242D01*
X149910500Y-110459558D01*
X149910500Y-110459555D01*
X149910499Y-110459553D01*
X149879738Y-110304910D01*
X149879737Y-110304903D01*
X149879735Y-110304898D01*
X149819397Y-110159227D01*
X149819390Y-110159214D01*
X149731398Y-110027525D01*
X149710520Y-109960847D01*
X149710500Y-109958634D01*
X149710500Y-109379059D01*
X149710501Y-109379046D01*
X149710501Y-109210945D01*
X149710501Y-109210943D01*
X149669577Y-109058215D01*
X149623671Y-108978704D01*
X149590520Y-108921284D01*
X149478716Y-108809480D01*
X149474385Y-108805149D01*
X149474374Y-108805139D01*
X149101764Y-108432529D01*
X149093121Y-108423886D01*
X149093120Y-108423884D01*
X148981316Y-108312080D01*
X148957748Y-108298473D01*
X148947447Y-108288884D01*
X148946759Y-108287725D01*
X148944253Y-108285802D01*
X148944220Y-108285769D01*
X148928346Y-108256699D01*
X148911789Y-108228799D01*
X148911870Y-108226524D01*
X148910735Y-108224446D01*
X148907901Y-108198088D01*
X148907901Y-108159945D01*
X148907901Y-108159943D01*
X148866977Y-108007215D01*
X148820292Y-107926355D01*
X148787920Y-107870284D01*
X148676116Y-107758480D01*
X148676115Y-107758479D01*
X148671785Y-107754149D01*
X148671774Y-107754139D01*
X146274477Y-105356842D01*
X146240992Y-105295519D01*
X146245976Y-105225827D01*
X146259053Y-105200275D01*
X146278763Y-105170779D01*
X146339106Y-105025097D01*
X146369869Y-104870442D01*
X146369869Y-104758980D01*
X146376103Y-104737747D01*
X146377678Y-104715670D01*
X146385756Y-104704873D01*
X146389554Y-104691941D01*
X146406276Y-104677451D01*
X146419538Y-104659728D01*
X146435910Y-104651772D01*
X146442358Y-104646186D01*
X146450511Y-104642807D01*
X146456041Y-104640742D01*
X146599969Y-104602177D01*
X146665227Y-104564500D01*
X146736900Y-104523120D01*
X146848704Y-104411316D01*
X146848704Y-104411314D01*
X146858907Y-104401112D01*
X146858911Y-104401106D01*
X147021106Y-104238912D01*
X147021111Y-104238908D01*
X147031314Y-104228704D01*
X147031316Y-104228704D01*
X147133201Y-104126819D01*
X147194524Y-104093334D01*
X147220882Y-104090500D01*
X148648328Y-104090500D01*
X148649205Y-104090615D01*
G37*
%TD.AperFunction*%
%TA.AperFunction,Conductor*%
G36*
X144794729Y-112960185D02*
G01*
X144815371Y-112976819D01*
X145429095Y-113590542D01*
X145447748Y-113624703D01*
X145390524Y-113601000D01*
X145289476Y-113601000D01*
X145196121Y-113639669D01*
X145124669Y-113711121D01*
X145086000Y-113804476D01*
X145086000Y-113905524D01*
X145124669Y-113998879D01*
X145196121Y-114070331D01*
X145289476Y-114109000D01*
X145359694Y-114109000D01*
X145318984Y-114124184D01*
X145310138Y-114124500D01*
X145241457Y-114124500D01*
X145048170Y-114162947D01*
X145048164Y-114162949D01*
X144993039Y-114185782D01*
X144923569Y-114193249D01*
X144861091Y-114161973D01*
X144825439Y-114101884D01*
X144827934Y-114032059D01*
X144857907Y-113983538D01*
X144986446Y-113854999D01*
X144705001Y-113573553D01*
X144705000Y-113573553D01*
X144423553Y-113854999D01*
X144552092Y-113983538D01*
X144585577Y-114044862D01*
X144580593Y-114114553D01*
X144538722Y-114170487D01*
X144473257Y-114194904D01*
X144416960Y-114185782D01*
X144380033Y-114170487D01*
X144361835Y-114162949D01*
X144361833Y-114162948D01*
X144361829Y-114162947D01*
X144168543Y-114124500D01*
X144168541Y-114124500D01*
X144099862Y-114124500D01*
X144047075Y-114109000D01*
X144120524Y-114109000D01*
X144213879Y-114070331D01*
X144285331Y-113998879D01*
X144324000Y-113905524D01*
X144324000Y-113804476D01*
X144285331Y-113711121D01*
X144213879Y-113639669D01*
X144120524Y-113601000D01*
X144019476Y-113601000D01*
X143957751Y-113626567D01*
X143980904Y-113590542D01*
X144594627Y-112976819D01*
X144621554Y-112962115D01*
X144647373Y-112945523D01*
X144653573Y-112944631D01*
X144655950Y-112943334D01*
X144682308Y-112940500D01*
X144727690Y-112940500D01*
X144794729Y-112960185D01*
G37*
%TD.AperFunction*%
%TA.AperFunction,Conductor*%
G36*
X175526234Y-108475515D02*
G01*
X175582167Y-108517387D01*
X175606584Y-108582851D01*
X175606900Y-108591697D01*
X175606900Y-111450730D01*
X175606899Y-111450748D01*
X175606899Y-111616454D01*
X175606898Y-111616454D01*
X175606899Y-111616457D01*
X175647823Y-111769185D01*
X175671236Y-111809737D01*
X175676758Y-111819300D01*
X175676759Y-111819304D01*
X175676760Y-111819304D01*
X175726879Y-111906114D01*
X175726881Y-111906117D01*
X175845749Y-112024985D01*
X175845755Y-112024990D01*
X176489995Y-112669230D01*
X176523480Y-112730553D01*
X176526314Y-112756911D01*
X176526314Y-113244166D01*
X176506629Y-113311205D01*
X176453825Y-113356960D01*
X176408032Y-113363544D01*
X176400000Y-113370136D01*
X176400000Y-114130382D01*
X176349554Y-114079936D01*
X176275445Y-114037149D01*
X176192787Y-114015000D01*
X176107213Y-114015000D01*
X176024555Y-114037149D01*
X175950446Y-114079936D01*
X175900000Y-114130382D01*
X175900000Y-113370136D01*
X175899999Y-113370135D01*
X175858316Y-113378427D01*
X175858308Y-113378429D01*
X175676325Y-113453809D01*
X175584339Y-113515271D01*
X175517661Y-113536148D01*
X175450281Y-113517663D01*
X175446559Y-113515271D01*
X175384027Y-113473489D01*
X175353914Y-113453368D01*
X175353911Y-113453366D01*
X175353910Y-113453366D01*
X175171839Y-113377950D01*
X175171829Y-113377947D01*
X174978543Y-113339500D01*
X174978541Y-113339500D01*
X174781459Y-113339500D01*
X174781457Y-113339500D01*
X174588170Y-113377947D01*
X174588160Y-113377950D01*
X174406087Y-113453366D01*
X174403384Y-113455173D01*
X174401753Y-113455683D01*
X174400716Y-113456238D01*
X174400610Y-113456041D01*
X174336705Y-113476046D01*
X174269326Y-113457557D01*
X174222640Y-113405575D01*
X174210500Y-113352066D01*
X174210500Y-109740097D01*
X174230185Y-109673058D01*
X174246819Y-109652416D01*
X175395219Y-108504016D01*
X175456542Y-108470531D01*
X175526234Y-108475515D01*
G37*
%TD.AperFunction*%
%TA.AperFunction,Conductor*%
G36*
X174215498Y-104160185D02*
G01*
X174251561Y-104195609D01*
X174338210Y-104325288D01*
X174338213Y-104325292D01*
X174449707Y-104436786D01*
X174449711Y-104436789D01*
X174580814Y-104524390D01*
X174580827Y-104524397D01*
X174677646Y-104564500D01*
X174726503Y-104584737D01*
X174881153Y-104615499D01*
X174881156Y-104615500D01*
X174881158Y-104615500D01*
X175038844Y-104615500D01*
X175038845Y-104615499D01*
X175193497Y-104584737D01*
X175306166Y-104538067D01*
X175339172Y-104524397D01*
X175339172Y-104524396D01*
X175339179Y-104524394D01*
X175470289Y-104436789D01*
X175522528Y-104384550D01*
X175575419Y-104331660D01*
X175636742Y-104298175D01*
X175706434Y-104303159D01*
X175762367Y-104345031D01*
X175786784Y-104410495D01*
X175787100Y-104419341D01*
X175787100Y-104752332D01*
X175767415Y-104819371D01*
X175714611Y-104865126D01*
X175706479Y-104868201D01*
X175555827Y-104930602D01*
X175555814Y-104930609D01*
X175424711Y-105018210D01*
X175424707Y-105018213D01*
X175313213Y-105129707D01*
X175313210Y-105129711D01*
X175225609Y-105260814D01*
X175225602Y-105260827D01*
X175165264Y-105406498D01*
X175165261Y-105406510D01*
X175134500Y-105561153D01*
X175134500Y-105718846D01*
X175165261Y-105873489D01*
X175165264Y-105873501D01*
X175225602Y-106019172D01*
X175225609Y-106019185D01*
X175313210Y-106150288D01*
X175313213Y-106150292D01*
X175424707Y-106261786D01*
X175424711Y-106261789D01*
X175555814Y-106349390D01*
X175555826Y-106349397D01*
X175593352Y-106364940D01*
X175647756Y-106408780D01*
X175669821Y-106475074D01*
X175652542Y-106542774D01*
X175633581Y-106567182D01*
X173241286Y-108959478D01*
X173129481Y-109071282D01*
X173129479Y-109071284D01*
X173110014Y-109105000D01*
X173095231Y-109130606D01*
X173050423Y-109208215D01*
X173009499Y-109360943D01*
X173009499Y-109360945D01*
X173009499Y-109529046D01*
X173009500Y-109529059D01*
X173009500Y-113352066D01*
X172989815Y-113419105D01*
X172937011Y-113464860D01*
X172867853Y-113474804D01*
X172819302Y-113456202D01*
X172819284Y-113456238D01*
X172819001Y-113456086D01*
X172816616Y-113455173D01*
X172813911Y-113453366D01*
X172813912Y-113453366D01*
X172631839Y-113377950D01*
X172631829Y-113377947D01*
X172438543Y-113339500D01*
X172438541Y-113339500D01*
X172241459Y-113339500D01*
X172241457Y-113339500D01*
X172048165Y-113377948D01*
X172044587Y-113379034D01*
X172042620Y-113379051D01*
X172042191Y-113379137D01*
X172042174Y-113379055D01*
X171974720Y-113379655D01*
X171920915Y-113348053D01*
X168749617Y-110176755D01*
X168749615Y-110176752D01*
X168630744Y-110057881D01*
X168630736Y-110057875D01*
X168537540Y-110004069D01*
X168537538Y-110004068D01*
X168493817Y-109978825D01*
X168493816Y-109978824D01*
X168481290Y-109975467D01*
X168341084Y-109937899D01*
X168182970Y-109937899D01*
X168175374Y-109937899D01*
X168175358Y-109937900D01*
X161685087Y-109937900D01*
X161653617Y-109928659D01*
X161621815Y-109920543D01*
X161620249Y-109918861D01*
X161618048Y-109918215D01*
X161596573Y-109893432D01*
X161574204Y-109869406D01*
X161573796Y-109867145D01*
X161572293Y-109865411D01*
X161567624Y-109832942D01*
X161561797Y-109800647D01*
X161562554Y-109797680D01*
X161562349Y-109796253D01*
X161570525Y-109766449D01*
X161581608Y-109739691D01*
X161614112Y-109661217D01*
X161657950Y-109606817D01*
X161681210Y-109594115D01*
X161789179Y-109549394D01*
X161920289Y-109461789D01*
X162031789Y-109350289D01*
X162119394Y-109219179D01*
X162122806Y-109210943D01*
X162145319Y-109156590D01*
X162179737Y-109073497D01*
X162210500Y-108918842D01*
X162210500Y-108890097D01*
X162230185Y-108823058D01*
X162246819Y-108802416D01*
X162529022Y-108520213D01*
X162727930Y-108321305D01*
X162848421Y-108200814D01*
X165730804Y-108200814D01*
X165730804Y-108358507D01*
X165761565Y-108513150D01*
X165761568Y-108513162D01*
X165821906Y-108658833D01*
X165821913Y-108658846D01*
X165909514Y-108789949D01*
X165909517Y-108789953D01*
X166021011Y-108901447D01*
X166021015Y-108901450D01*
X166152118Y-108989051D01*
X166152131Y-108989058D01*
X166239148Y-109025101D01*
X166297807Y-109049398D01*
X166438823Y-109077448D01*
X166452457Y-109080160D01*
X166452460Y-109080161D01*
X166452462Y-109080161D01*
X166610148Y-109080161D01*
X166610149Y-109080160D01*
X166764801Y-109049398D01*
X166910483Y-108989055D01*
X167041593Y-108901450D01*
X167153093Y-108789950D01*
X167240698Y-108658840D01*
X167301041Y-108513158D01*
X167331804Y-108358503D01*
X167331804Y-108200819D01*
X167331804Y-108200816D01*
X167331803Y-108200814D01*
X167326021Y-108171748D01*
X167301041Y-108046164D01*
X167295367Y-108032466D01*
X167240701Y-107900488D01*
X167240694Y-107900475D01*
X167153093Y-107769372D01*
X167153090Y-107769368D01*
X167041596Y-107657874D01*
X167041592Y-107657871D01*
X166910489Y-107570270D01*
X166910476Y-107570263D01*
X166764805Y-107509925D01*
X166764793Y-107509922D01*
X166610149Y-107479161D01*
X166610146Y-107479161D01*
X166452462Y-107479161D01*
X166452459Y-107479161D01*
X166297814Y-107509922D01*
X166297802Y-107509925D01*
X166152131Y-107570263D01*
X166152118Y-107570270D01*
X166021015Y-107657871D01*
X166021011Y-107657874D01*
X165909517Y-107769368D01*
X165909514Y-107769372D01*
X165821913Y-107900475D01*
X165821906Y-107900488D01*
X165761568Y-108046159D01*
X165761565Y-108046171D01*
X165730804Y-108200814D01*
X162848421Y-108200814D01*
X163923238Y-107125995D01*
X163984559Y-107092512D01*
X164054250Y-107097496D01*
X164098597Y-107125996D01*
X164101592Y-107128991D01*
X164234314Y-107217662D01*
X164381787Y-107278730D01*
X164538342Y-107309847D01*
X164618151Y-107309834D01*
X164725801Y-107309834D01*
X164725805Y-107309835D01*
X164747318Y-107309834D01*
X164747452Y-107309873D01*
X164798719Y-107309871D01*
X164798719Y-107309872D01*
X164878521Y-107309869D01*
X165035057Y-107278726D01*
X165035059Y-107278725D01*
X165035060Y-107278725D01*
X165182503Y-107217642D01*
X165182504Y-107217641D01*
X165182507Y-107217640D01*
X165315206Y-107128959D01*
X165428053Y-107016092D01*
X165475129Y-106945620D01*
X165528736Y-106900810D01*
X165578239Y-106890500D01*
X169835500Y-106890500D01*
X169902539Y-106910185D01*
X169948294Y-106962989D01*
X169959500Y-107014500D01*
X169959500Y-107447870D01*
X169959501Y-107447876D01*
X169965908Y-107507483D01*
X170016202Y-107642328D01*
X170016206Y-107642335D01*
X170102452Y-107757544D01*
X170102455Y-107757547D01*
X170217664Y-107843793D01*
X170217671Y-107843797D01*
X170352517Y-107894091D01*
X170352516Y-107894091D01*
X170359444Y-107894835D01*
X170412127Y-107900500D01*
X171507872Y-107900499D01*
X171567483Y-107894091D01*
X171702331Y-107843796D01*
X171817546Y-107757546D01*
X171903796Y-107642331D01*
X171954091Y-107507483D01*
X171960500Y-107447873D01*
X171960499Y-106352128D01*
X171954091Y-106292517D01*
X171942630Y-106261789D01*
X171903797Y-106157671D01*
X171903793Y-106157664D01*
X171817547Y-106042455D01*
X171817544Y-106042452D01*
X171725788Y-105973763D01*
X171683917Y-105917829D01*
X171678933Y-105848138D01*
X171712418Y-105786816D01*
X172031023Y-105468212D01*
X173322417Y-104176819D01*
X173383740Y-104143334D01*
X173410098Y-104140500D01*
X174148459Y-104140500D01*
X174215498Y-104160185D01*
G37*
%TD.AperFunction*%
%TA.AperFunction,Conductor*%
G36*
X144200758Y-104110185D02*
G01*
X144246513Y-104162989D01*
X144256457Y-104232147D01*
X144236821Y-104283391D01*
X144150609Y-104412414D01*
X144150602Y-104412427D01*
X144090264Y-104558098D01*
X144090261Y-104558110D01*
X144059500Y-104712753D01*
X144059500Y-104870446D01*
X144090261Y-105025089D01*
X144090264Y-105025101D01*
X144150602Y-105170772D01*
X144150609Y-105170785D01*
X144238210Y-105301888D01*
X144238213Y-105301892D01*
X144349707Y-105413386D01*
X144349711Y-105413389D01*
X144480814Y-105500990D01*
X144480827Y-105500997D01*
X144615658Y-105556845D01*
X144626503Y-105561337D01*
X144691147Y-105574195D01*
X144781849Y-105592238D01*
X144843760Y-105624623D01*
X144845339Y-105626174D01*
X147670580Y-108451415D01*
X147704065Y-108512738D01*
X147706899Y-108539096D01*
X147706899Y-108577238D01*
X147706898Y-108577238D01*
X147714349Y-108605046D01*
X147747823Y-108729969D01*
X147774745Y-108776598D01*
X147826880Y-108866900D01*
X147905503Y-108945523D01*
X147910472Y-108952008D01*
X147920225Y-108977288D01*
X147933210Y-109001068D01*
X147932614Y-109009400D01*
X147935621Y-109017194D01*
X147930159Y-109043730D01*
X147928226Y-109070760D01*
X147923218Y-109077448D01*
X147921535Y-109085629D01*
X147902593Y-109105000D01*
X147886354Y-109126693D01*
X147880935Y-109130528D01*
X147749125Y-109218602D01*
X147682448Y-109239480D01*
X147680234Y-109239500D01*
X146996670Y-109239500D01*
X146996654Y-109239499D01*
X146989058Y-109239499D01*
X146830943Y-109239499D01*
X146754579Y-109259961D01*
X146678214Y-109280423D01*
X146678209Y-109280426D01*
X146541290Y-109359475D01*
X146541282Y-109359481D01*
X144797584Y-111103181D01*
X144736261Y-111136666D01*
X144709903Y-111139500D01*
X142892940Y-111139500D01*
X142825901Y-111119815D01*
X142805258Y-111103180D01*
X142770292Y-111068213D01*
X142770288Y-111068210D01*
X142639185Y-110980609D01*
X142639172Y-110980602D01*
X142493501Y-110920264D01*
X142493489Y-110920261D01*
X142338845Y-110889500D01*
X142338842Y-110889500D01*
X142181158Y-110889500D01*
X142181155Y-110889500D01*
X142026510Y-110920261D01*
X142026498Y-110920264D01*
X141880827Y-110980602D01*
X141880814Y-110980609D01*
X141749711Y-111068210D01*
X141749707Y-111068213D01*
X141638213Y-111179707D01*
X141638210Y-111179711D01*
X141550609Y-111310814D01*
X141550602Y-111310827D01*
X141490264Y-111456498D01*
X141490261Y-111456510D01*
X141459500Y-111611153D01*
X141459500Y-111615500D01*
X141439815Y-111682539D01*
X141387011Y-111728294D01*
X141335500Y-111739500D01*
X139960097Y-111739500D01*
X139893058Y-111719815D01*
X139872416Y-111703181D01*
X134644574Y-106475339D01*
X134611089Y-106414016D01*
X134610638Y-106411849D01*
X134579738Y-106256510D01*
X134579737Y-106256503D01*
X134538797Y-106157664D01*
X134519397Y-106110827D01*
X134519390Y-106110814D01*
X134431789Y-105979711D01*
X134431786Y-105979707D01*
X134320292Y-105868213D01*
X134320288Y-105868210D01*
X134184114Y-105777221D01*
X134184808Y-105776180D01*
X134139629Y-105731796D01*
X134124172Y-105663657D01*
X134148008Y-105597979D01*
X134200476Y-105556845D01*
X134286317Y-105521290D01*
X134339173Y-105499397D01*
X134339176Y-105499395D01*
X134339179Y-105499394D01*
X134470289Y-105411789D01*
X134581789Y-105300289D01*
X134669394Y-105169179D01*
X134729737Y-105023497D01*
X134758395Y-104879424D01*
X134760638Y-104868150D01*
X134793023Y-104806239D01*
X134794516Y-104804718D01*
X135472417Y-104126819D01*
X135533740Y-104093334D01*
X135560098Y-104090500D01*
X144133719Y-104090500D01*
X144200758Y-104110185D01*
G37*
%TD.AperFunction*%
%TA.AperFunction,Conductor*%
G36*
X154838233Y-108267645D02*
G01*
X154851631Y-108265734D01*
X154871703Y-108274925D01*
X154893280Y-108279619D01*
X154911128Y-108292980D01*
X154915157Y-108294825D01*
X154916600Y-108297076D01*
X154921537Y-108300772D01*
X155475425Y-108854660D01*
X155508910Y-108915983D01*
X155509361Y-108918149D01*
X155540261Y-109073491D01*
X155540264Y-109073501D01*
X155600602Y-109219172D01*
X155600609Y-109219185D01*
X155668713Y-109321109D01*
X155689591Y-109387787D01*
X155671107Y-109455167D01*
X155668713Y-109458891D01*
X155600609Y-109560814D01*
X155600602Y-109560827D01*
X155540264Y-109706498D01*
X155540261Y-109706510D01*
X155533661Y-109739691D01*
X155501276Y-109801602D01*
X155440561Y-109836176D01*
X155412044Y-109839500D01*
X155189057Y-109839500D01*
X155030943Y-109839500D01*
X154878215Y-109880423D01*
X154878214Y-109880423D01*
X154878212Y-109880424D01*
X154878209Y-109880425D01*
X154828096Y-109909359D01*
X154828095Y-109909360D01*
X154794668Y-109928659D01*
X154741285Y-109959479D01*
X154741282Y-109959481D01*
X153672181Y-111028583D01*
X153610858Y-111062068D01*
X153541166Y-111057084D01*
X153485233Y-111015212D01*
X153460816Y-110949748D01*
X153460500Y-110940902D01*
X153460500Y-109689357D01*
X153480185Y-109622318D01*
X153532989Y-109576563D01*
X153602147Y-109566619D01*
X153608692Y-109567740D01*
X153731155Y-109592100D01*
X153731158Y-109592100D01*
X153888844Y-109592100D01*
X153888845Y-109592099D01*
X154043497Y-109561337D01*
X154189179Y-109500994D01*
X154320289Y-109413389D01*
X154431789Y-109301889D01*
X154519394Y-109170779D01*
X154579737Y-109025097D01*
X154610500Y-108870442D01*
X154610500Y-108712758D01*
X154610500Y-108712755D01*
X154597511Y-108647459D01*
X154588893Y-108604133D01*
X154595120Y-108534544D01*
X154606265Y-108512795D01*
X154614729Y-108499654D01*
X154617546Y-108497546D01*
X154703796Y-108382331D01*
X154722356Y-108332566D01*
X154729611Y-108321305D01*
X154746311Y-108306864D01*
X154759543Y-108289188D01*
X154772224Y-108284457D01*
X154782462Y-108275605D01*
X154804318Y-108272485D01*
X154825006Y-108264769D01*
X154838233Y-108267645D01*
G37*
%TD.AperFunction*%
%TA.AperFunction,Conductor*%
G36*
X150814164Y-98535185D02*
G01*
X150859919Y-98587989D01*
X150868742Y-98615308D01*
X150890261Y-98723491D01*
X150890264Y-98723501D01*
X150950602Y-98869172D01*
X150950609Y-98869185D01*
X151038210Y-99000288D01*
X151038213Y-99000292D01*
X151149707Y-99111786D01*
X151149711Y-99111789D01*
X151280814Y-99199390D01*
X151280827Y-99199397D01*
X151426498Y-99259735D01*
X151426503Y-99259737D01*
X151529347Y-99280194D01*
X151581153Y-99290499D01*
X151581156Y-99290500D01*
X151581158Y-99290500D01*
X151738844Y-99290500D01*
X151738845Y-99290499D01*
X151893497Y-99259737D01*
X152039179Y-99199394D01*
X152170289Y-99111789D01*
X152281789Y-99000289D01*
X152369394Y-98869179D01*
X152429737Y-98723497D01*
X152436301Y-98690499D01*
X152451258Y-98615308D01*
X152483643Y-98553397D01*
X152544359Y-98518823D01*
X152572875Y-98515500D01*
X153499548Y-98515500D01*
X153566587Y-98535185D01*
X153587229Y-98551819D01*
X155288890Y-100253480D01*
X155322375Y-100314803D01*
X155322826Y-100316970D01*
X155344946Y-100428174D01*
X155344949Y-100428186D01*
X155405287Y-100573857D01*
X155405294Y-100573870D01*
X155492895Y-100704973D01*
X155492898Y-100704977D01*
X155604392Y-100816471D01*
X155604396Y-100816474D01*
X155735499Y-100904075D01*
X155735512Y-100904082D01*
X155881183Y-100964420D01*
X155881188Y-100964422D01*
X156012285Y-100990499D01*
X156035838Y-100995184D01*
X156035841Y-100995185D01*
X156035843Y-100995185D01*
X156193529Y-100995185D01*
X156193530Y-100995184D01*
X156348182Y-100964422D01*
X156388048Y-100947908D01*
X156457516Y-100940440D01*
X156519996Y-100971715D01*
X156555648Y-101031804D01*
X156559500Y-101062470D01*
X156559500Y-107922351D01*
X156553564Y-107942566D01*
X156552436Y-107963606D01*
X156543917Y-107975418D01*
X156539815Y-107989390D01*
X156523894Y-108003185D01*
X156511569Y-108020277D01*
X156498015Y-108025609D01*
X156487011Y-108035145D01*
X156466158Y-108038143D01*
X156446550Y-108045858D01*
X156421753Y-108044528D01*
X156417853Y-108045089D01*
X156411307Y-108043968D01*
X156388148Y-108039361D01*
X156326237Y-108006975D01*
X156324660Y-108005425D01*
X155396819Y-107077584D01*
X155363334Y-107016261D01*
X155360500Y-106989903D01*
X155360500Y-104279060D01*
X155360501Y-104279047D01*
X155360501Y-104110944D01*
X155360298Y-104110185D01*
X155319577Y-103958216D01*
X155279853Y-103889411D01*
X155240524Y-103821290D01*
X155240518Y-103821282D01*
X152708657Y-101289421D01*
X150146415Y-98727180D01*
X150112931Y-98665858D01*
X150117915Y-98596166D01*
X150159787Y-98540233D01*
X150225251Y-98515816D01*
X150234097Y-98515500D01*
X150747125Y-98515500D01*
X150814164Y-98535185D01*
G37*
%TD.AperFunction*%
%TA.AperFunction,Conductor*%
G36*
X165015398Y-101721953D02*
G01*
X165028834Y-101722914D01*
X165046560Y-101736184D01*
X165066703Y-101745383D01*
X165073985Y-101756714D01*
X165084767Y-101764786D01*
X165092504Y-101785531D01*
X165104477Y-101804161D01*
X165107628Y-101826079D01*
X165109184Y-101830250D01*
X165109500Y-101839096D01*
X165109500Y-101968846D01*
X165140261Y-102123489D01*
X165140264Y-102123501D01*
X165200602Y-102269172D01*
X165200609Y-102269185D01*
X165288210Y-102400288D01*
X165288213Y-102400292D01*
X165399707Y-102511786D01*
X165399711Y-102511789D01*
X165530814Y-102599390D01*
X165530827Y-102599397D01*
X165609894Y-102632147D01*
X165676503Y-102659737D01*
X165831153Y-102690499D01*
X165831156Y-102690500D01*
X165831158Y-102690500D01*
X165988844Y-102690500D01*
X165988845Y-102690499D01*
X166143497Y-102659737D01*
X166289179Y-102599394D01*
X166289185Y-102599390D01*
X166420875Y-102511398D01*
X166487553Y-102490520D01*
X166489766Y-102490500D01*
X172210902Y-102490500D01*
X172277941Y-102510185D01*
X172323696Y-102562989D01*
X172333640Y-102632147D01*
X172304615Y-102695703D01*
X172298583Y-102702181D01*
X169697584Y-105303181D01*
X169636261Y-105336666D01*
X169609903Y-105339500D01*
X163246670Y-105339500D01*
X163246654Y-105339499D01*
X163239058Y-105339499D01*
X163080943Y-105339499D01*
X163016220Y-105356842D01*
X162928214Y-105380423D01*
X162928209Y-105380426D01*
X162791290Y-105459475D01*
X162791282Y-105459481D01*
X162259544Y-105991219D01*
X162198221Y-106024704D01*
X162128529Y-106019720D01*
X162102972Y-106006640D01*
X161989185Y-105930609D01*
X161989172Y-105930602D01*
X161843499Y-105870263D01*
X161837663Y-105868493D01*
X161838144Y-105866906D01*
X161783301Y-105838205D01*
X161754859Y-105796441D01*
X161719397Y-105710827D01*
X161719390Y-105710814D01*
X161631789Y-105579711D01*
X161631786Y-105579707D01*
X161520291Y-105468212D01*
X161471438Y-105435570D01*
X161442542Y-105416262D01*
X161397738Y-105362652D01*
X161389031Y-105293327D01*
X161419185Y-105230299D01*
X161423734Y-105225499D01*
X164897819Y-101751415D01*
X164917255Y-101740802D01*
X164933989Y-101726302D01*
X164947320Y-101724385D01*
X164959142Y-101717930D01*
X164981228Y-101719509D01*
X165003147Y-101716358D01*
X165015398Y-101721953D01*
G37*
%TD.AperFunction*%
%TA.AperFunction,Conductor*%
G36*
X133565703Y-94145384D02*
G01*
X133572181Y-94151416D01*
X135849362Y-96428597D01*
X135882847Y-96489920D01*
X135877863Y-96559612D01*
X135835991Y-96615545D01*
X135796618Y-96635254D01*
X135789657Y-96637297D01*
X135658871Y-96697026D01*
X135612236Y-96734606D01*
X135612232Y-96734610D01*
X134340979Y-98005864D01*
X136886563Y-100551448D01*
X138157816Y-99280194D01*
X138157820Y-99280190D01*
X138195400Y-99233555D01*
X138255124Y-99102778D01*
X138257169Y-99095816D01*
X138294941Y-99037036D01*
X138358496Y-99008009D01*
X138427655Y-99017950D01*
X138463829Y-99043065D01*
X138891284Y-99470520D01*
X138891286Y-99470521D01*
X138891290Y-99470524D01*
X138916868Y-99485291D01*
X139028216Y-99549577D01*
X139180943Y-99590501D01*
X139180945Y-99590501D01*
X139346654Y-99590501D01*
X139346670Y-99590500D01*
X141180939Y-99590500D01*
X141180943Y-99590501D01*
X141339057Y-99590501D01*
X141390285Y-99576773D01*
X141402688Y-99576003D01*
X141404843Y-99576492D01*
X141410381Y-99575764D01*
X144375678Y-99575764D01*
X144442717Y-99595449D01*
X144488472Y-99648253D01*
X144498416Y-99717411D01*
X144478780Y-99768655D01*
X144450609Y-99810814D01*
X144450602Y-99810827D01*
X144390264Y-99956498D01*
X144390261Y-99956510D01*
X144359500Y-100111153D01*
X144359500Y-100268846D01*
X144390261Y-100423489D01*
X144390264Y-100423501D01*
X144450602Y-100569172D01*
X144450609Y-100569185D01*
X144538210Y-100700288D01*
X144538213Y-100700292D01*
X144649707Y-100811786D01*
X144649711Y-100811789D01*
X144780814Y-100899390D01*
X144780827Y-100899397D01*
X144897812Y-100947853D01*
X144926503Y-100959737D01*
X145081153Y-100990499D01*
X145081156Y-100990500D01*
X145081158Y-100990500D01*
X145238844Y-100990500D01*
X145238845Y-100990499D01*
X145393497Y-100959737D01*
X145539179Y-100899394D01*
X145670289Y-100811789D01*
X145781789Y-100700289D01*
X145869394Y-100569179D01*
X145929737Y-100423497D01*
X145960500Y-100268842D01*
X145960500Y-100111158D01*
X145960500Y-100111155D01*
X145960499Y-100111153D01*
X145948816Y-100052419D01*
X145929737Y-99956503D01*
X145906591Y-99900622D01*
X145869397Y-99810827D01*
X145869390Y-99810814D01*
X145841220Y-99768655D01*
X145820342Y-99701978D01*
X145838826Y-99634598D01*
X145890805Y-99587907D01*
X145944322Y-99575764D01*
X146230492Y-99575764D01*
X146297531Y-99595449D01*
X146343286Y-99648253D01*
X146353230Y-99717411D01*
X146347021Y-99740043D01*
X146347339Y-99740140D01*
X146345569Y-99745974D01*
X146314808Y-99900617D01*
X146314808Y-100058310D01*
X146345569Y-100212953D01*
X146345572Y-100212965D01*
X146405910Y-100358636D01*
X146405917Y-100358649D01*
X146493518Y-100489752D01*
X146493521Y-100489756D01*
X146605015Y-100601250D01*
X146605019Y-100601253D01*
X146736122Y-100688854D01*
X146736135Y-100688861D01*
X146881806Y-100749199D01*
X146881811Y-100749201D01*
X146938615Y-100760500D01*
X147037157Y-100780102D01*
X147099068Y-100812487D01*
X147100647Y-100814038D01*
X148047538Y-101760929D01*
X148081023Y-101822252D01*
X148076039Y-101891944D01*
X148062960Y-101917500D01*
X148000608Y-102010816D01*
X148000602Y-102010827D01*
X147940264Y-102156498D01*
X147940261Y-102156510D01*
X147909500Y-102311153D01*
X147909500Y-102468846D01*
X147935469Y-102599397D01*
X147940263Y-102623497D01*
X147970546Y-102696608D01*
X147979427Y-102718047D01*
X147986896Y-102787517D01*
X147955621Y-102849996D01*
X147895532Y-102885648D01*
X147864866Y-102889500D01*
X146984500Y-102889500D01*
X146917461Y-102869815D01*
X146871706Y-102817011D01*
X146860500Y-102765500D01*
X146860500Y-102711155D01*
X146860499Y-102711153D01*
X146850271Y-102659735D01*
X146829737Y-102556503D01*
X146802406Y-102490520D01*
X146769397Y-102410827D01*
X146769390Y-102410814D01*
X146681789Y-102279711D01*
X146681786Y-102279707D01*
X146570292Y-102168213D01*
X146570288Y-102168210D01*
X146439185Y-102080609D01*
X146439176Y-102080604D01*
X146366574Y-102050532D01*
X146312171Y-102006691D01*
X146299470Y-101983432D01*
X146269394Y-101910821D01*
X146269391Y-101910816D01*
X146269390Y-101910814D01*
X146181789Y-101779711D01*
X146181786Y-101779707D01*
X146070292Y-101668213D01*
X146070288Y-101668210D01*
X145939185Y-101580609D01*
X145939172Y-101580602D01*
X145793501Y-101520264D01*
X145793489Y-101520261D01*
X145638845Y-101489500D01*
X145638842Y-101489500D01*
X145481158Y-101489500D01*
X145481155Y-101489500D01*
X145326510Y-101520261D01*
X145326498Y-101520264D01*
X145180827Y-101580602D01*
X145180814Y-101580609D01*
X145049711Y-101668210D01*
X145049707Y-101668213D01*
X144938213Y-101779707D01*
X144938210Y-101779711D01*
X144850609Y-101910814D01*
X144850602Y-101910827D01*
X144790264Y-102056498D01*
X144790261Y-102056510D01*
X144759500Y-102211153D01*
X144759500Y-102368846D01*
X144790261Y-102523489D01*
X144790264Y-102523501D01*
X144850602Y-102669172D01*
X144850610Y-102669187D01*
X144868933Y-102696608D01*
X144889812Y-102763285D01*
X144871328Y-102830666D01*
X144819350Y-102877356D01*
X144765832Y-102889500D01*
X135346670Y-102889500D01*
X135346654Y-102889499D01*
X135339058Y-102889499D01*
X135180943Y-102889499D01*
X135114779Y-102907228D01*
X135028214Y-102930423D01*
X135028209Y-102930426D01*
X134891290Y-103009475D01*
X134891282Y-103009481D01*
X133945339Y-103955425D01*
X133884016Y-103988910D01*
X133881850Y-103989361D01*
X133726508Y-104020261D01*
X133726498Y-104020264D01*
X133580827Y-104080602D01*
X133580809Y-104080612D01*
X133503390Y-104132342D01*
X133436713Y-104153220D01*
X133369333Y-104134735D01*
X133322643Y-104082756D01*
X133310500Y-104029240D01*
X133310500Y-101399977D01*
X133846004Y-101399977D01*
X134622286Y-102176259D01*
X134668921Y-102213839D01*
X134799700Y-102273565D01*
X134799705Y-102273566D01*
X134942019Y-102294026D01*
X135084332Y-102273566D01*
X135084337Y-102273565D01*
X135215116Y-102213839D01*
X135261751Y-102176259D01*
X135261755Y-102176255D01*
X135926858Y-101511153D01*
X142959500Y-101511153D01*
X142959500Y-101668846D01*
X142990261Y-101823489D01*
X142990264Y-101823501D01*
X143050602Y-101969172D01*
X143050609Y-101969185D01*
X143138210Y-102100288D01*
X143138213Y-102100292D01*
X143249707Y-102211786D01*
X143249711Y-102211789D01*
X143380814Y-102299390D01*
X143380827Y-102299397D01*
X143480060Y-102340500D01*
X143526503Y-102359737D01*
X143681153Y-102390499D01*
X143681156Y-102390500D01*
X143681158Y-102390500D01*
X143838844Y-102390500D01*
X143838845Y-102390499D01*
X143993497Y-102359737D01*
X144139179Y-102299394D01*
X144270289Y-102211789D01*
X144381789Y-102100289D01*
X144469394Y-101969179D01*
X144529737Y-101823497D01*
X144560500Y-101668842D01*
X144560500Y-101511158D01*
X144560500Y-101511155D01*
X144560499Y-101511153D01*
X144550511Y-101460939D01*
X144529737Y-101356503D01*
X144523882Y-101342368D01*
X144469397Y-101210827D01*
X144469390Y-101210814D01*
X144381789Y-101079711D01*
X144381786Y-101079707D01*
X144270292Y-100968213D01*
X144270288Y-100968210D01*
X144139185Y-100880609D01*
X144139172Y-100880602D01*
X143993501Y-100820264D01*
X143993489Y-100820261D01*
X143838845Y-100789500D01*
X143838842Y-100789500D01*
X143681158Y-100789500D01*
X143681155Y-100789500D01*
X143526510Y-100820261D01*
X143526498Y-100820264D01*
X143380827Y-100880602D01*
X143380814Y-100880609D01*
X143249711Y-100968210D01*
X143249707Y-100968213D01*
X143138213Y-101079707D01*
X143138210Y-101079711D01*
X143050609Y-101210814D01*
X143050602Y-101210827D01*
X142990264Y-101356498D01*
X142990261Y-101356510D01*
X142959500Y-101511153D01*
X135926858Y-101511153D01*
X136020626Y-101417385D01*
X136533009Y-100905002D01*
X135436994Y-99808987D01*
X133846004Y-101399977D01*
X133310500Y-101399977D01*
X133310500Y-101163835D01*
X133330185Y-101096796D01*
X133382989Y-101051041D01*
X133452147Y-101041097D01*
X133463809Y-101046423D01*
X133492450Y-101046423D01*
X135083440Y-99455433D01*
X133987425Y-98359418D01*
X133522181Y-98824662D01*
X133460858Y-98858147D01*
X133391166Y-98853163D01*
X133335233Y-98811291D01*
X133310816Y-98745827D01*
X133310500Y-98736981D01*
X133310500Y-98168362D01*
X133315213Y-98134500D01*
X133318092Y-98124354D01*
X133319577Y-98121784D01*
X133332024Y-98075331D01*
X133360501Y-97969057D01*
X133360501Y-97810942D01*
X133360501Y-97803347D01*
X133360500Y-97803329D01*
X133360500Y-94239097D01*
X133380185Y-94172058D01*
X133432989Y-94126303D01*
X133502147Y-94116359D01*
X133565703Y-94145384D01*
G37*
%TD.AperFunction*%
%TA.AperFunction,Conductor*%
G36*
X170615701Y-84780738D02*
G01*
X170622180Y-84786770D01*
X174104795Y-88269387D01*
X174104797Y-88269388D01*
X174111267Y-88275858D01*
X174213715Y-88344312D01*
X174256293Y-88361948D01*
X174327548Y-88391463D01*
X174347597Y-88395451D01*
X174362815Y-88398478D01*
X174448392Y-88415501D01*
X174448394Y-88415501D01*
X174577721Y-88415501D01*
X174577741Y-88415500D01*
X176835902Y-88415500D01*
X176902941Y-88435185D01*
X176948696Y-88487989D01*
X176958640Y-88557147D01*
X176929615Y-88620703D01*
X176923583Y-88627181D01*
X175679481Y-89871282D01*
X175679479Y-89871285D01*
X175629361Y-89958094D01*
X175629359Y-89958096D01*
X175600425Y-90008209D01*
X175600424Y-90008210D01*
X175600423Y-90008215D01*
X175559499Y-90160943D01*
X175559499Y-90160945D01*
X175559499Y-90329046D01*
X175559500Y-90329059D01*
X175559500Y-99686868D01*
X175539815Y-99753907D01*
X175504391Y-99789970D01*
X175424711Y-99843210D01*
X175424707Y-99843213D01*
X175313213Y-99954707D01*
X175313210Y-99954711D01*
X175225609Y-100085814D01*
X175225602Y-100085827D01*
X175165264Y-100231498D01*
X175165261Y-100231510D01*
X175134500Y-100386153D01*
X175134500Y-100543846D01*
X175165261Y-100698489D01*
X175165264Y-100698501D01*
X175225602Y-100844172D01*
X175225609Y-100844185D01*
X175313210Y-100975288D01*
X175313213Y-100975292D01*
X175424707Y-101086786D01*
X175424711Y-101086789D01*
X175555814Y-101174390D01*
X175555821Y-101174394D01*
X175682955Y-101227054D01*
X175698517Y-101239594D01*
X175716703Y-101247900D01*
X175725167Y-101261070D01*
X175737355Y-101270892D01*
X175743668Y-101289858D01*
X175754477Y-101306678D01*
X175758439Y-101334237D01*
X175759421Y-101337186D01*
X175759500Y-101341613D01*
X175759500Y-101392044D01*
X175739815Y-101459083D01*
X175687011Y-101504838D01*
X175659691Y-101513661D01*
X175626510Y-101520261D01*
X175626498Y-101520264D01*
X175480827Y-101580602D01*
X175480814Y-101580609D01*
X175349711Y-101668210D01*
X175349707Y-101668213D01*
X175238213Y-101779707D01*
X175238210Y-101779711D01*
X175150609Y-101910814D01*
X175150602Y-101910827D01*
X175090264Y-102056498D01*
X175090261Y-102056508D01*
X175059361Y-102211850D01*
X175050595Y-102228607D01*
X175046576Y-102247084D01*
X175027831Y-102272125D01*
X175026976Y-102273761D01*
X175025426Y-102275339D01*
X174900182Y-102400582D01*
X174838862Y-102434066D01*
X174812503Y-102436900D01*
X173367330Y-102436900D01*
X173300291Y-102417215D01*
X173254536Y-102364411D01*
X173244592Y-102295253D01*
X173273617Y-102231697D01*
X173298439Y-102209798D01*
X173321245Y-102194558D01*
X173370289Y-102161789D01*
X173481789Y-102050289D01*
X173569394Y-101919179D01*
X173570090Y-101917500D01*
X173614137Y-101811158D01*
X173629737Y-101773497D01*
X173660500Y-101618842D01*
X173660500Y-101461158D01*
X173660500Y-101461155D01*
X173660499Y-101461153D01*
X173639684Y-101356510D01*
X173629737Y-101306503D01*
X173629735Y-101306498D01*
X173569397Y-101160827D01*
X173569390Y-101160814D01*
X173481789Y-101029711D01*
X173481786Y-101029707D01*
X173370292Y-100918213D01*
X173370288Y-100918210D01*
X173239185Y-100830609D01*
X173239172Y-100830602D01*
X173093501Y-100770264D01*
X173093489Y-100770261D01*
X172938845Y-100739500D01*
X172938842Y-100739500D01*
X172781158Y-100739500D01*
X172781155Y-100739500D01*
X172626510Y-100770261D01*
X172626498Y-100770264D01*
X172480827Y-100830602D01*
X172480814Y-100830609D01*
X172349711Y-100918210D01*
X172349707Y-100918213D01*
X172238213Y-101029707D01*
X172238210Y-101029711D01*
X172150607Y-101160817D01*
X172150606Y-101160820D01*
X172134153Y-101200541D01*
X172129899Y-101210814D01*
X172129013Y-101212952D01*
X172085173Y-101267356D01*
X172018879Y-101289421D01*
X172014452Y-101289500D01*
X166489766Y-101289500D01*
X166422727Y-101269815D01*
X166420875Y-101268602D01*
X166289185Y-101180609D01*
X166289172Y-101180602D01*
X166143501Y-101120264D01*
X166143489Y-101120261D01*
X165988845Y-101089500D01*
X165988842Y-101089500D01*
X165859096Y-101089500D01*
X165792057Y-101069815D01*
X165746302Y-101017011D01*
X165736358Y-100947853D01*
X165765383Y-100884297D01*
X165771415Y-100877819D01*
X167073470Y-99575764D01*
X168418506Y-98230728D01*
X168418511Y-98230724D01*
X168428714Y-98220520D01*
X168428716Y-98220520D01*
X168540520Y-98108716D01*
X168619577Y-97971784D01*
X168657998Y-97828394D01*
X168657998Y-97828393D01*
X168658000Y-97828393D01*
X168658000Y-97828384D01*
X168660500Y-97819058D01*
X168660500Y-97660943D01*
X168660500Y-96261153D01*
X169959500Y-96261153D01*
X169959500Y-96418846D01*
X169990261Y-96573489D01*
X169990264Y-96573501D01*
X170050602Y-96719172D01*
X170050609Y-96719185D01*
X170138210Y-96850288D01*
X170138213Y-96850292D01*
X170249707Y-96961786D01*
X170249711Y-96961789D01*
X170380814Y-97049390D01*
X170380827Y-97049397D01*
X170526498Y-97109735D01*
X170526503Y-97109737D01*
X170663306Y-97136949D01*
X170681153Y-97140499D01*
X170681156Y-97140500D01*
X170681158Y-97140500D01*
X170838844Y-97140500D01*
X170838845Y-97140499D01*
X170993497Y-97109737D01*
X171139179Y-97049394D01*
X171270289Y-96961789D01*
X171381789Y-96850289D01*
X171469394Y-96719179D01*
X171529737Y-96573497D01*
X171560500Y-96418842D01*
X171560500Y-96261158D01*
X171560500Y-96261155D01*
X171560499Y-96261153D01*
X171542206Y-96169190D01*
X171529737Y-96106503D01*
X171484351Y-95996930D01*
X171469397Y-95960827D01*
X171469389Y-95960813D01*
X171459696Y-95946306D01*
X171438817Y-95879629D01*
X171457301Y-95812249D01*
X171459674Y-95808555D01*
X171519394Y-95719179D01*
X171579737Y-95573497D01*
X171610500Y-95418842D01*
X171610500Y-95261158D01*
X171610500Y-95261155D01*
X171610499Y-95261153D01*
X171579737Y-95106503D01*
X171568088Y-95078379D01*
X171519397Y-94960827D01*
X171519390Y-94960814D01*
X171431789Y-94829711D01*
X171431786Y-94829707D01*
X171320292Y-94718213D01*
X171320288Y-94718210D01*
X171189185Y-94630609D01*
X171189172Y-94630602D01*
X171043501Y-94570264D01*
X171043489Y-94570261D01*
X170888845Y-94539500D01*
X170888842Y-94539500D01*
X170731158Y-94539500D01*
X170731155Y-94539500D01*
X170576510Y-94570261D01*
X170576498Y-94570264D01*
X170430827Y-94630602D01*
X170430814Y-94630609D01*
X170299711Y-94718210D01*
X170299707Y-94718213D01*
X170188213Y-94829707D01*
X170188210Y-94829711D01*
X170100609Y-94960814D01*
X170100602Y-94960827D01*
X170040264Y-95106498D01*
X170040261Y-95106510D01*
X170009500Y-95261153D01*
X170009500Y-95418846D01*
X170040261Y-95573489D01*
X170040264Y-95573501D01*
X170100602Y-95719172D01*
X170100609Y-95719185D01*
X170110304Y-95733694D01*
X170131182Y-95800371D01*
X170112698Y-95867752D01*
X170110304Y-95871476D01*
X170050609Y-95960814D01*
X170050602Y-95960827D01*
X169990264Y-96106498D01*
X169990261Y-96106510D01*
X169959500Y-96261153D01*
X168660500Y-96261153D01*
X168660500Y-91614499D01*
X168680185Y-91547460D01*
X168732989Y-91501705D01*
X168784500Y-91490499D01*
X169957871Y-91490499D01*
X169957872Y-91490499D01*
X170017483Y-91484091D01*
X170152331Y-91433796D01*
X170267546Y-91347546D01*
X170353796Y-91232331D01*
X170404091Y-91097483D01*
X170410500Y-91037873D01*
X170410499Y-89142128D01*
X170404091Y-89082517D01*
X170353796Y-88947669D01*
X170353795Y-88947668D01*
X170353793Y-88947664D01*
X170267547Y-88832455D01*
X170267544Y-88832452D01*
X170152335Y-88746206D01*
X170152328Y-88746202D01*
X170017482Y-88695908D01*
X170017483Y-88695908D01*
X169957883Y-88689501D01*
X169957881Y-88689500D01*
X169957873Y-88689500D01*
X169957865Y-88689500D01*
X168784500Y-88689500D01*
X168717461Y-88669815D01*
X168671706Y-88617011D01*
X168660500Y-88565500D01*
X168660500Y-85614499D01*
X168680185Y-85547460D01*
X168732989Y-85501705D01*
X168784500Y-85490499D01*
X169957871Y-85490499D01*
X169957872Y-85490499D01*
X170017483Y-85484091D01*
X170152331Y-85433796D01*
X170267546Y-85347546D01*
X170353796Y-85232331D01*
X170404091Y-85097483D01*
X170410500Y-85037873D01*
X170410499Y-84874449D01*
X170430183Y-84807412D01*
X170482987Y-84761657D01*
X170552145Y-84751713D01*
X170615701Y-84780738D01*
G37*
%TD.AperFunction*%
%TA.AperFunction,Conductor*%
G36*
X178015000Y-99593215D02*
G01*
X177995315Y-99660254D01*
X177953002Y-99700601D01*
X177911638Y-99724483D01*
X177911632Y-99724487D01*
X177804487Y-99831632D01*
X177804485Y-99831635D01*
X177728719Y-99962863D01*
X177689500Y-100109234D01*
X177689500Y-100215018D01*
X177683261Y-100236263D01*
X177681682Y-100258352D01*
X177673609Y-100269135D01*
X177669815Y-100282057D01*
X177653081Y-100296556D01*
X177639810Y-100314285D01*
X177627189Y-100318992D01*
X177617011Y-100327812D01*
X177595093Y-100330963D01*
X177574346Y-100338702D01*
X177561185Y-100335839D01*
X177547853Y-100337756D01*
X177527709Y-100328556D01*
X177506073Y-100323850D01*
X177488347Y-100310581D01*
X177484297Y-100308731D01*
X177477819Y-100302699D01*
X177377019Y-100201899D01*
X177343534Y-100140576D01*
X177340700Y-100114218D01*
X177340700Y-100052419D01*
X177340700Y-100052417D01*
X177302832Y-99911091D01*
X177304495Y-99841244D01*
X177343657Y-99783381D01*
X177407886Y-99755877D01*
X177422607Y-99755000D01*
X177515000Y-99755000D01*
X177515000Y-99055000D01*
X178015000Y-99055000D01*
X178015000Y-99593215D01*
G37*
%TD.AperFunction*%
%TA.AperFunction,Conductor*%
G36*
X135132357Y-88196947D02*
G01*
X138325674Y-91390265D01*
X141445124Y-94509715D01*
X141472004Y-94549943D01*
X141487057Y-94586284D01*
X141487057Y-94586285D01*
X141487058Y-94586286D01*
X141516673Y-94630606D01*
X141537661Y-94662017D01*
X141555513Y-94688735D01*
X141646956Y-94780178D01*
X141646978Y-94780198D01*
X145029863Y-98163083D01*
X145063348Y-98224406D01*
X145058364Y-98294098D01*
X145016492Y-98350031D01*
X144951028Y-98374448D01*
X144942182Y-98374764D01*
X141353797Y-98374764D01*
X141353793Y-98374763D01*
X141195679Y-98374763D01*
X141144450Y-98388490D01*
X141132048Y-98389261D01*
X141129892Y-98388771D01*
X141124355Y-98389500D01*
X139560098Y-98389500D01*
X139493059Y-98369815D01*
X139472417Y-98353181D01*
X138694984Y-97575748D01*
X138661499Y-97514425D01*
X138666483Y-97444733D01*
X138708355Y-97388800D01*
X138735200Y-97373512D01*
X138909040Y-97301506D01*
X139072908Y-97192013D01*
X139212265Y-97052656D01*
X139321758Y-96888788D01*
X139397177Y-96706709D01*
X139423675Y-96573497D01*
X139435626Y-96513417D01*
X139435626Y-96316330D01*
X139397178Y-96123044D01*
X139397177Y-96123043D01*
X139397177Y-96123039D01*
X139344943Y-95996933D01*
X139321761Y-95940966D01*
X139321754Y-95940953D01*
X139212265Y-95777092D01*
X139212262Y-95777088D01*
X139072911Y-95637737D01*
X139072907Y-95637734D01*
X138909046Y-95528245D01*
X138909033Y-95528238D01*
X138726965Y-95452824D01*
X138726955Y-95452821D01*
X138533669Y-95414374D01*
X138533667Y-95414374D01*
X138336585Y-95414374D01*
X138336583Y-95414374D01*
X138143296Y-95452821D01*
X138143286Y-95452824D01*
X137961218Y-95528238D01*
X137961205Y-95528245D01*
X137797344Y-95637734D01*
X137797340Y-95637737D01*
X137657989Y-95777088D01*
X137657986Y-95777092D01*
X137548497Y-95940953D01*
X137548490Y-95940966D01*
X137476493Y-96114786D01*
X137432652Y-96169190D01*
X137366358Y-96191255D01*
X137298659Y-96173976D01*
X137274251Y-96155015D01*
X132319743Y-91200508D01*
X132312674Y-91188930D01*
X132304828Y-91182469D01*
X132296320Y-91162140D01*
X132289363Y-91150744D01*
X132287193Y-91143987D01*
X132279737Y-91106503D01*
X132259337Y-91057253D01*
X132257784Y-91052417D01*
X132257028Y-91022365D01*
X132253816Y-90992482D01*
X132256158Y-90987802D01*
X132256027Y-90982569D01*
X132271636Y-90956882D01*
X132285091Y-90930003D01*
X132289592Y-90927331D01*
X132292311Y-90922859D01*
X132319329Y-90909688D01*
X132345181Y-90894351D01*
X132352744Y-90893401D01*
X132355116Y-90892245D01*
X132358636Y-90892661D01*
X132375845Y-90890500D01*
X133023331Y-90890500D01*
X133023347Y-90890501D01*
X133030943Y-90890501D01*
X133189054Y-90890501D01*
X133189057Y-90890501D01*
X133341785Y-90849577D01*
X133428387Y-90799577D01*
X133478716Y-90770520D01*
X133590520Y-90658716D01*
X133590520Y-90658714D01*
X133600724Y-90648511D01*
X133600728Y-90648506D01*
X134418506Y-89830728D01*
X134418511Y-89830724D01*
X134428714Y-89820520D01*
X134428716Y-89820520D01*
X134540520Y-89708716D01*
X134590998Y-89621284D01*
X134619577Y-89571785D01*
X134660501Y-89419057D01*
X134660501Y-89260943D01*
X134660501Y-89253348D01*
X134660500Y-89253330D01*
X134660500Y-88472790D01*
X134680185Y-88405751D01*
X134732989Y-88359996D01*
X134741146Y-88356616D01*
X134802331Y-88333796D01*
X134917546Y-88247546D01*
X134945413Y-88210319D01*
X135001345Y-88168449D01*
X135071037Y-88163465D01*
X135132357Y-88196947D01*
G37*
%TD.AperFunction*%
%TD*%
M02*
