%TF.GenerationSoftware,KiCad,Pcbnew,9.0.0-rc1*%
%TF.CreationDate,2025-02-03T21:42:01-06:00*%
%TF.ProjectId,tempo,74656d70-6f2e-46b6-9963-61645f706362,rev?*%
%TF.SameCoordinates,Original*%
%TF.FileFunction,Legend,Bot*%
%TF.FilePolarity,Positive*%
%FSLAX46Y46*%
G04 Gerber Fmt 4.6, Leading zero omitted, Abs format (unit mm)*
G04 Created by KiCad (PCBNEW 9.0.0-rc1) date 2025-02-03 21:42:01*
%MOMM*%
%LPD*%
G01*
G04 APERTURE LIST*
%ADD10C,0.100000*%
%ADD11C,0.150000*%
%ADD12C,0.127000*%
%ADD13C,0.304800*%
%ADD14C,0.203200*%
%ADD15C,0.120000*%
G04 APERTURE END LIST*
D10*
X173263104Y-113458734D02*
X174063104Y-113458734D01*
X174063104Y-113458734D02*
X173491676Y-113192068D01*
X173491676Y-113192068D02*
X174063104Y-112925401D01*
X174063104Y-112925401D02*
X173263104Y-112925401D01*
X174063104Y-112392067D02*
X174063104Y-112239686D01*
X174063104Y-112239686D02*
X174025009Y-112163496D01*
X174025009Y-112163496D02*
X173948819Y-112087305D01*
X173948819Y-112087305D02*
X173796438Y-112049210D01*
X173796438Y-112049210D02*
X173529771Y-112049210D01*
X173529771Y-112049210D02*
X173377390Y-112087305D01*
X173377390Y-112087305D02*
X173301200Y-112163496D01*
X173301200Y-112163496D02*
X173263104Y-112239686D01*
X173263104Y-112239686D02*
X173263104Y-112392067D01*
X173263104Y-112392067D02*
X173301200Y-112468258D01*
X173301200Y-112468258D02*
X173377390Y-112544448D01*
X173377390Y-112544448D02*
X173529771Y-112582544D01*
X173529771Y-112582544D02*
X173796438Y-112582544D01*
X173796438Y-112582544D02*
X173948819Y-112544448D01*
X173948819Y-112544448D02*
X174025009Y-112468258D01*
X174025009Y-112468258D02*
X174063104Y-112392067D01*
X173301200Y-111744449D02*
X173263104Y-111630163D01*
X173263104Y-111630163D02*
X173263104Y-111439687D01*
X173263104Y-111439687D02*
X173301200Y-111363496D01*
X173301200Y-111363496D02*
X173339295Y-111325401D01*
X173339295Y-111325401D02*
X173415485Y-111287306D01*
X173415485Y-111287306D02*
X173491676Y-111287306D01*
X173491676Y-111287306D02*
X173567866Y-111325401D01*
X173567866Y-111325401D02*
X173605961Y-111363496D01*
X173605961Y-111363496D02*
X173644057Y-111439687D01*
X173644057Y-111439687D02*
X173682152Y-111592068D01*
X173682152Y-111592068D02*
X173720247Y-111668258D01*
X173720247Y-111668258D02*
X173758342Y-111706353D01*
X173758342Y-111706353D02*
X173834533Y-111744449D01*
X173834533Y-111744449D02*
X173910723Y-111744449D01*
X173910723Y-111744449D02*
X173986914Y-111706353D01*
X173986914Y-111706353D02*
X174025009Y-111668258D01*
X174025009Y-111668258D02*
X174063104Y-111592068D01*
X174063104Y-111592068D02*
X174063104Y-111401591D01*
X174063104Y-111401591D02*
X174025009Y-111287306D01*
X173263104Y-110944448D02*
X174063104Y-110944448D01*
D11*
X154958684Y-88094692D02*
X155006303Y-88142312D01*
X155006303Y-88142312D02*
X155149160Y-88189931D01*
X155149160Y-88189931D02*
X155244398Y-88189931D01*
X155244398Y-88189931D02*
X155387255Y-88142312D01*
X155387255Y-88142312D02*
X155482493Y-88047073D01*
X155482493Y-88047073D02*
X155530112Y-87951835D01*
X155530112Y-87951835D02*
X155577731Y-87761359D01*
X155577731Y-87761359D02*
X155577731Y-87618502D01*
X155577731Y-87618502D02*
X155530112Y-87428026D01*
X155530112Y-87428026D02*
X155482493Y-87332788D01*
X155482493Y-87332788D02*
X155387255Y-87237550D01*
X155387255Y-87237550D02*
X155244398Y-87189931D01*
X155244398Y-87189931D02*
X155149160Y-87189931D01*
X155149160Y-87189931D02*
X155006303Y-87237550D01*
X155006303Y-87237550D02*
X154958684Y-87285169D01*
X153958684Y-88189931D02*
X154292017Y-87713740D01*
X154530112Y-88189931D02*
X154530112Y-87189931D01*
X154530112Y-87189931D02*
X154149160Y-87189931D01*
X154149160Y-87189931D02*
X154053922Y-87237550D01*
X154053922Y-87237550D02*
X154006303Y-87285169D01*
X154006303Y-87285169D02*
X153958684Y-87380407D01*
X153958684Y-87380407D02*
X153958684Y-87523264D01*
X153958684Y-87523264D02*
X154006303Y-87618502D01*
X154006303Y-87618502D02*
X154053922Y-87666121D01*
X154053922Y-87666121D02*
X154149160Y-87713740D01*
X154149160Y-87713740D02*
X154530112Y-87713740D01*
X153006303Y-88189931D02*
X153577731Y-88189931D01*
X153292017Y-88189931D02*
X153292017Y-87189931D01*
X153292017Y-87189931D02*
X153387255Y-87332788D01*
X153387255Y-87332788D02*
X153482493Y-87428026D01*
X153482493Y-87428026D02*
X153577731Y-87475645D01*
X152625350Y-87285169D02*
X152577731Y-87237550D01*
X152577731Y-87237550D02*
X152482493Y-87189931D01*
X152482493Y-87189931D02*
X152244398Y-87189931D01*
X152244398Y-87189931D02*
X152149160Y-87237550D01*
X152149160Y-87237550D02*
X152101541Y-87285169D01*
X152101541Y-87285169D02*
X152053922Y-87380407D01*
X152053922Y-87380407D02*
X152053922Y-87475645D01*
X152053922Y-87475645D02*
X152101541Y-87618502D01*
X152101541Y-87618502D02*
X152672969Y-88189931D01*
X152672969Y-88189931D02*
X152053922Y-88189931D01*
X151672969Y-87285169D02*
X151625350Y-87237550D01*
X151625350Y-87237550D02*
X151530112Y-87189931D01*
X151530112Y-87189931D02*
X151292017Y-87189931D01*
X151292017Y-87189931D02*
X151196779Y-87237550D01*
X151196779Y-87237550D02*
X151149160Y-87285169D01*
X151149160Y-87285169D02*
X151101541Y-87380407D01*
X151101541Y-87380407D02*
X151101541Y-87475645D01*
X151101541Y-87475645D02*
X151149160Y-87618502D01*
X151149160Y-87618502D02*
X151720588Y-88189931D01*
X151720588Y-88189931D02*
X151101541Y-88189931D01*
X150482493Y-87189931D02*
X150387255Y-87189931D01*
X150387255Y-87189931D02*
X150292017Y-87237550D01*
X150292017Y-87237550D02*
X150244398Y-87285169D01*
X150244398Y-87285169D02*
X150196779Y-87380407D01*
X150196779Y-87380407D02*
X150149160Y-87570883D01*
X150149160Y-87570883D02*
X150149160Y-87808978D01*
X150149160Y-87808978D02*
X150196779Y-87999454D01*
X150196779Y-87999454D02*
X150244398Y-88094692D01*
X150244398Y-88094692D02*
X150292017Y-88142312D01*
X150292017Y-88142312D02*
X150387255Y-88189931D01*
X150387255Y-88189931D02*
X150482493Y-88189931D01*
X150482493Y-88189931D02*
X150577731Y-88142312D01*
X150577731Y-88142312D02*
X150625350Y-88094692D01*
X150625350Y-88094692D02*
X150672969Y-87999454D01*
X150672969Y-87999454D02*
X150720588Y-87808978D01*
X150720588Y-87808978D02*
X150720588Y-87570883D01*
X150720588Y-87570883D02*
X150672969Y-87380407D01*
X150672969Y-87380407D02*
X150625350Y-87285169D01*
X150625350Y-87285169D02*
X150577731Y-87237550D01*
X150577731Y-87237550D02*
X150482493Y-87189931D01*
X159053923Y-88847494D02*
X159149161Y-88799875D01*
X159149161Y-88799875D02*
X159292018Y-88799875D01*
X159292018Y-88799875D02*
X159434875Y-88847494D01*
X159434875Y-88847494D02*
X159530113Y-88942732D01*
X159530113Y-88942732D02*
X159577732Y-89037970D01*
X159577732Y-89037970D02*
X159625351Y-89228446D01*
X159625351Y-89228446D02*
X159625351Y-89371303D01*
X159625351Y-89371303D02*
X159577732Y-89561779D01*
X159577732Y-89561779D02*
X159530113Y-89657017D01*
X159530113Y-89657017D02*
X159434875Y-89752256D01*
X159434875Y-89752256D02*
X159292018Y-89799875D01*
X159292018Y-89799875D02*
X159196780Y-89799875D01*
X159196780Y-89799875D02*
X159053923Y-89752256D01*
X159053923Y-89752256D02*
X159006304Y-89704636D01*
X159006304Y-89704636D02*
X159006304Y-89371303D01*
X159006304Y-89371303D02*
X159196780Y-89371303D01*
X158577732Y-89799875D02*
X158577732Y-88799875D01*
X158577732Y-88799875D02*
X158196780Y-88799875D01*
X158196780Y-88799875D02*
X158101542Y-88847494D01*
X158101542Y-88847494D02*
X158053923Y-88895113D01*
X158053923Y-88895113D02*
X158006304Y-88990351D01*
X158006304Y-88990351D02*
X158006304Y-89133208D01*
X158006304Y-89133208D02*
X158053923Y-89228446D01*
X158053923Y-89228446D02*
X158101542Y-89276065D01*
X158101542Y-89276065D02*
X158196780Y-89323684D01*
X158196780Y-89323684D02*
X158577732Y-89323684D01*
X157625351Y-89752256D02*
X157482494Y-89799875D01*
X157482494Y-89799875D02*
X157244399Y-89799875D01*
X157244399Y-89799875D02*
X157149161Y-89752256D01*
X157149161Y-89752256D02*
X157101542Y-89704636D01*
X157101542Y-89704636D02*
X157053923Y-89609398D01*
X157053923Y-89609398D02*
X157053923Y-89514160D01*
X157053923Y-89514160D02*
X157101542Y-89418922D01*
X157101542Y-89418922D02*
X157149161Y-89371303D01*
X157149161Y-89371303D02*
X157244399Y-89323684D01*
X157244399Y-89323684D02*
X157434875Y-89276065D01*
X157434875Y-89276065D02*
X157530113Y-89228446D01*
X157530113Y-89228446D02*
X157577732Y-89180827D01*
X157577732Y-89180827D02*
X157625351Y-89085589D01*
X157625351Y-89085589D02*
X157625351Y-88990351D01*
X157625351Y-88990351D02*
X157577732Y-88895113D01*
X157577732Y-88895113D02*
X157530113Y-88847494D01*
X157530113Y-88847494D02*
X157434875Y-88799875D01*
X157434875Y-88799875D02*
X157196780Y-88799875D01*
X157196780Y-88799875D02*
X157053923Y-88847494D01*
X155530113Y-89276065D02*
X155387256Y-89323684D01*
X155387256Y-89323684D02*
X155339637Y-89371303D01*
X155339637Y-89371303D02*
X155292018Y-89466541D01*
X155292018Y-89466541D02*
X155292018Y-89609398D01*
X155292018Y-89609398D02*
X155339637Y-89704636D01*
X155339637Y-89704636D02*
X155387256Y-89752256D01*
X155387256Y-89752256D02*
X155482494Y-89799875D01*
X155482494Y-89799875D02*
X155863446Y-89799875D01*
X155863446Y-89799875D02*
X155863446Y-88799875D01*
X155863446Y-88799875D02*
X155530113Y-88799875D01*
X155530113Y-88799875D02*
X155434875Y-88847494D01*
X155434875Y-88847494D02*
X155387256Y-88895113D01*
X155387256Y-88895113D02*
X155339637Y-88990351D01*
X155339637Y-88990351D02*
X155339637Y-89085589D01*
X155339637Y-89085589D02*
X155387256Y-89180827D01*
X155387256Y-89180827D02*
X155434875Y-89228446D01*
X155434875Y-89228446D02*
X155530113Y-89276065D01*
X155530113Y-89276065D02*
X155863446Y-89276065D01*
X154911065Y-89514160D02*
X154434875Y-89514160D01*
X155006303Y-89799875D02*
X154672970Y-88799875D01*
X154672970Y-88799875D02*
X154339637Y-89799875D01*
X154149160Y-88799875D02*
X153577732Y-88799875D01*
X153863446Y-89799875D02*
X153863446Y-88799875D01*
X153387255Y-88799875D02*
X152815827Y-88799875D01*
X153101541Y-89799875D02*
X153101541Y-88799875D01*
X152482493Y-89276065D02*
X152149160Y-89276065D01*
X152006303Y-89799875D02*
X152482493Y-89799875D01*
X152482493Y-89799875D02*
X152482493Y-88799875D01*
X152482493Y-88799875D02*
X152006303Y-88799875D01*
X151006303Y-89799875D02*
X151339636Y-89323684D01*
X151577731Y-89799875D02*
X151577731Y-88799875D01*
X151577731Y-88799875D02*
X151196779Y-88799875D01*
X151196779Y-88799875D02*
X151101541Y-88847494D01*
X151101541Y-88847494D02*
X151053922Y-88895113D01*
X151053922Y-88895113D02*
X151006303Y-88990351D01*
X151006303Y-88990351D02*
X151006303Y-89133208D01*
X151006303Y-89133208D02*
X151053922Y-89228446D01*
X151053922Y-89228446D02*
X151101541Y-89276065D01*
X151101541Y-89276065D02*
X151196779Y-89323684D01*
X151196779Y-89323684D02*
X151577731Y-89323684D01*
X150387255Y-89323684D02*
X150387255Y-89799875D01*
X150720588Y-88799875D02*
X150387255Y-89323684D01*
X150387255Y-89323684D02*
X150053922Y-88799875D01*
X155292017Y-90886009D02*
X155149160Y-90933628D01*
X155149160Y-90933628D02*
X155101541Y-90981247D01*
X155101541Y-90981247D02*
X155053922Y-91076485D01*
X155053922Y-91076485D02*
X155053922Y-91219342D01*
X155053922Y-91219342D02*
X155101541Y-91314580D01*
X155101541Y-91314580D02*
X155149160Y-91362200D01*
X155149160Y-91362200D02*
X155244398Y-91409819D01*
X155244398Y-91409819D02*
X155625350Y-91409819D01*
X155625350Y-91409819D02*
X155625350Y-90409819D01*
X155625350Y-90409819D02*
X155292017Y-90409819D01*
X155292017Y-90409819D02*
X155196779Y-90457438D01*
X155196779Y-90457438D02*
X155149160Y-90505057D01*
X155149160Y-90505057D02*
X155101541Y-90600295D01*
X155101541Y-90600295D02*
X155101541Y-90695533D01*
X155101541Y-90695533D02*
X155149160Y-90790771D01*
X155149160Y-90790771D02*
X155196779Y-90838390D01*
X155196779Y-90838390D02*
X155292017Y-90886009D01*
X155292017Y-90886009D02*
X155625350Y-90886009D01*
X154672969Y-91124104D02*
X154196779Y-91124104D01*
X154768207Y-91409819D02*
X154434874Y-90409819D01*
X154434874Y-90409819D02*
X154101541Y-91409819D01*
X153196779Y-91314580D02*
X153244398Y-91362200D01*
X153244398Y-91362200D02*
X153387255Y-91409819D01*
X153387255Y-91409819D02*
X153482493Y-91409819D01*
X153482493Y-91409819D02*
X153625350Y-91362200D01*
X153625350Y-91362200D02*
X153720588Y-91266961D01*
X153720588Y-91266961D02*
X153768207Y-91171723D01*
X153768207Y-91171723D02*
X153815826Y-90981247D01*
X153815826Y-90981247D02*
X153815826Y-90838390D01*
X153815826Y-90838390D02*
X153768207Y-90647914D01*
X153768207Y-90647914D02*
X153720588Y-90552676D01*
X153720588Y-90552676D02*
X153625350Y-90457438D01*
X153625350Y-90457438D02*
X153482493Y-90409819D01*
X153482493Y-90409819D02*
X153387255Y-90409819D01*
X153387255Y-90409819D02*
X153244398Y-90457438D01*
X153244398Y-90457438D02*
X153196779Y-90505057D01*
X152768207Y-91409819D02*
X152768207Y-90409819D01*
X152196779Y-91409819D02*
X152625350Y-90838390D01*
X152196779Y-90409819D02*
X152768207Y-90981247D01*
X151768207Y-90409819D02*
X151768207Y-91219342D01*
X151768207Y-91219342D02*
X151720588Y-91314580D01*
X151720588Y-91314580D02*
X151672969Y-91362200D01*
X151672969Y-91362200D02*
X151577731Y-91409819D01*
X151577731Y-91409819D02*
X151387255Y-91409819D01*
X151387255Y-91409819D02*
X151292017Y-91362200D01*
X151292017Y-91362200D02*
X151244398Y-91314580D01*
X151244398Y-91314580D02*
X151196779Y-91219342D01*
X151196779Y-91219342D02*
X151196779Y-90409819D01*
X150720588Y-91409819D02*
X150720588Y-90409819D01*
X150720588Y-90409819D02*
X150339636Y-90409819D01*
X150339636Y-90409819D02*
X150244398Y-90457438D01*
X150244398Y-90457438D02*
X150196779Y-90505057D01*
X150196779Y-90505057D02*
X150149160Y-90600295D01*
X150149160Y-90600295D02*
X150149160Y-90743152D01*
X150149160Y-90743152D02*
X150196779Y-90838390D01*
X150196779Y-90838390D02*
X150244398Y-90886009D01*
X150244398Y-90886009D02*
X150339636Y-90933628D01*
X150339636Y-90933628D02*
X150720588Y-90933628D01*
D10*
X166888104Y-113458734D02*
X167688104Y-113458734D01*
X167688104Y-113458734D02*
X167688104Y-113153972D01*
X167688104Y-113153972D02*
X167650009Y-113077782D01*
X167650009Y-113077782D02*
X167611914Y-113039687D01*
X167611914Y-113039687D02*
X167535723Y-113001591D01*
X167535723Y-113001591D02*
X167421438Y-113001591D01*
X167421438Y-113001591D02*
X167345247Y-113039687D01*
X167345247Y-113039687D02*
X167307152Y-113077782D01*
X167307152Y-113077782D02*
X167269057Y-113153972D01*
X167269057Y-113153972D02*
X167269057Y-113458734D01*
X167688104Y-112506353D02*
X167688104Y-112430163D01*
X167688104Y-112430163D02*
X167650009Y-112353972D01*
X167650009Y-112353972D02*
X167611914Y-112315877D01*
X167611914Y-112315877D02*
X167535723Y-112277782D01*
X167535723Y-112277782D02*
X167383342Y-112239687D01*
X167383342Y-112239687D02*
X167192866Y-112239687D01*
X167192866Y-112239687D02*
X167040485Y-112277782D01*
X167040485Y-112277782D02*
X166964295Y-112315877D01*
X166964295Y-112315877D02*
X166926200Y-112353972D01*
X166926200Y-112353972D02*
X166888104Y-112430163D01*
X166888104Y-112430163D02*
X166888104Y-112506353D01*
X166888104Y-112506353D02*
X166926200Y-112582544D01*
X166926200Y-112582544D02*
X166964295Y-112620639D01*
X166964295Y-112620639D02*
X167040485Y-112658734D01*
X167040485Y-112658734D02*
X167192866Y-112696830D01*
X167192866Y-112696830D02*
X167383342Y-112696830D01*
X167383342Y-112696830D02*
X167535723Y-112658734D01*
X167535723Y-112658734D02*
X167611914Y-112620639D01*
X167611914Y-112620639D02*
X167650009Y-112582544D01*
X167650009Y-112582544D02*
X167688104Y-112506353D01*
X166964295Y-111896829D02*
X166926200Y-111858734D01*
X166926200Y-111858734D02*
X166888104Y-111896829D01*
X166888104Y-111896829D02*
X166926200Y-111934925D01*
X166926200Y-111934925D02*
X166964295Y-111896829D01*
X166964295Y-111896829D02*
X166888104Y-111896829D01*
X167688104Y-111592068D02*
X167688104Y-111096830D01*
X167688104Y-111096830D02*
X167383342Y-111363496D01*
X167383342Y-111363496D02*
X167383342Y-111249211D01*
X167383342Y-111249211D02*
X167345247Y-111173020D01*
X167345247Y-111173020D02*
X167307152Y-111134925D01*
X167307152Y-111134925D02*
X167230961Y-111096830D01*
X167230961Y-111096830D02*
X167040485Y-111096830D01*
X167040485Y-111096830D02*
X166964295Y-111134925D01*
X166964295Y-111134925D02*
X166926200Y-111173020D01*
X166926200Y-111173020D02*
X166888104Y-111249211D01*
X166888104Y-111249211D02*
X166888104Y-111477782D01*
X166888104Y-111477782D02*
X166926200Y-111553973D01*
X166926200Y-111553973D02*
X166964295Y-111592068D01*
X166888104Y-110334925D02*
X166888104Y-110792068D01*
X166888104Y-110563496D02*
X167688104Y-110563496D01*
X167688104Y-110563496D02*
X167573819Y-110639687D01*
X167573819Y-110639687D02*
X167497628Y-110715877D01*
X167497628Y-110715877D02*
X167459533Y-110792068D01*
X170663104Y-113001591D02*
X171044057Y-113268258D01*
X170663104Y-113458734D02*
X171463104Y-113458734D01*
X171463104Y-113458734D02*
X171463104Y-113153972D01*
X171463104Y-113153972D02*
X171425009Y-113077782D01*
X171425009Y-113077782D02*
X171386914Y-113039687D01*
X171386914Y-113039687D02*
X171310723Y-113001591D01*
X171310723Y-113001591D02*
X171196438Y-113001591D01*
X171196438Y-113001591D02*
X171120247Y-113039687D01*
X171120247Y-113039687D02*
X171082152Y-113077782D01*
X171082152Y-113077782D02*
X171044057Y-113153972D01*
X171044057Y-113153972D02*
X171044057Y-113458734D01*
X171463104Y-112734925D02*
X170663104Y-112201591D01*
X171463104Y-112201591D02*
X170663104Y-112734925D01*
X171988104Y-113458734D02*
X172788104Y-113458734D01*
X172788104Y-113458734D02*
X172216676Y-113192068D01*
X172216676Y-113192068D02*
X172788104Y-112925401D01*
X172788104Y-112925401D02*
X171988104Y-112925401D01*
X171988104Y-112544448D02*
X172788104Y-112544448D01*
X172026200Y-112201592D02*
X171988104Y-112087306D01*
X171988104Y-112087306D02*
X171988104Y-111896830D01*
X171988104Y-111896830D02*
X172026200Y-111820639D01*
X172026200Y-111820639D02*
X172064295Y-111782544D01*
X172064295Y-111782544D02*
X172140485Y-111744449D01*
X172140485Y-111744449D02*
X172216676Y-111744449D01*
X172216676Y-111744449D02*
X172292866Y-111782544D01*
X172292866Y-111782544D02*
X172330961Y-111820639D01*
X172330961Y-111820639D02*
X172369057Y-111896830D01*
X172369057Y-111896830D02*
X172407152Y-112049211D01*
X172407152Y-112049211D02*
X172445247Y-112125401D01*
X172445247Y-112125401D02*
X172483342Y-112163496D01*
X172483342Y-112163496D02*
X172559533Y-112201592D01*
X172559533Y-112201592D02*
X172635723Y-112201592D01*
X172635723Y-112201592D02*
X172711914Y-112163496D01*
X172711914Y-112163496D02*
X172750009Y-112125401D01*
X172750009Y-112125401D02*
X172788104Y-112049211D01*
X172788104Y-112049211D02*
X172788104Y-111858734D01*
X172788104Y-111858734D02*
X172750009Y-111744449D01*
X172788104Y-111249210D02*
X172788104Y-111096829D01*
X172788104Y-111096829D02*
X172750009Y-111020639D01*
X172750009Y-111020639D02*
X172673819Y-110944448D01*
X172673819Y-110944448D02*
X172521438Y-110906353D01*
X172521438Y-110906353D02*
X172254771Y-110906353D01*
X172254771Y-110906353D02*
X172102390Y-110944448D01*
X172102390Y-110944448D02*
X172026200Y-111020639D01*
X172026200Y-111020639D02*
X171988104Y-111096829D01*
X171988104Y-111096829D02*
X171988104Y-111249210D01*
X171988104Y-111249210D02*
X172026200Y-111325401D01*
X172026200Y-111325401D02*
X172102390Y-111401591D01*
X172102390Y-111401591D02*
X172254771Y-111439687D01*
X172254771Y-111439687D02*
X172521438Y-111439687D01*
X172521438Y-111439687D02*
X172673819Y-111401591D01*
X172673819Y-111401591D02*
X172750009Y-111325401D01*
X172750009Y-111325401D02*
X172788104Y-111249210D01*
D11*
X136980112Y-68639931D02*
X136361065Y-68639931D01*
X136361065Y-68639931D02*
X136694398Y-69020883D01*
X136694398Y-69020883D02*
X136551541Y-69020883D01*
X136551541Y-69020883D02*
X136456303Y-69068502D01*
X136456303Y-69068502D02*
X136408684Y-69116121D01*
X136408684Y-69116121D02*
X136361065Y-69211359D01*
X136361065Y-69211359D02*
X136361065Y-69449454D01*
X136361065Y-69449454D02*
X136408684Y-69544692D01*
X136408684Y-69544692D02*
X136456303Y-69592312D01*
X136456303Y-69592312D02*
X136551541Y-69639931D01*
X136551541Y-69639931D02*
X136837255Y-69639931D01*
X136837255Y-69639931D02*
X136932493Y-69592312D01*
X136932493Y-69592312D02*
X136980112Y-69544692D01*
X135932493Y-69544692D02*
X135884874Y-69592312D01*
X135884874Y-69592312D02*
X135932493Y-69639931D01*
X135932493Y-69639931D02*
X135980112Y-69592312D01*
X135980112Y-69592312D02*
X135932493Y-69544692D01*
X135932493Y-69544692D02*
X135932493Y-69639931D01*
X135551541Y-68639931D02*
X134884875Y-68639931D01*
X134884875Y-68639931D02*
X135313446Y-69639931D01*
X134646779Y-68639931D02*
X134313446Y-69639931D01*
X134313446Y-69639931D02*
X133980113Y-68639931D01*
X132361065Y-69639931D02*
X132932493Y-69639931D01*
X132646779Y-69639931D02*
X132646779Y-68639931D01*
X132646779Y-68639931D02*
X132742017Y-68782788D01*
X132742017Y-68782788D02*
X132837255Y-68878026D01*
X132837255Y-68878026D02*
X132932493Y-68925645D01*
X131932493Y-69258978D02*
X131170589Y-69258978D01*
X130122970Y-69544692D02*
X130170589Y-69592312D01*
X130170589Y-69592312D02*
X130313446Y-69639931D01*
X130313446Y-69639931D02*
X130408684Y-69639931D01*
X130408684Y-69639931D02*
X130551541Y-69592312D01*
X130551541Y-69592312D02*
X130646779Y-69497073D01*
X130646779Y-69497073D02*
X130694398Y-69401835D01*
X130694398Y-69401835D02*
X130742017Y-69211359D01*
X130742017Y-69211359D02*
X130742017Y-69068502D01*
X130742017Y-69068502D02*
X130694398Y-68878026D01*
X130694398Y-68878026D02*
X130646779Y-68782788D01*
X130646779Y-68782788D02*
X130551541Y-68687550D01*
X130551541Y-68687550D02*
X130408684Y-68639931D01*
X130408684Y-68639931D02*
X130313446Y-68639931D01*
X130313446Y-68639931D02*
X130170589Y-68687550D01*
X130170589Y-68687550D02*
X130122970Y-68735169D01*
X129694398Y-69116121D02*
X129361065Y-69116121D01*
X129218208Y-69639931D02*
X129694398Y-69639931D01*
X129694398Y-69639931D02*
X129694398Y-68639931D01*
X129694398Y-68639931D02*
X129218208Y-68639931D01*
X128313446Y-69639931D02*
X128789636Y-69639931D01*
X128789636Y-69639931D02*
X128789636Y-68639931D01*
X127503922Y-69639931D02*
X127980112Y-69639931D01*
X127980112Y-69639931D02*
X127980112Y-68639931D01*
X136932494Y-71249875D02*
X137408684Y-71249875D01*
X137408684Y-71249875D02*
X137408684Y-70249875D01*
X136599160Y-71249875D02*
X136599160Y-70583208D01*
X136599160Y-70249875D02*
X136646779Y-70297494D01*
X136646779Y-70297494D02*
X136599160Y-70345113D01*
X136599160Y-70345113D02*
X136551541Y-70297494D01*
X136551541Y-70297494D02*
X136599160Y-70249875D01*
X136599160Y-70249875D02*
X136599160Y-70345113D01*
X136122970Y-70868922D02*
X135361066Y-70868922D01*
X134884875Y-71249875D02*
X134884875Y-70249875D01*
X134884875Y-70249875D02*
X134503923Y-70249875D01*
X134503923Y-70249875D02*
X134408685Y-70297494D01*
X134408685Y-70297494D02*
X134361066Y-70345113D01*
X134361066Y-70345113D02*
X134313447Y-70440351D01*
X134313447Y-70440351D02*
X134313447Y-70583208D01*
X134313447Y-70583208D02*
X134361066Y-70678446D01*
X134361066Y-70678446D02*
X134408685Y-70726065D01*
X134408685Y-70726065D02*
X134503923Y-70773684D01*
X134503923Y-70773684D02*
X134884875Y-70773684D01*
X133742018Y-71249875D02*
X133837256Y-71202256D01*
X133837256Y-71202256D02*
X133884875Y-71154636D01*
X133884875Y-71154636D02*
X133932494Y-71059398D01*
X133932494Y-71059398D02*
X133932494Y-70773684D01*
X133932494Y-70773684D02*
X133884875Y-70678446D01*
X133884875Y-70678446D02*
X133837256Y-70630827D01*
X133837256Y-70630827D02*
X133742018Y-70583208D01*
X133742018Y-70583208D02*
X133599161Y-70583208D01*
X133599161Y-70583208D02*
X133503923Y-70630827D01*
X133503923Y-70630827D02*
X133456304Y-70678446D01*
X133456304Y-70678446D02*
X133408685Y-70773684D01*
X133408685Y-70773684D02*
X133408685Y-71059398D01*
X133408685Y-71059398D02*
X133456304Y-71154636D01*
X133456304Y-71154636D02*
X133503923Y-71202256D01*
X133503923Y-71202256D02*
X133599161Y-71249875D01*
X133599161Y-71249875D02*
X133742018Y-71249875D01*
X132837256Y-71249875D02*
X132932494Y-71202256D01*
X132932494Y-71202256D02*
X132980113Y-71107017D01*
X132980113Y-71107017D02*
X132980113Y-70249875D01*
X132551541Y-70583208D02*
X132313446Y-71249875D01*
X132075351Y-70583208D02*
X132313446Y-71249875D01*
X132313446Y-71249875D02*
X132408684Y-71487970D01*
X132408684Y-71487970D02*
X132456303Y-71535589D01*
X132456303Y-71535589D02*
X132551541Y-71583208D01*
X130742017Y-70249875D02*
X130551541Y-70249875D01*
X130551541Y-70249875D02*
X130456303Y-70297494D01*
X130456303Y-70297494D02*
X130361065Y-70392732D01*
X130361065Y-70392732D02*
X130313446Y-70583208D01*
X130313446Y-70583208D02*
X130313446Y-70916541D01*
X130313446Y-70916541D02*
X130361065Y-71107017D01*
X130361065Y-71107017D02*
X130456303Y-71202256D01*
X130456303Y-71202256D02*
X130551541Y-71249875D01*
X130551541Y-71249875D02*
X130742017Y-71249875D01*
X130742017Y-71249875D02*
X130837255Y-71202256D01*
X130837255Y-71202256D02*
X130932493Y-71107017D01*
X130932493Y-71107017D02*
X130980112Y-70916541D01*
X130980112Y-70916541D02*
X130980112Y-70583208D01*
X130980112Y-70583208D02*
X130932493Y-70392732D01*
X130932493Y-70392732D02*
X130837255Y-70297494D01*
X130837255Y-70297494D02*
X130742017Y-70249875D01*
X129884874Y-71249875D02*
X129884874Y-70249875D01*
X129884874Y-70249875D02*
X129313446Y-71249875D01*
X129313446Y-71249875D02*
X129313446Y-70249875D01*
X128361065Y-71249875D02*
X128837255Y-71249875D01*
X128837255Y-71249875D02*
X128837255Y-70249875D01*
X127837255Y-70773684D02*
X127837255Y-71249875D01*
X128170588Y-70249875D02*
X127837255Y-70773684D01*
X127837255Y-70773684D02*
X127503922Y-70249875D01*
X145646780Y-72193152D02*
X145646780Y-72859819D01*
X145884875Y-71812200D02*
X146122970Y-72526485D01*
X146122970Y-72526485D02*
X145503923Y-72526485D01*
X144932494Y-71859819D02*
X144837256Y-71859819D01*
X144837256Y-71859819D02*
X144742018Y-71907438D01*
X144742018Y-71907438D02*
X144694399Y-71955057D01*
X144694399Y-71955057D02*
X144646780Y-72050295D01*
X144646780Y-72050295D02*
X144599161Y-72240771D01*
X144599161Y-72240771D02*
X144599161Y-72478866D01*
X144599161Y-72478866D02*
X144646780Y-72669342D01*
X144646780Y-72669342D02*
X144694399Y-72764580D01*
X144694399Y-72764580D02*
X144742018Y-72812200D01*
X144742018Y-72812200D02*
X144837256Y-72859819D01*
X144837256Y-72859819D02*
X144932494Y-72859819D01*
X144932494Y-72859819D02*
X145027732Y-72812200D01*
X145027732Y-72812200D02*
X145075351Y-72764580D01*
X145075351Y-72764580D02*
X145122970Y-72669342D01*
X145122970Y-72669342D02*
X145170589Y-72478866D01*
X145170589Y-72478866D02*
X145170589Y-72240771D01*
X145170589Y-72240771D02*
X145122970Y-72050295D01*
X145122970Y-72050295D02*
X145075351Y-71955057D01*
X145075351Y-71955057D02*
X145027732Y-71907438D01*
X145027732Y-71907438D02*
X144932494Y-71859819D01*
X143980113Y-71859819D02*
X143884875Y-71859819D01*
X143884875Y-71859819D02*
X143789637Y-71907438D01*
X143789637Y-71907438D02*
X143742018Y-71955057D01*
X143742018Y-71955057D02*
X143694399Y-72050295D01*
X143694399Y-72050295D02*
X143646780Y-72240771D01*
X143646780Y-72240771D02*
X143646780Y-72478866D01*
X143646780Y-72478866D02*
X143694399Y-72669342D01*
X143694399Y-72669342D02*
X143742018Y-72764580D01*
X143742018Y-72764580D02*
X143789637Y-72812200D01*
X143789637Y-72812200D02*
X143884875Y-72859819D01*
X143884875Y-72859819D02*
X143980113Y-72859819D01*
X143980113Y-72859819D02*
X144075351Y-72812200D01*
X144075351Y-72812200D02*
X144122970Y-72764580D01*
X144122970Y-72764580D02*
X144170589Y-72669342D01*
X144170589Y-72669342D02*
X144218208Y-72478866D01*
X144218208Y-72478866D02*
X144218208Y-72240771D01*
X144218208Y-72240771D02*
X144170589Y-72050295D01*
X144170589Y-72050295D02*
X144122970Y-71955057D01*
X144122970Y-71955057D02*
X144075351Y-71907438D01*
X144075351Y-71907438D02*
X143980113Y-71859819D01*
X143218208Y-72478866D02*
X142456304Y-72478866D01*
X141456304Y-72859819D02*
X142027732Y-72859819D01*
X141742018Y-72859819D02*
X141742018Y-71859819D01*
X141742018Y-71859819D02*
X141837256Y-72002676D01*
X141837256Y-72002676D02*
X141932494Y-72097914D01*
X141932494Y-72097914D02*
X142027732Y-72145533D01*
X140837256Y-71859819D02*
X140742018Y-71859819D01*
X140742018Y-71859819D02*
X140646780Y-71907438D01*
X140646780Y-71907438D02*
X140599161Y-71955057D01*
X140599161Y-71955057D02*
X140551542Y-72050295D01*
X140551542Y-72050295D02*
X140503923Y-72240771D01*
X140503923Y-72240771D02*
X140503923Y-72478866D01*
X140503923Y-72478866D02*
X140551542Y-72669342D01*
X140551542Y-72669342D02*
X140599161Y-72764580D01*
X140599161Y-72764580D02*
X140646780Y-72812200D01*
X140646780Y-72812200D02*
X140742018Y-72859819D01*
X140742018Y-72859819D02*
X140837256Y-72859819D01*
X140837256Y-72859819D02*
X140932494Y-72812200D01*
X140932494Y-72812200D02*
X140980113Y-72764580D01*
X140980113Y-72764580D02*
X141027732Y-72669342D01*
X141027732Y-72669342D02*
X141075351Y-72478866D01*
X141075351Y-72478866D02*
X141075351Y-72240771D01*
X141075351Y-72240771D02*
X141027732Y-72050295D01*
X141027732Y-72050295D02*
X140980113Y-71955057D01*
X140980113Y-71955057D02*
X140932494Y-71907438D01*
X140932494Y-71907438D02*
X140837256Y-71859819D01*
X139884875Y-71859819D02*
X139789637Y-71859819D01*
X139789637Y-71859819D02*
X139694399Y-71907438D01*
X139694399Y-71907438D02*
X139646780Y-71955057D01*
X139646780Y-71955057D02*
X139599161Y-72050295D01*
X139599161Y-72050295D02*
X139551542Y-72240771D01*
X139551542Y-72240771D02*
X139551542Y-72478866D01*
X139551542Y-72478866D02*
X139599161Y-72669342D01*
X139599161Y-72669342D02*
X139646780Y-72764580D01*
X139646780Y-72764580D02*
X139694399Y-72812200D01*
X139694399Y-72812200D02*
X139789637Y-72859819D01*
X139789637Y-72859819D02*
X139884875Y-72859819D01*
X139884875Y-72859819D02*
X139980113Y-72812200D01*
X139980113Y-72812200D02*
X140027732Y-72764580D01*
X140027732Y-72764580D02*
X140075351Y-72669342D01*
X140075351Y-72669342D02*
X140122970Y-72478866D01*
X140122970Y-72478866D02*
X140122970Y-72240771D01*
X140122970Y-72240771D02*
X140075351Y-72050295D01*
X140075351Y-72050295D02*
X140027732Y-71955057D01*
X140027732Y-71955057D02*
X139980113Y-71907438D01*
X139980113Y-71907438D02*
X139884875Y-71859819D01*
X138932494Y-71859819D02*
X138837256Y-71859819D01*
X138837256Y-71859819D02*
X138742018Y-71907438D01*
X138742018Y-71907438D02*
X138694399Y-71955057D01*
X138694399Y-71955057D02*
X138646780Y-72050295D01*
X138646780Y-72050295D02*
X138599161Y-72240771D01*
X138599161Y-72240771D02*
X138599161Y-72478866D01*
X138599161Y-72478866D02*
X138646780Y-72669342D01*
X138646780Y-72669342D02*
X138694399Y-72764580D01*
X138694399Y-72764580D02*
X138742018Y-72812200D01*
X138742018Y-72812200D02*
X138837256Y-72859819D01*
X138837256Y-72859819D02*
X138932494Y-72859819D01*
X138932494Y-72859819D02*
X139027732Y-72812200D01*
X139027732Y-72812200D02*
X139075351Y-72764580D01*
X139075351Y-72764580D02*
X139122970Y-72669342D01*
X139122970Y-72669342D02*
X139170589Y-72478866D01*
X139170589Y-72478866D02*
X139170589Y-72240771D01*
X139170589Y-72240771D02*
X139122970Y-72050295D01*
X139122970Y-72050295D02*
X139075351Y-71955057D01*
X139075351Y-71955057D02*
X139027732Y-71907438D01*
X139027732Y-71907438D02*
X138932494Y-71859819D01*
X137408684Y-72859819D02*
X137408684Y-72193152D01*
X137408684Y-72288390D02*
X137361065Y-72240771D01*
X137361065Y-72240771D02*
X137265827Y-72193152D01*
X137265827Y-72193152D02*
X137122970Y-72193152D01*
X137122970Y-72193152D02*
X137027732Y-72240771D01*
X137027732Y-72240771D02*
X136980113Y-72336009D01*
X136980113Y-72336009D02*
X136980113Y-72859819D01*
X136980113Y-72336009D02*
X136932494Y-72240771D01*
X136932494Y-72240771D02*
X136837256Y-72193152D01*
X136837256Y-72193152D02*
X136694399Y-72193152D01*
X136694399Y-72193152D02*
X136599160Y-72240771D01*
X136599160Y-72240771D02*
X136551541Y-72336009D01*
X136551541Y-72336009D02*
X136551541Y-72859819D01*
X136122970Y-72574104D02*
X135646780Y-72574104D01*
X136218208Y-72859819D02*
X135884875Y-71859819D01*
X135884875Y-71859819D02*
X135551542Y-72859819D01*
X135218208Y-72859819D02*
X135218208Y-71859819D01*
X135218208Y-72336009D02*
X134646780Y-72336009D01*
X134646780Y-72859819D02*
X134646780Y-71859819D01*
X132980113Y-72812200D02*
X133075351Y-72859819D01*
X133075351Y-72859819D02*
X133265827Y-72859819D01*
X133265827Y-72859819D02*
X133361065Y-72812200D01*
X133361065Y-72812200D02*
X133408684Y-72764580D01*
X133408684Y-72764580D02*
X133456303Y-72669342D01*
X133456303Y-72669342D02*
X133456303Y-72383628D01*
X133456303Y-72383628D02*
X133408684Y-72288390D01*
X133408684Y-72288390D02*
X133361065Y-72240771D01*
X133361065Y-72240771D02*
X133265827Y-72193152D01*
X133265827Y-72193152D02*
X133075351Y-72193152D01*
X133075351Y-72193152D02*
X132980113Y-72240771D01*
X132122970Y-72859819D02*
X132122970Y-72336009D01*
X132122970Y-72336009D02*
X132170589Y-72240771D01*
X132170589Y-72240771D02*
X132265827Y-72193152D01*
X132265827Y-72193152D02*
X132456303Y-72193152D01*
X132456303Y-72193152D02*
X132551541Y-72240771D01*
X132122970Y-72812200D02*
X132218208Y-72859819D01*
X132218208Y-72859819D02*
X132456303Y-72859819D01*
X132456303Y-72859819D02*
X132551541Y-72812200D01*
X132551541Y-72812200D02*
X132599160Y-72716961D01*
X132599160Y-72716961D02*
X132599160Y-72621723D01*
X132599160Y-72621723D02*
X132551541Y-72526485D01*
X132551541Y-72526485D02*
X132456303Y-72478866D01*
X132456303Y-72478866D02*
X132218208Y-72478866D01*
X132218208Y-72478866D02*
X132122970Y-72431247D01*
X131646779Y-72193152D02*
X131646779Y-73193152D01*
X131646779Y-72240771D02*
X131551541Y-72193152D01*
X131551541Y-72193152D02*
X131361065Y-72193152D01*
X131361065Y-72193152D02*
X131265827Y-72240771D01*
X131265827Y-72240771D02*
X131218208Y-72288390D01*
X131218208Y-72288390D02*
X131170589Y-72383628D01*
X131170589Y-72383628D02*
X131170589Y-72669342D01*
X131170589Y-72669342D02*
X131218208Y-72764580D01*
X131218208Y-72764580D02*
X131265827Y-72812200D01*
X131265827Y-72812200D02*
X131361065Y-72859819D01*
X131361065Y-72859819D02*
X131551541Y-72859819D01*
X131551541Y-72859819D02*
X131646779Y-72812200D01*
X130313446Y-72859819D02*
X130313446Y-72336009D01*
X130313446Y-72336009D02*
X130361065Y-72240771D01*
X130361065Y-72240771D02*
X130456303Y-72193152D01*
X130456303Y-72193152D02*
X130646779Y-72193152D01*
X130646779Y-72193152D02*
X130742017Y-72240771D01*
X130313446Y-72812200D02*
X130408684Y-72859819D01*
X130408684Y-72859819D02*
X130646779Y-72859819D01*
X130646779Y-72859819D02*
X130742017Y-72812200D01*
X130742017Y-72812200D02*
X130789636Y-72716961D01*
X130789636Y-72716961D02*
X130789636Y-72621723D01*
X130789636Y-72621723D02*
X130742017Y-72526485D01*
X130742017Y-72526485D02*
X130646779Y-72478866D01*
X130646779Y-72478866D02*
X130408684Y-72478866D01*
X130408684Y-72478866D02*
X130313446Y-72431247D01*
X129408684Y-72812200D02*
X129503922Y-72859819D01*
X129503922Y-72859819D02*
X129694398Y-72859819D01*
X129694398Y-72859819D02*
X129789636Y-72812200D01*
X129789636Y-72812200D02*
X129837255Y-72764580D01*
X129837255Y-72764580D02*
X129884874Y-72669342D01*
X129884874Y-72669342D02*
X129884874Y-72383628D01*
X129884874Y-72383628D02*
X129837255Y-72288390D01*
X129837255Y-72288390D02*
X129789636Y-72240771D01*
X129789636Y-72240771D02*
X129694398Y-72193152D01*
X129694398Y-72193152D02*
X129503922Y-72193152D01*
X129503922Y-72193152D02*
X129408684Y-72240771D01*
X128980112Y-72859819D02*
X128980112Y-72193152D01*
X128980112Y-71859819D02*
X129027731Y-71907438D01*
X129027731Y-71907438D02*
X128980112Y-71955057D01*
X128980112Y-71955057D02*
X128932493Y-71907438D01*
X128932493Y-71907438D02*
X128980112Y-71859819D01*
X128980112Y-71859819D02*
X128980112Y-71955057D01*
X128646779Y-72193152D02*
X128265827Y-72193152D01*
X128503922Y-71859819D02*
X128503922Y-72716961D01*
X128503922Y-72716961D02*
X128456303Y-72812200D01*
X128456303Y-72812200D02*
X128361065Y-72859819D01*
X128361065Y-72859819D02*
X128265827Y-72859819D01*
X128027731Y-72193152D02*
X127789636Y-72859819D01*
X127551541Y-72193152D02*
X127789636Y-72859819D01*
X127789636Y-72859819D02*
X127884874Y-73097914D01*
X127884874Y-73097914D02*
X127932493Y-73145533D01*
X127932493Y-73145533D02*
X128027731Y-73193152D01*
D10*
X170138104Y-113573020D02*
X170138104Y-113115877D01*
X169338104Y-113344449D02*
X170138104Y-113344449D01*
X170138104Y-112925401D02*
X169338104Y-112392067D01*
X170138104Y-112392067D02*
X169338104Y-112925401D01*
X168963104Y-113534925D02*
X168963104Y-113039687D01*
X168963104Y-113039687D02*
X168658342Y-113306353D01*
X168658342Y-113306353D02*
X168658342Y-113192068D01*
X168658342Y-113192068D02*
X168620247Y-113115877D01*
X168620247Y-113115877D02*
X168582152Y-113077782D01*
X168582152Y-113077782D02*
X168505961Y-113039687D01*
X168505961Y-113039687D02*
X168315485Y-113039687D01*
X168315485Y-113039687D02*
X168239295Y-113077782D01*
X168239295Y-113077782D02*
X168201200Y-113115877D01*
X168201200Y-113115877D02*
X168163104Y-113192068D01*
X168163104Y-113192068D02*
X168163104Y-113420639D01*
X168163104Y-113420639D02*
X168201200Y-113496830D01*
X168201200Y-113496830D02*
X168239295Y-113534925D01*
X168963104Y-112811115D02*
X168163104Y-112544448D01*
X168163104Y-112544448D02*
X168963104Y-112277782D01*
X168963104Y-112087306D02*
X168963104Y-111592068D01*
X168963104Y-111592068D02*
X168658342Y-111858734D01*
X168658342Y-111858734D02*
X168658342Y-111744449D01*
X168658342Y-111744449D02*
X168620247Y-111668258D01*
X168620247Y-111668258D02*
X168582152Y-111630163D01*
X168582152Y-111630163D02*
X168505961Y-111592068D01*
X168505961Y-111592068D02*
X168315485Y-111592068D01*
X168315485Y-111592068D02*
X168239295Y-111630163D01*
X168239295Y-111630163D02*
X168201200Y-111668258D01*
X168201200Y-111668258D02*
X168163104Y-111744449D01*
X168163104Y-111744449D02*
X168163104Y-111973020D01*
X168163104Y-111973020D02*
X168201200Y-112049211D01*
X168201200Y-112049211D02*
X168239295Y-112087306D01*
X160056115Y-106037419D02*
X160056115Y-105037419D01*
X160056115Y-105037419D02*
X159484687Y-106037419D01*
X159484687Y-106037419D02*
X159484687Y-105037419D01*
X159008496Y-105513609D02*
X158675163Y-105513609D01*
X158532306Y-106037419D02*
X159008496Y-106037419D01*
X159008496Y-106037419D02*
X159008496Y-105037419D01*
X159008496Y-105037419D02*
X158532306Y-105037419D01*
X158246591Y-105037419D02*
X157675163Y-105037419D01*
X157960877Y-106037419D02*
X157960877Y-105037419D01*
X157579925Y-106132657D02*
X156818020Y-106132657D01*
X156008496Y-106037419D02*
X156341829Y-105561228D01*
X156579924Y-106037419D02*
X156579924Y-105037419D01*
X156579924Y-105037419D02*
X156198972Y-105037419D01*
X156198972Y-105037419D02*
X156103734Y-105085038D01*
X156103734Y-105085038D02*
X156056115Y-105132657D01*
X156056115Y-105132657D02*
X156008496Y-105227895D01*
X156008496Y-105227895D02*
X156008496Y-105370752D01*
X156008496Y-105370752D02*
X156056115Y-105465990D01*
X156056115Y-105465990D02*
X156103734Y-105513609D01*
X156103734Y-105513609D02*
X156198972Y-105561228D01*
X156198972Y-105561228D02*
X156579924Y-105561228D01*
X155675162Y-105037419D02*
X155008496Y-106037419D01*
X155008496Y-105037419D02*
X155675162Y-106037419D01*
X159818020Y-108137419D02*
X159818020Y-107137419D01*
X159818020Y-107137419D02*
X159246592Y-108137419D01*
X159246592Y-108137419D02*
X159246592Y-107137419D01*
X158770401Y-107613609D02*
X158437068Y-107613609D01*
X158294211Y-108137419D02*
X158770401Y-108137419D01*
X158770401Y-108137419D02*
X158770401Y-107137419D01*
X158770401Y-107137419D02*
X158294211Y-107137419D01*
X158008496Y-107137419D02*
X157437068Y-107137419D01*
X157722782Y-108137419D02*
X157722782Y-107137419D01*
X157341830Y-108232657D02*
X156579925Y-108232657D01*
X156484686Y-107137419D02*
X155913258Y-107137419D01*
X156198972Y-108137419D02*
X156198972Y-107137419D01*
X155675162Y-107137419D02*
X155008496Y-108137419D01*
X155008496Y-107137419D02*
X155675162Y-108137419D01*
X174551200Y-113496830D02*
X174513104Y-113382544D01*
X174513104Y-113382544D02*
X174513104Y-113192068D01*
X174513104Y-113192068D02*
X174551200Y-113115877D01*
X174551200Y-113115877D02*
X174589295Y-113077782D01*
X174589295Y-113077782D02*
X174665485Y-113039687D01*
X174665485Y-113039687D02*
X174741676Y-113039687D01*
X174741676Y-113039687D02*
X174817866Y-113077782D01*
X174817866Y-113077782D02*
X174855961Y-113115877D01*
X174855961Y-113115877D02*
X174894057Y-113192068D01*
X174894057Y-113192068D02*
X174932152Y-113344449D01*
X174932152Y-113344449D02*
X174970247Y-113420639D01*
X174970247Y-113420639D02*
X175008342Y-113458734D01*
X175008342Y-113458734D02*
X175084533Y-113496830D01*
X175084533Y-113496830D02*
X175160723Y-113496830D01*
X175160723Y-113496830D02*
X175236914Y-113458734D01*
X175236914Y-113458734D02*
X175275009Y-113420639D01*
X175275009Y-113420639D02*
X175313104Y-113344449D01*
X175313104Y-113344449D02*
X175313104Y-113153972D01*
X175313104Y-113153972D02*
X175275009Y-113039687D01*
X174589295Y-112239686D02*
X174551200Y-112277782D01*
X174551200Y-112277782D02*
X174513104Y-112392067D01*
X174513104Y-112392067D02*
X174513104Y-112468258D01*
X174513104Y-112468258D02*
X174551200Y-112582544D01*
X174551200Y-112582544D02*
X174627390Y-112658734D01*
X174627390Y-112658734D02*
X174703580Y-112696829D01*
X174703580Y-112696829D02*
X174855961Y-112734925D01*
X174855961Y-112734925D02*
X174970247Y-112734925D01*
X174970247Y-112734925D02*
X175122628Y-112696829D01*
X175122628Y-112696829D02*
X175198819Y-112658734D01*
X175198819Y-112658734D02*
X175275009Y-112582544D01*
X175275009Y-112582544D02*
X175313104Y-112468258D01*
X175313104Y-112468258D02*
X175313104Y-112392067D01*
X175313104Y-112392067D02*
X175275009Y-112277782D01*
X175275009Y-112277782D02*
X175236914Y-112239686D01*
X174513104Y-111896829D02*
X175313104Y-111896829D01*
X174513104Y-111439686D02*
X174970247Y-111782544D01*
X175313104Y-111439686D02*
X174855961Y-111896829D01*
X176550009Y-113039687D02*
X176588104Y-113115877D01*
X176588104Y-113115877D02*
X176588104Y-113230163D01*
X176588104Y-113230163D02*
X176550009Y-113344449D01*
X176550009Y-113344449D02*
X176473819Y-113420639D01*
X176473819Y-113420639D02*
X176397628Y-113458734D01*
X176397628Y-113458734D02*
X176245247Y-113496830D01*
X176245247Y-113496830D02*
X176130961Y-113496830D01*
X176130961Y-113496830D02*
X175978580Y-113458734D01*
X175978580Y-113458734D02*
X175902390Y-113420639D01*
X175902390Y-113420639D02*
X175826200Y-113344449D01*
X175826200Y-113344449D02*
X175788104Y-113230163D01*
X175788104Y-113230163D02*
X175788104Y-113153972D01*
X175788104Y-113153972D02*
X175826200Y-113039687D01*
X175826200Y-113039687D02*
X175864295Y-113001591D01*
X175864295Y-113001591D02*
X176130961Y-113001591D01*
X176130961Y-113001591D02*
X176130961Y-113153972D01*
X175788104Y-112658734D02*
X176588104Y-112658734D01*
X176588104Y-112658734D02*
X175788104Y-112201591D01*
X175788104Y-112201591D02*
X176588104Y-112201591D01*
X175788104Y-111820639D02*
X176588104Y-111820639D01*
X176588104Y-111820639D02*
X176588104Y-111630163D01*
X176588104Y-111630163D02*
X176550009Y-111515877D01*
X176550009Y-111515877D02*
X176473819Y-111439687D01*
X176473819Y-111439687D02*
X176397628Y-111401592D01*
X176397628Y-111401592D02*
X176245247Y-111363496D01*
X176245247Y-111363496D02*
X176130961Y-111363496D01*
X176130961Y-111363496D02*
X175978580Y-111401592D01*
X175978580Y-111401592D02*
X175902390Y-111439687D01*
X175902390Y-111439687D02*
X175826200Y-111515877D01*
X175826200Y-111515877D02*
X175788104Y-111630163D01*
X175788104Y-111630163D02*
X175788104Y-111820639D01*
D11*
X134726667Y-106739200D02*
X134612381Y-106777295D01*
X134612381Y-106777295D02*
X134421905Y-106777295D01*
X134421905Y-106777295D02*
X134345714Y-106739200D01*
X134345714Y-106739200D02*
X134307619Y-106701104D01*
X134307619Y-106701104D02*
X134269524Y-106624914D01*
X134269524Y-106624914D02*
X134269524Y-106548723D01*
X134269524Y-106548723D02*
X134307619Y-106472533D01*
X134307619Y-106472533D02*
X134345714Y-106434438D01*
X134345714Y-106434438D02*
X134421905Y-106396342D01*
X134421905Y-106396342D02*
X134574286Y-106358247D01*
X134574286Y-106358247D02*
X134650476Y-106320152D01*
X134650476Y-106320152D02*
X134688571Y-106282057D01*
X134688571Y-106282057D02*
X134726667Y-106205866D01*
X134726667Y-106205866D02*
X134726667Y-106129676D01*
X134726667Y-106129676D02*
X134688571Y-106053485D01*
X134688571Y-106053485D02*
X134650476Y-106015390D01*
X134650476Y-106015390D02*
X134574286Y-105977295D01*
X134574286Y-105977295D02*
X134383809Y-105977295D01*
X134383809Y-105977295D02*
X134269524Y-106015390D01*
X134002857Y-105977295D02*
X133812381Y-106777295D01*
X133812381Y-106777295D02*
X133660000Y-106205866D01*
X133660000Y-106205866D02*
X133507619Y-106777295D01*
X133507619Y-106777295D02*
X133317143Y-105977295D01*
X132593333Y-106777295D02*
X133050476Y-106777295D01*
X132821904Y-106777295D02*
X132821904Y-105977295D01*
X132821904Y-105977295D02*
X132898095Y-106091580D01*
X132898095Y-106091580D02*
X132974285Y-106167771D01*
X132974285Y-106167771D02*
X133050476Y-106205866D01*
X168872030Y-81170295D02*
X168338696Y-81970295D01*
X168338696Y-81170295D02*
X168872030Y-81970295D01*
X167614887Y-81970295D02*
X168072030Y-81970295D01*
X167843458Y-81970295D02*
X167843458Y-81170295D01*
X167843458Y-81170295D02*
X167919649Y-81284580D01*
X167919649Y-81284580D02*
X167995839Y-81360771D01*
X167995839Y-81360771D02*
X168072030Y-81398866D01*
X147251175Y-101312767D02*
X147143425Y-101258892D01*
X147143425Y-101258892D02*
X147089550Y-101258892D01*
X147089550Y-101258892D02*
X147008738Y-101285829D01*
X147008738Y-101285829D02*
X146927926Y-101366641D01*
X146927926Y-101366641D02*
X146900988Y-101447454D01*
X146900988Y-101447454D02*
X146900988Y-101501328D01*
X146900988Y-101501328D02*
X146927926Y-101582141D01*
X146927926Y-101582141D02*
X147143425Y-101797640D01*
X147143425Y-101797640D02*
X147709110Y-101231954D01*
X147709110Y-101231954D02*
X147520549Y-101043393D01*
X147520549Y-101043393D02*
X147439736Y-101016455D01*
X147439736Y-101016455D02*
X147385862Y-101016455D01*
X147385862Y-101016455D02*
X147305049Y-101043393D01*
X147305049Y-101043393D02*
X147251175Y-101097267D01*
X147251175Y-101097267D02*
X147224237Y-101178080D01*
X147224237Y-101178080D02*
X147224237Y-101231954D01*
X147224237Y-101231954D02*
X147251175Y-101312767D01*
X147251175Y-101312767D02*
X147439736Y-101501328D01*
X146281428Y-100935643D02*
X146604677Y-101258892D01*
X146443053Y-101097267D02*
X147008738Y-100531582D01*
X147008738Y-100531582D02*
X146981801Y-100666269D01*
X146981801Y-100666269D02*
X146981801Y-100774019D01*
X146981801Y-100774019D02*
X147008738Y-100854831D01*
X138826666Y-81552295D02*
X138826666Y-82123723D01*
X138826666Y-82123723D02*
X138864761Y-82238009D01*
X138864761Y-82238009D02*
X138940952Y-82314200D01*
X138940952Y-82314200D02*
X139055237Y-82352295D01*
X139055237Y-82352295D02*
X139131428Y-82352295D01*
X138026666Y-82352295D02*
X138483809Y-82352295D01*
X138255237Y-82352295D02*
X138255237Y-81552295D01*
X138255237Y-81552295D02*
X138331428Y-81666580D01*
X138331428Y-81666580D02*
X138407618Y-81742771D01*
X138407618Y-81742771D02*
X138483809Y-81780866D01*
D10*
X152494523Y-107229895D02*
X152037380Y-107229895D01*
X152265952Y-108029895D02*
X152265952Y-107229895D01*
X151770713Y-108029895D02*
X151770713Y-107229895D01*
X151770713Y-107229895D02*
X151465951Y-107229895D01*
X151465951Y-107229895D02*
X151389761Y-107267990D01*
X151389761Y-107267990D02*
X151351666Y-107306085D01*
X151351666Y-107306085D02*
X151313570Y-107382276D01*
X151313570Y-107382276D02*
X151313570Y-107496561D01*
X151313570Y-107496561D02*
X151351666Y-107572752D01*
X151351666Y-107572752D02*
X151389761Y-107610847D01*
X151389761Y-107610847D02*
X151465951Y-107648942D01*
X151465951Y-107648942D02*
X151770713Y-107648942D01*
X150551666Y-108029895D02*
X151008809Y-108029895D01*
X150780237Y-108029895D02*
X150780237Y-107229895D01*
X150780237Y-107229895D02*
X150856428Y-107344180D01*
X150856428Y-107344180D02*
X150932618Y-107420371D01*
X150932618Y-107420371D02*
X151008809Y-107458466D01*
X152469523Y-105204895D02*
X152012380Y-105204895D01*
X152240952Y-106004895D02*
X152240952Y-105204895D01*
X151745713Y-106004895D02*
X151745713Y-105204895D01*
X151745713Y-105204895D02*
X151440951Y-105204895D01*
X151440951Y-105204895D02*
X151364761Y-105242990D01*
X151364761Y-105242990D02*
X151326666Y-105281085D01*
X151326666Y-105281085D02*
X151288570Y-105357276D01*
X151288570Y-105357276D02*
X151288570Y-105471561D01*
X151288570Y-105471561D02*
X151326666Y-105547752D01*
X151326666Y-105547752D02*
X151364761Y-105585847D01*
X151364761Y-105585847D02*
X151440951Y-105623942D01*
X151440951Y-105623942D02*
X151745713Y-105623942D01*
X150983809Y-105281085D02*
X150945713Y-105242990D01*
X150945713Y-105242990D02*
X150869523Y-105204895D01*
X150869523Y-105204895D02*
X150679047Y-105204895D01*
X150679047Y-105204895D02*
X150602856Y-105242990D01*
X150602856Y-105242990D02*
X150564761Y-105281085D01*
X150564761Y-105281085D02*
X150526666Y-105357276D01*
X150526666Y-105357276D02*
X150526666Y-105433466D01*
X150526666Y-105433466D02*
X150564761Y-105547752D01*
X150564761Y-105547752D02*
X151021904Y-106004895D01*
X151021904Y-106004895D02*
X150526666Y-106004895D01*
D12*
%TO.C,X1*%
X168670000Y-82290000D02*
X169170000Y-82290000D01*
X168670000Y-82940000D02*
X168670000Y-82290000D01*
X168670000Y-85240000D02*
X168670000Y-88940000D01*
X168670000Y-91190000D02*
X168670000Y-96240000D01*
X168670000Y-96240000D02*
X182020000Y-96240000D01*
X169170000Y-82040000D02*
X181120000Y-82040000D01*
X169170000Y-82290000D02*
X169170000Y-82040000D01*
D13*
%TO.C,B1*%
X133131825Y-93091472D02*
X133343957Y-91889390D01*
X133131825Y-94222843D02*
X133131825Y-93091472D01*
X133343957Y-91889390D02*
X133768222Y-90616598D01*
X133343957Y-95566346D02*
X133131825Y-94222843D01*
X133768222Y-90616598D02*
X134475328Y-89343806D01*
X133768222Y-96980559D02*
X133343957Y-95566346D01*
X134475328Y-89343806D02*
X135253146Y-88283146D01*
X134475328Y-98253351D02*
X133768222Y-96980559D01*
X135253146Y-88283146D02*
X136172385Y-87505328D01*
X136172385Y-87505328D02*
X137303755Y-86798222D01*
X136808781Y-100303961D02*
X137586598Y-100798936D01*
X137233045Y-86868932D02*
X138647258Y-86161825D01*
X137586598Y-100798936D02*
X138576548Y-101223200D01*
X138576548Y-101223200D02*
X139637208Y-101576753D01*
X138682614Y-86126470D02*
X140910000Y-83899084D01*
X139637208Y-101576753D02*
X140980711Y-101647464D01*
X140910000Y-83899084D02*
X143172742Y-86161825D01*
X140980711Y-101647464D02*
X142182792Y-101576753D01*
X142182792Y-101576753D02*
X143526295Y-101223200D01*
X143172742Y-86161825D02*
X144233402Y-86515379D01*
X143526295Y-101223200D02*
X144586955Y-100869646D01*
X144233402Y-86515379D02*
X145294062Y-87151775D01*
X144586955Y-100869646D02*
X145930458Y-100091829D01*
X145930458Y-100091829D02*
X146991118Y-99031169D01*
X146991118Y-99031169D02*
X147768936Y-97970509D01*
X147768936Y-97970509D02*
X148688175Y-96202742D01*
X147910357Y-89768070D02*
X147627514Y-89485227D01*
X148334621Y-90616598D02*
X147910357Y-89768070D01*
X148617464Y-91606548D02*
X148334621Y-90616598D01*
X148723530Y-96167386D02*
X150950916Y-93940000D01*
X150950916Y-93940000D02*
X148617464Y-91606548D01*
D14*
%TO.C,J1*%
X129060000Y-82390000D02*
X129060000Y-86390000D01*
X129060000Y-86390000D02*
X129910000Y-86390000D01*
X129910000Y-83890000D02*
X131310000Y-83890000D01*
X129910000Y-86390000D02*
X129910000Y-83890000D01*
X134810000Y-83890000D02*
X136210000Y-83890000D01*
X135310000Y-78890000D02*
X130810000Y-78890000D01*
X136210000Y-83890000D02*
X136210000Y-86390000D01*
X136210000Y-86390000D02*
X137060000Y-86390000D01*
X137060000Y-86390000D02*
X137060000Y-82390000D01*
D15*
%TO.C,TP1*%
X153060000Y-106940000D02*
X153060000Y-108340000D01*
X153060000Y-108340000D02*
X154460000Y-108340000D01*
X154460000Y-106940000D02*
X153060000Y-106940000D01*
X154460000Y-108340000D02*
X154460000Y-106940000D01*
%TO.C,TP2*%
X153085000Y-104865000D02*
X153085000Y-106265000D01*
X153085000Y-106265000D02*
X154485000Y-106265000D01*
X154485000Y-104865000D02*
X153085000Y-104865000D01*
X154485000Y-106265000D02*
X154485000Y-104865000D01*
%TD*%
M02*
