%TF.GenerationSoftware,KiCad,Pcbnew,9.0.0-rc1*%
%TF.CreationDate,2025-02-03T21:42:01-06:00*%
%TF.ProjectId,tempo,74656d70-6f2e-46b6-9963-61645f706362,rev?*%
%TF.SameCoordinates,Original*%
%TF.FileFunction,Soldermask,Top*%
%TF.FilePolarity,Negative*%
%FSLAX46Y46*%
G04 Gerber Fmt 4.6, Leading zero omitted, Abs format (unit mm)*
G04 Created by KiCad (PCBNEW 9.0.0-rc1) date 2025-02-03 21:42:01*
%MOMM*%
%LPD*%
G01*
G04 APERTURE LIST*
G04 Aperture macros list*
%AMRoundRect*
0 Rectangle with rounded corners*
0 $1 Rounding radius*
0 $2 $3 $4 $5 $6 $7 $8 $9 X,Y pos of 4 corners*
0 Add a 4 corners polygon primitive as box body*
4,1,4,$2,$3,$4,$5,$6,$7,$8,$9,$2,$3,0*
0 Add four circle primitives for the rounded corners*
1,1,$1+$1,$2,$3*
1,1,$1+$1,$4,$5*
1,1,$1+$1,$6,$7*
1,1,$1+$1,$8,$9*
0 Add four rect primitives between the rounded corners*
20,1,$1+$1,$2,$3,$4,$5,0*
20,1,$1+$1,$4,$5,$6,$7,0*
20,1,$1+$1,$6,$7,$8,$9,0*
20,1,$1+$1,$8,$9,$2,$3,0*%
G04 Aperture macros list end*
%ADD10C,0.100000*%
%ADD11C,0.010000*%
%ADD12RoundRect,0.140000X-0.140000X-0.170000X0.140000X-0.170000X0.140000X0.170000X-0.140000X0.170000X0*%
%ADD13RoundRect,0.225000X0.225000X0.250000X-0.225000X0.250000X-0.225000X-0.250000X0.225000X-0.250000X0*%
%ADD14RoundRect,0.225000X-0.225000X-0.250000X0.225000X-0.250000X0.225000X0.250000X-0.225000X0.250000X0*%
%ADD15C,1.203200*%
%ADD16RoundRect,0.135000X0.135000X0.185000X-0.135000X0.185000X-0.135000X-0.185000X0.135000X-0.185000X0*%
%ADD17RoundRect,0.200000X0.200000X0.275000X-0.200000X0.275000X-0.200000X-0.275000X0.200000X-0.275000X0*%
%ADD18RoundRect,0.101600X0.275000X0.600000X-0.275000X0.600000X-0.275000X-0.600000X0.275000X-0.600000X0*%
%ADD19RoundRect,0.125000X-0.125000X0.262500X-0.125000X-0.262500X0.125000X-0.262500X0.125000X0.262500X0*%
%ADD20R,4.000000X3.400000*%
%ADD21RoundRect,0.101600X-0.675000X0.300000X-0.675000X-0.300000X0.675000X-0.300000X0.675000X0.300000X0*%
%ADD22RoundRect,0.101600X-1.000000X0.600000X-1.000000X-0.600000X1.000000X-0.600000X1.000000X0.600000X0*%
%ADD23RoundRect,0.101600X-0.415000X0.315000X-0.415000X-0.315000X0.415000X-0.315000X0.415000X0.315000X0*%
%ADD24R,1.000000X1.000000*%
%ADD25RoundRect,0.062500X-0.062500X0.117500X-0.062500X-0.117500X0.062500X-0.117500X0.062500X0.117500X0*%
%ADD26O,1.000000X1.000000*%
%ADD27RoundRect,0.101600X0.500000X-0.550000X0.500000X0.550000X-0.500000X0.550000X-0.500000X-0.550000X0*%
%ADD28RoundRect,0.101600X-0.500000X0.550000X-0.500000X-0.550000X0.500000X-0.550000X0.500000X0.550000X0*%
%ADD29C,3.048000*%
%ADD30RoundRect,0.225000X-0.250000X0.225000X-0.250000X-0.225000X0.250000X-0.225000X0.250000X0.225000X0*%
%ADD31RoundRect,0.101600X-0.550000X-0.950000X0.550000X-0.950000X0.550000X0.950000X-0.550000X0.950000X0*%
%ADD32RoundRect,0.102000X-0.300000X0.300000X-0.300000X-0.300000X0.300000X-0.300000X0.300000X0.300000X0*%
%ADD33RoundRect,0.225000X0.250000X-0.225000X0.250000X0.225000X-0.250000X0.225000X-0.250000X-0.225000X0*%
%ADD34C,0.650000*%
%ADD35R,1.250000X0.600000*%
%ADD36R,1.250000X0.300000*%
%ADD37O,2.304000X1.204000*%
%ADD38O,2.004000X1.204000*%
%ADD39RoundRect,0.135000X0.185000X-0.135000X0.185000X0.135000X-0.185000X0.135000X-0.185000X-0.135000X0*%
%ADD40RoundRect,0.101600X-0.600000X0.400000X-0.600000X-0.400000X0.600000X-0.400000X0.600000X0.400000X0*%
%ADD41RoundRect,0.180480X-0.421120X-0.421120X0.421120X-0.421120X0.421120X0.421120X-0.421120X0.421120X0*%
%ADD42C,0.900000*%
%ADD43RoundRect,0.210000X0.490000X0.540000X-0.490000X0.540000X-0.490000X-0.540000X0.490000X-0.540000X0*%
%ADD44R,0.650000X0.850000*%
%ADD45RoundRect,0.218750X-0.218750X-0.256250X0.218750X-0.256250X0.218750X0.256250X-0.218750X0.256250X0*%
%ADD46RoundRect,0.101600X0.550000X0.500000X-0.550000X0.500000X-0.550000X-0.500000X0.550000X-0.500000X0*%
%ADD47R,0.254000X0.279400*%
%ADD48R,0.279400X0.254000*%
%ADD49RoundRect,0.101600X-0.275000X-0.600000X0.275000X-0.600000X0.275000X0.600000X-0.275000X0.600000X0*%
%ADD50R,1.000000X0.900000*%
%ADD51RoundRect,0.243750X0.456250X-0.243750X0.456250X0.243750X-0.456250X0.243750X-0.456250X-0.243750X0*%
%ADD52RoundRect,0.101600X0.400000X0.450000X-0.400000X0.450000X-0.400000X-0.450000X0.400000X-0.450000X0*%
%ADD53R,0.304800X0.457200*%
%ADD54R,0.457200X0.304800*%
%ADD55C,1.200000*%
%ADD56C,1.070000*%
%ADD57C,1.400000*%
G04 APERTURE END LIST*
D10*
%TO.C,U4*%
X150335000Y-101365000D02*
X148085000Y-101365000D01*
X148085000Y-98615000D01*
X150335000Y-98615000D01*
X150335000Y-101365000D01*
G36*
X150335000Y-101365000D02*
G01*
X148085000Y-101365000D01*
X148085000Y-98615000D01*
X150335000Y-98615000D01*
X150335000Y-101365000D01*
G37*
D11*
%TO.C,U2*%
X150410000Y-75390000D02*
X148610000Y-75390000D01*
X148610000Y-73890000D01*
X150410000Y-73890000D01*
X150410000Y-75390000D01*
G36*
X150410000Y-75390000D02*
G01*
X148610000Y-75390000D01*
X148610000Y-73890000D01*
X150410000Y-73890000D01*
X150410000Y-75390000D01*
G37*
X150410000Y-77290000D02*
X148610000Y-77290000D01*
X148610000Y-75790000D01*
X150410000Y-75790000D01*
X150410000Y-77290000D01*
G36*
X150410000Y-77290000D02*
G01*
X148610000Y-77290000D01*
X148610000Y-75790000D01*
X150410000Y-75790000D01*
X150410000Y-77290000D01*
G37*
X150410000Y-79190000D02*
X148610000Y-79190000D01*
X148610000Y-77690000D01*
X150410000Y-77690000D01*
X150410000Y-79190000D01*
G36*
X150410000Y-79190000D02*
G01*
X148610000Y-79190000D01*
X148610000Y-77690000D01*
X150410000Y-77690000D01*
X150410000Y-79190000D01*
G37*
X150410000Y-81090000D02*
X148610000Y-81090000D01*
X148610000Y-79590000D01*
X150410000Y-79590000D01*
X150410000Y-81090000D01*
G36*
X150410000Y-81090000D02*
G01*
X148610000Y-81090000D01*
X148610000Y-79590000D01*
X150410000Y-79590000D01*
X150410000Y-81090000D01*
G37*
X150410000Y-82990000D02*
X148610000Y-82990000D01*
X148610000Y-81490000D01*
X150410000Y-81490000D01*
X150410000Y-82990000D01*
G36*
X150410000Y-82990000D02*
G01*
X148610000Y-82990000D01*
X148610000Y-81490000D01*
X150410000Y-81490000D01*
X150410000Y-82990000D01*
G37*
X153060000Y-72740000D02*
X151560000Y-72740000D01*
X151560000Y-70940000D01*
X153060000Y-70940000D01*
X153060000Y-72740000D01*
G36*
X153060000Y-72740000D02*
G01*
X151560000Y-72740000D01*
X151560000Y-70940000D01*
X153060000Y-70940000D01*
X153060000Y-72740000D01*
G37*
X153060000Y-85940000D02*
X151560000Y-85940000D01*
X151560000Y-84140000D01*
X153060000Y-84140000D01*
X153060000Y-85940000D01*
G36*
X153060000Y-85940000D02*
G01*
X151560000Y-85940000D01*
X151560000Y-84140000D01*
X153060000Y-84140000D01*
X153060000Y-85940000D01*
G37*
X154960000Y-72740000D02*
X153460000Y-72740000D01*
X153460000Y-70940000D01*
X154960000Y-70940000D01*
X154960000Y-72740000D01*
G36*
X154960000Y-72740000D02*
G01*
X153460000Y-72740000D01*
X153460000Y-70940000D01*
X154960000Y-70940000D01*
X154960000Y-72740000D01*
G37*
X154960000Y-85940000D02*
X153460000Y-85940000D01*
X153460000Y-84140000D01*
X154960000Y-84140000D01*
X154960000Y-85940000D01*
G36*
X154960000Y-85940000D02*
G01*
X153460000Y-85940000D01*
X153460000Y-84140000D01*
X154960000Y-84140000D01*
X154960000Y-85940000D01*
G37*
X156860000Y-72740000D02*
X155360000Y-72740000D01*
X155360000Y-70940000D01*
X156860000Y-70940000D01*
X156860000Y-72740000D01*
G36*
X156860000Y-72740000D02*
G01*
X155360000Y-72740000D01*
X155360000Y-70940000D01*
X156860000Y-70940000D01*
X156860000Y-72740000D01*
G37*
X156860000Y-85940000D02*
X155360000Y-85940000D01*
X155360000Y-84140000D01*
X156860000Y-84140000D01*
X156860000Y-85940000D01*
G36*
X156860000Y-85940000D02*
G01*
X155360000Y-85940000D01*
X155360000Y-84140000D01*
X156860000Y-84140000D01*
X156860000Y-85940000D01*
G37*
X158760000Y-72740000D02*
X157260000Y-72740000D01*
X157260000Y-70940000D01*
X158760000Y-70940000D01*
X158760000Y-72740000D01*
G36*
X158760000Y-72740000D02*
G01*
X157260000Y-72740000D01*
X157260000Y-70940000D01*
X158760000Y-70940000D01*
X158760000Y-72740000D01*
G37*
X158760000Y-85940000D02*
X157260000Y-85940000D01*
X157260000Y-84140000D01*
X158760000Y-84140000D01*
X158760000Y-85940000D01*
G36*
X158760000Y-85940000D02*
G01*
X157260000Y-85940000D01*
X157260000Y-84140000D01*
X158760000Y-84140000D01*
X158760000Y-85940000D01*
G37*
X160660000Y-72740000D02*
X159160000Y-72740000D01*
X159160000Y-70940000D01*
X160660000Y-70940000D01*
X160660000Y-72740000D01*
G36*
X160660000Y-72740000D02*
G01*
X159160000Y-72740000D01*
X159160000Y-70940000D01*
X160660000Y-70940000D01*
X160660000Y-72740000D01*
G37*
X160660000Y-85940000D02*
X159160000Y-85940000D01*
X159160000Y-84140000D01*
X160660000Y-84140000D01*
X160660000Y-85940000D01*
G36*
X160660000Y-85940000D02*
G01*
X159160000Y-85940000D01*
X159160000Y-84140000D01*
X160660000Y-84140000D01*
X160660000Y-85940000D01*
G37*
X163610000Y-75390000D02*
X161810000Y-75390000D01*
X161810000Y-73890000D01*
X163610000Y-73890000D01*
X163610000Y-75390000D01*
G36*
X163610000Y-75390000D02*
G01*
X161810000Y-75390000D01*
X161810000Y-73890000D01*
X163610000Y-73890000D01*
X163610000Y-75390000D01*
G37*
X163610000Y-77290000D02*
X161810000Y-77290000D01*
X161810000Y-75790000D01*
X163610000Y-75790000D01*
X163610000Y-77290000D01*
G36*
X163610000Y-77290000D02*
G01*
X161810000Y-77290000D01*
X161810000Y-75790000D01*
X163610000Y-75790000D01*
X163610000Y-77290000D01*
G37*
X163610000Y-79190000D02*
X161810000Y-79190000D01*
X161810000Y-77690000D01*
X163610000Y-77690000D01*
X163610000Y-79190000D01*
G36*
X163610000Y-79190000D02*
G01*
X161810000Y-79190000D01*
X161810000Y-77690000D01*
X163610000Y-77690000D01*
X163610000Y-79190000D01*
G37*
X163610000Y-81090000D02*
X161810000Y-81090000D01*
X161810000Y-79590000D01*
X163610000Y-79590000D01*
X163610000Y-81090000D01*
G36*
X163610000Y-81090000D02*
G01*
X161810000Y-81090000D01*
X161810000Y-79590000D01*
X163610000Y-79590000D01*
X163610000Y-81090000D01*
G37*
X163610000Y-82990000D02*
X161810000Y-82990000D01*
X161810000Y-81490000D01*
X163610000Y-81490000D01*
X163610000Y-82990000D01*
G36*
X163610000Y-82990000D02*
G01*
X161810000Y-82990000D01*
X161810000Y-81490000D01*
X163610000Y-81490000D01*
X163610000Y-82990000D01*
G37*
%TD*%
D12*
%TO.C,C9*%
X145780000Y-100640000D03*
X146740000Y-100640000D03*
%TD*%
D13*
%TO.C,C8*%
X161335000Y-92639999D03*
X159785000Y-92639999D03*
%TD*%
D14*
%TO.C,C15*%
X170980000Y-110940000D03*
X172530000Y-110940000D03*
%TD*%
D13*
%TO.C,C10*%
X164970000Y-99880000D03*
X163420000Y-99880000D03*
%TD*%
D15*
%TO.C,J5*%
X146610000Y-113855000D03*
X146610000Y-115125000D03*
X145340000Y-113855000D03*
X145340000Y-115125000D03*
X144070000Y-113855000D03*
X144070000Y-115125000D03*
X142800000Y-113855000D03*
X142800000Y-115125000D03*
X141530000Y-113855000D03*
X141530000Y-115125000D03*
%TD*%
D16*
%TO.C,R2*%
X175870000Y-101340000D03*
X174850000Y-101340000D03*
%TD*%
D17*
%TO.C,R9*%
X132460000Y-106440000D03*
X130810000Y-106440000D03*
%TD*%
D18*
%TO.C,U6*%
X165120000Y-101904900D03*
X164170000Y-101904900D03*
X163220000Y-101904900D03*
X163220000Y-104505100D03*
X165120000Y-104505100D03*
%TD*%
D17*
%TO.C,R5*%
X132510000Y-104780000D03*
X130860000Y-104780000D03*
%TD*%
D19*
%TO.C,U5*%
X146077500Y-105677500D03*
X144807500Y-105677500D03*
X143537500Y-105677500D03*
X142267500Y-105677500D03*
X142267500Y-111002500D03*
X143537500Y-111002500D03*
X144807500Y-111002500D03*
X146077500Y-111002500D03*
D20*
X144172500Y-108340000D03*
%TD*%
D21*
%TO.C,J4*%
X172160000Y-93390000D03*
X172160000Y-94390000D03*
X172160000Y-95390000D03*
X172160000Y-96390000D03*
D22*
X168485000Y-97690000D03*
X168485000Y-92090000D03*
%TD*%
D23*
%TO.C,D5*%
X172670000Y-108630000D03*
X172670000Y-106330000D03*
%TD*%
D24*
%TO.C,TP3*%
X149660000Y-102740000D03*
%TD*%
D14*
%TO.C,C2*%
X166035000Y-80340000D03*
X167585000Y-80340000D03*
%TD*%
D25*
%TO.C,D2*%
X132960000Y-79410000D03*
X132960000Y-78570000D03*
%TD*%
D24*
%TO.C,J3*%
X167260000Y-114340000D03*
D26*
X168530000Y-114340000D03*
X169800000Y-114340000D03*
X171070000Y-114340000D03*
X172340000Y-114340000D03*
X173610000Y-114340000D03*
X174880000Y-114340000D03*
X176150000Y-114340000D03*
%TD*%
D27*
%TO.C,R13*%
X161745000Y-103280000D03*
X161745000Y-101580000D03*
%TD*%
D28*
%TO.C,R15*%
X167420000Y-107280000D03*
X167420000Y-108980000D03*
%TD*%
D29*
%TO.C,H1*%
X128609784Y-95650000D03*
%TD*%
D30*
%TO.C,C11*%
X165670000Y-107380000D03*
X165670000Y-108930000D03*
%TD*%
D31*
%TO.C,Y1*%
X154760000Y-102840000D03*
X157260000Y-102840000D03*
%TD*%
D27*
%TO.C,R4*%
X154410000Y-100940000D03*
X154410000Y-99240000D03*
%TD*%
D16*
%TO.C,R8*%
X133305000Y-101430000D03*
X132285000Y-101430000D03*
%TD*%
D32*
%TO.C,U7*%
X150510000Y-105540000D03*
X151610000Y-105540000D03*
X152710000Y-105540000D03*
X153810000Y-105540000D03*
X154910000Y-105540000D03*
X156010000Y-105540000D03*
X157110000Y-105540000D03*
X158210000Y-105540000D03*
X159310000Y-105540000D03*
X150510000Y-106640000D03*
X151610000Y-106640000D03*
X152710000Y-106640000D03*
X153810000Y-106640000D03*
X154910000Y-106640000D03*
X156010000Y-106640000D03*
X157110000Y-106640000D03*
X158210000Y-106640000D03*
X159310000Y-106640000D03*
X150510000Y-107740000D03*
X151610000Y-107740000D03*
X153810000Y-107740000D03*
X154910000Y-107740000D03*
X156010000Y-107740000D03*
X158210000Y-107740000D03*
X159310000Y-107740000D03*
X150510000Y-108840000D03*
X151610000Y-108840000D03*
X152710000Y-108840000D03*
X157110000Y-108840000D03*
X158210000Y-108840000D03*
X159310000Y-108840000D03*
X150510000Y-109940000D03*
X151610000Y-109940000D03*
X152710000Y-109940000D03*
X154360000Y-109940000D03*
X155460000Y-109940000D03*
X157110000Y-109940000D03*
X158210000Y-109940000D03*
X159310000Y-109940000D03*
X150510000Y-111040000D03*
X151610000Y-111040000D03*
X152710000Y-111040000D03*
X154360000Y-111040000D03*
X155460000Y-111040000D03*
X157110000Y-111040000D03*
X158210000Y-111040000D03*
X159310000Y-111040000D03*
X150510000Y-112140000D03*
X151610000Y-112140000D03*
X152710000Y-112140000D03*
X154360000Y-112140000D03*
X155460000Y-112140000D03*
X157110000Y-112140000D03*
X158210000Y-112140000D03*
X159310000Y-112140000D03*
X150510000Y-113240000D03*
X151610000Y-113240000D03*
X152710000Y-113240000D03*
X157110000Y-113240000D03*
X158210000Y-113240000D03*
X159310000Y-113240000D03*
X150510000Y-114340000D03*
X151610000Y-114340000D03*
X152710000Y-114340000D03*
X154360000Y-114340000D03*
X155460000Y-114340000D03*
X157110000Y-114340000D03*
X158210000Y-114340000D03*
X159310000Y-114340000D03*
X150510000Y-115440000D03*
X151610000Y-115440000D03*
X152710000Y-115440000D03*
X154910000Y-115440000D03*
X157110000Y-115440000D03*
X158210000Y-115440000D03*
X159310000Y-115440000D03*
X150510000Y-116940000D03*
X159310000Y-116940000D03*
X150510000Y-118440000D03*
X151610000Y-118440000D03*
X158210000Y-118440000D03*
X159310000Y-118440000D03*
%TD*%
D27*
%TO.C,R14*%
X133460000Y-112340000D03*
X133460000Y-110640000D03*
%TD*%
D33*
%TO.C,C3*%
X153409300Y-96765126D03*
X153409300Y-95215126D03*
%TD*%
%TO.C,C7*%
X151710000Y-97230000D03*
X151710000Y-95680000D03*
%TD*%
D14*
%TO.C,C4*%
X161990000Y-98289999D03*
X163540000Y-98289999D03*
%TD*%
D34*
%TO.C,J2*%
X178265000Y-105965000D03*
X178265000Y-100185000D03*
D35*
X177155000Y-106315000D03*
X177155000Y-105515000D03*
D36*
X177155000Y-104315000D03*
X177155000Y-103315000D03*
X177155000Y-102815000D03*
X177155000Y-101815000D03*
D35*
X177155000Y-100615000D03*
X177155000Y-99815000D03*
X177155000Y-99815000D03*
X177155000Y-100615000D03*
D36*
X177155000Y-101315000D03*
X177155000Y-102315000D03*
X177155000Y-103815000D03*
X177155000Y-104815000D03*
D35*
X177155000Y-105515000D03*
X177155000Y-106315000D03*
D37*
X177765000Y-107395000D03*
D38*
X181945000Y-107395000D03*
D37*
X177765000Y-98755000D03*
D38*
X181945000Y-98755000D03*
%TD*%
D28*
%TO.C,R16*%
X167145000Y-101805000D03*
X167145000Y-103505000D03*
%TD*%
D39*
%TO.C,R12*%
X144540000Y-101640000D03*
X144540000Y-100620000D03*
%TD*%
D40*
%TO.C,C13*%
X163610000Y-107090000D03*
X163610000Y-108890000D03*
%TD*%
D41*
%TO.C,LED4*%
X169020000Y-109132000D03*
X169020000Y-107378000D03*
%TD*%
D42*
%TO.C,SW3*%
X130560000Y-77890000D03*
X127560000Y-77890000D03*
D43*
X130760000Y-80890000D03*
X127360000Y-80890000D03*
X130760000Y-74890000D03*
X127360000Y-74890000D03*
%TD*%
D30*
%TO.C,C6*%
X151460000Y-100715000D03*
X151460000Y-102265000D03*
%TD*%
D25*
%TO.C,D1*%
X133010000Y-88360000D03*
X133010000Y-87520000D03*
%TD*%
D44*
%TO.C,RGB1*%
X127620000Y-99955000D03*
X128470000Y-99955000D03*
X128470000Y-101405000D03*
X127620000Y-101405000D03*
%TD*%
D16*
%TO.C,R7*%
X133315000Y-100180000D03*
X132295000Y-100180000D03*
%TD*%
D13*
%TO.C,C12*%
X169870000Y-99980000D03*
X168320000Y-99980000D03*
%TD*%
D45*
%TO.C,LED3*%
X127417500Y-108150000D03*
X128992500Y-108150000D03*
%TD*%
D46*
%TO.C,R11*%
X173320000Y-99980000D03*
X171620000Y-99980000D03*
%TD*%
D47*
%TO.C,U1*%
X155559237Y-96939426D03*
X156059363Y-96939426D03*
D48*
X156558600Y-96690252D03*
X156558600Y-96190126D03*
X156558600Y-95690000D03*
D47*
X156059363Y-95440826D03*
X155559237Y-95440826D03*
D48*
X155060000Y-95690000D03*
X155060000Y-96190126D03*
X155060000Y-96690252D03*
%TD*%
D24*
%TO.C,TP4*%
X170960000Y-106900000D03*
%TD*%
D45*
%TO.C,LED1*%
X127437500Y-104740000D03*
X129012500Y-104740000D03*
%TD*%
D17*
%TO.C,R10*%
X132400000Y-108170000D03*
X130750000Y-108170000D03*
%TD*%
D49*
%TO.C,U8*%
X169045500Y-104455100D03*
X169995500Y-104455100D03*
X170945500Y-104455100D03*
X170945500Y-101854900D03*
X169045500Y-101854900D03*
%TD*%
D29*
%TO.C,H3*%
X181960000Y-113440000D03*
%TD*%
D16*
%TO.C,R1*%
X175670000Y-104690000D03*
X174650000Y-104690000D03*
%TD*%
D50*
%TO.C,SW4*%
X135960000Y-114690000D03*
X135960000Y-110590000D03*
X137560000Y-114690000D03*
X137560000Y-110590000D03*
%TD*%
D42*
%TO.C,SW2*%
X130560000Y-86940000D03*
X127560000Y-86940000D03*
D43*
X130760000Y-89940000D03*
X127360000Y-89940000D03*
X130760000Y-83940000D03*
X127360000Y-83940000D03*
%TD*%
D51*
%TO.C,F1*%
X175210000Y-108827500D03*
X175210000Y-106952500D03*
%TD*%
D27*
%TO.C,R3*%
X153010000Y-100940000D03*
X153010000Y-99240000D03*
%TD*%
D33*
%TO.C,C1*%
X158110000Y-98565000D03*
X158110000Y-97015000D03*
%TD*%
D52*
%TO.C,Q1*%
X173930000Y-102180000D03*
X172030000Y-102180000D03*
X172980000Y-104280000D03*
%TD*%
D45*
%TO.C,LED2*%
X127417500Y-106450000D03*
X128992500Y-106450000D03*
%TD*%
D29*
%TO.C,H2*%
X128610000Y-113440000D03*
%TD*%
D16*
%TO.C,R6*%
X133305000Y-98730000D03*
X132285000Y-98730000D03*
%TD*%
D33*
%TO.C,C5*%
X149980000Y-97230000D03*
X149980000Y-95680000D03*
%TD*%
D53*
%TO.C,U3*%
X160259999Y-96820798D03*
X160760000Y-96820798D03*
X161260000Y-96820798D03*
X161760001Y-96820798D03*
D54*
X162284999Y-96295800D03*
X162284999Y-95795799D03*
X162284999Y-95295799D03*
X162284999Y-94795798D03*
D53*
X161760001Y-94270800D03*
X161260000Y-94270800D03*
X160760000Y-94270800D03*
X160259999Y-94270800D03*
D54*
X159735001Y-94795798D03*
X159735001Y-95295799D03*
X159735001Y-95795799D03*
X159735001Y-96295800D03*
%TD*%
D55*
%TO.C,SW1*%
X127897500Y-109850000D03*
X127897500Y-103050000D03*
%TD*%
D56*
%TO.C,B1*%
X138435126Y-96414874D03*
D57*
X143738427Y-91111573D03*
%TD*%
M02*
