%TF.GenerationSoftware,KiCad,Pcbnew,9.0.0-rc1*%
%TF.CreationDate,2025-02-03T21:42:01-06:00*%
%TF.ProjectId,tempo,74656d70-6f2e-46b6-9963-61645f706362,rev?*%
%TF.SameCoordinates,Original*%
%TF.FileFunction,Profile,NP*%
%FSLAX46Y46*%
G04 Gerber Fmt 4.6, Leading zero omitted, Abs format (unit mm)*
G04 Created by KiCad (PCBNEW 9.0.0-rc1) date 2025-02-03 21:42:01*
%MOMM*%
%LPD*%
G01*
G04 APERTURE LIST*
%TA.AperFunction,Profile*%
%ADD10C,0.200000*%
%TD*%
%TA.AperFunction,Profile*%
%ADD11C,0.010050*%
%TD*%
G04 APERTURE END LIST*
D10*
X139526892Y-118777108D02*
X136669784Y-115920000D01*
X139819784Y-119070000D02*
X140234000Y-119070000D01*
D11*
X126074809Y-115920000D02*
G75*
G02*
X126064759Y-115920000I-5025J0D01*
G01*
X126064759Y-115920000D02*
G75*
G02*
X126074809Y-115920000I5025J0D01*
G01*
D10*
X128609800Y-115920000D02*
G75*
G02*
X126069800Y-113380000I0J2540000D01*
G01*
X136669784Y-115920000D02*
X128609800Y-115920000D01*
X169899176Y-119070000D02*
X140234000Y-119070000D01*
D11*
X128614809Y-113450000D02*
G75*
G02*
X128604759Y-113450000I-5025J0D01*
G01*
X128604759Y-113450000D02*
G75*
G02*
X128614809Y-113450000I5025J0D01*
G01*
D10*
X126069784Y-113380000D02*
X126069784Y-67610000D01*
D11*
X126074809Y-65070000D02*
G75*
G02*
X126064759Y-65070000I-5025J0D01*
G01*
X126064759Y-65070000D02*
G75*
G02*
X126074809Y-65070000I5025J0D01*
G01*
D10*
X128618815Y-65070000D02*
X181949800Y-65070000D01*
D11*
X181954809Y-113450000D02*
G75*
G02*
X181944759Y-113450000I-5025J0D01*
G01*
X181944759Y-113450000D02*
G75*
G02*
X181954809Y-113450000I5025J0D01*
G01*
D10*
X181949784Y-115940000D02*
X173449784Y-115940000D01*
X181949800Y-65070000D02*
G75*
G02*
X184489784Y-67600985I0J-2540000D01*
G01*
X126069784Y-67610000D02*
G75*
G02*
X128618815Y-65070000I2540016J0D01*
G01*
X184489784Y-113400000D02*
G75*
G02*
X181949784Y-115939984I-2539984J0D01*
G01*
X170319784Y-119070000D02*
X169899176Y-119070000D01*
D11*
X184494809Y-65070000D02*
G75*
G02*
X184484759Y-65070000I-5025J0D01*
G01*
X184484759Y-65070000D02*
G75*
G02*
X184494809Y-65070000I5025J0D01*
G01*
D10*
X184489784Y-67600985D02*
X184489784Y-113400000D01*
X170612692Y-118777092D02*
X170319784Y-119070000D01*
X173449784Y-115940000D02*
X170612692Y-118777092D01*
X139819784Y-119070000D02*
X139526892Y-118777108D01*
M02*
