%TF.GenerationSoftware,KiCad,Pcbnew,9.0.0-rc1*%
%TF.CreationDate,2025-02-03T21:42:01-06:00*%
%TF.ProjectId,tempo,74656d70-6f2e-46b6-9963-61645f706362,rev?*%
%TF.SameCoordinates,Original*%
%TF.FileFunction,Legend,Top*%
%TF.FilePolarity,Positive*%
%FSLAX46Y46*%
G04 Gerber Fmt 4.6, Leading zero omitted, Abs format (unit mm)*
G04 Created by KiCad (PCBNEW 9.0.0-rc1) date 2025-02-03 21:42:01*
%MOMM*%
%LPD*%
G01*
G04 APERTURE LIST*
%ADD10C,0.100000*%
%ADD11C,0.200000*%
%ADD12C,0.300000*%
%ADD13C,0.150000*%
%ADD14C,0.120000*%
%ADD15C,0.121920*%
%ADD16C,0.062500*%
%ADD17C,0.125000*%
%ADD18C,0.203200*%
%ADD19C,0.127000*%
%ADD20C,0.000000*%
%ADD21C,0.152400*%
G04 APERTURE END LIST*
D10*
X143285000Y-112165000D02*
X144885000Y-112165000D01*
X144885000Y-112615000D01*
X143285000Y-112615000D01*
X143285000Y-112165000D01*
D11*
X127111816Y-70147275D02*
X127683244Y-70147275D01*
X127397530Y-71147275D02*
X127397530Y-70147275D01*
X128397530Y-71099656D02*
X128302292Y-71147275D01*
X128302292Y-71147275D02*
X128111816Y-71147275D01*
X128111816Y-71147275D02*
X128016578Y-71099656D01*
X128016578Y-71099656D02*
X127968959Y-71004417D01*
X127968959Y-71004417D02*
X127968959Y-70623465D01*
X127968959Y-70623465D02*
X128016578Y-70528227D01*
X128016578Y-70528227D02*
X128111816Y-70480608D01*
X128111816Y-70480608D02*
X128302292Y-70480608D01*
X128302292Y-70480608D02*
X128397530Y-70528227D01*
X128397530Y-70528227D02*
X128445149Y-70623465D01*
X128445149Y-70623465D02*
X128445149Y-70718703D01*
X128445149Y-70718703D02*
X127968959Y-70813941D01*
X128873721Y-71147275D02*
X128873721Y-70480608D01*
X128873721Y-70575846D02*
X128921340Y-70528227D01*
X128921340Y-70528227D02*
X129016578Y-70480608D01*
X129016578Y-70480608D02*
X129159435Y-70480608D01*
X129159435Y-70480608D02*
X129254673Y-70528227D01*
X129254673Y-70528227D02*
X129302292Y-70623465D01*
X129302292Y-70623465D02*
X129302292Y-71147275D01*
X129302292Y-70623465D02*
X129349911Y-70528227D01*
X129349911Y-70528227D02*
X129445149Y-70480608D01*
X129445149Y-70480608D02*
X129588006Y-70480608D01*
X129588006Y-70480608D02*
X129683245Y-70528227D01*
X129683245Y-70528227D02*
X129730864Y-70623465D01*
X129730864Y-70623465D02*
X129730864Y-71147275D01*
X130207054Y-70480608D02*
X130207054Y-71480608D01*
X130207054Y-70528227D02*
X130302292Y-70480608D01*
X130302292Y-70480608D02*
X130492768Y-70480608D01*
X130492768Y-70480608D02*
X130588006Y-70528227D01*
X130588006Y-70528227D02*
X130635625Y-70575846D01*
X130635625Y-70575846D02*
X130683244Y-70671084D01*
X130683244Y-70671084D02*
X130683244Y-70956798D01*
X130683244Y-70956798D02*
X130635625Y-71052036D01*
X130635625Y-71052036D02*
X130588006Y-71099656D01*
X130588006Y-71099656D02*
X130492768Y-71147275D01*
X130492768Y-71147275D02*
X130302292Y-71147275D01*
X130302292Y-71147275D02*
X130207054Y-71099656D01*
X131254673Y-71147275D02*
X131159435Y-71099656D01*
X131159435Y-71099656D02*
X131111816Y-71052036D01*
X131111816Y-71052036D02*
X131064197Y-70956798D01*
X131064197Y-70956798D02*
X131064197Y-70671084D01*
X131064197Y-70671084D02*
X131111816Y-70575846D01*
X131111816Y-70575846D02*
X131159435Y-70528227D01*
X131159435Y-70528227D02*
X131254673Y-70480608D01*
X131254673Y-70480608D02*
X131397530Y-70480608D01*
X131397530Y-70480608D02*
X131492768Y-70528227D01*
X131492768Y-70528227D02*
X131540387Y-70575846D01*
X131540387Y-70575846D02*
X131588006Y-70671084D01*
X131588006Y-70671084D02*
X131588006Y-70956798D01*
X131588006Y-70956798D02*
X131540387Y-71052036D01*
X131540387Y-71052036D02*
X131492768Y-71099656D01*
X131492768Y-71099656D02*
X131397530Y-71147275D01*
X131397530Y-71147275D02*
X131254673Y-71147275D01*
X132016578Y-70766322D02*
X132778483Y-70766322D01*
X133588006Y-70623465D02*
X133730863Y-70671084D01*
X133730863Y-70671084D02*
X133778482Y-70718703D01*
X133778482Y-70718703D02*
X133826101Y-70813941D01*
X133826101Y-70813941D02*
X133826101Y-70956798D01*
X133826101Y-70956798D02*
X133778482Y-71052036D01*
X133778482Y-71052036D02*
X133730863Y-71099656D01*
X133730863Y-71099656D02*
X133635625Y-71147275D01*
X133635625Y-71147275D02*
X133254673Y-71147275D01*
X133254673Y-71147275D02*
X133254673Y-70147275D01*
X133254673Y-70147275D02*
X133588006Y-70147275D01*
X133588006Y-70147275D02*
X133683244Y-70194894D01*
X133683244Y-70194894D02*
X133730863Y-70242513D01*
X133730863Y-70242513D02*
X133778482Y-70337751D01*
X133778482Y-70337751D02*
X133778482Y-70432989D01*
X133778482Y-70432989D02*
X133730863Y-70528227D01*
X133730863Y-70528227D02*
X133683244Y-70575846D01*
X133683244Y-70575846D02*
X133588006Y-70623465D01*
X133588006Y-70623465D02*
X133254673Y-70623465D01*
X134397530Y-71147275D02*
X134302292Y-71099656D01*
X134302292Y-71099656D02*
X134254673Y-71004417D01*
X134254673Y-71004417D02*
X134254673Y-70147275D01*
X135207054Y-70480608D02*
X135207054Y-71147275D01*
X134778483Y-70480608D02*
X134778483Y-71004417D01*
X134778483Y-71004417D02*
X134826102Y-71099656D01*
X134826102Y-71099656D02*
X134921340Y-71147275D01*
X134921340Y-71147275D02*
X135064197Y-71147275D01*
X135064197Y-71147275D02*
X135159435Y-71099656D01*
X135159435Y-71099656D02*
X135207054Y-71052036D01*
X136064197Y-71099656D02*
X135968959Y-71147275D01*
X135968959Y-71147275D02*
X135778483Y-71147275D01*
X135778483Y-71147275D02*
X135683245Y-71099656D01*
X135683245Y-71099656D02*
X135635626Y-71004417D01*
X135635626Y-71004417D02*
X135635626Y-70623465D01*
X135635626Y-70623465D02*
X135683245Y-70528227D01*
X135683245Y-70528227D02*
X135778483Y-70480608D01*
X135778483Y-70480608D02*
X135968959Y-70480608D01*
X135968959Y-70480608D02*
X136064197Y-70528227D01*
X136064197Y-70528227D02*
X136111816Y-70623465D01*
X136111816Y-70623465D02*
X136111816Y-70718703D01*
X136111816Y-70718703D02*
X135635626Y-70813941D01*
X136397531Y-70480608D02*
X136778483Y-70480608D01*
X136540388Y-70147275D02*
X136540388Y-71004417D01*
X136540388Y-71004417D02*
X136588007Y-71099656D01*
X136588007Y-71099656D02*
X136683245Y-71147275D01*
X136683245Y-71147275D02*
X136778483Y-71147275D01*
X137254674Y-71147275D02*
X137159436Y-71099656D01*
X137159436Y-71099656D02*
X137111817Y-71052036D01*
X137111817Y-71052036D02*
X137064198Y-70956798D01*
X137064198Y-70956798D02*
X137064198Y-70671084D01*
X137064198Y-70671084D02*
X137111817Y-70575846D01*
X137111817Y-70575846D02*
X137159436Y-70528227D01*
X137159436Y-70528227D02*
X137254674Y-70480608D01*
X137254674Y-70480608D02*
X137397531Y-70480608D01*
X137397531Y-70480608D02*
X137492769Y-70528227D01*
X137492769Y-70528227D02*
X137540388Y-70575846D01*
X137540388Y-70575846D02*
X137588007Y-70671084D01*
X137588007Y-70671084D02*
X137588007Y-70956798D01*
X137588007Y-70956798D02*
X137540388Y-71052036D01*
X137540388Y-71052036D02*
X137492769Y-71099656D01*
X137492769Y-71099656D02*
X137397531Y-71147275D01*
X137397531Y-71147275D02*
X137254674Y-71147275D01*
X138159436Y-71147275D02*
X138064198Y-71099656D01*
X138064198Y-71099656D02*
X138016579Y-71052036D01*
X138016579Y-71052036D02*
X137968960Y-70956798D01*
X137968960Y-70956798D02*
X137968960Y-70671084D01*
X137968960Y-70671084D02*
X138016579Y-70575846D01*
X138016579Y-70575846D02*
X138064198Y-70528227D01*
X138064198Y-70528227D02*
X138159436Y-70480608D01*
X138159436Y-70480608D02*
X138302293Y-70480608D01*
X138302293Y-70480608D02*
X138397531Y-70528227D01*
X138397531Y-70528227D02*
X138445150Y-70575846D01*
X138445150Y-70575846D02*
X138492769Y-70671084D01*
X138492769Y-70671084D02*
X138492769Y-70956798D01*
X138492769Y-70956798D02*
X138445150Y-71052036D01*
X138445150Y-71052036D02*
X138397531Y-71099656D01*
X138397531Y-71099656D02*
X138302293Y-71147275D01*
X138302293Y-71147275D02*
X138159436Y-71147275D01*
X138778484Y-70480608D02*
X139159436Y-70480608D01*
X138921341Y-70147275D02*
X138921341Y-71004417D01*
X138921341Y-71004417D02*
X138968960Y-71099656D01*
X138968960Y-71099656D02*
X139064198Y-71147275D01*
X139064198Y-71147275D02*
X139159436Y-71147275D01*
X139492770Y-71147275D02*
X139492770Y-70147275D01*
X139921341Y-71147275D02*
X139921341Y-70623465D01*
X139921341Y-70623465D02*
X139873722Y-70528227D01*
X139873722Y-70528227D02*
X139778484Y-70480608D01*
X139778484Y-70480608D02*
X139635627Y-70480608D01*
X139635627Y-70480608D02*
X139540389Y-70528227D01*
X139540389Y-70528227D02*
X139492770Y-70575846D01*
X141778485Y-70147275D02*
X142111818Y-71147275D01*
X142111818Y-71147275D02*
X142445151Y-70147275D01*
X143302294Y-71147275D02*
X142730866Y-71147275D01*
X143016580Y-71147275D02*
X143016580Y-70147275D01*
X143016580Y-70147275D02*
X142921342Y-70290132D01*
X142921342Y-70290132D02*
X142826104Y-70385370D01*
X142826104Y-70385370D02*
X142730866Y-70432989D01*
X127826101Y-72757219D02*
X127492768Y-72281028D01*
X127254673Y-72757219D02*
X127254673Y-71757219D01*
X127254673Y-71757219D02*
X127635625Y-71757219D01*
X127635625Y-71757219D02*
X127730863Y-71804838D01*
X127730863Y-71804838D02*
X127778482Y-71852457D01*
X127778482Y-71852457D02*
X127826101Y-71947695D01*
X127826101Y-71947695D02*
X127826101Y-72090552D01*
X127826101Y-72090552D02*
X127778482Y-72185790D01*
X127778482Y-72185790D02*
X127730863Y-72233409D01*
X127730863Y-72233409D02*
X127635625Y-72281028D01*
X127635625Y-72281028D02*
X127254673Y-72281028D01*
X128254673Y-72757219D02*
X128254673Y-72090552D01*
X128254673Y-71757219D02*
X128207054Y-71804838D01*
X128207054Y-71804838D02*
X128254673Y-71852457D01*
X128254673Y-71852457D02*
X128302292Y-71804838D01*
X128302292Y-71804838D02*
X128254673Y-71757219D01*
X128254673Y-71757219D02*
X128254673Y-71852457D01*
X128873720Y-72757219D02*
X128778482Y-72709600D01*
X128778482Y-72709600D02*
X128730863Y-72614361D01*
X128730863Y-72614361D02*
X128730863Y-71757219D01*
X129635625Y-72709600D02*
X129540387Y-72757219D01*
X129540387Y-72757219D02*
X129349911Y-72757219D01*
X129349911Y-72757219D02*
X129254673Y-72709600D01*
X129254673Y-72709600D02*
X129207054Y-72614361D01*
X129207054Y-72614361D02*
X129207054Y-72233409D01*
X129207054Y-72233409D02*
X129254673Y-72138171D01*
X129254673Y-72138171D02*
X129349911Y-72090552D01*
X129349911Y-72090552D02*
X129540387Y-72090552D01*
X129540387Y-72090552D02*
X129635625Y-72138171D01*
X129635625Y-72138171D02*
X129683244Y-72233409D01*
X129683244Y-72233409D02*
X129683244Y-72328647D01*
X129683244Y-72328647D02*
X129207054Y-72423885D01*
X130016578Y-72090552D02*
X130254673Y-72757219D01*
X130492768Y-72090552D02*
X130254673Y-72757219D01*
X130254673Y-72757219D02*
X130159435Y-72995314D01*
X130159435Y-72995314D02*
X130111816Y-73042933D01*
X130111816Y-73042933D02*
X130016578Y-73090552D01*
X132207054Y-72757219D02*
X131873721Y-72281028D01*
X131635626Y-72757219D02*
X131635626Y-71757219D01*
X131635626Y-71757219D02*
X132016578Y-71757219D01*
X132016578Y-71757219D02*
X132111816Y-71804838D01*
X132111816Y-71804838D02*
X132159435Y-71852457D01*
X132159435Y-71852457D02*
X132207054Y-71947695D01*
X132207054Y-71947695D02*
X132207054Y-72090552D01*
X132207054Y-72090552D02*
X132159435Y-72185790D01*
X132159435Y-72185790D02*
X132111816Y-72233409D01*
X132111816Y-72233409D02*
X132016578Y-72281028D01*
X132016578Y-72281028D02*
X131635626Y-72281028D01*
X133064197Y-72757219D02*
X133064197Y-72233409D01*
X133064197Y-72233409D02*
X133016578Y-72138171D01*
X133016578Y-72138171D02*
X132921340Y-72090552D01*
X132921340Y-72090552D02*
X132730864Y-72090552D01*
X132730864Y-72090552D02*
X132635626Y-72138171D01*
X133064197Y-72709600D02*
X132968959Y-72757219D01*
X132968959Y-72757219D02*
X132730864Y-72757219D01*
X132730864Y-72757219D02*
X132635626Y-72709600D01*
X132635626Y-72709600D02*
X132588007Y-72614361D01*
X132588007Y-72614361D02*
X132588007Y-72519123D01*
X132588007Y-72519123D02*
X132635626Y-72423885D01*
X132635626Y-72423885D02*
X132730864Y-72376266D01*
X132730864Y-72376266D02*
X132968959Y-72376266D01*
X132968959Y-72376266D02*
X133064197Y-72328647D01*
X133540388Y-72757219D02*
X133540388Y-72090552D01*
X133540388Y-71757219D02*
X133492769Y-71804838D01*
X133492769Y-71804838D02*
X133540388Y-71852457D01*
X133540388Y-71852457D02*
X133588007Y-71804838D01*
X133588007Y-71804838D02*
X133540388Y-71757219D01*
X133540388Y-71757219D02*
X133540388Y-71852457D01*
X134016578Y-72090552D02*
X134016578Y-72757219D01*
X134016578Y-72185790D02*
X134064197Y-72138171D01*
X134064197Y-72138171D02*
X134159435Y-72090552D01*
X134159435Y-72090552D02*
X134302292Y-72090552D01*
X134302292Y-72090552D02*
X134397530Y-72138171D01*
X134397530Y-72138171D02*
X134445149Y-72233409D01*
X134445149Y-72233409D02*
X134445149Y-72757219D01*
X135302292Y-72709600D02*
X135207054Y-72757219D01*
X135207054Y-72757219D02*
X135016578Y-72757219D01*
X135016578Y-72757219D02*
X134921340Y-72709600D01*
X134921340Y-72709600D02*
X134873721Y-72614361D01*
X134873721Y-72614361D02*
X134873721Y-72233409D01*
X134873721Y-72233409D02*
X134921340Y-72138171D01*
X134921340Y-72138171D02*
X135016578Y-72090552D01*
X135016578Y-72090552D02*
X135207054Y-72090552D01*
X135207054Y-72090552D02*
X135302292Y-72138171D01*
X135302292Y-72138171D02*
X135349911Y-72233409D01*
X135349911Y-72233409D02*
X135349911Y-72328647D01*
X135349911Y-72328647D02*
X134873721Y-72423885D01*
X135683245Y-72090552D02*
X135921340Y-72757219D01*
X136159435Y-72090552D02*
X135921340Y-72757219D01*
X135921340Y-72757219D02*
X135826102Y-72995314D01*
X135826102Y-72995314D02*
X135778483Y-73042933D01*
X135778483Y-73042933D02*
X135683245Y-73090552D01*
X137254674Y-71852457D02*
X137302293Y-71804838D01*
X137302293Y-71804838D02*
X137397531Y-71757219D01*
X137397531Y-71757219D02*
X137635626Y-71757219D01*
X137635626Y-71757219D02*
X137730864Y-71804838D01*
X137730864Y-71804838D02*
X137778483Y-71852457D01*
X137778483Y-71852457D02*
X137826102Y-71947695D01*
X137826102Y-71947695D02*
X137826102Y-72042933D01*
X137826102Y-72042933D02*
X137778483Y-72185790D01*
X137778483Y-72185790D02*
X137207055Y-72757219D01*
X137207055Y-72757219D02*
X137826102Y-72757219D01*
X138445150Y-71757219D02*
X138540388Y-71757219D01*
X138540388Y-71757219D02*
X138635626Y-71804838D01*
X138635626Y-71804838D02*
X138683245Y-71852457D01*
X138683245Y-71852457D02*
X138730864Y-71947695D01*
X138730864Y-71947695D02*
X138778483Y-72138171D01*
X138778483Y-72138171D02*
X138778483Y-72376266D01*
X138778483Y-72376266D02*
X138730864Y-72566742D01*
X138730864Y-72566742D02*
X138683245Y-72661980D01*
X138683245Y-72661980D02*
X138635626Y-72709600D01*
X138635626Y-72709600D02*
X138540388Y-72757219D01*
X138540388Y-72757219D02*
X138445150Y-72757219D01*
X138445150Y-72757219D02*
X138349912Y-72709600D01*
X138349912Y-72709600D02*
X138302293Y-72661980D01*
X138302293Y-72661980D02*
X138254674Y-72566742D01*
X138254674Y-72566742D02*
X138207055Y-72376266D01*
X138207055Y-72376266D02*
X138207055Y-72138171D01*
X138207055Y-72138171D02*
X138254674Y-71947695D01*
X138254674Y-71947695D02*
X138302293Y-71852457D01*
X138302293Y-71852457D02*
X138349912Y-71804838D01*
X138349912Y-71804838D02*
X138445150Y-71757219D01*
X139159436Y-71852457D02*
X139207055Y-71804838D01*
X139207055Y-71804838D02*
X139302293Y-71757219D01*
X139302293Y-71757219D02*
X139540388Y-71757219D01*
X139540388Y-71757219D02*
X139635626Y-71804838D01*
X139635626Y-71804838D02*
X139683245Y-71852457D01*
X139683245Y-71852457D02*
X139730864Y-71947695D01*
X139730864Y-71947695D02*
X139730864Y-72042933D01*
X139730864Y-72042933D02*
X139683245Y-72185790D01*
X139683245Y-72185790D02*
X139111817Y-72757219D01*
X139111817Y-72757219D02*
X139730864Y-72757219D01*
X140635626Y-71757219D02*
X140159436Y-71757219D01*
X140159436Y-71757219D02*
X140111817Y-72233409D01*
X140111817Y-72233409D02*
X140159436Y-72185790D01*
X140159436Y-72185790D02*
X140254674Y-72138171D01*
X140254674Y-72138171D02*
X140492769Y-72138171D01*
X140492769Y-72138171D02*
X140588007Y-72185790D01*
X140588007Y-72185790D02*
X140635626Y-72233409D01*
X140635626Y-72233409D02*
X140683245Y-72328647D01*
X140683245Y-72328647D02*
X140683245Y-72566742D01*
X140683245Y-72566742D02*
X140635626Y-72661980D01*
X140635626Y-72661980D02*
X140588007Y-72709600D01*
X140588007Y-72709600D02*
X140492769Y-72757219D01*
X140492769Y-72757219D02*
X140254674Y-72757219D01*
X140254674Y-72757219D02*
X140159436Y-72709600D01*
X140159436Y-72709600D02*
X140111817Y-72661980D01*
D12*
X133114510Y-76280114D02*
X133328796Y-76351542D01*
X133328796Y-76351542D02*
X133400225Y-76422971D01*
X133400225Y-76422971D02*
X133471653Y-76565828D01*
X133471653Y-76565828D02*
X133471653Y-76780114D01*
X133471653Y-76780114D02*
X133400225Y-76922971D01*
X133400225Y-76922971D02*
X133328796Y-76994400D01*
X133328796Y-76994400D02*
X133185939Y-77065828D01*
X133185939Y-77065828D02*
X132614510Y-77065828D01*
X132614510Y-77065828D02*
X132614510Y-75565828D01*
X132614510Y-75565828D02*
X133114510Y-75565828D01*
X133114510Y-75565828D02*
X133257368Y-75637257D01*
X133257368Y-75637257D02*
X133328796Y-75708685D01*
X133328796Y-75708685D02*
X133400225Y-75851542D01*
X133400225Y-75851542D02*
X133400225Y-75994400D01*
X133400225Y-75994400D02*
X133328796Y-76137257D01*
X133328796Y-76137257D02*
X133257368Y-76208685D01*
X133257368Y-76208685D02*
X133114510Y-76280114D01*
X133114510Y-76280114D02*
X132614510Y-76280114D01*
X133900225Y-75565828D02*
X134757368Y-75565828D01*
X134328796Y-77065828D02*
X134328796Y-75565828D01*
X135257367Y-77065828D02*
X135257367Y-75565828D01*
X135257367Y-75565828D02*
X136114510Y-77065828D01*
X136114510Y-77065828D02*
X136114510Y-75565828D01*
X136757368Y-75708685D02*
X136828796Y-75637257D01*
X136828796Y-75637257D02*
X136971654Y-75565828D01*
X136971654Y-75565828D02*
X137328796Y-75565828D01*
X137328796Y-75565828D02*
X137471654Y-75637257D01*
X137471654Y-75637257D02*
X137543082Y-75708685D01*
X137543082Y-75708685D02*
X137614511Y-75851542D01*
X137614511Y-75851542D02*
X137614511Y-75994400D01*
X137614511Y-75994400D02*
X137543082Y-76208685D01*
X137543082Y-76208685D02*
X136685939Y-77065828D01*
X136685939Y-77065828D02*
X137614511Y-77065828D01*
X133164510Y-85405114D02*
X133378796Y-85476542D01*
X133378796Y-85476542D02*
X133450225Y-85547971D01*
X133450225Y-85547971D02*
X133521653Y-85690828D01*
X133521653Y-85690828D02*
X133521653Y-85905114D01*
X133521653Y-85905114D02*
X133450225Y-86047971D01*
X133450225Y-86047971D02*
X133378796Y-86119400D01*
X133378796Y-86119400D02*
X133235939Y-86190828D01*
X133235939Y-86190828D02*
X132664510Y-86190828D01*
X132664510Y-86190828D02*
X132664510Y-84690828D01*
X132664510Y-84690828D02*
X133164510Y-84690828D01*
X133164510Y-84690828D02*
X133307368Y-84762257D01*
X133307368Y-84762257D02*
X133378796Y-84833685D01*
X133378796Y-84833685D02*
X133450225Y-84976542D01*
X133450225Y-84976542D02*
X133450225Y-85119400D01*
X133450225Y-85119400D02*
X133378796Y-85262257D01*
X133378796Y-85262257D02*
X133307368Y-85333685D01*
X133307368Y-85333685D02*
X133164510Y-85405114D01*
X133164510Y-85405114D02*
X132664510Y-85405114D01*
X133950225Y-84690828D02*
X134807368Y-84690828D01*
X134378796Y-86190828D02*
X134378796Y-84690828D01*
X135307367Y-86190828D02*
X135307367Y-84690828D01*
X135307367Y-84690828D02*
X136164510Y-86190828D01*
X136164510Y-86190828D02*
X136164510Y-84690828D01*
X137664511Y-86190828D02*
X136807368Y-86190828D01*
X137235939Y-86190828D02*
X137235939Y-84690828D01*
X137235939Y-84690828D02*
X137093082Y-84905114D01*
X137093082Y-84905114D02*
X136950225Y-85047971D01*
X136950225Y-85047971D02*
X136807368Y-85119400D01*
D10*
X146026667Y-99928704D02*
X145988571Y-99966800D01*
X145988571Y-99966800D02*
X145874286Y-100004895D01*
X145874286Y-100004895D02*
X145798095Y-100004895D01*
X145798095Y-100004895D02*
X145683809Y-99966800D01*
X145683809Y-99966800D02*
X145607619Y-99890609D01*
X145607619Y-99890609D02*
X145569524Y-99814419D01*
X145569524Y-99814419D02*
X145531428Y-99662038D01*
X145531428Y-99662038D02*
X145531428Y-99547752D01*
X145531428Y-99547752D02*
X145569524Y-99395371D01*
X145569524Y-99395371D02*
X145607619Y-99319180D01*
X145607619Y-99319180D02*
X145683809Y-99242990D01*
X145683809Y-99242990D02*
X145798095Y-99204895D01*
X145798095Y-99204895D02*
X145874286Y-99204895D01*
X145874286Y-99204895D02*
X145988571Y-99242990D01*
X145988571Y-99242990D02*
X146026667Y-99281085D01*
X146407619Y-100004895D02*
X146560000Y-100004895D01*
X146560000Y-100004895D02*
X146636190Y-99966800D01*
X146636190Y-99966800D02*
X146674286Y-99928704D01*
X146674286Y-99928704D02*
X146750476Y-99814419D01*
X146750476Y-99814419D02*
X146788571Y-99662038D01*
X146788571Y-99662038D02*
X146788571Y-99357276D01*
X146788571Y-99357276D02*
X146750476Y-99281085D01*
X146750476Y-99281085D02*
X146712381Y-99242990D01*
X146712381Y-99242990D02*
X146636190Y-99204895D01*
X146636190Y-99204895D02*
X146483809Y-99204895D01*
X146483809Y-99204895D02*
X146407619Y-99242990D01*
X146407619Y-99242990D02*
X146369524Y-99281085D01*
X146369524Y-99281085D02*
X146331428Y-99357276D01*
X146331428Y-99357276D02*
X146331428Y-99547752D01*
X146331428Y-99547752D02*
X146369524Y-99623942D01*
X146369524Y-99623942D02*
X146407619Y-99662038D01*
X146407619Y-99662038D02*
X146483809Y-99700133D01*
X146483809Y-99700133D02*
X146636190Y-99700133D01*
X146636190Y-99700133D02*
X146712381Y-99662038D01*
X146712381Y-99662038D02*
X146750476Y-99623942D01*
X146750476Y-99623942D02*
X146788571Y-99547752D01*
D13*
X162926667Y-92901103D02*
X162888571Y-92939199D01*
X162888571Y-92939199D02*
X162774286Y-92977294D01*
X162774286Y-92977294D02*
X162698095Y-92977294D01*
X162698095Y-92977294D02*
X162583809Y-92939199D01*
X162583809Y-92939199D02*
X162507619Y-92863008D01*
X162507619Y-92863008D02*
X162469524Y-92786818D01*
X162469524Y-92786818D02*
X162431428Y-92634437D01*
X162431428Y-92634437D02*
X162431428Y-92520151D01*
X162431428Y-92520151D02*
X162469524Y-92367770D01*
X162469524Y-92367770D02*
X162507619Y-92291579D01*
X162507619Y-92291579D02*
X162583809Y-92215389D01*
X162583809Y-92215389D02*
X162698095Y-92177294D01*
X162698095Y-92177294D02*
X162774286Y-92177294D01*
X162774286Y-92177294D02*
X162888571Y-92215389D01*
X162888571Y-92215389D02*
X162926667Y-92253484D01*
X163383809Y-92520151D02*
X163307619Y-92482056D01*
X163307619Y-92482056D02*
X163269524Y-92443960D01*
X163269524Y-92443960D02*
X163231428Y-92367770D01*
X163231428Y-92367770D02*
X163231428Y-92329675D01*
X163231428Y-92329675D02*
X163269524Y-92253484D01*
X163269524Y-92253484D02*
X163307619Y-92215389D01*
X163307619Y-92215389D02*
X163383809Y-92177294D01*
X163383809Y-92177294D02*
X163536190Y-92177294D01*
X163536190Y-92177294D02*
X163612381Y-92215389D01*
X163612381Y-92215389D02*
X163650476Y-92253484D01*
X163650476Y-92253484D02*
X163688571Y-92329675D01*
X163688571Y-92329675D02*
X163688571Y-92367770D01*
X163688571Y-92367770D02*
X163650476Y-92443960D01*
X163650476Y-92443960D02*
X163612381Y-92482056D01*
X163612381Y-92482056D02*
X163536190Y-92520151D01*
X163536190Y-92520151D02*
X163383809Y-92520151D01*
X163383809Y-92520151D02*
X163307619Y-92558246D01*
X163307619Y-92558246D02*
X163269524Y-92596341D01*
X163269524Y-92596341D02*
X163231428Y-92672532D01*
X163231428Y-92672532D02*
X163231428Y-92824913D01*
X163231428Y-92824913D02*
X163269524Y-92901103D01*
X163269524Y-92901103D02*
X163307619Y-92939199D01*
X163307619Y-92939199D02*
X163383809Y-92977294D01*
X163383809Y-92977294D02*
X163536190Y-92977294D01*
X163536190Y-92977294D02*
X163612381Y-92939199D01*
X163612381Y-92939199D02*
X163650476Y-92901103D01*
X163650476Y-92901103D02*
X163688571Y-92824913D01*
X163688571Y-92824913D02*
X163688571Y-92672532D01*
X163688571Y-92672532D02*
X163650476Y-92596341D01*
X163650476Y-92596341D02*
X163612381Y-92558246D01*
X163612381Y-92558246D02*
X163536190Y-92520151D01*
D10*
X171245714Y-112528704D02*
X171207618Y-112566800D01*
X171207618Y-112566800D02*
X171093333Y-112604895D01*
X171093333Y-112604895D02*
X171017142Y-112604895D01*
X171017142Y-112604895D02*
X170902856Y-112566800D01*
X170902856Y-112566800D02*
X170826666Y-112490609D01*
X170826666Y-112490609D02*
X170788571Y-112414419D01*
X170788571Y-112414419D02*
X170750475Y-112262038D01*
X170750475Y-112262038D02*
X170750475Y-112147752D01*
X170750475Y-112147752D02*
X170788571Y-111995371D01*
X170788571Y-111995371D02*
X170826666Y-111919180D01*
X170826666Y-111919180D02*
X170902856Y-111842990D01*
X170902856Y-111842990D02*
X171017142Y-111804895D01*
X171017142Y-111804895D02*
X171093333Y-111804895D01*
X171093333Y-111804895D02*
X171207618Y-111842990D01*
X171207618Y-111842990D02*
X171245714Y-111881085D01*
X172007618Y-112604895D02*
X171550475Y-112604895D01*
X171779047Y-112604895D02*
X171779047Y-111804895D01*
X171779047Y-111804895D02*
X171702856Y-111919180D01*
X171702856Y-111919180D02*
X171626666Y-111995371D01*
X171626666Y-111995371D02*
X171550475Y-112033466D01*
X172731428Y-111804895D02*
X172350476Y-111804895D01*
X172350476Y-111804895D02*
X172312380Y-112185847D01*
X172312380Y-112185847D02*
X172350476Y-112147752D01*
X172350476Y-112147752D02*
X172426666Y-112109657D01*
X172426666Y-112109657D02*
X172617142Y-112109657D01*
X172617142Y-112109657D02*
X172693333Y-112147752D01*
X172693333Y-112147752D02*
X172731428Y-112185847D01*
X172731428Y-112185847D02*
X172769523Y-112262038D01*
X172769523Y-112262038D02*
X172769523Y-112452514D01*
X172769523Y-112452514D02*
X172731428Y-112528704D01*
X172731428Y-112528704D02*
X172693333Y-112566800D01*
X172693333Y-112566800D02*
X172617142Y-112604895D01*
X172617142Y-112604895D02*
X172426666Y-112604895D01*
X172426666Y-112604895D02*
X172350476Y-112566800D01*
X172350476Y-112566800D02*
X172312380Y-112528704D01*
X161045714Y-100203704D02*
X161007618Y-100241800D01*
X161007618Y-100241800D02*
X160893333Y-100279895D01*
X160893333Y-100279895D02*
X160817142Y-100279895D01*
X160817142Y-100279895D02*
X160702856Y-100241800D01*
X160702856Y-100241800D02*
X160626666Y-100165609D01*
X160626666Y-100165609D02*
X160588571Y-100089419D01*
X160588571Y-100089419D02*
X160550475Y-99937038D01*
X160550475Y-99937038D02*
X160550475Y-99822752D01*
X160550475Y-99822752D02*
X160588571Y-99670371D01*
X160588571Y-99670371D02*
X160626666Y-99594180D01*
X160626666Y-99594180D02*
X160702856Y-99517990D01*
X160702856Y-99517990D02*
X160817142Y-99479895D01*
X160817142Y-99479895D02*
X160893333Y-99479895D01*
X160893333Y-99479895D02*
X161007618Y-99517990D01*
X161007618Y-99517990D02*
X161045714Y-99556085D01*
X161807618Y-100279895D02*
X161350475Y-100279895D01*
X161579047Y-100279895D02*
X161579047Y-99479895D01*
X161579047Y-99479895D02*
X161502856Y-99594180D01*
X161502856Y-99594180D02*
X161426666Y-99670371D01*
X161426666Y-99670371D02*
X161350475Y-99708466D01*
X162302857Y-99479895D02*
X162379047Y-99479895D01*
X162379047Y-99479895D02*
X162455238Y-99517990D01*
X162455238Y-99517990D02*
X162493333Y-99556085D01*
X162493333Y-99556085D02*
X162531428Y-99632276D01*
X162531428Y-99632276D02*
X162569523Y-99784657D01*
X162569523Y-99784657D02*
X162569523Y-99975133D01*
X162569523Y-99975133D02*
X162531428Y-100127514D01*
X162531428Y-100127514D02*
X162493333Y-100203704D01*
X162493333Y-100203704D02*
X162455238Y-100241800D01*
X162455238Y-100241800D02*
X162379047Y-100279895D01*
X162379047Y-100279895D02*
X162302857Y-100279895D01*
X162302857Y-100279895D02*
X162226666Y-100241800D01*
X162226666Y-100241800D02*
X162188571Y-100203704D01*
X162188571Y-100203704D02*
X162150476Y-100127514D01*
X162150476Y-100127514D02*
X162112380Y-99975133D01*
X162112380Y-99975133D02*
X162112380Y-99784657D01*
X162112380Y-99784657D02*
X162150476Y-99632276D01*
X162150476Y-99632276D02*
X162188571Y-99556085D01*
X162188571Y-99556085D02*
X162226666Y-99517990D01*
X162226666Y-99517990D02*
X162302857Y-99479895D01*
X147294836Y-112036895D02*
X147294836Y-112608323D01*
X147294836Y-112608323D02*
X147256741Y-112722609D01*
X147256741Y-112722609D02*
X147180550Y-112798800D01*
X147180550Y-112798800D02*
X147066265Y-112836895D01*
X147066265Y-112836895D02*
X146990074Y-112836895D01*
X148056741Y-112036895D02*
X147675789Y-112036895D01*
X147675789Y-112036895D02*
X147637693Y-112417847D01*
X147637693Y-112417847D02*
X147675789Y-112379752D01*
X147675789Y-112379752D02*
X147751979Y-112341657D01*
X147751979Y-112341657D02*
X147942455Y-112341657D01*
X147942455Y-112341657D02*
X148018646Y-112379752D01*
X148018646Y-112379752D02*
X148056741Y-112417847D01*
X148056741Y-112417847D02*
X148094836Y-112494038D01*
X148094836Y-112494038D02*
X148094836Y-112684514D01*
X148094836Y-112684514D02*
X148056741Y-112760704D01*
X148056741Y-112760704D02*
X148018646Y-112798800D01*
X148018646Y-112798800D02*
X147942455Y-112836895D01*
X147942455Y-112836895D02*
X147751979Y-112836895D01*
X147751979Y-112836895D02*
X147675789Y-112798800D01*
X147675789Y-112798800D02*
X147637693Y-112760704D01*
X175226667Y-102874895D02*
X174960000Y-102493942D01*
X174769524Y-102874895D02*
X174769524Y-102074895D01*
X174769524Y-102074895D02*
X175074286Y-102074895D01*
X175074286Y-102074895D02*
X175150476Y-102112990D01*
X175150476Y-102112990D02*
X175188571Y-102151085D01*
X175188571Y-102151085D02*
X175226667Y-102227276D01*
X175226667Y-102227276D02*
X175226667Y-102341561D01*
X175226667Y-102341561D02*
X175188571Y-102417752D01*
X175188571Y-102417752D02*
X175150476Y-102455847D01*
X175150476Y-102455847D02*
X175074286Y-102493942D01*
X175074286Y-102493942D02*
X174769524Y-102493942D01*
X175531428Y-102151085D02*
X175569524Y-102112990D01*
X175569524Y-102112990D02*
X175645714Y-102074895D01*
X175645714Y-102074895D02*
X175836190Y-102074895D01*
X175836190Y-102074895D02*
X175912381Y-102112990D01*
X175912381Y-102112990D02*
X175950476Y-102151085D01*
X175950476Y-102151085D02*
X175988571Y-102227276D01*
X175988571Y-102227276D02*
X175988571Y-102303466D01*
X175988571Y-102303466D02*
X175950476Y-102417752D01*
X175950476Y-102417752D02*
X175493333Y-102874895D01*
X175493333Y-102874895D02*
X175988571Y-102874895D01*
D13*
X134101667Y-106802295D02*
X133835000Y-106421342D01*
X133644524Y-106802295D02*
X133644524Y-106002295D01*
X133644524Y-106002295D02*
X133949286Y-106002295D01*
X133949286Y-106002295D02*
X134025476Y-106040390D01*
X134025476Y-106040390D02*
X134063571Y-106078485D01*
X134063571Y-106078485D02*
X134101667Y-106154676D01*
X134101667Y-106154676D02*
X134101667Y-106268961D01*
X134101667Y-106268961D02*
X134063571Y-106345152D01*
X134063571Y-106345152D02*
X134025476Y-106383247D01*
X134025476Y-106383247D02*
X133949286Y-106421342D01*
X133949286Y-106421342D02*
X133644524Y-106421342D01*
X134482619Y-106802295D02*
X134635000Y-106802295D01*
X134635000Y-106802295D02*
X134711190Y-106764200D01*
X134711190Y-106764200D02*
X134749286Y-106726104D01*
X134749286Y-106726104D02*
X134825476Y-106611819D01*
X134825476Y-106611819D02*
X134863571Y-106459438D01*
X134863571Y-106459438D02*
X134863571Y-106154676D01*
X134863571Y-106154676D02*
X134825476Y-106078485D01*
X134825476Y-106078485D02*
X134787381Y-106040390D01*
X134787381Y-106040390D02*
X134711190Y-106002295D01*
X134711190Y-106002295D02*
X134558809Y-106002295D01*
X134558809Y-106002295D02*
X134482619Y-106040390D01*
X134482619Y-106040390D02*
X134444524Y-106078485D01*
X134444524Y-106078485D02*
X134406428Y-106154676D01*
X134406428Y-106154676D02*
X134406428Y-106345152D01*
X134406428Y-106345152D02*
X134444524Y-106421342D01*
X134444524Y-106421342D02*
X134482619Y-106459438D01*
X134482619Y-106459438D02*
X134558809Y-106497533D01*
X134558809Y-106497533D02*
X134711190Y-106497533D01*
X134711190Y-106497533D02*
X134787381Y-106459438D01*
X134787381Y-106459438D02*
X134825476Y-106421342D01*
X134825476Y-106421342D02*
X134863571Y-106345152D01*
D10*
X163534687Y-105372895D02*
X163534687Y-106020514D01*
X163534687Y-106020514D02*
X163572782Y-106096704D01*
X163572782Y-106096704D02*
X163610877Y-106134800D01*
X163610877Y-106134800D02*
X163687068Y-106172895D01*
X163687068Y-106172895D02*
X163839449Y-106172895D01*
X163839449Y-106172895D02*
X163915639Y-106134800D01*
X163915639Y-106134800D02*
X163953734Y-106096704D01*
X163953734Y-106096704D02*
X163991830Y-106020514D01*
X163991830Y-106020514D02*
X163991830Y-105372895D01*
X164715639Y-105372895D02*
X164563258Y-105372895D01*
X164563258Y-105372895D02*
X164487067Y-105410990D01*
X164487067Y-105410990D02*
X164448972Y-105449085D01*
X164448972Y-105449085D02*
X164372782Y-105563371D01*
X164372782Y-105563371D02*
X164334686Y-105715752D01*
X164334686Y-105715752D02*
X164334686Y-106020514D01*
X164334686Y-106020514D02*
X164372782Y-106096704D01*
X164372782Y-106096704D02*
X164410877Y-106134800D01*
X164410877Y-106134800D02*
X164487067Y-106172895D01*
X164487067Y-106172895D02*
X164639448Y-106172895D01*
X164639448Y-106172895D02*
X164715639Y-106134800D01*
X164715639Y-106134800D02*
X164753734Y-106096704D01*
X164753734Y-106096704D02*
X164791829Y-106020514D01*
X164791829Y-106020514D02*
X164791829Y-105830038D01*
X164791829Y-105830038D02*
X164753734Y-105753847D01*
X164753734Y-105753847D02*
X164715639Y-105715752D01*
X164715639Y-105715752D02*
X164639448Y-105677657D01*
X164639448Y-105677657D02*
X164487067Y-105677657D01*
X164487067Y-105677657D02*
X164410877Y-105715752D01*
X164410877Y-105715752D02*
X164372782Y-105753847D01*
X164372782Y-105753847D02*
X164334686Y-105830038D01*
D13*
X134081667Y-105092295D02*
X133815000Y-104711342D01*
X133624524Y-105092295D02*
X133624524Y-104292295D01*
X133624524Y-104292295D02*
X133929286Y-104292295D01*
X133929286Y-104292295D02*
X134005476Y-104330390D01*
X134005476Y-104330390D02*
X134043571Y-104368485D01*
X134043571Y-104368485D02*
X134081667Y-104444676D01*
X134081667Y-104444676D02*
X134081667Y-104558961D01*
X134081667Y-104558961D02*
X134043571Y-104635152D01*
X134043571Y-104635152D02*
X134005476Y-104673247D01*
X134005476Y-104673247D02*
X133929286Y-104711342D01*
X133929286Y-104711342D02*
X133624524Y-104711342D01*
X134805476Y-104292295D02*
X134424524Y-104292295D01*
X134424524Y-104292295D02*
X134386428Y-104673247D01*
X134386428Y-104673247D02*
X134424524Y-104635152D01*
X134424524Y-104635152D02*
X134500714Y-104597057D01*
X134500714Y-104597057D02*
X134691190Y-104597057D01*
X134691190Y-104597057D02*
X134767381Y-104635152D01*
X134767381Y-104635152D02*
X134805476Y-104673247D01*
X134805476Y-104673247D02*
X134843571Y-104749438D01*
X134843571Y-104749438D02*
X134843571Y-104939914D01*
X134843571Y-104939914D02*
X134805476Y-105016104D01*
X134805476Y-105016104D02*
X134767381Y-105054200D01*
X134767381Y-105054200D02*
X134691190Y-105092295D01*
X134691190Y-105092295D02*
X134500714Y-105092295D01*
X134500714Y-105092295D02*
X134424524Y-105054200D01*
X134424524Y-105054200D02*
X134386428Y-105016104D01*
X144648095Y-103694819D02*
X144648095Y-104504342D01*
X144648095Y-104504342D02*
X144695714Y-104599580D01*
X144695714Y-104599580D02*
X144743333Y-104647200D01*
X144743333Y-104647200D02*
X144838571Y-104694819D01*
X144838571Y-104694819D02*
X145029047Y-104694819D01*
X145029047Y-104694819D02*
X145124285Y-104647200D01*
X145124285Y-104647200D02*
X145171904Y-104599580D01*
X145171904Y-104599580D02*
X145219523Y-104504342D01*
X145219523Y-104504342D02*
X145219523Y-103694819D01*
X146171904Y-103694819D02*
X145695714Y-103694819D01*
X145695714Y-103694819D02*
X145648095Y-104171009D01*
X145648095Y-104171009D02*
X145695714Y-104123390D01*
X145695714Y-104123390D02*
X145790952Y-104075771D01*
X145790952Y-104075771D02*
X146029047Y-104075771D01*
X146029047Y-104075771D02*
X146124285Y-104123390D01*
X146124285Y-104123390D02*
X146171904Y-104171009D01*
X146171904Y-104171009D02*
X146219523Y-104266247D01*
X146219523Y-104266247D02*
X146219523Y-104504342D01*
X146219523Y-104504342D02*
X146171904Y-104599580D01*
X146171904Y-104599580D02*
X146124285Y-104647200D01*
X146124285Y-104647200D02*
X146029047Y-104694819D01*
X146029047Y-104694819D02*
X145790952Y-104694819D01*
X145790952Y-104694819D02*
X145695714Y-104647200D01*
X145695714Y-104647200D02*
X145648095Y-104599580D01*
X171915295Y-91391065D02*
X172486723Y-91391065D01*
X172486723Y-91391065D02*
X172601009Y-91429160D01*
X172601009Y-91429160D02*
X172677200Y-91505351D01*
X172677200Y-91505351D02*
X172715295Y-91619636D01*
X172715295Y-91619636D02*
X172715295Y-91695827D01*
X172181961Y-90667255D02*
X172715295Y-90667255D01*
X171877200Y-90857731D02*
X172448628Y-91048208D01*
X172448628Y-91048208D02*
X172448628Y-90552969D01*
D10*
X172094524Y-109961895D02*
X172094524Y-109161895D01*
X172094524Y-109161895D02*
X172285000Y-109161895D01*
X172285000Y-109161895D02*
X172399286Y-109199990D01*
X172399286Y-109199990D02*
X172475476Y-109276180D01*
X172475476Y-109276180D02*
X172513571Y-109352371D01*
X172513571Y-109352371D02*
X172551667Y-109504752D01*
X172551667Y-109504752D02*
X172551667Y-109619038D01*
X172551667Y-109619038D02*
X172513571Y-109771419D01*
X172513571Y-109771419D02*
X172475476Y-109847609D01*
X172475476Y-109847609D02*
X172399286Y-109923800D01*
X172399286Y-109923800D02*
X172285000Y-109961895D01*
X172285000Y-109961895D02*
X172094524Y-109961895D01*
X173275476Y-109161895D02*
X172894524Y-109161895D01*
X172894524Y-109161895D02*
X172856428Y-109542847D01*
X172856428Y-109542847D02*
X172894524Y-109504752D01*
X172894524Y-109504752D02*
X172970714Y-109466657D01*
X172970714Y-109466657D02*
X173161190Y-109466657D01*
X173161190Y-109466657D02*
X173237381Y-109504752D01*
X173237381Y-109504752D02*
X173275476Y-109542847D01*
X173275476Y-109542847D02*
X173313571Y-109619038D01*
X173313571Y-109619038D02*
X173313571Y-109809514D01*
X173313571Y-109809514D02*
X173275476Y-109885704D01*
X173275476Y-109885704D02*
X173237381Y-109923800D01*
X173237381Y-109923800D02*
X173161190Y-109961895D01*
X173161190Y-109961895D02*
X172970714Y-109961895D01*
X172970714Y-109961895D02*
X172894524Y-109923800D01*
X172894524Y-109923800D02*
X172856428Y-109885704D01*
D13*
X146348095Y-103144819D02*
X146919523Y-103144819D01*
X146633809Y-104144819D02*
X146633809Y-103144819D01*
X147252857Y-104144819D02*
X147252857Y-103144819D01*
X147252857Y-103144819D02*
X147633809Y-103144819D01*
X147633809Y-103144819D02*
X147729047Y-103192438D01*
X147729047Y-103192438D02*
X147776666Y-103240057D01*
X147776666Y-103240057D02*
X147824285Y-103335295D01*
X147824285Y-103335295D02*
X147824285Y-103478152D01*
X147824285Y-103478152D02*
X147776666Y-103573390D01*
X147776666Y-103573390D02*
X147729047Y-103621009D01*
X147729047Y-103621009D02*
X147633809Y-103668628D01*
X147633809Y-103668628D02*
X147252857Y-103668628D01*
X148157619Y-103144819D02*
X148776666Y-103144819D01*
X148776666Y-103144819D02*
X148443333Y-103525771D01*
X148443333Y-103525771D02*
X148586190Y-103525771D01*
X148586190Y-103525771D02*
X148681428Y-103573390D01*
X148681428Y-103573390D02*
X148729047Y-103621009D01*
X148729047Y-103621009D02*
X148776666Y-103716247D01*
X148776666Y-103716247D02*
X148776666Y-103954342D01*
X148776666Y-103954342D02*
X148729047Y-104049580D01*
X148729047Y-104049580D02*
X148681428Y-104097200D01*
X148681428Y-104097200D02*
X148586190Y-104144819D01*
X148586190Y-104144819D02*
X148300476Y-104144819D01*
X148300476Y-104144819D02*
X148205238Y-104097200D01*
X148205238Y-104097200D02*
X148157619Y-104049580D01*
X166643333Y-79269580D02*
X166595714Y-79317200D01*
X166595714Y-79317200D02*
X166452857Y-79364819D01*
X166452857Y-79364819D02*
X166357619Y-79364819D01*
X166357619Y-79364819D02*
X166214762Y-79317200D01*
X166214762Y-79317200D02*
X166119524Y-79221961D01*
X166119524Y-79221961D02*
X166071905Y-79126723D01*
X166071905Y-79126723D02*
X166024286Y-78936247D01*
X166024286Y-78936247D02*
X166024286Y-78793390D01*
X166024286Y-78793390D02*
X166071905Y-78602914D01*
X166071905Y-78602914D02*
X166119524Y-78507676D01*
X166119524Y-78507676D02*
X166214762Y-78412438D01*
X166214762Y-78412438D02*
X166357619Y-78364819D01*
X166357619Y-78364819D02*
X166452857Y-78364819D01*
X166452857Y-78364819D02*
X166595714Y-78412438D01*
X166595714Y-78412438D02*
X166643333Y-78460057D01*
X167024286Y-78460057D02*
X167071905Y-78412438D01*
X167071905Y-78412438D02*
X167167143Y-78364819D01*
X167167143Y-78364819D02*
X167405238Y-78364819D01*
X167405238Y-78364819D02*
X167500476Y-78412438D01*
X167500476Y-78412438D02*
X167548095Y-78460057D01*
X167548095Y-78460057D02*
X167595714Y-78555295D01*
X167595714Y-78555295D02*
X167595714Y-78650533D01*
X167595714Y-78650533D02*
X167548095Y-78793390D01*
X167548095Y-78793390D02*
X166976667Y-79364819D01*
X166976667Y-79364819D02*
X167595714Y-79364819D01*
D10*
X134724895Y-79652975D02*
X133924895Y-79652975D01*
X133924895Y-79652975D02*
X133924895Y-79462499D01*
X133924895Y-79462499D02*
X133962990Y-79348213D01*
X133962990Y-79348213D02*
X134039180Y-79272023D01*
X134039180Y-79272023D02*
X134115371Y-79233928D01*
X134115371Y-79233928D02*
X134267752Y-79195832D01*
X134267752Y-79195832D02*
X134382038Y-79195832D01*
X134382038Y-79195832D02*
X134534419Y-79233928D01*
X134534419Y-79233928D02*
X134610609Y-79272023D01*
X134610609Y-79272023D02*
X134686800Y-79348213D01*
X134686800Y-79348213D02*
X134724895Y-79462499D01*
X134724895Y-79462499D02*
X134724895Y-79652975D01*
X134001085Y-78891071D02*
X133962990Y-78852975D01*
X133962990Y-78852975D02*
X133924895Y-78776785D01*
X133924895Y-78776785D02*
X133924895Y-78586309D01*
X133924895Y-78586309D02*
X133962990Y-78510118D01*
X133962990Y-78510118D02*
X134001085Y-78472023D01*
X134001085Y-78472023D02*
X134077276Y-78433928D01*
X134077276Y-78433928D02*
X134153466Y-78433928D01*
X134153466Y-78433928D02*
X134267752Y-78472023D01*
X134267752Y-78472023D02*
X134724895Y-78929166D01*
X134724895Y-78929166D02*
X134724895Y-78433928D01*
D14*
X146652857Y-101711331D02*
X146652857Y-102197045D01*
X146652857Y-102197045D02*
X146681428Y-102254188D01*
X146681428Y-102254188D02*
X146710000Y-102282760D01*
X146710000Y-102282760D02*
X146767142Y-102311331D01*
X146767142Y-102311331D02*
X146881428Y-102311331D01*
X146881428Y-102311331D02*
X146938571Y-102282760D01*
X146938571Y-102282760D02*
X146967142Y-102254188D01*
X146967142Y-102254188D02*
X146995714Y-102197045D01*
X146995714Y-102197045D02*
X146995714Y-101711331D01*
X147538571Y-101911331D02*
X147538571Y-102311331D01*
X147395713Y-101682760D02*
X147252856Y-102111331D01*
X147252856Y-102111331D02*
X147624285Y-102111331D01*
D13*
X164976666Y-113694819D02*
X164976666Y-114409104D01*
X164976666Y-114409104D02*
X164929047Y-114551961D01*
X164929047Y-114551961D02*
X164833809Y-114647200D01*
X164833809Y-114647200D02*
X164690952Y-114694819D01*
X164690952Y-114694819D02*
X164595714Y-114694819D01*
X165357619Y-113694819D02*
X165976666Y-113694819D01*
X165976666Y-113694819D02*
X165643333Y-114075771D01*
X165643333Y-114075771D02*
X165786190Y-114075771D01*
X165786190Y-114075771D02*
X165881428Y-114123390D01*
X165881428Y-114123390D02*
X165929047Y-114171009D01*
X165929047Y-114171009D02*
X165976666Y-114266247D01*
X165976666Y-114266247D02*
X165976666Y-114504342D01*
X165976666Y-114504342D02*
X165929047Y-114599580D01*
X165929047Y-114599580D02*
X165881428Y-114647200D01*
X165881428Y-114647200D02*
X165786190Y-114694819D01*
X165786190Y-114694819D02*
X165500476Y-114694819D01*
X165500476Y-114694819D02*
X165405238Y-114647200D01*
X165405238Y-114647200D02*
X165357619Y-114599580D01*
D10*
X162242895Y-105804285D02*
X161861942Y-106070952D01*
X162242895Y-106261428D02*
X161442895Y-106261428D01*
X161442895Y-106261428D02*
X161442895Y-105956666D01*
X161442895Y-105956666D02*
X161480990Y-105880476D01*
X161480990Y-105880476D02*
X161519085Y-105842381D01*
X161519085Y-105842381D02*
X161595276Y-105804285D01*
X161595276Y-105804285D02*
X161709561Y-105804285D01*
X161709561Y-105804285D02*
X161785752Y-105842381D01*
X161785752Y-105842381D02*
X161823847Y-105880476D01*
X161823847Y-105880476D02*
X161861942Y-105956666D01*
X161861942Y-105956666D02*
X161861942Y-106261428D01*
X162242895Y-105042381D02*
X162242895Y-105499524D01*
X162242895Y-105270952D02*
X161442895Y-105270952D01*
X161442895Y-105270952D02*
X161557180Y-105347143D01*
X161557180Y-105347143D02*
X161633371Y-105423333D01*
X161633371Y-105423333D02*
X161671466Y-105499524D01*
X161442895Y-104775714D02*
X161442895Y-104280476D01*
X161442895Y-104280476D02*
X161747657Y-104547142D01*
X161747657Y-104547142D02*
X161747657Y-104432857D01*
X161747657Y-104432857D02*
X161785752Y-104356666D01*
X161785752Y-104356666D02*
X161823847Y-104318571D01*
X161823847Y-104318571D02*
X161900038Y-104280476D01*
X161900038Y-104280476D02*
X162090514Y-104280476D01*
X162090514Y-104280476D02*
X162166704Y-104318571D01*
X162166704Y-104318571D02*
X162204800Y-104356666D01*
X162204800Y-104356666D02*
X162242895Y-104432857D01*
X162242895Y-104432857D02*
X162242895Y-104661428D01*
X162242895Y-104661428D02*
X162204800Y-104737619D01*
X162204800Y-104737619D02*
X162166704Y-104775714D01*
X167867895Y-111479285D02*
X167486942Y-111745952D01*
X167867895Y-111936428D02*
X167067895Y-111936428D01*
X167067895Y-111936428D02*
X167067895Y-111631666D01*
X167067895Y-111631666D02*
X167105990Y-111555476D01*
X167105990Y-111555476D02*
X167144085Y-111517381D01*
X167144085Y-111517381D02*
X167220276Y-111479285D01*
X167220276Y-111479285D02*
X167334561Y-111479285D01*
X167334561Y-111479285D02*
X167410752Y-111517381D01*
X167410752Y-111517381D02*
X167448847Y-111555476D01*
X167448847Y-111555476D02*
X167486942Y-111631666D01*
X167486942Y-111631666D02*
X167486942Y-111936428D01*
X167867895Y-110717381D02*
X167867895Y-111174524D01*
X167867895Y-110945952D02*
X167067895Y-110945952D01*
X167067895Y-110945952D02*
X167182180Y-111022143D01*
X167182180Y-111022143D02*
X167258371Y-111098333D01*
X167258371Y-111098333D02*
X167296466Y-111174524D01*
X167067895Y-109993571D02*
X167067895Y-110374523D01*
X167067895Y-110374523D02*
X167448847Y-110412619D01*
X167448847Y-110412619D02*
X167410752Y-110374523D01*
X167410752Y-110374523D02*
X167372657Y-110298333D01*
X167372657Y-110298333D02*
X167372657Y-110107857D01*
X167372657Y-110107857D02*
X167410752Y-110031666D01*
X167410752Y-110031666D02*
X167448847Y-109993571D01*
X167448847Y-109993571D02*
X167525038Y-109955476D01*
X167525038Y-109955476D02*
X167715514Y-109955476D01*
X167715514Y-109955476D02*
X167791704Y-109993571D01*
X167791704Y-109993571D02*
X167829800Y-110031666D01*
X167829800Y-110031666D02*
X167867895Y-110107857D01*
X167867895Y-110107857D02*
X167867895Y-110298333D01*
X167867895Y-110298333D02*
X167829800Y-110374523D01*
X167829800Y-110374523D02*
X167791704Y-110412619D01*
X165973704Y-111304285D02*
X166011800Y-111342381D01*
X166011800Y-111342381D02*
X166049895Y-111456666D01*
X166049895Y-111456666D02*
X166049895Y-111532857D01*
X166049895Y-111532857D02*
X166011800Y-111647143D01*
X166011800Y-111647143D02*
X165935609Y-111723333D01*
X165935609Y-111723333D02*
X165859419Y-111761428D01*
X165859419Y-111761428D02*
X165707038Y-111799524D01*
X165707038Y-111799524D02*
X165592752Y-111799524D01*
X165592752Y-111799524D02*
X165440371Y-111761428D01*
X165440371Y-111761428D02*
X165364180Y-111723333D01*
X165364180Y-111723333D02*
X165287990Y-111647143D01*
X165287990Y-111647143D02*
X165249895Y-111532857D01*
X165249895Y-111532857D02*
X165249895Y-111456666D01*
X165249895Y-111456666D02*
X165287990Y-111342381D01*
X165287990Y-111342381D02*
X165326085Y-111304285D01*
X166049895Y-110542381D02*
X166049895Y-110999524D01*
X166049895Y-110770952D02*
X165249895Y-110770952D01*
X165249895Y-110770952D02*
X165364180Y-110847143D01*
X165364180Y-110847143D02*
X165440371Y-110923333D01*
X165440371Y-110923333D02*
X165478466Y-110999524D01*
X166049895Y-109780476D02*
X166049895Y-110237619D01*
X166049895Y-110009047D02*
X165249895Y-110009047D01*
X165249895Y-110009047D02*
X165364180Y-110085238D01*
X165364180Y-110085238D02*
X165440371Y-110161428D01*
X165440371Y-110161428D02*
X165478466Y-110237619D01*
D15*
X155777771Y-101391749D02*
X155777771Y-101623977D01*
X155615211Y-101136297D02*
X155777771Y-101391749D01*
X155777771Y-101391749D02*
X155940331Y-101136297D01*
X156358342Y-101623977D02*
X156079668Y-101623977D01*
X156219005Y-101623977D02*
X156219005Y-101136297D01*
X156219005Y-101136297D02*
X156172559Y-101205966D01*
X156172559Y-101205966D02*
X156126114Y-101252412D01*
X156126114Y-101252412D02*
X156079668Y-101275635D01*
D13*
X155826667Y-99784295D02*
X155560000Y-99403342D01*
X155369524Y-99784295D02*
X155369524Y-98984295D01*
X155369524Y-98984295D02*
X155674286Y-98984295D01*
X155674286Y-98984295D02*
X155750476Y-99022390D01*
X155750476Y-99022390D02*
X155788571Y-99060485D01*
X155788571Y-99060485D02*
X155826667Y-99136676D01*
X155826667Y-99136676D02*
X155826667Y-99250961D01*
X155826667Y-99250961D02*
X155788571Y-99327152D01*
X155788571Y-99327152D02*
X155750476Y-99365247D01*
X155750476Y-99365247D02*
X155674286Y-99403342D01*
X155674286Y-99403342D02*
X155369524Y-99403342D01*
X156512381Y-99250961D02*
X156512381Y-99784295D01*
X156321905Y-98946200D02*
X156131428Y-99517628D01*
X156131428Y-99517628D02*
X156626667Y-99517628D01*
X134893333Y-102169819D02*
X134560000Y-101693628D01*
X134321905Y-102169819D02*
X134321905Y-101169819D01*
X134321905Y-101169819D02*
X134702857Y-101169819D01*
X134702857Y-101169819D02*
X134798095Y-101217438D01*
X134798095Y-101217438D02*
X134845714Y-101265057D01*
X134845714Y-101265057D02*
X134893333Y-101360295D01*
X134893333Y-101360295D02*
X134893333Y-101503152D01*
X134893333Y-101503152D02*
X134845714Y-101598390D01*
X134845714Y-101598390D02*
X134798095Y-101646009D01*
X134798095Y-101646009D02*
X134702857Y-101693628D01*
X134702857Y-101693628D02*
X134321905Y-101693628D01*
X135464762Y-101598390D02*
X135369524Y-101550771D01*
X135369524Y-101550771D02*
X135321905Y-101503152D01*
X135321905Y-101503152D02*
X135274286Y-101407914D01*
X135274286Y-101407914D02*
X135274286Y-101360295D01*
X135274286Y-101360295D02*
X135321905Y-101265057D01*
X135321905Y-101265057D02*
X135369524Y-101217438D01*
X135369524Y-101217438D02*
X135464762Y-101169819D01*
X135464762Y-101169819D02*
X135655238Y-101169819D01*
X135655238Y-101169819D02*
X135750476Y-101217438D01*
X135750476Y-101217438D02*
X135798095Y-101265057D01*
X135798095Y-101265057D02*
X135845714Y-101360295D01*
X135845714Y-101360295D02*
X135845714Y-101407914D01*
X135845714Y-101407914D02*
X135798095Y-101503152D01*
X135798095Y-101503152D02*
X135750476Y-101550771D01*
X135750476Y-101550771D02*
X135655238Y-101598390D01*
X135655238Y-101598390D02*
X135464762Y-101598390D01*
X135464762Y-101598390D02*
X135369524Y-101646009D01*
X135369524Y-101646009D02*
X135321905Y-101693628D01*
X135321905Y-101693628D02*
X135274286Y-101788866D01*
X135274286Y-101788866D02*
X135274286Y-101979342D01*
X135274286Y-101979342D02*
X135321905Y-102074580D01*
X135321905Y-102074580D02*
X135369524Y-102122200D01*
X135369524Y-102122200D02*
X135464762Y-102169819D01*
X135464762Y-102169819D02*
X135655238Y-102169819D01*
X135655238Y-102169819D02*
X135750476Y-102122200D01*
X135750476Y-102122200D02*
X135798095Y-102074580D01*
X135798095Y-102074580D02*
X135845714Y-101979342D01*
X135845714Y-101979342D02*
X135845714Y-101788866D01*
X135845714Y-101788866D02*
X135798095Y-101693628D01*
X135798095Y-101693628D02*
X135750476Y-101646009D01*
X135750476Y-101646009D02*
X135655238Y-101598390D01*
X160884819Y-118201904D02*
X161694342Y-118201904D01*
X161694342Y-118201904D02*
X161789580Y-118154285D01*
X161789580Y-118154285D02*
X161837200Y-118106666D01*
X161837200Y-118106666D02*
X161884819Y-118011428D01*
X161884819Y-118011428D02*
X161884819Y-117820952D01*
X161884819Y-117820952D02*
X161837200Y-117725714D01*
X161837200Y-117725714D02*
X161789580Y-117678095D01*
X161789580Y-117678095D02*
X161694342Y-117630476D01*
X161694342Y-117630476D02*
X160884819Y-117630476D01*
X160884819Y-117249523D02*
X160884819Y-116582857D01*
X160884819Y-116582857D02*
X161884819Y-117011428D01*
D16*
X133138571Y-113825559D02*
X132971905Y-113587464D01*
X132852857Y-113825559D02*
X132852857Y-113325559D01*
X132852857Y-113325559D02*
X133043333Y-113325559D01*
X133043333Y-113325559D02*
X133090952Y-113349369D01*
X133090952Y-113349369D02*
X133114762Y-113373178D01*
X133114762Y-113373178D02*
X133138571Y-113420797D01*
X133138571Y-113420797D02*
X133138571Y-113492226D01*
X133138571Y-113492226D02*
X133114762Y-113539845D01*
X133114762Y-113539845D02*
X133090952Y-113563654D01*
X133090952Y-113563654D02*
X133043333Y-113587464D01*
X133043333Y-113587464D02*
X132852857Y-113587464D01*
X133614762Y-113825559D02*
X133329048Y-113825559D01*
X133471905Y-113825559D02*
X133471905Y-113325559D01*
X133471905Y-113325559D02*
X133424286Y-113396988D01*
X133424286Y-113396988D02*
X133376667Y-113444607D01*
X133376667Y-113444607D02*
X133329048Y-113468416D01*
X134043333Y-113492226D02*
X134043333Y-113825559D01*
X133924285Y-113301750D02*
X133805238Y-113658892D01*
X133805238Y-113658892D02*
X134114761Y-113658892D01*
D13*
X153325967Y-94126230D02*
X153287871Y-94164326D01*
X153287871Y-94164326D02*
X153173586Y-94202421D01*
X153173586Y-94202421D02*
X153097395Y-94202421D01*
X153097395Y-94202421D02*
X152983109Y-94164326D01*
X152983109Y-94164326D02*
X152906919Y-94088135D01*
X152906919Y-94088135D02*
X152868824Y-94011945D01*
X152868824Y-94011945D02*
X152830728Y-93859564D01*
X152830728Y-93859564D02*
X152830728Y-93745278D01*
X152830728Y-93745278D02*
X152868824Y-93592897D01*
X152868824Y-93592897D02*
X152906919Y-93516706D01*
X152906919Y-93516706D02*
X152983109Y-93440516D01*
X152983109Y-93440516D02*
X153097395Y-93402421D01*
X153097395Y-93402421D02*
X153173586Y-93402421D01*
X153173586Y-93402421D02*
X153287871Y-93440516D01*
X153287871Y-93440516D02*
X153325967Y-93478611D01*
X153592633Y-93402421D02*
X154087871Y-93402421D01*
X154087871Y-93402421D02*
X153821205Y-93707183D01*
X153821205Y-93707183D02*
X153935490Y-93707183D01*
X153935490Y-93707183D02*
X154011681Y-93745278D01*
X154011681Y-93745278D02*
X154049776Y-93783373D01*
X154049776Y-93783373D02*
X154087871Y-93859564D01*
X154087871Y-93859564D02*
X154087871Y-94050040D01*
X154087871Y-94050040D02*
X154049776Y-94126230D01*
X154049776Y-94126230D02*
X154011681Y-94164326D01*
X154011681Y-94164326D02*
X153935490Y-94202421D01*
X153935490Y-94202421D02*
X153706919Y-94202421D01*
X153706919Y-94202421D02*
X153630728Y-94164326D01*
X153630728Y-94164326D02*
X153592633Y-94126230D01*
X151996104Y-94123332D02*
X152034200Y-94161428D01*
X152034200Y-94161428D02*
X152072295Y-94275713D01*
X152072295Y-94275713D02*
X152072295Y-94351904D01*
X152072295Y-94351904D02*
X152034200Y-94466190D01*
X152034200Y-94466190D02*
X151958009Y-94542380D01*
X151958009Y-94542380D02*
X151881819Y-94580475D01*
X151881819Y-94580475D02*
X151729438Y-94618571D01*
X151729438Y-94618571D02*
X151615152Y-94618571D01*
X151615152Y-94618571D02*
X151462771Y-94580475D01*
X151462771Y-94580475D02*
X151386580Y-94542380D01*
X151386580Y-94542380D02*
X151310390Y-94466190D01*
X151310390Y-94466190D02*
X151272295Y-94351904D01*
X151272295Y-94351904D02*
X151272295Y-94275713D01*
X151272295Y-94275713D02*
X151310390Y-94161428D01*
X151310390Y-94161428D02*
X151348485Y-94123332D01*
X151272295Y-93856666D02*
X151272295Y-93323332D01*
X151272295Y-93323332D02*
X152072295Y-93666190D01*
X164876667Y-98651104D02*
X164838571Y-98689200D01*
X164838571Y-98689200D02*
X164724286Y-98727295D01*
X164724286Y-98727295D02*
X164648095Y-98727295D01*
X164648095Y-98727295D02*
X164533809Y-98689200D01*
X164533809Y-98689200D02*
X164457619Y-98613009D01*
X164457619Y-98613009D02*
X164419524Y-98536819D01*
X164419524Y-98536819D02*
X164381428Y-98384438D01*
X164381428Y-98384438D02*
X164381428Y-98270152D01*
X164381428Y-98270152D02*
X164419524Y-98117771D01*
X164419524Y-98117771D02*
X164457619Y-98041580D01*
X164457619Y-98041580D02*
X164533809Y-97965390D01*
X164533809Y-97965390D02*
X164648095Y-97927295D01*
X164648095Y-97927295D02*
X164724286Y-97927295D01*
X164724286Y-97927295D02*
X164838571Y-97965390D01*
X164838571Y-97965390D02*
X164876667Y-98003485D01*
X165562381Y-98193961D02*
X165562381Y-98727295D01*
X165371905Y-97889200D02*
X165181428Y-98460628D01*
X165181428Y-98460628D02*
X165676667Y-98460628D01*
X181389819Y-103398333D02*
X182104104Y-103398333D01*
X182104104Y-103398333D02*
X182246961Y-103445952D01*
X182246961Y-103445952D02*
X182342200Y-103541190D01*
X182342200Y-103541190D02*
X182389819Y-103684047D01*
X182389819Y-103684047D02*
X182389819Y-103779285D01*
X181485057Y-102969761D02*
X181437438Y-102922142D01*
X181437438Y-102922142D02*
X181389819Y-102826904D01*
X181389819Y-102826904D02*
X181389819Y-102588809D01*
X181389819Y-102588809D02*
X181437438Y-102493571D01*
X181437438Y-102493571D02*
X181485057Y-102445952D01*
X181485057Y-102445952D02*
X181580295Y-102398333D01*
X181580295Y-102398333D02*
X181675533Y-102398333D01*
X181675533Y-102398333D02*
X181818390Y-102445952D01*
X181818390Y-102445952D02*
X182389819Y-103017380D01*
X182389819Y-103017380D02*
X182389819Y-102398333D01*
D10*
X167592895Y-105904285D02*
X167211942Y-106170952D01*
X167592895Y-106361428D02*
X166792895Y-106361428D01*
X166792895Y-106361428D02*
X166792895Y-106056666D01*
X166792895Y-106056666D02*
X166830990Y-105980476D01*
X166830990Y-105980476D02*
X166869085Y-105942381D01*
X166869085Y-105942381D02*
X166945276Y-105904285D01*
X166945276Y-105904285D02*
X167059561Y-105904285D01*
X167059561Y-105904285D02*
X167135752Y-105942381D01*
X167135752Y-105942381D02*
X167173847Y-105980476D01*
X167173847Y-105980476D02*
X167211942Y-106056666D01*
X167211942Y-106056666D02*
X167211942Y-106361428D01*
X167592895Y-105142381D02*
X167592895Y-105599524D01*
X167592895Y-105370952D02*
X166792895Y-105370952D01*
X166792895Y-105370952D02*
X166907180Y-105447143D01*
X166907180Y-105447143D02*
X166983371Y-105523333D01*
X166983371Y-105523333D02*
X167021466Y-105599524D01*
X166792895Y-104456666D02*
X166792895Y-104609047D01*
X166792895Y-104609047D02*
X166830990Y-104685238D01*
X166830990Y-104685238D02*
X166869085Y-104723333D01*
X166869085Y-104723333D02*
X166983371Y-104799523D01*
X166983371Y-104799523D02*
X167135752Y-104837619D01*
X167135752Y-104837619D02*
X167440514Y-104837619D01*
X167440514Y-104837619D02*
X167516704Y-104799523D01*
X167516704Y-104799523D02*
X167554800Y-104761428D01*
X167554800Y-104761428D02*
X167592895Y-104685238D01*
X167592895Y-104685238D02*
X167592895Y-104532857D01*
X167592895Y-104532857D02*
X167554800Y-104456666D01*
X167554800Y-104456666D02*
X167516704Y-104418571D01*
X167516704Y-104418571D02*
X167440514Y-104380476D01*
X167440514Y-104380476D02*
X167250038Y-104380476D01*
X167250038Y-104380476D02*
X167173847Y-104418571D01*
X167173847Y-104418571D02*
X167135752Y-104456666D01*
X167135752Y-104456666D02*
X167097657Y-104532857D01*
X167097657Y-104532857D02*
X167097657Y-104685238D01*
X167097657Y-104685238D02*
X167135752Y-104761428D01*
X167135752Y-104761428D02*
X167173847Y-104799523D01*
X167173847Y-104799523D02*
X167250038Y-104837619D01*
X143734895Y-101644285D02*
X143353942Y-101910952D01*
X143734895Y-102101428D02*
X142934895Y-102101428D01*
X142934895Y-102101428D02*
X142934895Y-101796666D01*
X142934895Y-101796666D02*
X142972990Y-101720476D01*
X142972990Y-101720476D02*
X143011085Y-101682381D01*
X143011085Y-101682381D02*
X143087276Y-101644285D01*
X143087276Y-101644285D02*
X143201561Y-101644285D01*
X143201561Y-101644285D02*
X143277752Y-101682381D01*
X143277752Y-101682381D02*
X143315847Y-101720476D01*
X143315847Y-101720476D02*
X143353942Y-101796666D01*
X143353942Y-101796666D02*
X143353942Y-102101428D01*
X143734895Y-100882381D02*
X143734895Y-101339524D01*
X143734895Y-101110952D02*
X142934895Y-101110952D01*
X142934895Y-101110952D02*
X143049180Y-101187143D01*
X143049180Y-101187143D02*
X143125371Y-101263333D01*
X143125371Y-101263333D02*
X143163466Y-101339524D01*
X143011085Y-100577619D02*
X142972990Y-100539523D01*
X142972990Y-100539523D02*
X142934895Y-100463333D01*
X142934895Y-100463333D02*
X142934895Y-100272857D01*
X142934895Y-100272857D02*
X142972990Y-100196666D01*
X142972990Y-100196666D02*
X143011085Y-100158571D01*
X143011085Y-100158571D02*
X143087276Y-100120476D01*
X143087276Y-100120476D02*
X143163466Y-100120476D01*
X143163466Y-100120476D02*
X143277752Y-100158571D01*
X143277752Y-100158571D02*
X143734895Y-100615714D01*
X143734895Y-100615714D02*
X143734895Y-100120476D01*
X163966704Y-111154285D02*
X164004800Y-111192381D01*
X164004800Y-111192381D02*
X164042895Y-111306666D01*
X164042895Y-111306666D02*
X164042895Y-111382857D01*
X164042895Y-111382857D02*
X164004800Y-111497143D01*
X164004800Y-111497143D02*
X163928609Y-111573333D01*
X163928609Y-111573333D02*
X163852419Y-111611428D01*
X163852419Y-111611428D02*
X163700038Y-111649524D01*
X163700038Y-111649524D02*
X163585752Y-111649524D01*
X163585752Y-111649524D02*
X163433371Y-111611428D01*
X163433371Y-111611428D02*
X163357180Y-111573333D01*
X163357180Y-111573333D02*
X163280990Y-111497143D01*
X163280990Y-111497143D02*
X163242895Y-111382857D01*
X163242895Y-111382857D02*
X163242895Y-111306666D01*
X163242895Y-111306666D02*
X163280990Y-111192381D01*
X163280990Y-111192381D02*
X163319085Y-111154285D01*
X164042895Y-110392381D02*
X164042895Y-110849524D01*
X164042895Y-110620952D02*
X163242895Y-110620952D01*
X163242895Y-110620952D02*
X163357180Y-110697143D01*
X163357180Y-110697143D02*
X163433371Y-110773333D01*
X163433371Y-110773333D02*
X163471466Y-110849524D01*
X163242895Y-110125714D02*
X163242895Y-109630476D01*
X163242895Y-109630476D02*
X163547657Y-109897142D01*
X163547657Y-109897142D02*
X163547657Y-109782857D01*
X163547657Y-109782857D02*
X163585752Y-109706666D01*
X163585752Y-109706666D02*
X163623847Y-109668571D01*
X163623847Y-109668571D02*
X163700038Y-109630476D01*
X163700038Y-109630476D02*
X163890514Y-109630476D01*
X163890514Y-109630476D02*
X163966704Y-109668571D01*
X163966704Y-109668571D02*
X164004800Y-109706666D01*
X164004800Y-109706666D02*
X164042895Y-109782857D01*
X164042895Y-109782857D02*
X164042895Y-110011428D01*
X164042895Y-110011428D02*
X164004800Y-110087619D01*
X164004800Y-110087619D02*
X163966704Y-110125714D01*
D13*
X169440295Y-112185238D02*
X169440295Y-112566190D01*
X169440295Y-112566190D02*
X168640295Y-112566190D01*
X169021247Y-111918571D02*
X169021247Y-111651905D01*
X169440295Y-111537619D02*
X169440295Y-111918571D01*
X169440295Y-111918571D02*
X168640295Y-111918571D01*
X168640295Y-111918571D02*
X168640295Y-111537619D01*
X169440295Y-111194761D02*
X168640295Y-111194761D01*
X168640295Y-111194761D02*
X168640295Y-111004285D01*
X168640295Y-111004285D02*
X168678390Y-110889999D01*
X168678390Y-110889999D02*
X168754580Y-110813809D01*
X168754580Y-110813809D02*
X168830771Y-110775714D01*
X168830771Y-110775714D02*
X168983152Y-110737618D01*
X168983152Y-110737618D02*
X169097438Y-110737618D01*
X169097438Y-110737618D02*
X169249819Y-110775714D01*
X169249819Y-110775714D02*
X169326009Y-110813809D01*
X169326009Y-110813809D02*
X169402200Y-110889999D01*
X169402200Y-110889999D02*
X169440295Y-111004285D01*
X169440295Y-111004285D02*
X169440295Y-111194761D01*
X168906961Y-110051904D02*
X169440295Y-110051904D01*
X168602200Y-110242380D02*
X169173628Y-110432857D01*
X169173628Y-110432857D02*
X169173628Y-109937618D01*
X151426667Y-103976104D02*
X151388571Y-104014200D01*
X151388571Y-104014200D02*
X151274286Y-104052295D01*
X151274286Y-104052295D02*
X151198095Y-104052295D01*
X151198095Y-104052295D02*
X151083809Y-104014200D01*
X151083809Y-104014200D02*
X151007619Y-103938009D01*
X151007619Y-103938009D02*
X150969524Y-103861819D01*
X150969524Y-103861819D02*
X150931428Y-103709438D01*
X150931428Y-103709438D02*
X150931428Y-103595152D01*
X150931428Y-103595152D02*
X150969524Y-103442771D01*
X150969524Y-103442771D02*
X151007619Y-103366580D01*
X151007619Y-103366580D02*
X151083809Y-103290390D01*
X151083809Y-103290390D02*
X151198095Y-103252295D01*
X151198095Y-103252295D02*
X151274286Y-103252295D01*
X151274286Y-103252295D02*
X151388571Y-103290390D01*
X151388571Y-103290390D02*
X151426667Y-103328485D01*
X152112381Y-103252295D02*
X151960000Y-103252295D01*
X151960000Y-103252295D02*
X151883809Y-103290390D01*
X151883809Y-103290390D02*
X151845714Y-103328485D01*
X151845714Y-103328485D02*
X151769524Y-103442771D01*
X151769524Y-103442771D02*
X151731428Y-103595152D01*
X151731428Y-103595152D02*
X151731428Y-103899914D01*
X151731428Y-103899914D02*
X151769524Y-103976104D01*
X151769524Y-103976104D02*
X151807619Y-104014200D01*
X151807619Y-104014200D02*
X151883809Y-104052295D01*
X151883809Y-104052295D02*
X152036190Y-104052295D01*
X152036190Y-104052295D02*
X152112381Y-104014200D01*
X152112381Y-104014200D02*
X152150476Y-103976104D01*
X152150476Y-103976104D02*
X152188571Y-103899914D01*
X152188571Y-103899914D02*
X152188571Y-103709438D01*
X152188571Y-103709438D02*
X152150476Y-103633247D01*
X152150476Y-103633247D02*
X152112381Y-103595152D01*
X152112381Y-103595152D02*
X152036190Y-103557057D01*
X152036190Y-103557057D02*
X151883809Y-103557057D01*
X151883809Y-103557057D02*
X151807619Y-103595152D01*
X151807619Y-103595152D02*
X151769524Y-103633247D01*
X151769524Y-103633247D02*
X151731428Y-103709438D01*
D10*
X135024895Y-88580475D02*
X134224895Y-88580475D01*
X134224895Y-88580475D02*
X134224895Y-88389999D01*
X134224895Y-88389999D02*
X134262990Y-88275713D01*
X134262990Y-88275713D02*
X134339180Y-88199523D01*
X134339180Y-88199523D02*
X134415371Y-88161428D01*
X134415371Y-88161428D02*
X134567752Y-88123332D01*
X134567752Y-88123332D02*
X134682038Y-88123332D01*
X134682038Y-88123332D02*
X134834419Y-88161428D01*
X134834419Y-88161428D02*
X134910609Y-88199523D01*
X134910609Y-88199523D02*
X134986800Y-88275713D01*
X134986800Y-88275713D02*
X135024895Y-88389999D01*
X135024895Y-88389999D02*
X135024895Y-88580475D01*
X135024895Y-87361428D02*
X135024895Y-87818571D01*
X135024895Y-87589999D02*
X134224895Y-87589999D01*
X134224895Y-87589999D02*
X134339180Y-87666190D01*
X134339180Y-87666190D02*
X134415371Y-87742380D01*
X134415371Y-87742380D02*
X134453466Y-87818571D01*
D17*
X130316119Y-101556666D02*
X129839928Y-101889999D01*
X130316119Y-102128094D02*
X129316119Y-102128094D01*
X129316119Y-102128094D02*
X129316119Y-101747142D01*
X129316119Y-101747142D02*
X129363738Y-101651904D01*
X129363738Y-101651904D02*
X129411357Y-101604285D01*
X129411357Y-101604285D02*
X129506595Y-101556666D01*
X129506595Y-101556666D02*
X129649452Y-101556666D01*
X129649452Y-101556666D02*
X129744690Y-101604285D01*
X129744690Y-101604285D02*
X129792309Y-101651904D01*
X129792309Y-101651904D02*
X129839928Y-101747142D01*
X129839928Y-101747142D02*
X129839928Y-102128094D01*
X129363738Y-100604285D02*
X129316119Y-100699523D01*
X129316119Y-100699523D02*
X129316119Y-100842380D01*
X129316119Y-100842380D02*
X129363738Y-100985237D01*
X129363738Y-100985237D02*
X129458976Y-101080475D01*
X129458976Y-101080475D02*
X129554214Y-101128094D01*
X129554214Y-101128094D02*
X129744690Y-101175713D01*
X129744690Y-101175713D02*
X129887547Y-101175713D01*
X129887547Y-101175713D02*
X130078023Y-101128094D01*
X130078023Y-101128094D02*
X130173261Y-101080475D01*
X130173261Y-101080475D02*
X130268500Y-100985237D01*
X130268500Y-100985237D02*
X130316119Y-100842380D01*
X130316119Y-100842380D02*
X130316119Y-100747142D01*
X130316119Y-100747142D02*
X130268500Y-100604285D01*
X130268500Y-100604285D02*
X130220880Y-100556666D01*
X130220880Y-100556666D02*
X129887547Y-100556666D01*
X129887547Y-100556666D02*
X129887547Y-100747142D01*
X129792309Y-99794761D02*
X129839928Y-99651904D01*
X129839928Y-99651904D02*
X129887547Y-99604285D01*
X129887547Y-99604285D02*
X129982785Y-99556666D01*
X129982785Y-99556666D02*
X130125642Y-99556666D01*
X130125642Y-99556666D02*
X130220880Y-99604285D01*
X130220880Y-99604285D02*
X130268500Y-99651904D01*
X130268500Y-99651904D02*
X130316119Y-99747142D01*
X130316119Y-99747142D02*
X130316119Y-100128094D01*
X130316119Y-100128094D02*
X129316119Y-100128094D01*
X129316119Y-100128094D02*
X129316119Y-99794761D01*
X129316119Y-99794761D02*
X129363738Y-99699523D01*
X129363738Y-99699523D02*
X129411357Y-99651904D01*
X129411357Y-99651904D02*
X129506595Y-99604285D01*
X129506595Y-99604285D02*
X129601833Y-99604285D01*
X129601833Y-99604285D02*
X129697071Y-99651904D01*
X129697071Y-99651904D02*
X129744690Y-99699523D01*
X129744690Y-99699523D02*
X129792309Y-99794761D01*
X129792309Y-99794761D02*
X129792309Y-100128094D01*
X130316119Y-98604285D02*
X130316119Y-99175713D01*
X130316119Y-98889999D02*
X129316119Y-98889999D01*
X129316119Y-98889999D02*
X129458976Y-98985237D01*
X129458976Y-98985237D02*
X129554214Y-99080475D01*
X129554214Y-99080475D02*
X129601833Y-99175713D01*
D13*
X134893333Y-100569819D02*
X134560000Y-100093628D01*
X134321905Y-100569819D02*
X134321905Y-99569819D01*
X134321905Y-99569819D02*
X134702857Y-99569819D01*
X134702857Y-99569819D02*
X134798095Y-99617438D01*
X134798095Y-99617438D02*
X134845714Y-99665057D01*
X134845714Y-99665057D02*
X134893333Y-99760295D01*
X134893333Y-99760295D02*
X134893333Y-99903152D01*
X134893333Y-99903152D02*
X134845714Y-99998390D01*
X134845714Y-99998390D02*
X134798095Y-100046009D01*
X134798095Y-100046009D02*
X134702857Y-100093628D01*
X134702857Y-100093628D02*
X134321905Y-100093628D01*
X135226667Y-99569819D02*
X135893333Y-99569819D01*
X135893333Y-99569819D02*
X135464762Y-100569819D01*
D10*
X168595714Y-99228704D02*
X168557618Y-99266800D01*
X168557618Y-99266800D02*
X168443333Y-99304895D01*
X168443333Y-99304895D02*
X168367142Y-99304895D01*
X168367142Y-99304895D02*
X168252856Y-99266800D01*
X168252856Y-99266800D02*
X168176666Y-99190609D01*
X168176666Y-99190609D02*
X168138571Y-99114419D01*
X168138571Y-99114419D02*
X168100475Y-98962038D01*
X168100475Y-98962038D02*
X168100475Y-98847752D01*
X168100475Y-98847752D02*
X168138571Y-98695371D01*
X168138571Y-98695371D02*
X168176666Y-98619180D01*
X168176666Y-98619180D02*
X168252856Y-98542990D01*
X168252856Y-98542990D02*
X168367142Y-98504895D01*
X168367142Y-98504895D02*
X168443333Y-98504895D01*
X168443333Y-98504895D02*
X168557618Y-98542990D01*
X168557618Y-98542990D02*
X168595714Y-98581085D01*
X169357618Y-99304895D02*
X168900475Y-99304895D01*
X169129047Y-99304895D02*
X169129047Y-98504895D01*
X169129047Y-98504895D02*
X169052856Y-98619180D01*
X169052856Y-98619180D02*
X168976666Y-98695371D01*
X168976666Y-98695371D02*
X168900475Y-98733466D01*
X169662380Y-98581085D02*
X169700476Y-98542990D01*
X169700476Y-98542990D02*
X169776666Y-98504895D01*
X169776666Y-98504895D02*
X169967142Y-98504895D01*
X169967142Y-98504895D02*
X170043333Y-98542990D01*
X170043333Y-98542990D02*
X170081428Y-98581085D01*
X170081428Y-98581085D02*
X170119523Y-98657276D01*
X170119523Y-98657276D02*
X170119523Y-98733466D01*
X170119523Y-98733466D02*
X170081428Y-98847752D01*
X170081428Y-98847752D02*
X169624285Y-99304895D01*
X169624285Y-99304895D02*
X170119523Y-99304895D01*
D13*
X129739761Y-109977295D02*
X129358809Y-109977295D01*
X129358809Y-109977295D02*
X129358809Y-109177295D01*
X130006428Y-109558247D02*
X130273094Y-109558247D01*
X130387380Y-109977295D02*
X130006428Y-109977295D01*
X130006428Y-109977295D02*
X130006428Y-109177295D01*
X130006428Y-109177295D02*
X130387380Y-109177295D01*
X130730238Y-109977295D02*
X130730238Y-109177295D01*
X130730238Y-109177295D02*
X130920714Y-109177295D01*
X130920714Y-109177295D02*
X131035000Y-109215390D01*
X131035000Y-109215390D02*
X131111190Y-109291580D01*
X131111190Y-109291580D02*
X131149285Y-109367771D01*
X131149285Y-109367771D02*
X131187381Y-109520152D01*
X131187381Y-109520152D02*
X131187381Y-109634438D01*
X131187381Y-109634438D02*
X131149285Y-109786819D01*
X131149285Y-109786819D02*
X131111190Y-109863009D01*
X131111190Y-109863009D02*
X131035000Y-109939200D01*
X131035000Y-109939200D02*
X130920714Y-109977295D01*
X130920714Y-109977295D02*
X130730238Y-109977295D01*
X131454047Y-109177295D02*
X131949285Y-109177295D01*
X131949285Y-109177295D02*
X131682619Y-109482057D01*
X131682619Y-109482057D02*
X131796904Y-109482057D01*
X131796904Y-109482057D02*
X131873095Y-109520152D01*
X131873095Y-109520152D02*
X131911190Y-109558247D01*
X131911190Y-109558247D02*
X131949285Y-109634438D01*
X131949285Y-109634438D02*
X131949285Y-109824914D01*
X131949285Y-109824914D02*
X131911190Y-109901104D01*
X131911190Y-109901104D02*
X131873095Y-109939200D01*
X131873095Y-109939200D02*
X131796904Y-109977295D01*
X131796904Y-109977295D02*
X131568333Y-109977295D01*
X131568333Y-109977295D02*
X131492142Y-109939200D01*
X131492142Y-109939200D02*
X131454047Y-109901104D01*
D10*
X172045714Y-99147895D02*
X171779047Y-98766942D01*
X171588571Y-99147895D02*
X171588571Y-98347895D01*
X171588571Y-98347895D02*
X171893333Y-98347895D01*
X171893333Y-98347895D02*
X171969523Y-98385990D01*
X171969523Y-98385990D02*
X172007618Y-98424085D01*
X172007618Y-98424085D02*
X172045714Y-98500276D01*
X172045714Y-98500276D02*
X172045714Y-98614561D01*
X172045714Y-98614561D02*
X172007618Y-98690752D01*
X172007618Y-98690752D02*
X171969523Y-98728847D01*
X171969523Y-98728847D02*
X171893333Y-98766942D01*
X171893333Y-98766942D02*
X171588571Y-98766942D01*
X172807618Y-99147895D02*
X172350475Y-99147895D01*
X172579047Y-99147895D02*
X172579047Y-98347895D01*
X172579047Y-98347895D02*
X172502856Y-98462180D01*
X172502856Y-98462180D02*
X172426666Y-98538371D01*
X172426666Y-98538371D02*
X172350475Y-98576466D01*
X173569523Y-99147895D02*
X173112380Y-99147895D01*
X173340952Y-99147895D02*
X173340952Y-98347895D01*
X173340952Y-98347895D02*
X173264761Y-98462180D01*
X173264761Y-98462180D02*
X173188571Y-98538371D01*
X173188571Y-98538371D02*
X173112380Y-98576466D01*
D13*
X155225476Y-97652295D02*
X155225476Y-98299914D01*
X155225476Y-98299914D02*
X155263571Y-98376104D01*
X155263571Y-98376104D02*
X155301666Y-98414200D01*
X155301666Y-98414200D02*
X155377857Y-98452295D01*
X155377857Y-98452295D02*
X155530238Y-98452295D01*
X155530238Y-98452295D02*
X155606428Y-98414200D01*
X155606428Y-98414200D02*
X155644523Y-98376104D01*
X155644523Y-98376104D02*
X155682619Y-98299914D01*
X155682619Y-98299914D02*
X155682619Y-97652295D01*
X156482618Y-98452295D02*
X156025475Y-98452295D01*
X156254047Y-98452295D02*
X156254047Y-97652295D01*
X156254047Y-97652295D02*
X156177856Y-97766580D01*
X156177856Y-97766580D02*
X156101666Y-97842771D01*
X156101666Y-97842771D02*
X156025475Y-97880866D01*
D10*
X169800476Y-108104895D02*
X170257619Y-108104895D01*
X170029047Y-108904895D02*
X170029047Y-108104895D01*
X170524286Y-108904895D02*
X170524286Y-108104895D01*
X170524286Y-108104895D02*
X170829048Y-108104895D01*
X170829048Y-108104895D02*
X170905238Y-108142990D01*
X170905238Y-108142990D02*
X170943333Y-108181085D01*
X170943333Y-108181085D02*
X170981429Y-108257276D01*
X170981429Y-108257276D02*
X170981429Y-108371561D01*
X170981429Y-108371561D02*
X170943333Y-108447752D01*
X170943333Y-108447752D02*
X170905238Y-108485847D01*
X170905238Y-108485847D02*
X170829048Y-108523942D01*
X170829048Y-108523942D02*
X170524286Y-108523942D01*
X171667143Y-108371561D02*
X171667143Y-108904895D01*
X171476667Y-108066800D02*
X171286190Y-108638228D01*
X171286190Y-108638228D02*
X171781429Y-108638228D01*
D13*
X129514761Y-103627295D02*
X129133809Y-103627295D01*
X129133809Y-103627295D02*
X129133809Y-102827295D01*
X129781428Y-103208247D02*
X130048094Y-103208247D01*
X130162380Y-103627295D02*
X129781428Y-103627295D01*
X129781428Y-103627295D02*
X129781428Y-102827295D01*
X129781428Y-102827295D02*
X130162380Y-102827295D01*
X130505238Y-103627295D02*
X130505238Y-102827295D01*
X130505238Y-102827295D02*
X130695714Y-102827295D01*
X130695714Y-102827295D02*
X130810000Y-102865390D01*
X130810000Y-102865390D02*
X130886190Y-102941580D01*
X130886190Y-102941580D02*
X130924285Y-103017771D01*
X130924285Y-103017771D02*
X130962381Y-103170152D01*
X130962381Y-103170152D02*
X130962381Y-103284438D01*
X130962381Y-103284438D02*
X130924285Y-103436819D01*
X130924285Y-103436819D02*
X130886190Y-103513009D01*
X130886190Y-103513009D02*
X130810000Y-103589200D01*
X130810000Y-103589200D02*
X130695714Y-103627295D01*
X130695714Y-103627295D02*
X130505238Y-103627295D01*
X131724285Y-103627295D02*
X131267142Y-103627295D01*
X131495714Y-103627295D02*
X131495714Y-102827295D01*
X131495714Y-102827295D02*
X131419523Y-102941580D01*
X131419523Y-102941580D02*
X131343333Y-103017771D01*
X131343333Y-103017771D02*
X131267142Y-103055866D01*
X133660714Y-108532295D02*
X133394047Y-108151342D01*
X133203571Y-108532295D02*
X133203571Y-107732295D01*
X133203571Y-107732295D02*
X133508333Y-107732295D01*
X133508333Y-107732295D02*
X133584523Y-107770390D01*
X133584523Y-107770390D02*
X133622618Y-107808485D01*
X133622618Y-107808485D02*
X133660714Y-107884676D01*
X133660714Y-107884676D02*
X133660714Y-107998961D01*
X133660714Y-107998961D02*
X133622618Y-108075152D01*
X133622618Y-108075152D02*
X133584523Y-108113247D01*
X133584523Y-108113247D02*
X133508333Y-108151342D01*
X133508333Y-108151342D02*
X133203571Y-108151342D01*
X134422618Y-108532295D02*
X133965475Y-108532295D01*
X134194047Y-108532295D02*
X134194047Y-107732295D01*
X134194047Y-107732295D02*
X134117856Y-107846580D01*
X134117856Y-107846580D02*
X134041666Y-107922771D01*
X134041666Y-107922771D02*
X133965475Y-107960866D01*
X134917857Y-107732295D02*
X134994047Y-107732295D01*
X134994047Y-107732295D02*
X135070238Y-107770390D01*
X135070238Y-107770390D02*
X135108333Y-107808485D01*
X135108333Y-107808485D02*
X135146428Y-107884676D01*
X135146428Y-107884676D02*
X135184523Y-108037057D01*
X135184523Y-108037057D02*
X135184523Y-108227533D01*
X135184523Y-108227533D02*
X135146428Y-108379914D01*
X135146428Y-108379914D02*
X135108333Y-108456104D01*
X135108333Y-108456104D02*
X135070238Y-108494200D01*
X135070238Y-108494200D02*
X134994047Y-108532295D01*
X134994047Y-108532295D02*
X134917857Y-108532295D01*
X134917857Y-108532295D02*
X134841666Y-108494200D01*
X134841666Y-108494200D02*
X134803571Y-108456104D01*
X134803571Y-108456104D02*
X134765476Y-108379914D01*
X134765476Y-108379914D02*
X134727380Y-108227533D01*
X134727380Y-108227533D02*
X134727380Y-108037057D01*
X134727380Y-108037057D02*
X134765476Y-107884676D01*
X134765476Y-107884676D02*
X134803571Y-107808485D01*
X134803571Y-107808485D02*
X134841666Y-107770390D01*
X134841666Y-107770390D02*
X134917857Y-107732295D01*
X168299160Y-105370295D02*
X168299160Y-106017914D01*
X168299160Y-106017914D02*
X168337255Y-106094104D01*
X168337255Y-106094104D02*
X168375350Y-106132200D01*
X168375350Y-106132200D02*
X168451541Y-106170295D01*
X168451541Y-106170295D02*
X168603922Y-106170295D01*
X168603922Y-106170295D02*
X168680112Y-106132200D01*
X168680112Y-106132200D02*
X168718207Y-106094104D01*
X168718207Y-106094104D02*
X168756303Y-106017914D01*
X168756303Y-106017914D02*
X168756303Y-105370295D01*
X169251540Y-105713152D02*
X169175350Y-105675057D01*
X169175350Y-105675057D02*
X169137255Y-105636961D01*
X169137255Y-105636961D02*
X169099159Y-105560771D01*
X169099159Y-105560771D02*
X169099159Y-105522676D01*
X169099159Y-105522676D02*
X169137255Y-105446485D01*
X169137255Y-105446485D02*
X169175350Y-105408390D01*
X169175350Y-105408390D02*
X169251540Y-105370295D01*
X169251540Y-105370295D02*
X169403921Y-105370295D01*
X169403921Y-105370295D02*
X169480112Y-105408390D01*
X169480112Y-105408390D02*
X169518207Y-105446485D01*
X169518207Y-105446485D02*
X169556302Y-105522676D01*
X169556302Y-105522676D02*
X169556302Y-105560771D01*
X169556302Y-105560771D02*
X169518207Y-105636961D01*
X169518207Y-105636961D02*
X169480112Y-105675057D01*
X169480112Y-105675057D02*
X169403921Y-105713152D01*
X169403921Y-105713152D02*
X169251540Y-105713152D01*
X169251540Y-105713152D02*
X169175350Y-105751247D01*
X169175350Y-105751247D02*
X169137255Y-105789342D01*
X169137255Y-105789342D02*
X169099159Y-105865533D01*
X169099159Y-105865533D02*
X169099159Y-106017914D01*
X169099159Y-106017914D02*
X169137255Y-106094104D01*
X169137255Y-106094104D02*
X169175350Y-106132200D01*
X169175350Y-106132200D02*
X169251540Y-106170295D01*
X169251540Y-106170295D02*
X169403921Y-106170295D01*
X169403921Y-106170295D02*
X169480112Y-106132200D01*
X169480112Y-106132200D02*
X169518207Y-106094104D01*
X169518207Y-106094104D02*
X169556302Y-106017914D01*
X169556302Y-106017914D02*
X169556302Y-105865533D01*
X169556302Y-105865533D02*
X169518207Y-105789342D01*
X169518207Y-105789342D02*
X169480112Y-105751247D01*
X169480112Y-105751247D02*
X169403921Y-105713152D01*
D10*
X175141667Y-106059895D02*
X174875000Y-105678942D01*
X174684524Y-106059895D02*
X174684524Y-105259895D01*
X174684524Y-105259895D02*
X174989286Y-105259895D01*
X174989286Y-105259895D02*
X175065476Y-105297990D01*
X175065476Y-105297990D02*
X175103571Y-105336085D01*
X175103571Y-105336085D02*
X175141667Y-105412276D01*
X175141667Y-105412276D02*
X175141667Y-105526561D01*
X175141667Y-105526561D02*
X175103571Y-105602752D01*
X175103571Y-105602752D02*
X175065476Y-105640847D01*
X175065476Y-105640847D02*
X174989286Y-105678942D01*
X174989286Y-105678942D02*
X174684524Y-105678942D01*
X175903571Y-106059895D02*
X175446428Y-106059895D01*
X175675000Y-106059895D02*
X175675000Y-105259895D01*
X175675000Y-105259895D02*
X175598809Y-105374180D01*
X175598809Y-105374180D02*
X175522619Y-105450371D01*
X175522619Y-105450371D02*
X175446428Y-105488466D01*
D13*
X140114819Y-114092381D02*
X139638628Y-114425714D01*
X140114819Y-114663809D02*
X139114819Y-114663809D01*
X139114819Y-114663809D02*
X139114819Y-114282857D01*
X139114819Y-114282857D02*
X139162438Y-114187619D01*
X139162438Y-114187619D02*
X139210057Y-114140000D01*
X139210057Y-114140000D02*
X139305295Y-114092381D01*
X139305295Y-114092381D02*
X139448152Y-114092381D01*
X139448152Y-114092381D02*
X139543390Y-114140000D01*
X139543390Y-114140000D02*
X139591009Y-114187619D01*
X139591009Y-114187619D02*
X139638628Y-114282857D01*
X139638628Y-114282857D02*
X139638628Y-114663809D01*
X139591009Y-113663809D02*
X139591009Y-113330476D01*
X140114819Y-113187619D02*
X140114819Y-113663809D01*
X140114819Y-113663809D02*
X139114819Y-113663809D01*
X139114819Y-113663809D02*
X139114819Y-113187619D01*
X140067200Y-112806666D02*
X140114819Y-112663809D01*
X140114819Y-112663809D02*
X140114819Y-112425714D01*
X140114819Y-112425714D02*
X140067200Y-112330476D01*
X140067200Y-112330476D02*
X140019580Y-112282857D01*
X140019580Y-112282857D02*
X139924342Y-112235238D01*
X139924342Y-112235238D02*
X139829104Y-112235238D01*
X139829104Y-112235238D02*
X139733866Y-112282857D01*
X139733866Y-112282857D02*
X139686247Y-112330476D01*
X139686247Y-112330476D02*
X139638628Y-112425714D01*
X139638628Y-112425714D02*
X139591009Y-112616190D01*
X139591009Y-112616190D02*
X139543390Y-112711428D01*
X139543390Y-112711428D02*
X139495771Y-112759047D01*
X139495771Y-112759047D02*
X139400533Y-112806666D01*
X139400533Y-112806666D02*
X139305295Y-112806666D01*
X139305295Y-112806666D02*
X139210057Y-112759047D01*
X139210057Y-112759047D02*
X139162438Y-112711428D01*
X139162438Y-112711428D02*
X139114819Y-112616190D01*
X139114819Y-112616190D02*
X139114819Y-112378095D01*
X139114819Y-112378095D02*
X139162438Y-112235238D01*
X139591009Y-111806666D02*
X139591009Y-111473333D01*
X140114819Y-111330476D02*
X140114819Y-111806666D01*
X140114819Y-111806666D02*
X139114819Y-111806666D01*
X139114819Y-111806666D02*
X139114819Y-111330476D01*
X139114819Y-111044761D02*
X139114819Y-110473333D01*
X140114819Y-110759047D02*
X139114819Y-110759047D01*
X174976666Y-110321009D02*
X174643333Y-110321009D01*
X174643333Y-110844819D02*
X174643333Y-109844819D01*
X174643333Y-109844819D02*
X175119523Y-109844819D01*
X176024285Y-110844819D02*
X175452857Y-110844819D01*
X175738571Y-110844819D02*
X175738571Y-109844819D01*
X175738571Y-109844819D02*
X175643333Y-109987676D01*
X175643333Y-109987676D02*
X175548095Y-110082914D01*
X175548095Y-110082914D02*
X175452857Y-110130533D01*
X152826667Y-102684295D02*
X152560000Y-102303342D01*
X152369524Y-102684295D02*
X152369524Y-101884295D01*
X152369524Y-101884295D02*
X152674286Y-101884295D01*
X152674286Y-101884295D02*
X152750476Y-101922390D01*
X152750476Y-101922390D02*
X152788571Y-101960485D01*
X152788571Y-101960485D02*
X152826667Y-102036676D01*
X152826667Y-102036676D02*
X152826667Y-102150961D01*
X152826667Y-102150961D02*
X152788571Y-102227152D01*
X152788571Y-102227152D02*
X152750476Y-102265247D01*
X152750476Y-102265247D02*
X152674286Y-102303342D01*
X152674286Y-102303342D02*
X152369524Y-102303342D01*
X153093333Y-101884295D02*
X153588571Y-101884295D01*
X153588571Y-101884295D02*
X153321905Y-102189057D01*
X153321905Y-102189057D02*
X153436190Y-102189057D01*
X153436190Y-102189057D02*
X153512381Y-102227152D01*
X153512381Y-102227152D02*
X153550476Y-102265247D01*
X153550476Y-102265247D02*
X153588571Y-102341438D01*
X153588571Y-102341438D02*
X153588571Y-102531914D01*
X153588571Y-102531914D02*
X153550476Y-102608104D01*
X153550476Y-102608104D02*
X153512381Y-102646200D01*
X153512381Y-102646200D02*
X153436190Y-102684295D01*
X153436190Y-102684295D02*
X153207619Y-102684295D01*
X153207619Y-102684295D02*
X153131428Y-102646200D01*
X153131428Y-102646200D02*
X153093333Y-102608104D01*
X158396104Y-100223332D02*
X158434200Y-100261428D01*
X158434200Y-100261428D02*
X158472295Y-100375713D01*
X158472295Y-100375713D02*
X158472295Y-100451904D01*
X158472295Y-100451904D02*
X158434200Y-100566190D01*
X158434200Y-100566190D02*
X158358009Y-100642380D01*
X158358009Y-100642380D02*
X158281819Y-100680475D01*
X158281819Y-100680475D02*
X158129438Y-100718571D01*
X158129438Y-100718571D02*
X158015152Y-100718571D01*
X158015152Y-100718571D02*
X157862771Y-100680475D01*
X157862771Y-100680475D02*
X157786580Y-100642380D01*
X157786580Y-100642380D02*
X157710390Y-100566190D01*
X157710390Y-100566190D02*
X157672295Y-100451904D01*
X157672295Y-100451904D02*
X157672295Y-100375713D01*
X157672295Y-100375713D02*
X157710390Y-100261428D01*
X157710390Y-100261428D02*
X157748485Y-100223332D01*
X158472295Y-99461428D02*
X158472295Y-99918571D01*
X158472295Y-99689999D02*
X157672295Y-99689999D01*
X157672295Y-99689999D02*
X157786580Y-99766190D01*
X157786580Y-99766190D02*
X157862771Y-99842380D01*
X157862771Y-99842380D02*
X157900866Y-99918571D01*
D10*
X172918020Y-103649085D02*
X172841830Y-103610990D01*
X172841830Y-103610990D02*
X172765639Y-103534800D01*
X172765639Y-103534800D02*
X172651353Y-103420514D01*
X172651353Y-103420514D02*
X172575163Y-103382419D01*
X172575163Y-103382419D02*
X172498972Y-103382419D01*
X172537068Y-103572895D02*
X172460877Y-103534800D01*
X172460877Y-103534800D02*
X172384687Y-103458609D01*
X172384687Y-103458609D02*
X172346591Y-103306228D01*
X172346591Y-103306228D02*
X172346591Y-103039561D01*
X172346591Y-103039561D02*
X172384687Y-102887180D01*
X172384687Y-102887180D02*
X172460877Y-102810990D01*
X172460877Y-102810990D02*
X172537068Y-102772895D01*
X172537068Y-102772895D02*
X172689449Y-102772895D01*
X172689449Y-102772895D02*
X172765639Y-102810990D01*
X172765639Y-102810990D02*
X172841830Y-102887180D01*
X172841830Y-102887180D02*
X172879925Y-103039561D01*
X172879925Y-103039561D02*
X172879925Y-103306228D01*
X172879925Y-103306228D02*
X172841830Y-103458609D01*
X172841830Y-103458609D02*
X172765639Y-103534800D01*
X172765639Y-103534800D02*
X172689449Y-103572895D01*
X172689449Y-103572895D02*
X172537068Y-103572895D01*
X173641829Y-103572895D02*
X173184686Y-103572895D01*
X173413258Y-103572895D02*
X173413258Y-102772895D01*
X173413258Y-102772895D02*
X173337067Y-102887180D01*
X173337067Y-102887180D02*
X173260877Y-102963371D01*
X173260877Y-102963371D02*
X173184686Y-103001466D01*
D13*
X134893333Y-99019819D02*
X134560000Y-98543628D01*
X134321905Y-99019819D02*
X134321905Y-98019819D01*
X134321905Y-98019819D02*
X134702857Y-98019819D01*
X134702857Y-98019819D02*
X134798095Y-98067438D01*
X134798095Y-98067438D02*
X134845714Y-98115057D01*
X134845714Y-98115057D02*
X134893333Y-98210295D01*
X134893333Y-98210295D02*
X134893333Y-98353152D01*
X134893333Y-98353152D02*
X134845714Y-98448390D01*
X134845714Y-98448390D02*
X134798095Y-98496009D01*
X134798095Y-98496009D02*
X134702857Y-98543628D01*
X134702857Y-98543628D02*
X134321905Y-98543628D01*
X135750476Y-98019819D02*
X135560000Y-98019819D01*
X135560000Y-98019819D02*
X135464762Y-98067438D01*
X135464762Y-98067438D02*
X135417143Y-98115057D01*
X135417143Y-98115057D02*
X135321905Y-98257914D01*
X135321905Y-98257914D02*
X135274286Y-98448390D01*
X135274286Y-98448390D02*
X135274286Y-98829342D01*
X135274286Y-98829342D02*
X135321905Y-98924580D01*
X135321905Y-98924580D02*
X135369524Y-98972200D01*
X135369524Y-98972200D02*
X135464762Y-99019819D01*
X135464762Y-99019819D02*
X135655238Y-99019819D01*
X135655238Y-99019819D02*
X135750476Y-98972200D01*
X135750476Y-98972200D02*
X135798095Y-98924580D01*
X135798095Y-98924580D02*
X135845714Y-98829342D01*
X135845714Y-98829342D02*
X135845714Y-98591247D01*
X135845714Y-98591247D02*
X135798095Y-98496009D01*
X135798095Y-98496009D02*
X135750476Y-98448390D01*
X135750476Y-98448390D02*
X135655238Y-98400771D01*
X135655238Y-98400771D02*
X135464762Y-98400771D01*
X135464762Y-98400771D02*
X135369524Y-98448390D01*
X135369524Y-98448390D02*
X135321905Y-98496009D01*
X135321905Y-98496009D02*
X135274286Y-98591247D01*
D17*
X161198095Y-69021119D02*
X161198095Y-69830642D01*
X161198095Y-69830642D02*
X161245714Y-69925880D01*
X161245714Y-69925880D02*
X161293333Y-69973500D01*
X161293333Y-69973500D02*
X161388571Y-70021119D01*
X161388571Y-70021119D02*
X161579047Y-70021119D01*
X161579047Y-70021119D02*
X161674285Y-69973500D01*
X161674285Y-69973500D02*
X161721904Y-69925880D01*
X161721904Y-69925880D02*
X161769523Y-69830642D01*
X161769523Y-69830642D02*
X161769523Y-69021119D01*
X162198095Y-69116357D02*
X162245714Y-69068738D01*
X162245714Y-69068738D02*
X162340952Y-69021119D01*
X162340952Y-69021119D02*
X162579047Y-69021119D01*
X162579047Y-69021119D02*
X162674285Y-69068738D01*
X162674285Y-69068738D02*
X162721904Y-69116357D01*
X162721904Y-69116357D02*
X162769523Y-69211595D01*
X162769523Y-69211595D02*
X162769523Y-69306833D01*
X162769523Y-69306833D02*
X162721904Y-69449690D01*
X162721904Y-69449690D02*
X162150476Y-70021119D01*
X162150476Y-70021119D02*
X162769523Y-70021119D01*
D13*
X150266104Y-94173332D02*
X150304200Y-94211428D01*
X150304200Y-94211428D02*
X150342295Y-94325713D01*
X150342295Y-94325713D02*
X150342295Y-94401904D01*
X150342295Y-94401904D02*
X150304200Y-94516190D01*
X150304200Y-94516190D02*
X150228009Y-94592380D01*
X150228009Y-94592380D02*
X150151819Y-94630475D01*
X150151819Y-94630475D02*
X149999438Y-94668571D01*
X149999438Y-94668571D02*
X149885152Y-94668571D01*
X149885152Y-94668571D02*
X149732771Y-94630475D01*
X149732771Y-94630475D02*
X149656580Y-94592380D01*
X149656580Y-94592380D02*
X149580390Y-94516190D01*
X149580390Y-94516190D02*
X149542295Y-94401904D01*
X149542295Y-94401904D02*
X149542295Y-94325713D01*
X149542295Y-94325713D02*
X149580390Y-94211428D01*
X149580390Y-94211428D02*
X149618485Y-94173332D01*
X149542295Y-93449523D02*
X149542295Y-93830475D01*
X149542295Y-93830475D02*
X149923247Y-93868571D01*
X149923247Y-93868571D02*
X149885152Y-93830475D01*
X149885152Y-93830475D02*
X149847057Y-93754285D01*
X149847057Y-93754285D02*
X149847057Y-93563809D01*
X149847057Y-93563809D02*
X149885152Y-93487618D01*
X149885152Y-93487618D02*
X149923247Y-93449523D01*
X149923247Y-93449523D02*
X149999438Y-93411428D01*
X149999438Y-93411428D02*
X150189914Y-93411428D01*
X150189914Y-93411428D02*
X150266104Y-93449523D01*
X150266104Y-93449523D02*
X150304200Y-93487618D01*
X150304200Y-93487618D02*
X150342295Y-93563809D01*
X150342295Y-93563809D02*
X150342295Y-93754285D01*
X150342295Y-93754285D02*
X150304200Y-93830475D01*
X150304200Y-93830475D02*
X150266104Y-93868571D01*
X159225476Y-98102295D02*
X159225476Y-98749914D01*
X159225476Y-98749914D02*
X159263571Y-98826104D01*
X159263571Y-98826104D02*
X159301666Y-98864200D01*
X159301666Y-98864200D02*
X159377857Y-98902295D01*
X159377857Y-98902295D02*
X159530238Y-98902295D01*
X159530238Y-98902295D02*
X159606428Y-98864200D01*
X159606428Y-98864200D02*
X159644523Y-98826104D01*
X159644523Y-98826104D02*
X159682619Y-98749914D01*
X159682619Y-98749914D02*
X159682619Y-98102295D01*
X159987380Y-98102295D02*
X160482618Y-98102295D01*
X160482618Y-98102295D02*
X160215952Y-98407057D01*
X160215952Y-98407057D02*
X160330237Y-98407057D01*
X160330237Y-98407057D02*
X160406428Y-98445152D01*
X160406428Y-98445152D02*
X160444523Y-98483247D01*
X160444523Y-98483247D02*
X160482618Y-98559438D01*
X160482618Y-98559438D02*
X160482618Y-98749914D01*
X160482618Y-98749914D02*
X160444523Y-98826104D01*
X160444523Y-98826104D02*
X160406428Y-98864200D01*
X160406428Y-98864200D02*
X160330237Y-98902295D01*
X160330237Y-98902295D02*
X160101666Y-98902295D01*
X160101666Y-98902295D02*
X160025475Y-98864200D01*
X160025475Y-98864200D02*
X159987380Y-98826104D01*
D14*
%TO.C,C9*%
X146152164Y-100280000D02*
X146367836Y-100280000D01*
X146152164Y-101000000D02*
X146367836Y-101000000D01*
%TO.C,C8*%
X160700580Y-92129999D02*
X160419420Y-92129999D01*
X160700580Y-93149999D02*
X160419420Y-93149999D01*
%TO.C,C15*%
X171614420Y-110430000D02*
X171895580Y-110430000D01*
X171614420Y-111450000D02*
X171895580Y-111450000D01*
%TO.C,C10*%
X164335580Y-99370000D02*
X164054420Y-99370000D01*
X164335580Y-100390000D02*
X164054420Y-100390000D01*
D18*
%TO.C,J5*%
X147473000Y-113469000D02*
X147473000Y-114231000D01*
D14*
%TO.C,R2*%
X175513641Y-100960000D02*
X175206359Y-100960000D01*
X175513641Y-101720000D02*
X175206359Y-101720000D01*
%TO.C,R9*%
X131872258Y-105917500D02*
X131397742Y-105917500D01*
X131872258Y-106962500D02*
X131397742Y-106962500D01*
D18*
%TO.C,U6*%
X162900000Y-103634400D02*
X162900000Y-102775600D01*
X164438400Y-103913800D02*
X163901600Y-103913800D01*
X165440000Y-102775600D02*
X165440000Y-103634400D01*
D19*
X165833700Y-102189000D02*
G75*
G02*
X165706700Y-102189000I-63500J0D01*
G01*
X165706700Y-102189000D02*
G75*
G02*
X165833700Y-102189000I63500J0D01*
G01*
D14*
%TO.C,R5*%
X131922258Y-104257500D02*
X131447742Y-104257500D01*
X131922258Y-105302500D02*
X131447742Y-105302500D01*
%TO.C,U5*%
X141562500Y-105340000D02*
X141562500Y-111340000D01*
X146782500Y-105380000D02*
X146782500Y-111340000D01*
X146962500Y-105140000D02*
X146482500Y-105140000D01*
X146482500Y-104660000D01*
X146962500Y-105140000D01*
G36*
X146962500Y-105140000D02*
G01*
X146482500Y-105140000D01*
X146482500Y-104660000D01*
X146962500Y-105140000D01*
G37*
D18*
%TO.C,J4*%
X167560000Y-93390000D02*
X167560000Y-96390000D01*
X170160000Y-91890000D02*
X171810000Y-91890000D01*
X171810000Y-91890000D02*
X171810000Y-92640000D01*
X171810000Y-97140000D02*
X171810000Y-97890000D01*
X171810000Y-97890000D02*
X170160000Y-97890000D01*
X172561600Y-92390000D02*
G75*
G02*
X172358400Y-92390000I-101600J0D01*
G01*
X172358400Y-92390000D02*
G75*
G02*
X172561600Y-92390000I101600J0D01*
G01*
%TO.C,D5*%
X172045000Y-106580000D02*
X172045000Y-108380000D01*
X173295000Y-105710000D02*
X172045000Y-105710000D01*
X173295000Y-106580000D02*
X173295000Y-108380000D01*
D14*
%TO.C,TP3*%
X148960000Y-102040000D02*
X150360000Y-102040000D01*
X148960000Y-103440000D02*
X148960000Y-102040000D01*
X150360000Y-102040000D02*
X150360000Y-103440000D01*
X150360000Y-103440000D02*
X148960000Y-103440000D01*
%TO.C,C2*%
X166669420Y-79830000D02*
X166950580Y-79830000D01*
X166669420Y-80850000D02*
X166950580Y-80850000D01*
%TO.C,D2*%
X132560000Y-78490000D02*
X132560000Y-79850000D01*
X132560000Y-79850000D02*
X133360000Y-79850000D01*
X133360000Y-78490000D02*
X133360000Y-79850000D01*
D19*
%TO.C,U4*%
X147960000Y-99000000D02*
X147960000Y-98490000D01*
X147960000Y-101490000D02*
X147960000Y-100980000D01*
X150460000Y-98490000D02*
X150460000Y-99000000D01*
X150460000Y-101490000D02*
X150460000Y-100980000D01*
D11*
X147985000Y-101590000D02*
G75*
G02*
X147785000Y-101590000I-100000J0D01*
G01*
X147785000Y-101590000D02*
G75*
G02*
X147985000Y-101590000I100000J0D01*
G01*
D14*
%TO.C,J3*%
X166500000Y-115450000D02*
X166500000Y-114340000D01*
X167260000Y-115450000D02*
X166500000Y-115450000D01*
X168020000Y-113230000D02*
X176845000Y-113230000D01*
X168020000Y-113776529D02*
X168020000Y-113230000D01*
X168020000Y-115450000D02*
X168020000Y-114903471D01*
X168020000Y-115450000D02*
X176845000Y-115450000D01*
X176845000Y-114032470D02*
X176845000Y-113230000D01*
X176845000Y-115450000D02*
X176845000Y-114647530D01*
%TO.C,C11*%
X165160000Y-108014420D02*
X165160000Y-108295580D01*
X166180000Y-108014420D02*
X166180000Y-108295580D01*
D20*
%TO.C,LOGO1*%
G36*
X128736646Y-66778650D02*
G01*
X128858470Y-66817656D01*
X128972176Y-66876232D01*
X129363620Y-66557054D01*
X129717946Y-66911380D01*
X129396034Y-67306177D01*
X129492045Y-67537916D01*
X129998800Y-67589439D01*
X129998800Y-68090561D01*
X129492045Y-68142084D01*
X129396034Y-68373823D01*
X129717946Y-68768620D01*
X129363620Y-69122946D01*
X128972177Y-68803769D01*
X128791601Y-68896794D01*
X128523679Y-68250073D01*
X128761262Y-68057599D01*
X128808649Y-67961467D01*
X128827728Y-67850339D01*
X128814464Y-67738367D01*
X128769947Y-67634772D01*
X128697841Y-67548083D01*
X128604087Y-67485440D01*
X128496406Y-67452002D01*
X128383659Y-67450520D01*
X128275133Y-67481119D01*
X128179767Y-67541276D01*
X128105411Y-67626039D01*
X128058187Y-67728431D01*
X128042825Y-67834234D01*
X128112078Y-68062564D01*
X128185688Y-68143772D01*
X128526677Y-68348100D01*
X128305710Y-68348100D01*
X128079668Y-68893732D01*
X127928403Y-68823577D01*
X127896079Y-68805192D01*
X127506380Y-69122946D01*
X127152054Y-68768620D01*
X127473966Y-68373823D01*
X127377955Y-68142084D01*
X126871200Y-68090561D01*
X126871200Y-67589439D01*
X127377955Y-67537916D01*
X127473966Y-67306177D01*
X127152054Y-66911380D01*
X127506380Y-66557054D01*
X127901177Y-66878966D01*
X128132916Y-66782955D01*
X128184439Y-66276200D01*
X128685561Y-66276200D01*
X128736646Y-66778650D01*
G37*
D18*
%TO.C,Y1*%
X155510000Y-101990000D02*
X156510000Y-101990000D01*
X156510000Y-103690000D02*
X155510000Y-103690000D01*
D14*
%TO.C,R8*%
X132948641Y-101050000D02*
X132641359Y-101050000D01*
X132948641Y-101810000D02*
X132641359Y-101810000D01*
D19*
%TO.C,U7*%
X149710000Y-104790000D02*
X160110000Y-104790000D01*
X149710000Y-119090000D02*
X149710000Y-104790000D01*
X160110000Y-104790000D02*
X160110000Y-119090000D01*
X160110000Y-119090000D02*
X149710000Y-119090000D01*
D11*
X149110000Y-105540000D02*
G75*
G02*
X148910000Y-105540000I-100000J0D01*
G01*
X148910000Y-105540000D02*
G75*
G02*
X149110000Y-105540000I100000J0D01*
G01*
D14*
%TO.C,C3*%
X152899300Y-96130706D02*
X152899300Y-95849546D01*
X153919300Y-96130706D02*
X153919300Y-95849546D01*
%TO.C,C7*%
X151200000Y-96595580D02*
X151200000Y-96314420D01*
X152220000Y-96595580D02*
X152220000Y-96314420D01*
%TO.C,C4*%
X162624420Y-97779999D02*
X162905580Y-97779999D01*
X162624420Y-98799999D02*
X162905580Y-98799999D01*
D11*
%TO.C,J2*%
X179295000Y-107545000D02*
X180545000Y-107545000D01*
X179315000Y-98615000D02*
X180565000Y-98615000D01*
X183265000Y-107545000D02*
X184425000Y-107545000D01*
X183285000Y-98615000D02*
X184445000Y-98615000D01*
X176045000Y-106325000D02*
G75*
G02*
X175845000Y-106325000I-100000J0D01*
G01*
X175845000Y-106325000D02*
G75*
G02*
X176045000Y-106325000I100000J0D01*
G01*
D14*
%TO.C,R12*%
X144160000Y-101283641D02*
X144160000Y-100976359D01*
X144920000Y-101283641D02*
X144920000Y-100976359D01*
D18*
%TO.C,LED4*%
X168543750Y-106667500D02*
X169496250Y-106667500D01*
D10*
%TO.C,SW3*%
X126160000Y-75190000D02*
X126510000Y-75190000D01*
X126160000Y-80590000D02*
X126160000Y-75190000D01*
X126560000Y-80590000D02*
X126160000Y-80590000D01*
X131610000Y-80590000D02*
X131960000Y-80590000D01*
X131960000Y-75140000D02*
X131610000Y-75140000D01*
X131960000Y-80640000D02*
X131960000Y-75140000D01*
D14*
%TO.C,C6*%
X150950000Y-101349420D02*
X150950000Y-101630580D01*
X151970000Y-101349420D02*
X151970000Y-101630580D01*
%TO.C,D1*%
X132610000Y-87440000D02*
X132610000Y-88800000D01*
X132610000Y-88800000D02*
X133410000Y-88800000D01*
X133410000Y-87440000D02*
X133410000Y-88800000D01*
%TO.C,R7*%
X132958641Y-99800000D02*
X132651359Y-99800000D01*
X132958641Y-100560000D02*
X132651359Y-100560000D01*
%TO.C,C12*%
X169235580Y-99470000D02*
X168954420Y-99470000D01*
X169235580Y-100490000D02*
X168954420Y-100490000D01*
%TO.C,LED3*%
X126720000Y-107415000D02*
X126720000Y-108885000D01*
X126720000Y-108885000D02*
X129005000Y-108885000D01*
X129005000Y-107415000D02*
X126720000Y-107415000D01*
D21*
%TO.C,U1*%
X154653600Y-95034426D02*
X154653600Y-95364035D01*
X154653600Y-97016217D02*
X154653600Y-97345826D01*
X154653600Y-97345826D02*
X155233272Y-97345826D01*
X155233272Y-95034426D02*
X154653600Y-95034426D01*
X156385328Y-97345826D02*
X156965000Y-97345826D01*
X156965000Y-95034426D02*
X156385328Y-95034426D01*
X156965000Y-95364035D02*
X156965000Y-95034426D01*
X156965000Y-97345826D02*
X156965000Y-97016217D01*
D20*
G36*
X154990300Y-97740126D02*
G01*
X154609300Y-97740126D01*
X154609300Y-97486126D01*
X154990300Y-97486126D01*
X154990300Y-97740126D01*
G37*
D14*
%TO.C,TP4*%
X170260000Y-106200000D02*
X171660000Y-106200000D01*
X170260000Y-107600000D02*
X170260000Y-106200000D01*
X171660000Y-106200000D02*
X171660000Y-107600000D01*
X171660000Y-107600000D02*
X170260000Y-107600000D01*
%TO.C,LED1*%
X126740000Y-104005000D02*
X126740000Y-105475000D01*
X126740000Y-105475000D02*
X129025000Y-105475000D01*
X129025000Y-104005000D02*
X126740000Y-104005000D01*
%TO.C,R10*%
X131812258Y-107647500D02*
X131337742Y-107647500D01*
X131812258Y-108692500D02*
X131337742Y-108692500D01*
D18*
%TO.C,U8*%
X168725500Y-103584400D02*
X168725500Y-102725600D01*
X169727100Y-102446200D02*
X170263900Y-102446200D01*
X171265500Y-102725600D02*
X171265500Y-103584400D01*
D19*
X168458800Y-104171000D02*
G75*
G02*
X168331800Y-104171000I-63500J0D01*
G01*
X168331800Y-104171000D02*
G75*
G02*
X168458800Y-104171000I63500J0D01*
G01*
D14*
%TO.C,R1*%
X175313641Y-104310000D02*
X175006359Y-104310000D01*
X175313641Y-105070000D02*
X175006359Y-105070000D01*
%TO.C,SW4*%
X135210000Y-110440000D02*
X135210000Y-114840000D01*
X136810000Y-110440000D02*
X136710000Y-110440000D01*
X136810000Y-114840000D02*
X136710000Y-114840000D01*
X138310000Y-114840000D02*
X138310000Y-110440000D01*
D10*
%TO.C,SW2*%
X126160000Y-84240000D02*
X126510000Y-84240000D01*
X126160000Y-89640000D02*
X126160000Y-84240000D01*
X126560000Y-89640000D02*
X126160000Y-89640000D01*
X131610000Y-89640000D02*
X131960000Y-89640000D01*
X131960000Y-84190000D02*
X131610000Y-84190000D01*
X131960000Y-89690000D02*
X131960000Y-84190000D01*
D14*
%TO.C,F1*%
X174500000Y-108148578D02*
X174500000Y-107631422D01*
X175920000Y-108148578D02*
X175920000Y-107631422D01*
%TO.C,C1*%
X157600000Y-97930580D02*
X157600000Y-97649420D01*
X158620000Y-97930580D02*
X158620000Y-97649420D01*
D18*
%TO.C,Q1*%
X171580000Y-103880000D02*
X171580000Y-103080000D01*
X172180000Y-103880000D02*
X171580000Y-103880000D01*
X173780000Y-103880000D02*
X174380000Y-103880000D01*
X174380000Y-103880000D02*
X174380000Y-103080000D01*
D14*
%TO.C,LED2*%
X126720000Y-105715000D02*
X126720000Y-107185000D01*
X126720000Y-107185000D02*
X129005000Y-107185000D01*
X129005000Y-105715000D02*
X126720000Y-105715000D01*
%TO.C,R6*%
X132948641Y-98350000D02*
X132641359Y-98350000D01*
X132948641Y-99110000D02*
X132641359Y-99110000D01*
D19*
%TO.C,U2*%
X148360000Y-70690000D02*
X151240000Y-70690000D01*
X148360000Y-73570000D02*
X148360000Y-70690000D01*
X148360000Y-86190000D02*
X148360000Y-83310000D01*
X148360000Y-86190000D02*
X151240000Y-86190000D01*
X160980000Y-70690000D02*
X163860000Y-70690000D01*
X163860000Y-70690000D02*
X163860000Y-73570000D01*
X163860000Y-83310000D02*
X163860000Y-86190000D01*
X163860000Y-86190000D02*
X160980000Y-86190000D01*
D11*
X160010000Y-69940000D02*
G75*
G02*
X159810000Y-69940000I-100000J0D01*
G01*
X159810000Y-69940000D02*
G75*
G02*
X160010000Y-69940000I100000J0D01*
G01*
D14*
%TO.C,C5*%
X149470000Y-96595580D02*
X149470000Y-96314420D01*
X150490000Y-96595580D02*
X150490000Y-96314420D01*
D21*
%TO.C,U3*%
X159130400Y-93666199D02*
X159130400Y-97425399D01*
X159130400Y-97425399D02*
X162889600Y-97425399D01*
X162889600Y-93666199D02*
X159130400Y-93666199D01*
X162889600Y-97425399D02*
X162889600Y-93666199D01*
D10*
X159910000Y-97795799D02*
G75*
G02*
X159710000Y-97795799I-100000J0D01*
G01*
X159710000Y-97795799D02*
G75*
G02*
X159910000Y-97795799I100000J0D01*
G01*
D20*
G36*
X161450500Y-93788200D02*
G01*
X161069499Y-93788200D01*
X161069499Y-93534200D01*
X161450500Y-93534200D01*
X161450500Y-93788200D01*
G37*
%TD*%
M02*
